<?xml version="1.0" encoding="utf-8"?>
<!-- Generator: Adobe Illustrator 17.0.0, SVG Export Plug-In . SVG Version: 6.00 Build 0)  -->
<!DOCTYPE svg PUBLIC "-//W3C//DTD SVG 1.1//EN" "http://www.w3.org/Graphics/SVG/1.1/DTD/svg11.dtd">
<svg version="1.1" id="Слой_1" xmlns="http://www.w3.org/2000/svg" xmlns:xlink="http://www.w3.org/1999/xlink" x="0px" y="0px"
	 width="235px" height="146.621px" viewBox="304.445 223.14 235 146.621" enable-background="new 304.445 223.14 235 146.621"
	 xml:space="preserve">
<g>
	<g>
		<path fill="#8EA031" d="M532.213,316.772c-0.008-0.546-0.397-0.823-0.852-0.912c0.084-0.626-0.178-1.186-1.005-1.317
			c-4.278-0.674-8.735-0.436-13,0.229c-0.135,0.021-0.263,0.065-0.387,0.119c-1.611-3.337-3.096-6.725-4.858-9.993
			c-2.53-4.692-5.759-9.014-8.716-13.438c-2.893-4.328-5.18-9.001-8.071-13.325c-11.427-17.096-31.572-24.227-49.707-31.766
			c-41.74-17.352-90.334-21.691-132.67-3.664c-0.367,0.156-0.71,0.486-0.974,0.869c-1.261,0.173-2.602,2.034-1.586,3.067
			c3.176,3.231,5.837,6.842,8.273,10.652c-0.369,0.961-0.124,1.993,1.216,1.799c8.873-1.286,18.048,4.585,23.837,10.967
			c-0.982,1.461-1.936,2.955-2.893,4.472c-3.832,6.076-9.63,10.526-13.238,16.769c-0.288,0.499-0.341,1.301-0.062,1.808
			c-0.428,0.849-0.357,1.855,0.763,2.099c6.715,1.465,13.022,4.443,18.936,7.883c0.298,0.173,0.621,0.194,0.936,0.113
			c0.244,0.029,0.537-0.011,0.895-0.167c11.042-4.796,23.151-5.889,35.058-6.36c13.241-0.524,26.448,0.082,39.421,2.918
			c13.307,2.909,25.652,9.151,37.198,16.2c9.474,5.783,20.232,10.888,26.263,20.504c0.06,0.461,0.119,0.922,0.195,1.382
			c0.007,0.042,0.022,0.073,0.031,0.112c-3.771,1.362-7.137,4.554-9.369,7.654c-0.379,0.526-0.468,1.39-0.021,1.878
			c-0.515,0.781-0.583,1.684,0.35,1.937c2.892,0.784,5.317,2.789,7.847,4.41c-0.207,0.726-0.037,1.742,0.92,1.768
			c6.567,0.175,12.759,0.294,18.936,2.846c5.419,2.24,9.514,7.06,13.537,11.126c0.418,0.422,0.969,0.428,1.483,0.201
			c0.851-0.178,1.789-0.925,1.874-1.856c0.805-8.872,4.989-16.359,7.099-24.855C532.006,334.294,532.347,325.602,532.213,316.772z"
			/>
		<path fill="#8EA031" d="M527.382,317.655c-2.531,1.845-4.477,4.378-6.199,7.057c-0.492-2.343-1.491-4.494-2.683-6.763
			c-0.017-0.033-0.032-0.066-0.05-0.099C521.409,317.475,524.414,317.36,527.382,317.655z"/>
		<path fill="#8EA031" d="M321.955,255.638c-0.031-0.104-0.074-0.206-0.137-0.304c-1.988-3.123-4.123-6.135-6.536-8.928
			c1.428,0.267,2.861,0.537,4.292,0.812c-0.254,0.458-0.359,0.967-0.176,1.428c1.002,2.515,2.573,4.697,4.012,6.964
			C322.926,255.604,322.44,255.609,321.955,255.638z"/>
		<path fill="#8EA031" d="M327.843,256.101c-0.007-0.191-0.05-0.38-0.148-0.558c-1.438-2.612-3.293-4.966-4.616-7.63
			c1.424,0.293,2.844,0.601,4.256,0.928c-0.642,0.568-1.024,1.427-0.591,2.112c1.206,1.907,2.785,3.8,3.839,5.879
			C329.678,256.542,328.765,256.292,327.843,256.101z"/>
		<path fill="#8EA031" d="M334.895,258.606c-0.462-3.452-2.731-6.214-4.618-9.044c1.936,0.498,3.85,1.05,5.736,1.667
			c-0.551,0.566-0.91,1.35-0.665,2.033c0.707,1.969,0.976,4.062,1.082,6.156C335.925,259.135,335.413,258.864,334.895,258.606z"/>
		<path fill="#8EA031" d="M341.535,255.623c0.372,2.481,0.405,4.953,0.219,7.422c-0.679-0.546-1.372-1.08-2.091-1.584
			c0.067-0.23,0.104-0.473,0.103-0.723c-0.014-2.898-0.21-5.779-1.03-8.554c1.284,0.477,2.55,0.994,3.797,1.553
			C341.91,254.194,341.429,254.913,341.535,255.623z"/>
		<path fill="#8EA031" d="M370.755,294.398c0.184-0.612,0.07-1.238-0.573-1.589c-3.665-2.004-5.111-6.8-9.816-7.017
			c-1.736-0.08-3.383,3.231-1.233,3.331c3.325,0.154,5.225,3.691,7.685,5.837c-1.57,0.249-3.134,0.525-4.687,0.853
			c-0.033-0.27-0.171-0.515-0.449-0.698c-3.158-2.083-5.983-4.899-9.549-6.293c-1.659-0.648-3.826,2.425-1.978,3.147
			c2.806,1.097,5.116,3.129,7.538,4.908c-1.625,0.441-3.239,0.919-4.832,1.477c0.683-0.692,0.984-1.672,0.216-2.191
			c-3.601-2.431-7.148-5.409-11.437-6.503c-1.709-0.436-3.843,2.672-1.978,3.147c4.068,1.037,7.393,3.784,10.808,6.089
			c0.134,0.091,0.278,0.144,0.423,0.18c-0.631,0.245-1.26,0.495-1.884,0.762c-5.395-3.124-11.064-5.756-17.081-7.37
			c5.961-2.007,11.709-4.403,17.934-5.754c5.725-1.242,11.537-1.923,17.371-2.327c-1.242,0.671-2.116,2.533-0.709,2.963
			c3.893,1.189,6.557,4.549,10.074,6.478C374.647,293.982,372.697,294.161,370.755,294.398z"/>
		<path fill="#8EA031" d="M379.446,293.63c0.736-0.804,1.019-2.02-0.031-2.5c-3.887-1.777-6.585-5.478-10.688-6.838
			c2.571-0.158,5.145-0.272,7.717-0.354c0.31-0.01,0.62-0.019,0.93-0.029c-1.017,0.759-1.599,2.314-0.356,2.813
			c3.315,1.33,5.381,4.257,7.899,6.645C383.096,293.433,381.271,293.519,379.446,293.63z"/>
		<path fill="#8EA031" d="M397.567,293.218c0.178-0.507,0.158-1.041-0.209-1.462c-2.249-2.58-5.335-4.5-7.124-7.461
			c-1.041-1.723-3.965,0.611-3.049,2.126c1.628,2.694,4.128,4.583,6.329,6.766c-1.6,0.006-3.199,0.029-4.795,0.065
			c0.327-0.595,0.36-1.262-0.176-1.706c-3.078-2.549-5.315-5.984-8.998-7.704c6.078-0.183,12.155-0.317,18.222-0.259
			c-1.177,0.057-2.625,1.957-1.756,3.143c1.538,2.1,2.778,4.395,4.219,6.561C399.343,293.26,398.455,293.232,397.567,293.218z"/>
		<path fill="#8EA031" d="M413.854,294.314c0.294-0.584,0.335-1.237-0.126-1.719c-2.32-2.424-3.542-5.735-6.296-7.765
			c-1.509-1.113-4.076,1.651-2.607,2.734c2.227,1.641,3.466,4.134,5.092,6.311c-2.063-0.194-4.131-0.342-6.202-0.447
			c0.256-0.559,0.302-1.178-0.061-1.673c-1.825-2.492-3.21-5.27-5.037-7.765c-0.186-0.254-0.422-0.376-0.677-0.405
			c6.204,0.062,12.397,0.337,18.571,0.98c-0.647,0.456-1.172,1.186-1.105,1.908c0.272,2.922,1.235,5.917,2.746,8.473
			C416.725,294.712,415.292,294.495,413.854,294.314z"/>
		<path fill="#8EA031" d="M451.629,306.529c0.581-0.569,0.972-1.381,0.726-2.086c-1.245-3.565-3.294-7.105-3.248-10.977
			c0.028-2.355-3.247-1.232-3.268,0.575c-0.047,3.974,1.551,7.44,2.926,11.054c-1.711-0.835-3.434-1.642-5.178-2.406
			c0.907-0.621,1.55-1.925,0.782-2.748c-1.845-1.977-3.14-5.228-3.027-7.944c0.098-2.355-3.193-1.228-3.268,0.575
			c-0.127,3.057,0.895,6.389,2.731,8.926c-1.308-0.536-2.627-1.052-3.958-1.543c0.461-0.653,0.654-1.486,0.177-2.111
			c-2.332-3.056-1.691-8.607-5.771-10.28c-1.648-0.676-3.818,2.393-1.978,3.147c1.735,0.711,2.285,3.059,2.818,4.671
			c0.376,1.137,0.741,2.255,1.232,3.316c-1.731-0.573-3.483-1.108-5.261-1.596c0.652-0.567,1.035-1.429,0.576-2.103
			c-1.525-2.242-2.761-4.772-3.458-7.398c-0.561-2.113-3.717-0.301-3.268,1.391c0.689,2.595,1.766,5.074,3.193,7.347
			c-1.112-0.261-2.227-0.508-3.345-0.733c0.377-0.52,0.519-1.144,0.163-1.657c-1.804-2.597-2.955-5.718-3.249-8.867
			c-0.01-0.107-0.033-0.197-0.057-0.285c2.539,0.3,5.075,0.662,7.606,1.108c9.422,1.66,19.226,4.585,28.275,8.819
			c-0.929,0.45-1.799,1.638-1.417,2.609c1.499,3.809,2.787,7.73,3.358,11.777C454.846,308.227,453.245,307.359,451.629,306.529z"/>
		<path fill="#8EA031" d="M460.009,311.135c-0.163-5.377-1.799-10.593-3.742-15.575c2.399,1.182,4.719,2.482,6.975,3.855
			c-0.48,0.554-0.758,1.276-0.505,1.906c1.738,4.329,2.227,9.012,3.397,13.507C464.102,313.562,462.062,312.329,460.009,311.135z"/>
		<path fill="#8EA031" d="M468.721,316.417c0.671-0.445,1.167-1.211,0.953-1.954c-1.223-4.24-1.754-8.657-3.053-12.867
			c1.91,1.298,3.771,2.646,5.52,4.096c0.442,0.366,0.884,0.739,1.326,1.109c-0.831,0.518-1.568,1.59-1.285,2.496
			c1.078,3.456,1.394,7.085,2.222,10.601C472.537,318.727,470.632,317.584,468.721,316.417z"/>
		<path fill="#8EA031" d="M476.689,321.36c0.761-0.42,1.381-1.256,1.169-2.07c-0.916-3.513-1.294-7.126-2.205-10.634
			c1.32,1.134,2.626,2.294,3.901,3.486c-0.59,0.459-1.046,1.145-0.977,1.824c0.336,3.286,0.887,6.534,1.506,9.773
			C478.978,322.919,477.849,322.125,476.689,321.36z"/>
		<path fill="#8EA031" d="M486.552,322.792c-0.006,2.256-0.04,4.514-0.005,6.768c-0.93-1.029-1.893-2.016-2.916-2.932
			c0.261-0.38,0.399-0.818,0.312-1.251c-0.713-3.57-1.385-7.142-1.847-10.751c2.015,2.05,3.898,4.214,5.565,6.533
			C487.054,321.489,486.554,322.086,486.552,322.792z"/>
		<path fill="#8EA031" d="M483.644,343.182c2.846,0.369,5.521,1.363,7.929,2.9c-0.281,0.244-0.551,0.5-0.82,0.755
			c-2.271-1.002-4.644-1.781-6.935-2.738c-0.389-0.163-0.803-0.13-1.197,0.019C482.95,343.797,483.288,343.482,483.644,343.182z"/>
		<path fill="#8EA031" d="M495.703,342.457c0.27,0.186,0.569,0.257,0.872,0.257c-0.457,0.22-0.917,0.471-1.376,0.741
			c-1.877-1.323-3.876-2.353-6.001-3.061c0.169-0.075,0.33-0.169,0.475-0.291C491.54,339.835,494.375,341.543,495.703,342.457z"/>
		<path fill="#8EA031" d="M489.811,324.404c2.407,3.879,5.222,8.954,6.75,13.719c-1.698-0.931-3.587-1.632-5.469-1.669
			c0.025-0.253,0.007-0.506-0.122-0.742c-0.243-0.446-0.52-0.851-0.779-1.277C489.799,331.105,489.794,327.758,489.811,324.404z"/>
		<path fill="#FFFFFF" d="M525.274,347.549c-1.977,5.76-4.175,11.215-5.251,17.122c-3.216-3.212-6.463-6.243-10.427-8.626
			c-5.869-3.527-12.912-3.734-19.594-3.892c-0.006-0.026-0.008-0.052-0.015-0.078c0.158-0.249,0.354-0.501,0.539-0.752
			c0.319,0.171,7.108-4.486,8.785-6.396c0.862-0.982,2.149-2.07,1.62-2.91c-0.375-6.003-4.38-12.486-7.049-17.77
			c-3.496-6.921-8.694-11.891-14.347-17.056c-12.913-11.798-27.902-18.444-44.718-22.981c-17.772-4.795-36.547-4.243-54.772-3.678
			c-8.516,0.264-16.932,0.729-25.359,2.068c-7.9,1.256-14.842,4.121-22.243,6.563c2.766-3.58,6.122-6.608,8.819-10.302
			c4.131-5.656,7.115-11.995,12.608-16.558c0.33-0.274,0.547-0.612,0.676-0.961c0.391,0.345,0.791,0.675,1.173,1.039
			c1.352,1.285,3.958-1.449,2.607-2.734c-10.825-10.292-25.176-13.427-39.379-16.114c39.514-14.787,83.957-10.427,122.594,5.123
			c17.615,7.089,36.466,13.893,48.83,29.034c5.957,7.296,10.367,16.343,15.574,24.223c2.599,3.933,4.803,8.034,6.532,12.42
			c1.88,4.771,5.89,8.932,5.767,14.335c-0.032,1.418,1.143,1.57,2.093,1.076c0.6,0.007,1.276-0.301,1.698-1.01
			c1.879-3.159,3.826-6.635,6.922-8.724C529.012,329.403,528.356,338.57,525.274,347.549z"/>
		<path fill="#8EA031" d="M344.868,254.855c2.703,1.367,5.299,2.962,7.743,4.875c-2.585,2.149-4.728,4.581-6.674,7.18
			c-0.407-0.436-0.834-0.865-1.268-1.29C345.216,262.05,345.335,258.44,344.868,254.855z"/>
	</g>
	<g>
		<g>
			<path d="M378.283,265.259c-0.169,0.374-0.408,0.693-0.713,0.962c-0.306,0.269-0.642,0.544-1.01,0.827
				c-0.123,0.094-0.236,0.194-0.341,0.299c-0.106,0.106-0.235,0.22-0.386,0.345c-1.313,0.716-2.666,1.114-4.091,1.194
				c-1.434,0.082-2.889-0.012-4.384-0.279c-0.114-0.289-0.218-0.566-0.311-0.834c-0.094-0.268-0.161-0.54-0.204-0.819
				c-0.1-0.653-0.15-0.979-0.249-1.632c-0.051-0.562-0.134-1.112-0.249-1.647c-0.117-0.536-0.303-1.048-0.559-1.54
				c-0.536-1.602-1.129-3.184-1.788-4.743c-0.659-1.559-1.093-3.18-1.275-4.866c-0.145-0.178-0.224-0.368-0.235-0.57
				c-0.012-0.203-0.054-0.414-0.128-0.63c-0.068-0.192-0.177-0.375-0.324-0.552s-0.431-0.341-0.856-0.487
				c0.356-0.532,0.749-0.914,1.176-1.147c0.424-0.232,0.955-0.494,1.592-0.781c0.186-0.084,0.343-0.16,0.473-0.233
				c0.128-0.073,0.283-0.175,0.465-0.305c0.686-0.189,1.399-0.397,2.136-0.621c0.735-0.222,1.474-0.401,2.215-0.538
				c0.739-0.135,1.462-0.202,2.171-0.199c0.705,0.004,1.371,0.121,1.993,0.351c1.02,0.531,1.774,1.213,2.272,2.037
				c0.497,0.824,0.735,1.693,0.724,2.604c-0.12,0.333-0.233,0.665-0.334,0.996c-0.103,0.333-0.231,0.668-0.384,1.006
				c-0.12,0.311-0.266,0.624-0.435,0.944c-0.172,0.318-0.42,0.67-0.742,1.06c1.669,0.439,3.01,1.158,4.029,2.13
				c1.015,0.971,1.519,2.055,1.551,3.239c-0.127,0.732-0.35,1.474-0.665,2.232C379.099,263.819,378.721,264.551,378.283,265.259z
				 M364.161,249.88c0.583,1.348,1.163,2.664,1.739,3.95c0.576,1.288,1.05,2.665,1.433,4.13c0.584-0.31,1.113-0.568,1.582-0.776
				c0.468-0.207,0.891-0.416,1.267-0.627c0.445-0.247,0.852-0.511,1.223-0.793c0.369-0.281,0.661-0.611,0.879-0.991
				c0.28-0.465,0.58-0.943,0.9-1.433c0.318-0.489,0.568-0.979,0.745-1.473c0.177-0.491,0.222-0.966,0.13-1.427
				c-0.092-0.459-0.414-0.895-0.969-1.3c-0.579-0.231-1.242-0.406-1.99-0.522c-0.75-0.117-1.527-0.155-2.328-0.116
				c-0.804,0.039-1.602,0.171-2.391,0.397C365.589,249.128,364.847,249.455,364.161,249.88z M373.575,257.041
				c-1.115,0.254-2.139,0.666-3.061,1.232c-0.928,0.571-1.822,1.155-2.684,1.752c0.016,0.664,0.108,1.266,0.271,1.801
				c0.162,0.535,0.314,1.074,0.459,1.613c0.441,1.371,0.659,2.058,1.091,3.431c0.493,0.084,0.958,0.116,1.399,0.097
				c0.44-0.021,0.893-0.058,1.36-0.116c0.462-0.083,0.914-0.168,1.356-0.255s0.923-0.185,1.445-0.291
				c0.333-0.332,0.61-0.67,0.828-1.02c0.218-0.347,0.42-0.703,0.607-1.07c0.186-0.364,0.373-0.73,0.563-1.092
				c0.189-0.364,0.421-0.713,0.7-1.047c0.198-0.498,0.241-0.982,0.126-1.456c-0.116-0.471-0.333-0.919-0.652-1.343
				c-0.32-0.423-0.7-0.808-1.142-1.154c-0.442-0.345-0.903-0.638-1.378-0.877C374.35,257.161,374.092,257.12,373.575,257.041z"/>
			<path d="M386.197,251.465c0.251,1.002,0.375,1.503,0.618,2.505c0.033,0.19,0.118,0.495,0.252,0.912
				c0.133,0.417,0.266,0.858,0.397,1.324c0.131,0.464,0.261,0.912,0.39,1.342c0.128,0.43,0.224,0.764,0.288,1.003
				c0.512,0.079,1.015,0.064,1.511-0.046c0.494-0.108,1.057-0.142,1.689-0.103c0.504,0.019,0.912,0.058,1.224,0.116
				c0.311,0.059,0.574,0.126,0.79,0.198c0.215,0.072,0.398,0.156,0.55,0.251c0.151,0.097,0.302,0.181,0.454,0.254
				c0.3,0.193,0.545,0.378,0.736,0.56c0.19,0.181,0.355,0.368,0.498,0.559c0.202,0.193,0.328,0.391,0.378,0.594
				c0.049,0.203,0.127,0.436,0.233,0.698c0.236,0.621,0.243,1.233,0.031,1.837c-0.212,0.603-0.542,1.204-0.982,1.799
				c-0.59,0.597-1.346,1.07-2.269,1.427c-0.929,0.356-1.791,0.591-2.595,0.699c-0.149-0.043-0.26-0.068-0.334-0.077
				c-0.075-0.008-0.187-0.022-0.336-0.038c-0.42-0.003-0.719-0.031-0.9-0.081c-0.18-0.051-0.451-0.201-0.816-0.448
				c0.151-0.203,0.196-0.383,0.135-0.537c-0.062-0.155-0.108-0.305-0.138-0.45c-0.062-0.143-0.124-0.279-0.185-0.409
				c-0.062-0.131-0.078-0.283-0.048-0.455c-0.466-1.143-0.783-2.312-0.935-3.509c-0.152-1.194-0.363-2.39-0.635-3.591
				c-0.002-0.193-0.062-0.438-0.18-0.735c-0.119-0.297-0.253-0.606-0.406-0.925c-0.153-0.32-0.307-0.627-0.462-0.923
				c-0.155-0.295-0.269-0.536-0.339-0.726c-0.189-0.441-0.284-0.662-0.476-1.102c-0.036-0.094-0.073-0.244-0.111-0.448
				c-0.038-0.202-0.068-0.425-0.089-0.667c-0.023-0.24-0.044-0.468-0.065-0.684c-0.022-0.216-0.034-0.384-0.036-0.505
				c0.271-0.206,0.484-0.383,0.637-0.534c0.153-0.15,0.399-0.293,0.743-0.425C385.731,250.658,385.887,250.927,386.197,251.465z
				 M389.369,266.2c0.481,0.099,0.91,0.093,1.287-0.02c0.376-0.11,0.716-0.278,1.021-0.504c0.305-0.226,0.589-0.498,0.853-0.815
				c0.263-0.317,0.537-0.623,0.818-0.913c0.417-0.769,0.652-1.47,0.693-2.103c0.041-0.631-0.232-1.188-0.831-1.664
				c-0.24-0.214-0.562-0.32-0.966-0.316c-0.405,0.004-0.764-0.015-1.076-0.058c-0.312-0.043-0.722-0.005-1.226,0.115
				c-0.506,0.123-0.98,0.168-1.422,0.136c0.249,1.078,0.422,2.119,0.524,3.118C389.148,264.177,389.255,265.186,389.369,266.2z
				 M399.478,252.893c-0.023-0.119-0.028-0.241-0.018-0.369c0.01-0.126,0.02-0.261,0.031-0.4c0.042-0.535,0.063-0.912,0.065-1.133
				c0.001-0.221,0.063-0.49,0.185-0.809c0.037-0.067,0.073-0.112,0.107-0.132c0.033-0.022,0.084-0.053,0.152-0.095
				c0.136-0.106,0.278-0.172,0.425-0.197c0.146-0.023,0.351,0.124,0.61,0.447c-0.034,1.113-0.089,2.179-0.163,3.199
				c-0.073,1.022-0.134,2.161-0.181,3.42c-0.013,0.786-0.02,1.18-0.034,1.966c-0.155,0.742-0.267,1.452-0.34,2.128
				c-0.072,0.679-0.135,1.34-0.189,1.985c-0.054,0.647-0.132,1.303-0.23,1.973c-0.099,0.669-0.248,1.354-0.446,2.06
				c-0.317,0.037-0.541-0.01-0.674-0.144c-0.134-0.132-0.235-0.308-0.306-0.523c0.143-2.915,0.214-4.373,0.358-7.288
				c0.016-0.211,0.062-0.439,0.142-0.683c0.079-0.242,0.13-0.505,0.151-0.786c0.062-0.817,0.141-1.641,0.236-2.468
				C399.451,254.218,399.493,253.502,399.478,252.893z"/>
			<path d="M435.209,262.288c-0.391,0.456-0.637,1.026-0.743,1.712c-0.106,0.686-0.257,1.323-0.451,1.913
				c-0.127,0.386-0.35,0.744-0.664,1.073c-0.06,0.657-0.024,1.253,0.104,1.789s0.552,0.971,1.267,1.316
				c0.169,0.168,0.399,0.213,0.689,0.141c0.29-0.074,0.566-0.143,0.831-0.212c0.263-0.068,0.465-0.067,0.604,0.003
				c0.138,0.071,0.139,0.33,0.002,0.778c-0.16,0.067-0.239,0.1-0.398,0.167c0.086,0.137,0.129,0.206,0.214,0.343
				c-0.702,0.212-1.383,0.358-2.044,0.437c-0.664,0.079-1.368-0.064-2.121-0.428c-0.522-0.932-0.789-1.397-1.335-2.325
				c-1.021,0.719-2.134,1.27-3.348,1.663c-1.221,0.394-2.473,0.477-3.779,0.247c-0.66-0.106-1.281-0.243-1.865-0.411
				c-0.586-0.171-1.123-0.389-1.614-0.658c-0.493-0.269-0.914-0.606-1.264-1.016c-0.352-0.409-0.62-0.914-0.805-1.52
				c-0.308-1.017-0.433-2.071-0.364-3.166c0.068-1.093,0.218-2.198,0.454-3.314c0.079-0.372,0.156-0.738,0.232-1.099
				c0.076-0.359,0.168-0.722,0.273-1.088c0.155-0.196,0.306-0.308,0.454-0.334c0.147-0.027,0.299-0.011,0.457,0.043
				c0.158,0.055,0.317,0.128,0.48,0.219c0.162,0.091,0.34,0.147,0.534,0.165c-0.098,0.683-0.245,1.394-0.44,2.137
				c-0.195,0.742-0.351,1.495-0.467,2.256c-0.117,0.76-0.157,1.51-0.123,2.245c0.034,0.736,0.237,1.446,0.603,2.135
				c0.41,0.606,0.868,1.027,1.384,1.26c0.512,0.234,1.051,0.376,1.62,0.424c0.567,0.049,1.159,0.051,1.776,0.007
				c0.614-0.043,1.222-0.033,1.821,0.029c1.131-0.204,2.021-0.626,2.672-1.278c0.648-0.652,1.209-1.372,1.679-2.168
				c0.469-0.794,0.919-1.598,1.349-2.41c0.428-0.811,0.982-1.48,1.663-2C434.813,261.731,434.945,261.917,435.209,262.288z"/>
			<path d="M448.032,269.105c-0.471-0.143-0.883-0.362-1.237-0.663c-0.356-0.301-0.711-0.565-1.062-0.794
				c-0.353-0.228-0.708-0.349-1.062-0.361c-0.355-0.012-0.753,0.207-1.19,0.659c-0.397,0.223-0.703,0.494-0.919,0.813
				s-0.377,0.661-0.484,1.023c-0.107,0.363-0.195,0.744-0.267,1.143c-0.073,0.4-0.172,0.788-0.299,1.167
				c0.261,0.46,0.567,0.753,0.921,0.882c0.353,0.128,0.732,0.206,1.137,0.236s0.816,0.059,1.235,0.086
				c0.417,0.028,0.817,0.169,1.196,0.423c-0.249,0.231-0.54,0.393-0.874,0.489c-0.334,0.095-0.686,0.146-1.053,0.152
				c-0.369,0.007-0.744-0.028-1.127-0.102c-0.384-0.075-0.733-0.173-1.049-0.297c-0.32-0.057-0.591-0.155-0.815-0.297
				c-0.225-0.142-0.413-0.314-0.566-0.518c-0.153-0.205-0.268-0.427-0.345-0.671c-0.078-0.243-0.127-0.468-0.145-0.677
				c0.067-1.325,0.489-2.489,1.293-3.474c0.801-0.982,1.817-1.656,3.048-2.006c0.387-0.064,0.776-0.048,1.163,0.048
				c0.386,0.096,0.753,0.253,1.1,0.47c0.346,0.217,0.661,0.473,0.945,0.767c0.283,0.293,0.517,0.606,0.703,0.936
				C448.18,268.767,448.131,268.88,448.032,269.105z"/>
			<path d="M454.624,266.876c-0.164,0.504-0.321,0.951-0.469,1.338c-0.148,0.388-0.281,0.769-0.396,1.14s-0.223,0.752-0.324,1.142
				c-0.1,0.39-0.172,0.834-0.214,1.332c0.686-0.131,1.397-0.228,2.131-0.288c0.732-0.061,1.479-0.073,2.241-0.036
				c0.758,0.038,1.521,0.141,2.288,0.312c0.762,0.171,1.53,0.425,2.299,0.764c-0.049,0.495-0.191,0.77-0.423,0.828
				c-0.233,0.058-0.519,0.034-0.859-0.072c-0.313-0.112-0.676-0.236-1.092-0.368c-0.415-0.133-0.758-0.182-1.026-0.148
				c-0.68,0.055-1.429,0.082-2.25,0.087c-0.824,0.003-1.602,0.092-2.33,0.263c0.41,0.368,0.777,0.727,1.102,1.078
				c0.324,0.351,0.611,0.733,0.859,1.148c0.246,0.415,0.438,0.881,0.575,1.398c0.136,0.515,0.215,1.109,0.235,1.779
				c-0.013,0.288,0.045,0.598,0.173,0.928c0.127,0.331,0.223,0.652,0.288,0.961c0.064,0.308,0.061,0.59-0.012,0.846
				s-0.29,0.454-0.65,0.598c-0.229,0.108-0.343,0.162-0.571,0.27c-0.253-0.387-0.425-0.831-0.516-1.333
				c-0.092-0.502-0.165-1.024-0.22-1.564c-0.056-0.54-0.116-1.082-0.178-1.624c-0.063-0.544-0.2-1.057-0.411-1.541
				c-0.212-0.483-0.527-0.918-0.946-1.301c-0.42-0.383-0.998-0.68-1.733-0.882c-0.913,2.298-1.375,3.445-2.306,5.735
				c-0.206,0.084-0.402,0.195-0.587,0.334c-0.186,0.139-0.411,0.169-0.678,0.093c0.369-1.341,0.739-2.536,1.117-3.577
				s0.749-2.062,1.114-3.061c0.364-0.999,0.705-2.031,1.02-3.099c0.314-1.066,0.579-2.29,0.784-3.677
				c0.111-0.238,0.227-0.475,0.349-0.708c0.121-0.233,0.364-0.351,0.729-0.35c0.165,0.038,0.29,0.105,0.374,0.204
				c0.083,0.098,0.144,0.203,0.183,0.312s0.078,0.231,0.119,0.364C454.456,266.633,454.526,266.758,454.624,266.876z"/>
			<path d="M466.602,288.141c-0.341,0.027-0.622,0.027-0.843-0.003c-0.221-0.031-0.382-0.056-0.483-0.076
				c-0.01-0.006-0.014-0.009-0.024-0.016c-0.019-0.013-0.029-0.019-0.048-0.031c0.047-0.385-0.073-0.694-0.359-0.926
				c-0.287-0.232-0.631-0.442-1.032-0.625c-0.401-0.185-0.789-0.365-1.164-0.539c-0.375-0.176-0.627-0.403-0.752-0.686
				c-0.294-0.501-0.478-1.028-0.55-1.586c-0.073-0.558-0.057-1.104,0.048-1.637c0.104-0.532,0.278-1.047,0.522-1.541
				s0.525-0.931,0.846-1.31c0.405-0.279,0.845-0.469,1.317-0.567c0.471-0.098,0.998-0.066,1.581,0.098
				c0.792,0.413,1.354,0.869,1.691,1.355c0.335,0.486,0.595,1.071,0.781,1.752c0.115-0.178,0.254-0.42,0.416-0.727
				c0.162-0.307,0.312-0.652,0.449-1.034c0.136-0.383,0.235-0.784,0.297-1.206c0.06-0.421,0.039-0.841-0.067-1.259
				c-0.06-0.179-0.204-0.393-0.434-0.638c-0.23-0.247-0.483-0.5-0.755-0.762c-0.275-0.261-0.533-0.51-0.775-0.747
				c-0.243-0.238-0.403-0.439-0.479-0.603c-0.075-0.209-0.05-0.366,0.075-0.47c0.125-0.103,0.31-0.151,0.556-0.141
				c0.245,0.008,0.523,0.08,0.832,0.213c0.308,0.133,0.607,0.331,0.897,0.594c0.319,0.213,0.605,0.47,0.856,0.768
				c0.25,0.297,0.461,0.626,0.63,0.986c0.169,0.358,0.277,0.741,0.326,1.146c0.047,0.405,0.012,0.81-0.106,1.216
				c-0.267,0.372-0.59,0.914-0.971,1.626s-0.774,1.494-1.177,2.343c-0.405,0.85-0.79,1.72-1.157,2.607
				C467.175,286.604,466.861,287.411,466.602,288.141z M462.934,280.988c-0.057,0.333-0.112,0.718-0.164,1.155
				c-0.053,0.438-0.05,0.87,0.006,1.295c0.056,0.425,0.188,0.815,0.396,1.174c0.207,0.359,0.546,0.64,1.02,0.848
				c0.041-0.065,0.169-0.047,0.383,0.055c0.213,0.103,0.363,0.159,0.45,0.169c0.269-0.158,0.404-0.237,0.674-0.393
				c0.281-0.254,0.499-0.471,0.649-0.649c0.151-0.178,0.261-0.347,0.33-0.509c0.07-0.163,0.124-0.347,0.162-0.552
				c0.038-0.206,0.091-0.472,0.158-0.797c-0.024-0.593-0.236-1.163-0.639-1.702c-0.406-0.541-0.892-0.967-1.45-1.274
				c-0.409-0.004-0.767,0.121-1.078,0.376C463.521,280.439,463.222,280.707,462.934,280.988z"/>
			<path d="M467.91,290.738c-0.021-0.132-0.01-0.239,0.038-0.323c0.047-0.084,0.109-0.156,0.187-0.219s0.158-0.129,0.242-0.199
				c0.083-0.07,0.15-0.157,0.2-0.262c0.27-0.091,0.481-0.17,0.632-0.238c0.152-0.069,0.285-0.144,0.4-0.225
				c0.114-0.082,0.234-0.177,0.359-0.287c0.124-0.11,0.301-0.247,0.532-0.408c0.19-0.237,0.383-0.437,0.581-0.599
				c0.196-0.162,0.392-0.307,0.588-0.434c0.195-0.126,0.403-0.254,0.626-0.385c0.222-0.129,0.453-0.281,0.696-0.453
				c0.324-0.322,0.667-0.619,1.029-0.889c0.359-0.269,0.716-0.548,1.067-0.834c0.35-0.285,0.688-0.587,1.014-0.902
				c0.325-0.316,0.616-0.668,0.875-1.059c0.106-0.012,0.207,0.001,0.301,0.041c0.095,0.038,0.194,0.086,0.299,0.145
				c0.104,0.059,0.204,0.108,0.298,0.146c0.094,0.04,0.2,0.046,0.317,0.02c0.269,0.168,0.434,0.335,0.494,0.503
				c0.06,0.167,0.069,0.336,0.029,0.505c-0.041,0.169-0.092,0.354-0.156,0.553c-0.063,0.198-0.079,0.406-0.047,0.623
				c-0.016,0.344-0.106,0.801-0.272,1.37c-0.166,0.568-0.362,1.148-0.588,1.74c-0.227,0.591-0.449,1.157-0.665,1.697
				c-0.217,0.54-0.382,0.956-0.492,1.248c-0.221,0.585-0.427,1.116-0.617,1.595c-0.19,0.478-0.385,0.93-0.583,1.355
				c-0.198,0.425-0.398,0.842-0.599,1.253c-0.201,0.411-0.41,0.85-0.627,1.319c-0.128,0.16-0.268,0.3-0.418,0.418
				c-0.15,0.119-0.31,0.171-0.478,0.159c-0.146-0.068-0.222-0.157-0.225-0.265c-0.003-0.11,0.022-0.226,0.076-0.351
				c0.053-0.124,0.114-0.266,0.184-0.425c0.069-0.159,0.114-0.337,0.134-0.535c0.562-1.291,1.093-2.57,1.594-3.837
				c0.5-1.267,1.005-2.554,1.515-3.859c0.113-0.433,0.201-0.766,0.268-0.998c0.066-0.232,0.13-0.462,0.19-0.687
				c0.059-0.224,0.118-0.488,0.173-0.789c0.054-0.301,0.137-0.739,0.246-1.317c-0.225,0.107-0.488,0.292-0.788,0.554
				c-0.301,0.262-0.6,0.538-0.896,0.829c-0.297,0.29-0.584,0.577-0.861,0.859c-0.278,0.283-0.515,0.493-0.708,0.629
				c-0.436,0.306-0.792,0.562-1.069,0.766c-0.278,0.204-0.543,0.393-0.798,0.569c-0.256,0.176-0.528,0.351-0.816,0.526
				c-0.289,0.176-0.656,0.396-1.098,0.662c-0.207,0.225-0.457,0.414-0.749,0.567c-0.293,0.153-0.568,0.268-0.826,0.343
				c-0.129-0.044-0.237-0.06-0.323-0.051c-0.087,0.009-0.162,0.02-0.228,0.033s-0.12,0.009-0.164-0.01
				C467.957,290.905,467.928,290.843,467.91,290.738z"/>
			<path d="M491.17,297.536c-0.425,0.218-0.803,0.56-1.136,1.025c-0.334,0.466-0.677,0.883-1.03,1.254
				c-0.231,0.243-0.512,0.437-0.839,0.582c-0.293,0.458-0.503,0.9-0.629,1.326c-0.127,0.426-0.025,0.866,0.3,1.326
				c0.044,0.171,0.174,0.271,0.388,0.304c0.215,0.031,0.419,0.061,0.617,0.088c0.196,0.027,0.325,0.086,0.388,0.178
				c0.062,0.091-0.037,0.28-0.298,0.566c-0.129,0.002-0.193,0.003-0.322,0.006c0.003,0.125,0.004,0.187,0.006,0.311
				c-0.535-0.05-1.03-0.144-1.486-0.281c-0.457-0.138-0.853-0.451-1.192-0.939c0.03-0.83,0.041-1.246,0.057-2.08
				c-0.926,0.214-1.845,0.276-2.761,0.187c-0.92-0.089-1.735-0.418-2.453-0.992c-0.366-0.283-0.696-0.576-0.987-0.881
				c-0.292-0.307-0.534-0.634-0.726-0.982c-0.193-0.349-0.315-0.724-0.363-1.129c-0.049-0.405-0.009-0.851,0.123-1.342
				c0.222-0.823,0.572-1.614,1.054-2.373c0.481-0.757,1.015-1.498,1.604-2.219c0.197-0.241,0.39-0.477,0.581-0.711
				c0.19-0.233,0.39-0.463,0.6-0.691c0.171-0.091,0.307-0.124,0.406-0.097c0.099,0.026,0.184,0.085,0.257,0.173
				s0.139,0.19,0.201,0.306c0.061,0.116,0.146,0.21,0.255,0.283c-0.332,0.458-0.705,0.921-1.12,1.391s-0.81,0.959-1.185,1.466
				c-0.375,0.506-0.7,1.029-0.974,1.565s-0.436,1.108-0.489,1.716c0.007,0.563,0.119,1.009,0.342,1.338
				c0.221,0.329,0.496,0.6,0.827,0.812c0.33,0.212,0.695,0.398,1.096,0.557c0.398,0.159,0.773,0.353,1.122,0.581
				c0.788,0.199,1.512,0.164,2.177-0.111c0.663-0.276,1.298-0.629,1.906-1.065c0.606-0.435,1.204-0.884,1.792-1.346
				c0.586-0.461,1.196-0.784,1.83-0.965C491.135,297.019,491.147,297.191,491.17,297.536z"/>
			<path d="M490.573,307.33c0.019,0.228-0.083,0.353-0.308,0.378c-0.224,0.024-0.404-0.01-0.537-0.105
				c-0.158-0.095-0.339-0.174-0.54-0.236c-0.202-0.063-0.319-0.214-0.352-0.454c-0.029-0.108-0.023-0.21,0.018-0.307
				c0.04-0.096,0.098-0.182,0.173-0.256c0.175-0.172,0.358-0.271,0.548-0.297c0.128,0.035,0.278,0.036,0.451,0.006
				c0.173-0.032,0.304,0.013,0.391,0.134c0.204,0.12,0.305,0.295,0.302,0.524C490.717,306.945,490.668,307.15,490.573,307.33z
				 M499.505,305.065c-0.817,0.202-1.602,0.182-2.357-0.057c-0.76-0.24-1.464-0.738-2.127-1.496
				c-0.285,0.161-0.427,0.242-0.711,0.404c-0.243,0.141-0.447,0.256-0.61,0.344c-0.164,0.089-0.319,0.169-0.464,0.239
				c-0.145,0.071-0.302,0.135-0.471,0.194c-0.168,0.059-0.372,0.123-0.611,0.194c-0.152-0.038-0.254-0.118-0.306-0.24
				c-0.053-0.122-0.053-0.233-0.001-0.33c0.371-0.107,0.722-0.268,1.053-0.485c0.329-0.216,0.659-0.444,0.99-0.683
				c0.329-0.239,0.66-0.465,0.989-0.679c0.328-0.213,0.667-0.37,1.014-0.468c0.118,0.004,0.18,0.075,0.185,0.212
				s-0.019,0.267-0.072,0.388c-0.101,0.12-0.129,0.265-0.084,0.433c0.043,0.169,0.167,0.318,0.371,0.451
				c0.35,0.224,0.646,0.379,0.885,0.466c0.24,0.085,0.473,0.131,0.7,0.138c0.227,0.006,0.468-0.017,0.723-0.07
				c0.254-0.052,0.575-0.109,0.964-0.169c0.26-0.218,0.546-0.481,0.859-0.794c0.313-0.313,0.598-0.652,0.855-1.019
				c0.257-0.366,0.458-0.748,0.604-1.145c0.146-0.398,0.187-0.782,0.124-1.155c-0.027-0.168-0.102-0.332-0.223-0.495
				c-0.122-0.163-0.239-0.318-0.351-0.467c-0.112-0.149-0.189-0.295-0.231-0.438c-0.042-0.143,0.004-0.293,0.14-0.449
				c-0.019-0.13,0.022-0.2,0.123-0.211c0.101-0.012,0.198,0.012,0.289,0.071c0.173,0.129,0.309,0.28,0.408,0.455
				c0.099,0.174,0.183,0.351,0.252,0.528c0.068,0.179,0.131,0.355,0.186,0.533c0.056,0.176,0.126,0.357,0.21,0.542
				c-0.037,0.466-0.143,0.98-0.317,1.543c-0.176,0.562-0.405,1.099-0.686,1.611s-0.617,0.961-1.008,1.35
				C500.409,304.7,499.977,304.949,499.505,305.065z"/>
		</g>
	</g>
</g>
</svg>
