<?xml version="1.0" encoding="utf-8"?>
<!-- Generator: Adobe Illustrator 17.0.0, SVG Export Plug-In . SVG Version: 6.00 Build 0)  -->
<!DOCTYPE svg PUBLIC "-//W3C//DTD SVG 1.1//EN" "http://www.w3.org/Graphics/SVG/1.1/DTD/svg11.dtd">
<svg version="1.1" id="Слой_1" xmlns="http://www.w3.org/2000/svg" xmlns:xlink="http://www.w3.org/1999/xlink" x="0px" y="0px"
	 width="97.77px" height="95px" viewBox="368.445 249.14 97.77 95" enable-background="new 368.445 249.14 97.77 95"
	 xml:space="preserve">
<g>
	<g>
		<g>
			<path d="M398.495,295.504c-2.152-2.597-5.908-2.989-9.497-2.484c-1.416,0.199-2.855,0.83-4.206,1.284
				c-1.283,0.431-1.944,0.895-2.14-0.342c-0.164-1.036-0.542-1.681-0.985-2.647c-0.724-1.579,2.614-2.145,3.703-2.43
				c3.113-0.813,11.138-1.964,8.267-6.148c-0.1-0.145-0.556-0.376-0.811-0.417c-0.101-0.08-0.217-0.146-0.343-0.192
				c-0.076-0.034-0.147-0.052-0.214-0.056c-0.004-0.001-0.008-0.002-0.012-0.003c-1.013-0.153-1.946-0.518-2.923-0.767
				c-0.198-0.18-0.46-0.342-0.646-0.318c-3.191,0.421-6.286,1.762-9.434,2.457c-2.519,0.556-5.573,0.944-7.18,3.103
				c-0.059,0.079-0.025,0.182,0.052,0.286c-0.048,0.012-0.086,0.034-0.094,0.083c-0.653,3.876,1.669,8.835,3.352,12.185
				c1.157,2.302,1.919,4.623,2.783,7.029c0.494,1.373,0.829,2.939,1.757,4.113c-0.142,0.142,0.422,0.669,0.677,0.712
				c1.132,0.189,2.29,0.214,3.443,0.299c0.116,0.009,0.16-0.034,0.166-0.094c0.013,0,0.024,0.004,0.036,0.004
				c2.359-0.059,4.98-1.468,7.244-2.159c2.648-0.809,4.743-1.867,6.526-3.874C400.462,302.377,400.667,298.125,398.495,295.504z
				 M389.074,281.823c0.091,0.05,0.185,0.093,0.281,0.113c0.594,0.122,1.165,0.298,1.739,0.467
				c-0.347,0.104-0.695,0.201-1.043,0.301c-0.429-0.329-0.922-0.567-1.43-0.793C388.772,281.882,388.922,281.847,389.074,281.823z
				 M387.81,282.074c0.066,0.047,0.132,0.089,0.186,0.114c0.474,0.225,1.023,0.399,1.461,0.686
				c-0.472,0.133-0.948,0.256-1.421,0.384c-0.448-0.29-0.876-0.604-1.309-0.912C387.088,282.249,387.448,282.156,387.81,282.074z
				 M386.129,282.514c0.037,0.03,0.072,0.056,0.094,0.071c0.401,0.28,0.799,0.562,1.202,0.839c-0.405,0.108-0.809,0.216-1.214,0.324
				c-0.112-0.075-0.234-0.134-0.356-0.153c-0.253-0.04-0.303-0.105-0.473-0.272c-0.161-0.158-0.333-0.298-0.513-0.431
				C385.287,282.763,385.707,282.634,386.129,282.514z M384.288,283.068c0.079,0.059,0.16,0.113,0.224,0.151
				c0.22,0.133,0.38,0.374,0.577,0.535c0.094,0.077,0.193,0.148,0.296,0.215c-0.507,0.134-1.013,0.27-1.519,0.405
				c-0.434-0.204-0.821-0.454-1.168-0.764c-0.015-0.013-0.038-0.03-0.056-0.045C383.191,283.403,383.739,283.237,384.288,283.068z
				 M380.113,284.2c0.655-0.129,1.306-0.293,1.954-0.472c0.021,0.022,0.04,0.041,0.051,0.051c0.325,0.291,0.677,0.549,1.05,0.78
				c-0.147,0.04-0.295,0.078-0.442,0.118c-0.498,0.135-1.054,0.277-1.636,0.432c-0.472-0.308-0.975-0.606-1.519-0.803
				C379.754,284.27,379.935,284.235,380.113,284.2z M378.835,284.449c0.144,0.198,0.4,0.385,0.655,0.435
				c0.344,0.068,0.661,0.221,0.962,0.397c-0.772,0.214-1.572,0.455-2.338,0.738c-0.226-0.185-0.497-0.332-0.777-0.445
				c-0.416-0.168-0.885-0.23-1.308-0.378C376.93,284.864,377.894,284.637,378.835,284.449z M375.499,285.406
				c0.126,0.164,0.338,0.286,0.523,0.371c0.304,0.14,0.643,0.218,0.974,0.3c0.159,0.039,0.32,0.077,0.473,0.129
				c0.028,0.009,0.056,0.022,0.085,0.033c-1.028,0.421-1.963,0.929-2.633,1.57c-0.008,0.008-0.012,0.02-0.02,0.028
				c-0.621-0.182-1.264-0.336-1.811-0.648C373.71,286.374,374.556,285.818,375.499,285.406z M378.629,305.202
				c-0.119-0.465-0.238-0.929-0.366-1.384c0.178,0.093,0.362,0.138,0.485,0.06c0.432-0.275,0.933-0.424,1.431-0.566
				c0.104,0.402,0.213,0.999,0.348,1.683C379.886,304.948,379.268,305.115,378.629,305.202z M380.68,305.747
				c0.092,0.428,0.196,0.875,0.316,1.32c-0.573,0.131-1.132,0.315-1.698,0.477c-0.168-0.496-0.316-1.005-0.453-1.52
				C379.445,305.995,380.073,305.789,380.68,305.747z M377.146,300.954c-0.249-0.476-0.51-0.977-0.779-1.509
				c0.132,0.083,0.264,0.141,0.358,0.134c0.674-0.047,1.345-0.09,2.013-0.068c0.105,0.24,0.208,0.48,0.311,0.721
				c-0.078-0.008-0.15-0.004-0.207,0.034C378.338,300.607,377.728,300.773,377.146,300.954z M379.549,308.194
				c0.09,0.033,0.204,0.133,0.274,0.114c0.478-0.126,0.909-0.401,1.384-0.536c0.08,0.24,0.203,0.585,0.221,0.58l-1.542,0.501
				C379.614,308.186,379.666,308.476,379.549,308.194z M378.031,303.052c-0.152-0.472-0.319-0.931-0.518-1.365
				c0.132,0.065,0.261,0.098,0.357,0.067c0.534-0.171,1.072-0.328,1.567-0.58c0.159,0.401,0.307,0.806,0.448,1.214
				C379.252,302.587,378.613,302.747,378.031,303.052z M373.038,287.726c0.501,0.287,1.057,0.474,1.623,0.643
				c-0.074,0.474,0.052,1.117,0.267,1.805c-0.632-0.131-1.273-0.235-1.911-0.345C372.952,289.104,372.948,288.397,373.038,287.726z
				 M373.089,290.477c0.063,0.028,0.127,0.05,0.191,0.062c0.631,0.112,1.264,0.214,1.891,0.336c0.232,0.618,0.505,1.235,0.749,1.776
				c-0.787-0.188-1.609-0.222-2.432-0.256C373.317,291.749,373.178,291.107,373.089,290.477z M373.671,293.038
				c0.122,0.071,0.257,0.122,0.394,0.128c0.736,0.031,1.472,0.052,2.18,0.199c0.145,0.324,0.26,0.59,0.31,0.754
				c0.079,0.262,0.171,0.52,0.26,0.778c-0.835-0.068-1.681-0.037-2.522-0.055C374.064,294.244,373.851,293.642,373.671,293.038z
				 M375.246,297.125c-0.226-0.498-0.447-1.006-0.657-1.521c0.013,0.001,0.025,0.007,0.037,0.007c0.818,0.035,1.643,0.003,2.46,0.04
				c0.161,0.422,0.334,0.84,0.511,1.257c-0.041-0.003-0.081-0.01-0.122-0.005C376.733,297.003,375.989,297.039,375.246,297.125z
				 M375.593,297.874c0.089,0.028,0.18,0.045,0.275,0.033c0.689-0.092,1.38-0.133,2.07-0.205c0.154,0.351,0.311,0.701,0.467,1.052
				c-0.782-0.057-1.57-0.005-2.362,0.051C375.894,298.5,375.743,298.19,375.593,297.874z M380.831,310.669
				c-0.062-0.077-0.019,0.145-0.048,0.154l1.446-0.469c0.074-0.024,0.324,0.425,0.557,0.664
				C382.153,310.982,381.457,310.742,380.831,310.669z M398.954,300.106c-0.121,4.693-5.167,7.175-9.446,8.482
				c-1.885,0.576-5.791,2.952-6.762,0.198c-0.851-2.412-1.479-4.901-2.246-7.339c-0.724-2.303-6.487-12.08-3.763-13.525
				c1.534-0.814,3.162-1.445,4.836-1.981c0.1,0.026,0.193,0.024,0.252-0.041c0.012-0.014,0.016-0.029,0.022-0.045
				c0.822-0.257,1.654-0.495,2.491-0.719c0.111,0.019,0.229,0.011,0.257-0.069c2.796-0.736,5.64-1.348,8.326-2.199
				c1.821,3.64-8.175,5.036-10.853,6.001c-0.574,0.207-1.663,0.746-1.534,1.419c0.103,0.539,0.213,0.879,0.469,1.379
				c0.601,1.171,0.416,1.965,0.801,3.167c0.478,1.492,2.777,0.548,3.847,0.227c2.399-0.718,4.376-1.478,6.915-1.459
				C396.928,293.638,399.048,296.493,398.954,300.106z"/>
			<path d="M392.109,296.684c-1.158-0.198-2.442,0.224-3.56,0.553c-1.707,0.503-3.646,0.847-5.203,1.703
				c-0.171,0.094-0.047,0.312,0.16,0.494c0.2,0.955,0.103,1.634,0.433,2.563c0.164,0.462,0.478,1.003,0.544,1.003h-0.002
				c-0.189,0,0.095,0.613,0.324,0.805c0.164,0.584,0.251,1.34,0.475,1.918c0.031,0.081,0.177,0.253,0.315,0.344
				c0.215,0.197,0.543,0.402,0.723,0.333c2.029-0.784,4.079-0.89,6.005-2.071c1.658-1.017,3.45-2.629,3.061-4.529
				C395.051,298.176,393.939,296.997,392.109,296.684z M392.885,297.663c-0.314,0.063-0.629,0.111-0.935,0.197
				c-0.101-0.134-0.213-0.261-0.341-0.374C392.095,297.455,392.518,297.527,392.885,297.663z M384.466,299.569
				c1.862-0.949,4.294-1.43,6.298-1.949c0.041-0.011,0.078-0.015,0.119-0.024c0.036,0.021,0.07,0.04,0.103,0.051
				c1.079,0.377,0.481,2.863-0.121,3.468c-1.259,1.265-3.603,1.594-5.401,2.2C384.867,302.084,384.798,300.873,384.466,299.569z
				 M386.111,305.452c-0.096-0.398-0.176-0.799-0.286-1.192c0.232-0.092,0.484-0.178,0.745-0.261
				c0.258,0.298,0.491,0.61,0.689,0.951c0.025,0.044,0.061,0.085,0.098,0.126C386.934,305.194,386.516,305.317,386.111,305.452z
				 M388.001,304.894c-0.243-0.382-0.515-0.746-0.834-1.078c0.389-0.113,0.794-0.226,1.2-0.346c0.336,0.168,0.534,0.581,0.754,0.845
				c0.055,0.066,0.13,0.13,0.211,0.191C388.892,304.644,388.445,304.77,388.001,304.894z M389.883,304.324
				c-0.3-0.361-0.577-0.731-0.924-1.036c0.442-0.141,0.872-0.299,1.276-0.48c0.204,0.187,0.37,0.411,0.562,0.609
				c0.121,0.125,0.282,0.258,0.465,0.336C390.821,303.971,390.36,304.16,389.883,304.324z M391.651,303.553
				c-0.023-0.042-0.05-0.079-0.074-0.105c-0.287-0.295-0.544-0.607-0.85-0.88c0.347-0.188,0.66-0.403,0.927-0.651
				c0.357,0.169,0.644,0.451,0.948,0.68c0.039,0.029,0.119,0.082,0.213,0.128C392.46,303.045,392.069,303.318,391.651,303.553z
				 M393.141,302.408c-0.079-0.078-0.167-0.144-0.209-0.176c-0.311-0.234-0.61-0.474-0.935-0.683
				c0.098-0.126,0.183-0.261,0.257-0.403c0.078,0.04,0.159,0.072,0.24,0.086c0.442,0.08,0.869,0.199,1.299,0.309
				C393.598,301.86,393.382,302.151,393.141,302.408z M394.061,301.043c-0.105-0.065-0.219-0.119-0.334-0.145
				c-0.425-0.095-0.842-0.211-1.265-0.311c0.05-0.198,0.075-0.403,0.089-0.608c0.049,0.007,0.096,0.009,0.137-0.003
				c0.513-0.154,1.031-0.164,1.548-0.118c0.044,0.004,0.076-0.002,0.101-0.011C394.326,300.231,394.24,300.634,394.061,301.043z
				 M394.327,299.546c-0.015-0.024-0.03-0.045-0.043-0.06c-0.171-0.195-0.44-0.378-0.731-0.403
				c-0.349-0.031-0.707-0.031-1.062,0.009c-0.024-0.119-0.059-0.234-0.096-0.348c0.02-0.003,0.044,0.001,0.062-0.006
				c0.414-0.172,0.851-0.23,1.286-0.316c0.073-0.015,0.095-0.055,0.092-0.105C394.117,298.656,394.286,299.078,394.327,299.546z"/>
			<path d="M422.635,288.592c-1.316-3.749-3.167-7.583-3.613-11.57c-0.133-1.193-0.516-2.745-1.997-3.106
				c-0.157-0.038-0.325-0.058-0.499-0.07c-1.118-0.598-2.047-1.038-3.446-0.965c-2.061,0.108-4.82,1.204-6.84,1.781
				c-2.713,0.775-7.299,1.605-6.747,4.756c0.797,4.544,3.088,8.736,3.484,13.38c0.32,3.75-3.537,6.135-1.638,9.704
				c0.038,0.071,0.151,0.162,0.286,0.244c0.119,0.461,0.328,0.877,0.617,1.132c1.112,0.98,2.495,0.415,3.864-0.099
				c2.729-1.024,4.429-2.296,4.617-5.013c0.254-3.665-0.557-7.61-1.48-11.073c-0.254-0.953-2.465-5.272-0.897-6.061
				c0.182-0.092,2.032-0.702,3.605-1.195c0.61,0.522,0.685,1.779,0.943,2.465c0.452,1.204,0.96,2.32,1.272,3.576
				c0.734,2.95,2.01,5.651,2.707,8.633c0.53,2.267,0.796,4.928,4.008,4.64c0.175-0.016,0.178-0.122,0.101-0.25
				c0.141,0.047,0.289,0.064,0.444,0.042c1.597-0.225,3.758-0.996,3.869-2.578c0.061-0.868-0.416-1.811-0.709-2.594
				C423.872,292.469,423.308,290.509,422.635,288.592z M415.057,273.98c-0.706,0.149-1.458,0.401-2.2,0.683
				c-0.051-0.015-0.103-0.03-0.157-0.038c-0.2-0.026-0.341-0.15-0.483-0.264c-0.131-0.105-0.262-0.208-0.395-0.308
				C412.99,273.884,414.099,273.836,415.057,273.98z M411.131,274.167c0.06,0.041,0.118,0.077,0.166,0.105
				c0.291,0.173,0.528,0.419,0.802,0.613c0.025,0.017,0.051,0.031,0.076,0.048c-0.322,0.131-0.634,0.262-0.94,0.391
				c-0.561-0.028-1.098-0.556-1.485-0.859C410.213,274.353,410.675,274.25,411.131,274.167z M409.168,274.616
				c0.083,0.086,0.182,0.16,0.227,0.195c0.371,0.285,0.751,0.555,1.157,0.8c-0.3,0.125-0.577,0.236-0.84,0.337
				c-0.269-0.024-0.487-0.257-0.671-0.408c-0.278-0.228-0.556-0.449-0.861-0.646C408.508,274.797,408.837,274.704,409.168,274.616z
				 M407.633,275.065c0.108,0.117,0.26,0.215,0.365,0.278c0.391,0.234,0.723,0.553,1.087,0.827c-0.23,0.069-0.54,0.153-0.899,0.248
				c-0.031-0.019-0.065-0.041-0.091-0.057c-0.295-0.173-0.524-0.438-0.774-0.657c-0.155-0.136-0.32-0.262-0.495-0.376
				C407.093,275.238,407.362,275.15,407.633,275.065z M406.199,275.545c0.074,0.044,0.148,0.084,0.22,0.113
				c0.264,0.108,0.458,0.335,0.656,0.516c0.158,0.145,0.323,0.28,0.496,0.408c-0.362,0.097-0.756,0.206-1.161,0.322
				c-0.042-0.022-0.084-0.045-0.124-0.063c-0.435-0.195-0.765-0.538-1.112-0.832c-0.02-0.017-0.05-0.039-0.075-0.059
				C405.455,275.815,405.822,275.679,406.199,275.545z M404.573,276.159c0.008,0.007,0.017,0.016,0.022,0.021
				c0.383,0.324,0.761,0.638,1.178,0.914c-0.353,0.108-0.708,0.223-1.054,0.344c-0.371-0.232-0.688-0.518-1.019-0.798
				c-0.028-0.024-0.066-0.053-0.103-0.081C403.909,276.428,404.233,276.295,404.573,276.159z M402.375,277.097
				c0.219-0.101,0.461-0.209,0.713-0.319c0.014,0.014,0.026,0.025,0.034,0.032c0.339,0.287,0.674,0.573,1.034,0.834
				c-0.297,0.114-0.577,0.235-0.841,0.358c-0.017-0.002-0.038-0.01-0.054-0.009c-0.538,0.04-0.901-0.419-1.241-0.718
				C402.131,277.215,402.248,277.156,402.375,277.097z M401.563,277.551c0.311,0.273,0.656,0.583,1.042,0.826
				c-0.311,0.19-0.561,0.389-0.733,0.597c-0.173-0.111-0.339-0.229-0.486-0.37c-0.117-0.112-0.361-0.278-0.58-0.297
				C400.969,278.043,401.209,277.792,401.563,277.551z M400.657,278.604c0.056,0.077,0.124,0.144,0.15,0.17
				c0.252,0.242,0.541,0.443,0.84,0.632c-0.021,0.094-0.028,0.189-0.011,0.286c0.082,0.448,0.172,0.893,0.267,1.337
				c-0.011-0.002-0.022-0.006-0.034-0.007c-0.28-0.026-0.438-0.184-0.624-0.351c-0.12-0.108-0.351-0.273-0.567-0.297
				C400.522,279.699,400.46,279.121,400.657,278.604z M400.833,280.978c0.358,0.303,0.756,0.573,1.223,0.716
				c0.083,0.362,0.179,0.72,0.269,1.079c-0.021-0.003-0.045-0.011-0.063-0.01c-0.385,0.037-0.577-0.161-0.811-0.392
				c-0.063-0.062-0.167-0.139-0.282-0.202C401.058,281.773,400.942,281.376,400.833,280.978z M401.403,282.999
				c0.326,0.244,0.703,0.448,1.108,0.518c0.134,0.511,0.274,1.021,0.416,1.53c-0.363-0.107-0.704-0.252-1.045-0.401
				C401.722,284.097,401.561,283.548,401.403,282.999z M402.275,285.998c-0.069-0.233-0.135-0.467-0.204-0.701
				c0.342,0.148,0.687,0.286,1.041,0.406c0.161,0.565,0.326,1.129,0.49,1.692c-0.03-0.01-0.06-0.025-0.09-0.032
				c-0.214-0.055-0.386-0.199-0.547-0.327c-0.107-0.085-0.277-0.214-0.454-0.273C402.43,286.506,402.349,286.25,402.275,285.998z
				 M402.739,287.477c0.318,0.233,0.662,0.434,1.052,0.565c0.143,0.491,0.284,0.983,0.426,1.475
				c-0.335-0.117-0.601-0.315-0.852-0.538c-0.049-0.043-0.119-0.096-0.195-0.147C403.028,288.376,402.883,287.923,402.739,287.477z
				 M403.404,289.627c0.307,0.21,0.638,0.389,0.997,0.53c0.02,0.072,0.042,0.143,0.062,0.214c0.111,0.391,0.208,0.779,0.298,1.167
				c-0.302-0.243-0.642-0.446-1.023-0.587C403.641,290.508,403.529,290.066,403.404,289.627z M403.86,291.574
				c0.011,0.004,0.022,0.011,0.033,0.015c0.218,0.076,0.387,0.17,0.534,0.331c0.121,0.132,0.294,0.272,0.489,0.347
				c0.109,0.564,0.187,1.131,0.243,1.702c-0.338-0.379-0.727-0.715-1.135-1.037C403.996,292.479,403.94,292.025,403.86,291.574z
				 M404.018,294.186c0.016-0.198,0.022-0.396,0.024-0.594c0.211,0.191,0.408,0.396,0.568,0.623
				c0.138,0.196,0.353,0.366,0.602,0.452c0.024,0.434,0.028,0.875,0.018,1.32c-0.036-0.023-0.073-0.047-0.103-0.065
				c-0.348-0.209-0.713-0.397-1-0.672c-0.058-0.056-0.152-0.125-0.254-0.185C403.942,294.775,403.994,294.482,404.018,294.186z
				 M403.723,295.568c0.407,0.342,0.883,0.609,1.347,0.889c0.023,0.014,0.074,0.039,0.136,0.062
				c-0.032,0.423-0.115,0.796-0.229,1.143c-0.076-0.038-0.154-0.069-0.233-0.086c-0.004-0.001-0.005-0.001-0.009-0.002
				c-0.014-0.012-0.028-0.022-0.04-0.034c-0.103-0.105-0.195-0.22-0.288-0.333c-0.186-0.225-0.374-0.45-0.605-0.638
				c-0.086-0.07-0.216-0.169-0.357-0.237C403.546,296.078,403.642,295.824,403.723,295.568z M403.261,296.774
				c0.272,0.235,0.465,0.542,0.714,0.797c0.226,0.232,0.493,0.444,0.8,0.592c-0.132,0.274-0.293,0.528-0.479,0.769
				c-0.071-0.025-0.142-0.038-0.211-0.032c-0.577,0.046-0.966-0.413-1.393-0.672c-0.013-0.008-0.039-0.02-0.068-0.034
				C402.832,297.725,403.055,297.252,403.261,296.774z M402.438,298.632c0.071,0.051,0.142,0.097,0.198,0.131
				c0.246,0.149,0.596,0.426,0.901,0.597c0.084,0.047,0.173,0.091,0.265,0.131c-0.434,0.431-0.956,0.833-1.558,1.25
				c-0.147-0.071-0.288-0.108-0.379-0.087C401.932,299.98,402.157,299.308,402.438,298.632z M419.159,296.413
				c-0.39,0.116-0.773,0.128-1.158,0.08c-0.063-0.282-0.114-0.564-0.158-0.832c0.378,0.162,0.787,0.279,1.21,0.296
				c0.04,0.154,0.081,0.306,0.123,0.456C419.171,296.414,419.164,296.412,419.159,296.413z M417.326,291.962
				c-0.071-0.037-0.396-0.187-0.507-0.089c-0.115-0.303-0.232-0.605-0.349-0.907c0.503,0.192,1.074,0.164,1.631,0.099
				c0.056,0.29,0.119,0.666,0.19,1.089c-0.027-0.003-0.054-0.014-0.08-0.012C417.885,292.163,417.598,292.104,417.326,291.962z
				 M418.418,292.896c0.044,0.255,0.092,0.522,0.142,0.795c-0.017,0.002-0.037-0.003-0.053,0.003
				c-0.417,0.147-0.786-0.333-1.085-0.522c-0.037-0.023-0.106-0.068-0.187-0.111c-0.085-0.257-0.17-0.514-0.263-0.768
				c0.098,0.087,0.213,0.161,0.297,0.204C417.621,292.68,418.007,292.837,418.418,292.896z M417.63,294.42
				c-0.05-0.213-0.114-0.42-0.173-0.628c0.372,0.274,0.8,0.594,1.259,0.693c0.044,0.215,0.09,0.432,0.139,0.649
				c-0.375,0.085-0.774,0.061-1.108-0.082C417.707,294.81,417.67,294.593,417.63,294.42z M417.515,290.276
				c-0.398,0.049-0.932,0.148-1.308,0.009c-0.178-0.466-0.35-0.933-0.505-1.407c0.588,0.236,1.221,0.337,1.862,0.423
				c0.119,0.351,0.234,0.706,0.355,1.055C417.794,290.295,417.657,290.259,417.515,290.276z M417.226,288.57
				c-0.586-0.076-1.185-0.137-1.722-0.349c-0.04-0.142-0.084-0.283-0.12-0.428c-0.071-0.286-0.153-0.564-0.233-0.844
				c0.556,0.256,1.164,0.391,1.786,0.487c0.127,0.389,0.261,0.77,0.389,1.157C417.293,288.586,417.261,288.575,417.226,288.57z
				 M416.456,286.799c-0.602-0.08-1.078-0.225-1.614-0.466c-0.095-0.302-0.132-0.622-0.234-0.92c0.059,0.019-0.082,0.1-0.02,0.109
				c0.509,0.075,0.575,0.336,1.319,0.305c0.114,0.351,0.228,0.701,0.341,1.052C416.248,286.875,416.464,286.8,416.456,286.799z
				 M415.867,284.918c-0.494-0.019-0.967-0.127-1.446-0.212c-0.182-0.507-0.369-1.014-0.562-1.524
				c0.029,0.007,0.057,0.017,0.087,0.021c0.549,0.082,1.135,0.09,1.666,0.234c0.179,0.514,0.352,1.031,0.524,1.549
				C416.049,284.95,415.96,284.922,415.867,284.918z M413.591,282.469c-0.01-0.027-0.02-0.053-0.03-0.079
				c-0.15-0.399-0.222-0.74-0.322-1.052c0.077,0.029,0.155,0.049,0.234,0.049c0.481,0.004,0.95,0.079,1.427,0.098
				c0.164,0.421,0.313,0.852,0.467,1.28C414.792,282.6,414.194,282.544,413.591,282.469z M412.867,280.614
				c-0.093-0.118-0.2-0.236-0.344-0.354c0.936-0.288,1.665-0.497,1.68-0.462c0.133,0.299,0.258,0.604,0.383,0.909
				C414.007,280.729,413.444,280.628,412.867,280.614z M420.198,298.976c-1.117,0.1-1.685-0.76-2.013-1.793
				c0.029,0.009,0.058,0.023,0.087,0.028c0.39,0.069,0.781,0.101,1.174,0.064c0.246,0.704,0.532,1.31,0.867,1.719
				C420.273,298.983,420.232,298.973,420.198,298.976z M421.621,288.184c0.906,2.515,1.868,5.068,2.558,7.652
				c0.459,1.72-0.802,1.938-2.143,2.502c-1.429,0.601-1.187,0.129-1.512-1.052c-0.582-2.116-0.849-4.278-1.54-6.375
				c-0.928-2.817-2.02-5.582-2.963-8.397c-1.154-3.446-1.412-3.983-5.514-2.598c-1.241,0.419-3.973,0.583-3.752,2.227
				c0.432,3.221,1.868,6.235,2.402,9.466c0.433,2.619,1.421,6.876-0.437,9.4c-0.783,1.063-2.237,1.561-3.473,2.012
				c-1.455,0.531-3.6,0.424-2.564-1.475c0.14,0.052,0.274,0.067,0.368,0.003c2.481-1.694,3.101-2.703,3.249-5.427
				c0.139-2.553-0.708-4.984-1.405-7.368c-0.15-0.512-0.6-1.64-1.05-2.953c0.033-0.048,0.033-0.118-0.021-0.205
				c-0.023-0.037-0.055-0.072-0.085-0.107c-0.839-2.504-1.598-5.537-0.314-6.281c1.253-0.726,3.026-1.025,4.396-1.524
				c1.94-0.707,3.898-1.363,5.859-2.007c0.91-0.299,1.764-0.709,2.686-0.985c1.729-0.518,1.873,3.439,2.133,4.357
				C419.376,282.146,420.531,285.16,421.621,288.184z"/>
			<path d="M462.66,260.52c-0.298-0.528-0.61-0.837-0.972-0.98c-0.129-0.093-0.278-0.167-0.432-0.216
				c-0.499-0.158-1.036-0.182-1.546-0.307c-0.491-0.12-0.907-0.387-1.395-0.523c-0.203-0.156-0.449-0.272-0.603-0.214
				c-2.926,1.098-5.942,1.751-8.783,3.073c-1.827,0.85-4.183,1.117-5.735,2.379c-0.143-0.033-0.263-0.021-0.298,0.082
				c-0.957,2.828,1.746,6.988,2.733,9.402c1.79,4.377,2.672,9.35,4.923,13.504c0.006,0.031,0.014,0.063,0.042,0.1
				c0.266,0.359,0.608,0.608,1.037,0.806c0.221,0.102,0.64,0.166,0.785,0.259c0.099,0.064,0.427,0.279,0.603,0.195
				c0.208,0.215,0.541,0.424,0.745,0.363c0.619-0.183,3.285-0.466,3.748-0.98c0.642-0.712-0.146-2.148-0.381-2.789
				c-1.701-4.633-3.099-9.383-4.711-14.048c-0.584-1.688-1.753-3.286,0.746-4.286c1.698-0.68,3.676-1.001,5.439-1.45
				C461.811,264.072,464.39,263.591,462.66,260.52z M458.42,259.091c0.096,0.055,0.198,0.102,0.302,0.129
				c0.449,0.114,0.837,0.349,1.273,0.494c-0.166,0.064-0.34,0.136-0.525,0.22c-0.043,0.019-0.087,0.037-0.131,0.056
				c-0.005-0.002-0.01-0.005-0.015-0.007c-0.524-0.195-1.03-0.421-1.513-0.68C458.015,259.233,458.219,259.165,458.42,259.091z
				 M457.18,259.512c0.064,0.044,0.126,0.084,0.176,0.115c0.406,0.251,0.842,0.464,1.29,0.658c-0.324,0.131-0.652,0.254-0.982,0.374
				c-0.032-0.012-0.063-0.027-0.096-0.037c-0.569-0.175-1.076-0.441-1.546-0.755C456.409,259.752,456.796,259.635,457.18,259.512z
				 M455.429,260.043c0.463,0.336,0.957,0.631,1.483,0.879c-0.284,0.096-0.572,0.183-0.859,0.272
				c-0.127-0.074-0.268-0.127-0.419-0.148c-0.582-0.082-1.16-0.283-1.643-0.571C454.469,260.328,454.949,260.185,455.429,260.043z
				 M453.391,260.664c0.045,0.037,0.086,0.067,0.112,0.084c0.468,0.313,0.986,0.564,1.534,0.755c-0.274,0.08-0.55,0.157-0.825,0.234
				c-0.092-0.04-0.188-0.073-0.29-0.085c-0.573-0.071-1.068-0.396-1.576-0.632C452.691,260.897,453.04,260.777,453.391,260.664z
				 M451.807,261.221c0.127,0.156,0.329,0.283,0.507,0.351c0.331,0.127,0.642,0.282,0.956,0.427
				c-0.407,0.112-0.814,0.223-1.221,0.335c-0.453-0.211-0.903-0.426-1.349-0.648C451.064,261.518,451.433,261.366,451.807,261.221z
				 M450.097,261.94c0.035,0.022,0.071,0.045,0.1,0.061c0.359,0.192,0.727,0.369,1.098,0.543c-0.286,0.08-0.57,0.165-0.854,0.248
				c-0.057-0.024-0.115-0.045-0.173-0.054c-0.462-0.07-0.881-0.237-1.308-0.39C449.353,262.216,449.738,262.082,450.097,261.94z
				 M448.254,262.584c0.148,0.144,0.347,0.259,0.55,0.31c0.217,0.055,0.426,0.128,0.634,0.202c-0.429,0.134-0.855,0.276-1.278,0.423
				c-0.028-0.013-0.057-0.029-0.084-0.039c-0.406-0.141-0.815-0.274-1.216-0.422C447.318,262.893,447.788,262.737,448.254,262.584z
				 M446.259,263.287c0.127,0.131,0.301,0.237,0.459,0.303c0.202,0.084,0.409,0.156,0.617,0.228
				c-0.57,0.216-1.133,0.448-1.682,0.706c-0.047,0.022-0.089,0.051-0.13,0.08c-0.048-0.012-0.096-0.026-0.145-0.028
				c-0.368-0.013-0.68-0.164-0.997-0.306C444.917,263.88,445.565,263.565,446.259,263.287z M447.603,274.817
				c-0.417-0.001-0.528-0.225-0.9-0.357c-0.152-0.383-0.681-0.643-0.83-1.026c0.392,0.176,0.816,0.349,0.864,0.497l0.004,0.011
				C446.854,274.29,447.488,274.469,447.603,274.817z M450.331,281.263c-0.397-0.029-0.782-0.095-1.162-0.177
				c-0.119-0.385-0.238-0.771-0.354-1.157c0.387,0.184,0.788,0.329,1.227,0.405c0.106,0.311,0.211,0.623,0.317,0.934
				C450.349,281.267,450.34,281.263,450.331,281.263z M450.602,281.987c0.146,0.431,0.291,0.864,0.436,1.295
				c-0.018-0.002-0.039-0.01-0.054-0.008c-0.39,0.039-0.779,0.004-1.136-0.111c-0.162-0.461-0.316-0.926-0.466-1.394
				C449.781,281.866,450.188,281.939,450.602,281.987z M449.558,279.593c-0.342-0.04-0.641-0.167-0.93-0.317
				c-0.003-0.001-0.009-0.004-0.012-0.006c-0.114-0.377-0.229-0.753-0.345-1.128c0.343,0.094,0.698,0.148,1.066,0.118
				c0.159,0.467,0.318,0.935,0.477,1.402C449.731,279.63,449.647,279.604,449.558,279.593z M448.667,277.488
				c-0.209,0.035-0.413,0.017-0.612-0.024c-0.107-0.335-0.214-0.67-0.327-1c0.357,0.124,0.726,0.265,1.111,0.335
				c0.089,0.263,0.179,0.526,0.268,0.788C448.971,277.513,448.819,277.462,448.667,277.488z M447.5,275.796
				c-0.004-0.001-0.011-0.003-0.015-0.005c-0.089-0.246-0.173-0.495-0.267-0.737c0.372,0.132,0.748,0.27,1.145,0.335
				c0.075,0.224,0.151,0.447,0.226,0.671C448.202,276.053,447.855,275.919,447.5,275.796z M446.238,272.545
				c-0.149-0.387-0.298-0.774-0.448-1.16c0.39,0.124,0.783,0.242,1.172,0.368c0.168,0.387,0.322,0.736,0.451,1.035
				C446.968,272.907,446.603,272.718,446.238,272.545z M445.524,270.706c-0.202-0.508-0.408-1.014-0.626-1.516
				c0.073,0.026,0.148,0.046,0.226,0.054c0.276,0.028,0.551,0.053,0.827,0.035c0.228,0.613,0.476,1.222,0.716,1.786
				C446.286,270.944,445.904,270.828,445.524,270.706z M450.1,283.842c0.378,0.132,0.785,0.214,1.201,0.219
				c0.141,0.42,0.277,0.843,0.416,1.264c-0.406-0.149-0.807-0.307-1.213-0.456C450.364,284.53,450.228,284.188,450.1,283.842z
				 M443.869,264.644c0.107,0.068,0.224,0.122,0.341,0.145c0.28,0.055,0.515,0.188,0.764,0.302c0.061,0.028,0.127,0.043,0.19,0.066
				c-0.097,0.346-0.088,0.8-0.011,1.314c-0.071-0.025-0.142-0.038-0.212-0.035c-0.347,0.017-0.689,0.006-1.03-0.017
				C443.785,265.811,443.742,265.201,443.869,264.644z M444.101,267.151c0.396,0.048,0.794,0.067,1.197,0.062
				c0.096,0.397,0.221,0.816,0.363,1.242c-0.053-0.006-0.106-0.012-0.156,0.002c-0.306,0.085-0.608,0.058-0.91,0.027
				C444.42,268.071,444.244,267.618,444.101,267.151z M451.877,287.12c-0.106-0.033-0.213-0.064-0.318-0.1
				c-0.027-0.009-0.04-0.016-0.057-0.024c-0.254-0.466-0.486-0.946-0.703-1.434c0.38,0.141,0.756,0.287,1.136,0.427
				c0.144,0.438,0.292,0.874,0.432,1.314C452.216,287.232,452.045,287.173,451.877,287.12z M459.837,263.54
				c-2.678,0.908-5.544,1.244-8.173,2.297c-2.294,0.919-0.741,2.996-0.262,4.381c1.266,3.655,2.465,7.332,3.699,10.998
				c0.457,1.358,0.9,2.719,1.38,4.069c0.661,1.856-1.537,1.925-3.156,2.292c-2.151-6.738-4.519-13.725-6.961-20.365
				c-0.886-2.409,0.94-2.866,3.005-3.536l3.139-1.019c0.105-0.034,0.214-0.07,0.264-0.086l2.88-0.935
				c1.494-0.485,3.14-0.618,4.586-1.227C462.978,259.257,462.079,262.78,459.837,263.54z"/>
			<g>
				<path d="M444.9,276.53c-1.383-3.375-3.178-7.511-7.341-8.567c-1.347-0.342-2.829-0.293-4.302-0.001
					c-2.46,0.045-4.648,0.153-6.921,1.372c-0.039,0.014-0.079,0.018-0.118,0.036c-0.018,0.008-0.048,0.038-0.083,0.076
					c-0.493,0.278-0.989,0.606-1.495,1.001c-1.531,1.199-2.79,2.528-3.115,4.358c-0.822,4.634,0.299,8.183,1.562,12.515
					c1.188,4.076,3.708,6.149,7.972,6.833c3.389,1.109,7.959,0.092,10.855-1.913C447.695,288.237,447.023,281.712,444.9,276.53z
					 M430.862,268.642c-0.566,0.207-1.116,0.443-1.645,0.695c-0.531,0.137-1.089,0.022-1.639-0.056
					C428.668,268.909,429.759,268.752,430.862,268.642z M424.271,271.269c0,0.007-0.002,0.017,0.003,0.019
					c0.264,0.127,0.724,0.029,1.032,0.011c0.386-0.024,0.752-0.061,1.132-0.148c0.062-0.014,0.213-0.298,0.228-0.295
					c-0.322-0.064-0.643-0.076-0.974-0.098c-0.239-0.016-0.49-0.065-0.735-0.062c0.171-0.13,0.335-0.263,0.523-0.387
					c0.145-0.096,0.29-0.177,0.435-0.262c0.472,0.117,1.138,0.024,1.619,0.005c0.144-0.006,0.275-0.022,0.403-0.043
					c-0.152,0.087-0.308,0.172-0.453,0.261c-0.09,0.055-0.186,0.198-0.271,0.355c-0.816,0.486-1.505,1.152-2.083,1.92
					c0.024-0.04,0.044-0.071,0.052-0.07c-0.613-0.091-1.302-0.104-1.958-0.014C423.52,272.047,423.864,271.647,424.271,271.269z
					 M421.976,275.21c0.519-0.062,1.06-0.121,1.484-0.41c0.036-0.025,0.239-0.304,0.231-0.306c-0.225-0.06-0.581-0.001-0.827,0
					c-0.232,0.001-0.465,0.01-0.697,0.038c0.151-0.457,0.34-0.905,0.583-1.339c0.15-0.022,0.301-0.052,0.456-0.079
					c0.582-0.103,1.133-0.27,1.724-0.314c0.003,0,0.008-0.008,0.011-0.009c-0.735,1.049-1.254,2.272-1.586,3.507
					c-0.4,0.086-0.804-0.113-1.179,0.103c-0.079,0.046-0.449,0.579-0.395,0.587c0.226,0.036,0.483-0.086,0.708-0.142
					c0.269-0.067,0.508-0.183,0.742-0.328c0.035-0.022,0.07-0.086,0.104-0.142c-0.137,0.525-0.236,1.05-0.305,1.565
					c-0.276,0.001-0.513-0.033-0.807,0.164c-0.148,0.1-0.252,0.269-0.339,0.41c-0.007,0.011-0.069,0.126-0.097,0.208
					C421.677,277.545,421.703,276.355,421.976,275.21z M422.079,280.562c0.185-0.093,0.368-0.194,0.519-0.316
					c0.049-0.039,0.36-0.389,0.308-0.429c-0.207-0.16-0.6,0.134-0.757,0.292c-0.047,0.048-0.089,0.102-0.129,0.156
					c-0.093-0.485-0.174-0.975-0.224-1.469c0.004,0,0.001,0.007,0.006,0.006c0.413-0.141,0.791-0.37,1.19-0.543
					c-0.117,1.103-0.075,2.145,0.13,2.999c0.048,0.201,0.097,0.401,0.146,0.601c-0.303,0.134-0.525,0.333-0.706,0.594
					C422.382,281.841,422.214,281.212,422.079,280.562z M422.728,283.016c-0.044-0.135-0.081-0.28-0.123-0.418
					c0.209-0.212,0.414-0.381,0.717-0.52c0.139,0.567,0.285,1.125,0.437,1.68c-0.234,0.175-0.452,0.339-0.635,0.562
					C422.992,283.872,422.862,283.434,422.728,283.016z M423.188,284.539c0.143-0.246,0.396-0.452,0.598-0.659
					c0.002-0.002,0.004-0.005,0.006-0.007c0.18,0.654,0.378,1.297,0.593,1.93c-0.101,0.033-0.202,0.069-0.31,0.134
					c-0.154,0.094-0.257,0.206-0.357,0.329C423.528,285.687,423.354,285.106,423.188,284.539z M423.848,286.652
					c0.184-0.156,0.36-0.34,0.532-0.434c0.04-0.022,0.073-0.064,0.107-0.104c0.175,0.497,0.368,0.986,0.577,1.467
					c-0.228,0.177-0.442,0.371-0.626,0.583C424.219,287.672,424.024,287.165,423.848,286.652z M424.555,288.422
					c0.176-0.187,0.336-0.389,0.499-0.575c0.029-0.033,0.049-0.072,0.076-0.107c0.205,0.463,0.434,0.915,0.679,1.361
					c-0.207,0.188-0.373,0.437-0.485,0.692C425.038,289.357,424.779,288.901,424.555,288.422z M425.477,290.033
					c0.082-0.115,0.156-0.235,0.195-0.36c0.013-0.04,0.025-0.081,0.038-0.121c0.025-0.12,0.035-0.14,0.03-0.058
					c0.073-0.047,0.134-0.118,0.187-0.193c0.232,0.409,0.489,0.809,0.762,1.202c-0.162,0.132-0.313,0.279-0.438,0.446
					C425.971,290.662,425.708,290.36,425.477,290.033z M426.364,291.056c0.049-0.082,0.103-0.16,0.175-0.221
					c0.064-0.054,0.13-0.174,0.187-0.279c0.286,0.411,0.606,0.809,0.944,1.201c-0.047,0.044-0.118,0.11-0.193,0.185
					c-0.239-0.145-0.474-0.308-0.705-0.497C426.626,291.326,426.498,291.188,426.364,291.056z M445.739,285.668
					c-0.159,5.288-5.444,7.112-10.008,7.68c-4.08,0.508-6.797-1.72-8.706-4.51c-3.118-4.557-6.21-14.628,0.965-18.114
					c3.675-1.659,7.863-2.585,11.337-0.654c2.342,1.302,3.85,5.256,4.847,7.516C445.299,280.139,445.824,282.843,445.739,285.668z"
					/>
				<path d="M435.691,273.127c-1.767-0.576-3.603,0.161-4.977,1.28c-2.562,1.267-2.158,4.644-1.824,6.686
					c0.737,4.513,4.643,11.096,10.46,6.631c2.902-2.228,1.327-5.776,0.698-8.307C439.382,276.74,438.779,274.135,435.691,273.127z
					 M436.097,274.837c1.055,0.619,1.923,1.624,2.456,2.848c0.273,0.625,0.625,1.49,0.941,2.451
					c-0.213-0.018-0.434,0.089-0.637,0.164c-0.296,0.109-0.592,0.217-0.892,0.314c-0.043,0.014-0.092,0.061-0.141,0.12
					c-0.032-0.142-0.064-0.284-0.099-0.425c0.18-0.059,0.356-0.133,0.523-0.223c0.16-0.086,0.277-0.298,0.36-0.438
					c0.011-0.019,0.19-0.346,0.082-0.308c-0.38,0.132-0.716,0.348-1.088,0.496c-0.081-0.3-0.166-0.598-0.26-0.888
					c0.233-0.066,0.459-0.146,0.656-0.265c0.088-0.054,0.47-0.633,0.419-0.636c-0.253-0.014-0.487,0.105-0.723,0.196
					c-0.174,0.067-0.349,0.134-0.524,0.201c-0.138-0.384-0.285-0.759-0.448-1.109c0.198-0.069,0.389-0.146,0.552-0.247
					c0.082-0.051,0.449-0.6,0.403-0.603c-0.24-0.017-0.477,0.126-0.698,0.217c-0.156,0.064-0.314,0.125-0.471,0.187
					c-0.109-0.208-0.222-0.409-0.341-0.598c0.151-0.036,0.301-0.071,0.452-0.117c0.173-0.054,0.316-0.523,0.352-0.535
					c-0.337,0.114-0.66,0.252-0.983,0.394c-0.216-0.311-0.443-0.601-0.692-0.838c0.234-0.087,0.473-0.157,0.707-0.262
					C436.034,274.917,436.066,274.879,436.097,274.837z M429.732,275.568c-0.131,0.306-0.197,0.576,0.065,0.33
					c2.016-1.9,4.176-2.088,5.913-1.26c-0.21,0.105-0.41,0.232-0.586,0.36c-0.008,0.006-0.015,0.018-0.022,0.025
					c-0.9-0.751-2.001-0.982-3.338-0.345c-0.062,0.029-0.14,0.228-0.185,0.234c1.865-0.243,3.24,0.865,4.217,2.557
					c-0.04,0.074-0.085,0.166-0.039,0.153c0.034-0.01,0.072-0.02,0.107-0.03c0.243,0.435,0.458,0.909,0.651,1.405
					c-0.043,0.077-0.095,0.182-0.044,0.169c0.032-0.008,0.066-0.016,0.098-0.024c1.172,3.104,1.431,7.081,1.121,8.979
					C432.104,290.356,426.903,279.824,429.732,275.568z M438.999,287.364c-0.273,0.212-0.547,0.379-0.821,0.526
					c0.081-0.134,0.143-0.255,0.156-0.318c0.058-0.289,0.092-0.681,0.104-1.139c0.255,0.048,0.511,0.093,0.779,0.079
					c0.228-0.012,0.652-0.853,0.555-0.869c-0.371-0.061-0.766-0.021-1.149-0.002c-0.052,0.003-0.116,0.06-0.181,0.14
					c-0.004-0.232-0.011-0.473-0.025-0.727c0.245,0.026,0.497,0.034,0.714-0.069c0.14-0.067,0.718-0.815,0.531-0.899
					c-0.287-0.129-0.748,0.09-1.069,0.151c-0.058,0.011-0.138,0.103-0.216,0.217c-0.013-0.168-0.027-0.337-0.044-0.511
					c0.034-0.001,0.067,0.002,0.101,0.001c0.25-0.008,0.355-0.032,0.541-0.198c0.117-0.105,0.603-0.658,0.456-0.801
					c-0.03-0.029-0.06-0.058-0.09-0.087c-0.017,0.001-0.034,0.001-0.051,0.002c-0.352,0.092-0.692,0.214-1.048,0.293
					c-0.026-0.2-0.051-0.4-0.082-0.604c0.386-0.065,0.783-0.145,1.072-0.371c0.082-0.064,0.612-0.752,0.456-0.801
					c-0.21-0.065-0.402,0.049-0.615,0.117c-0.316,0.101-0.62,0.215-0.926,0.342c-0.033,0.014-0.064,0.04-0.095,0.066
					c-0.034-0.194-0.066-0.387-0.105-0.582c0.41-0.069,0.833-0.165,1.154-0.399c0.058-0.043,0.342-0.422,0.44-0.637
					C440.348,282.794,440.856,285.923,438.999,287.364z"/>
			</g>
		</g>
	</g>
	<g>
		<path fill="#8EA031" d="M456.616,320.162c-2.234-2.988-4.804-5.448-7.901-7.532c-3.049-2.052-6.291-4.849-9.69-6.292
			c-0.4-0.17-0.847,0.048-1.164,0.387c-0.431,0.048-0.903,0.333-1.057,0.827c-0.499,1.604-0.12,3.183,0.046,4.793
			c-2.524-0.158-4.954-0.073-7.506-0.172c-2.536-0.099-4.893-0.738-7.385-0.262c-0.361-0.382-1.147-0.326-1.511,0.392
			c-0.085,0.168-0.122,0.341-0.191,0.511c-0.087,0.008-0.166,0.005-0.269,0.037c-0.948,0.299-1.61,1.315-2.145,2.086
			c-0.608,0.876-1.111,1.819-1.653,2.735c-0.09,0.152-0.142,0.292-0.168,0.421c-0.192,0.179-0.342,0.395-0.388,0.635
			c-0.367,1.892,0.109,3.749,0.421,5.619c0.444,2.654,0.134,5.579,0.134,8.269c0,0.53,0.282,0.757,0.63,0.78
			c-0.022,0.408,0.182,0.718,0.764,0.575c2.855-0.703,5.705-1.054,8.648-1.1c2.154-0.033,4.336-0.496,6.447,0.131
			c0.245,0.073,0.505,0.016,0.743-0.113c0.017,0.061,0.018,0.125,0.053,0.183c0.583,0.973,1.152,1.951,1.666,2.963
			c0.123,0.242,0.314,0.344,0.523,0.364c-0.047,0.183-0.06,0.373,0.032,0.562c0.232,0.477,0.906,0.426,1.265,0.134
			c0.514-0.419,1.415-0.442,2.013-0.203c0.412,0.164,0.869-0.072,1.187-0.424c0.179-0.047,0.362-0.129,0.543-0.307
			c1.198-1.183,2.787-1.851,4.045-2.977c1.311-1.173,2.495-2.468,3.753-3.696c2.375-2.319,4.952-4.422,6.457-7.448
			c0.055-0.11,0.072-0.205,0.096-0.303c0.009,0.012,0.02,0.023,0.029,0.035C455.719,322.621,457.275,321.044,456.616,320.162z
			 M417.544,318.568c0.069-0.071,0.14-0.139,0.196-0.233c0.408-0.69,0.799-1.389,1.221-2.071c0.176-0.284,0.438-0.788,0.739-1.168
			c-0.082,0.965-0.034,1.953,0.023,2.956c0.173,3.075,0.424,6.186,0.368,9.271c-0.783,0.482-1.455,1.443-1.944,2.271
			c0.025-1.535,0.044-3.071-0.036-4.593C417.998,322.861,417.195,320.707,417.544,318.568z M433.999,331.244
			c-0.05-0.033-0.088-0.073-0.159-0.094c-2.286-0.68-4.542-0.31-6.885-0.239c-3.006,0.091-5.913,0.369-8.841,1.062
			c0-0.089,0.003-0.179,0.004-0.268c0.38,0.068,0.842-0.096,1.103-0.594c0.224-0.427,0.487-0.83,0.76-1.227
			c0.133-0.193,0.274-0.379,0.423-0.56c0.066-0.081,0.127-0.137,0.18-0.181c0.091,0.117,0.225,0.206,0.462,0.21
			c4.726,0.078,9.524-0.987,14.198-0.099C434.694,329.944,434.241,330.711,433.999,331.244z M437.014,335.149
			c0.003-0.125-0.022-0.248-0.081-0.365c-0.459-0.901-0.968-1.771-1.485-2.64c0.082-0.104,0.148-0.223,0.191-0.357
			c0.122-0.385,0.365-0.72,0.588-1.053c0.162-0.241,0.34-0.465,0.53-0.685c0.054-0.063,0.091-0.101,0.128-0.14
			c0.252-0.004,0.507-0.119,0.727-0.307c0.049,0.647,0.148,1.294,0.218,1.827c0.148,1.131,0.347,2.257,0.542,3.382
			C437.897,334.845,437.441,334.972,437.014,335.149z M453.407,321.375c-1.528,3.07-4.26,5.191-6.669,7.543
			c-1.219,1.19-2.328,2.441-3.663,3.51c-0.885,0.708-1.85,1.226-2.734,1.896c-0.138-0.793-0.277-1.587-0.398-2.382
			c-0.115-0.757-0.218-1.515-0.307-2.275c-0.042-0.358-0.074-0.717-0.101-1.076c-0.02-0.269,0.124-0.693-0.13-0.258
			c0.733-1.259-0.916-1.751-1.551-0.662c-0.02,0.034-0.019,0.08-0.037,0.115c-0.067-0.065-0.15-0.122-0.272-0.154
			c-5.153-1.361-10.31-0.193-15.536-0.242c0.054-2.405-0.147-4.798-0.194-7.204c-0.037-1.91-0.64-4.344-0.146-6.302
			c2.314-0.451,4.616,0.025,6.951,0.248c2.77,0.265,5.561-0.021,8.351,0.222c0.424,0.037,0.829-0.279,1.08-0.664
			c0.504-0.233,0.815-0.731,0.799-1.28c-0.034-1.241-0.457-2.612-0.361-3.884c2.788,1.375,5.162,3.702,7.892,5.219
			c3.101,1.724,5.683,4.251,7.885,7.011C453.944,320.782,453.609,320.971,453.407,321.375z"/>
	</g>
</g>
</svg>
