<?xml version="1.0" encoding="utf-8"?>
<!-- Generator: Adobe Illustrator 17.0.0, SVG Export Plug-In . SVG Version: 6.00 Build 0)  -->
<!DOCTYPE svg PUBLIC "-//W3C//DTD SVG 1.1//EN" "http://www.w3.org/Graphics/SVG/1.1/DTD/svg11.dtd">
<svg version="1.1" id="Слой_1" xmlns="http://www.w3.org/2000/svg" xmlns:xlink="http://www.w3.org/1999/xlink" x="0px" y="0px"
	 width="445px" height="164px" viewBox="0 0 445 164" enable-background="new 0 0 445 164" xml:space="preserve">
<g>
	<path fill="#FFFFFF" d="M311.606,14.672l-64.276-3.243h-55.541L60.633,14.672l-33.269,6.137l-13.31,7.937l-3.076,16.553
		L9.212,65.771l-2.859,6.883l0.423,19.673l2.187,15.211l0.227,17.424l0.345,13.533l3.752,7.189l8.255,4.934h12.115
		c0,0,45.249,3.964,45.618,3.977c0.369,0.013,37.366,0,37.366,0l27.516,1.933l28.047-1.885l28.702,1.026l129.352,0.859l59.464,0.431
		l27.255-3.677l11.263-7.941l2.781-9.471v-22.894L428.4,87.595l1.272-10.178l5.491-13.433l1.088-12.693l-2.26-14.938l-9.219-10.861
		l-13.068-5.008l-18.105-4.115l-26.991-0.097l-28.338-0.507L311.606,14.672z"/>
	<path d="M438.274,58.543c0.738-9.078,0.869-19.377-4.368-27.245c-3.727-5.6-10.37-8.236-17.279-9.728
		c-10.346-5.956-25.022-5.905-36.262-5.646c-28.372,0.655-56.795-1.142-85.143-2.28c-7.406-0.297-14.815-0.589-22.226-0.866
		c-28.474-2.095-56.987-3.555-85.536-3.958c11.783-0.212,23.576-0.232,35.399,0c32.754,0.643,65.488,2.235,98.257,1.977
		c1.044-0.008,2.235-2.187,0.874-2.176c-32.766,0.257-65.504-1.297-98.257-1.977c-32.624-0.678-65.032,0.621-97.583,2.697
		c-9.533,0.608-19.065,1.301-28.584,2.128c-10.223,0.648-20.444,1.341-30.669,2.019c-10.635,0.705-21.155,0.33-31.792,0.653
		c-6.88,0.209-16.513,0.344-21.249,6.213c-4.92,6.097-4.072,16.217-3.648,23.48c0.257,4.397,0.667,8.783,1.112,13.167
		c-1.359,4.95-2.206,10.138-2.572,15.441c-0.622,9.03,0.03,18.123,1.33,27.089c-0.296,5.187-0.446,10.384-0.356,15.597
		c0.152,8.764-0.194,19.457,3.949,27.455c2.89,5.579,8.819,7.835,14.659,8.889c12.401,2.237,25.407,2.684,37.968,3.427
		c26.716,1.58,53.503,1.508,80.255,1.42c18.935-0.062,37.839-0.372,56.75-0.859c33.44,1.119,66.887,1.881,100.36,1.37
		c7-0.107,13.995-0.13,20.987-0.125c9.075,0.105,18.148,0.258,27.235,0.54c15.358,0.476,30.664,0.507,45.97-0.984
		c0.543-0.053,1.087-0.112,1.63-0.177c14.241-0.659,33.357-2.788,33.933-20.422c0.055-1.684-0.063-3.376-0.27-5.066
		c0.503-3.317,0.663-6.771,0.75-10.22c0.133-5.24,0.165-10.593,0.062-15.968c0.207-4.627-0.046-9.298-0.607-13.899
		c-0.208-3.048-0.47-6.075-0.794-9.071C434.939,73.908,437.631,66.451,438.274,58.543z M392.319,154.314
		c-1.082,0.043-2.16,0.089-3.23,0.147c-7.644,0.409-15.297,0.554-22.952,0.572c-3.65-0.044-7.3-0.124-10.949-0.228
		c10.993-0.023,21.988-0.545,32.988-1.909c9.816-1.217,19.728-3.384,27.913-9.208c6.874-4.891,10.744-12.197,13.671-19.846
		c0.566,2.552,1.092,5.14,1.394,7.739c-0.931,4.607-2.684,8.813-5.821,12.089c-8.041,8.4-21.723,9.728-32.607,10.617
		C392.59,154.298,392.454,154.303,392.319,154.314z M15.384,43.519c-0.113-3.986-0.014-7.985,0.352-11.956
		c0.317-3.447,1.547-5.23,4.815-6.344c-1.746,1.659-3.119,3.794-3.98,6.611c-1.355,4.438-1.124,9.366-1.051,13.976
		c-0.016,0.033-0.033,0.066-0.049,0.099C15.438,45.11,15.407,44.315,15.384,43.519z M370.569,19.686
		c14.976,0.078,30.004,0.747,44.672,3.907c0.31,0.18,0.622,0.352,0.927,0.544c11.798,7.414,11.781,21.835,11.718,34.235
		c-0.016,3.151,0.239,6.276,0.601,9.393c-2.248-7.262-5.314-14.319-9.738-20.254c-14.001-18.783-36.436-24.503-58.611-26.797
		c-3.738-0.387-7.476-0.769-11.215-1.148C356.136,19.621,363.35,19.648,370.569,19.686z M339.227,152.194
		c-32.345-1.091-64.532-4.466-96.913-5.221c-33.015-0.77-66.038-0.558-99.056-1.357c-16.494-0.399-32.991-0.696-49.489-0.442
		c-6.826,0.105-13.736,0.102-20.522,0.91c-5.341,0.636-10.65,1.533-15.996,2.081c-1.961,0.011-3.919,0.046-5.872,0.12
		c-1.521,0.058-3.07,0.142-4.634,0.228c-12.866-0.973-22.945-8.687-27.718-21.002c-0.795-2.052-1.488-4.159-2.136-6.288
		c-0.272-6.63-0.475-13.256-0.624-19.894c-0.113-5.016-0.273-10.025-0.488-15.03c0.175-6.436,0.754-12.851,0.683-19.301
		c-0.033-2.967-0.163-5.931-0.325-8.895c0.039-0.278,0.078-0.555,0.117-0.833c0.484-3.459,0.622-6.877,0.684-10.308
		c4.201-8.967,10.815-16.672,20.725-21.991c3.68-1.975,7.573-3.462,11.58-4.629c5.192-0.35,10.379-0.555,15.472-0.805
		c15.536-0.764,30.945-2.654,46.447-3.862c3.386-0.264,6.774-0.493,10.162-0.715c0.935-0.02,1.869-0.047,2.804-0.062
		c65.406-1.067,130.77,2.401,196.133,4.185c14.761,1.403,29.515,2.89,44.271,4.364c23.824,2.381,47.306,12.629,57.889,35.332
		c3.376,7.243,6.183,15.684,7.883,24.497c-0.238,0.801-0.471,1.585-0.695,2.346c-3.631,12.286-3.181,23.181-0.46,35.478
		c-2.068,6.491-5.319,12.475-10.037,17.534c-7.762,8.323-19.885,10.507-30.643,11.902
		C372.166,152.652,355.632,152.747,339.227,152.194z M34.072,148.82c-6.521-1.322-12.241-4.255-14.972-10.74
		c-1.049-2.49-1.517-5.227-1.767-7.988c1.261,2.99,2.773,5.84,4.644,8.441c3.749,5.214,8.937,8.484,14.687,10.339
		C35.798,148.868,34.934,148.854,34.072,148.82z M23.528,24.3c5.984-1.704,12.183-2.702,18.438-3.347
		c-11.387,4.592-19.563,12.399-24.974,22.032c0.015-1.286,0.032-2.575,0.067-3.873C17.222,33.11,18.431,27.411,23.528,24.3z
		 M291.159,16.46c-27.523-0.874-55.042-1.874-82.571-2.564c-13.246-0.332-26.516-0.64-39.789-0.807
		c33.289-0.537,66.614,0.367,99.898,1.614C276.189,15.24,283.676,15.83,291.159,16.46z M111.41,13.691
		c-0.787,0.032-1.574,0.05-2.361,0.084c-12.008,0.52-24.05,1.271-36.046,2.29c0.793-0.099,1.584-0.197,2.372-0.296
		c5.925-0.743,11.871-1.357,17.825-1.894c25.622-1.624,51.24-2.936,76.941-2.998c4.619-0.011,9.237,0.018,13.855,0.069
		C159.778,11.059,135.574,11.838,111.41,13.691z M14.213,62.123c-0.002,0.017-0.005,0.035-0.007,0.052
		c-0.139-1.537-0.281-3.073-0.437-4.609c-0.054-0.53-0.11-1.062-0.167-1.593c0.076-0.269,0.161-0.534,0.24-0.801
		C13.97,57.489,14.102,59.806,14.213,62.123z M13.162,80.213c0.04-0.344,0.087-0.686,0.128-1.03
		c0.234,4.076,0.404,8.154,0.535,12.234c-0.026,1.779-0.027,3.561,0.029,5.351c0.074,2.36,0.188,4.722,0.303,7.085
		c0.057,2.443,0.116,4.886,0.181,7.329c-1.115-5.342-1.921-10.757-2.552-16.089C12.119,90.138,12.578,85.181,13.162,80.213z
		 M14.999,128.202c0.461,7.07,1.722,14.125,7.583,18.693c-0.479-0.162-0.958-0.326-1.429-0.513
		C14.301,143.67,14.116,135.903,14.999,128.202z M95.55,149.619c-7.961-0.252-15.998-0.783-24.027-1.131
		c8.361-1.058,16.904-0.955,25.317-1.055c33.095-0.395,66.172,1.446,99.266,1.466c32.863,0.02,65.731,0.608,98.523,2.883
		c11.473,0.796,22.939,1.678,34.404,2.286c-9.329-0.203-18.66-0.342-27.991-0.463c-2.321-0.205-4.658-0.184-7.007-0.092
		c-15.423-0.196-30.848-0.398-46.269-0.873c-32.601-1.004-65.244-1.697-97.857-2.227c-8.145-0.132-16.285-0.098-24.424-0.031
		C115.505,150.157,105.527,149.935,95.55,149.619z M430.317,116.833c-1.458-6.883-2.246-13.459-1.344-20.588
		c0.38-3.004,1.036-5.946,1.823-8.86c0.291,5.385,0.267,10.79,0.484,16.179c0.073,1.799,0.196,3.72,0.325,5.716
		C431.321,111.842,430.896,114.365,430.317,116.833z M432.068,77.207c-0.934-7.243-2.099-14.285-2.078-21.616
		c0.021-7.21-0.028-14.222-2.468-21.089c-1.331-3.746-3.346-6.742-5.838-9.151C442.291,33.127,437.388,58.308,432.068,77.207z
		 M386.677,17.911c6.49,0.007,13.304,0.335,19.664,2.046c-1.265-0.153-2.496-0.297-3.661-0.444
		c-7.973-1.007-16.006-1.402-24.048-1.551C381.31,17.932,383.991,17.909,386.677,17.911z M352.376,17.894
		c-7.979-0.024-15.957-0.156-23.935-0.351c-2.897-0.279-5.795-0.554-8.692-0.824C330.623,17.143,341.498,17.548,352.376,17.894z
		 M12.815,27.668c0.93-5.422,3.596-8.422,8.846-9.866c5.269-1.449,10.954-1.493,16.38-1.566c7.532-0.102,14.962-0.16,22.425-0.407
		c-3.096,0.569-6.169,1.24-9.204,2.056c-6.051,0.407-12.092,0.853-18.09,1.962c-1.171,0.217-2.31,0.466-3.416,0.752
		c-4.054,0.839-7.963,1.999-11.532,3.668c-1.994,0.932-3.474,2.823-3.98,4.954c-1.461,6.145-0.981,12.915-0.739,19.158
		c0.023,0.597,0.052,1.194,0.079,1.79c-0.167,0.423-0.324,0.851-0.482,1.279C12.23,43.534,11.467,35.523,12.815,27.668z
		 M11.961,63.247c0.307,2.989,0.604,5.978,0.853,8.971c-0.674,5.092-1.285,10.19-1.79,15.296
		C10.429,79.395,10.601,71.127,11.961,63.247z M11.261,106.773c0.033,0.185,0.063,0.371,0.096,0.555
		c0.842,4.581,1.748,9.376,3.022,14.063c-0.386,4.823-1.374,9.592-1.442,14.455c-0.863-3.641-1.138-7.537-1.352-11.093
		C11.221,118.735,11.134,112.749,11.261,106.773z M115.873,155.144c-16.292-0.122-32.582-0.528-48.849-1.462
		c-7.045-0.404-14.081-0.954-21.107-1.607c4.706,0.149,9.429,0.076,14.122,0.171c16.031,0.325,32.04,0.62,48.077,0.629
		c9.567,0.006,19.125,0.069,28.681,0.158c16.799,0.599,33.596,1.256,50.394,1.864C163.422,155.321,139.646,155.322,115.873,155.144z
		 M430.861,141.423c-1.248,5.828-7.494,8.567-12.601,10.068c-1.148,0.337-2.31,0.628-3.483,0.881c3.2-1.274,6.254-2.887,9.058-4.912
		c3.758-2.713,6.075-6.109,7.533-9.889C431.296,138.857,431.136,140.143,430.861,141.423z M432.01,124.28
		c-0.304-1.36-0.622-2.711-0.935-4.047c0.005-0.015,0.011-0.03,0.016-0.045c0.351-1.01,0.655-2.032,0.937-3.06
		C432.109,119.504,432.123,121.907,432.01,124.28z"/>
	<g>
		<g>
			<path d="M108.476,48.695c-0.119-1-1.287-1.439-2.818-1.528c-4.208-2.294-10.354-3.144-13.373,0.914
				c-2.264,3.043-3.532,7.628-5.057,11.098c-1.642,3.733-3.495,7.732-4.624,11.736c-1.62-3.101-3.071-6.251-4.477-9.497
				c-1.712-3.953-3.033-8.049-4.895-11.938c-0.913-1.906-3.333-1.997-5.72-1.653c0.169-0.178,0.293-0.334,0.275-0.346
				c-0.142-0.098-0.308-0.183-0.473-0.269c0.55,0.001,1.089-0.004,1.598-0.034c0.201-0.012,0.833-0.756,0.861-0.745
				c-6.329-2.416-11.838-1.317-12.306,5.879c-0.606,9.322-0.048,18.589-0.283,27.906c-0.14,5.565-0.527,11.128-0.691,16.695
				c-0.068,2.337,2.55,2.252,4.212,3.024c0.221,1.61,1.877,1.778,3.646,1.661c4.132-0.274,6.246,1.845,8.636-1.954
				c1.055-1.677,0.72-4.462,0.676-6.286c-0.028-1.193-0.021-2.391-0.041-3.586c0.955,1.599,2.107,3.151,2.087,4.948
				c-0.004,0.073,0.031,0.108,0.104,0.106c1.827,0.037,3.658,0.294,5.462-0.102c0.008-0.002,0.032-0.009,0.048-0.013
				c1.961,0.504,4.479,0.282,5.907,0.258c1.688-0.029,3.022-0.956,4.111-2.391c0.167,0.022,0.331,0.063,0.496,0.091
				c0.035,0.795,0.07,1.59,0.115,2.386c0.111,1.962,0.876,3.841,1.024,5.809c-0.006,0.068,0.026,0.1,0.094,0.097
				c1.298,0.068,2.659,0.221,3.999,0.304c0.084,0.113,0.15,0.245,0.246,0.346c1.467,1.532,8.442-0.144,10.003-1.742
				c2.774-2.841,0.952-12.421,0.765-15.893C107.454,72.229,109.872,60.469,108.476,48.695z M95.758,47.074
				c1.866-0.114,3.764,0.132,5.64,0.509c-0.902,0.201-1.735,0.456-2.424,0.735c0.126-0.165,0.211-0.294,0.201-0.3
				c-0.654-0.318-1.35-0.465-2.067-0.563c-0.605-0.083-1.218-0.219-1.828-0.307C95.435,47.115,95.592,47.085,95.758,47.074z
				 M91.317,52.241c0.718,0.458,1.477,0.969,2.252,1.165c0.25,0.063,1.267-0.934,1.157-1.025c-0.441-0.364-1.08-0.463-1.623-0.607
				c-0.498-0.133-1-0.197-1.508-0.249c0.144-0.357,0.296-0.715,0.461-1.064c0.862,0.518,1.844,1.394,2.838,1.186
				c0.154-0.032,1.071-0.807,0.978-0.873c-0.384-0.274-1-0.246-1.455-0.356c-0.686-0.165-1.35-0.406-2.039-0.561
				c-0.006-0.001-0.019,0.011-0.027,0.012c0.461-0.863,1.005-1.636,1.693-2.146c0.434,0.393,1.228,0.484,1.776,0.617
				c0.651,0.159,1.272,0.364,1.852,0.689c-0.021,0.018-0.059,0.035-0.078,0.053c-1.658,1.482-2.887,3.53-3.902,5.76
				c-0.657-0.826-1.729-1.567-2.684-1.774C91.109,52.793,91.208,52.526,91.317,52.241z M90.398,54.604
				c0.047-0.105,0.096-0.241,0.144-0.356c0.323,0.217,0.612,0.487,0.885,0.777c0.421,0.448,0.749,0.999,1.249,1.348
				c-0.279-0.123-0.573-0.226-0.803-0.333c-0.55-0.256-1.109-0.466-1.701-0.598c-0.049-0.011-0.108,0.009-0.17,0.041
				C90.133,55.191,90.268,54.894,90.398,54.604z M89.537,56.509c0.396,0.169,0.777,0.363,1.149,0.588
				c0.509,0.308,1.007,0.784,1.615,0.811c0.034,0.002,0.098-0.029,0.17-0.07c-0.14,0.38-0.272,0.759-0.406,1.139
				c-0.334-0.165-0.71-0.28-1.035-0.394c-0.668-0.234-1.346-0.433-2.006-0.689c-0.033-0.013-0.075-0.004-0.117,0.007
				C89.118,57.434,89.329,56.969,89.537,56.509z M88.337,59.171c0.378,0.178,0.756,0.356,1.139,0.525
				c0.617,0.273,1.218,0.746,1.858,0.92c0.04,0.011,0.101-0.006,0.172-0.035c-0.021,0.061-0.041,0.119-0.062,0.18
				c-0.271-0.068-0.546-0.119-0.772-0.173c-0.683-0.163-1.443-0.273-1.964-0.783c-0.089-0.087-0.666,0.359-0.953,0.683
				C87.948,60.048,88.141,59.608,88.337,59.171z M87.618,60.802c0.35,0.543,0.934,0.836,1.526,1.052
				c0.543,0.198,1.12,0.506,1.695,0.66c-0.089,0.254-0.178,0.499-0.267,0.747c-0.293-0.092-0.608-0.146-0.887-0.23
				c-0.585-0.176-0.997-0.545-1.527-0.803c-0.204-0.099-1.212,0.786-1.133,0.998c0.351,0.953,1.998,1.638,2.961,1.603
				c-0.012,0.03-0.024,0.064-0.036,0.094c-0.05,0.125-0.097,0.251-0.147,0.377c-0.898-0.599-2.006-0.852-3.082-0.938
				c-0.208-0.017-0.562,0.383-0.816,0.689C86.438,63.624,87.01,62.203,87.618,60.802z M85.757,65.444
				c1.202,0.354,2.281,0.991,3.365,1.603c-0.076,0.192-0.149,0.385-0.225,0.577c-0.18-0.106-0.361-0.205-0.528-0.295
				c-0.656-0.353-1.355-0.626-2.073-0.82c-0.367-0.099-1.104,0.858-1.293,1.15C85.239,66.92,85.487,66.181,85.757,65.444z
				 M83.94,71.676c0.259-1.307,0.618-2.615,1.031-3.919c0.673,0.264,1.295,0.61,1.896,1.01c0.398,0.265,0.794,0.66,1.241,0.878
				c-0.114,0.29-0.225,0.581-0.339,0.87c-0.23-0.139-0.468-0.268-0.68-0.403c-0.508-0.326-0.992-0.68-1.45-1.073
				c-0.226-0.194-1.512,1.052-1.342,1.239c0.409,0.447,0.85,0.853,1.313,1.245c0.431,0.365,0.864,0.79,1.393,0.991
				c-0.077,0.215-0.146,0.416-0.213,0.611c-0.671-0.465-1.522-0.752-1.875-1.57c-0.028-0.065-1.265,0.751-1.204,1.077
				c0.134,0.715,0.727,1.567,1.431,2.043c-0.094,0.032-0.219,0.117-0.349,0.224c-0.17-0.293-0.358-0.625-0.595-1.043
				c-0.271-0.479-0.522-0.963-0.784-1.444C83.684,72.139,83.903,71.862,83.94,71.676z M61.508,65.674
				c-0.554-0.045-1.106-0.065-1.662-0.05c-0.175,0.005-0.373,0.143-0.552,0.302c-0.005-0.4-0.013-0.801-0.018-1.201
				c0.438,0.107,0.882,0.187,1.328,0.221c0.221,0.017,0.618-0.364,0.935-0.736c0.002,0.488,0.002,0.977,0.004,1.465
				C61.532,65.675,61.519,65.675,61.508,65.674z M61.548,67.187c0.002,0.594,0,1.187,0.001,1.781
				c-0.18-0.013-0.36-0.023-0.538-0.042c-0.534-0.058-1.066-0.14-1.597-0.219c-0.022-0.003-0.052,0.014-0.077,0.02
				c-0.008-0.56-0.018-1.121-0.026-1.681c0.735,0.134,1.513,0.329,2.182,0.168C61.504,67.212,61.53,67.196,61.548,67.187z
				 M61.242,61.886c0.073-0.01,0.177-0.072,0.29-0.153c0.001,0.558,0.003,1.116,0.005,1.674c-0.753-0.164-1.528-0.198-2.287-0.363
				c-0.004-0.413-0.016-0.827-0.019-1.239C59.901,61.879,60.597,61.972,61.242,61.886z M59.226,60.959
				c-0.002-0.558-0.012-1.116-0.011-1.674c0.592,0.078,1.181,0.171,1.782,0.293c0.116,0.023,0.319-0.112,0.533-0.299
				c-0.001,0.362,0.002,0.722,0.001,1.084c-0.548,0.037-1.105,0.118-1.619,0.154C59.685,60.532,59.428,60.758,59.226,60.959z
				 M61.535,57.956c-0.756-0.112-1.581,0.028-2.321,0.092c0.004-0.455-0.008-0.91-0.001-1.366c0.45,0.153,0.948,0.232,1.334,0.244
				c0.198,0.006,0.669-0.434,0.995-0.807C61.534,56.733,61.54,57.344,61.535,57.956z M59.021,84.461
				c0.209-0.003,0.417,0,0.626,0.003c0.47,0.008,0.849,0.241,1.293,0.343c0.049,0.011,0.134-0.024,0.23-0.076
				c-0.008,0.394-0.009,0.789-0.009,1.183c-0.355-0.011-0.713-0.014-1.024-0.101c-0.344-0.097-0.89,0.535-1.213,0.983
				C58.956,86.019,58.991,85.239,59.021,84.461z M58.817,89.414c0.034-0.715,0.059-1.427,0.088-2.141
				c0.695,0.196,1.486,0.299,2.185,0.309c0.02,0,0.055-0.018,0.084-0.028c0.01,0.608,0.024,1.215,0.038,1.822
				c-0.563-0.13-1.164-0.18-1.686-0.239c-0.214-0.024-0.491,0.205-0.72,0.431C58.809,89.517,58.815,89.463,58.817,89.414z
				 M58.646,93.029c0.448,0.104,0.893,0.211,1.331,0.35c0.433,0.137,0.817,0.377,1.245,0.52c-0.005,0.183-0.019,0.365-0.026,0.548
				c-0.144-0.053-0.289-0.103-0.424-0.176c-0.356-0.193-1.603,1.22-1.431,1.349c0.516,0.388,1.129,0.618,1.708,0.908
				c-0.021,0.206-0.034,0.412-0.059,0.618c-0.03-0.008-0.048-0.012-0.079-0.02c-3.088-0.831-2.544-3.931-2.224-6.407
				c0.75,0.105,1.474,0.26,2.227,0.408c0.07,0.014,0.189-0.046,0.324-0.139c0.004,0.282,0.004,0.563,0.005,0.844
				c-0.45-0.096-0.909-0.154-1.274-0.215C59.525,91.543,58.433,92.979,58.646,93.029z M61.236,83.005
				c-0.519-0.07-1.108-0.012-1.523-0.049c-0.194-0.017-0.433,0.16-0.645,0.358c0.024-0.633,0.055-1.268,0.078-1.902
				c0.704,0.174,1.451,0.312,2.14,0.354C61.268,82.178,61.258,82.591,61.236,83.005z M61.35,80.213
				c-0.593,0.034-1.203,0.137-1.727,0.111c-0.11-0.006-0.276,0.125-0.443,0.291c0.019-0.54,0.05-1.081,0.067-1.622
				c0.616,0.068,1.24,0.099,1.835-0.013c0.072-0.014,0.192-0.09,0.327-0.192C61.395,79.263,61.367,79.739,61.35,80.213z
				 M61.442,77.468c-0.621-0.011-1.261,0.049-1.858,0.022c-0.09-0.004-0.191,0.038-0.293,0.099c0.013-0.514,0.04-1.028,0.049-1.542
				c0.078,0.01,0.157,0.014,0.235,0.026c0.545,0.084,0.992,0.436,1.543,0.415c0.081-0.003,0.208-0.061,0.352-0.151
				C61.463,76.712,61.45,77.09,61.442,77.468z M61.495,74.563c-0.708-0.127-1.621,0.007-2.138,0.046
				c0.004-0.481,0.018-0.961,0.018-1.442c0.421,0.103,0.847,0.153,1.24,0.05c0.121-0.032,0.598-0.423,0.911-0.734
				C61.521,73.175,61.503,73.869,61.495,74.563z M61.53,72.039c-0.266-0.06-0.54-0.068-0.824-0.094
				c-0.441-0.041-0.878-0.131-1.312-0.212c-0.008-0.001-0.018,0.005-0.027,0.005c-0.006-0.511,0.005-1.021-0.008-1.532
				c0-0.014,0-0.028-0.001-0.042c0.597,0.16,1.209,0.289,1.77,0.221c0.083-0.01,0.243-0.124,0.421-0.274
				C61.548,70.753,61.533,71.396,61.53,72.039z M61.555,55.543c-0.679-0.142-1.431,0.074-2.104-0.194
				c-0.043-0.017-0.124,0.017-0.217,0.073c0.007-0.285,0.006-0.57,0.014-0.855c0.393,0.036,0.782,0.03,1.127-0.121
				c0.173-0.075,1.437-1.047,1.206-1.25c-0.272-0.24-0.742-0.086-1.076-0.052c-0.421,0.043-0.819,0.134-1.222,0.251
				c0.015-0.389,0.016-0.778,0.035-1.167c0.062,0.009,0.125,0.015,0.187,0.026c0.668,0.114,1.298,0.345,1.979,0.271
				c0.032-0.004,0.081-0.025,0.139-0.059C61.59,53.493,61.572,54.518,61.555,55.543z M61.807,50.957
				c-0.141-0.012-0.283-0.021-0.428-0.032c-0.638-0.049-1.301-0.091-1.937,0.005c0.065-0.345,0.149-0.664,0.258-0.949
				c0.341,0.127,0.831,0.172,1.098,0.245c0.38,0.104,0.803,0.294,1.217,0.386C61.931,50.731,61.866,50.845,61.807,50.957z
				 M62.263,49.17c-0.021-0.002-0.048-0.003-0.067-0.006c-0.584-0.076-1.322-0.266-1.9-0.123c-0.026,0.006-0.086,0.042-0.157,0.09
				c0.405-0.584,0.936-0.997,1.557-1.279c-0.097,0.103-0.262,0.289-0.195,0.277c0.672-0.125,1.244,0.19,1.802,0.542
				c-0.204,0.039-0.401,0.075-0.571,0.097C62.581,48.787,62.411,49.008,62.263,49.17z M73.509,79.932
				c0.605,1.229,1.188,2.522,1.75,3.832c-0.561,0.093-1.128,0.158-1.704,0.203C73.537,82.622,73.509,81.277,73.509,79.932z
				 M73.757,85.04c-0.028-0.038-0.101-0.019-0.188,0.022c-0.001-0.159-0.004-0.317-0.005-0.476c0.661,0.014,1.322,0.021,1.969,0.157
				c0.037,0.008,0.086-0.02,0.131-0.034c0.199,0.477,0.389,0.954,0.581,1.431c-0.047,0.014-0.1,0.034-0.145,0.044
				c-0.278,0.062-0.559,0.098-0.842,0.119c-0.276,0.021-0.491,0.05-0.719,0.088C74.305,85.914,74.057,85.451,73.757,85.04z
				 M75.775,88.828c-0.028,0.008-0.072,0.045-0.112,0.075c-0.244-0.527-0.474-1.074-0.711-1.624
				c0.608,0.059,1.259,0.005,1.685-0.155c0.175,0.446,0.333,0.875,0.501,1.315C76.628,88.552,76.12,88.733,75.775,88.828z
				 M76.025,89.63c0.484,0.079,0.968,0.112,1.44-0.053c0.017-0.006,0.049-0.026,0.086-0.051c0.155,0.415,0.304,0.822,0.453,1.227
				c-0.411,0.047-0.821,0.117-1.23,0.202C76.536,90.503,76.262,90.062,76.025,89.63z M77.29,92.333
				c-0.032-0.178-0.093-0.352-0.153-0.527c0.259,0.051,0.517,0.117,0.77,0.227c0.129,0.056,0.318-0.06,0.489-0.198
				c0.104,0.288,0.211,0.583,0.309,0.862c0.094,0.266,0.234,0.494,0.393,0.704C78.242,93.335,77.469,93.318,77.29,92.333z
				 M94.927,88.084c0.077-0.024,0.334-0.223,0.595-0.458c0.009,1.352,0.054,2.705,0.137,4.06c-0.435-0.13-0.901-0.068-1.358-0.061
				c-0.24,0.004-0.479,0.022-0.719,0.029c-0.008-0.283-0.026-0.564-0.028-0.847c0.244,0.059,0.489,0.098,0.747,0.06
				c0.228-0.034,1.436-0.969,1.243-1.196c-0.36-0.424-1.236-0.314-1.992-0.17c0.004-0.403,0.009-0.805,0.011-1.201
				c0.042-0.111,0.078-0.229,0.118-0.342C94.082,88.118,94.488,88.218,94.927,88.084z M94.145,86.613
				c0.174-0.544,0.34-1.096,0.498-1.647c0.16,0.06,0.3,0.104,0.388,0.122c0.106,0.022,0.292-0.08,0.49-0.231
				c-0.009,0.597,0.002,1.194,0.001,1.791c-0.193-0.011-0.389-0.009-0.573-0.028C94.681,86.593,94.413,86.6,94.145,86.613z
				 M94.702,98.568c-0.044-0.014-0.099-0.006-0.161,0.017c-0.094-0.31-0.18-0.659-0.254-1.049c0.553,0.15,1.118,0.391,1.662,0.319
				c0.007-0.001,0.021-0.009,0.029-0.011c0.031,0.279,0.068,0.554,0.111,0.825C95.624,98.696,95.165,98.712,94.702,98.568z
				 M95.756,96.125c-0.566-0.028-1.133-0.019-1.7-0.031c-0.043-0.316-0.083-0.621-0.117-0.886c0.493,0.085,0.919,0.144,1.389-0.119
				c0.069-0.038,0.268-0.184,0.483-0.365c0.011,0.454,0.023,0.926,0.041,1.403C95.821,96.126,95.786,96.126,95.756,96.125z
				 M94.987,93.813c-0.41,0.047-0.817,0.047-1.226,0.031c-0.03-0.255-0.067-0.508-0.091-0.765c0.248,0.052,0.498,0.082,0.753,0.043
				c0.207-0.032,0.939-0.695,1.257-1.096c0.019,0.282,0.026,0.563,0.051,0.846c0.022,0.248,0.036,0.514,0.048,0.791
				C95.482,93.706,95.171,93.792,94.987,93.813z M105.896,86c0.129,1.753,1.172,13.222-0.267,13.572
				c-5.675,1.382-7.379-0.158-7.934-6.069c-0.584-6.219-0.083-12.259-0.003-18.489c0.008-0.636-1.679,1.023-1.779,1.183
				c-3.839,6.111-2.305,16.601-11.687,16.377c-5.45-0.13-8.262-14.25-10.748-18.331c-0.326-0.535-1.973,1.501-1.981,1.951
				c-0.124,6.976,0.024,13.976,0.192,20.95c0.11,4.577-1.078,2.325-4.12,2.307c-3.478-0.021-4.337-0.416-4.389-3.951
				c0.035-0.091,0.049-0.168,0.008-0.204c-0.004-0.003-0.009-0.005-0.012-0.008c-0.001-0.263,0.001-0.54,0.007-0.836
				c0.297-14.975-0.078-29.978,0.702-44.924c0.007-0.129-0.023-0.207-0.076-0.252c0.156-0.011,0.312-0.024,0.467-0.036
				c0.12,0.055,0.242,0.104,0.366,0.138c0.091,0.025,0.261-0.066,0.448-0.202c1.872-0.15,3.715-0.259,5.618,0.415
				c2.146,0.76,3.276,6.96,3.862,8.785c2.3,7.155,5.887,13.957,9.196,20.675c0.154,0.313,1.128-0.616,1.203-0.696
				c4.622-4.916,6.204-13.192,8.656-19.323c0.925-2.312,1.807-4.652,2.82-6.927c1.111-2.498,9.687-4.584,10.171-0.07
				c0.646,6.021-0.006,12.237-0.268,18.247C106.115,75.606,105.506,80.69,105.896,86z"/>
			<path d="M147.213,53.619c-1.63-2.259-4.288-3.805-7.237-4.676c0.02-0.031,0.06-0.077,0.052-0.087
				c-4.183-5.285-16.162-2.155-21.188-0.012c-3.257,1.389-4.741,5.267-6.156,8.156c-4.338,8.852-3.297,19.622-2.525,29.1
				c0.748,9.178,7.763,12.864,15.987,14.841c0.069,0.016,0.157-0.017,0.251-0.068c2.67,0.628,5.742,0.634,9.357,0.13
				c10.742-1.499,16.259-10.676,16.122-20.788C151.753,71.107,152.799,61.359,147.213,53.619z M135.209,48.132
				c-2.273-0.128-4.495,0.103-6.36,0.693c-0.063,0.02-0.138,0.073-0.217,0.138c-0.577,0.06-1.136,0.146-1.682,0.253
				c0.368-0.19,0.843-0.949,0.906-0.93c-0.511-0.156-1.114-0.37-1.721-0.5C129.15,47.42,132.381,47.466,135.209,48.132z
				 M115.305,53.17c0.884,0.106,1.774,0.242,2.654,0.291c0.248,0.014,0.609-0.372,0.767-0.519c0.031-0.029,0.701-0.752,0.56-0.79
				c-1.035-0.284-2.238-0.018-3.314,0.114c0.982-1.23,2.14-2.225,3.529-2.822c1.238-0.532,2.724-0.961,4.317-1.285
				c-0.131,0.119-0.333,0.313-0.11,0.173c0.235-0.147,1.166,0.251,1.4,0.327c0.553,0.181,1.085,0.427,1.641,0.597
				c0.011,0.003,0.025-0.004,0.036-0.003c-0.839,0.172-1.634,0.408-2.4,0.685c0.18-0.174,0.311-0.344,0.277-0.424
				c-0.319-0.741-2.434-0.347-3.057-0.271c-0.24,0.029-1.222,0.152-1.282,0.552c-0.022,0.152,1.854,0.23,1.885,0.235
				c0.365,0.057,0.703,0.262,1.047,0.37c-0.563,0.254-1.088,0.558-1.608,0.869c0.238-0.282,0.42-0.554,0.404-0.562
				c-0.848-0.398-2.392-0.643-3.26-0.237c-0.192,0.09-0.368,0.254-0.524,0.394c-0.029,0.026-0.318,0.352-0.253,0.329
				c0.827-0.299,1.967,0.333,2.708,0.683c-0.898,0.629-1.709,1.362-2.46,2.162c-0.843-0.142-1.953,0.107-2.591,0.128
				c-0.285,0.009-0.827,0.841-0.931,0.822c0.396,0.073,0.797,0.114,1.198,0.155c0.442,0.044,0.791,0.164,1.138,0.305
				c-0.31,0.41-0.574,0.867-0.853,1.309c-0.207,0.01-0.404,0.024-0.533,0.018c-0.284-0.013-0.783-0.006-1.054-0.133
				c-0.141-0.066-0.908,0.588-0.889,0.743c0.052,0.44,0.958,0.783,1.617,0.857c-0.217,0.42-0.412,0.86-0.606,1.301
				c-0.227,0.026-0.455,0.06-0.678,0.082c-0.448,0.043-0.926-0.001-1.357,0.124c-0.033,0.01-0.129,0.071-0.235,0.143
				C113.123,57.465,114.021,55.092,115.305,53.17z M112.335,60.495c0.46,0.249,1.389,0.397,1.681,0.38
				c0.078-0.005,0.161-0.037,0.243-0.08c-0.097,0.261-0.169,0.541-0.258,0.807c-0.462,0.037-0.936,0.128-1.379,0.16
				c-0.208,0.015-0.445,0.218-0.636,0.405C112.093,61.611,112.199,61.054,112.335,60.495z M111.824,62.976
				c0.519,0.049,1.051,0.094,1.546-0.056c0.091-0.028,0.169-0.094,0.254-0.142c-0.102,0.361-0.194,0.729-0.283,1.1
				c-0.512-0.073-1.183,0.101-1.69,0.223C111.705,63.728,111.758,63.357,111.824,62.976z M111.478,65.409
				c0.308,0.085,0.602,0.212,0.869,0.462c0.106,0.099,0.361-0.022,0.637-0.23c-0.05,0.308-0.093,0.634-0.138,0.956
				c-0.295,0.009-0.597,0.061-0.872,0.116c-0.235,0.046-0.467,0.24-0.662,0.428C111.357,66.581,111.409,66.007,111.478,65.409z
				 M111.204,69.174c0.008-0.378,0.035-0.801,0.059-1.216c0.494,0.076,0.899,0.278,1.355,0.553
				c-0.042,0.426-0.065,0.884-0.098,1.326c-0.375,0.024-0.764,0.128-1.052,0.21c-0.052,0.015-0.16,0.091-0.291,0.197
				C111.187,69.88,111.196,69.52,111.204,69.174z M111.145,71.273c0.316,0.055,0.592,0.168,0.892,0.319
				c0.078,0.039,0.214-0.006,0.369-0.094c-0.022,0.48-0.027,0.976-0.038,1.466c-0.308-0.001-0.625,0.041-0.89,0.065
				c-0.095,0.009-0.239,0.108-0.393,0.239C111.104,72.59,111.125,71.915,111.145,71.273z M111.059,74.351
				c0.235,0.069,0.471,0.123,0.709,0.105c0.099-0.008,0.329-0.169,0.572-0.376c-0.003,0.529,0.011,1.066,0.022,1.601
				c-0.372,0.018-0.758,0.091-1.092,0.093c-0.063,0-0.146,0.048-0.235,0.113C111.041,75.372,111.047,74.855,111.059,74.351z
				 M111.029,77.061c0.281,0.061,0.563,0.108,0.833,0.11c0.099,0.001,0.309-0.142,0.534-0.331c0.018,0.453,0.049,0.906,0.078,1.359
				c-0.375,0.051-0.748,0.141-0.997,0.169c-0.14,0.016-0.29,0.112-0.43,0.227C111.037,78.083,111.029,77.57,111.029,77.061z
				 M111.075,79.532c0.066,0.003,0.131,0.007,0.197,0.011c0.437,0.026,0.765,0.226,1.199,0.178c0.029-0.003,0.072-0.02,0.119-0.042
				c0.038,0.417,0.085,0.832,0.133,1.246c-0.316,0.059-0.633,0.111-0.955,0.145c-0.196,0.02-0.41,0.195-0.591,0.368
				C111.133,80.805,111.097,80.17,111.075,79.532z M111.242,82.237c0.378,0.002,0.756-0.008,1.137-0.028
				c0.157-0.008,0.322-0.107,0.48-0.228c0.085,0.615,0.195,1.214,0.303,1.813c-0.491,0.02-1.025,0.132-1.448,0.122
				c-0.07-0.002-0.161,0.044-0.257,0.107C111.376,83.432,111.295,82.842,111.242,82.237z M111.664,85.317
				c0.363,0.009,0.722-0.023,1.059-0.137c0.077-0.026,0.34-0.238,0.605-0.482c0.109,0.532,0.231,1.052,0.361,1.565
				c-0.428,0.001-0.897,0.097-1.21,0.107c-0.12,0.004-0.319,0.17-0.516,0.367C111.852,86.272,111.75,85.799,111.664,85.317z
				 M112.757,89.293c-0.199-0.52-0.383-1.053-0.54-1.607c0.36,0.119,0.725,0.221,1.068,0.227c0.13,0.002,0.446-0.204,0.737-0.455
				c0.164,0.552,0.347,1.081,0.537,1.602c-0.547-0.022-1.117,0.04-1.5,0.093C112.96,89.166,112.858,89.224,112.757,89.293z
				 M114.672,91.372c-0.214,0.037-0.432,0.217-0.617,0.394c-0.147-0.214-0.31-0.412-0.443-0.64c-0.12-0.206-0.208-0.44-0.316-0.657
				c0.053,0.015,0.106,0.023,0.16,0.039c0.422,0.125,0.705,0.27,1.151,0.199c0.079-0.013,0.284-0.144,0.507-0.315
				c0.108,0.24,0.203,0.497,0.319,0.725c0.041,0.081,0.084,0.156,0.126,0.236C115.254,91.314,114.931,91.327,114.672,91.372z
				 M116.18,92.5c0.173,0.303,0.353,0.577,0.53,0.863c-0.031,0.002-0.061,0.002-0.092,0.004c-0.223,0.016-0.487,0.267-0.678,0.459
				c-0.233-0.206-0.48-0.397-0.699-0.619C115.487,93.159,115.905,92.823,116.18,92.5z M132.911,99.46
				c-13.263,0.887-15.87-10.036-17.893-20.439c-0.922-4.74-0.759-10.132-0.397-14.921c0.186-2.461,0.839-4.519,1.827-6.255
				c0.4-0.326,0.836-0.767,0.694-0.929c-0.018-0.021-0.06-0.025-0.084-0.041c0.27-0.389,0.551-0.767,0.857-1.12
				c0.381-0.055,1.412-1.009,1.254-1.232c-0.005-0.007-0.013-0.01-0.018-0.017c2.794-2.496,6.582-3.924,10.584-4.708
				c10.082-0.838,18.001,5.937,19.686,16.081c0.868,5.227,0.262,10.791,0.507,16.076C150.426,92.697,142.82,98.797,132.911,99.46z"
				/>
			<path d="M134.005,58.586c-0.089-0.018-0.18-0.032-0.272-0.045c-0.38-0.047-0.772-0.081-1.184-0.093
				c-1.216-0.036-5.292,1.892-7.439,3.833c-0.32-0.123-1.726,1.184-1.861,1.631c-0.621,2.054-0.551,3.438-0.303,5.613
				c0.357,3.13-0.498,6.215-0.605,9.325c-0.191,5.532,1.387,9.527,6.466,12.227c5.42,2.881,11.357-2.554,12.26-7.579
				C142.548,75.246,144.551,60.162,134.005,58.586z M139.927,71.785c-0.269-0.018-0.54-0.026-0.794-0.058
				c-0.407-0.052-0.812-0.121-1.218-0.187c-0.025-0.582-0.056-1.164-0.066-1.746c0.229,0.097,0.46,0.178,0.687,0.195
				c0.211,0.016,0.896-0.577,1.226-1C139.867,69.898,139.91,70.837,139.927,71.785z M139.281,66.325
				c0.097,0.373,0.193,0.747,0.266,1.134c0.062,0.332,0.097,0.68,0.144,1.02c-0.419-0.181-0.977-0.191-1.401-0.262
				c-0.147-0.025-0.291-0.06-0.437-0.088c0.001-0.027,0-0.053,0-0.08c0.015-0.597,0.007-1.272-0.019-1.965
				c0.383,0.151,0.759,0.312,1.162,0.361C139.056,66.452,139.162,66.4,139.281,66.325z M138.741,64.66
				c-0.239,0.006-0.468,0.02-0.665,0.034c-0.083,0.006-0.198,0.075-0.321,0.174c-0.082-0.883-0.212-1.775-0.448-2.601
				C137.905,62.954,138.373,63.766,138.741,64.66z M128.603,86.902c-0.032-0.012-0.077,0.003-0.117,0.006
				c-1.754-1.324-3.194-3.126-3.775-5.036c-0.959-3.155-0.053-6.866,0.347-10.05c0.386-3.073-0.454-6.075,0.086-9.135
				c1.658-2.087,5.443-2.789,7.522-2.639c0.884,0.064,1.638,0.277,2.324,0.563c1.262,1.634,1.478,4.417,1.41,7.125
				c-0.043-0.016-0.088-0.025-0.131-0.042c-0.182-0.073-0.91,0.727-0.889,0.743c0.305,0.235,0.634,0.425,0.97,0.604
				c-0.06,1.133-0.145,2.198-0.205,3.136c-0.176,0.219-0.303,0.4-0.302,0.4c0.091,0.03,0.181,0.062,0.272,0.093
				c-0.025,0.462-0.042,0.894-0.037,1.253c0.007,0.473,0.026,1.007,0.046,1.581c-0.138,0.151-0.371,0.429-0.22,0.442
				c0.079,0.007,0.157,0.009,0.236,0.014c0.024,0.683,0.046,1.414,0.051,2.164c-0.082,0.074-0.158,0.146-0.215,0.199
				c-0.03,0.028-0.686,0.738-0.554,0.771c0.252,0.064,0.507,0.12,0.761,0.181c-0.014,0.644-0.047,1.291-0.106,1.924
				c-0.319,0.334-0.616,0.742-0.609,0.744c0.173,0.056,0.334,0.128,0.496,0.199C135.423,85.889,133.687,88.789,128.603,86.902z
				 M135.612,88.82c0.103-0.16,0.152-0.3,0.108-0.384c-0.18-0.343-0.4-0.45-0.76-0.548c-0.297-0.081-1.122,0.712-1.385,1.133
				c-0.197-0.016-0.392-0.028-0.592-0.061c0.723-0.376,1.392-0.892,1.994-1.502c0.14,0.113,0.282,0.222,0.415,0.344
				c0.246,0.226,0.329,0.579,0.583,0.767c0.271,0.199,1.397-0.945,1.398-1.233c0.002-0.694-0.804-0.892-1.387-1.094
				c0.176-0.244,0.355-0.487,0.512-0.746c0.426,0.176,0.779,0.44,0.845,0.978c0.041,0.333,0.72-0.242,0.797-0.309
				c0.118-0.102,0.266-0.235,0.408-0.379C137.939,87.46,136.883,88.416,135.612,88.82z M139.049,83.62
				c-0.034,0.323-0.102,0.595-0.158,0.886c-0.271-0.466-1.031-0.493-1.639-0.485c0.097-0.231,0.192-0.464,0.273-0.699
				c0.123,0.129,0.251,0.25,0.402,0.33c0.245,0.129,0.806-0.292,1.199-0.747C139.1,83.141,139.073,83.388,139.049,83.62z
				 M139.258,81.674c-0.299-0.311-0.754-0.519-1.234-0.656c0.022-0.291,0.032-0.581,0.05-0.872c0.044,0.015,0.083,0.039,0.13,0.049
				c0.309,0.065,0.992-0.54,1.322-1.048C139.438,80.003,139.347,80.845,139.258,81.674z M139.595,78.418
				c-0.258-0.417-0.84-0.574-1.453-0.617c-0.003-0.503,0-1.007-0.017-1.51c0.187,0.071,0.372,0.131,0.562,0.127
				c0.25-0.005,0.784-0.391,1.137-0.795C139.766,76.559,139.684,77.491,139.595,78.418z M139.868,74.624
				c-0.413-0.205-1.157-0.124-1.81-0.009c-0.022-0.434-0.044-0.868-0.067-1.301c0.473,0.161,0.971,0.299,1.437,0.216
				c0.087-0.016,0.282-0.151,0.502-0.33C139.922,73.672,139.89,74.149,139.868,74.624z"/>
			<path d="M95.732,49.076c-0.692-0.065-1.434-0.247-2.071-0.524c-0.036-0.016-0.34,0.249-0.337,0.252
				c0.612,0.92,2.028,1.305,3.102,1.21c0.223-0.02,0.87-0.808,0.908-0.796C96.829,49.059,96.256,49.125,95.732,49.076z"/>
			<path d="M197.226,79.71c0.191-6.373-0.493-12.658-0.822-18.994c0.007,0.137,2.542-11.597,0.269-12.287
				c-0.348-0.105-0.829-0.191-1.389-0.256c-5.106-3.749-10.81-2.889-14.827,1.979c-2.457,2.977-3.976,6.965-5.66,10.388
				c-1.934,3.931-4.131,7.775-5.776,11.841c0.64-5.604,0.448-12.003-0.367-17.496c-0.339-2.285-0.425-4.697-1.486-6.77
				c-0.236-0.462-0.837-0.674-1.598-0.756c0.121-0.13,0.226-0.243,0.259-0.233c-3.052-0.9-7.658-3.046-10.573-0.572
				c-2.485,2.109-1.108,6.282-1.205,9.069c-0.033,0.955-0.074,1.913-0.116,2.871c-0.007,0.009-0.035,0.039-0.035,0.039
				c0.012,0.006,0.022,0.011,0.033,0.016c-0.34,7.751-0.874,15.608-0.277,23.322c0.191,2.47,0.337,4.889,0.395,7.32
				c-0.146,0.181-0.244,0.327-0.223,0.338c0.073,0.037,0.156,0.087,0.232,0.13c0.019,1.058,0.015,2.122-0.007,3.193
				c-0.027,0.031-0.046,0.052-0.049,0.05c0.016,0.006,0.031,0.014,0.047,0.019c-0.009,0.401-0.011,0.8-0.029,1.204
				c-0.186,4.204-0.933,5.396,2.316,8.221c0.169,0.147,0.589-0.131,0.972-0.501c0.008,0.071,0.041,0.117,0.119,0.117
				c9.873,0.313,10.083-3.644,16.159-11.042c2.941-3.582,4.8-7.527,6.892-11.647c0.089-0.175,0.544-1.099,1.134-2.182
				c-0.463,2.187-0.603,4.495-0.631,6.812l-0.007,0.008c0.002,0.002,0.004,0.002,0.006,0.004c-0.032,2.681,0.087,5.376,0.06,7.919
				c-0.019,1.78-0.652,5.178,0.327,6.785c1.349,2.215,3.212,3.039,5.337,4.393c0.334,0.213,1.03-0.416,1.474-1.009
				c1.381,0.785,3.353,0.708,6.176-0.774c0.82-0.431,1.885-1.114,2.091-2.111C197.703,93.032,197.038,85.954,197.226,79.71z
				 M176.417,59.346c0.16-0.323,0.32-0.668,0.481-1.02c0.303-0.021,0.597-0.026,0.904,0.006c0.487,0.052,0.899,0.261,1.391,0.216
				c0.27-0.025,1.604-1.21,1.367-1.366c-0.696-0.458-1.923-0.18-2.679,0.019c-0.256,0.068-0.488,0.28-0.689,0.476
				c1.577-3.534,3.364-7.996,6.705-9.593c2.176-1.04,4.681-0.651,7.08,0.002c-1.488,0.09-2.851,0.315-3.675,0.686
				c0.031-0.083,0.045-0.16,0.013-0.22c-0.262-0.497-1.58-0.698-2.115-0.748c-0.802-0.076-1.5,0.473-2.034,1.002
				c-0.082,0.081-0.727,0.662-0.571,0.828c0.155,0.165,0.776-0.443,0.86-0.521c-0.339,0.313-0.017,0.155,0.196,0.151
				c0.304-0.005,0.61,0.104,0.891,0.205c0.34,0.122,0.694,0.381,1.054,0.461c-0.074,0.065-0.158,0.126-0.23,0.193
				c-1.231,0.101-2.446,0.284-3.655,0.537c-0.299,0.063-0.6,0.385-0.807,0.589c-0.025,0.025-0.483,0.521-0.304,0.507
				c1.126-0.092,2.246-0.1,3.373-0.017c-0.658,0.92-1.226,1.935-1.847,3.034c-0.841,0.005-1.726,0.194-2.473,0.523
				c-0.415,0.182-0.784,0.556-1.065,0.902c-0.085,0.105-0.453,0.618-0.051,0.476c0.873-0.309,1.733-0.158,2.628-0.236
				c-0.602,1.045-1.201,2.089-1.813,3.139c-0.002,0-0.002-0.002-0.004-0.002c-0.974-0.102-1.95-0.065-2.927-0.088
				c-0.026-0.001-0.059,0.017-0.089,0.026C176.36,59.457,176.389,59.402,176.417,59.346z M175.681,60.794
				c0.746,0.112,1.492,0.211,2.224,0.403c0.21,0.055,0.529-0.217,0.784-0.474c-0.316,0.547-0.636,1.09-0.948,1.639
				c-0.758-0.276-1.922-0.067-2.547,0.135c-0.202,0.065-0.383,0.196-0.552,0.341C174.991,62.158,175.334,61.476,175.681,60.794z
				 M173.175,65.739c0.047,0.005,0.093-0.002,0.141,0.004c0.565,0.078,1.015,0.389,1.577,0.376c0.27-0.006,1.574-1.142,1.347-1.337
				c-0.568-0.487-1.658-0.395-2.461-0.245c0.145-0.283,0.287-0.567,0.432-0.85c0.347-0.041,0.682-0.041,1.038,0.013
				c0.558,0.084,0.971,0.401,1.512,0.397c-0.569,1.039-1.119,2.083-1.639,3.134c-0.835-0.194-1.852-0.05-2.602,0.141
				c-0.079,0.02-0.155,0.079-0.232,0.132C172.573,66.911,172.88,66.327,173.175,65.739z M171.952,68.22
				c0.846,0.055,1.611,0.425,2.447,0.471c-0.172,0.357-0.345,0.715-0.516,1.073c-0.287-0.066-0.594-0.084-0.878-0.128
				c-0.551-0.086-1.1-0.129-1.655-0.13C171.542,69.073,171.751,68.648,171.952,68.22z M170.833,70.722
				c0.281,0.066,0.558,0.146,0.837,0.234c0.461,0.146,0.874,0.353,1.36,0.3c0.037-0.004,0.101-0.037,0.174-0.082
				c-0.271,0.562-0.539,1.126-0.812,1.687c-0.578-0.178-1.152-0.359-1.774-0.23c-0.116,0.024-0.484,0.343-0.757,0.611
				C170.155,72.39,170.487,71.553,170.833,70.722z M168.785,75.318c0.301-0.261,0.568-0.548,0.622-0.725
				c0.094-0.31,0.206-0.613,0.308-0.92c0.631,0.253,1.28,0.428,1.884,0.746c-0.426,0.847-0.838,1.7-1.289,2.537
				C168.966,79.45,168.744,77.27,168.785,75.318z M158.317,47.089c1.446-0.058,2.861,0.197,4.284,0.421
				c-0.974,0.146-1.943,0.342-2.753,0.514c-0.027-0.02-0.043-0.046-0.071-0.065c0.002-0.029,0.003-0.059,0.005-0.088
				c0.003-0.038-0.056-0.027-0.139,0.005c-0.586-0.353-1.359-0.556-1.922-0.719c-0.001,0-0.002,0-0.002,0
				C157.906,47.125,158.099,47.097,158.317,47.089z M155.574,96.128c-0.126-0.839-0.149-1.708-0.117-2.597
				c0.359,0.213,0.682,0.498,1.067,0.633c0.096,0.033,0.271-0.041,0.466-0.166c0.008,0.74,0.021,1.479,0.036,2.217
				C156.536,96.211,156.045,96.195,155.574,96.128z M155.803,87.258c0.357,0.21,0.717,0.406,1.096,0.537
				c0.009,0.003,0.026-0.005,0.036-0.003c-0.002,0.372-0.001,0.743,0,1.115c-0.074-0.018-0.149-0.036-0.221-0.057
				c-0.308-0.086-0.614-0.181-0.92-0.272c0.009-0.254,0.016-0.507,0.016-0.76C155.811,87.63,155.803,87.445,155.803,87.258z
				 M155.774,85.096c-0.009-0.51-0.007-1.023-0.021-1.532c0.408,0.256,0.821,0.495,1.264,0.659
				c-0.019,0.441-0.028,0.883-0.043,1.324C156.574,85.374,156.168,85.229,155.774,85.096z M156.518,90.687
				c0.081,0.001,0.246-0.096,0.433-0.235c0.009,0.56,0.013,1.145,0.019,1.716c-0.467-0.12-0.983-0.171-1.424-0.206
				c0.039-0.488,0.081-0.979,0.123-1.472C155.955,90.601,156.241,90.685,156.518,90.687z M155.916,97.572
				c0.364,0.12,0.734,0.202,1.128,0.199c0.009,0,0.019-0.008,0.028-0.008c0.022,0.672,0.042,1.345,0.081,2.004
				C156.574,99.081,156.18,98.345,155.916,97.572z M157.103,82.316c-0.465-0.137-0.938-0.237-1.399-0.302
				c-0.028-0.901-0.056-1.802-0.087-2.701c0.074,0.038,0.15,0.069,0.223,0.115c0.398,0.247,0.719,0.593,1.17,0.737
				c0.05,0.016,0.119-0.005,0.195-0.041C157.174,80.854,157.139,81.585,157.103,82.316z M157.303,75.697
				c0.01,0.969-0.015,1.936-0.045,2.902c-0.557-0.141-1.148-0.186-1.668-0.111c-0.029-0.848-0.061-1.696-0.083-2.545
				c0.463-0.325,1.059-1.034,0.949-1.111c-0.319-0.225-0.652-0.396-0.972-0.595c-0.011-0.7-0.03-1.397-0.029-2.1
				c0.428,0.203,0.827,0.44,1.173,0.846c0.077,0.09,0.374-0.079,0.684-0.328C157.309,73.669,157.293,74.682,157.303,75.697z
				 M157.317,70.955c-0.49-0.224-1.063-0.342-1.528-0.512c-0.089-0.032-0.208,0.016-0.336,0.098c0.001-0.055-0.001-0.109,0-0.164
				c0.009-0.44-0.004-0.869-0.001-1.305c0.324,0.285,0.625,0.611,0.985,0.803c0.145,0.078,0.561-0.216,0.885-0.538
				C157.316,69.876,157.322,70.416,157.317,70.955z M157.34,68.147c-0.487-0.458-1.263-0.776-1.89-1.052
				c-0.004-0.469,0.006-0.945-0.001-1.412c0.275,0.192,0.548,0.385,0.823,0.606c0.154,0.124,0.812-0.438,1.108-0.814
				C157.363,66.366,157.354,67.257,157.34,68.147z M157.394,64.787c-0.345-0.577-1.318-0.787-1.972-0.961
				c-0.009-0.592-0.02-1.186-0.026-1.779c0.067,0.034,0.135,0.069,0.202,0.103c0.426,0.221,0.814,0.615,1.275,0.717
				c0.085,0.019,0.337-0.14,0.565-0.327C157.418,63.289,157.41,64.039,157.394,64.787z M157.46,61.599
				c-0.572-0.376-1.536-0.543-2.066-0.72c-0.002-0.539-0.007-1.077-0.001-1.618c0.348,0.176,0.69,0.368,1.02,0.621
				c0.22,0.169,0.786-0.427,1.109-0.851C157.493,59.885,157.485,60.743,157.46,61.599z M157.538,58.535
				c-0.655-0.332-1.372-0.618-2.105-0.734c0.014-0.439,0.012-0.874,0.035-1.316c0.429,0.232,0.822,0.573,1.285,0.706
				c0.136,0.039,0.529-0.24,0.838-0.531C157.564,57.284,157.561,57.911,157.538,58.535z M157.627,55.82
				c-0.555-0.381-1.366-0.576-2.063-0.715c0.021-0.274,0.035-0.546,0.061-0.821c0.032-0.341,0.021-0.73-0.004-1.135
				c0.607,0.293,1.156,0.697,1.786,0.952c0.077,0.031,0.186-0.022,0.297-0.095C157.673,54.61,157.655,55.215,157.627,55.82z
				 M157.768,52.761c-0.68-0.168-1.367-0.284-2.079-0.283c-0.03,0-0.071,0.029-0.112,0.057c-0.064-0.747-0.146-1.534-0.135-2.278
				c0.927,0.201,1.585,0.715,2.396,1.114C157.81,51.834,157.795,52.298,157.768,52.761z M157.947,49.486
				c-0.007,0.101-0.01,0.202-0.017,0.303c-0.545-0.154-1.124-0.227-1.63-0.252c-0.272-0.014-0.734,0.717-0.857,0.713
				c0.015-0.932,0.18-1.788,0.746-2.372c-0.006,0.017-0.022,0.035-0.025,0.051c-0.001,0.001-0.003,0.002-0.004,0.003
				c0.001,0,0.001,0.001,0.001,0.001c0.001,0.002-0.002,0.004-0.002,0.006l0.005-0.004c0.466,0.277,0.969,0.539,1.448,0.838
				c-0.022,0.014-0.048,0.037-0.062,0.034l0.159,0.032c0.137,0.088,0.272,0.178,0.402,0.274
				C158.023,49.244,157.955,49.372,157.947,49.486z M182.796,93.005c0.523,0.219,1.02,0.486,1.462,0.864
				c0.164,0.14,0.53-0.143,0.859-0.488c0.022,0.607,0.061,1.212,0.116,1.808c-0.613-0.006-1.331,0.193-1.693,0.327
				c-0.063,0.023-0.431,0.288-0.592,0.443C182.77,95.038,182.76,93.999,182.796,93.005z M183.496,78.006
				c0.583,0.098,1.118,0.273,1.669,0.478c0.006,0.227,0.006,0.453,0.011,0.68c-0.767-0.178-1.582-0.25-2.316-0.369
				c0.001-0.302,0.001-0.604,0.002-0.905C183.088,77.943,183.323,77.977,183.496,78.006z M182.865,77.175
				c0.003-0.746,0.005-1.493,0.007-2.238c1.059-1.652,2.083-2.751,2.158-0.954c0.043,1.035,0.06,2.059,0.092,3.088
				C184.36,77.009,183.574,77.053,182.865,77.175z M185.062,80.874c0.039,0.018,0.09,0.011,0.142-0.001
				c0.003,0.174,0.002,0.349,0.005,0.523c-0.757-0.151-1.582-0.155-2.353-0.236c0.001-0.444,0-0.887,0.002-1.331
				C183.588,80.189,184.33,80.531,185.062,80.874z M184.494,82.718c0.162,0.007,0.459-0.26,0.722-0.542
				c0.015,1.405,0.01,2.814-0.019,4.229c-0.288-0.039-0.578-0.068-0.829-0.127c-0.504-0.118-0.999-0.277-1.491-0.442
				c0-0.328-0.005-0.656-0.006-0.984c0.387,0.173,0.774,0.319,1.215,0.31c0.2-0.004,1.246-0.909,1.113-1.032
				c-0.377-0.35-0.935-0.374-1.427-0.46c-0.302-0.052-0.605-0.119-0.909-0.18c0-0.389-0.008-0.777-0.007-1.165
				C183.398,82.535,183.963,82.697,184.494,82.718z M182.902,89.901c0.574,0.372,1.224,0.73,1.76,0.619
				c0.08-0.016,0.248-0.113,0.435-0.242c-0.012,0.611-0.015,1.245-0.009,1.884c-0.711-0.28-1.467-0.414-2.23-0.51
				c0.029-0.539,0.054-1.048,0.046-1.463C182.902,90.093,182.904,89.997,182.902,89.901z M184.685,88.806
				c-0.503-0.11-1.008-0.203-1.513-0.302c-0.062-0.012-0.163,0.039-0.278,0.122c-0.001-0.431-0.007-0.861-0.008-1.292
				c0.664,0.426,1.385,0.77,2.047,0.673c0.044-0.007,0.131-0.058,0.231-0.124c-0.01,0.316-0.022,0.658-0.032,0.997
				C184.978,88.856,184.823,88.836,184.685,88.806z M183.693,96.347c0.431,0.117,0.843,0.364,1.279,0.406
				c0.078,0.008,0.244-0.087,0.428-0.219c0.063,0.411,0.153,0.797,0.24,1.185c-0.397,0.048-0.792,0.113-1.188,0.162
				c-0.101,0.012-0.236,0.159-0.359,0.291c-0.02-0.017-0.042-0.031-0.062-0.048c-0.554-0.478-0.867-1.19-1.045-2.003
				C183.182,96.249,183.473,96.287,183.693,96.347z M184.483,98.476c0.472,0.071,0.938,0.152,1.409,0.286
				c0.01,0.003,0.024-0.006,0.035-0.005c0.105,0.331,0.201,0.672,0.336,0.97C185.651,99.345,185.059,98.93,184.483,98.476z
				 M194.78,73.329c0.029,7.994-0.257,15.949-0.392,23.941c-0.045,2.641-1.866,2.462-4.047,2.571
				c-4.068,0.203-3.247-9.105-3.382-11.793c-0.287-5.703,1.741-13.692-0.675-18.995c-0.078-0.044-0.158-0.043-0.241,0.002
				c-2.044,0.82-2.981,2.824-3.865,4.747c-1.908,4.154-4.241,8.148-6.282,12.243c-1.742,3.498-8.873,13.815-13.449,14.108
				c-5.015,0.321-2.903-4.763-3.119-7.936c-0.356-5.222-0.52-10.093-0.245-15.355c0.483-9.246,0.065-18.469,0.626-27.665
				c0.159-0.149,0.306-0.307,0.407-0.448c2.457,0.034,5.239-1.268,6.539,1.517c1.755,3.76,1.007,9.559,1.053,13.683
				c0.043,3.8,0.052,7.84-0.486,11.603c-0.241,1.685-0.623,3.293,0.027,4.902l0.078,0.023c3.925,0.403,6.996-9.31,8.125-11.75
				c2.332-5.043,5.547-9.824,8.138-14.779c2.545-4.867,4.759-2.983,8.559-3.712c4.711-0.904,3.185,4.695,2.618,7.241
				C193.617,62.643,194.761,68.119,194.78,73.329z"/>
			<path d="M180.598,52.374c-0.381,0.07-0.749,0.469-0.999,0.736c-0.028,0.03-0.592,0.701-0.323,0.676
				c0.656-0.062,1.29,0.067,1.94,0.045c0.399-0.013,1.589-1.438,1.447-1.482C182.009,52.148,181.264,52.252,180.598,52.374z"/>
			<path d="M188.514,33.118c-0.35-0.097-0.798-0.163-1.289-0.195c-1.874-0.713-4.001-2.013-5.821-1.219
				c-2.86,1.248-3.147,5.275-6.734,5.636c-0.076,0.008-0.159,0.049-0.243,0.103c-1.458-0.911-1.931-2.971-3.1-4.156
				c-0.344-0.349-1.029-0.401-1.789-0.334c-2.118-0.715-4.578-2.409-6.674-1.059c-1.539,0.992-1.638,2.829-1.762,4.524
				c-0.228,3.124,2.882,6.562,5.275,8.109c2.898,1.873,7.115,2.37,10.466,2.654c0.139,0.012,0.346-0.158,0.548-0.368
				c1.524-0.077,3.105-0.415,4.71-1.048C184.853,44.677,194.221,34.7,188.514,33.118z M178.701,35.249
				c1.547-2.054,2.093-2.817,4.792-2.041c0.125,0.036,0.236,0.064,0.356,0.099c-0.484,0.17-0.906,0.396-1.21,0.691
				c-0.088,0.085-0.19,0.177-0.295,0.272c-0.183-0.117-0.366-0.234-0.551-0.349c-0.503-0.311-0.616-0.543-1.238-0.36
				c-0.168,0.049-1.243,0.836-1.091,1.005c0.339,0.378,0.922,0.163,1.391,0.184c0.315,0.014,0.629,0.048,0.944,0.086
				c-0.067,0.088-0.129,0.177-0.172,0.269c-0.352,0.751-0.789,1.37-1.285,1.872c-0.291-0.162-0.597-0.291-0.898-0.438
				c-0.397-0.193-0.748-0.452-1.177-0.563c-0.061-0.016-0.135,0.005-0.214,0.041C178.288,35.766,178.506,35.508,178.701,35.249z
				 M177.175,36.844c-0.159,0.203-0.266,0.366-0.25,0.372c0.844,0.344,1.962,0.34,2.898,0.233c-1.16,0.878-2.615,1.116-4.277,0.516
				C176.124,37.66,176.671,37.271,177.175,36.844z M162.706,33.341c0.267-1.261,2.615-0.503,4.594,0.009
				c-0.329,0.074-0.623,0.14-0.824,0.171c-0.286,0.043-0.54,0.103-0.78,0.173c-0.759-0.235-1.537-0.459-2.343-0.426
				c-0.204,0.008-0.518,0.371-0.723,0.62C162.654,33.705,162.667,33.524,162.706,33.341z M162.597,34.121
				c0.735,0.031,1.476-0.021,2.215-0.043c-0.195,0.12-0.382,0.256-0.558,0.423c-0.17,0.147-0.315,0.299-0.416,0.444
				c-0.003,0.004-0.007,0.006-0.01,0.01c-0.009,0.007-0.009,0.018-0.014,0.026c-0.074,0.115-0.124,0.223-0.107,0.306
				c0.047,0.229,0.13,0.435,0.185,0.659c-0.002-0.001-0.002-0.003-0.004-0.004c-0.322-0.179-0.422-0.223-0.777-0.138
				c-0.086,0.02-0.267,0.125-0.464,0.262C162.552,35.43,162.529,34.779,162.597,34.121z M164.328,40.054
				c-0.583-0.824-1.048-1.714-1.352-2.65c0.006,0,0.014,0,0.021,0c0.447-0.027,0.876,0.01,1.313,0.021
				c0.258,0.745,0.578,1.442,0.925,2.114c-0.085,0.006-0.163,0-0.258,0.025C164.883,39.59,164.6,39.811,164.328,40.054z
				 M165.101,41.038c-0.074-0.083-0.138-0.173-0.209-0.259c0.309-0.063,0.611-0.153,0.894-0.232
				c0.633,1.028,1.369,1.955,2.204,2.755C166.954,42.749,165.982,42.027,165.101,41.038z M188.56,37.04
				c-0.314,4.088-4.768,7.664-8.611,7.875c-7.171,0.393-12.71-3.542-14.553-10.455c1.289-0.352,4.439-0.253,4.795-0.173
				c1.883,0.426,1.728,4.565,4.196,5.108c2.925,0.644,5.795-0.279,7.565-2.682c0.18-0.244,0.302-0.77,0.366-0.956
				c0.585-1.711,2.056-1.21,3.649-1.296C188.17,34.342,188.708,35.114,188.56,37.04z"/>
		</g>
		<g>
			<path d="M264.626,79.203c-2.182-6.289-8.228-9.362-14.482-10.622c-2.467-0.497-5.206-0.184-7.704-0.154
				c-2.371,0.028-3.723,0.504-3.381-1.977c0.287-2.078,0.006-3.544-0.21-5.662c-0.353-3.461,5.515-2.475,7.485-2.344
				c5.627,0.377,19.622,3.15,17.099-6.612c-0.088-0.339-0.724-1.063-1.125-1.299c-0.126-0.216-0.282-0.414-0.468-0.579
				c-0.108-0.112-0.217-0.191-0.326-0.239c-0.007-0.004-0.012-0.01-0.019-0.013c-1.605-0.918-2.962-2.193-4.456-3.274
				c-0.232-0.466-0.582-0.938-0.905-1.007c-5.546-1.174-11.427-0.53-17.049-1.155c-4.497-0.5-9.798-1.651-13.642,1.476
				c-0.141,0.114-0.14,0.332-0.068,0.578c-0.087-0.008-0.161,0.012-0.202,0.101c-3.185,6.993-1.998,17.894-1.005,25.328
				c0.683,5.11,0.697,10.01,0.837,15.137c0.08,2.926-0.208,6.122,0.703,8.938c-0.313,0.183,0.342,1.539,0.744,1.778
				c1.784,1.061,3.699,1.827,5.575,2.704c0.19,0.089,0.285,0.033,0.328-0.077c0.021,0.008,0.037,0.023,0.059,0.03
				c3.963,1.349,9.092,0.284,13.239,0.367c4.849,0.097,8.913-0.626,12.969-3.351C264.187,93.538,266.828,85.55,264.626,79.203z
				 M256.327,47.261c0.124,0.152,0.258,0.292,0.407,0.389c0.924,0.602,1.781,1.29,2.645,1.967c-0.634-0.015-1.267-0.048-1.901-0.072
				c-0.538-0.893-1.229-1.653-1.954-2.398C255.792,47.187,256.061,47.214,256.327,47.261z M254.085,46.957
				c0.085,0.132,0.172,0.251,0.249,0.334c0.668,0.722,1.488,1.396,2.064,2.214c-0.859-0.039-1.717-0.099-2.576-0.147
				c-0.59-0.831-1.133-1.696-1.687-2.551C252.787,46.844,253.437,46.89,254.085,46.957z M251.045,46.755
				c0.046,0.081,0.089,0.151,0.118,0.193c0.518,0.782,1.027,1.568,1.548,2.345c-0.733-0.044-1.466-0.088-2.199-0.134
				c-0.147-0.212-0.318-0.401-0.51-0.513c-0.4-0.233-0.448-0.388-0.641-0.811c-0.182-0.401-0.393-0.775-0.622-1.14
				C249.509,46.71,250.278,46.725,251.045,46.755z M247.678,46.672c0.1,0.162,0.207,0.314,0.291,0.426
				c0.296,0.39,0.43,0.948,0.671,1.377c0.115,0.204,0.242,0.402,0.378,0.593c-0.917-0.058-1.834-0.112-2.75-0.168
				c-0.613-0.659-1.122-1.375-1.533-2.182c-0.018-0.035-0.047-0.081-0.069-0.12C245.669,46.634,246.673,46.655,247.678,46.672z
				 M240.109,46.247c1.162,0.16,2.335,0.25,3.512,0.309c0.023,0.055,0.045,0.103,0.058,0.129c0.385,0.757,0.831,1.466,1.329,2.139
				c-0.267-0.016-0.533-0.034-0.8-0.049c-0.902-0.05-1.906-0.124-2.959-0.189c-0.62-0.879-1.297-1.76-2.097-2.473
				C239.474,46.158,239.794,46.204,240.109,46.247z M237.844,45.931c0.133,0.467,0.458,0.982,0.856,1.237
				c0.536,0.342,0.982,0.83,1.388,1.353c-1.402-0.071-2.866-0.106-4.295-0.04c-0.277-0.493-0.649-0.941-1.054-1.33
				c-0.601-0.579-1.35-0.987-1.976-1.532C234.446,45.543,236.175,45.708,237.844,45.931z M231.769,45.692
				c0.121,0.392,0.408,0.754,0.67,1.032c0.431,0.455,0.953,0.814,1.461,1.176c0.243,0.173,0.491,0.345,0.718,0.539
				c0.042,0.035,0.081,0.077,0.123,0.116c-1.941,0.167-3.773,0.558-5.236,1.365c-0.018,0.01-0.031,0.03-0.048,0.041
				c-0.936-0.732-1.925-1.424-2.668-2.358C228.264,46.431,229.974,45.892,231.769,45.692z M226.278,85.408
				c0.052-0.96,0.106-1.919,0.138-2.867c0.246,0.288,0.529,0.488,0.776,0.415c0.868-0.257,1.784-0.232,2.69-0.194
				c-0.044,0.832-0.185,2.038-0.33,3.426C228.511,85.7,227.39,85.637,226.278,85.408z M229.401,87.717
				c-0.079,0.874-0.147,1.79-0.187,2.714c-1.026-0.105-2.057-0.1-3.087-0.141c-0.012-1.05,0.017-2.113,0.067-3.182
				C227.209,87.426,228.367,87.421,229.401,87.717z M226.104,76.383c-0.158-1.062-0.321-2.18-0.483-3.362
				c0.175,0.241,0.364,0.432,0.525,0.478c1.149,0.327,2.29,0.661,3.391,1.117c0.046,0.523,0.087,1.046,0.128,1.569
				c-0.125-0.064-0.249-0.1-0.363-0.063C228.278,76.457,227.172,76.398,226.104,76.383z M226.193,92.251
				c0.133,0.118,0.268,0.097,0.395,0.105c0.865,0.057,1.732,0.222,2.596,0.258c0.004,0.507,0.022,1.667,0.054,1.667h-2.841
				C226.306,92.281,226.235,92.862,226.193,92.251z M226.444,80.934c0.002-0.995-0.028-1.975-0.125-2.926
				c0.184,0.205,0.381,0.349,0.559,0.35c0.982,0.005,1.964,0.038,2.925-0.137c0.049,0.864,0.076,1.729,0.09,2.594
				C228.731,80.803,227.579,80.711,226.444,80.934z M226.413,48.593c0.68,0.858,1.506,1.559,2.357,2.233
				c-0.379,0.858-0.518,2.164-0.531,3.61c-0.982-0.642-1.993-1.237-2.998-1.843C225.524,51.171,225.9,49.819,226.413,48.593z
				 M225.011,53.875c0.09,0.092,0.185,0.175,0.285,0.236c0.99,0.605,1.991,1.191,2.969,1.813c0.052,1.323,0.173,2.669,0.288,3.852
				c-1.209-0.846-2.56-1.42-3.915-1.995C224.703,56.444,224.819,55.133,225.011,53.875z M224.594,59.124
				c0.165,0.211,0.362,0.392,0.587,0.488c1.21,0.515,2.425,1.01,3.524,1.729c0.067,0.708,0.114,1.287,0.108,1.631
				c-0.01,0.548,0.003,1.098,0.013,1.647c-1.354-0.647-2.782-1.112-4.174-1.667C224.598,61.669,224.569,60.387,224.594,59.124z
				 M225.009,67.898c-0.108-1.09-0.201-2.197-0.272-3.309c0.02,0.01,0.038,0.028,0.058,0.037c1.344,0.573,2.737,1.023,4.078,1.6
				c0.04,0.904,0.103,1.81,0.172,2.716c-0.066-0.031-0.129-0.07-0.2-0.085C227.554,68.586,226.294,68.194,225.009,67.898z
				 M225.183,69.542c0.133,0.108,0.276,0.198,0.441,0.233c1.198,0.252,2.372,0.602,3.561,0.89c0.067,0.765,0.138,1.53,0.208,2.296
				c-1.273-0.592-2.614-0.982-3.962-1.366C225.345,70.923,225.262,70.238,225.183,69.542z M226.991,97.109
				c-0.062-0.185-0.109,0.172-0.163,0.172h2.664c0.136,0,0.311,1.059,0.57,1.659C229.024,98.48,227.995,97.637,226.991,97.109z
				 M262.902,88.271c-2.74,8.88-12.491,10.492-20.328,10.336c-3.452-0.069-11.246,2.047-11.375-3.81
				c-0.113-5.129,0.186-10.268,0.227-15.397c0.039-4.844-4.277-27.07,1.044-28.14c2.996-0.603,6.051-0.798,9.13-0.784
				c0.152,0.111,0.309,0.166,0.442,0.078c0.028-0.019,0.043-0.046,0.061-0.071c1.509,0.018,3.023,0.079,4.54,0.172
				c0.174,0.105,0.375,0.163,0.465,0.027c5.057,0.326,10.127,0.921,15.062,0.961c1.065,8.075-16.345,4.547-21.33,4.729
				c-1.069,0.039-3.175,0.393-3.324,1.758c-0.12,1.092-0.121,1.81,0.036,2.921c0.368,2.608-0.369,4.008-0.378,6.539
				c-0.01,3.144,4.331,2.765,6.287,2.816c4.385,0.116,8.092-0.111,12.312,1.5C263.024,74.672,265.012,81.434,262.902,88.271z"/>
			<path d="M253.346,77.501c-1.823-1.095-4.19-1.086-6.232-1.149c-3.117-0.097-6.534-0.642-9.59,0.027
				c-0.337,0.074-0.246,0.566,0,1.042c-0.183,1.946-0.657,3.408-0.61,5.384c0.024,0.984,0.299,2.477,0.42,2.477h-0.003
				c-0.344,0-0.228,1.002,0.049,1.51c-0.042,1.216-0.335,2.599-0.273,3.841c0.009,0.173,0.145,0.535,0.325,0.794
				c0.252,0.51,0.68,1.076,1.017,1.055c3.805-0.239,7.274,0.814,11.122-0.248c3.312-0.914,7.169-2.886,7.548-6.754
				C257.444,82.177,256.226,79.231,253.346,77.501z M254.11,79.85c-0.558-0.075-1.108-0.177-1.665-0.203
				c-0.096-0.319-0.214-0.629-0.366-0.924C252.907,78.964,253.573,79.362,254.11,79.85z M239.052,78.273
				c3.616-0.657,7.929-0.069,11.549,0.181c0.074,0.005,0.138,0.021,0.21,0.028c0.048,0.063,0.096,0.12,0.144,0.161
				c1.593,1.388-0.747,5.762-2.076,6.543c-2.782,1.635-6.865,0.811-10.19,0.854C238.359,83.32,238.899,80.967,239.052,78.273z
				 M238.611,90.517c0.056-0.82,0.139-1.633,0.168-2.453c0.436-0.032,0.902-0.039,1.383-0.036c0.269,0.729,0.489,1.469,0.634,2.242
				c0.019,0.099,0.056,0.2,0.095,0.3C240.121,90.536,239.358,90.511,238.611,90.517z M242.061,90.624
				c-0.199-0.879-0.455-1.742-0.807-2.574c0.71,0.024,1.446,0.061,2.187,0.084c0.469,0.529,0.576,1.439,0.8,2.079
				c0.056,0.159,0.145,0.329,0.248,0.495C243.681,90.698,242.869,90.662,242.061,90.624z M245.506,90.702
				c-0.305-0.874-0.567-1.752-0.979-2.549c0.813,0.004,1.615-0.031,2.385-0.125c0.239,0.484,0.394,1.014,0.607,1.51
				c0.134,0.313,0.331,0.666,0.593,0.929C247.26,90.609,246.39,90.683,245.506,90.702z M248.87,90.325
				c-0.015-0.094-0.04-0.182-0.067-0.246c-0.319-0.741-0.578-1.495-0.94-2.205c0.68-0.144,1.317-0.361,1.896-0.667
				c0.504,0.544,0.829,1.26,1.212,1.885c0.049,0.079,0.154,0.23,0.285,0.377C250.491,89.858,249.693,90.136,248.87,90.325z
				 M251.97,89.064c-0.089-0.198-0.2-0.379-0.254-0.466c-0.392-0.639-0.76-1.283-1.189-1.883c0.231-0.18,0.446-0.385,0.647-0.61
				c0.109,0.124,0.226,0.235,0.353,0.313c0.694,0.426,1.34,0.918,1.997,1.395C253.028,88.301,252.511,88.722,251.97,89.064z
				 M254.242,87.029c-0.14-0.19-0.3-0.362-0.478-0.483c-0.657-0.445-1.289-0.924-1.939-1.376c0.191-0.348,0.343-0.722,0.476-1.105
				c0.078,0.044,0.155,0.077,0.229,0.079c0.938,0.024,1.807,0.326,2.644,0.734c0.072,0.035,0.127,0.044,0.174,0.042
				C255.123,85.642,254.762,86.359,254.242,87.029z M255.496,84.337c-0.012-0.054-0.026-0.104-0.039-0.14
				c-0.179-0.477-0.529-0.993-1-1.222c-0.565-0.275-1.161-0.497-1.774-0.641c0.025-0.241,0.027-0.483,0.029-0.724
				c0.035,0.007,0.073,0.03,0.107,0.027c0.783-0.072,1.542,0.089,2.314,0.193c0.129,0.017,0.188-0.046,0.21-0.143
				C255.626,82.507,255.679,83.418,255.496,84.337z"/>
			<path d="M308.589,80.964c-0.166-7.969-1.177-16.432,0.237-24.317c0.423-2.358,0.625-5.557-1.648-7.165
				c-0.241-0.17-0.511-0.313-0.793-0.442c-1.539-1.833-2.85-3.249-5.221-3.976c-3.493-1.071-8.682-0.688-12.361-0.838
				c-4.94-0.201-13.031-1.459-13.814,4.898c-1.13,9.165,0.421,18.585-1.431,27.692c-1.495,7.353-9.212,9.517-7.978,17.504
				c0.025,0.16,0.164,0.403,0.345,0.643c-0.05,0.953,0.072,1.877,0.417,2.543c1.322,2.559,3.932,2.338,6.493,2.205
				c5.102-0.264,8.621-1.638,10.404-6.706c2.404-6.836,3.188-14.867,3.522-22.048c0.092-1.975-1.255-11.588,1.782-12.121
				c0.353-0.062,3.765-0.081,6.654-0.047c0.735,1.374,0.179,3.819,0.238,5.287c0.103,2.578,0.345,5.022,0.187,7.612
				c-0.371,6.084,0.293,12.028-0.159,18.152c-0.344,4.654-1.338,9.897,4.169,11.337c0.3,0.078,0.363-0.122,0.304-0.414
				c0.21,0.178,0.447,0.301,0.717,0.355c2.783,0.559,6.802,0.426,7.841-2.524c0.57-1.618,0.286-3.713,0.221-5.391
				C308.554,89.13,308.674,85.039,308.589,80.964z M303.865,48.388c-1.257-0.153-2.647-0.138-4.035-0.058
				c-0.078-0.061-0.155-0.122-0.241-0.169c-0.32-0.174-0.488-0.498-0.662-0.804c-0.161-0.282-0.323-0.56-0.492-0.833
				C300.472,46.923,302.346,47.519,303.865,48.388z M297.221,46.312c0.078,0.115,0.155,0.22,0.219,0.303
				c0.392,0.51,0.653,1.127,1.004,1.666c0.032,0.048,0.068,0.092,0.101,0.139c-0.607,0.05-1.199,0.107-1.778,0.164
				c-0.92-0.401-1.529-1.74-2.011-2.558C295.59,46.099,296.416,46.188,297.221,46.312z M293.707,45.954
				c0.092,0.215,0.216,0.418,0.273,0.512c0.464,0.773,0.951,1.525,1.496,2.243c-0.568,0.054-1.089,0.093-1.582,0.123
				c-0.436-0.213-0.672-0.792-0.897-1.193c-0.34-0.606-0.684-1.202-1.086-1.766C292.51,45.89,293.109,45.916,293.707,45.954z
				 M290.908,45.859c0.117,0.29,0.317,0.572,0.457,0.756c0.526,0.689,0.906,1.504,1.365,2.252c-0.421-0.011-0.983-0.043-1.632-0.083
				c-0.041-0.056-0.085-0.119-0.121-0.164c-0.398-0.513-0.637-1.161-0.934-1.733c-0.185-0.356-0.392-0.698-0.621-1.025
				C289.914,45.856,290.409,45.854,290.908,45.859z M288.258,45.888c0.099,0.13,0.202,0.252,0.306,0.353
				c0.381,0.369,0.583,0.923,0.815,1.391c0.186,0.374,0.387,0.735,0.605,1.086c-0.656-0.039-1.371-0.076-2.109-0.104
				c-0.058-0.068-0.116-0.137-0.173-0.197c-0.619-0.642-0.984-1.501-1.403-2.276c-0.025-0.046-0.062-0.105-0.093-0.159
				C286.872,45.941,287.558,45.909,288.258,45.888z M285.217,46.053c0.009,0.019,0.019,0.041,0.026,0.053
				c0.462,0.855,0.923,1.69,1.468,2.473c-0.647-0.013-1.3-0.012-1.943,0.004c-0.494-0.673-0.867-1.415-1.266-2.154
				c-0.034-0.063-0.081-0.141-0.127-0.218C283.964,46.154,284.576,46.1,285.217,46.053z M281.046,46.481
				c0.419-0.058,0.881-0.114,1.36-0.168c0.016,0.034,0.03,0.064,0.04,0.082c0.409,0.757,0.814,1.511,1.271,2.231
				c-0.557,0.034-1.088,0.091-1.595,0.163c-0.028-0.015-0.058-0.043-0.084-0.05c-0.918-0.257-1.274-1.358-1.68-2.14
				C280.575,46.555,280.802,46.514,281.046,46.481z M279.448,46.844c0.371,0.713,0.778,1.519,1.289,2.222
				c-0.621,0.17-1.146,0.395-1.543,0.685c-0.228-0.318-0.441-0.646-0.61-1.007c-0.134-0.287-0.45-0.754-0.806-0.925
				C278.192,47.415,278.728,47.085,279.448,46.844z M277.369,48.293c0.052,0.181,0.128,0.352,0.158,0.417
				c0.288,0.618,0.662,1.179,1.058,1.726c-0.086,0.167-0.15,0.344-0.173,0.54c-0.106,0.905-0.197,1.811-0.278,2.717
				c-0.018-0.01-0.034-0.026-0.052-0.035c-0.453-0.223-0.631-0.623-0.85-1.057c-0.142-0.28-0.438-0.738-0.785-0.918
				C276.552,50.298,276.761,49.156,277.369,48.293z M276.379,52.932c0.432,0.801,0.949,1.561,1.651,2.125
				c-0.057,0.742-0.09,1.484-0.135,2.227c-0.033-0.018-0.069-0.05-0.101-0.057c-0.661-0.167-0.874-0.665-1.139-1.249
				c-0.071-0.156-0.203-0.369-0.361-0.561C276.322,54.588,276.345,53.76,276.379,52.932z M276.235,57.141
				c0.411,0.667,0.93,1.291,1.566,1.674c-0.054,1.058-0.096,2.118-0.134,3.177c-0.546-0.429-1.037-0.916-1.525-1.413
				C276.173,59.434,276.201,58.287,276.235,57.141z M276.066,63.405c0.012-0.488,0.027-0.976,0.039-1.464
				c0.489,0.495,0.989,0.972,1.516,1.42c-0.038,1.177-0.067,2.355-0.098,3.533c-0.045-0.039-0.086-0.084-0.133-0.118
				c-0.328-0.238-0.536-0.619-0.735-0.964c-0.132-0.229-0.346-0.581-0.609-0.802C276.05,64.471,276.054,63.932,276.066,63.405z
				 M276.039,66.514c0.403,0.642,0.868,1.239,1.447,1.729c-0.027,1.026-0.058,2.052-0.087,3.078
				c-0.495-0.431-0.832-0.973-1.129-1.555c-0.058-0.113-0.146-0.256-0.246-0.401C276.035,68.409,276.038,67.455,276.039,66.514z
				 M275.985,71.029c0.398,0.591,0.853,1.136,1.375,1.629c-0.005,0.149-0.008,0.298-0.013,0.447
				c-0.027,0.814-0.075,1.616-0.135,2.412c-0.371-0.651-0.829-1.25-1.388-1.754C275.904,72.857,275.955,71.944,275.985,71.029z
				 M275.692,75.027c0.016,0.015,0.031,0.035,0.046,0.049c0.323,0.281,0.553,0.563,0.711,0.962c0.13,0.326,0.344,0.701,0.626,0.965
				c-0.123,1.144-0.299,2.273-0.515,3.398c-0.358-0.931-0.825-1.814-1.33-2.681C275.43,76.838,275.581,75.938,275.692,75.027z
				 M274.542,80.109c0.133-0.368,0.251-0.742,0.361-1.119c0.248,0.496,0.466,1.007,0.609,1.54c0.124,0.46,0.391,0.917,0.759,1.235
				c-0.195,0.844-0.426,1.687-0.684,2.53c-0.047-0.065-0.096-0.135-0.136-0.187c-0.466-0.615-0.973-1.199-1.303-1.901
				c-0.067-0.143-0.185-0.332-0.324-0.51C274.097,81.187,274.342,80.66,274.542,80.109z M273.303,82.563
				c0.493,0.905,1.143,1.709,1.765,2.53c0.031,0.041,0.103,0.12,0.193,0.203c-0.281,0.787-0.622,1.447-1,2.04
				c-0.106-0.119-0.22-0.226-0.342-0.309c-0.006-0.005-0.008-0.006-0.014-0.01c-0.016-0.032-0.035-0.06-0.048-0.09
				c-0.115-0.265-0.205-0.541-0.299-0.813c-0.188-0.544-0.379-1.09-0.663-1.593c-0.106-0.187-0.268-0.457-0.467-0.673
				C272.732,83.429,273.029,83.003,273.303,82.563z M271.882,84.579c0.326,0.618,0.481,1.322,0.758,1.962
				c0.252,0.583,0.581,1.153,1.013,1.626c-0.368,0.442-0.774,0.826-1.213,1.172c-0.105-0.091-0.217-0.16-0.335-0.192
				c-0.986-0.269-1.386-1.387-1.958-2.145c-0.018-0.024-0.053-0.063-0.094-0.106C270.652,86.128,271.279,85.364,271.882,84.579z
				 M269.505,87.615c0.091,0.141,0.184,0.272,0.259,0.372c0.329,0.436,0.763,1.182,1.179,1.698c0.115,0.142,0.24,0.281,0.371,0.415
				c-0.956,0.555-2.043,0.998-3.272,1.421c-0.207-0.226-0.422-0.385-0.584-0.401C267.933,89.874,268.672,88.733,269.505,87.615z
				 M298.568,93.737c-0.713-0.02-1.358-0.235-1.973-0.565c0.048-0.577,0.115-1.146,0.186-1.685c0.541,0.544,1.161,1.02,1.857,1.315
				c-0.017,0.318-0.031,0.633-0.041,0.945C298.587,93.746,298.577,93.738,298.568,93.737z M297.921,84.108
				c-0.099-0.115-0.558-0.603-0.797-0.485c-0.027-0.65-0.059-1.298-0.091-1.946c0.734,0.678,1.701,0.977,2.665,1.2
				c-0.064,0.589-0.162,1.344-0.272,2.195c-0.043-0.022-0.082-0.06-0.126-0.072C298.744,84.838,298.297,84.546,297.921,84.108z
				 M299.235,86.566c-0.064,0.515-0.129,1.053-0.193,1.605c-0.029-0.006-0.061-0.028-0.089-0.027
				c-0.774,0.022-1.13-1.122-1.527-1.668c-0.049-0.067-0.141-0.196-0.251-0.327c-0.003-0.544-0.006-1.087-0.023-1.629
				c0.116,0.227,0.267,0.438,0.384,0.574C298.025,85.66,298.582,86.199,299.235,86.566z M297.097,88.987
				c0.032-0.437,0.037-0.871,0.051-1.307c0.472,0.754,1.012,1.63,1.723,2.102c-0.043,0.438-0.084,0.881-0.12,1.324
				c-0.671-0.07-1.324-0.362-1.802-0.844C297.015,89.779,297.071,89.342,297.097,88.987z M299.146,81.008
				c-0.69-0.153-1.633-0.294-2.185-0.792c-0.045-0.999-0.079-1.998-0.08-2.998c0.851,0.814,1.851,1.399,2.874,1.96
				c0.008,0.744,0.008,1.492,0.021,2.233C299.601,81.217,299.392,81.062,299.146,81.008z M299.589,77.574
				c-0.936-0.508-1.901-0.996-2.681-1.733c0.01-0.297,0.013-0.593,0.031-0.89c0.036-0.59,0.05-1.172,0.068-1.754
				c0.789,0.833,1.729,1.467,2.713,2.037c0.001,0.821,0.018,1.63,0.023,2.449C299.691,77.645,299.644,77.604,299.589,77.574z
				 M299.599,73.716c-0.96-0.526-1.843-1.097-2.605-1.89c0.006-0.635,0.032-1.269,0.023-1.9c0.088,0.072,0.103,0.141,0.202,0.197
				c0.808,0.459,0.327,0.998,2.327,1.398c0,0.741,0,1.479,0,2.219C299.546,73.733,299.611,73.723,299.599,73.716z M299.299,69.763
				c-0.814-0.342-1.543-0.842-2.295-1.3c-0.029-1.081-0.067-2.163-0.111-3.256c0.045,0.031,0.086,0.068,0.133,0.095
				c0.871,0.496,1.842,0.875,2.65,1.479c0.021,1.092,0.029,2.186,0.035,3.28C299.585,69.936,299.451,69.826,299.299,69.763z
				 M296.831,63.679c-0.002-0.057-0.005-0.113-0.007-0.17c-0.034-0.854,0.03-1.549,0.032-2.208c0.112,0.103,0.232,0.189,0.363,0.239
				c0.799,0.305,1.54,0.739,2.325,1.071c0.046,0.906,0.06,1.82,0.086,2.731C298.761,64.673,297.795,64.194,296.831,63.679z
				 M296.628,59.691c-0.091-0.284-0.206-0.574-0.381-0.887c1.715,0.03,3.043,0.082,3.05,0.159c0.06,0.654,0.102,1.313,0.147,1.972
				C298.464,60.616,297.581,60.074,296.628,59.691z M298.914,99.272c-1.915-0.501-2.396-2.493-2.385-4.669
				c0.044,0.035,0.084,0.08,0.13,0.108c0.613,0.374,1.246,0.676,1.923,0.849c0.029,1.496,0.178,2.83,0.515,3.818
				C299.034,99.331,298.971,99.287,298.914,99.272z M307.12,79.559c0.15,5.36,0.372,10.829,0.123,16.187
				c-0.166,3.566-2.384,3.202-4.925,3.447c-2.706,0.261-2.048-0.489-1.95-2.944c0.174-4.399,0.898-8.69,0.881-13.12
				c-0.023-5.951-0.348-11.904-0.396-17.858c-0.059-7.291-0.2-8.475-7.783-8.372c-2.294,0.031-6.935-1.347-7.456,1.926
				c-1.022,6.415-0.26,13.054-1.116,19.552c-0.694,5.267-1.351,14.002-5.811,17.667c-1.879,1.544-4.572,1.594-6.876,1.689
				c-2.712,0.112-6.227-1.42-3.475-4.403c0.205,0.187,0.421,0.298,0.612,0.233c5.051-1.696,6.629-3.239,8.35-8.345
				c1.613-4.786,1.516-9.95,1.642-14.93c0.027-1.07-0.113-3.502-0.153-6.286c0.081-0.072,0.119-0.205,0.076-0.404
				c-0.018-0.085-0.053-0.17-0.084-0.256c-0.044-5.299,0.331-11.556,2.873-12.18c2.481-0.61,5.597-0.081,8.149-0.185
				c3.614-0.147,7.232-0.187,10.849-0.201c1.678-0.006,3.323-0.26,5.008-0.216c3.16,0.082,1.261,7.723,1.198,9.636
				C306.646,66.646,306.939,73.112,307.12,79.559z"/>
			<path d="M390.466,52.184c-0.21-1.193-0.563-1.974-1.089-2.473c-0.164-0.258-0.373-0.49-0.603-0.679
				c-0.745-0.61-1.628-0.989-2.411-1.543c-0.754-0.533-1.302-1.3-2.042-1.862c-0.254-0.424-0.601-0.798-0.889-0.783
				c-5.469,0.283-10.849-0.338-16.298,0.424c-3.504,0.491-7.574-0.459-10.844,0.988c-0.221-0.152-0.427-0.204-0.541-0.028
				c-3.124,4.805-0.871,14.417-0.531,19.635c0.616,9.461-0.604,19.497,0.9,28.818c-0.006,0.063-0.01,0.129,0.015,0.216
				c0.25,0.85,0.685,1.538,1.291,2.18c0.313,0.332,0.977,0.714,1.168,0.981c0.131,0.183,0.56,0.797,0.9,0.745
				c0.231,0.539,0.672,1.143,1.045,1.155c1.13,0.034,5.726,1.144,6.776,0.451c1.454-0.961,0.919-4.188,0.873-5.559
				c-0.328-9.895-0.089-19.825-0.253-29.726c-0.059-3.583-1.143-7.355,3.561-7.718c3.197-0.246,6.667,0.367,9.846,0.602
				C387.13,58.436,391.687,59.116,390.466,52.184z M384.174,46.831c0.131,0.165,0.274,0.318,0.434,0.433
				c0.686,0.495,1.206,1.185,1.854,1.731c-0.312,0.019-0.64,0.05-0.994,0.094c-0.082,0.01-0.165,0.016-0.248,0.025
				c-0.007-0.007-0.014-0.017-0.022-0.023c-0.768-0.696-1.489-1.441-2.154-2.235C383.421,46.85,383.798,46.848,384.174,46.831z
				 M381.88,46.866c0.082,0.124,0.165,0.238,0.231,0.328c0.541,0.73,1.153,1.408,1.794,2.055c-0.611,0.05-1.224,0.082-1.839,0.105
				c-0.047-0.043-0.091-0.09-0.14-0.13c-0.854-0.687-1.554-1.507-2.168-2.399C380.466,46.846,381.173,46.863,381.88,46.866z
				 M378.675,46.795c0.59,0.929,1.254,1.797,1.996,2.596c-0.525,0.006-1.053-0.006-1.579-0.013
				c-0.171-0.219-0.378-0.408-0.619-0.543c-0.925-0.516-1.78-1.258-2.43-2.108C376.92,46.744,377.798,46.768,378.675,46.795z
				 M374.942,46.718c0.055,0.099,0.107,0.181,0.141,0.23c0.61,0.888,1.338,1.686,2.147,2.39c-0.5-0.017-1.001-0.041-1.502-0.064
				c-0.132-0.134-0.274-0.255-0.437-0.342c-0.917-0.49-1.566-1.417-2.284-2.181C373.651,46.728,374.296,46.716,374.942,46.718z
				 M372.001,46.8c0.127,0.377,0.395,0.743,0.655,0.984c0.483,0.447,0.917,0.935,1.362,1.408c-0.739-0.039-1.477-0.078-2.216-0.116
				c-0.64-0.684-1.274-1.373-1.896-2.072C370.603,46.906,371.302,46.844,372.001,46.8z M368.765,47.113
				c0.046,0.063,0.095,0.13,0.135,0.178c0.495,0.588,1.012,1.155,1.536,1.717c-0.52-0.024-1.039-0.038-1.558-0.055
				c-0.083-0.081-0.168-0.157-0.259-0.209c-0.731-0.419-1.34-0.999-1.968-1.555C367.375,47.179,368.089,47.162,368.765,47.113z
				 M365.344,47.2c0.169,0.367,0.439,0.708,0.748,0.932c0.332,0.24,0.641,0.507,0.946,0.779c-0.788-0.01-1.573-0.002-2.358,0.017
				c-0.04-0.041-0.079-0.091-0.119-0.126c-0.6-0.52-1.21-1.027-1.798-1.559C363.619,47.21,364.486,47.204,365.344,47.2z
				 M361.64,47.306c0.141,0.329,0.373,0.639,0.601,0.864c0.29,0.286,0.598,0.551,0.905,0.817c-1.067,0.06-2.13,0.153-3.185,0.306
				c-0.091,0.013-0.175,0.042-0.259,0.073c-0.074-0.053-0.146-0.11-0.227-0.144c-0.606-0.253-1.044-0.733-1.496-1.202
				C359.082,47.607,360.333,47.407,361.64,47.306z M358.076,70.141c-0.694-0.261-0.974-0.755-1.522-1.238
				c-0.046-0.824-0.462-1.648-0.504-2.473c0.557,0.578,1.496,1.171,1.496,1.483v0.024C357.546,68.673,358.073,69.407,358.076,70.141
				z M358.704,84.131c-0.646-0.301-1.252-0.666-1.841-1.057c0.009-0.809,0.021-1.618,0.035-2.428
				c0.546,0.591,1.135,1.117,1.826,1.534c0.008,0.659,0.014,1.319,0.022,1.979C358.731,84.152,358.719,84.138,358.704,84.131z
				 M358.763,85.682c0.011,0.914,0.018,1.828,0.027,2.742c-0.028-0.014-0.059-0.042-0.086-0.049
				c-0.671-0.167-1.301-0.474-1.832-0.915c-0.02-0.98-0.026-1.963-0.022-2.948C357.461,84.943,358.1,85.334,358.763,85.682z
				 M358.318,80.467c-0.549-0.289-0.977-0.716-1.379-1.18c-0.004-0.005-0.013-0.014-0.018-0.019c0.014-0.79,0.027-1.579,0.035-2.367
				c0.521,0.392,1.083,0.714,1.713,0.886c0.012,0.99,0.024,1.98,0.036,2.97C358.587,80.644,358.461,80.542,358.318,80.467z
				 M357.972,75.897c-0.367-0.063-0.697-0.224-1.007-0.424c0.002-0.705,0.005-1.41-0.004-2.112c0.528,0.458,1.066,0.954,1.67,1.327
				c0.006,0.557,0.014,1.114,0.021,1.671C358.466,76.133,358.24,75.943,357.972,75.897z M356.943,71.946
				c-0.006-0.006-0.016-0.013-0.023-0.018c-0.015-0.524-0.02-1.051-0.046-1.572c0.549,0.483,1.1,0.978,1.728,1.348
				c0.003,0.474,0.01,0.947,0.014,1.421C357.974,72.871,357.468,72.401,356.943,71.946z M356.598,64.96
				c-0.039-0.83-0.077-1.661-0.119-2.491c0.584,0.478,1.174,0.946,1.754,1.429c0.071,0.842,0.138,1.603,0.191,2.255
				C357.619,66.103,357.113,65.517,356.598,64.96z M356.404,61.01c-0.062-1.095-0.132-2.188-0.224-3.28
				c0.107,0.095,0.222,0.179,0.347,0.243c0.444,0.225,0.889,0.443,1.359,0.579c0.048,1.311,0.133,2.626,0.227,3.851
				C357.545,61.936,356.97,61.477,356.404,61.01z M356.924,88.91c0.558,0.486,1.192,0.894,1.882,1.162
				c0.007,0.889,0.005,1.78,0.01,2.67c-0.595-0.536-1.178-1.086-1.775-1.621C356.992,90.387,356.951,89.65,356.924,88.91z
				 M356.923,48.416c0.141,0.197,0.307,0.371,0.49,0.487c0.436,0.279,0.756,0.678,1.11,1.05c0.086,0.09,0.189,0.16,0.281,0.244
				c-0.349,0.6-0.579,1.473-0.73,2.5c-0.105-0.091-0.217-0.161-0.335-0.197c-0.588-0.182-1.152-0.415-1.707-0.671
				C356.152,50.591,356.411,49.401,356.923,48.416z M355.954,53.344c0.634,0.336,1.288,0.619,1.961,0.86
				c-0.055,0.816-0.073,1.694-0.067,2.595c-0.085-0.045-0.17-0.088-0.261-0.093c-0.556-0.028-1.044-0.265-1.53-0.513
				C355.989,55.297,355.941,54.324,355.954,53.344z M358.112,96.267c-0.158-0.129-0.321-0.253-0.476-0.387
				c-0.04-0.034-0.057-0.055-0.082-0.08c-0.171-1.048-0.298-2.107-0.396-3.173c0.557,0.503,1.105,1.016,1.662,1.518
				c0.003,0.925,0.013,1.849,0.01,2.775C358.616,96.689,358.364,96.472,358.112,96.267z M384.129,56.199
				c-4.954,0.073-9.911-1.059-14.861-0.678c-4.32,0.332-2.856,5.259-2.805,8.198c0.133,7.76,0.141,15.519,0.215,23.279
				c0.027,2.874,0.028,5.747,0.1,8.62c0.098,3.952-3.602,2.721-6.499,2.42c0.059-14.191-0.107-28.838-0.586-43.022
				c-0.174-5.146,3.116-4.735,6.919-4.735h5.781c0.193,0,0.395,0,0.486,0h5.305c2.752,0,5.566,0.612,8.305,0.346
				C391.678,50.123,388.275,56.138,384.129,56.199z"/>
			<g>
				<path d="M352.213,71.737c-0.479-7.298-1.234-16.301-7.599-20.894c-2.06-1.487-4.556-2.311-7.169-2.666
					c-4.124-1.438-7.827-2.587-12.274-1.668c-0.072,0.002-0.142-0.014-0.215-0.005c-0.033,0.004-0.101,0.043-0.18,0.093
					c-0.971,0.225-1.976,0.543-3.032,0.985c-3.2,1.34-6.017,3.096-7.547,6.386c-3.877,8.334-3.927,15.801-4.165,24.851
					c-0.224,8.513,2.853,14.03,9.588,17.976c5.047,4.216,13.212,5.105,19.122,3.072C350.54,95.809,352.949,82.939,352.213,71.737z
					 M333.087,47.99c-1.055,0.045-2.099,0.155-3.117,0.308c-0.959-0.068-1.826-0.632-2.7-1.123
					C329.287,47.14,331.19,47.517,333.087,47.99z M320.684,48.921c-0.004,0.014-0.012,0.031-0.006,0.038
					c0.371,0.406,1.19,0.504,1.713,0.659c0.656,0.194,1.285,0.349,1.966,0.418c0.11,0.011,0.516-0.436,0.54-0.421
					c-0.502-0.321-1.029-0.544-1.57-0.791c-0.39-0.179-0.781-0.428-1.192-0.574c0.356-0.142,0.701-0.294,1.082-0.415
					c0.294-0.093,0.579-0.158,0.866-0.23c0.723,0.516,1.884,0.751,2.695,1.012c0.243,0.078,0.47,0.129,0.694,0.168
					c-0.3,0.072-0.606,0.139-0.897,0.218c-0.18,0.049-0.418,0.262-0.643,0.509c-1.622,0.422-3.131,1.267-4.51,2.373
					c0.062-0.062,0.112-0.109,0.124-0.102c-0.972-0.554-2.113-1.004-3.255-1.24C319.012,49.939,319.801,49.39,320.684,48.921z
					 M314.728,55.02c0.898,0.202,1.832,0.425,2.695,0.137c0.074-0.025,0.563-0.433,0.551-0.442
					c-0.342-0.254-0.967-0.361-1.378-0.511c-0.387-0.141-0.78-0.269-1.182-0.359c0.499-0.778,1.057-1.517,1.696-2.194
					c0.262,0.05,0.53,0.087,0.803,0.131c1.026,0.165,2.033,0.186,3.042,0.468c0.006,0.002,0.017-0.01,0.024-0.01
					c-1.792,1.546-3.318,3.559-4.539,5.711c-0.714-0.085-1.279-0.714-2.02-0.534c-0.156,0.038-1.061,0.827-0.975,0.876
					c0.357,0.208,0.851,0.135,1.257,0.167c0.485,0.039,0.946-0.035,1.414-0.165c0.071-0.02,0.164-0.121,0.25-0.207
					c-0.513,0.916-0.961,1.857-1.354,2.798c-0.46-0.17-0.838-0.381-1.434-0.186c-0.301,0.099-0.566,0.356-0.786,0.574
					c-0.017,0.017-0.184,0.197-0.274,0.336C312.968,59.29,313.654,57.035,314.728,55.02z M312.006,65.297
					c0.358-0.063,0.718-0.143,1.035-0.281c0.102-0.045,0.81-0.519,0.745-0.629c-0.258-0.434-1.072-0.116-1.419,0.089
					c-0.105,0.061-0.203,0.139-0.299,0.219c0.108-0.984,0.237-1.968,0.422-2.942c0.006,0.002-0.002,0.015,0.007,0.014
					c0.764-0.013,1.518-0.215,2.277-0.3c-0.791,2.032-1.285,4.046-1.405,5.804c-0.028,0.414-0.055,0.826-0.082,1.238
					c-0.577,0.069-1.054,0.31-1.497,0.696C311.819,67.925,311.879,66.62,312.006,65.297z M311.76,70.382
					c0.001-0.285,0.017-0.584,0.022-0.874c0.463-0.275,0.896-0.472,1.476-0.549c-0.074,1.168-0.133,2.324-0.181,3.476
					c-0.485,0.189-0.937,0.366-1.362,0.679C311.737,72.179,311.757,71.263,311.76,70.382z M311.703,73.573
					c0.371-0.381,0.904-0.618,1.352-0.888c0.004-0.002,0.009-0.008,0.013-0.01c-0.053,1.361-0.071,2.709-0.056,4.05
					c-0.186,0-0.374,0.006-0.589,0.065c-0.307,0.084-0.54,0.234-0.773,0.407C311.648,75.974,311.674,74.757,311.703,73.573z
					 M311.66,78.014c0.391-0.184,0.784-0.425,1.121-0.498c0.078-0.017,0.156-0.077,0.234-0.132c0.023,1.058,0.08,2.109,0.167,3.157
					c-0.476,0.197-0.938,0.435-1.358,0.726C311.727,80.191,311.676,79.102,311.66,78.014z M311.881,81.83
					c0.394-0.247,0.77-0.535,1.142-0.789c0.066-0.045,0.121-0.106,0.184-0.158c0.092,1.01,0.229,2.015,0.396,3.017
					c-0.447,0.231-0.857,0.603-1.183,1.019C312.18,83.913,311.995,82.883,311.881,81.83z M312.546,85.474
					c0.198-0.168,0.387-0.352,0.52-0.566c0.043-0.069,0.086-0.138,0.129-0.207c0.107-0.214,0.134-0.245,0.081-0.093
					c0.148-0.045,0.286-0.143,0.417-0.252c0.166,0.924,0.378,1.846,0.619,2.766c-0.341,0.151-0.672,0.339-0.971,0.579
					C313.029,86.981,312.754,86.243,312.546,85.474z M313.47,87.977c0.126-0.126,0.258-0.242,0.411-0.312
					c0.136-0.063,0.311-0.252,0.463-0.417c0.255,0.961,0.572,1.919,0.924,2.876c-0.102,0.054-0.255,0.136-0.421,0.234
					c-0.319-0.424-0.623-0.88-0.906-1.384C313.761,88.653,313.623,88.311,313.47,87.977z M348.67,89.694
					c-3.125,9.992-12.918,10.2-20.83,8.457c-7.073-1.558-10.396-7.493-12.069-13.999c-2.732-10.627-2.437-31.76,11.404-33.969
					c7.021-0.89,14.501-0.062,19.245,5.774c3.198,3.935,3.573,12.415,4.012,17.346C350.927,78.871,350.34,84.356,348.67,89.694z"/>
				<path d="M338.709,59.539c-2.633-2.194-6.09-1.925-8.986-0.64c-4.955,0.832-6.107,7.526-6.656,11.63
					c-1.213,9.069,1.736,24.051,13.844,19.133c6.041-2.454,5.335-10.199,5.655-15.42C342.905,68.72,343.309,63.374,338.709,59.539z
					 M338.461,63.053c1.423,1.834,2.326,4.29,2.552,6.957c0.116,1.362,0.236,3.23,0.242,5.259c-0.345-0.166-0.771-0.099-1.149-0.082
					c-0.553,0.025-1.103,0.048-1.657,0.046c-0.08,0-0.186,0.059-0.3,0.142c0.023-0.29,0.046-0.581,0.065-0.872
					c0.332-0.001,0.666-0.034,0.992-0.101c0.313-0.064,0.623-0.397,0.837-0.612c0.029-0.029,0.504-0.542,0.303-0.537
					c-0.704,0.017-1.38,0.221-2.081,0.272c0.027-0.623,0.047-1.244,0.047-1.856c0.424,0.018,0.844,0.006,1.237-0.099
					c0.176-0.047,1.126-0.916,1.041-0.954c-0.413-0.184-0.869-0.101-1.31-0.074c-0.327,0.02-0.654,0.039-0.981,0.058
					c-0.022-0.819-0.065-1.624-0.147-2.395c0.367-0.01,0.727-0.038,1.053-0.131c0.163-0.046,1.073-0.867,0.998-0.902
					c-0.39-0.181-0.863-0.054-1.28-0.018c-0.295,0.026-0.591,0.043-0.886,0.065c-0.069-0.464-0.149-0.917-0.245-1.352
					c0.27,0.025,0.539,0.052,0.817,0.056c0.317,0.005,0.809-0.803,0.876-0.804c-0.623,0.01-1.236,0.073-1.85,0.143
					c-0.192-0.728-0.413-1.422-0.7-2.028c0.437-0.02,0.873-0.006,1.32-0.062C338.312,63.167,338.386,63.115,338.461,63.053z
					 M327.459,60.505c-0.384,0.502-0.639,0.978-0.07,0.669c4.387-2.378,8.088-1.398,10.534,1.258
					c-0.407,0.07-0.808,0.189-1.172,0.324c-0.016,0.006-0.034,0.024-0.051,0.033c-1.093-1.991-2.803-3.113-5.375-2.726
					c-0.119,0.018-0.356,0.349-0.435,0.332c3.239,0.692,4.931,3.658,5.645,7.491c-0.107,0.116-0.231,0.264-0.147,0.267
					c0.062,0.002,0.13,0.007,0.194,0.01c0.169,0.981,0.271,2.019,0.325,3.085c-0.113,0.12-0.257,0.289-0.165,0.295
					c0.057,0.004,0.118,0.011,0.176,0.016c0.274,6.649-1.445,14.4-2.988,17.829C323.413,90.197,320.443,66.877,327.459,60.505z
					 M336.522,88.757c-0.57,0.236-1.117,0.385-1.652,0.495c0.207-0.205,0.377-0.398,0.432-0.511c0.252-0.516,0.521-1.242,0.79-2.11
					c0.4,0.25,0.802,0.495,1.255,0.633c0.387,0.118,1.548-1.224,1.394-1.315c-0.586-0.346-1.266-0.514-1.913-0.715
					c-0.088-0.027-0.226,0.043-0.377,0.156c0.119-0.444,0.237-0.911,0.352-1.403c0.394,0.201,0.809,0.374,1.228,0.311
					c0.269-0.04,1.637-1.111,1.371-1.387c-0.408-0.425-1.296-0.291-1.864-0.374c-0.102-0.015-0.285,0.111-0.477,0.28
					c0.069-0.328,0.137-0.66,0.202-1.002c0.057,0.02,0.111,0.045,0.168,0.064c0.421,0.14,0.609,0.16,1.009-0.042
					c0.252-0.127,1.361-0.883,1.193-1.245c-0.034-0.074-0.068-0.147-0.103-0.221c-0.028-0.009-0.057-0.018-0.085-0.027
					c-0.636-0.042-1.269-0.02-1.904-0.089c0.066-0.397,0.131-0.796,0.19-1.204c0.679,0.116,1.383,0.209,1.987-0.043
					c0.171-0.071,1.426-1.056,1.193-1.245c-0.314-0.255-0.696-0.156-1.087-0.158c-0.58-0.003-1.15,0.026-1.728,0.08
					c-0.063,0.006-0.128,0.036-0.193,0.067c0.048-0.391,0.1-0.78,0.14-1.175c0.721,0.122,1.478,0.202,2.138-0.047
					c0.12-0.045,0.798-0.593,1.077-0.943C341.24,80.87,340.396,87.156,336.522,88.757z"/>
			</g>
		</g>
	</g>
	<g>
		<path d="M56.936,115.355h7.116v10.262h-1.556v-8.791h-4.005v8.791h-1.555L56.936,115.355L56.936,115.355z"/>
		<path d="M69.534,125.702c-0.404,0-0.774-0.05-1.112-0.151s-0.641-0.248-0.908-0.44c-0.558-0.366-0.957-0.784-1.197-1.253
			l-0.204-0.443c-0.028-0.08-0.054-0.165-0.077-0.257c-0.023-0.091-0.045-0.189-0.063-0.292c-0.07-0.394-0.106-1.187-0.106-2.379
			c0-0.605,0.008-1.105,0.025-1.499c0.016-0.394,0.043-0.692,0.081-0.894c0.075-0.413,0.19-0.739,0.345-0.978
			c0.239-0.465,0.638-0.889,1.197-1.274c0.549-0.38,1.222-0.57,2.02-0.57c0.807,0,1.487,0.19,2.041,0.57
			c0.54,0.375,0.929,0.8,1.168,1.274c0.164,0.23,0.286,0.556,0.366,0.978c0.056,0.404,0.084,1.201,0.084,2.393
			c0,1.173-0.028,1.966-0.084,2.379c-0.08,0.422-0.202,0.753-0.366,0.992c-0.249,0.483-0.638,0.901-1.168,1.253
			c-0.277,0.192-0.583,0.339-0.919,0.44C70.322,125.651,69.947,125.702,69.534,125.702z M69.534,124.146
			c0.375,0,0.697-0.077,0.964-0.232c0.249-0.122,0.455-0.293,0.619-0.514c0.211-0.221,0.35-0.509,0.415-0.866
			c0.07-0.338,0.106-1.021,0.106-2.048c0-0.511-0.007-0.937-0.021-1.277s-0.042-0.602-0.084-0.785
			c-0.066-0.347-0.204-0.631-0.415-0.852c-0.155-0.211-0.361-0.389-0.619-0.535c-0.282-0.131-0.603-0.202-0.964-0.211
			c-0.366,0.019-0.678,0.089-0.936,0.211c-0.282,0.145-0.5,0.324-0.655,0.535c-0.192,0.211-0.326,0.495-0.401,0.852
			c-0.075,0.385-0.113,1.072-0.113,2.062c0,0.507,0.009,0.929,0.028,1.267s0.047,0.598,0.084,0.781
			c0.075,0.366,0.209,0.655,0.401,0.866c0.155,0.221,0.373,0.392,0.655,0.514C68.847,124.069,69.159,124.146,69.534,124.146z"/>
		<path d="M74.102,124.146h0.253c0.225,0,0.431-0.026,0.616-0.077c0.185-0.052,0.358-0.176,0.517-0.373s0.297-0.486,0.412-0.866
			s0.214-0.895,0.296-1.545c0.082-0.65,0.144-1.457,0.187-2.421c0.042-0.964,0.063-2.134,0.063-3.509h5.94v10.262H80.83v-8.791
			h-2.872c0,1.276-0.028,2.378-0.084,3.305s-0.142,1.717-0.257,2.372s-0.262,1.184-0.44,1.587c-0.178,0.404-0.393,0.718-0.644,0.943
			s-0.535,0.379-0.852,0.461s-0.667,0.123-1.052,0.123h-0.528v-1.471L74.102,124.146L74.102,124.146z"/>
		<path d="M84.555,115.355h6.553v1.471h-4.997v2.921h4.265v1.387h-4.265v3.012h4.997v1.471h-6.553V115.355z"/>
		<path d="M95.253,125.702c-0.446,0-0.866-0.065-1.26-0.194s-0.75-0.319-1.066-0.57s-0.585-0.558-0.806-0.922
			s-0.378-0.787-0.472-1.27h1.64c0.145,0.446,0.384,0.8,0.714,1.063s0.757,0.394,1.277,0.394c0.577,0,1.045-0.144,1.404-0.433
			c0.359-0.289,0.538-0.677,0.538-1.165c0-0.521-0.154-0.908-0.461-1.161s-0.759-0.38-1.355-0.38h-1.309v-1.387h1.337
			c0.521,0,0.923-0.124,1.207-0.373s0.426-0.619,0.426-1.112c0-0.479-0.16-0.846-0.479-1.102c-0.319-0.256-0.751-0.384-1.295-0.384
			c-0.549,0-0.987,0.147-1.313,0.44s-0.557,0.682-0.693,1.165h-1.64c0.188-0.99,0.611-1.744,1.27-2.263s1.456-0.778,2.39-0.778
			c0.479,0,0.922,0.065,1.33,0.194s0.759,0.313,1.052,0.553s0.524,0.533,0.693,0.88c0.169,0.347,0.253,0.732,0.253,1.154
			c0,0.526-0.123,0.978-0.37,1.358c-0.246,0.38-0.595,0.68-1.045,0.901c0.502,0.202,0.889,0.502,1.161,0.901
			s0.408,0.901,0.408,1.506c0,0.455-0.088,0.867-0.264,1.235s-0.423,0.683-0.743,0.943c-0.319,0.26-0.694,0.46-1.126,0.598
			C96.229,125.633,95.76,125.702,95.253,125.702z"/>
		<path d="M100.412,115.355h1.556v4.392h4.061v-4.392h1.563v10.262h-1.563v-4.484h-4.061v4.484h-1.556V115.355z"/>
		<path d="M109.759,115.355h1.556v4.033h2.379c0.488,0,0.931,0.077,1.33,0.232s0.743,0.37,1.031,0.644
			c0.289,0.275,0.51,0.601,0.665,0.978c0.155,0.378,0.232,0.799,0.232,1.263c0,0.46-0.08,0.882-0.239,1.267
			c-0.16,0.385-0.381,0.714-0.665,0.989c-0.284,0.275-0.625,0.486-1.024,0.633c-0.399,0.148-0.842,0.222-1.33,0.222h-3.935V115.355z
			 M113.602,124.146c0.558,0,0.994-0.149,1.306-0.447s0.468-0.705,0.468-1.221c0-0.521-0.156-0.933-0.468-1.235
			c-0.312-0.303-0.747-0.454-1.306-0.454h-2.288v3.357H113.602z M118.191,115.355h1.556v10.262h-1.556V115.355z"/>
		<path d="M121.915,115.355h6.553v1.471h-4.997v2.921h4.265v1.387h-4.265v3.012h4.997v1.471h-6.553V115.355z"/>
		<path d="M136.069,125.702c-0.446,0-0.866-0.065-1.26-0.194s-0.75-0.319-1.066-0.57c-0.317-0.251-0.585-0.558-0.806-0.922
			c-0.221-0.364-0.378-0.787-0.472-1.27h1.64c0.145,0.446,0.384,0.8,0.714,1.063s0.757,0.394,1.277,0.394
			c0.577,0,1.045-0.144,1.404-0.433c0.359-0.289,0.538-0.677,0.538-1.165c0-0.521-0.154-0.908-0.461-1.161s-0.759-0.38-1.355-0.38
			h-1.309v-1.387h1.337c0.521,0,0.923-0.124,1.207-0.373s0.426-0.619,0.426-1.112c0-0.479-0.16-0.846-0.479-1.102
			c-0.319-0.256-0.751-0.384-1.295-0.384c-0.549,0-0.987,0.147-1.313,0.44s-0.557,0.682-0.693,1.165h-1.64
			c0.188-0.99,0.611-1.744,1.27-2.263s1.456-0.778,2.39-0.778c0.479,0,0.922,0.065,1.33,0.194s0.759,0.313,1.052,0.553
			s0.524,0.533,0.693,0.88c0.169,0.347,0.253,0.732,0.253,1.154c0,0.526-0.123,0.978-0.37,1.358s-0.595,0.68-1.045,0.901
			c0.502,0.202,0.889,0.502,1.161,0.901s0.408,0.901,0.408,1.506c0,0.455-0.088,0.867-0.264,1.235
			c-0.176,0.368-0.423,0.683-0.743,0.943c-0.319,0.26-0.694,0.46-1.126,0.598C137.045,125.633,136.576,125.702,136.069,125.702z"/>
		<path d="M143.889,115.355h1.302l3.73,10.262h-1.64l-0.795-2.295h-3.892l-0.788,2.295h-1.647L143.889,115.355z M146.043,121.943
			l-1.485-4.483h-0.028l-1.485,4.483H146.043z"/>
		<path d="M150.019,115.355h1.464l2.942,6.687l2.886-6.687h1.471v10.262h-1.555v-6.398h-0.028l-2.154,4.927h-1.295l-2.147-4.927
			h-0.028v6.398h-1.556L150.019,115.355L150.019,115.355z"/>
		<path d="M160.95,115.355h6.553v1.471h-4.997v2.921h4.265v1.387h-4.265v3.012h4.997v1.471h-6.553V115.355z"/>
		<path d="M170.706,116.826h-2.808v-1.471h7.179v1.471h-2.808v8.791h-1.563L170.706,116.826L170.706,116.826z"/>
		<path d="M176.174,115.355h1.556v4.392h1.049c0.202,0,0.38-0.038,0.535-0.113s0.29-0.176,0.405-0.303s0.218-0.271,0.31-0.433
			c0.091-0.162,0.17-0.325,0.236-0.489l0.479-1.154c0.113-0.286,0.228-0.548,0.345-0.785s0.255-0.439,0.412-0.605
			c0.157-0.167,0.348-0.293,0.574-0.38c0.225-0.087,0.511-0.13,0.859-0.13h0.605v1.471h-0.331c-0.164,0-0.297,0.007-0.398,0.021
			s-0.188,0.047-0.26,0.099s-0.133,0.123-0.179,0.215c-0.047,0.092-0.103,0.215-0.169,0.37l-0.648,1.598
			c-0.108,0.272-0.256,0.507-0.443,0.704s-0.387,0.352-0.598,0.465c0.338,0.08,0.603,0.239,0.795,0.479
			c0.192,0.239,0.354,0.514,0.486,0.823l0.753,1.788c0.056,0.131,0.109,0.245,0.158,0.341c0.049,0.096,0.109,0.176,0.179,0.239
			c0.07,0.063,0.156,0.109,0.257,0.137c0.101,0.028,0.238,0.042,0.412,0.042h0.422v1.471h-0.781c-0.394,0-0.724-0.057-0.989-0.172
			s-0.494-0.301-0.686-0.56c-0.113-0.164-0.217-0.35-0.313-0.556c-0.096-0.206-0.184-0.406-0.264-0.598l-0.676-1.647
			c-0.084-0.202-0.184-0.362-0.299-0.482c-0.115-0.12-0.238-0.214-0.37-0.282c-0.131-0.068-0.264-0.114-0.398-0.137
			c-0.134-0.023-0.264-0.035-0.391-0.035h-1.077v4.469h-1.556L176.174,115.355L176.174,115.355z"/>
		<path d="M185.254,115.355h1.556v7.44l4.441-7.44h1.422v10.262h-1.555v-7.454l-4.455,7.454h-1.408v-10.262H185.254z"/>
		<path d="M197.311,124.146h0.936c0.216-0.422,0.402-0.869,0.56-1.341c0.157-0.472,0.289-1.038,0.394-1.7
			c0.106-0.662,0.183-1.455,0.232-2.379c0.049-0.924,0.074-2.048,0.074-3.371h5.863v8.791h1.211v3.78h-1.471v-2.309h-6.328v2.309
			h-1.471V124.146z M203.815,124.146v-7.32h-2.822c0,1.046-0.025,1.946-0.074,2.699s-0.12,1.411-0.211,1.974
			s-0.204,1.053-0.338,1.471s-0.287,0.809-0.461,1.175h3.906V124.146z"/>
		<path d="M207.77,115.355h1.555v7.44l4.441-7.44h1.422v10.262h-1.556v-7.454l-4.455,7.454h-1.408L207.77,115.355L207.77,115.355z"
			/>
		<path d="M220.038,125.702c-0.446,0-0.866-0.065-1.26-0.194s-0.75-0.319-1.066-0.57c-0.317-0.251-0.585-0.558-0.806-0.922
			c-0.221-0.364-0.378-0.787-0.472-1.27h1.64c0.145,0.446,0.384,0.8,0.714,1.063s0.757,0.394,1.277,0.394
			c0.577,0,1.045-0.144,1.404-0.433c0.359-0.289,0.538-0.677,0.538-1.165c0-0.521-0.154-0.908-0.461-1.161
			c-0.307-0.253-0.759-0.38-1.355-0.38h-1.309v-1.387h1.337c0.521,0,0.923-0.124,1.207-0.373s0.426-0.619,0.426-1.112
			c0-0.479-0.16-0.846-0.479-1.102c-0.319-0.256-0.751-0.384-1.295-0.384c-0.549,0-0.987,0.147-1.313,0.44s-0.557,0.682-0.693,1.165
			h-1.64c0.188-0.99,0.611-1.744,1.27-2.263s1.456-0.778,2.39-0.778c0.479,0,0.922,0.065,1.33,0.194s0.759,0.313,1.052,0.553
			c0.293,0.239,0.524,0.533,0.693,0.88c0.169,0.347,0.253,0.732,0.253,1.154c0,0.526-0.123,0.978-0.37,1.358
			c-0.246,0.38-0.595,0.68-1.045,0.901c0.502,0.202,0.889,0.502,1.161,0.901s0.408,0.901,0.408,1.506
			c0,0.455-0.088,0.867-0.264,1.235s-0.423,0.683-0.743,0.943c-0.319,0.26-0.694,0.46-1.126,0.598
			C221.014,125.633,220.545,125.702,220.038,125.702z"/>
		<path d="M227.858,115.355h1.302l3.73,10.262h-1.64l-0.795-2.295h-3.892l-0.788,2.295h-1.647L227.858,115.355z M230.012,121.943
			l-1.485-4.483h-0.028l-1.485,4.483H230.012z"/>
		<path d="M233.989,115.355h1.556v7.44l4.441-7.44h1.422v10.262h-1.556v-7.454l-4.455,7.454h-1.408L233.989,115.355L233.989,115.355
			z M236.213,112.286c0.099,0.385,0.267,0.657,0.507,0.816c0.249,0.164,0.565,0.246,0.95,0.246c0.357,0.009,0.664-0.068,0.922-0.232
			c0.267-0.15,0.446-0.427,0.535-0.831h0.866c-0.052,0.605-0.275,1.084-0.669,1.436c-0.394,0.385-0.945,0.577-1.654,0.577
			c-0.694,0-1.236-0.192-1.626-0.577c-0.404-0.352-0.636-0.831-0.697-1.436L236.213,112.286L236.213,112.286z"/>
		<path d="M243.575,115.355h1.555v4.392h4.061v-4.392h1.563v10.262h-1.563v-4.484h-4.061v4.484h-1.555V115.355z"/>
		<path d="M252.922,115.355h6.553v1.471h-4.997v2.921h4.265v1.387h-4.265v3.012h4.997v1.471h-6.553V115.355z"/>
		<path d="M260.939,115.355h3.716c0.202,0,0.399,0.009,0.591,0.028s0.385,0.047,0.577,0.084c0.366,0.099,0.746,0.3,1.14,0.605
			c0.314,0.221,0.577,0.547,0.788,0.978c0.211,0.418,0.317,0.908,0.317,1.471c0,0.76-0.267,1.452-0.802,2.076
			c-0.558,0.666-1.361,1.004-2.407,1.014h-2.365v4.005h-1.556v-10.261L260.939,115.355L260.939,115.355z M264.796,120.141
			c0.577-0.019,1.011-0.197,1.302-0.535c0.277-0.338,0.415-0.713,0.415-1.126c0-0.343-0.056-0.631-0.169-0.866
			c-0.108-0.202-0.272-0.368-0.493-0.5c-0.328-0.202-0.699-0.298-1.112-0.289h-2.245v3.315h2.302V120.141z"/>
		<path d="M272.144,115.355h1.302l3.73,10.262h-1.64l-0.795-2.295h-3.892l-0.788,2.295h-1.647L272.144,115.355z M274.298,121.943
			l-1.485-4.483h-0.028l-1.485,4.483H274.298z"/>
		<path d="M277.93,120.895h4.194v1.463h-4.194V120.895z"/>
		<path d="M284.138,115.355h1.556v7.44l4.441-7.44h1.422v10.262h-1.556v-7.454l-4.455,7.454h-1.408V115.355L284.138,115.355z"/>
		<path d="M292.816,124.146h0.253c0.225,0,0.431-0.026,0.616-0.077c0.185-0.052,0.358-0.176,0.517-0.373
			c0.16-0.197,0.297-0.486,0.412-0.866s0.214-0.895,0.296-1.545c0.082-0.65,0.144-1.457,0.187-2.421
			c0.042-0.964,0.063-2.134,0.063-3.509h5.94v10.262h-1.555v-8.791h-2.872c0,1.276-0.028,2.378-0.084,3.305
			c-0.056,0.927-0.142,1.717-0.257,2.372s-0.262,1.184-0.44,1.587c-0.178,0.404-0.393,0.718-0.644,0.943
			c-0.251,0.225-0.535,0.379-0.852,0.461c-0.317,0.082-0.667,0.123-1.052,0.123h-0.528L292.816,124.146L292.816,124.146z"/>
		<path d="M302.36,124.146h0.253c0.225,0,0.431-0.026,0.616-0.077c0.185-0.052,0.358-0.176,0.517-0.373s0.297-0.486,0.412-0.866
			s0.214-0.895,0.296-1.545c0.082-0.65,0.144-1.457,0.187-2.421c0.042-0.964,0.063-2.134,0.063-3.509h5.94v10.262h-1.556v-8.791
			h-2.872c0,1.276-0.028,2.378-0.084,3.305c-0.056,0.927-0.142,1.717-0.257,2.372s-0.262,1.184-0.44,1.587
			c-0.178,0.404-0.393,0.718-0.644,0.943c-0.251,0.225-0.535,0.379-0.852,0.461c-0.317,0.082-0.667,0.123-1.052,0.123h-0.528v-1.471
			L302.36,124.146L302.36,124.146z"/>
		<path d="M319.914,125.702c-1.084,0-1.982-0.364-2.696-1.091c-0.211-0.211-0.381-0.438-0.51-0.679
			c-0.129-0.242-0.23-0.504-0.303-0.788s-0.121-0.589-0.144-0.915c-0.023-0.326-0.04-0.691-0.049-1.094h-1.844v4.484h-1.556v-10.262
			h1.556v4.378h1.858c0.009-0.385,0.028-0.738,0.056-1.059c0.028-0.321,0.076-0.618,0.144-0.89s0.164-0.524,0.289-0.757
			c0.124-0.232,0.292-0.454,0.503-0.665c0.347-0.366,0.75-0.639,1.207-0.82s0.954-0.271,1.489-0.271c0.53,0,1.023,0.09,1.478,0.271
			s0.861,0.454,1.218,0.82c0.404,0.404,0.671,0.869,0.802,1.397s0.197,1.134,0.197,1.819v0.908c0,0.507-0.008,0.96-0.025,1.358
			c-0.016,0.399-0.055,0.763-0.116,1.091c-0.061,0.328-0.16,0.626-0.296,0.894c-0.136,0.267-0.324,0.528-0.563,0.781
			C321.901,125.338,321.003,125.702,319.914,125.702z M319.914,124.146c0.3,0,0.582-0.055,0.845-0.165
			c0.263-0.11,0.49-0.262,0.683-0.454c0.145-0.145,0.257-0.306,0.334-0.482c0.077-0.176,0.135-0.38,0.172-0.612
			s0.061-0.493,0.07-0.781s0.014-0.614,0.014-0.975v-0.507c0-0.394-0.009-0.736-0.028-1.024c-0.019-0.289-0.049-0.538-0.092-0.75
			c-0.042-0.211-0.102-0.394-0.179-0.549s-0.175-0.293-0.292-0.415c-0.404-0.404-0.913-0.605-1.527-0.605
			c-0.305,0-0.588,0.053-0.848,0.158c-0.26,0.106-0.487,0.255-0.679,0.447c-0.258,0.267-0.423,0.622-0.496,1.063
			s-0.109,1.042-0.109,1.802v0.549c0,0.404,0.009,0.747,0.028,1.031c0.019,0.284,0.05,0.529,0.095,0.736
			c0.045,0.206,0.108,0.381,0.19,0.524c0.082,0.143,0.18,0.273,0.292,0.391c0.192,0.192,0.419,0.344,0.679,0.454
			C319.327,124.091,319.609,124.146,319.914,124.146z"/>
		<path d="M328.741,125.702c-0.404,0-0.774-0.05-1.112-0.151s-0.641-0.248-0.908-0.44c-0.558-0.366-0.957-0.784-1.197-1.253
			l-0.204-0.443c-0.028-0.08-0.054-0.165-0.077-0.257s-0.045-0.189-0.063-0.292c-0.07-0.394-0.106-1.187-0.106-2.379
			c0-0.605,0.008-1.105,0.025-1.499c0.016-0.394,0.043-0.692,0.081-0.894c0.075-0.413,0.19-0.739,0.345-0.978
			c0.239-0.465,0.638-0.889,1.197-1.274c0.549-0.38,1.222-0.57,2.02-0.57c0.981,0,1.788,0.291,2.421,0.873
			c0.633,0.605,1.028,1.328,1.182,2.168h-1.647c-0.122-0.413-0.352-0.765-0.69-1.056c-0.347-0.277-0.77-0.42-1.267-0.429
			c-0.366,0.019-0.678,0.089-0.936,0.211c-0.282,0.145-0.5,0.324-0.655,0.535c-0.192,0.211-0.326,0.495-0.401,0.852
			c-0.075,0.385-0.113,1.072-0.113,2.062c0,0.507,0.009,0.929,0.028,1.267c0.019,0.338,0.047,0.598,0.084,0.781
			c0.075,0.366,0.209,0.655,0.401,0.866c0.155,0.221,0.373,0.392,0.655,0.514c0.249,0.155,0.561,0.232,0.936,0.232
			c0.873,0,1.525-0.467,1.957-1.401h1.647c-0.221,0.953-0.65,1.685-1.288,2.196C330.404,125.448,329.632,125.702,328.741,125.702z"
			/>
		<path d="M335.181,116.826h-2.808v-1.471h7.179v1.471h-2.808v8.791h-1.562v-8.791L335.181,116.826L335.181,116.826z"/>
		<path d="M340.65,115.355h3.716c0.202,0,0.399,0.009,0.591,0.028s0.385,0.047,0.577,0.084c0.366,0.099,0.746,0.3,1.14,0.605
			c0.314,0.221,0.577,0.547,0.788,0.978c0.211,0.418,0.317,0.908,0.317,1.471c0,0.76-0.267,1.452-0.802,2.076
			c-0.558,0.666-1.361,1.004-2.407,1.014h-2.365v4.005h-1.556L340.65,115.355L340.65,115.355z M344.507,120.141
			c0.577-0.019,1.011-0.197,1.302-0.535c0.277-0.338,0.415-0.713,0.415-1.126c0-0.343-0.056-0.631-0.169-0.866
			c-0.108-0.202-0.272-0.368-0.493-0.5c-0.328-0.202-0.699-0.298-1.112-0.289h-2.245v3.315h2.302V120.141z"/>
		<path d="M351.855,115.355h1.302l3.73,10.262h-1.64l-0.795-2.295h-3.892l-0.788,2.295h-1.647L351.855,115.355z M354.009,121.943
			l-1.485-4.483h-0.028l-1.485,4.483H354.009z"/>
		<path d="M359.724,116.826h-2.808v-1.471h7.179v1.471h-2.808v8.791h-1.563L359.724,116.826L359.724,116.826z"/>
		<path d="M368.508,125.702c-0.404,0-0.774-0.05-1.112-0.151s-0.641-0.248-0.908-0.44c-0.558-0.366-0.957-0.784-1.197-1.253
			l-0.204-0.443c-0.028-0.08-0.054-0.165-0.077-0.257c-0.023-0.091-0.045-0.189-0.063-0.292c-0.07-0.394-0.106-1.187-0.106-2.379
			c0-0.605,0.008-1.105,0.025-1.499c0.016-0.394,0.043-0.692,0.081-0.894c0.075-0.413,0.19-0.739,0.345-0.978
			c0.239-0.465,0.638-0.889,1.197-1.274c0.549-0.38,1.222-0.57,2.02-0.57c0.807,0,1.487,0.19,2.041,0.57
			c0.54,0.375,0.929,0.8,1.168,1.274c0.164,0.23,0.286,0.556,0.366,0.978c0.056,0.404,0.084,1.201,0.084,2.393
			c0,1.173-0.028,1.966-0.084,2.379c-0.08,0.422-0.202,0.753-0.366,0.992c-0.249,0.483-0.638,0.901-1.168,1.253
			c-0.277,0.192-0.583,0.339-0.919,0.44C369.295,125.651,368.921,125.702,368.508,125.702z M368.508,124.146
			c0.375,0,0.697-0.077,0.964-0.232c0.249-0.122,0.455-0.293,0.619-0.514c0.211-0.221,0.35-0.509,0.415-0.866
			c0.07-0.338,0.106-1.021,0.106-2.048c0-0.511-0.007-0.937-0.021-1.277s-0.042-0.602-0.084-0.785
			c-0.066-0.347-0.204-0.631-0.415-0.852c-0.155-0.211-0.361-0.389-0.619-0.535c-0.281-0.131-0.603-0.202-0.964-0.211
			c-0.366,0.019-0.678,0.089-0.936,0.211c-0.281,0.145-0.5,0.324-0.655,0.535c-0.192,0.211-0.326,0.495-0.401,0.852
			c-0.075,0.385-0.113,1.072-0.113,2.062c0,0.507,0.009,0.929,0.028,1.267c0.019,0.338,0.047,0.598,0.084,0.781
			c0.075,0.366,0.209,0.655,0.401,0.866c0.155,0.221,0.373,0.392,0.655,0.514C367.821,124.069,368.133,124.146,368.508,124.146z"/>
		<path d="M373.984,115.355h3.716c0.202,0,0.399,0.009,0.591,0.028s0.385,0.047,0.577,0.084c0.366,0.099,0.746,0.3,1.14,0.605
			c0.314,0.221,0.577,0.547,0.788,0.978c0.211,0.418,0.317,0.908,0.317,1.471c0,0.76-0.267,1.452-0.802,2.076
			c-0.558,0.666-1.361,1.004-2.407,1.014h-2.365v4.005h-1.555L373.984,115.355L373.984,115.355z M377.841,120.141
			c0.577-0.019,1.011-0.197,1.302-0.535c0.277-0.338,0.415-0.713,0.415-1.126c0-0.343-0.056-0.631-0.169-0.866
			c-0.108-0.202-0.272-0.368-0.493-0.5c-0.328-0.202-0.699-0.298-1.112-0.289h-2.245v3.315h2.302V120.141z"/>
		<path d="M385.189,115.355h1.302l3.73,10.262h-1.64l-0.795-2.295h-3.892l-0.788,2.295h-1.647L385.189,115.355z M387.343,121.943
			l-1.485-4.483h-0.028l-1.485,4.483H387.343z"/>
	</g>
</g>
</svg>
