<?xml version="1.0" encoding="utf-8"?>
<!-- Generator: Adobe Illustrator 17.0.0, SVG Export Plug-In . SVG Version: 6.00 Build 0)  -->
<!DOCTYPE svg PUBLIC "-//W3C//DTD SVG 1.1//EN" "http://www.w3.org/Graphics/SVG/1.1/DTD/svg11.dtd">
<svg version="1.1" id="Слой_1" xmlns="http://www.w3.org/2000/svg" xmlns:xlink="http://www.w3.org/1999/xlink" x="0px" y="0px"
	 width="179.99px" height="209.425px" viewBox="343.904 157.14 179.99 209.425"
	 enable-background="new 343.904 157.14 179.99 209.425" xml:space="preserve">
<g>
	<g>
		<path d="M411.874,241.476c-2.152-2.597-5.908-2.989-9.497-2.484c-1.416,0.199-2.855,0.83-4.206,1.284
			c-1.283,0.431-1.944,0.895-2.14-0.342c-0.164-1.036-0.542-1.681-0.985-2.647c-0.724-1.579,2.614-2.145,3.703-2.43
			c3.113-0.813,11.138-1.964,8.267-6.148c-0.1-0.145-0.556-0.376-0.811-0.417c-0.101-0.08-0.217-0.146-0.343-0.192
			c-0.076-0.034-0.147-0.052-0.214-0.056c-0.004-0.001-0.008-0.002-0.012-0.003c-1.013-0.153-1.946-0.518-2.923-0.767
			c-0.198-0.18-0.46-0.342-0.646-0.318c-3.191,0.421-6.286,1.762-9.434,2.457c-2.519,0.556-5.573,0.944-7.18,3.104
			c-0.059,0.079-0.025,0.182,0.052,0.286c-0.048,0.011-0.086,0.034-0.094,0.083c-0.653,3.876,1.669,8.836,3.352,12.185
			c1.157,2.302,1.919,4.623,2.783,7.029c0.493,1.373,0.829,2.939,1.757,4.113c-0.142,0.142,0.422,0.669,0.677,0.712
			c1.132,0.189,2.29,0.214,3.443,0.299c0.116,0.009,0.16-0.034,0.166-0.094c0.013,0,0.024,0.004,0.036,0.004
			c2.359-0.059,4.98-1.468,7.244-2.159c2.648-0.809,4.743-1.867,6.526-3.874C413.841,248.35,414.046,244.097,411.874,241.476z
			 M402.453,227.795c0.091,0.05,0.185,0.093,0.281,0.113c0.594,0.122,1.165,0.298,1.739,0.466c-0.347,0.105-0.695,0.201-1.043,0.301
			c-0.429-0.329-0.922-0.567-1.43-0.793C402.151,227.854,402.301,227.82,402.453,227.795z M401.189,228.046
			c0.066,0.047,0.132,0.089,0.186,0.114c0.474,0.225,1.023,0.399,1.461,0.686c-0.472,0.133-0.948,0.256-1.421,0.384
			c-0.448-0.29-0.876-0.604-1.309-0.912C400.467,228.221,400.827,228.129,401.189,228.046z M399.508,228.486
			c0.037,0.03,0.072,0.056,0.094,0.071c0.401,0.28,0.799,0.562,1.202,0.839c-0.405,0.108-0.809,0.216-1.214,0.324
			c-0.112-0.075-0.234-0.134-0.356-0.153c-0.253-0.04-0.303-0.105-0.473-0.272c-0.161-0.158-0.333-0.298-0.513-0.431
			C398.666,228.736,399.086,228.607,399.508,228.486z M397.667,229.04c0.079,0.059,0.161,0.113,0.224,0.151
			c0.221,0.133,0.38,0.374,0.577,0.535c0.094,0.077,0.193,0.148,0.296,0.215c-0.507,0.134-1.013,0.27-1.519,0.405
			c-0.434-0.204-0.821-0.454-1.168-0.764c-0.015-0.013-0.038-0.03-0.056-0.045C396.57,229.376,397.118,229.209,397.667,229.04z
			 M393.492,230.172c0.655-0.129,1.306-0.293,1.954-0.472c0.021,0.022,0.04,0.041,0.051,0.051c0.325,0.291,0.677,0.549,1.05,0.78
			c-0.147,0.04-0.295,0.078-0.442,0.118c-0.497,0.135-1.054,0.277-1.636,0.432c-0.472-0.308-0.975-0.606-1.519-0.803
			C393.133,230.242,393.314,230.207,393.492,230.172z M392.214,230.422c0.144,0.198,0.4,0.385,0.655,0.435
			c0.344,0.068,0.661,0.221,0.962,0.397c-0.772,0.214-1.572,0.455-2.338,0.738c-0.226-0.185-0.497-0.332-0.777-0.445
			c-0.416-0.168-0.885-0.23-1.308-0.378C390.309,230.837,391.273,230.61,392.214,230.422z M388.878,231.379
			c0.126,0.164,0.338,0.286,0.523,0.371c0.304,0.14,0.643,0.218,0.974,0.3c0.159,0.039,0.32,0.077,0.473,0.129
			c0.028,0.009,0.056,0.022,0.085,0.033c-1.028,0.421-1.963,0.929-2.633,1.57c-0.008,0.008-0.012,0.02-0.02,0.028
			c-0.621-0.182-1.264-0.336-1.811-0.648C387.089,232.347,387.935,231.79,388.878,231.379z M392.008,251.175
			c-0.119-0.465-0.238-0.929-0.366-1.384c0.178,0.093,0.362,0.138,0.485,0.06c0.432-0.275,0.933-0.424,1.431-0.566
			c0.104,0.402,0.213,0.999,0.348,1.683C393.265,250.92,392.647,251.088,392.008,251.175z M394.059,251.72
			c0.092,0.428,0.196,0.875,0.316,1.32c-0.573,0.131-1.132,0.315-1.698,0.477c-0.168-0.496-0.316-1.005-0.453-1.52
			C392.824,251.968,393.452,251.761,394.059,251.72z M390.525,246.927c-0.249-0.476-0.51-0.977-0.779-1.509
			c0.132,0.083,0.264,0.141,0.358,0.134c0.674-0.047,1.345-0.09,2.013-0.068c0.105,0.24,0.208,0.48,0.311,0.721
			c-0.078-0.008-0.15-0.004-0.207,0.034C391.717,246.579,391.107,246.746,390.525,246.927z M392.928,254.167
			c0.09,0.033,0.204,0.133,0.274,0.114c0.478-0.126,0.909-0.401,1.384-0.536c0.08,0.24,0.203,0.586,0.221,0.58l-1.542,0.501
			C392.993,254.159,393.045,254.449,392.928,254.167z M391.41,249.025c-0.152-0.472-0.319-0.931-0.518-1.365
			c0.132,0.065,0.261,0.098,0.357,0.067c0.534-0.171,1.072-0.328,1.567-0.58c0.159,0.401,0.307,0.806,0.448,1.214
			C392.631,248.56,391.992,248.719,391.41,249.025z M386.417,233.698c0.501,0.287,1.057,0.474,1.623,0.643
			c-0.074,0.474,0.052,1.117,0.267,1.805c-0.632-0.131-1.273-0.235-1.911-0.345C386.331,235.077,386.327,234.37,386.417,233.698z
			 M386.468,236.449c0.063,0.028,0.127,0.05,0.191,0.062c0.631,0.112,1.264,0.214,1.891,0.336c0.232,0.618,0.505,1.235,0.749,1.776
			c-0.787-0.188-1.609-0.222-2.432-0.256C386.696,237.721,386.557,237.079,386.468,236.449z M387.05,239.011
			c0.122,0.071,0.257,0.122,0.394,0.128c0.736,0.031,1.472,0.052,2.18,0.199c0.145,0.324,0.26,0.59,0.31,0.754
			c0.079,0.262,0.171,0.52,0.26,0.778c-0.835-0.068-1.681-0.037-2.522-0.055C387.443,240.217,387.23,239.614,387.05,239.011z
			 M388.625,243.098c-0.226-0.498-0.447-1.006-0.657-1.521c0.013,0.001,0.025,0.007,0.037,0.007c0.818,0.035,1.643,0.003,2.46,0.04
			c0.161,0.422,0.334,0.84,0.511,1.257c-0.041-0.003-0.081-0.01-0.122-0.005C390.112,242.975,389.368,243.012,388.625,243.098z
			 M388.972,243.846c0.089,0.028,0.18,0.045,0.275,0.033c0.689-0.092,1.38-0.133,2.07-0.205c0.154,0.351,0.311,0.701,0.467,1.052
			c-0.782-0.057-1.57-0.005-2.362,0.05C389.273,244.472,389.122,244.162,388.972,243.846z M394.21,256.641
			c-0.062-0.077-0.019,0.145-0.048,0.154l1.446-0.469c0.074-0.024,0.324,0.425,0.557,0.664
			C395.532,256.955,394.836,256.715,394.21,256.641z M412.333,246.079c-0.121,4.693-5.167,7.175-9.446,8.482
			c-1.885,0.576-5.791,2.952-6.762,0.198c-0.851-2.411-1.479-4.901-2.246-7.339c-0.724-2.303-6.487-12.08-3.763-13.525
			c1.534-0.814,3.162-1.445,4.836-1.981c0.1,0.026,0.193,0.024,0.252-0.041c0.012-0.014,0.016-0.029,0.022-0.045
			c0.822-0.257,1.654-0.495,2.491-0.719c0.111,0.019,0.229,0.011,0.257-0.069c2.796-0.736,5.64-1.348,8.326-2.198
			c1.821,3.64-8.175,5.036-10.853,6.001c-0.574,0.207-1.663,0.746-1.534,1.419c0.103,0.539,0.213,0.879,0.469,1.379
			c0.601,1.171,0.416,1.965,0.801,3.167c0.478,1.492,2.777,0.548,3.847,0.227c2.399-0.718,4.376-1.478,6.915-1.459
			C410.307,239.611,412.427,242.466,412.333,246.079z"/>
		<path d="M405.488,242.657c-1.158-0.198-2.442,0.224-3.56,0.553c-1.707,0.503-3.646,0.847-5.203,1.703
			c-0.172,0.094-0.047,0.312,0.16,0.494c0.2,0.955,0.103,1.648,0.433,2.576c0.164,0.462,0.478,1.017,0.544,1.017h-0.002
			c-0.189,0,0.095,0.599,0.324,0.791c0.164,0.584,0.251,1.333,0.475,1.911c0.031,0.08,0.177,0.249,0.315,0.34
			c0.215,0.197,0.543,0.401,0.723,0.331c2.029-0.784,4.079-0.891,6.005-2.072c1.658-1.017,3.45-2.629,3.061-4.529
			C408.43,244.149,407.318,242.97,405.488,242.657z M406.264,243.636c-0.314,0.063-0.629,0.111-0.935,0.197
			c-0.101-0.134-0.213-0.261-0.341-0.374C405.474,243.428,405.897,243.499,406.264,243.636z M397.845,245.542
			c1.862-0.949,4.294-1.43,6.298-1.949c0.041-0.011,0.078-0.015,0.119-0.024c0.036,0.021,0.07,0.04,0.103,0.051
			c1.079,0.377,0.481,2.863-0.121,3.468c-1.259,1.265-3.603,1.594-5.401,2.2C398.246,248.056,398.177,246.846,397.845,245.542z
			 M399.49,251.424c-0.096-0.398-0.176-0.799-0.286-1.192c0.232-0.092,0.484-0.178,0.745-0.261c0.258,0.298,0.491,0.61,0.689,0.951
			c0.025,0.044,0.061,0.085,0.098,0.126C400.313,251.167,399.895,251.29,399.49,251.424z M401.38,250.867
			c-0.243-0.382-0.515-0.746-0.834-1.078c0.389-0.114,0.794-0.226,1.2-0.346c0.336,0.168,0.534,0.581,0.754,0.845
			c0.055,0.066,0.13,0.13,0.211,0.191C402.271,250.617,401.824,250.743,401.38,250.867z M403.262,250.297
			c-0.3-0.361-0.577-0.731-0.924-1.036c0.442-0.141,0.872-0.299,1.276-0.48c0.204,0.187,0.37,0.411,0.562,0.609
			c0.121,0.125,0.282,0.258,0.465,0.336C404.2,249.944,403.739,250.132,403.262,250.297z M405.03,249.525
			c-0.023-0.042-0.05-0.079-0.074-0.105c-0.287-0.295-0.544-0.607-0.85-0.88c0.347-0.188,0.66-0.403,0.927-0.651
			c0.357,0.169,0.644,0.451,0.948,0.68c0.039,0.029,0.119,0.082,0.213,0.128C405.839,249.018,405.448,249.291,405.03,249.525z
			 M406.52,248.381c-0.079-0.078-0.167-0.144-0.209-0.176c-0.311-0.234-0.61-0.474-0.935-0.683c0.098-0.126,0.183-0.261,0.257-0.403
			c0.078,0.039,0.159,0.072,0.24,0.086c0.442,0.08,0.869,0.199,1.299,0.31C406.977,247.833,406.761,248.124,406.52,248.381z
			 M407.44,247.016c-0.105-0.065-0.219-0.119-0.334-0.145c-0.425-0.095-0.842-0.211-1.265-0.311c0.05-0.198,0.075-0.403,0.089-0.608
			c0.049,0.007,0.096,0.009,0.137-0.003c0.513-0.154,1.031-0.164,1.548-0.118c0.044,0.004,0.076-0.002,0.101-0.011
			C407.705,246.203,407.619,246.607,407.44,247.016z M407.706,245.519c-0.015-0.024-0.03-0.045-0.043-0.06
			c-0.171-0.195-0.44-0.378-0.731-0.403c-0.349-0.031-0.707-0.031-1.062,0.009c-0.024-0.119-0.059-0.234-0.096-0.348
			c0.02-0.003,0.044,0.002,0.062-0.006c0.414-0.172,0.851-0.23,1.286-0.316c0.073-0.015,0.095-0.055,0.092-0.105
			C407.496,244.629,407.665,245.051,407.706,245.519z"/>
		<path d="M436.014,234.564c-1.316-3.749-3.167-7.583-3.613-11.57c-0.133-1.193-0.516-2.745-1.997-3.106
			c-0.157-0.038-0.325-0.058-0.499-0.07c-1.118-0.598-2.047-1.038-3.446-0.965c-2.061,0.108-4.82,1.204-6.84,1.781
			c-2.713,0.775-7.299,1.605-6.747,4.756c0.797,4.544,3.088,8.736,3.484,13.38c0.32,3.75-3.537,6.135-1.638,9.704
			c0.038,0.071,0.151,0.162,0.286,0.244c0.119,0.461,0.328,0.877,0.618,1.132c1.112,0.98,2.495,0.415,3.864-0.099
			c2.729-1.024,4.429-2.296,4.617-5.013c0.254-3.665-0.557-7.61-1.48-11.073c-0.254-0.953-2.465-5.272-0.897-6.061
			c0.182-0.092,2.032-0.702,3.605-1.195c0.61,0.522,0.685,1.779,0.943,2.465c0.452,1.204,0.96,2.32,1.272,3.576
			c0.734,2.95,2.01,5.651,2.707,8.633c0.53,2.267,0.796,4.928,4.008,4.64c0.175-0.016,0.178-0.122,0.101-0.25
			c0.141,0.047,0.289,0.064,0.444,0.042c1.597-0.225,3.758-0.996,3.869-2.578c0.061-0.868-0.416-1.811-0.709-2.595
			C437.251,238.442,436.687,236.481,436.014,234.564z M428.436,219.953c-0.706,0.149-1.458,0.401-2.2,0.683
			c-0.051-0.015-0.103-0.03-0.157-0.037c-0.2-0.026-0.341-0.15-0.483-0.264c-0.131-0.105-0.262-0.208-0.395-0.308
			C426.369,219.856,427.478,219.809,428.436,219.953z M424.51,220.14c0.06,0.041,0.118,0.077,0.166,0.105
			c0.291,0.173,0.528,0.419,0.802,0.613c0.025,0.017,0.051,0.031,0.076,0.048c-0.322,0.131-0.634,0.262-0.94,0.391
			c-0.561-0.028-1.098-0.556-1.485-0.859C423.592,220.326,424.054,220.223,424.51,220.14z M422.547,220.589
			c0.083,0.086,0.182,0.16,0.227,0.195c0.371,0.285,0.751,0.555,1.157,0.8c-0.3,0.125-0.577,0.236-0.84,0.337
			c-0.269-0.024-0.487-0.257-0.671-0.408c-0.278-0.228-0.556-0.449-0.861-0.646C421.887,220.77,422.216,220.676,422.547,220.589z
			 M421.012,221.037c0.108,0.117,0.26,0.215,0.365,0.278c0.391,0.234,0.723,0.553,1.087,0.827c-0.23,0.069-0.54,0.153-0.899,0.248
			c-0.031-0.019-0.065-0.041-0.091-0.057c-0.295-0.173-0.524-0.438-0.774-0.657c-0.155-0.136-0.32-0.262-0.495-0.376
			C420.472,221.211,420.741,221.123,421.012,221.037z M419.578,221.518c0.074,0.044,0.148,0.084,0.22,0.113
			c0.264,0.108,0.458,0.335,0.656,0.516c0.158,0.145,0.323,0.28,0.496,0.408c-0.362,0.097-0.756,0.206-1.161,0.322
			c-0.042-0.022-0.084-0.045-0.124-0.063c-0.435-0.195-0.765-0.538-1.112-0.832c-0.02-0.017-0.05-0.039-0.075-0.059
			C418.834,221.788,419.201,221.652,419.578,221.518z M417.952,222.132c0.008,0.007,0.017,0.016,0.022,0.021
			c0.383,0.324,0.761,0.639,1.178,0.914c-0.353,0.108-0.708,0.223-1.054,0.344c-0.371-0.232-0.688-0.518-1.019-0.798
			c-0.028-0.024-0.066-0.053-0.103-0.081C417.288,222.401,417.612,222.267,417.952,222.132z M415.754,223.07
			c0.219-0.101,0.461-0.209,0.713-0.319c0.014,0.014,0.026,0.025,0.034,0.032c0.339,0.287,0.674,0.573,1.034,0.834
			c-0.297,0.114-0.577,0.235-0.841,0.358c-0.017-0.002-0.038-0.01-0.054-0.009c-0.538,0.04-0.901-0.419-1.241-0.718
			C415.51,223.188,415.627,223.129,415.754,223.07z M414.942,223.524c0.311,0.273,0.656,0.583,1.042,0.826
			c-0.311,0.19-0.561,0.389-0.733,0.597c-0.173-0.111-0.339-0.229-0.486-0.37c-0.117-0.112-0.361-0.278-0.58-0.297
			C414.348,224.016,414.588,223.765,414.942,223.524z M414.036,224.577c0.056,0.077,0.124,0.144,0.15,0.17
			c0.252,0.242,0.541,0.443,0.84,0.632c-0.021,0.094-0.028,0.189-0.011,0.286c0.082,0.448,0.172,0.893,0.267,1.337
			c-0.011-0.002-0.022-0.006-0.034-0.007c-0.28-0.026-0.438-0.184-0.624-0.351c-0.12-0.108-0.351-0.273-0.567-0.297
			C413.901,225.671,413.839,225.093,414.036,224.577z M414.212,226.951c0.358,0.303,0.756,0.573,1.223,0.716
			c0.083,0.362,0.179,0.72,0.269,1.079c-0.021-0.003-0.045-0.011-0.063-0.01c-0.385,0.037-0.577-0.161-0.811-0.392
			c-0.063-0.062-0.167-0.139-0.282-0.202C414.437,227.746,414.321,227.349,414.212,226.951z M414.782,228.972
			c0.326,0.244,0.703,0.448,1.108,0.518c0.134,0.511,0.274,1.021,0.416,1.53c-0.363-0.107-0.704-0.252-1.045-0.401
			C415.101,230.069,414.94,229.521,414.782,228.972z M415.654,231.971c-0.069-0.233-0.135-0.467-0.204-0.701
			c0.342,0.148,0.687,0.286,1.041,0.406c0.161,0.565,0.326,1.129,0.49,1.692c-0.03-0.01-0.06-0.025-0.09-0.032
			c-0.214-0.055-0.386-0.199-0.547-0.327c-0.107-0.085-0.277-0.214-0.454-0.273C415.809,232.479,415.728,232.223,415.654,231.971z
			 M416.118,233.45c0.318,0.233,0.662,0.434,1.052,0.565c0.143,0.491,0.284,0.983,0.426,1.475c-0.335-0.117-0.601-0.315-0.852-0.538
			c-0.049-0.043-0.119-0.096-0.195-0.147C416.407,234.349,416.262,233.896,416.118,233.45z M416.783,235.599
			c0.307,0.21,0.638,0.389,0.997,0.53c0.02,0.072,0.042,0.143,0.062,0.214c0.111,0.391,0.208,0.779,0.298,1.167
			c-0.302-0.243-0.642-0.446-1.023-0.587C417.02,236.48,416.908,236.038,416.783,235.599z M417.239,237.546
			c0.011,0.004,0.022,0.011,0.033,0.015c0.218,0.076,0.387,0.17,0.534,0.331c0.121,0.132,0.294,0.272,0.489,0.347
			c0.109,0.564,0.187,1.131,0.243,1.702c-0.338-0.379-0.727-0.715-1.135-1.037C417.375,238.451,417.319,237.998,417.239,237.546z
			 M417.397,240.158c0.016-0.198,0.022-0.396,0.024-0.594c0.211,0.191,0.408,0.396,0.568,0.623c0.138,0.196,0.353,0.366,0.602,0.452
			c0.024,0.434,0.028,0.875,0.018,1.32c-0.036-0.023-0.073-0.047-0.103-0.065c-0.348-0.209-0.713-0.397-1-0.672
			c-0.058-0.056-0.152-0.125-0.254-0.185C417.321,240.748,417.373,240.455,417.397,240.158z M417.102,241.54
			c0.407,0.342,0.883,0.609,1.347,0.889c0.023,0.014,0.074,0.039,0.136,0.062c-0.032,0.423-0.115,0.796-0.229,1.143
			c-0.076-0.038-0.154-0.069-0.233-0.086c-0.004-0.001-0.005-0.001-0.009-0.002c-0.014-0.012-0.028-0.022-0.04-0.034
			c-0.103-0.105-0.195-0.22-0.288-0.333c-0.186-0.225-0.374-0.45-0.605-0.638c-0.086-0.07-0.216-0.169-0.357-0.237
			C416.925,242.051,417.021,241.797,417.102,241.54z M416.64,242.746c0.272,0.236,0.465,0.542,0.714,0.797
			c0.226,0.232,0.493,0.444,0.8,0.592c-0.132,0.274-0.293,0.528-0.479,0.769c-0.071-0.025-0.142-0.038-0.211-0.032
			c-0.577,0.046-0.966-0.413-1.393-0.672c-0.013-0.008-0.039-0.02-0.068-0.034C416.211,243.697,416.434,243.225,416.64,242.746z
			 M415.817,244.604c0.071,0.051,0.142,0.097,0.198,0.131c0.246,0.149,0.596,0.426,0.901,0.597c0.084,0.047,0.173,0.091,0.265,0.131
			c-0.434,0.431-0.956,0.833-1.558,1.25c-0.147-0.071-0.288-0.108-0.379-0.087C415.311,245.953,415.536,245.281,415.817,244.604z
			 M432.538,242.386c-0.39,0.116-0.773,0.128-1.158,0.08c-0.063-0.282-0.114-0.564-0.158-0.832c0.378,0.162,0.787,0.279,1.21,0.296
			c0.04,0.154,0.081,0.306,0.123,0.456C432.55,242.387,432.543,242.384,432.538,242.386z M430.705,237.935
			c-0.071-0.037-0.396-0.187-0.507-0.089c-0.115-0.303-0.232-0.605-0.349-0.907c0.503,0.192,1.074,0.164,1.631,0.099
			c0.056,0.29,0.119,0.666,0.19,1.089c-0.027-0.003-0.054-0.014-0.08-0.012C431.264,238.136,430.977,238.076,430.705,237.935z
			 M431.797,238.868c0.044,0.255,0.092,0.522,0.142,0.795c-0.017,0.002-0.037-0.002-0.053,0.003
			c-0.417,0.147-0.786-0.333-1.085-0.522c-0.037-0.023-0.106-0.068-0.187-0.111c-0.085-0.257-0.17-0.514-0.263-0.768
			c0.098,0.087,0.213,0.161,0.297,0.204C431,238.652,431.386,238.809,431.797,238.868z M431.009,240.393
			c-0.05-0.213-0.114-0.42-0.174-0.628c0.372,0.274,0.8,0.594,1.259,0.693c0.044,0.215,0.09,0.432,0.139,0.649
			c-0.375,0.085-0.774,0.061-1.108-0.082C431.086,240.783,431.049,240.566,431.009,240.393z M430.894,236.249
			c-0.398,0.049-0.932,0.148-1.308,0.009c-0.178-0.466-0.35-0.933-0.505-1.407c0.588,0.236,1.221,0.337,1.862,0.423
			c0.119,0.351,0.234,0.706,0.355,1.055C431.173,236.268,431.036,236.232,430.894,236.249z M430.605,234.543
			c-0.586-0.076-1.185-0.137-1.722-0.349c-0.04-0.142-0.084-0.283-0.12-0.428c-0.071-0.286-0.153-0.564-0.233-0.844
			c0.556,0.256,1.164,0.391,1.786,0.487c0.127,0.389,0.261,0.77,0.389,1.157C430.672,234.559,430.64,234.548,430.605,234.543z
			 M429.835,232.772c-0.602-0.08-1.078-0.225-1.614-0.466c-0.095-0.302-0.132-0.622-0.234-0.92c0.059,0.019-0.082,0.1-0.02,0.109
			c0.509,0.075,0.575,0.336,1.319,0.305c0.114,0.351,0.228,0.701,0.341,1.052C429.627,232.848,429.843,232.773,429.835,232.772z
			 M429.246,230.891c-0.494-0.019-0.967-0.127-1.446-0.212c-0.182-0.507-0.369-1.014-0.562-1.524
			c0.029,0.007,0.057,0.017,0.087,0.021c0.549,0.082,1.135,0.09,1.666,0.234c0.179,0.514,0.352,1.031,0.524,1.549
			C429.428,230.923,429.339,230.894,429.246,230.891z M426.97,228.442c-0.01-0.027-0.02-0.053-0.03-0.079
			c-0.15-0.399-0.222-0.74-0.322-1.052c0.077,0.029,0.155,0.049,0.234,0.049c0.481,0.004,0.95,0.079,1.427,0.098
			c0.164,0.421,0.313,0.852,0.467,1.28C428.171,228.573,427.573,228.516,426.97,228.442z M426.246,226.587
			c-0.093-0.118-0.2-0.236-0.344-0.354c0.936-0.288,1.665-0.497,1.68-0.462c0.133,0.299,0.258,0.604,0.383,0.909
			C427.385,226.702,426.823,226.6,426.246,226.587z M433.577,244.949c-1.117,0.1-1.685-0.76-2.013-1.793
			c0.029,0.009,0.058,0.023,0.087,0.028c0.39,0.069,0.781,0.101,1.174,0.064c0.246,0.704,0.532,1.31,0.867,1.719
			C433.652,244.956,433.611,244.946,433.577,244.949z M435,234.157c0.906,2.515,1.868,5.068,2.558,7.652
			c0.459,1.72-0.802,1.938-2.143,2.502c-1.429,0.601-1.187,0.129-1.512-1.052c-0.582-2.116-0.849-4.278-1.54-6.375
			c-0.928-2.817-2.02-5.582-2.963-8.397c-1.154-3.446-1.412-3.983-5.514-2.598c-1.241,0.419-3.973,0.583-3.752,2.227
			c0.432,3.221,1.868,6.235,2.402,9.466c0.434,2.619,1.421,6.876-0.437,9.4c-0.783,1.063-2.237,1.561-3.473,2.012
			c-1.455,0.531-3.6,0.424-2.564-1.475c0.14,0.052,0.274,0.067,0.368,0.003c2.481-1.694,3.101-2.704,3.249-5.427
			c0.139-2.553-0.708-4.984-1.405-7.368c-0.15-0.512-0.6-1.64-1.05-2.953c0.033-0.048,0.033-0.118-0.021-0.205
			c-0.023-0.037-0.055-0.072-0.085-0.107c-0.839-2.504-1.598-5.537-0.314-6.281c1.253-0.726,3.026-1.025,4.396-1.524
			c1.94-0.707,3.898-1.363,5.859-2.007c0.91-0.299,1.764-0.709,2.686-0.985c1.729-0.518,1.873,3.439,2.133,4.357
			C432.755,228.119,433.91,231.133,435,234.157z"/>
		<path d="M476.039,206.493c-0.298-0.528-0.61-0.837-0.972-0.98c-0.129-0.093-0.278-0.167-0.432-0.216
			c-0.499-0.158-1.036-0.182-1.546-0.307c-0.491-0.12-0.907-0.387-1.395-0.523c-0.203-0.156-0.449-0.272-0.603-0.214
			c-2.926,1.098-5.942,1.751-8.783,3.073c-1.827,0.85-4.183,1.117-5.735,2.379c-0.143-0.033-0.263-0.021-0.298,0.082
			c-0.957,2.828,1.745,6.988,2.733,9.402c1.79,4.377,2.672,9.35,4.923,13.504c0.006,0.031,0.014,0.063,0.042,0.1
			c0.266,0.359,0.608,0.608,1.037,0.806c0.221,0.102,0.64,0.166,0.785,0.259c0.099,0.064,0.427,0.279,0.603,0.195
			c0.208,0.215,0.541,0.424,0.745,0.363c0.619-0.183,3.285-0.466,3.748-0.98c0.642-0.712-0.146-2.148-0.381-2.789
			c-1.701-4.633-3.099-9.383-4.711-14.048c-0.584-1.688-1.753-3.286,0.746-4.286c1.698-0.68,3.676-1.001,5.439-1.45
			C475.19,210.045,477.769,209.564,476.039,206.493z M471.799,205.064c0.096,0.055,0.198,0.102,0.302,0.129
			c0.449,0.114,0.837,0.349,1.273,0.494c-0.166,0.064-0.34,0.136-0.525,0.22c-0.043,0.019-0.087,0.037-0.131,0.056
			c-0.005-0.002-0.01-0.005-0.015-0.007c-0.524-0.195-1.03-0.421-1.513-0.68C471.394,205.205,471.598,205.138,471.799,205.064z
			 M470.559,205.485c0.064,0.044,0.126,0.084,0.176,0.115c0.406,0.251,0.842,0.464,1.29,0.658c-0.324,0.131-0.652,0.254-0.982,0.374
			c-0.032-0.012-0.063-0.027-0.096-0.037c-0.569-0.175-1.076-0.441-1.546-0.755C469.788,205.724,470.175,205.608,470.559,205.485z
			 M468.808,206.016c0.463,0.336,0.957,0.631,1.483,0.879c-0.284,0.096-0.572,0.183-0.859,0.272
			c-0.127-0.074-0.268-0.127-0.419-0.148c-0.582-0.082-1.16-0.283-1.643-0.571C467.848,206.3,468.328,206.157,468.808,206.016z
			 M466.77,206.637c0.045,0.037,0.086,0.067,0.112,0.084c0.468,0.313,0.986,0.564,1.534,0.755c-0.274,0.08-0.55,0.157-0.825,0.234
			c-0.092-0.04-0.188-0.073-0.29-0.085c-0.573-0.071-1.068-0.396-1.576-0.632C466.07,206.869,466.419,206.75,466.77,206.637z
			 M465.186,207.194c0.127,0.156,0.329,0.283,0.507,0.351c0.331,0.127,0.642,0.282,0.956,0.427
			c-0.407,0.112-0.814,0.223-1.221,0.335c-0.453-0.211-0.903-0.426-1.349-0.648C464.443,207.491,464.812,207.338,465.186,207.194z
			 M463.476,207.913c0.035,0.021,0.071,0.045,0.1,0.061c0.359,0.192,0.727,0.369,1.098,0.543c-0.286,0.08-0.57,0.165-0.854,0.248
			c-0.057-0.024-0.115-0.045-0.173-0.054c-0.462-0.07-0.881-0.237-1.308-0.39C462.732,208.189,463.117,208.055,463.476,207.913z
			 M461.633,208.557c0.148,0.144,0.347,0.259,0.55,0.31c0.217,0.055,0.426,0.128,0.634,0.202c-0.429,0.134-0.855,0.276-1.278,0.423
			c-0.028-0.013-0.057-0.029-0.084-0.039c-0.406-0.141-0.815-0.274-1.216-0.422C460.697,208.865,461.167,208.709,461.633,208.557z
			 M459.638,209.26c0.127,0.131,0.301,0.237,0.459,0.304c0.202,0.084,0.409,0.156,0.617,0.228c-0.57,0.216-1.133,0.448-1.682,0.706
			c-0.047,0.022-0.089,0.051-0.13,0.08c-0.048-0.012-0.096-0.026-0.145-0.028c-0.368-0.013-0.68-0.164-0.997-0.306
			C458.296,209.853,458.944,209.538,459.638,209.26z M460.982,220.79c-0.417-0.001-0.528-0.225-0.9-0.357
			c-0.152-0.383-0.681-0.643-0.83-1.026c0.392,0.176,0.816,0.349,0.864,0.497l0.004,0.011
			C460.233,220.263,460.867,220.442,460.982,220.79z M463.71,227.235c-0.397-0.029-0.782-0.095-1.162-0.177
			c-0.119-0.385-0.238-0.771-0.354-1.157c0.387,0.184,0.788,0.329,1.227,0.405c0.106,0.311,0.211,0.623,0.317,0.934
			C463.728,227.24,463.719,227.236,463.71,227.235z M463.981,227.96c0.146,0.431,0.291,0.864,0.436,1.295
			c-0.018-0.002-0.039-0.01-0.054-0.008c-0.39,0.039-0.779,0.004-1.136-0.111c-0.162-0.461-0.316-0.926-0.466-1.394
			C463.16,227.839,463.567,227.912,463.981,227.96z M462.937,225.566c-0.342-0.04-0.641-0.167-0.93-0.317
			c-0.003-0.001-0.009-0.004-0.012-0.006c-0.114-0.377-0.229-0.753-0.345-1.128c0.343,0.094,0.698,0.148,1.066,0.118
			c0.159,0.467,0.318,0.935,0.477,1.402C463.11,225.602,463.026,225.576,462.937,225.566z M462.046,223.46
			c-0.209,0.035-0.413,0.017-0.612-0.024c-0.107-0.335-0.214-0.67-0.327-1c0.357,0.124,0.726,0.265,1.111,0.335
			c0.089,0.263,0.179,0.526,0.268,0.788C462.35,223.485,462.198,223.435,462.046,223.46z M460.879,221.769
			c-0.004-0.001-0.011-0.003-0.015-0.005c-0.089-0.246-0.173-0.495-0.267-0.737c0.372,0.132,0.748,0.27,1.145,0.335
			c0.075,0.224,0.151,0.447,0.226,0.671C461.581,222.025,461.234,221.892,460.879,221.769z M459.617,218.518
			c-0.149-0.387-0.298-0.774-0.448-1.16c0.39,0.124,0.783,0.242,1.172,0.368c0.168,0.387,0.322,0.736,0.451,1.035
			C460.347,218.879,459.982,218.691,459.617,218.518z M458.903,216.679c-0.202-0.508-0.408-1.014-0.626-1.516
			c0.073,0.026,0.148,0.046,0.226,0.054c0.276,0.028,0.551,0.053,0.827,0.035c0.228,0.613,0.476,1.222,0.716,1.786
			C459.665,216.917,459.283,216.801,458.903,216.679z M463.479,229.814c0.378,0.132,0.785,0.214,1.201,0.219
			c0.141,0.42,0.277,0.843,0.416,1.264c-0.406-0.149-0.807-0.307-1.213-0.456C463.743,230.502,463.607,230.16,463.479,229.814z
			 M457.248,210.617c0.107,0.068,0.224,0.122,0.341,0.145c0.28,0.055,0.515,0.188,0.764,0.302c0.061,0.028,0.127,0.043,0.19,0.066
			c-0.097,0.346-0.088,0.8-0.011,1.314c-0.071-0.025-0.142-0.038-0.212-0.035c-0.347,0.017-0.689,0.006-1.03-0.017
			C457.164,211.784,457.121,211.174,457.248,210.617z M457.48,213.124c0.396,0.048,0.794,0.067,1.197,0.062
			c0.096,0.397,0.221,0.816,0.363,1.242c-0.053-0.006-0.106-0.012-0.156,0.002c-0.306,0.085-0.608,0.058-0.91,0.027
			C457.799,214.044,457.623,213.591,457.48,213.124z M465.256,233.093c-0.106-0.033-0.213-0.063-0.318-0.1
			c-0.027-0.009-0.04-0.016-0.057-0.024c-0.254-0.466-0.486-0.946-0.703-1.434c0.38,0.141,0.756,0.287,1.136,0.427
			c0.144,0.438,0.292,0.874,0.432,1.314C465.595,233.204,465.424,233.146,465.256,233.093z M473.216,209.513
			c-2.678,0.908-5.544,1.244-8.173,2.297c-2.294,0.919-0.741,2.996-0.262,4.381c1.266,3.655,2.465,7.332,3.699,10.998
			c0.457,1.358,0.9,2.719,1.38,4.069c0.661,1.856-1.537,1.925-3.156,2.292c-2.151-6.738-4.519-13.725-6.961-20.365
			c-0.886-2.409,0.94-2.866,3.005-3.536l3.139-1.019c0.105-0.034,0.214-0.07,0.264-0.086l2.88-0.935
			c1.494-0.485,3.14-0.618,4.586-1.227C476.357,205.229,475.458,208.753,473.216,209.513z"/>
		<g>
			<path d="M458.279,222.503c-1.383-3.375-3.178-7.511-7.341-8.567c-1.347-0.342-2.829-0.293-4.302-0.001
				c-2.46,0.045-4.648,0.153-6.921,1.372c-0.039,0.014-0.079,0.018-0.118,0.036c-0.018,0.008-0.048,0.038-0.083,0.076
				c-0.493,0.278-0.989,0.606-1.495,1.001c-1.531,1.199-2.79,2.528-3.115,4.358c-0.822,4.634,0.299,8.183,1.562,12.515
				c1.188,4.075,3.708,6.149,7.972,6.833c3.389,1.109,7.959,0.092,10.855-1.913C461.074,234.21,460.402,227.684,458.279,222.503z
				 M444.241,214.615c-0.566,0.207-1.116,0.443-1.645,0.695c-0.531,0.137-1.089,0.022-1.639-0.057
				C442.047,214.882,443.138,214.725,444.241,214.615z M437.65,217.242c0,0.007-0.002,0.017,0.003,0.019
				c0.264,0.127,0.724,0.029,1.032,0.011c0.386-0.024,0.752-0.061,1.132-0.148c0.062-0.014,0.213-0.298,0.228-0.295
				c-0.322-0.064-0.643-0.076-0.974-0.098c-0.239-0.016-0.49-0.065-0.735-0.062c0.171-0.13,0.335-0.263,0.523-0.387
				c0.145-0.096,0.29-0.177,0.435-0.262c0.472,0.117,1.138,0.024,1.619,0.005c0.144-0.006,0.275-0.022,0.403-0.042
				c-0.152,0.087-0.308,0.172-0.453,0.261c-0.09,0.055-0.186,0.198-0.271,0.355c-0.816,0.486-1.505,1.152-2.083,1.92
				c0.024-0.04,0.044-0.071,0.052-0.07c-0.613-0.091-1.302-0.104-1.958-0.014C436.899,218.02,437.243,217.62,437.65,217.242z
				 M435.355,221.183c0.519-0.062,1.06-0.121,1.484-0.41c0.036-0.025,0.239-0.304,0.231-0.306c-0.225-0.06-0.581-0.001-0.827,0
				c-0.232,0.001-0.465,0.01-0.697,0.038c0.151-0.457,0.34-0.905,0.583-1.339c0.15-0.022,0.301-0.052,0.456-0.079
				c0.582-0.103,1.133-0.27,1.724-0.314c0.003,0,0.008-0.008,0.011-0.009c-0.735,1.049-1.254,2.272-1.586,3.507
				c-0.4,0.086-0.804-0.113-1.179,0.103c-0.079,0.046-0.449,0.579-0.395,0.587c0.226,0.036,0.483-0.086,0.708-0.142
				c0.269-0.067,0.508-0.183,0.742-0.328c0.035-0.022,0.07-0.086,0.104-0.142c-0.137,0.525-0.236,1.05-0.305,1.565
				c-0.276,0.001-0.513-0.033-0.807,0.164c-0.148,0.1-0.252,0.269-0.339,0.41c-0.007,0.011-0.069,0.126-0.097,0.208
				C435.056,223.518,435.082,222.327,435.355,221.183z M435.458,226.535c0.185-0.093,0.368-0.194,0.519-0.316
				c0.049-0.039,0.36-0.389,0.308-0.429c-0.207-0.16-0.6,0.134-0.757,0.292c-0.047,0.048-0.089,0.102-0.129,0.156
				c-0.093-0.485-0.174-0.975-0.224-1.469c0.004,0,0.001,0.007,0.006,0.006c0.413-0.141,0.791-0.37,1.19-0.543
				c-0.117,1.103-0.075,2.145,0.13,2.999c0.048,0.201,0.097,0.401,0.146,0.601c-0.303,0.134-0.525,0.333-0.706,0.594
				C435.761,227.814,435.593,227.184,435.458,226.535z M436.107,228.989c-0.044-0.135-0.081-0.28-0.123-0.418
				c0.209-0.212,0.414-0.381,0.717-0.52c0.139,0.567,0.285,1.125,0.437,1.68c-0.234,0.175-0.452,0.339-0.635,0.562
				C436.371,229.845,436.241,229.407,436.107,228.989z M436.567,230.512c0.143-0.246,0.396-0.452,0.598-0.659
				c0.002-0.002,0.004-0.005,0.006-0.007c0.18,0.654,0.378,1.297,0.593,1.93c-0.101,0.033-0.202,0.069-0.31,0.134
				c-0.154,0.094-0.257,0.206-0.357,0.329C436.907,231.659,436.733,231.078,436.567,230.512z M437.227,232.625
				c0.184-0.156,0.36-0.34,0.532-0.434c0.04-0.022,0.073-0.064,0.107-0.104c0.175,0.497,0.368,0.986,0.577,1.467
				c-0.228,0.177-0.442,0.371-0.626,0.583C437.598,233.645,437.403,233.138,437.227,232.625z M437.934,234.395
				c0.176-0.187,0.336-0.389,0.499-0.575c0.029-0.033,0.049-0.072,0.076-0.107c0.205,0.463,0.434,0.915,0.679,1.361
				c-0.207,0.188-0.373,0.437-0.485,0.692C438.417,235.33,438.158,234.874,437.934,234.395z M438.856,236.005
				c0.082-0.115,0.156-0.235,0.195-0.36c0.013-0.04,0.025-0.081,0.038-0.121c0.025-0.12,0.035-0.14,0.03-0.058
				c0.073-0.047,0.134-0.118,0.187-0.193c0.232,0.409,0.489,0.809,0.762,1.202c-0.162,0.132-0.313,0.279-0.438,0.446
				C439.35,236.634,439.087,236.333,438.856,236.005z M439.743,237.029c0.049-0.082,0.103-0.16,0.175-0.221
				c0.064-0.054,0.13-0.174,0.187-0.279c0.286,0.411,0.606,0.809,0.944,1.201c-0.047,0.044-0.118,0.109-0.193,0.185
				c-0.239-0.145-0.474-0.308-0.705-0.497C440.005,237.298,439.877,237.161,439.743,237.029z M459.118,231.64
				c-0.159,5.288-5.444,7.112-10.008,7.68c-4.08,0.508-6.797-1.72-8.706-4.51c-3.118-4.557-6.21-14.628,0.965-18.114
				c3.675-1.659,7.863-2.585,11.337-0.654c2.342,1.302,3.85,5.256,4.847,7.516C458.678,226.112,459.203,228.815,459.118,231.64z"/>
			<path d="M449.07,219.1c-1.767-0.576-3.603,0.161-4.977,1.28c-2.562,1.267-2.158,4.644-1.824,6.686
				c0.737,4.513,4.643,11.096,10.46,6.631c2.903-2.228,1.327-5.776,0.698-8.307C452.761,222.713,452.158,220.107,449.07,219.1z
				 M449.476,220.809c1.055,0.619,1.923,1.624,2.456,2.848c0.273,0.625,0.625,1.49,0.941,2.451
				c-0.213-0.018-0.434,0.089-0.637,0.164c-0.296,0.109-0.592,0.217-0.892,0.314c-0.043,0.014-0.092,0.061-0.141,0.12
				c-0.032-0.142-0.064-0.284-0.099-0.425c0.18-0.059,0.356-0.133,0.523-0.223c0.16-0.086,0.277-0.298,0.36-0.438
				c0.011-0.019,0.19-0.346,0.082-0.308c-0.38,0.132-0.716,0.348-1.088,0.496c-0.081-0.3-0.166-0.598-0.26-0.888
				c0.233-0.066,0.459-0.146,0.656-0.265c0.088-0.054,0.47-0.633,0.419-0.636c-0.253-0.014-0.487,0.105-0.723,0.196
				c-0.174,0.067-0.349,0.134-0.524,0.201c-0.138-0.385-0.285-0.759-0.448-1.109c0.198-0.069,0.389-0.146,0.551-0.247
				c0.082-0.051,0.449-0.6,0.403-0.603c-0.24-0.017-0.477,0.126-0.698,0.217c-0.156,0.064-0.314,0.125-0.471,0.187
				c-0.109-0.208-0.222-0.409-0.341-0.598c0.151-0.036,0.301-0.071,0.452-0.117c0.173-0.054,0.316-0.523,0.352-0.535
				c-0.337,0.114-0.66,0.252-0.983,0.394c-0.216-0.311-0.443-0.601-0.692-0.838c0.234-0.087,0.473-0.157,0.707-0.262
				C449.413,220.89,449.445,220.852,449.476,220.809z M443.111,221.54c-0.131,0.306-0.197,0.576,0.065,0.33
				c2.016-1.9,4.176-2.088,5.913-1.26c-0.21,0.105-0.41,0.232-0.586,0.36c-0.008,0.006-0.015,0.018-0.022,0.025
				c-0.899-0.751-2.001-0.982-3.338-0.345c-0.062,0.029-0.14,0.228-0.185,0.234c1.865-0.243,3.24,0.865,4.217,2.557
				c-0.04,0.074-0.085,0.166-0.039,0.153c0.034-0.01,0.072-0.02,0.107-0.03c0.243,0.435,0.458,0.909,0.651,1.405
				c-0.043,0.077-0.095,0.182-0.044,0.169c0.032-0.008,0.066-0.016,0.098-0.024c1.172,3.104,1.431,7.081,1.121,8.979
				C445.483,236.329,440.282,225.797,443.111,221.54z M452.378,233.337c-0.273,0.212-0.547,0.379-0.821,0.526
				c0.081-0.134,0.143-0.255,0.156-0.318c0.058-0.289,0.092-0.681,0.104-1.139c0.255,0.048,0.511,0.093,0.779,0.079
				c0.228-0.012,0.652-0.853,0.555-0.869c-0.371-0.061-0.766-0.021-1.149-0.002c-0.052,0.003-0.116,0.06-0.181,0.14
				c-0.004-0.232-0.011-0.473-0.025-0.727c0.245,0.026,0.497,0.034,0.714-0.069c0.14-0.067,0.718-0.815,0.531-0.899
				c-0.287-0.129-0.748,0.09-1.069,0.151c-0.058,0.011-0.138,0.103-0.216,0.217c-0.013-0.168-0.027-0.337-0.044-0.511
				c0.034-0.001,0.067,0.002,0.101,0.001c0.25-0.008,0.355-0.032,0.541-0.198c0.117-0.105,0.603-0.658,0.456-0.801
				c-0.03-0.029-0.06-0.058-0.09-0.087c-0.017,0.001-0.034,0.001-0.05,0.002c-0.352,0.092-0.692,0.214-1.048,0.293
				c-0.026-0.2-0.051-0.4-0.082-0.604c0.386-0.065,0.783-0.145,1.072-0.371c0.082-0.064,0.612-0.752,0.456-0.801
				c-0.21-0.065-0.402,0.049-0.615,0.117c-0.316,0.101-0.62,0.215-0.926,0.342c-0.033,0.014-0.064,0.04-0.095,0.066
				c-0.034-0.194-0.066-0.387-0.105-0.582c0.41-0.069,0.833-0.165,1.154-0.399c0.058-0.043,0.342-0.422,0.44-0.637
				C453.727,228.766,454.235,231.895,452.378,233.337z"/>
		</g>
	</g>
	<g>
		<path fill="#FFFFFF" d="M436.244,340.778c-0.764,0.248,1.239,2.323,2.073,2.052C439.081,342.582,437.078,340.507,436.244,340.778z
			"/>
		<path fill="#8EA031" d="M521.199,311.733c-0.056-0.074-0.15-0.16-0.262-0.249c-10.934-25.043-18.661-51.325-27.597-77.115
			c-7.776-22.44-12.664-46.096-25.508-66.42c-0.586-0.928-2.239-2.19-3.426-1.768c-4.444,1.579-8.867,3.202-13.287,4.831
			c-2.457-2.93-5.664-5.331-9.339-6.858c-4.779-1.987-10.33-1.975-14.906,0.496c-2.27,1.226-3.876,2.948-4.994,4.946
			c-5.354-2.349-11.809-2.609-16.894,0.484c-2.246,1.366-3.81,3.242-4.88,5.387c-0.346-0.19-0.69-0.389-1.04-0.557
			c-10.892-5.251-21.417-0.21-25.589,8.584c-12.225-5.857-31.469,9.507-22.025,21.816c-2.05,0.534-4.101,1.064-6.163,1.566
			c-0.461,0.112,0.475,1.343,0.91,1.27c1.408-0.238,2.811-0.498,4.211-0.766c-0.68,10.067,4.298,19.664,8.162,28.669
			c5.509,12.836,9.937,26.256,14.455,39.468c5.037,14.727,10.199,29.378,15.958,43.841c5.176,12.998,11.332,25.602,15.767,38.876
			c-0.953,0.219-1.903,0.445-2.863,0.642c-3.473-10.305-8.939-19.831-12.586-30.096c-4.821-13.571-9.394-27.227-14.34-40.754
			c-9.744-26.643-18.289-53.752-29.391-79.876c-0.176-0.414-1.895-1.595-1.643-0.84c8.605,25.698,17.462,51.334,26.52,76.877
			c4.498,12.684,8.837,25.417,13.209,38.145c4.386,12.768,11.318,24.632,15.153,37.533c0.332,1.117,2.259,2.34,3.431,2.125
			c20.533-3.77,39.582-12.371,58.767-20.283c20.478-8.446,42.947-12.129,62.662-22.297c0.166-0.083,0.239-0.217,0.22-0.402
			C523.566,316.124,522.939,314.04,521.199,311.733z M438.119,165.089c4.652,0.34,8.642,2.896,11.295,6.543
			c-5.605,2.073-11.199,4.167-16.786,6.269c-2.092-2.646-4.724-4.946-7.668-6.71C427.785,167.199,432.007,164.642,438.119,165.089z
			 M424.2,172.357c2.697,1.475,4.995,3.621,6.72,6.187c-3.399,1.279-6.801,2.539-10.201,3.811
			C421.342,178.738,422.456,175.251,424.2,172.357z M419.859,170.674c0.446,0.104,0.879,0.24,1.31,0.378
			c-1.488,3.543-1.681,7.73-1.268,11.608c-2.993,1.119-5.984,2.251-8.98,3.355c-2.006-3.322-4.732-6.297-7.742-8.557
			C406.309,172.004,411.69,168.773,419.859,170.674z M402.686,178.373c2.951,2.139,5.108,5.057,6.39,8.321
			c-3.091,1.135-6.189,2.248-9.288,3.359C400.049,185.838,400.976,181.743,402.686,178.373z M395.981,175.326
			c1.296,0.303,2.485,0.75,3.615,1.268c-1.637,4.059-1.704,8.895-1.171,13.153c0.018,0.147,0.219,0.401,0.458,0.632
			c-4.546,1.624-9.101,3.222-13.676,4.762c-2.534-4.087-5.855-7.682-9.052-10.005C379.526,177.924,386.376,173.081,395.981,175.326z
			 M375.689,186.199c3.302,2.003,6.098,5.49,7.894,9.493c-3.212,1.071-6.436,2.108-9.668,3.125
			C373.494,194.469,374.119,190.048,375.689,186.199z M372.875,184.901c-1.611,4.231-1.8,9.186,0.023,14.232
			c-6.828,2.135-13.7,4.15-20.646,5.975C346.928,194.067,362.26,181.638,372.875,184.901z M406.688,357.789
			c-4.075-11.766-9.431-23.026-14.134-34.557c-5.892-14.445-11.259-29.099-16.001-43.961c-4.089-12.817-8.66-25.517-13.576-38.042
			c-4.377-11.155-11.207-21.698-11.984-33.909l-0.004-0.014c1.497-0.296,3.058-0.625,4.516-0.93
			c0.119,11.503,7.089,23.487,10.807,34.036c5,14.191,8.848,28.766,14.044,42.888c4.879,13.259,10.971,26.03,15.819,39.309
			c4.131,11.316,7.715,24.083,14.622,34.119C409.429,357.101,408.065,357.452,406.688,357.789z M412.825,356.165
			c-6.261-9.647-9.665-21.739-13.525-32.394c-4.818-13.299-10.779-26.119-15.867-39.31c-5.08-13.17-8.754-26.895-13.378-40.232
			c-4.442-12.812-9.895-25.011-13.418-38.112c1.406-0.301,2.816-0.588,4.216-0.91c6.108,30.81,19.154,60.158,30.652,89.23
			c5.4,13.652,10.655,27.364,16.037,41.023c2.553,6.478,3.814,14.778,9.305,19.501C415.512,355.379,414.17,355.779,412.825,356.165z
			 M465.309,336.114c-15.533,6-30.684,13.1-46.492,18.226c-2.839-2.708-4.133-7.636-5.374-11.117
			c-1.898-5.323-3.946-10.516-6.082-15.752c-5.413-13.267-10.31-26.742-15.639-40.044c-10.901-27.209-21.215-54.436-29.949-82.423
			c7.727-1.8,15.364-3.935,22.945-6.279c1.988,6.508,1.297,13.601-3.887,17.462c-1.013,0.755,2.254,3.019,3.167,2.4
			c7.165-4.855,6.509-13.114,2.836-20.517c7.802-2.457,15.537-5.154,23.241-7.953c1.126,5.682-0.158,11.864-4.207,16.53
			c-0.64,0.737,2.274,2.759,3.095,2.06c6.319-5.381,6.518-12.819,3.61-19.503c6.712-2.462,13.398-5.005,20.079-7.552
			c2.792,6.389,0.524,12.377-1.872,18.47c-0.398,1.011,2.592,2.968,3.224,2.08c5.037-7.081,4.404-14.894,0.661-21.317
			c5.508-2.101,11.014-4.199,16.526-6.26c2.497,5.479,0.976,10.882-0.527,16.386c-0.284,1.039,2.73,3.016,3.224,2.08
			c3.488-6.605,2.694-13.57-0.706-19.205c4.178-1.555,8.359-3.091,12.549-4.578c12.355,21.113,17.308,45.658,25.102,68.639
			c5.08,14.981,9.798,30.078,15.053,44.98c-4.393,1.379-7.892,3.986-11.745,6.542c-5.63,3.735-12.195,5.101-18.571,7.061
			c-0.272,0.084-0.227,0.391-0.15,0.587c3.896,9.927,8.847,19.494,13.313,29.176c0.205,0.445,1.414,1.277,2.229,1.559
			C482.347,330.416,473.721,332.865,465.309,336.114z M485.221,312.869c-2.166-4.417-9.122-13.357-1.945-15.46
			c3.881-1.137,8.299-2.073,11.601-4.535c3.599-2.684,6.807-5.703,10.576-8.094c-2.24,7.948-4.612,15.685-7.808,23.358
			c-2.495,5.99-6.134,10.85-6.725,17.288C489.31,321.119,487.246,316.997,485.221,312.869z M512.83,320.439
			c-5.078,2.231-10.408,3.899-15.696,5.544c-1.503,0.467-3.008,0.923-4.513,1.375c1.057-6.953,5.728-12.701,8.542-19.058
			c2.769-6.255,5.109-12.711,6.907-19.315c2.965,8.118,6.111,16.17,9.633,24.091c0.19,0.427,0.906,0.888,1.706,1.225
			C519.628,317.349,516.395,318.872,512.83,320.439z"/>
		<path fill="#8EA031" d="M473.842,254.148c-3.842,5.542-7.603,9.212-15.149,3.714c-0.408-0.297-2.154-1.439-2.622-0.676
			c-1.413,2.303-2.749,4.658-4.279,6.885c-2.015,2.932-6.776,0.345-9.384-0.504c-0.235-0.076-1.047-0.331-1.203,0.056
			c-1.05,2.596-2.06,5.039-3.771,7.269c-2.554,3.329-10.031-2.448-11.985-3.539c-0.283-0.158-1.27-0.62-1.533-0.171
			c-2.635,4.491-4.093,10.91-11.182,5.211c-0.146-0.117-0.868-0.595-0.944-0.155c-0.189,1.04-0.362,2.082-0.52,3.127
			c-0.009,0.055,0.12,0.272,0.176,0.196c1.845-2.539,5.957,2.17,8.897,1.953c2.246-0.165,3.693-3.297,4.66-4.895
			c2.46-4.066,6.254,0.273,9.422,1.298c7.636,2.469,7.682-8.543,13.386-6.716c6.638,2.126,8.211-1.954,11.32-7.147
			c6.568,3.97,13.69,4.444,17.886-3.833C477.502,255.258,474.442,253.282,473.842,254.148z"/>
		<path fill="#8EA031" d="M477.051,271.617c-4.073,0.866-4.489,4.059-7.55,6.62c-2.505,2.096-5.775,0.298-8.622,1.213
			c-3.025,0.972-3.833,9.472-7.948,7.472c-1.973-0.959-4.618,0.195-6.076-0.454c-1.109-0.494-1.522-0.39-2.479,0.364
			c-3.485,2.745-5.112,7.741-9.847,7.83c-7.091,0.133-10.952-5.666-12.581,4.436c-0.046,0.285,0.679,1.158,0.811,0.813
			c1.825-4.767,3.766-6.129,8.874-4.117c2.797,1.102,5.727,1.434,8.656,0.742c1.898-0.448,3.14-3.844,4.251-5.158
			c2.806-3.318,3.095-2.288,6.946-2.885c1.651-0.256,3.262,1.301,5.028,1.235c3.063-0.115,4.434-3.604,5.488-5.826
			c1.627-3.433,5.963-1.563,8.96-2.329c4.229-1.081,4.865-6.404,8.958-7.623C480.852,273.673,478.069,271.401,477.051,271.617z"/>
	</g>
</g>
<g>
	<path fill="#8EA031" d="M522.692,349.41c-2.234-2.988-4.804-5.448-7.9-7.532c-3.049-2.052-6.291-4.849-9.69-6.292
		c-0.4-0.17-0.847,0.048-1.164,0.387c-0.431,0.048-0.903,0.333-1.057,0.827c-0.499,1.604-0.12,3.183,0.046,4.793
		c-2.524-0.158-4.954-0.073-7.506-0.172c-2.536-0.099-4.893-0.738-7.385-0.262c-0.361-0.382-1.147-0.326-1.511,0.392
		c-0.085,0.168-0.122,0.341-0.191,0.511c-0.087,0.008-0.166,0.005-0.269,0.037c-0.948,0.299-1.61,1.315-2.145,2.086
		c-0.608,0.876-1.111,1.819-1.653,2.735c-0.09,0.152-0.142,0.292-0.168,0.421c-0.192,0.179-0.342,0.395-0.388,0.635
		c-0.367,1.892,0.109,3.749,0.422,5.619c0.444,2.654,0.134,5.579,0.134,8.269c0,0.53,0.282,0.756,0.63,0.78
		c-0.022,0.408,0.182,0.718,0.764,0.575c2.855-0.703,5.705-1.054,8.648-1.1c2.154-0.033,4.336-0.496,6.447,0.131
		c0.245,0.073,0.505,0.016,0.743-0.113c0.017,0.061,0.018,0.125,0.053,0.183c0.583,0.973,1.152,1.951,1.667,2.963
		c0.123,0.242,0.314,0.344,0.523,0.364c-0.047,0.183-0.06,0.373,0.032,0.562c0.232,0.477,0.906,0.426,1.265,0.134
		c0.514-0.419,1.415-0.442,2.013-0.203c0.412,0.164,0.869-0.072,1.187-0.424c0.179-0.047,0.362-0.129,0.543-0.307
		c1.198-1.183,2.787-1.851,4.045-2.977c1.311-1.173,2.495-2.468,3.753-3.696c2.375-2.319,4.952-4.422,6.457-7.448
		c0.055-0.11,0.072-0.205,0.096-0.303c0.009,0.012,0.02,0.023,0.029,0.035C521.795,351.869,523.351,350.292,522.692,349.41z
		 M483.62,347.816c0.069-0.071,0.14-0.139,0.196-0.233c0.408-0.69,0.799-1.389,1.221-2.071c0.176-0.284,0.438-0.788,0.739-1.168
		c-0.082,0.965-0.034,1.953,0.023,2.956c0.173,3.075,0.424,6.186,0.368,9.271c-0.783,0.482-1.455,1.443-1.944,2.271
		c0.025-1.535,0.044-3.071-0.036-4.593C484.074,352.109,483.271,349.956,483.62,347.816z M500.076,360.493
		c-0.05-0.033-0.088-0.073-0.159-0.094c-2.286-0.68-4.542-0.31-6.885-0.239c-3.006,0.091-5.913,0.369-8.841,1.062
		c0-0.089,0.003-0.179,0.004-0.268c0.38,0.068,0.842-0.096,1.103-0.594c0.224-0.427,0.487-0.83,0.76-1.227
		c0.133-0.193,0.274-0.379,0.423-0.56c0.066-0.081,0.127-0.137,0.18-0.181c0.091,0.117,0.225,0.206,0.462,0.21
		c4.726,0.078,9.524-0.987,14.198-0.099C500.77,359.192,500.317,359.959,500.076,360.493z M503.091,364.397
		c0.003-0.125-0.022-0.248-0.081-0.365c-0.459-0.901-0.968-1.771-1.485-2.64c0.082-0.104,0.148-0.223,0.191-0.357
		c0.122-0.385,0.365-0.72,0.588-1.053c0.162-0.241,0.34-0.465,0.53-0.685c0.054-0.063,0.091-0.101,0.128-0.14
		c0.252-0.004,0.507-0.119,0.727-0.307c0.049,0.647,0.148,1.294,0.218,1.827c0.148,1.131,0.347,2.257,0.542,3.383
		C503.973,364.093,503.517,364.22,503.091,364.397z M519.484,350.624c-1.528,3.07-4.26,5.191-6.669,7.543
		c-1.219,1.19-2.327,2.441-3.663,3.51c-0.885,0.708-1.85,1.226-2.734,1.896c-0.138-0.793-0.277-1.587-0.398-2.382
		c-0.115-0.757-0.218-1.515-0.307-2.275c-0.042-0.358-0.074-0.717-0.101-1.076c-0.02-0.269,0.124-0.693-0.13-0.258
		c0.733-1.259-0.916-1.751-1.551-0.662c-0.02,0.034-0.019,0.08-0.037,0.115c-0.067-0.065-0.15-0.122-0.272-0.154
		c-5.153-1.361-10.31-0.193-15.536-0.242c0.054-2.405-0.147-4.798-0.194-7.204c-0.037-1.91-0.64-4.344-0.146-6.302
		c2.314-0.451,4.616,0.025,6.951,0.248c2.77,0.265,5.561-0.021,8.351,0.222c0.424,0.037,0.829-0.279,1.08-0.664
		c0.504-0.233,0.815-0.731,0.799-1.28c-0.034-1.241-0.457-2.612-0.361-3.884c2.788,1.375,5.163,3.702,7.892,5.219
		c3.101,1.724,5.683,4.251,7.885,7.011C520.021,350.031,519.685,350.219,519.484,350.624z"/>
</g>
</svg>
