<?xml version="1.0" encoding="utf-8"?>
<!-- Generator: Adobe Illustrator 17.0.0, SVG Export Plug-In . SVG Version: 6.00 Build 0)  -->
<!DOCTYPE svg PUBLIC "-//W3C//DTD SVG 1.1//EN" "http://www.w3.org/Graphics/SVG/1.1/DTD/svg11.dtd">
<svg version="1.1" id="Слой_1" xmlns="http://www.w3.org/2000/svg" xmlns:xlink="http://www.w3.org/1999/xlink" x="0px" y="0px"
	 width="267.742px" height="103.226px" viewBox="0 0 267.742 103.226" enable-background="new 0 0 267.742 103.226"
	 xml:space="preserve">
<g>
	<g>
		<path fill="#8EA031" d="M239.096,40.38c-4.832-10.38-15.012-13.355-25.695-13.504c-16.194-0.226-32.517,0.983-48.707,1.436
			c-17.239,0.482-34.436-2.084-51.648-2.617c-2.441-0.076-4.884-0.103-7.328-0.106c-8.832-1.072-17.786-1.654-26.641-2.415
			c-15.084-1.296-39.623-2.901-47.114,13.968c-1.782,4.014-1.861,8.233-2.123,12.549c-0.335,5.53-0.395,11.078,0.57,16.551
			c2.222,12.6,11.611,17.939,23.739,18.391c5.506,0.205,10.986-0.484,16.483-0.557c7.908-0.105,15.836,0.415,23.755,0.334
			c14.898-0.153,29.779-1.015,44.659-1.694c6.4,0.128,12.796,0.329,19.181,0.683c15.796,0.878,31.54,2.368,47.352,3.064
			c11.455,0.505,26.845,2.642,29.743-11.528C237.794,62.847,244.867,52.777,239.096,40.38z"/>
		<path d="M234.921,32.5c-6.065-4.255-13.933-5.581-21.13-6.385c-17.872-1.997-35.965,0.421-53.868,0.747
			c-25.247,0.46-50.578-1.299-75.627-4.329c-8.864-1.072-17.817-1.827-26.749-1.38c-7.453,0.373-16.966,1.544-21.118,8.56
			c-0.203,0.344,0.21,1.043,0.603,0.696c7.539-6.658,18.552-7.074,28.083-6.911c9.424,0.161,18.799,1.561,28.127,2.791
			c26.964,3.553,55.085,4.33,82.222,2.791c17.591-0.997,38.973-4.008,55.329,4.133c11.806,5.877,9.554,20.764,6.452,31.333
			c-1.681,5.727-3.97,13.052-8.879,16.832c-3.942,3.035-9.687,2.454-14.327,2.215c-21.066-1.085-42.062-1.969-63.162-2.012
			c-22.917-0.047-45.846,2.025-68.735,2.959c-14.903,0.608-34.585,2.137-46.125-9.329c-9.259-9.2-10.217-31.557-0.055-40.348
			c1.494-1.292-0.981-2.935-2.308-1.792c-12.609,10.865-9.742,36.71,2.578,46.627c7.995,6.435,19.623,7.834,29.494,8.371
			c14.376,0.781,29.001-0.526,43.359-1.236c32.598-1.614,65.009-1.383,97.624-0.276c7.913,0.269,17.447,2.009,24.176-3.25
			c3.562-2.784,5.276-7.041,6.915-11.096c2.317-5.736,4.012-11.719,4.768-17.863C243.586,46.064,242.048,37.5,234.921,32.5z"/>
	</g>
	<g>
		<path d="M43.272,55.199c0-0.028,0.007-0.077,0.021-0.147c0.014-0.069,0.035-0.118,0.063-0.146
			c0.028-0.028,0.063-0.046,0.105-0.053s0.077-0.024,0.105-0.053c0.042-0.027,0.081-0.049,0.116-0.062
			c0.035-0.014,0.087-0.028,0.157-0.042c0.252-0.028,0.521-0.07,0.809-0.126c0.287-0.056,0.57-0.154,0.851-0.294
			c0.406-0.196,0.738-0.455,0.998-0.777c0.259-0.322,0.388-0.721,0.388-1.197c0-0.224-0.042-0.405-0.126-0.546
			c-0.084-0.14-0.186-0.244-0.304-0.314c-0.119-0.07-0.249-0.119-0.389-0.147c-0.14-0.027-0.266-0.042-0.378-0.042
			c-0.406,0-0.77,0.05-1.092,0.147c-0.322,0.098-0.666,0.266-1.029,0.504l-0.126,0.084c-0.028,0.028-0.056,0.056-0.084,0.084
			c-0.028,0.028-0.056,0.049-0.084,0.062c-0.056,0.042-0.133,0.081-0.231,0.116c-0.098,0.035-0.203,0.052-0.315,0.052
			c-0.056,0-0.109-0.014-0.158-0.042c-0.049-0.027-0.102-0.049-0.157-0.062c-0.154-0.042-0.273-0.105-0.357-0.189
			s-0.151-0.175-0.2-0.272c-0.049-0.098-0.074-0.224-0.074-0.378c0-0.042,0-0.102,0-0.179s0.007-0.13,0.021-0.157
			c0.056-0.225,0.123-0.375,0.2-0.452c0.077-0.076,0.234-0.171,0.473-0.283c0.644-0.28,1.273-0.469,1.89-0.567
			c0.616-0.098,1.141-0.146,1.575-0.146c0.924,0,1.634,0.199,2.131,0.599c0.497,0.398,0.746,1.054,0.746,1.963
			c0,0.238-0.018,0.466-0.052,0.683c-0.035,0.218-0.102,0.438-0.2,0.662c-0.028,0.056-0.074,0.146-0.137,0.272
			s-0.108,0.189-0.136,0.189c-0.028,0-0.049,0.021-0.063,0.062c-0.014,0.042-0.035,0.077-0.063,0.105
			c-0.028,0.028-0.056,0.056-0.084,0.084c-0.028,0.028-0.049,0.056-0.063,0.084c-0.014,0.028-0.032,0.035-0.053,0.021
			c-0.021-0.014-0.039,0.015-0.052,0.084c0,0.028-0.014,0.063-0.042,0.105c-0.028,0.042-0.091,0.104-0.189,0.188
			c-0.196,0.183-0.42,0.344-0.672,0.483c0.28,0.098,0.549,0.221,0.809,0.367c0.259,0.147,0.49,0.329,0.693,0.546
			c0.203,0.218,0.364,0.473,0.483,0.767c0.119,0.294,0.178,0.645,0.178,1.05c0,0.673-0.119,1.268-0.357,1.785
			c-0.238,0.519-0.567,0.952-0.987,1.302c-0.42,0.351-0.921,0.616-1.501,0.799c-0.581,0.182-1.215,0.272-1.901,0.272
			c-0.476,0-0.85-0.038-1.123-0.115c-0.273-0.077-0.543-0.115-0.809-0.115c-0.434,0-0.721-0.168-0.861-0.504
			c-0.028-0.084-0.045-0.176-0.052-0.273c-0.007-0.098-0.011-0.21-0.011-0.336c0-0.042,0-0.095,0-0.157
			c0-0.063,0.007-0.116,0.021-0.158c0.014-0.056,0.042-0.101,0.084-0.136s0.077-0.074,0.105-0.116
			c0.028-0.042,0.06-0.08,0.095-0.115c0.035-0.035,0.087-0.066,0.158-0.095c0.07-0.027,0.129-0.049,0.178-0.062
			c0.049-0.014,0.123-0.021,0.221-0.021c0.126,0,0.269,0.008,0.43,0.021s0.326,0.07,0.494,0.168
			c0.196,0.098,0.357,0.161,0.483,0.188c0.126,0.028,0.357,0.042,0.693,0.042c0.294,0,0.584-0.024,0.872-0.073
			s0.557-0.137,0.809-0.263c0.07-0.027,0.137-0.069,0.2-0.126c0.063-0.056,0.129-0.098,0.199-0.126
			c0.07-0.027,0.119-0.066,0.147-0.115s0.056-0.087,0.084-0.115c0.056-0.042,0.091-0.091,0.105-0.147
			c0.014-0.056,0.049-0.098,0.105-0.126c0.084-0.042,0.126-0.095,0.126-0.157c0-0.063,0.014-0.13,0.042-0.199
			c0.042-0.126,0.077-0.26,0.105-0.399c0.028-0.14,0.042-0.294,0.042-0.462c0-0.266-0.056-0.501-0.168-0.703
			c-0.112-0.203-0.298-0.375-0.557-0.515c-0.259-0.14-0.599-0.249-1.019-0.326c-0.42-0.076-0.945-0.115-1.575-0.115
			c-0.042,0-0.136-0.021-0.283-0.062s-0.235-0.077-0.263-0.105c-0.056-0.042-0.094-0.098-0.115-0.168s-0.032-0.14-0.032-0.21
			c-0.014-0.014-0.028-0.049-0.042-0.105C43.285,55.528,43.272,55.381,43.272,55.199z"/>
		<path d="M59.589,58.013c0.126,0.364,0.255,0.732,0.389,1.103c0.133,0.371,0.276,0.76,0.431,1.166
			c0.126,0.322,0.213,0.566,0.262,0.734c0.049,0.169,0.074,0.329,0.074,0.483c0,0.168-0.024,0.329-0.074,0.483
			c-0.049,0.153-0.144,0.266-0.283,0.336c-0.098,0.056-0.158,0.104-0.179,0.146s-0.094,0.063-0.22,0.063
			c-0.308,0-0.553-0.108-0.735-0.326c-0.182-0.217-0.35-0.612-0.504-1.187c-0.112-0.392-0.238-0.825-0.378-1.302
			c-0.14-0.476-0.287-0.959-0.441-1.449h-0.735c-0.476,0-1.033,0.035-1.67,0.105s-1.193,0.147-1.669,0.231
			c-0.07,0.027-0.136,0.045-0.199,0.052c-0.063,0.008-0.13,0.018-0.2,0.032c-0.014,0.069-0.024,0.136-0.031,0.199
			c-0.007,0.062-0.011,0.108-0.011,0.137c-0.028,0.14-0.042,0.262-0.042,0.367c0,0.104,0,0.179,0,0.221
			c0,0.098,0.003,0.175,0.011,0.23c0.007,0.057,0.01,0.126,0.01,0.21c0,0.126-0.007,0.225-0.021,0.294
			c-0.028,0.196-0.056,0.368-0.084,0.515c-0.028,0.147-0.077,0.27-0.147,0.368c-0.028,0.027-0.073,0.059-0.137,0.094
			c-0.063,0.035-0.108,0.066-0.136,0.095c-0.028-0.028-0.063-0.042-0.105-0.042c-0.028,0-0.056,0.007-0.084,0.021
			c-0.056,0.027-0.084,0.056-0.084,0.084c0,0.027,0.007,0.049,0.021,0.062c-0.028,0-0.074,0.014-0.137,0.042
			s-0.108,0.042-0.136,0.042c-0.126,0-0.263-0.066-0.41-0.199c-0.147-0.134-0.221-0.318-0.221-0.557
			c0-0.126,0.007-0.224,0.021-0.294c0-0.028-0.003-0.049-0.01-0.063c-0.007-0.014-0.011-0.027-0.011-0.042v-0.062h0.021
			c0-0.028-0.003-0.049-0.01-0.063c-0.007-0.014-0.011-0.014-0.011,0c-0.014-0.069-0.021-0.136-0.021-0.199c0-0.062,0-0.129,0-0.199
			v-0.126c0.014-0.154,0.021-0.301,0.021-0.441c0-0.14,0.014-0.272,0.042-0.398c0.014-0.057,0.024-0.133,0.031-0.231
			c0.007-0.098,0.011-0.161,0.011-0.188c0-0.028,0.003-0.063,0.01-0.105c0.007-0.042,0.011-0.07,0.011-0.084
			c-0.014-0.028-0.021-0.091-0.021-0.189c0-0.042,0-0.087,0-0.136s0.007-0.108,0.021-0.179l0.042-0.756
			c0.028-0.308,0.07-0.689,0.126-1.145c0.056-0.455,0.084-0.914,0.084-1.376c0-0.21,0.042-0.37,0.126-0.482
			c0.056-0.084,0.154-0.126,0.294-0.126c0.084,0,0.161,0.003,0.231,0.01c0.07,0.008,0.161,0.039,0.273,0.095
			c0.168-0.434,0.35-0.864,0.546-1.291c0.196-0.427,0.396-0.83,0.599-1.208c0.203-0.378,0.406-0.725,0.609-1.039
			c0.203-0.315,0.396-0.578,0.578-0.788c0.168-0.195,0.262-0.332,0.283-0.409s0.06-0.115,0.116-0.115c0.07,0,0.137,0.007,0.2,0.021
			c0.063,0.015,0.129,0.035,0.199,0.063c0.14,0.056,0.276,0.112,0.41,0.168c0.133,0.056,0.297,0.203,0.494,0.44
			c0.084,0.267,0.192,0.62,0.325,1.061c0.133,0.441,0.276,0.914,0.431,1.418c0.154,0.504,0.308,1.012,0.462,1.522
			c0.154,0.511,0.301,0.963,0.441,1.354l0.378,1.155c0.07,0.014,0.133,0.021,0.189,0.021s0.112,0,0.168,0l0.42,0.042
			c0.056,0.028,0.112,0.063,0.168,0.105c0.028,0.028,0.049,0.066,0.063,0.115c0.014,0.049,0.035,0.088,0.063,0.115l0.126,0.168
			c-0.014,0.015-0.028,0.039-0.042,0.073c-0.014,0.035-0.035,0.053-0.063,0.053c0.028,0.028,0.042,0.063,0.042,0.105
			s-0.007,0.077-0.021,0.104c-0.014,0.042-0.032,0.081-0.053,0.116s-0.045,0.073-0.073,0.115c-0.056,0.112-0.105,0.196-0.147,0.252
			c-0.028,0.028-0.06,0.053-0.095,0.073c-0.035,0.021-0.081,0.046-0.136,0.073L59.589,58.013z M57.363,56.459
			c-0.042-0.111-0.081-0.23-0.116-0.356c-0.035-0.126-0.066-0.245-0.094-0.357c-0.154-0.49-0.291-0.886-0.41-1.187
			c-0.119-0.301-0.228-0.626-0.326-0.977c-0.112-0.35-0.213-0.644-0.304-0.882c-0.091-0.238-0.172-0.427-0.242-0.567
			c-0.084-0.153-0.14-0.23-0.168-0.23c-0.042,0-0.126,0.126-0.252,0.378c-0.364,0.756-0.669,1.509-0.914,2.257
			c-0.245,0.75-0.466,1.523-0.662,2.321c0.378-0.042,0.801-0.088,1.271-0.137s0.92-0.108,1.354-0.179L57.363,56.459z"/>
		<path d="M73.049,51.041c-0.042,0.015-0.15,0.021-0.325,0.021c-0.176,0-0.283,0-0.325,0c-0.028,0.28-0.061,0.588-0.095,0.924
			c-0.035,0.336-0.066,0.65-0.095,0.944c-0.028,0.21-0.06,0.497-0.095,0.861s-0.073,0.76-0.115,1.187
			c-0.042,0.428-0.088,0.861-0.137,1.302c-0.049,0.441-0.095,0.851-0.137,1.229c-0.014,0.154-0.031,0.333-0.052,0.536
			c-0.021,0.203-0.039,0.413-0.053,0.63c-0.015,0.217-0.024,0.434-0.031,0.65c-0.008,0.218-0.011,0.417-0.011,0.599
			c0,0.084,0.003,0.161,0.011,0.231c0.007,0.07,0.01,0.14,0.01,0.21l0.042,1.029c-0.014,0.35-0.049,0.64-0.104,0.871
			c-0.057,0.231-0.196,0.381-0.42,0.451l-0.42,0.147l-0.231-0.084l-0.23-0.126l-0.231-0.357c-0.042-0.042-0.062-0.084-0.062-0.126
			c0-0.028,0.003-0.056,0.01-0.084s0.011-0.056,0.011-0.084s-0.014-0.056-0.042-0.084c-0.07-0.056-0.104-0.108-0.104-0.157
			c0-0.05-0.008-0.13-0.021-0.241c-0.014-0.015-0.021-0.05-0.021-0.105c0-0.028,0.003-0.046,0.01-0.053s0.011-0.018,0.011-0.031
			c0-0.028-0.004-0.046-0.011-0.053s-0.01-0.018-0.01-0.031c0-0.028,0.007-0.056,0.021-0.084c0-0.014,0.007-0.035,0.021-0.063
			c0.014-0.434,0.031-0.86,0.052-1.28c0.021-0.42,0.049-0.91,0.084-1.471c0.035-0.56,0.084-1.221,0.147-1.984
			c0.062-0.763,0.15-1.704,0.263-2.824c0.027-0.252,0.066-0.609,0.115-1.071s0.073-0.909,0.073-1.344
			c-0.462,0.028-0.928,0.053-1.396,0.073c-0.469,0.021-0.787,0.032-0.955,0.032c-0.168,0.014-0.368,0.021-0.599,0.021
			c-0.231,0-0.459,0-0.683,0s-0.435,0.004-0.63,0.011c-0.196,0.007-0.351,0.018-0.462,0.031L65.7,52.574
			c-0.015,0.182-0.031,0.308-0.053,0.378s-0.031,0.14-0.031,0.21c0,0.098,0.003,0.203,0.01,0.315
			c0.008,0.111,0.011,0.23,0.011,0.356c0,0.07,0,0.134,0,0.189s-0.007,0.119-0.021,0.188c-0.015,0.042-0.032,0.092-0.053,0.147
			c-0.021,0.056-0.039,0.126-0.053,0.21l-0.042,0.504c-0.042,0.448-0.07,0.815-0.084,1.103s-0.028,0.557-0.042,0.809
			c-0.014,0.294-0.024,0.528-0.031,0.703c-0.007,0.176-0.011,0.34-0.011,0.493c0,0.154,0,0.302,0,0.441s-0.007,0.301-0.021,0.483
			c-0.015,0.028-0.035,0.056-0.063,0.084s-0.042,0.056-0.042,0.084c0.014,0.028,0.035,0.038,0.063,0.031
			c0.027-0.007,0.042,0.011,0.042,0.053l-0.042,0.042c-0.015,0.014-0.028,0.021-0.042,0.021c-0.015,0-0.021,0.008-0.021,0.021
			c-0.014,0.042-0.021,0.112-0.021,0.21c0,0.112,0.003,0.224,0.01,0.336s0.011,0.224,0.011,0.336c0,0.14-0.011,0.263-0.031,0.367
			c-0.021,0.105-0.039,0.214-0.053,0.325c-0.014,0.364-0.046,0.676-0.095,0.935c-0.049,0.26-0.136,0.536-0.262,0.83
			c-0.028,0-0.046-0.004-0.053-0.011c-0.008-0.007-0.018-0.011-0.031-0.011c-0.057,0-0.103,0.011-0.137,0.032
			c-0.035,0.021-0.073,0.045-0.115,0.073c-0.015,0.014-0.039,0.034-0.074,0.062s-0.073,0.042-0.115,0.042
			c-0.028,0-0.056-0.014-0.084-0.042c-0.056-0.042-0.183-0.112-0.378-0.21c-0.196-0.098-0.329-0.188-0.399-0.272
			c-0.056-0.057-0.084-0.161-0.084-0.315c0-0.084,0.004-0.168,0.011-0.252s0.011-0.146,0.011-0.188c0-0.028-0.015-0.053-0.042-0.074
			c-0.028-0.021-0.042-0.052-0.042-0.094l0.188-0.883c0.028-0.098,0.042-0.178,0.042-0.241c0-0.062,0-0.129,0-0.199s0-0.137,0-0.199
			c0-0.063,0.007-0.13,0.021-0.2c0.027-0.237,0.038-0.493,0.031-0.767c-0.007-0.272,0.003-0.57,0.031-0.893l0.063-1.154
			c0.014-0.35,0.027-0.718,0.042-1.103c0.014-0.385,0.034-0.738,0.062-1.061c0.028-0.518,0.056-1.04,0.084-1.564
			c0.028-0.525,0.057-0.935,0.084-1.229l0.021-0.357c0-0.14-0.015-0.237-0.042-0.294c-0.028-0.027-0.077-0.062-0.147-0.104
			s-0.104-0.126-0.104-0.252c0-0.099-0.015-0.186-0.042-0.263c-0.028-0.077-0.042-0.158-0.042-0.242c0-0.153,0.038-0.29,0.115-0.409
			c0.077-0.118,0.172-0.221,0.283-0.305c0.154-0.126,0.344-0.185,0.567-0.178s0.434-0.004,0.63-0.032
			c0.098-0.014,0.238-0.024,0.42-0.031s0.382-0.014,0.599-0.021c0.217-0.008,0.448-0.015,0.693-0.021
			c0.244-0.007,0.479-0.018,0.703-0.031c0.294-0.014,0.707-0.035,1.239-0.063c0.531-0.027,1.061-0.056,1.585-0.084
			c0.525-0.027,0.994-0.049,1.407-0.062s0.641-0.021,0.683-0.021c0.07,0,0.119,0.008,0.147,0.021
			c0.027,0.014,0.056,0.028,0.084,0.042c0.14,0.056,0.23,0.084,0.272,0.084c0.028,0,0.042-0.004,0.042-0.011
			s0.014-0.011,0.042-0.011c0.014,0,0.035,0.015,0.063,0.042c0.042,0.015,0.08,0.046,0.115,0.095s0.073,0.081,0.115,0.095
			c0.028,0.014,0.042,0.031,0.042,0.053c0,0.021,0.021,0.038,0.063,0.052c0,0.028,0.01,0.05,0.031,0.063
			c0.021,0.014,0.031,0.042,0.031,0.084c0.014,0.014,0.021,0.042,0.021,0.084s0.007,0.07,0.021,0.084s0.011,0.031-0.011,0.053
			c-0.021,0.021-0.031,0.045-0.031,0.073c-0.014,0.056-0.024,0.104-0.031,0.146s-0.011,0.084-0.011,0.126
			c0,0.028,0.004,0.07,0.011,0.126c0.007,0.057,0.018,0.099,0.031,0.127l0.021,0.188c0,0.042-0.063,0.077-0.189,0.105
			C73.175,51.006,73.091,51.027,73.049,51.041z"/>
		<path d="M83.907,52.574c-0.042,0.882-0.105,1.764-0.189,2.646c-0.084,0.883-0.126,1.862-0.126,2.94
			c0,0.687,0.074,1.242,0.221,1.67c0.147,0.427,0.424,0.64,0.829,0.64c0.042,0,0.099-0.014,0.169-0.042
			c0.069-0.027,0.126-0.042,0.168-0.042c0.224,0,0.388,0.092,0.493,0.273c0.104,0.182,0.157,0.392,0.157,0.63
			c0,0.196-0.028,0.357-0.084,0.483s-0.115,0.227-0.179,0.304c-0.062,0.077-0.122,0.137-0.178,0.179
			c-0.057,0.042-0.092,0.07-0.105,0.084c-0.07,0-0.126,0.021-0.168,0.063c-0.014,0-0.024-0.004-0.031-0.011
			c-0.008-0.007-0.024-0.011-0.053-0.011s-0.056-0.007-0.084-0.021c-0.028,0.014-0.105,0.021-0.231,0.021
			c-0.069,0-0.14-0.014-0.21-0.042c-0.069-0.028-0.182-0.042-0.336-0.042c-0.588-0.182-1.008-0.455-1.26-0.818
			c-0.252-0.364-0.455-0.848-0.608-1.449c-0.364,0.686-0.823,1.183-1.376,1.491c-0.554,0.308-1.165,0.462-1.838,0.462
			c-0.518,0-0.966-0.112-1.344-0.336c-0.378-0.225-0.692-0.519-0.945-0.883c-0.056-0.069-0.094-0.149-0.115-0.241
			c-0.021-0.091-0.038-0.171-0.053-0.241c-0.069,0-0.14-0.053-0.21-0.157c-0.07-0.105-0.112-0.228-0.126-0.368
			c-0.014-0.098-0.045-0.199-0.094-0.305c-0.05-0.104-0.088-0.199-0.116-0.283c-0.182-0.63-0.297-1.291-0.346-1.984
			c-0.05-0.693-0.074-1.348-0.074-1.964c0-0.56,0.007-1.067,0.021-1.522c0.014-0.454,0.034-0.871,0.062-1.249
			s0.063-0.728,0.105-1.05s0.091-0.638,0.146-0.945c0.014-0.252,0.077-0.504,0.189-0.756c0.111-0.252,0.314-0.378,0.608-0.378
			c0.07,0,0.15,0.011,0.242,0.031c0.091,0.021,0.179,0.073,0.263,0.157c0.237,0.07,0.43,0.172,0.577,0.305
			c0.146,0.134,0.221,0.34,0.221,0.619c0,0.112-0.011,0.235-0.032,0.368c-0.021,0.133-0.045,0.248-0.073,0.347
			c-0.168,0.7-0.308,1.386-0.42,2.058s-0.168,1.386-0.168,2.142c0,0.477,0.024,0.984,0.073,1.522
			c0.049,0.539,0.144,1.04,0.284,1.502c0.14,0.462,0.339,0.844,0.599,1.145c0.259,0.301,0.604,0.451,1.039,0.451
			c0.336,0,0.599-0.056,0.787-0.168c0.189-0.111,0.402-0.294,0.641-0.546c0.07-0.111,0.168-0.234,0.294-0.367
			s0.203-0.298,0.231-0.494l0.21-0.44c0.027-0.196,0.091-0.357,0.188-0.483c0.015-0.084,0.032-0.164,0.053-0.241
			c0.021-0.077,0.046-0.164,0.073-0.263c0.028-0.084,0.053-0.16,0.074-0.23c0.021-0.07,0.031-0.154,0.031-0.252
			c0.098-0.322,0.164-0.725,0.199-1.208c0.035-0.482,0.053-1.039,0.053-1.669c0-0.547-0.031-1.124-0.095-1.733
			c-0.062-0.608-0.095-1.242-0.095-1.9c0-0.308,0.154-0.496,0.463-0.566c-0.015-0.014-0.021-0.042-0.021-0.084
			c0-0.028,0.035-0.077,0.105-0.147c0.069-0.056,0.182-0.084,0.336-0.084c0.042,0,0.08-0.003,0.115-0.011
			c0.035-0.007,0.066-0.01,0.095-0.01c0.153,0,0.294,0.042,0.42,0.126c0.182,0,0.312,0.129,0.389,0.389
			c0.076,0.259,0.129,0.57,0.157,0.934c0,0.07,0,0.141,0,0.211c0,0.069-0.015,0.133-0.042,0.188c0.027,0.07,0.038,0.133,0.031,0.189
			c-0.007,0.056,0.003,0.098,0.031,0.126c0,0.028-0.003,0.052-0.01,0.073c-0.008,0.021-0.011,0.046-0.011,0.073
			c0,0.028,0.003,0.057,0.011,0.084c0.007,0.028,0.01,0.063,0.01,0.105c0,0.056-0.003,0.104-0.01,0.146
			c-0.008,0.042-0.011,0.084-0.011,0.126c0,0.07,0.003,0.137,0.011,0.2c0.007,0.062,0.01,0.122,0.01,0.178c0,0.057,0,0.116,0,0.179
			C83.927,52.459,83.92,52.519,83.907,52.574z"/>
		<path d="M91.55,51.629l-0.188,0.084c-0.112,0-0.189,0.008-0.231,0.021c-0.49,0.112-0.906,0.322-1.249,0.63
			c-0.344,0.308-0.631,0.679-0.861,1.113c-0.231,0.434-0.399,0.917-0.504,1.448c-0.105,0.532-0.157,1.078-0.157,1.639
			c0,0.91,0.269,1.631,0.808,2.163s1.306,0.798,2.3,0.798c0.322,0,0.647-0.018,0.977-0.053s0.644-0.077,0.945-0.126
			c0.301-0.049,0.577-0.091,0.829-0.126s0.462-0.053,0.63-0.053c0.322,0,0.528,0.066,0.62,0.199
			c0.091,0.134,0.136,0.319,0.136,0.557c0,0.015-0.014,0.088-0.042,0.221s-0.049,0.207-0.062,0.221
			c-0.099,0.112-0.207,0.21-0.325,0.294c-0.119,0.084-0.256,0.168-0.41,0.252c-0.056,0.028-0.119,0.06-0.188,0.095
			c-0.07,0.035-0.126,0.066-0.168,0.094c-0.028,0.028-0.06,0.043-0.095,0.043s-0.066,0.014-0.095,0.042
			c-0.042,0-0.073,0.003-0.095,0.01c-0.021,0.007-0.052,0.011-0.094,0.011c-0.057,0.028-0.13,0.049-0.221,0.063
			c-0.092,0.014-0.165,0.021-0.221,0.021c-0.07,0.042-0.137,0.066-0.199,0.073c-0.063,0.007-0.137,0.018-0.221,0.032
			c-0.07,0.027-0.183,0.049-0.336,0.062c-0.154,0.014-0.28,0.028-0.378,0.042c-0.225,0.014-0.435,0.021-0.63,0.021
			c-0.196,0-0.386,0-0.567,0c-0.771,0-1.449-0.13-2.037-0.389s-1.078-0.609-1.47-1.05c-0.393-0.441-0.689-0.948-0.893-1.522
			s-0.305-1.177-0.305-1.807c0-0.882,0.091-1.718,0.273-2.51c0.182-0.79,0.454-1.508,0.818-2.152
			c0.057-0.056,0.095-0.14,0.116-0.252c0.021-0.111,0.066-0.182,0.136-0.21c0.084-0.056,0.161-0.157,0.231-0.305
			c0.07-0.146,0.133-0.248,0.189-0.304c0.056-0.015,0.118-0.057,0.188-0.126c0.07-0.07,0.119-0.134,0.147-0.189
			c0.056,0,0.094-0.024,0.115-0.073c0.021-0.049,0.045-0.088,0.073-0.116c0.028,0,0.06-0.014,0.095-0.042
			c0.034-0.027,0.066-0.056,0.095-0.084c0.042-0.027,0.111-0.073,0.21-0.136c0.098-0.063,0.16-0.123,0.188-0.179
			c0.084-0.028,0.168-0.053,0.252-0.073c0.084-0.021,0.154-0.032,0.21-0.032c0.028-0.056,0.081-0.101,0.158-0.136
			c0.076-0.035,0.164-0.088,0.262-0.158c0.154,0,0.267-0.01,0.336-0.031c0.07-0.021,0.141-0.031,0.21-0.031
			c0.112-0.056,0.295-0.108,0.547-0.157c0.252-0.05,0.482-0.074,0.692-0.074c0.322,0,0.644,0.06,0.966,0.179
			s0.581,0.276,0.777,0.473c0.294,0.294,0.441,0.602,0.441,0.924c0,0.154-0.042,0.344-0.126,0.567
			c-0.015,0.056-0.05,0.14-0.105,0.252c-0.07,0.112-0.179,0.192-0.325,0.241c-0.147,0.049-0.298,0.073-0.452,0.073
			c-0.153,0-0.262-0.003-0.325-0.01c-0.062-0.008-0.137-0.046-0.221-0.116c-0.056-0.042-0.108-0.073-0.157-0.095
			c-0.049-0.021-0.095-0.045-0.137-0.073c-0.196-0.098-0.371-0.146-0.524-0.146c-0.028,0-0.06,0.007-0.095,0.021
			c-0.035,0.015-0.066,0.021-0.095,0.021L91.55,51.629z"/>
		<path d="M105.62,58.013c0.126,0.364,0.255,0.732,0.389,1.103c0.133,0.371,0.275,0.76,0.43,1.166
			c0.126,0.322,0.214,0.566,0.263,0.734c0.049,0.169,0.073,0.329,0.073,0.483c0,0.168-0.024,0.329-0.073,0.483
			c-0.049,0.153-0.144,0.266-0.283,0.336c-0.099,0.056-0.157,0.104-0.179,0.146c-0.021,0.042-0.095,0.063-0.221,0.063
			c-0.308,0-0.553-0.108-0.734-0.326c-0.183-0.217-0.351-0.612-0.504-1.187c-0.112-0.392-0.238-0.825-0.378-1.302
			c-0.141-0.476-0.287-0.959-0.441-1.449h-0.735c-0.476,0-1.032,0.035-1.669,0.105c-0.638,0.07-1.194,0.147-1.67,0.231
			c-0.07,0.027-0.137,0.045-0.199,0.052c-0.063,0.008-0.13,0.018-0.199,0.032c-0.015,0.069-0.025,0.136-0.032,0.199
			c-0.007,0.062-0.01,0.108-0.01,0.137c-0.028,0.14-0.042,0.262-0.042,0.367c0,0.104,0,0.179,0,0.221c0,0.098,0.003,0.175,0.01,0.23
			c0.007,0.057,0.011,0.126,0.011,0.21c0,0.126-0.007,0.225-0.021,0.294c-0.028,0.196-0.057,0.368-0.084,0.515
			c-0.028,0.147-0.077,0.27-0.147,0.368c-0.028,0.027-0.073,0.059-0.137,0.094c-0.062,0.035-0.108,0.066-0.137,0.095
			c-0.027-0.028-0.062-0.042-0.104-0.042c-0.028,0-0.057,0.007-0.084,0.021c-0.057,0.027-0.084,0.056-0.084,0.084
			c0,0.027,0.007,0.049,0.021,0.062c-0.027,0-0.073,0.014-0.136,0.042c-0.063,0.028-0.109,0.042-0.137,0.042
			c-0.126,0-0.263-0.066-0.409-0.199c-0.147-0.134-0.221-0.318-0.221-0.557c0-0.126,0.007-0.224,0.021-0.294
			c0-0.028-0.003-0.049-0.011-0.063c-0.007-0.014-0.01-0.027-0.01-0.042v-0.062h0.021c0-0.028-0.003-0.049-0.011-0.063
			c-0.007-0.014-0.01-0.014-0.01,0c-0.015-0.069-0.021-0.136-0.021-0.199c0-0.062,0-0.129,0-0.199v-0.126
			c0.014-0.154,0.021-0.301,0.021-0.441c0-0.14,0.014-0.272,0.042-0.398c0.014-0.057,0.024-0.133,0.031-0.231
			c0.007-0.098,0.011-0.161,0.011-0.188c0-0.028,0.003-0.063,0.011-0.105c0.007-0.042,0.01-0.07,0.01-0.084
			c-0.014-0.028-0.021-0.091-0.021-0.189c0-0.042,0-0.087,0-0.136s0.007-0.108,0.021-0.179l0.042-0.756
			c0.028-0.308,0.07-0.689,0.126-1.145s0.084-0.914,0.084-1.376c0-0.21,0.042-0.37,0.126-0.482c0.056-0.084,0.154-0.126,0.294-0.126
			c0.084,0,0.161,0.003,0.231,0.01c0.07,0.008,0.161,0.039,0.272,0.095c0.169-0.434,0.351-0.864,0.547-1.291
			c0.195-0.427,0.395-0.83,0.598-1.208s0.406-0.725,0.609-1.039c0.203-0.315,0.396-0.578,0.577-0.788
			c0.168-0.195,0.263-0.332,0.284-0.409c0.021-0.077,0.06-0.115,0.115-0.115c0.07,0,0.137,0.007,0.199,0.021
			c0.063,0.015,0.13,0.035,0.2,0.063c0.14,0.056,0.275,0.112,0.409,0.168c0.133,0.056,0.297,0.203,0.493,0.44
			c0.084,0.267,0.192,0.62,0.326,1.061c0.133,0.441,0.275,0.914,0.43,1.418s0.309,1.012,0.462,1.522
			c0.154,0.511,0.302,0.963,0.441,1.354l0.378,1.155c0.07,0.014,0.133,0.021,0.189,0.021c0.056,0,0.111,0,0.168,0l0.42,0.042
			c0.056,0.028,0.111,0.063,0.168,0.105c0.027,0.028,0.049,0.066,0.062,0.115s0.035,0.088,0.063,0.115l0.126,0.168
			c-0.015,0.015-0.028,0.039-0.042,0.073c-0.015,0.035-0.035,0.053-0.063,0.053c0.028,0.028,0.042,0.063,0.042,0.105
			s-0.007,0.077-0.021,0.104c-0.015,0.042-0.031,0.081-0.053,0.116c-0.021,0.035-0.046,0.073-0.073,0.115
			c-0.057,0.112-0.105,0.196-0.147,0.252c-0.028,0.028-0.06,0.053-0.094,0.073c-0.035,0.021-0.081,0.046-0.137,0.073L105.62,58.013z
			 M103.394,56.459c-0.042-0.111-0.08-0.23-0.115-0.356s-0.066-0.245-0.095-0.357c-0.154-0.49-0.29-0.886-0.409-1.187
			s-0.228-0.626-0.325-0.977c-0.112-0.35-0.214-0.644-0.305-0.882c-0.092-0.238-0.172-0.427-0.241-0.567
			c-0.084-0.153-0.141-0.23-0.168-0.23c-0.043,0-0.127,0.126-0.253,0.378c-0.364,0.756-0.668,1.509-0.913,2.257
			c-0.245,0.75-0.466,1.523-0.661,2.321c0.378-0.042,0.801-0.088,1.271-0.137c0.469-0.049,0.92-0.108,1.354-0.179L103.394,56.459z"
			/>
		<path d="M112.885,58.286c0,0.126,0.004,0.245,0.011,0.357c0.007,0.111,0.011,0.217,0.011,0.314c0,0.099-0.004,0.179-0.011,0.241
			c-0.007,0.063-0.011,0.109-0.011,0.137c0,0.21,0,0.42,0,0.63s-0.007,0.428-0.021,0.651c0,0.168,0.007,0.272,0.021,0.314
			c0.014,0.015,0.021,0.035,0.021,0.063s-0.004,0.053-0.011,0.073c-0.007,0.021-0.011,0.046-0.011,0.074
			c0,0.042,0.007,0.069,0.021,0.084c0.014,0.027,0.021,0.104,0.021,0.23c-0.014,0.196-0.084,0.371-0.21,0.525
			c-0.126,0.153-0.287,0.286-0.482,0.398c-0.183,0-0.347-0.018-0.494-0.053c-0.146-0.034-0.256-0.115-0.325-0.241
			c-0.042-0.14-0.095-0.272-0.157-0.398c-0.063-0.126-0.116-0.26-0.158-0.399c-0.028-0.126-0.052-0.255-0.073-0.389
			c-0.021-0.133-0.039-0.279-0.053-0.44s-0.024-0.351-0.031-0.567s-0.011-0.479-0.011-0.787c0-0.099,0.004-0.238,0.011-0.42
			c0.007-0.183,0.011-0.375,0.011-0.578c0-0.202,0.003-0.396,0.011-0.577c0.007-0.182,0.01-0.315,0.01-0.399
			c0-0.042,0.004-0.15,0.011-0.325s0.014-0.396,0.021-0.661c0.007-0.267,0.014-0.563,0.021-0.893s0.018-0.676,0.031-1.04
			c0.028-0.489,0.053-0.969,0.074-1.438c0.021-0.469,0.059-0.885,0.115-1.249c-0.252,0.042-0.47,0.08-0.651,0.115
			s-0.36,0.07-0.535,0.104c-0.176,0.035-0.354,0.07-0.535,0.105c-0.183,0.035-0.399,0.081-0.651,0.137
			c-0.504,0.112-0.872,0.186-1.103,0.221c-0.231,0.035-0.424,0.052-0.577,0.052c-0.112,0-0.193-0.014-0.242-0.042
			c-0.049-0.027-0.108-0.042-0.179-0.042c-0.084-0.056-0.143-0.122-0.178-0.199s-0.06-0.137-0.074-0.179
			c0-0.056,0.004-0.111,0.011-0.168c0.008-0.056,0.011-0.118,0.011-0.188c0-0.028,0.011-0.077,0.031-0.147
			c0.021-0.069,0.039-0.111,0.053-0.126c0.056-0.069,0.104-0.157,0.146-0.263c0.042-0.104,0.141-0.171,0.295-0.199
			c0.363-0.084,0.79-0.179,1.28-0.283c0.49-0.105,0.998-0.21,1.522-0.315c0.525-0.104,1.04-0.206,1.544-0.305
			c0.504-0.098,0.952-0.182,1.344-0.252c0.35-0.056,0.738-0.115,1.166-0.178c0.427-0.063,0.832-0.127,1.218-0.189
			c0.385-0.063,0.731-0.115,1.039-0.157s0.525-0.07,0.651-0.084c0.069,0,0.111,0.007,0.126,0.021
			c0.014,0.015,0.049,0.028,0.104,0.042c0.057,0.015,0.108,0.031,0.158,0.053c0.049,0.021,0.087,0.031,0.115,0.031
			s0.045-0.003,0.053-0.011c0.007-0.007,0.024-0.01,0.053-0.01c0.014,0,0.034,0.014,0.062,0.042c0.042,0.014,0.08,0.045,0.115,0.094
			c0.035,0.05,0.074,0.081,0.116,0.095c0.027,0.015,0.042,0.035,0.042,0.063s0.021,0.049,0.062,0.062
			c0,0.028,0.011,0.05,0.031,0.063c0.021,0.014,0.032,0.042,0.032,0.084c0.014,0.014,0.021,0.042,0.021,0.084
			s0.007,0.07,0.021,0.084c0.014,0.014,0.01,0.031-0.011,0.053c-0.021,0.021-0.031,0.045-0.031,0.073
			c-0.015,0.056-0.025,0.104-0.032,0.146s-0.01,0.084-0.01,0.126c0,0.015,0.014,0.063,0.042,0.147l0.021,0.314
			c-0.028,0.028-0.098,0.057-0.21,0.085c-0.112,0.027-0.188,0.056-0.23,0.084c-0.112,0.027-0.277,0.052-0.494,0.073
			c-0.217,0.021-0.459,0.045-0.725,0.073s-0.535,0.053-0.809,0.073c-0.272,0.021-0.514,0.046-0.724,0.074
			c-0.337,0.042-0.624,0.087-0.861,0.136c-0.238,0.05-0.406,0.074-0.504,0.074c-0.057,0-0.105,0.007-0.147,0.021
			c-0.042,0.015-0.077,0.028-0.104,0.042c-0.07,0.519-0.123,1.078-0.158,1.68c-0.035,0.603-0.066,1.142-0.094,1.617
			c-0.028,0.574-0.042,0.984-0.042,1.229c0,0.245,0,0.445,0,0.599c0,0.21,0,0.42,0,0.63s0.007,0.399,0.021,0.567L112.885,58.286z"/>
		<path d="M120.614,61.793c-0.238,0-0.473-0.014-0.704-0.042c-0.23-0.028-0.466-0.042-0.703-0.042
			c-0.21-0.154-0.329-0.287-0.357-0.398c0-0.07,0.004-0.141,0.011-0.211c0.007-0.069,0.011-0.153,0.011-0.252
			c0-0.042,0.018-0.107,0.053-0.199c0.034-0.091,0.052-0.144,0.052-0.157c0.042-0.154,0.091-0.266,0.147-0.336
			c0.014-0.616,0.049-1.394,0.104-2.331s0.119-1.897,0.189-2.877c0-0.056,0.007-0.115,0.021-0.179
			c0.014-0.062,0.021-0.122,0.021-0.179c0-0.069-0.004-0.146-0.011-0.23s-0.011-0.168-0.011-0.252c0-0.126,0.014-0.217,0.042-0.273
			c0-0.069,0.011-0.126,0.032-0.168c0.021-0.042,0.031-0.098,0.031-0.168c0-0.028-0.004-0.056-0.011-0.084s-0.011-0.056-0.011-0.084
			s0.007-0.056,0.021-0.084c0.014-0.028,0.021-0.063,0.021-0.105c0-0.056-0.003-0.122-0.01-0.199
			c-0.008-0.076-0.011-0.144-0.011-0.199c0.014-0.322,0.024-0.616,0.031-0.882s0.011-0.518,0.011-0.756
			c0-0.252,0.018-0.539,0.053-0.861c0.034-0.322,0.08-0.588,0.136-0.798c0-0.014,0.004-0.024,0.011-0.031
			c0.007-0.008,0.011-0.018,0.011-0.032c0.056-0.21,0.175-0.37,0.357-0.482l0.21-0.084c0.027,0,0.069-0.004,0.126-0.011
			c0.056-0.007,0.098-0.011,0.126-0.011c0.027-0.027,0.062-0.042,0.104-0.042s0.077-0.007,0.105-0.021
			c0.027,0,0.045,0.007,0.052,0.021c0.007,0.015,0.024,0.021,0.053,0.021c0.35,0.14,0.525,0.482,0.525,1.028
			c0,0.057,0.007,0.092,0.021,0.105c-0.014,0.014-0.021,0.035-0.021,0.062c0,0.028,0.003,0.057,0.011,0.084
			c0.007,0.028,0.01,0.057,0.01,0.084c-0.056,0-0.084,0.057-0.084,0.168v0.168c0,0.028,0.007,0.057,0.021,0.084
			c-0.028,0.322-0.06,0.693-0.095,1.113s-0.066,0.851-0.095,1.292c-0.028,0.44-0.056,0.871-0.084,1.291s-0.056,0.784-0.084,1.092
			c0.07-0.084,0.14-0.153,0.21-0.21c0.07-0.056,0.137-0.111,0.2-0.168c0.062-0.056,0.122-0.111,0.178-0.168
			c0.07-0.069,0.161-0.129,0.273-0.178c0.111-0.05,0.21-0.108,0.294-0.179s0.157-0.133,0.221-0.189
			c0.062-0.056,0.15-0.111,0.263-0.168c0.237-0.111,0.489-0.199,0.756-0.263c0.266-0.062,0.56-0.094,0.882-0.094
			c0.84,0,1.494,0.245,1.963,0.734c0.47,0.49,0.704,1.218,0.704,2.185c0,0.616-0.088,1.169-0.263,1.658
			c-0.175,0.49-0.409,0.925-0.703,1.303s-0.638,0.7-1.029,0.966c-0.393,0.266-0.806,0.482-1.239,0.651
			c-0.154,0.056-0.314,0.101-0.482,0.136s-0.309,0.066-0.42,0.095c-0.183,0.028-0.364,0.073-0.547,0.137
			c-0.182,0.062-0.364,0.108-0.546,0.137C121.362,61.772,120.977,61.793,120.614,61.793z M123.029,59.588
			c0.084-0.027,0.157-0.053,0.22-0.073c0.063-0.021,0.108-0.06,0.137-0.115c0.056-0.042,0.164-0.095,0.325-0.158
			c0.161-0.062,0.263-0.115,0.305-0.157c0.056-0.084,0.126-0.146,0.21-0.188s0.161-0.099,0.231-0.168
			c0.014-0.015,0.042-0.05,0.084-0.105s0.062-0.104,0.062-0.147c0.028,0,0.07-0.045,0.126-0.136
			c0.057-0.091,0.112-0.144,0.168-0.158c0-0.126,0.007-0.217,0.021-0.272c0.056-0.042,0.091-0.126,0.104-0.252
			c0.015-0.126,0.057-0.217,0.126-0.273c0.042-0.182,0.063-0.37,0.063-0.566c0-0.448-0.091-0.773-0.273-0.977
			c-0.182-0.203-0.497-0.305-0.944-0.305c-0.351,0-0.672,0.073-0.966,0.221c-0.294,0.146-0.564,0.329-0.809,0.546
			c-0.245,0.217-0.473,0.462-0.683,0.734c-0.21,0.273-0.406,0.536-0.588,0.788l-0.126,2.142c0.056,0,0.104-0.007,0.146-0.021
			s0.091-0.021,0.147-0.021c0,0.042,0.049,0.063,0.146,0.063c0.028,0,0.077,0.007,0.147,0.021c0.069,0.015,0.118,0.021,0.146,0.021
			c0.042,0,0.081-0.018,0.116-0.053c0.034-0.035,0.073-0.06,0.115-0.073C122.237,59.833,122.65,59.728,123.029,59.588z"/>
		<path d="M133.024,51.629l-0.188,0.084c-0.112,0-0.189,0.008-0.231,0.021c-0.49,0.112-0.906,0.322-1.249,0.63
			c-0.344,0.308-0.631,0.679-0.861,1.113c-0.231,0.434-0.399,0.917-0.504,1.448c-0.105,0.532-0.157,1.078-0.157,1.639
			c0,0.91,0.269,1.631,0.808,2.163s1.306,0.798,2.3,0.798c0.322,0,0.647-0.018,0.977-0.053s0.644-0.077,0.945-0.126
			c0.301-0.049,0.577-0.091,0.829-0.126s0.462-0.053,0.63-0.053c0.322,0,0.528,0.066,0.62,0.199
			c0.091,0.134,0.136,0.319,0.136,0.557c0,0.015-0.014,0.088-0.042,0.221s-0.049,0.207-0.062,0.221
			c-0.099,0.112-0.207,0.21-0.325,0.294c-0.119,0.084-0.256,0.168-0.41,0.252c-0.056,0.028-0.119,0.06-0.188,0.095
			c-0.07,0.035-0.126,0.066-0.168,0.094c-0.028,0.028-0.06,0.043-0.095,0.043s-0.066,0.014-0.095,0.042
			c-0.042,0-0.073,0.003-0.095,0.01c-0.021,0.007-0.052,0.011-0.094,0.011c-0.057,0.028-0.13,0.049-0.221,0.063
			c-0.092,0.014-0.165,0.021-0.221,0.021c-0.07,0.042-0.137,0.066-0.199,0.073c-0.063,0.007-0.137,0.018-0.221,0.032
			c-0.07,0.027-0.183,0.049-0.336,0.062c-0.154,0.014-0.28,0.028-0.378,0.042c-0.225,0.014-0.435,0.021-0.63,0.021
			c-0.196,0-0.386,0-0.567,0c-0.771,0-1.449-0.13-2.037-0.389s-1.078-0.609-1.47-1.05c-0.393-0.441-0.689-0.948-0.893-1.522
			s-0.305-1.177-0.305-1.807c0-0.882,0.091-1.718,0.273-2.51c0.182-0.79,0.454-1.508,0.818-2.152
			c0.057-0.056,0.095-0.14,0.116-0.252c0.021-0.111,0.066-0.182,0.136-0.21c0.084-0.056,0.161-0.157,0.231-0.305
			c0.07-0.146,0.133-0.248,0.189-0.304c0.056-0.015,0.118-0.057,0.188-0.126c0.07-0.07,0.119-0.134,0.147-0.189
			c0.056,0,0.094-0.024,0.115-0.073c0.021-0.049,0.045-0.088,0.073-0.116c0.028,0,0.06-0.014,0.095-0.042
			c0.034-0.027,0.066-0.056,0.095-0.084c0.042-0.027,0.111-0.073,0.21-0.136c0.098-0.063,0.16-0.123,0.188-0.179
			c0.084-0.028,0.168-0.053,0.252-0.073c0.084-0.021,0.154-0.032,0.21-0.032c0.028-0.056,0.081-0.101,0.158-0.136
			c0.076-0.035,0.164-0.088,0.262-0.158c0.154,0,0.267-0.01,0.336-0.031c0.07-0.021,0.141-0.031,0.21-0.031
			c0.112-0.056,0.295-0.108,0.547-0.157c0.252-0.05,0.482-0.074,0.692-0.074c0.322,0,0.644,0.06,0.966,0.179
			s0.581,0.276,0.777,0.473c0.294,0.294,0.441,0.602,0.441,0.924c0,0.154-0.042,0.344-0.126,0.567
			c-0.015,0.056-0.05,0.14-0.105,0.252c-0.07,0.112-0.179,0.192-0.325,0.241c-0.147,0.049-0.298,0.073-0.452,0.073
			c-0.153,0-0.262-0.003-0.325-0.01c-0.062-0.008-0.137-0.046-0.221-0.116c-0.056-0.042-0.108-0.073-0.157-0.095
			c-0.049-0.021-0.095-0.045-0.137-0.073c-0.196-0.098-0.371-0.146-0.524-0.146c-0.028,0-0.06,0.007-0.095,0.021
			c-0.035,0.015-0.066,0.021-0.095,0.021L133.024,51.629z"/>
		<path d="M146.107,62.339c-0.112,0-0.241-0.007-0.389-0.021c-0.146-0.015-0.221-0.057-0.221-0.126
			c-0.14-0.028-0.245-0.112-0.314-0.252c-0.042-0.084-0.073-0.193-0.095-0.326c-0.021-0.133-0.031-0.27-0.031-0.409
			c0-0.028,0-0.081,0-0.157c0-0.077,0.007-0.15,0.021-0.221c0-0.07,0.004-0.147,0.011-0.231s0.011-0.14,0.011-0.168l0.378-3.191
			c-0.028,0-0.07,0.018-0.126,0.053c-0.057,0.034-0.091,0.066-0.105,0.094c-0.028,0.015-0.049,0.028-0.062,0.042
			c-0.015,0.015-0.042,0.028-0.084,0.042c-0.028,0.015-0.053,0.035-0.073,0.063c-0.021,0.028-0.046,0.042-0.074,0.042
			c-0.014,0-0.028-0.004-0.042-0.011s-0.028-0.011-0.042-0.011c-0.028,0-0.052,0.008-0.073,0.021
			c-0.021,0.014-0.053,0.028-0.095,0.042c-0.028-0.028-0.049-0.042-0.062-0.042c-0.028,0-0.053,0.014-0.073,0.042
			c-0.021,0.028-0.053,0.049-0.095,0.062c-0.574,0.183-1.089,0.487-1.544,0.914s-0.871,0.906-1.249,1.438
			c-0.084,0.126-0.189,0.23-0.315,0.314c-0.056,0.07-0.098,0.158-0.126,0.263c-0.028,0.105-0.07,0.192-0.126,0.263
			c-0.07,0.126-0.14,0.249-0.21,0.367c-0.07,0.119-0.146,0.242-0.23,0.368s-0.169,0.248-0.253,0.367s-0.161,0.206-0.23,0.263
			c0-0.057-0.021-0.084-0.063-0.084c-0.056,0-0.115,0.042-0.178,0.126c-0.063,0.084-0.103,0.16-0.116,0.23l-0.104-0.23
			c-0.015,0.042-0.063,0.076-0.147,0.104s-0.154,0.049-0.21,0.063c0.014-0.015,0.021-0.042,0.021-0.084
			c0-0.07-0.031-0.126-0.095-0.168s-0.108-0.077-0.137-0.105c-0.224-0.196-0.336-0.482-0.336-0.86c0-0.154,0.028-0.326,0.084-0.515
			c0.056-0.189,0.154-0.382,0.294-0.578c0.448-0.657,0.906-1.229,1.376-1.711c0.469-0.483,0.935-0.921,1.396-1.312
			c-0.364-0.154-0.68-0.371-0.945-0.651c-0.266-0.279-0.49-0.588-0.672-0.924c-0.183-0.336-0.315-0.683-0.399-1.04
			c-0.084-0.356-0.126-0.688-0.126-0.997c0-0.588,0.07-1.12,0.21-1.596c0.141-0.476,0.329-0.896,0.567-1.26
			c0.07-0.099,0.15-0.2,0.241-0.305c0.091-0.105,0.179-0.172,0.263-0.2c0.07-0.069,0.129-0.14,0.179-0.21
			c0.049-0.069,0.115-0.133,0.199-0.188c0.616-0.42,1.316-0.63,2.101-0.63c0.63,0,1.2,0.108,1.711,0.325s0.906,0.521,1.187,0.913
			l0.294-0.378c0.014,0,0.035-0.007,0.063-0.021c0.056-0.028,0.118-0.042,0.188-0.042c0.028,0,0.063,0.011,0.105,0.031
			c0.042,0.021,0.076,0.031,0.104,0.031c0.056,0.015,0.098,0.025,0.126,0.032s0.056,0.024,0.084,0.052l0.378,0.399
			c0,0.014-0.01,0.053-0.031,0.115c-0.021,0.063-0.039,0.116-0.053,0.158c0,0.042-0.003,0.104-0.01,0.188
			c-0.008,0.084-0.019,0.161-0.032,0.231c-0.056,0.28-0.104,0.619-0.146,1.019c-0.042,0.398-0.084,0.934-0.126,1.606l-0.168,2.289
			c-0.015,0.014-0.021,0.034-0.021,0.062s0.007,0.053,0.021,0.073c0.014,0.021,0.021,0.046,0.021,0.074l-0.062,0.42
			c-0.015,0.028-0.021,0.07-0.021,0.126c0,0.042,0.004,0.08,0.011,0.115s0.011,0.081,0.011,0.137c0,0.028-0.008,0.066-0.021,0.115
			s-0.021,0.088-0.021,0.115v0.273c0,0.014,0.003,0.035,0.011,0.062c0.007,0.028,0.01,0.05,0.01,0.063
			c0,0.056-0.007,0.091-0.021,0.104c-0.015,0.015-0.021,0.057-0.021,0.126c0,0.015-0.003,0.032-0.01,0.053
			c-0.008,0.021-0.011,0.046-0.011,0.073c0,0.028,0.003,0.042,0.011,0.042c0.007,0,0.01,0.015,0.01,0.042
			c0,0.07-0.007,0.151-0.021,0.242c-0.015,0.091-0.042,0.157-0.084,0.199c0.027,0.014,0.06,0.035,0.095,0.063
			c0.034,0.027,0.052,0.056,0.052,0.084c-0.014,0.014-0.035,0.024-0.062,0.031c-0.028,0.007-0.042,0.024-0.042,0.053
			c0,0.042,0.007,0.069,0.021,0.084c0,0.027,0.007,0.049,0.021,0.062c0.014,0.015,0.021,0.035,0.021,0.063
			c-0.014,0-0.035,0.049-0.062,0.146c-0.015,0.042-0.035,0.084-0.063,0.126c0.014,0.028,0.024,0.05,0.031,0.063
			c0.008,0.014,0.011,0.035,0.011,0.062v0.105c-0.014,0.042-0.024,0.157-0.031,0.347c-0.007,0.188-0.011,0.312-0.011,0.367
			c0,0.028,0.004,0.046,0.011,0.053s0.011,0.018,0.011,0.031c0,0.07-0.008,0.119-0.021,0.146v0.925c0,0.027,0.004,0.062,0.011,0.104
			s0.011,0.077,0.011,0.105c0,0.098-0.008,0.191-0.021,0.283c-0.014,0.091-0.035,0.164-0.062,0.221
			c-0.028,0.042-0.088,0.06-0.179,0.052c-0.091-0.007-0.165,0.004-0.221,0.032c-0.07,0.027-0.14,0.06-0.21,0.094
			C146.288,62.321,146.204,62.339,146.107,62.339z M144.133,55.85c0.084,0,0.15-0.014,0.199-0.042
			c0.049-0.027,0.091-0.062,0.126-0.104s0.07-0.08,0.105-0.115c0.034-0.035,0.08-0.06,0.136-0.074
			c0.028-0.014,0.063-0.021,0.105-0.021s0.091-0.014,0.146-0.042c0.028-0.014,0.06-0.038,0.095-0.073s0.073-0.053,0.115-0.053
			c0.028,0,0.046-0.003,0.053-0.011c0.007-0.007,0.024-0.011,0.053-0.011c0.042,0,0.084,0.021,0.126,0.063
			c0.014,0,0.021-0.003,0.021-0.011c0-0.007,0.007-0.011,0.021-0.011l0.021-0.021l0.042,0.042c0.028,0.028,0.063,0.049,0.105,0.062
			l0.084-1.868c0-0.015,0-0.057,0-0.126c0-0.07,0.003-0.141,0.011-0.211c0.007-0.069,0.01-0.14,0.01-0.21c0-0.069,0-0.111,0-0.126
			c0-0.741-0.16-1.267-0.482-1.574c-0.322-0.309-0.722-0.462-1.197-0.462c-0.238,0-0.493,0.027-0.767,0.084
			c-0.272,0.056-0.521,0.171-0.745,0.346c-0.225,0.176-0.409,0.42-0.557,0.735s-0.221,0.731-0.221,1.25
			c0,0.518,0.063,0.941,0.189,1.27c0.126,0.33,0.294,0.592,0.504,0.788s0.44,0.333,0.692,0.409c0.253,0.077,0.505,0.115,0.757,0.115
			H144.133z"/>
		<path d="M165.574,62.318c-0.126,0.098-0.221,0.157-0.284,0.179c-0.062,0.021-0.122,0.038-0.178,0.052
			c-0.028,0.014-0.063,0.021-0.105,0.021c-0.168,0-0.309-0.081-0.42-0.242c-0.112-0.16-0.231-0.312-0.357-0.451
			c-0.028-0.07-0.052-0.165-0.073-0.283c-0.021-0.119-0.039-0.245-0.053-0.378s-0.024-0.256-0.031-0.368
			c-0.007-0.111-0.018-0.188-0.031-0.23c0-0.028-0.004-0.063-0.011-0.105s-0.011-0.091-0.011-0.146c0-0.168,0.007-0.354,0.021-0.557
			c0.014-0.203,0.027-0.409,0.042-0.619c0.014-0.168,0.024-0.378,0.031-0.63c0.007-0.253,0.018-0.515,0.031-0.788
			c0.014-0.272,0.028-0.549,0.042-0.829s0.028-0.546,0.042-0.798l-0.294,0.021c-0.084,0-0.252,0.007-0.504,0.021
			c-0.252,0.014-0.546,0.031-0.882,0.052c-0.336,0.021-0.689,0.042-1.061,0.063c-0.371,0.021-0.718,0.046-1.039,0.073
			c-0.028,0-0.05,0.004-0.063,0.011s-0.035,0.011-0.062,0.011c-0.057,0.378-0.103,0.763-0.137,1.154
			c-0.035,0.393-0.053,0.672-0.053,0.84c0,0.057,0,0.2,0,0.431c0,0.231-0.004,0.477-0.011,0.735s-0.01,0.504-0.01,0.735
			c0,0.23,0,0.374,0,0.43c0,0.378-0.015,0.738-0.042,1.082c-0.028,0.343-0.099,0.563-0.21,0.661
			c-0.099,0.084-0.218,0.126-0.357,0.126c-0.084,0-0.203-0.049-0.357-0.146c-0.07-0.057-0.136-0.116-0.199-0.179
			c-0.062-0.063-0.13-0.15-0.199-0.263c-0.07-0.084-0.13-0.182-0.179-0.294s-0.073-0.217-0.073-0.314
			c0-0.112-0.011-0.245-0.032-0.399c-0.021-0.154-0.031-0.273-0.031-0.357c0-0.056,0-0.164,0-0.325s0.004-0.343,0.011-0.546
			s0.014-0.399,0.021-0.588c0.008-0.189,0.011-0.34,0.011-0.451c0-0.141,0.007-0.295,0.021-0.463
			c0.014-0.168,0.024-0.325,0.031-0.472c0.007-0.147,0.014-0.27,0.021-0.368c0.007-0.098,0.01-0.153,0.01-0.168
			c0-0.182,0.024-0.438,0.074-0.767c0.049-0.328,0.087-0.591,0.115-0.787c0.014-0.112,0.049-0.315,0.104-0.609
			s0.116-0.599,0.179-0.913c0.063-0.315,0.126-0.609,0.189-0.882c0.062-0.273,0.108-0.444,0.136-0.515
			c0.042-0.196,0.099-0.413,0.168-0.651c0.07-0.237,0.141-0.462,0.21-0.672c0.07-0.252,0.147-0.504,0.231-0.756
			c0.042-0.112,0.08-0.228,0.115-0.347c0.035-0.118,0.053-0.192,0.053-0.221c0-0.111,0.014-0.202,0.042-0.272
			c0.028-0.098,0.122-0.192,0.283-0.283c0.161-0.092,0.291-0.137,0.389-0.137c0.378,0,0.669,0.129,0.872,0.389
			c0.202,0.259,0.304,0.493,0.304,0.703c0,0.154-0.014,0.287-0.042,0.399c-0.027,0.111-0.077,0.224-0.146,0.336
			c-0.084,0.154-0.161,0.312-0.231,0.472c-0.07,0.161-0.14,0.34-0.21,0.536c-0.028,0.084-0.062,0.199-0.104,0.347
			c-0.042,0.146-0.088,0.308-0.137,0.482c-0.049,0.176-0.095,0.347-0.137,0.515s-0.077,0.302-0.104,0.399l-0.147,0.44l1.029-0.062
			c0.182-0.014,0.374-0.021,0.577-0.021s0.402,0,0.599,0c0.14,0,0.259,0.004,0.357,0.011c0.098,0.007,0.188,0.011,0.272,0.011
			c0.14,0,0.27-0.004,0.389-0.011s0.283-0.024,0.493-0.053c0.07-0.321,0.133-0.605,0.189-0.851c0.056-0.244,0.098-0.431,0.126-0.557
			c0.028-0.153,0.073-0.336,0.137-0.546c0.062-0.21,0.133-0.43,0.21-0.661c0.076-0.231,0.15-0.465,0.221-0.703
			c0.069-0.238,0.133-0.463,0.188-0.673c0.098-0.392,0.179-0.692,0.241-0.902c0.063-0.21,0.13-0.455,0.2-0.735
			c0.069-0.266,0.118-0.507,0.146-0.725c0.028-0.217,0.063-0.389,0.105-0.515c0.111-0.35,0.37-0.524,0.776-0.524
			c0.07,0,0.133,0.021,0.189,0.062c0.056,0.042,0.175,0.147,0.356,0.315c0.141,0.168,0.221,0.36,0.242,0.577
			c0.021,0.218,0.031,0.424,0.031,0.62c0,0.084-0.014,0.188-0.042,0.314s-0.062,0.256-0.104,0.389
			c-0.043,0.133-0.081,0.263-0.116,0.389s-0.06,0.23-0.073,0.314c-0.07,0.336-0.141,0.62-0.21,0.851
			c-0.07,0.231-0.161,0.543-0.273,0.935c-0.112,0.393-0.228,0.826-0.346,1.302c-0.119,0.477-0.235,0.938-0.347,1.387
			c0.069,0.028,0.129,0.049,0.179,0.062c0.049,0.015,0.08,0.021,0.094,0.021c0.07,0.014,0.126,0.042,0.168,0.084
			c-0.028,0.056-0.042,0.091-0.042,0.104c0,0.028,0.011,0.05,0.032,0.063c0.021,0.014,0.045,0.042,0.073,0.084l-0.147,0.042
			c-0.042,0.028-0.062,0.049-0.062,0.062c0,0.015,0.007,0.025,0.021,0.032s0.021,0.018,0.021,0.031c0,0.028-0.008,0.042-0.021,0.042
			s-0.021,0.014-0.021,0.042c-0.015,0.182-0.073,0.35-0.179,0.504s-0.234,0.287-0.389,0.399c-0.028,0.195-0.049,0.405-0.062,0.63
			c-0.015,0.224-0.032,0.44-0.053,0.65c-0.021,0.21-0.039,0.399-0.053,0.567s-0.021,0.28-0.021,0.336
			c-0.015,0.14-0.025,0.266-0.032,0.378s-0.01,0.224-0.01,0.336c0,0.07,0.003,0.147,0.01,0.231s0.011,0.161,0.011,0.23
			c0,0.084,0.004,0.183,0.011,0.294c0.007,0.112,0.011,0.238,0.011,0.378c0,0.07-0.004,0.147-0.011,0.231s-0.011,0.146-0.011,0.188
			c0,0.141,0.014,0.284,0.042,0.431c0.028,0.147,0.042,0.298,0.042,0.452c-0.014,0.027-0.021,0.069-0.021,0.126
			c0,0.027,0.003,0.056,0.01,0.084c0.007,0.027,0.011,0.062,0.011,0.104c-0.014,0.098-0.049,0.21-0.104,0.336
			C165.769,62.087,165.685,62.206,165.574,62.318z"/>
		<path d="M177.69,62.57c-0.028,0-0.052,0.003-0.073,0.011c-0.021,0.007-0.053,0.01-0.095,0.01c-0.028,0-0.045-0.018-0.052-0.052
			c-0.008-0.035-0.025-0.067-0.053-0.095c-0.028-0.028-0.06-0.039-0.095-0.032c-0.035,0.008-0.06,0.004-0.073-0.01l-0.084-0.063
			l-0.063-0.084c-0.014-0.028-0.031-0.049-0.053-0.062c-0.021-0.015-0.038-0.035-0.052-0.063c-0.057-0.126-0.102-0.263-0.137-0.409
			c-0.035-0.147-0.081-0.298-0.137-0.451c0-0.028-0.004-0.05-0.011-0.063s-0.018-0.035-0.031-0.062c0-0.015-0.007-0.024-0.021-0.032
			c-0.015-0.007-0.021-0.018-0.021-0.031s0.003-0.028,0.011-0.042c0.007-0.014,0.011-0.028,0.011-0.042s-0.004-0.024-0.011-0.031
			c-0.008-0.007-0.011-0.024-0.011-0.053l-0.126-0.336c-0.084-0.21-0.165-0.431-0.241-0.661c-0.077-0.231-0.15-0.466-0.221-0.704
			c-0.098,0-0.154-0.014-0.168-0.042c-0.014-0.014-0.035-0.021-0.063-0.021c-0.027,0-0.056,0.003-0.084,0.01
			c-0.027,0.008-0.056,0.011-0.084,0.011c0.015-0.014,0.007-0.024-0.021-0.031c-0.028-0.007-0.057-0.011-0.084-0.011
			c-0.112,0-0.183,0-0.21,0c-0.028,0-0.05-0.007-0.063-0.021c-0.028,0-0.073-0.011-0.136-0.032
			c-0.063-0.021-0.123-0.038-0.179-0.052c-0.238-0.042-0.504-0.081-0.798-0.116c-0.294-0.034-0.592-0.059-0.893-0.073
			c-0.302-0.014-0.599-0.027-0.893-0.042c-0.294-0.014-0.561-0.021-0.798-0.021c-0.084,0-0.161,0-0.231,0s-0.14,0.007-0.21,0.021
			c-0.042,0.406-0.104,0.822-0.188,1.25c-0.084,0.427-0.189,0.808-0.315,1.145c0,0.084-0.014,0.153-0.042,0.21l-0.063,0.084
			c-0.126,0.168-0.237,0.317-0.336,0.451c-0.098,0.133-0.224,0.199-0.378,0.199c-0.224,0-0.371-0.104-0.44-0.314
			c-0.07-0.21-0.105-0.455-0.105-0.735c0-0.196,0.011-0.399,0.031-0.609c0.021-0.21,0.046-0.412,0.074-0.608
			c0-0.014,0.007-0.024,0.021-0.031c0.014-0.008,0.021-0.024,0.021-0.053c0-0.014-0.004-0.024-0.011-0.032
			c-0.007-0.007-0.011-0.023-0.011-0.052c0-0.056,0.011-0.179,0.032-0.368c0.021-0.188,0.038-0.304,0.052-0.346
			c0.014-0.028,0.021-0.063,0.021-0.105c0-0.056-0.015-0.098-0.042-0.126c0.014-0.042,0.034-0.084,0.062-0.126
			c0.028-0.028,0.046-0.06,0.053-0.095c0.007-0.034,0.018-0.053,0.031-0.053c-0.028-0.056-0.042-0.098-0.042-0.126
			c0-0.027,0.007-0.056,0.021-0.084c0.014-0.014,0.024-0.021,0.031-0.021s0.018-0.007,0.031-0.021c0.014,0,0.021-0.007,0.021-0.021
			c0-0.028-0.018-0.06-0.053-0.095c-0.035-0.034-0.06-0.06-0.073-0.073c0.042-0.042,0.073-0.105,0.095-0.189
			c0.021-0.084,0.031-0.16,0.031-0.23c0-0.028-0.004-0.042-0.011-0.042s-0.011-0.014-0.011-0.042s0.007-0.053,0.021-0.073
			c0.014-0.021,0.021-0.039,0.021-0.053c0-0.07,0.007-0.13,0.021-0.179c0.014-0.049,0.021-0.108,0.021-0.179
			c0-0.111,0.007-0.202,0.021-0.272c0-0.028,0.007-0.066,0.021-0.116c0.014-0.049,0.028-0.087,0.042-0.115
			c0-0.056-0.003-0.104-0.01-0.146c-0.008-0.042-0.011-0.077-0.011-0.105c0-0.027,0.014-0.069,0.042-0.126
			c0.014-0.07,0.027-0.137,0.042-0.199c0.014-0.063,0.027-0.137,0.042-0.221c0-0.028-0.004-0.053-0.011-0.073
			c-0.007-0.021-0.011-0.046-0.011-0.074c0-0.027,0.007-0.049,0.021-0.062c0-0.056,0.007-0.144,0.021-0.263
			c0.014-0.118,0.035-0.221,0.063-0.305c0.014-0.014,0.021-0.034,0.021-0.062s-0.003-0.056-0.01-0.084
			c-0.008-0.028-0.011-0.056-0.011-0.084s0.003-0.049,0.011-0.063c0.007-0.014,0.01-0.027,0.01-0.042
			c0.028-0.434,0.049-0.805,0.063-1.112c0.014-0.309,0.034-0.658,0.062-1.051c0.042-0.405,0.112-0.745,0.21-1.019
			c0.099-0.272,0.329-0.409,0.693-0.409c0.112,0,0.189,0.007,0.231,0.021c0.027,0.014,0.045,0.027,0.052,0.042
			c0.007,0.014,0.024,0.021,0.053,0.021c0.014,0.015,0.024,0.021,0.031,0.021s0.018,0.014,0.032,0.042l0.104,0.104
			c0,0.028,0.007,0.05,0.021,0.063c0.014,0.014,0.027,0.035,0.042,0.062c0.014,0.028,0.021,0.07,0.021,0.126
			c0.154-0.405,0.315-0.773,0.483-1.103c0.168-0.328,0.336-0.605,0.504-0.829c0.14-0.182,0.266-0.308,0.378-0.378
			s0.23-0.105,0.357-0.105c0.195,0,0.353,0.042,0.472,0.126s0.276,0.302,0.473,0.651c0.378,0.658,0.731,1.403,1.061,2.236
			s0.641,1.69,0.935,2.572s0.577,1.751,0.851,2.604s0.542,1.624,0.809,2.31c0.14,0.336,0.263,0.634,0.367,0.893
			c0.105,0.26,0.192,0.486,0.263,0.683l0.042,0.126c0,0.014,0.003,0.024,0.011,0.031c0.007,0.007,0.011,0.018,0.011,0.032
			c0,0.014,0.003,0.023,0.01,0.031c0.007,0.007,0.011,0.018,0.011,0.031l0.042,0.084c0.028,0.07,0.045,0.129,0.053,0.179
			c0.007,0.049,0.024,0.108,0.053,0.179v0.042c0,0.014,0.003,0.027,0.01,0.042c0.007,0.014,0.011,0.027,0.011,0.042
			c0,0.014-0.007,0.027-0.021,0.042l-0.021,0.021c-0.056,0.042-0.077,0.081-0.062,0.115c0.014,0.035-0.035,0.053-0.147,0.053
			c-0.028,0.028-0.042,0.049-0.042,0.063c0,0.111-0.011,0.164-0.031,0.157c-0.021-0.007-0.032,0.003-0.032,0.031
			s-0.01,0.046-0.031,0.053c-0.021,0.007-0.038,0.024-0.053,0.053c-0.042,0.014-0.073,0.027-0.094,0.042
			c-0.021,0.014-0.046,0.021-0.074,0.021c-0.014,0-0.024-0.003-0.031-0.01c-0.007-0.008-0.018-0.011-0.031-0.011
			c-0.028,0-0.066-0.015-0.115-0.042c-0.05-0.028-0.088-0.042-0.116-0.042s-0.049-0.004-0.062-0.011
			c-0.015-0.007-0.035-0.011-0.063-0.011s-0.049,0.004-0.062,0.011C177.739,62.566,177.718,62.57,177.69,62.57z M175.464,57.32
			c-0.154-0.518-0.315-1.04-0.483-1.564c-0.168-0.525-0.336-1.032-0.504-1.522s-0.336-0.956-0.504-1.396
			c-0.168-0.441-0.343-0.837-0.524-1.187c-0.07,0-0.145,0.052-0.221,0.157c-0.077,0.104-0.158,0.241-0.242,0.409
			c-0.168,0.364-0.336,0.784-0.504,1.261c-0.168,0.476-0.318,0.948-0.451,1.417c-0.133,0.47-0.249,0.899-0.347,1.292
			c-0.098,0.392-0.161,0.672-0.188,0.84c0.35,0.028,0.748,0.049,1.196,0.062c0.448,0.015,0.917,0.042,1.407,0.084
			c0.196,0.015,0.413,0.035,0.651,0.063C174.988,57.265,175.226,57.292,175.464,57.32z"/>
		<path d="M191.014,57.729c-0.021,0.47-0.045,0.921-0.073,1.354c-0.028,0.435-0.062,0.857-0.104,1.271s-0.084,0.851-0.126,1.312
			c-0.028,0.154-0.099,0.263-0.21,0.325c-0.112,0.063-0.238,0.102-0.378,0.116c-0.07,0.014-0.145,0.031-0.221,0.052
			c-0.077,0.021-0.165,0.032-0.263,0.032c-0.225,0-0.378-0.035-0.462-0.105c-0.099-0.084-0.157-0.21-0.179-0.378
			c-0.021-0.168-0.031-0.343-0.031-0.524c0-0.322,0.014-0.647,0.042-0.977c0.027-0.329,0.056-0.654,0.084-0.977
			c0.027-0.267,0.038-0.512,0.031-0.735s0.003-0.448,0.031-0.672c0.014-0.21,0.032-0.486,0.053-0.83
			c0.021-0.343,0.042-0.721,0.063-1.134c0.021-0.412,0.038-0.843,0.052-1.291s0.032-0.879,0.053-1.292
			c0.021-0.412,0.035-0.787,0.042-1.123s0.011-0.609,0.011-0.819c0-0.042,0.003-0.098,0.011-0.168
			c0.007-0.069,0.01-0.126,0.01-0.168c0-0.168,0.007-0.35,0.021-0.546c0.014-0.196,0.049-0.381,0.104-0.557
			c0.057-0.175,0.133-0.325,0.231-0.451c0.098-0.126,0.245-0.189,0.441-0.189c0.14,0.028,0.262,0.039,0.367,0.031
			c0.104-0.007,0.206,0.019,0.305,0.074c0.084,0.056,0.153,0.126,0.21,0.21c0.027,0.028,0.045,0.07,0.052,0.126
			c0.008,0.056,0.018,0.098,0.032,0.126c0.056,0.126,0.084,0.308,0.084,0.546c0,0.266-0.004,0.515-0.011,0.745
			c-0.007,0.231-0.018,0.452-0.031,0.662c0,0.07-0.011,0.146-0.032,0.23c-0.021,0.084-0.031,0.161-0.031,0.231
			s0.004,0.164,0.011,0.283s0.011,0.214,0.011,0.283c-0.028,0.309-0.05,0.564-0.063,0.767c-0.014,0.203-0.021,0.452-0.021,0.746
			c0.182,0.014,0.35,0.024,0.504,0.031c0.153,0.007,0.308,0.011,0.462,0.011c0.56,0,1.109-0.133,1.648-0.399
			c0.539-0.266,0.983-0.672,1.333-1.218c0.028-0.028,0.066-0.073,0.116-0.137c0.049-0.062,0.087-0.115,0.115-0.157
			c0.028-0.056,0.045-0.108,0.053-0.157c0.007-0.049,0.024-0.102,0.053-0.158c0.027-0.069,0.056-0.133,0.084-0.188
			c0.027-0.056,0.056-0.119,0.084-0.189c0.069-0.224,0.118-0.462,0.146-0.714s0.042-0.518,0.042-0.798
			c0-0.112-0.004-0.206-0.011-0.283s-0.01-0.158-0.01-0.242c0-0.279,0.08-0.518,0.241-0.714c0.161-0.195,0.354-0.294,0.577-0.294
			c0.364,0,0.637,0.031,0.819,0.095c0.182,0.062,0.272,0.207,0.272,0.431c0,0.042-0.003,0.102-0.01,0.179
			c-0.008,0.076-0.011,0.144-0.011,0.199c0,1.302-0.234,2.453-0.703,3.454c-0.47,1.001-1.138,1.768-2.006,2.3
			c0.182,0.14,0.343,0.287,0.483,0.44c0.056,0.07,0.094,0.13,0.115,0.179c0.021,0.05,0.06,0.108,0.115,0.179
			c0.042,0.057,0.087,0.099,0.137,0.126c0.049,0.028,0.102,0.07,0.157,0.126c0.07,0.07,0.119,0.137,0.147,0.199
			c0.027,0.063,0.056,0.123,0.084,0.179c0.447,0.687,0.801,1.421,1.061,2.205c0.259,0.784,0.388,1.463,0.388,2.037
			c0,0.364-0.042,0.616-0.126,0.756c-0.069,0.084-0.157,0.14-0.262,0.168c-0.105,0.028-0.214,0.042-0.326,0.042
			c-0.266,0-0.482-0.056-0.65-0.168c-0.07-0.042-0.144-0.081-0.221-0.115c-0.077-0.035-0.15-0.13-0.221-0.283
			c-0.028-0.084-0.046-0.161-0.053-0.231s-0.024-0.161-0.052-0.273c-0.015-0.056-0.039-0.115-0.074-0.178
			c-0.035-0.063-0.06-0.123-0.073-0.179l-0.062-0.441c-0.028-0.069-0.053-0.133-0.074-0.188c-0.021-0.056-0.045-0.133-0.073-0.231
			c-0.112-0.405-0.238-0.783-0.378-1.134c-0.141-0.35-0.322-0.686-0.546-1.008c-0.057-0.07-0.105-0.15-0.147-0.241
			c-0.042-0.092-0.098-0.172-0.168-0.242c-0.07-0.084-0.154-0.15-0.252-0.199s-0.188-0.108-0.272-0.179
			c-0.21-0.153-0.462-0.276-0.756-0.367c-0.295-0.091-0.596-0.144-0.903-0.157c-0.112,0-0.221-0.004-0.325-0.011
			c-0.105-0.007-0.193-0.011-0.263-0.011h-0.252C191.06,56.739,191.035,57.261,191.014,57.729z"/>
		<path d="M202.742,56.753c-0.07-0.21-0.168-0.462-0.294-0.756s-0.266-0.595-0.42-0.903c-0.154-0.308-0.308-0.602-0.462-0.882
			c-0.154-0.279-0.28-0.518-0.378-0.714c-0.238-0.42-0.486-0.809-0.745-1.165c-0.26-0.357-0.494-0.662-0.704-0.914l-0.272-0.314
			c-0.112-0.112-0.21-0.214-0.294-0.305s-0.134-0.15-0.147-0.179c-0.042-0.042-0.062-0.091-0.062-0.147
			c0-0.027,0.003-0.045,0.01-0.052s0.011-0.024,0.011-0.053s-0.007-0.045-0.021-0.053c-0.015-0.007-0.021-0.024-0.021-0.053v-0.042
			c0-0.014,0.007-0.021,0.021-0.021c-0.028,0-0.042-0.028-0.042-0.084s-0.008-0.133-0.021-0.231l-0.021-0.188
			c0.014-0.112,0.098-0.221,0.252-0.325c0.153-0.105,0.301-0.158,0.44-0.158c0.266,0,0.486,0.053,0.662,0.158
			c0.175,0.104,0.339,0.241,0.493,0.409c0.168,0.182,0.354,0.398,0.557,0.65c0.202,0.253,0.36,0.463,0.473,0.631
			c0.098,0.154,0.224,0.35,0.378,0.588c0.153,0.238,0.304,0.486,0.451,0.745c0.146,0.26,0.287,0.512,0.42,0.756
			c0.133,0.245,0.234,0.459,0.305,0.641l0.44,0.903c0.057,0.168,0.105,0.308,0.147,0.42s0.077,0.23,0.104,0.356
			c0.169-0.336,0.351-0.759,0.547-1.271c0.195-0.511,0.381-1.032,0.556-1.564c0.176-0.531,0.322-1.042,0.441-1.532
			s0.179-0.89,0.179-1.197c0-0.196,0.06-0.367,0.179-0.515c0.118-0.147,0.234-0.221,0.346-0.221c0.126,0,0.242,0.015,0.347,0.042
			c0.105,0.028,0.234,0.099,0.389,0.21c0.14,0.084,0.252,0.193,0.336,0.326s0.126,0.29,0.126,0.472c0,0.07-0.011,0.161-0.031,0.273
			c-0.021,0.112-0.031,0.203-0.031,0.273c0,0.042,0.003,0.08,0.01,0.115s0.011,0.073,0.011,0.115v0.084
			c-0.028,0.322-0.119,0.711-0.272,1.166c-0.154,0.455-0.329,0.917-0.525,1.386s-0.389,0.917-0.577,1.344
			c-0.189,0.428-0.333,0.767-0.431,1.019c-0.112,0.294-0.267,0.665-0.462,1.113c-0.196,0.448-0.396,0.899-0.599,1.354
			c-0.203,0.455-0.393,0.871-0.567,1.249s-0.29,0.63-0.347,0.756c-0.111,0.267-0.238,0.543-0.378,0.83
			c-0.14,0.286-0.287,0.57-0.44,0.851c-0.267,0.476-0.546,0.714-0.84,0.714c-0.126,0-0.229-0.024-0.305-0.073
			c-0.077-0.05-0.15-0.116-0.221-0.2c-0.084-0.098-0.144-0.21-0.179-0.336s-0.053-0.245-0.053-0.356
			c0-0.225,0.039-0.438,0.116-0.641c0.076-0.203,0.164-0.396,0.263-0.578c0.098-0.182,0.213-0.409,0.346-0.682
			c0.133-0.273,0.276-0.57,0.431-0.893s0.308-0.651,0.462-0.987s0.301-0.651,0.441-0.945c-0.028-0.014-0.057-0.021-0.084-0.021
			c-0.084,0-0.168-0.014-0.252-0.042c-0.028-0.014-0.05-0.032-0.063-0.053c-0.014-0.021-0.035-0.053-0.062-0.095
			c0-0.014-0.004-0.024-0.011-0.031s-0.011-0.018-0.011-0.031L202.742,56.753z"/>
		<path d="M216.749,55.661c-0.168,0.28-0.389,0.585-0.661,0.913c-0.273,0.329-0.627,0.662-1.061,0.998
			c-0.448,0.35-0.921,0.63-1.418,0.84s-1.012,0.315-1.543,0.315h-0.294c-0.015-0.028-0.032-0.042-0.053-0.042
			c-0.021,0-0.046-0.008-0.073-0.021c-0.196-0.028-0.336-0.056-0.42-0.084s-0.161-0.062-0.231-0.105
			c-0.014,0.07-0.024,0.134-0.031,0.189c-0.008,0.056-0.011,0.119-0.011,0.189c0,0.084,0.003,0.161,0.011,0.23
			c0.007,0.07,0.018,0.147,0.031,0.231c0,0.098-0.007,0.182-0.021,0.252l0.042,0.252c0.027,0.238,0.042,0.455,0.042,0.65
			c0,0.196,0.014,0.344,0.042,0.441c0,0.028-0.004,0.056-0.011,0.084c-0.008,0.028-0.011,0.056-0.011,0.084
			c0,0.112,0.007,0.213,0.021,0.305c0.014,0.091,0.021,0.192,0.021,0.305c0,0.21-0.073,0.423-0.221,0.64
			c-0.146,0.218-0.339,0.326-0.577,0.326c-0.141,0-0.28-0.042-0.42-0.126c-0.07-0.057-0.108-0.095-0.115-0.116
			c-0.008-0.021-0.046-0.045-0.116-0.073c0-0.042-0.021-0.073-0.062-0.095c-0.042-0.021-0.077-0.052-0.105-0.094
			c0.014-0.015,0.021-0.035,0.021-0.063s-0.015-0.049-0.042-0.062c-0.028-0.015-0.057-0.05-0.084-0.105
			c-0.028-0.07-0.057-0.146-0.084-0.23c-0.028-0.084-0.05-0.203-0.063-0.357c-0.028-0.126-0.049-0.315-0.062-0.567
			c-0.015-0.252-0.021-0.518-0.021-0.798c0-0.363,0.007-0.725,0.021-1.081c0.014-0.357,0.027-0.627,0.042-0.809
			c0-0.126,0.007-0.308,0.021-0.546s0.032-0.494,0.053-0.767c0.021-0.273,0.045-0.55,0.073-0.829
			c0.028-0.28,0.056-0.519,0.084-0.715c0.014-0.111,0.039-0.308,0.074-0.588c0.034-0.279,0.08-0.58,0.136-0.902
			s0.112-0.638,0.168-0.945s0.112-0.546,0.168-0.714c0.07-0.196,0.141-0.452,0.21-0.767c0.07-0.315,0.119-0.563,0.147-0.746
			c-0.014-0.069-0.021-0.146-0.021-0.23s0-0.147,0-0.189s0.008-0.098,0.021-0.168c0.014-0.069,0.035-0.126,0.062-0.168
			c0.028-0.027,0.063-0.066,0.105-0.115s0.098-0.087,0.168-0.115c0.014-0.028,0.049-0.049,0.105-0.063
			c0.056-0.014,0.118-0.021,0.188-0.021c0.056,0,0.108,0.014,0.157,0.042s0.102,0.056,0.158,0.084
			c0.056,0.042,0.111,0.077,0.168,0.104c0.098,0.099,0.199,0.242,0.304,0.431c0.105,0.189,0.192,0.36,0.263,0.515
			c0.168-0.196,0.357-0.392,0.567-0.588s0.448-0.374,0.714-0.535s0.557-0.291,0.871-0.389c0.315-0.098,0.662-0.147,1.04-0.147
			c0.574,0,1.063,0.172,1.47,0.515s0.707,0.78,0.903,1.312c0.042,0.028,0.062,0.077,0.062,0.147
			c0.014,0.027,0.021,0.069,0.021,0.126c0.069,0.21,0.122,0.416,0.157,0.619s0.053,0.409,0.053,0.619c0,0.084,0,0.168,0,0.252
			s-0.015,0.168-0.042,0.252c0.014,0.028,0.021,0.063,0.021,0.105c0,0.07-0.007,0.119-0.021,0.146
			c-0.07,0.406-0.196,0.816-0.378,1.229c-0.183,0.413-0.413,0.823-0.693,1.229L216.749,55.661z M216.099,52.994
			c-0.015-0.014-0.021-0.035-0.021-0.063v-0.084c0-0.111,0.007-0.217,0.021-0.314c0.014-0.098,0.021-0.203,0.021-0.315
			c0-0.195-0.024-0.381-0.073-0.557c-0.05-0.175-0.144-0.346-0.284-0.514l-0.104-0.105c-0.154-0.098-0.309-0.146-0.462-0.146
			c-0.141,0-0.276,0.027-0.409,0.084c-0.134,0.056-0.271,0.111-0.41,0.168l-0.146,0.062c-0.099,0.028-0.161,0.077-0.189,0.147
			c-0.07,0.07-0.13,0.122-0.179,0.157s-0.108,0.081-0.178,0.137l-0.084,0.126c-0.07,0.07-0.126,0.15-0.168,0.241
			s-0.099,0.179-0.168,0.263l-0.127,0.146l-0.062,0.189c-0.168,0.224-0.34,0.444-0.515,0.661c-0.175,0.218-0.34,0.445-0.493,0.683
			c-0.028,0.028-0.039,0.053-0.031,0.073c0.007,0.021,0.003,0.046-0.011,0.074l-0.147,0.294c-0.014,0.07-0.035,0.144-0.062,0.221
			c-0.028,0.076-0.05,0.157-0.063,0.241l-0.084,0.168l-0.062,0.188c0,0.028-0.004,0.088-0.011,0.179
			c-0.007,0.092-0.024,0.15-0.053,0.179c-0.042,0.112-0.084,0.23-0.126,0.357c-0.042,0.126-0.062,0.266-0.062,0.42
			c0,0.098,0.007,0.175,0.021,0.23c0.168,0.196,0.385,0.294,0.651,0.294c0.069,0,0.126-0.007,0.168-0.021
			c0.027,0,0.049,0.003,0.062,0.01c0.014,0.008,0.035,0.011,0.063,0.011c0.014,0,0.034-0.003,0.062-0.011
			c0.028-0.007,0.049-0.01,0.063-0.01c0.069-0.042,0.144-0.066,0.221-0.074c0.076-0.007,0.157-0.031,0.241-0.073
			c0.028,0,0.06-0.007,0.095-0.021c0.034-0.014,0.066-0.028,0.094-0.042c0.28-0.112,0.547-0.259,0.799-0.441
			c0.252-0.182,0.511-0.427,0.776-0.735c0.322-0.363,0.592-0.728,0.809-1.092c0.217-0.363,0.382-0.756,0.494-1.176
			C215.987,53.148,216.029,53.078,216.099,52.994z"/>
		<path d="M223.511,51.629l-0.188,0.084c-0.112,0-0.189,0.008-0.231,0.021c-0.49,0.112-0.906,0.322-1.249,0.63
			c-0.344,0.308-0.631,0.679-0.861,1.113c-0.231,0.434-0.399,0.917-0.504,1.448c-0.105,0.532-0.157,1.078-0.157,1.639
			c0,0.91,0.269,1.631,0.808,2.163s1.306,0.798,2.3,0.798c0.322,0,0.647-0.018,0.977-0.053s0.644-0.077,0.945-0.126
			c0.301-0.049,0.577-0.091,0.829-0.126s0.462-0.053,0.63-0.053c0.322,0,0.528,0.066,0.62,0.199
			c0.091,0.134,0.136,0.319,0.136,0.557c0,0.015-0.014,0.088-0.042,0.221s-0.049,0.207-0.062,0.221
			c-0.099,0.112-0.207,0.21-0.325,0.294c-0.119,0.084-0.256,0.168-0.41,0.252c-0.056,0.028-0.119,0.06-0.188,0.095
			c-0.07,0.035-0.126,0.066-0.168,0.094c-0.028,0.028-0.06,0.043-0.095,0.043s-0.066,0.014-0.095,0.042
			c-0.042,0-0.073,0.003-0.095,0.01c-0.021,0.007-0.052,0.011-0.094,0.011c-0.057,0.028-0.13,0.049-0.221,0.063
			c-0.092,0.014-0.165,0.021-0.221,0.021c-0.07,0.042-0.137,0.066-0.199,0.073c-0.063,0.007-0.137,0.018-0.221,0.032
			c-0.07,0.027-0.183,0.049-0.336,0.062c-0.154,0.014-0.28,0.028-0.378,0.042c-0.225,0.014-0.435,0.021-0.63,0.021
			c-0.196,0-0.386,0-0.567,0c-0.771,0-1.449-0.13-2.037-0.389s-1.078-0.609-1.47-1.05c-0.393-0.441-0.689-0.948-0.893-1.522
			s-0.305-1.177-0.305-1.807c0-0.882,0.091-1.718,0.273-2.51c0.182-0.79,0.454-1.508,0.818-2.152
			c0.057-0.056,0.095-0.14,0.116-0.252c0.021-0.111,0.066-0.182,0.136-0.21c0.084-0.056,0.161-0.157,0.231-0.305
			c0.07-0.146,0.133-0.248,0.189-0.304c0.056-0.015,0.118-0.057,0.188-0.126c0.07-0.07,0.119-0.134,0.147-0.189
			c0.056,0,0.094-0.024,0.115-0.073c0.021-0.049,0.045-0.088,0.073-0.116c0.028,0,0.06-0.014,0.095-0.042
			c0.034-0.027,0.066-0.056,0.095-0.084c0.042-0.027,0.111-0.073,0.21-0.136c0.098-0.063,0.16-0.123,0.188-0.179
			c0.084-0.028,0.168-0.053,0.252-0.073c0.084-0.021,0.154-0.032,0.21-0.032c0.028-0.056,0.081-0.101,0.158-0.136
			c0.076-0.035,0.164-0.088,0.262-0.158c0.154,0,0.267-0.01,0.336-0.031c0.07-0.021,0.141-0.031,0.21-0.031
			c0.112-0.056,0.295-0.108,0.547-0.157c0.252-0.05,0.482-0.074,0.692-0.074c0.322,0,0.644,0.06,0.966,0.179
			s0.581,0.276,0.777,0.473c0.294,0.294,0.441,0.602,0.441,0.924c0,0.154-0.042,0.344-0.126,0.567
			c-0.015,0.056-0.05,0.14-0.105,0.252c-0.07,0.112-0.179,0.192-0.325,0.241c-0.147,0.049-0.298,0.073-0.452,0.073
			c-0.153,0-0.262-0.003-0.325-0.01c-0.062-0.008-0.137-0.046-0.221-0.116c-0.056-0.042-0.108-0.073-0.157-0.095
			c-0.049-0.021-0.095-0.045-0.137-0.073c-0.196-0.098-0.371-0.146-0.524-0.146c-0.028,0-0.06,0.007-0.095,0.021
			c-0.035,0.015-0.066,0.021-0.095,0.021L223.511,51.629z"/>
	</g>
</g>
</svg>
