<?xml version="1.0" encoding="utf-8"?>
<!-- Generator: Adobe Illustrator 17.0.0, SVG Export Plug-In . SVG Version: 6.00 Build 0)  -->
<!DOCTYPE svg PUBLIC "-//W3C//DTD SVG 1.1//EN" "http://www.w3.org/Graphics/SVG/1.1/DTD/svg11.dtd">
<svg version="1.1" id="Слой_1" xmlns="http://www.w3.org/2000/svg" xmlns:xlink="http://www.w3.org/1999/xlink" x="0px" y="0px"
	 width="28.167px" height="27.833px" viewBox="410.945 281.14 28.167 27.833" enable-background="new 410.945 281.14 28.167 27.833"
	 xml:space="preserve">
<g>
	<path d="M436.988,304.857c-0.2-2.159-0.101-4.296-0.172-6.461c-0.077-2.347,0.287-4.589-0.104-6.915
		c-0.245-1.457-0.45-2.917-0.148-4.382c0.108-0.525,0.345-1.326,0.227-1.868c-0.645-2.953-4.779-2.153-7.045-2.144
		c-5.301,0.022-10.608,0.121-15.907,0.138c-0.736,0.002-1.435,1.423-0.526,1.42c6.65-0.022,13.229-0.317,19.893-0.121
		c3.058,0.09,1.83,3.276,1.78,4.78c-0.044,1.331,0.326,2.734,0.545,4.039c0.48,2.857-0.373,6.421-0.201,9.313
		c0.076,1.282,0.658,3.242-1.305,3.171c-1.89-0.068-3.772-0.062-5.663-0.031c-3.696,0.059-7.475,0.043-11.15-0.371
		c-4.3-0.485-2.964-5.005-2.819-8.09c0.168-3.602-0.896-7.31-0.17-10.905c0.197-0.975-1.245-0.491-1.394,0.245
		c-0.928,4.598,0.484,9.478-0.201,14.145c-0.213,1.45-0.231,5.27,1.701,5.727c4.257,1.007,9.158,0.73,13.507,0.669
		c2.46-0.035,7.006,1.157,8.873-0.974C437.049,305.854,437.034,305.358,436.988,304.857z"/>
	<path d="M431.533,291.074c-1.059-2.889-3.501-3.527-6.294-3.792c-4.712-0.447-8.649,3.795-7.942,8.492
		c0.869,5.776,5.35,8.997,11.059,6.764c0.767-0.3,0.802-1.681-0.181-1.296c-3.289,1.287-6.843,0.373-8.656-2.758
		c-1.806-3.118-0.944-7.763,2.349-9.352c3.004-1.449,7.03-0.062,8.366,2.849c0.617,1.346,0.884,3.014,0.501,4.447
		c-0.079,0.948-0.68,1.469-1.804,1.564c-1.469-0.592-2.018-1.582-1.647-2.97c0.038-1.01-1.33-0.515-1.394,0.245
		c-0.31,3.701-3.404,2.996-4.11,0.151c-0.847-3.413,5.464-4.134,6.09-0.682c0.166,0.913,1.527,0.141,1.394-0.593
		c-0.826-4.555-10.044-4.32-9.146,0.794c0.409,2.33,1.04,4.493,3.723,4.474c1.141-0.008,1.935-0.58,2.478-1.379
		c0.363,0.646,0.995,1.112,2.086,1.379c1.677,0.41,2.898-0.701,3.423-2.131C432.635,295.081,432.32,293.22,431.533,291.074z"/>
</g>
</svg>
