<?xml version="1.0" encoding="utf-8"?>
<!-- Generator: Adobe Illustrator 17.0.0, SVG Export Plug-In . SVG Version: 6.00 Build 0)  -->
<!DOCTYPE svg PUBLIC "-//W3C//DTD SVG 1.1//EN" "http://www.w3.org/Graphics/SVG/1.1/DTD/svg11.dtd">
<svg version="1.1" id="Слой_1" xmlns="http://www.w3.org/2000/svg" xmlns:xlink="http://www.w3.org/1999/xlink" x="0px" y="0px"
	 width="159px" height="35px" viewBox="0 0 159 35" enable-background="new 0 0 159 35" xml:space="preserve">
<g>
	<path d="M25.066,27.108c-0.2-2.159-0.101-4.296-0.172-6.461c-0.077-2.347,0.287-4.589-0.104-6.915
		c-0.245-1.457-0.45-2.917-0.148-4.382c0.108-0.525,0.345-1.326,0.227-1.868c-0.645-2.953-4.779-2.153-7.045-2.144
		C12.523,5.36,7.216,5.459,1.917,5.476c-0.736,0.002-1.435,1.423-0.526,1.42c6.65-0.022,13.229-0.317,19.893-0.121
		c3.058,0.09,1.83,3.276,1.78,4.78c-0.044,1.331,0.326,2.734,0.545,4.039c0.48,2.857-0.373,6.421-0.201,9.313
		c0.076,1.282,0.658,3.242-1.305,3.171c-1.89-0.068-3.772-0.062-5.663-0.031c-3.696,0.059-7.475,0.043-11.15-0.371
		c-4.3-0.485-2.964-5.005-2.819-8.09c0.168-3.602-0.896-7.31-0.17-10.905C2.498,7.706,1.056,8.19,0.907,8.926
		c-0.928,4.598,0.484,9.478-0.201,14.145c-0.213,1.45-0.231,5.27,1.701,5.727c4.257,1.007,9.158,0.73,13.507,0.669
		c2.46-0.035,7.006,1.157,8.873-0.974C25.127,28.105,25.112,27.609,25.066,27.108z"/>
	<path d="M19.611,13.325c-1.059-2.889-3.501-3.527-6.294-3.792c-4.712-0.447-8.649,3.795-7.942,8.492
		c0.869,5.776,5.35,8.997,11.059,6.764c0.767-0.3,0.802-1.681-0.181-1.296c-3.289,1.287-6.843,0.373-8.656-2.758
		c-1.806-3.118-0.944-7.763,2.349-9.352c3.004-1.449,7.03-0.062,8.366,2.849c0.617,1.346,0.884,3.014,0.501,4.447
		c-0.079,0.948-0.68,1.469-1.804,1.564c-1.469-0.592-2.018-1.582-1.647-2.97c0.038-1.01-1.33-0.515-1.394,0.245
		c-0.31,3.701-3.404,2.996-4.11,0.151c-0.847-3.413,5.464-4.134,6.09-0.682c0.166,0.913,1.527,0.141,1.394-0.593
		c-0.826-4.555-10.044-4.32-9.146,0.794c0.409,2.33,1.04,4.493,3.723,4.474c1.141-0.008,1.935-0.58,2.478-1.379
		c0.363,0.646,0.995,1.112,2.086,1.379c1.677,0.41,2.898-0.701,3.423-2.131C20.713,17.332,20.398,15.471,19.611,13.325z"/>
</g>
<g>
	<rect x="30.08" y="9.528" fill="none" width="128.341" height="15.947"/>
	<g enable-background="new    ">
		<path d="M33.398,13.003c-0.099,0.841-0.186,1.575-0.263,2.205s-0.146,1.229-0.21,1.796c-0.062,0.567-0.115,1.142-0.157,1.722
			c-0.042,0.581-0.077,1.236-0.105,1.964l-0.672,0.146c-0.098-0.798-0.182-1.48-0.252-2.047c-0.07-0.567-0.104-1.109-0.104-1.628
			c0-0.531,0.045-1.074,0.136-1.627c0.091-0.554,0.242-1.193,0.452-1.922c0.056-0.112,0.14-0.186,0.252-0.221
			c0.111-0.034,0.224-0.062,0.336-0.084c0.111-0.021,0.224-0.049,0.336-0.084C33.257,13.189,33.341,13.115,33.398,13.003z
			 M34.049,9.559c0.168,0.42,0.143,0.822-0.074,1.207c-0.217,0.386-0.5,0.711-0.851,0.977c-0.112,0.084-0.199,0.119-0.262,0.105
			c-0.063-0.014-0.116-0.049-0.158-0.105c-0.042-0.056-0.084-0.122-0.126-0.199s-0.091-0.137-0.146-0.179
			c-0.196-0.392-0.186-0.756,0.031-1.092s0.479-0.63,0.787-0.882c0.056-0.014,0.13-0.032,0.221-0.053
			c0.091-0.021,0.175-0.028,0.252-0.021c0.077,0.008,0.147,0.028,0.21,0.063C33.997,9.416,34.035,9.475,34.049,9.559z"/>
		<path d="M37.997,15.355c0.21-0.322,0.486-0.511,0.83-0.567c0.343-0.056,0.696-0.084,1.061-0.084
			c0.21,0.042,0.434,0.084,0.672,0.126c0.237,0.042,0.462,0.105,0.672,0.189s0.402,0.199,0.577,0.347
			c0.175,0.146,0.312,0.346,0.41,0.598c0.126,0.729,0.175,1.411,0.146,2.048c-0.028,0.638-0.035,1.306-0.021,2.006
			c-0.183,0.196-0.294,0.44-0.336,0.734s-0.095,0.578-0.158,0.851c-0.062,0.273-0.175,0.497-0.336,0.672
			c-0.161,0.176-0.444,0.242-0.851,0.2c-0.098-0.504-0.07-0.994,0.084-1.471c0.154-0.476,0.322-0.955,0.504-1.438
			c0.183-0.482,0.318-0.979,0.41-1.49c0.091-0.512,0.018-1.061-0.221-1.648c-0.225-0.252-0.462-0.463-0.714-0.631
			s-0.532-0.272-0.84-0.314c-0.477,0-0.858,0.077-1.145,0.23c-0.287,0.154-0.504,0.357-0.651,0.609s-0.238,0.55-0.273,0.893
			c-0.034,0.343-0.049,0.7-0.042,1.071c0.008,0.371,0.028,0.752,0.063,1.145c0.035,0.392,0.053,0.763,0.053,1.112
			c0,0.448-0.07,0.833-0.21,1.155c-0.364-0.224-0.592-0.532-0.683-0.924c-0.092-0.392-0.134-0.812-0.126-1.26
			c0.007-0.448,0.024-0.893,0.053-1.334c0.027-0.44-0.021-0.822-0.147-1.145c0.168-0.224,0.228-0.486,0.179-0.787
			c-0.05-0.301-0.099-0.592-0.147-0.872c-0.049-0.279-0.052-0.535-0.01-0.767c0.042-0.23,0.237-0.395,0.588-0.493
			c0.126,0.07,0.202,0.161,0.23,0.273s0.046,0.228,0.053,0.346c0.007,0.119,0.027,0.235,0.062,0.347
			C37.769,15.194,37.857,15.285,37.997,15.355z"/>
		<path d="M52.927,11.491c0.014,0.154,0,0.287-0.042,0.399s-0.126,0.224-0.252,0.336h-0.462c0.042-0.126,0.014-0.214-0.084-0.263
			c-0.099-0.049-0.161-0.108-0.189-0.179c-0.364-0.056-0.672-0.073-0.924-0.053c-0.252,0.021-0.553,0.088-0.903,0.2
			c-0.546,0.56-1.046,1.176-1.501,1.848s-0.83,1.386-1.124,2.142l0.294,0.295c0.169-0.084,0.347-0.13,0.536-0.137
			c0.188-0.007,0.381-0.011,0.577-0.011s0.389-0.003,0.578-0.011c0.188-0.007,0.367-0.053,0.535-0.137
			c0.084,0.28,0.077,0.487-0.021,0.62c-0.098,0.133-0.241,0.234-0.43,0.305c-0.189,0.07-0.396,0.119-0.62,0.146
			c-0.224,0.028-0.42,0.07-0.588,0.126c-0.35-0.111-0.619-0.144-0.809-0.095c-0.188,0.05-0.329,0.147-0.42,0.294
			c-0.091,0.147-0.15,0.329-0.179,0.547c-0.028,0.217-0.049,0.44-0.062,0.672c-0.015,0.23-0.039,0.455-0.073,0.672
			c-0.035,0.217-0.109,0.396-0.221,0.535c-0.126,0.532-0.179,1.089-0.158,1.67c0.021,0.58,0.018,1.165-0.01,1.753
			c-0.112,0.154-0.245,0.214-0.399,0.179s-0.308-0.039-0.462-0.011c-0.098-0.56-0.119-1.088-0.062-1.585
			c0.056-0.497,0.14-0.983,0.252-1.46c0.111-0.476,0.227-0.948,0.346-1.417s0.186-0.956,0.2-1.46
			c-0.225-0.126-0.483-0.179-0.777-0.157c-0.294,0.021-0.581,0.018-0.861-0.011v-0.462c0.21-0.042,0.368-0.102,0.473-0.179
			c0.105-0.076,0.2-0.146,0.284-0.21c0.084-0.062,0.188-0.102,0.314-0.115s0.315,0.021,0.567,0.105
			c0.336-0.49,0.626-1.029,0.871-1.617s0.518-1.151,0.819-1.69c0.301-0.539,0.661-1.019,1.081-1.438s0.98-0.714,1.681-0.883
			c0.111-0.014,0.217-0.021,0.314-0.021s0.203,0,0.315,0c0.321,0,0.63,0.049,0.924,0.147C52.549,10.98,52.773,11.183,52.927,11.491z
			"/>
		<path d="M57.736,16.804c0.141,0.294,0.231,0.591,0.273,0.893c0.042,0.301,0.042,0.598,0,0.892
			c-0.042,0.295-0.115,0.582-0.221,0.861c-0.104,0.28-0.228,0.546-0.367,0.798c-0.28,0.28-0.581,0.564-0.903,0.851
			c-0.322,0.287-0.661,0.518-1.019,0.693c-0.356,0.175-0.725,0.276-1.103,0.305c-0.378,0.027-0.756-0.077-1.134-0.315
			c-0.448-0.322-0.731-0.787-0.851-1.396s-0.15-1.222-0.095-1.838c-0.014-0.21,0.018-0.423,0.095-0.64s0.182-0.424,0.315-0.62
			c0.133-0.195,0.279-0.381,0.44-0.557c0.161-0.175,0.312-0.318,0.452-0.43c0.252,0.126,0.473,0.126,0.661,0
			c0.189-0.126,0.374-0.273,0.557-0.441c0.182-0.168,0.374-0.305,0.577-0.409c0.203-0.105,0.444-0.066,0.725,0.115
			c0.308,0.042,0.602,0.196,0.882,0.462S57.541,16.552,57.736,16.804z M55.3,16.867c-0.112,0.21-0.234,0.424-0.367,0.641
			c-0.134,0.217-0.207,0.431-0.221,0.641c0,0.154-0.031,0.287-0.095,0.398c-0.062,0.112-0.14,0.196-0.23,0.253
			c-0.092,0.056-0.189,0.076-0.294,0.062c-0.105-0.014-0.207-0.077-0.305-0.189c-0.028-0.182-0.066-0.385-0.116-0.608
			c-0.049-0.224-0.024-0.427,0.074-0.609l-0.273,0.042c-0.42,0.687-0.623,1.414-0.608,2.185c0.098,0.112,0.182,0.245,0.252,0.398
			c0.069,0.154,0.146,0.305,0.23,0.452c0.084,0.146,0.182,0.28,0.294,0.398c0.112,0.119,0.259,0.199,0.441,0.241
			c0.252,0.07,0.538,0.081,0.86,0.032s0.603-0.15,0.841-0.305c0.168-0.21,0.339-0.431,0.514-0.661
			c0.176-0.231,0.329-0.479,0.463-0.746c0.133-0.266,0.233-0.542,0.304-0.829s0.091-0.592,0.063-0.914
			c-0.015-0.21-0.088-0.405-0.221-0.588c-0.133-0.182-0.291-0.325-0.473-0.431c-0.182-0.104-0.374-0.153-0.577-0.146
			S55.468,16.685,55.3,16.867z"/>
		<path d="M66.682,17.329c-0.141-0.392-0.28-0.78-0.42-1.165c-0.141-0.385-0.28-0.76-0.42-1.124c-0.028,0.238-0.07,0.49-0.126,0.756
			c-0.057,0.267-0.134,0.522-0.231,0.767c-0.098,0.245-0.221,0.47-0.367,0.672c-0.147,0.203-0.319,0.368-0.515,0.494
			c-0.225,0.098-0.444,0.154-0.662,0.168c-0.217,0.014-0.444-0.028-0.682-0.126c-0.21-0.126-0.357-0.287-0.441-0.483
			c-0.084-0.195-0.14-0.405-0.168-0.63c-0.028-0.224-0.039-0.451-0.031-0.683c0.007-0.23-0.004-0.444-0.032-0.641l0.463-1.974
			c0.224-0.252,0.458-0.486,0.703-0.703s0.5-0.444,0.767-0.683l0.188,0.21c0.042,0.126,0.042,0.224,0,0.294s-0.098,0.13-0.168,0.179
			s-0.146,0.102-0.23,0.157s-0.147,0.126-0.189,0.21c-0.434,0.63-0.711,1.306-0.829,2.026c-0.119,0.722-0.081,1.438,0.115,2.152
			c0.028,0.07,0.084,0.119,0.168,0.147s0.161,0.056,0.231,0.084c0.266-0.168,0.496-0.375,0.692-0.62
			c0.196-0.244,0.357-0.511,0.483-0.798c0.126-0.286,0.21-0.584,0.252-0.893c0.042-0.308,0.042-0.608,0-0.902
			c-0.099-0.336-0.157-0.672-0.179-1.009c-0.021-0.336-0.088-0.672-0.199-1.008c0.069-0.126,0.168-0.192,0.294-0.199
			s0.245-0.031,0.357-0.073c0.252,0.854,0.496,1.719,0.734,2.593c0.238,0.876,0.553,1.691,0.945,2.447
			c0,0.07,0.062,0.126,0.188,0.168s0.245,0.077,0.357,0.104c0.238,0.057,0.431,0.004,0.577-0.157
			c0.147-0.161,0.259-0.367,0.336-0.619s0.126-0.519,0.147-0.799c0.021-0.279,0.031-0.504,0.031-0.672
			c0-0.602-0.066-1.207-0.199-1.816c-0.134-0.608-0.336-1.162-0.609-1.659c-0.272-0.496-0.627-0.902-1.061-1.218
			c-0.434-0.314-0.952-0.473-1.554-0.473c-0.966,0-1.831,0.28-2.594,0.84c-0.763,0.561-1.333,1.331-1.711,2.311
			c-0.28,0.714-0.424,1.375-0.431,1.984c-0.008,0.609,0.171,1.25,0.535,1.922c0.378,0.728,0.847,1.299,1.407,1.711
			c0.56,0.413,1.26,0.62,2.1,0.62c0.154,0,0.309-0.011,0.462-0.032c0.154-0.021,0.322-0.031,0.505-0.031
			c0.252,0,0.427,0.091,0.524,0.273c0.098,0.14,0.112,0.287,0.042,0.44c-0.07,0.154-0.161,0.287-0.272,0.399
			c-0.099,0.098-0.203,0.15-0.315,0.157s-0.231-0.007-0.357-0.042s-0.259-0.084-0.398-0.146c-0.141-0.063-0.28-0.116-0.42-0.158
			c-0.462-0.126-0.893-0.263-1.292-0.409c-0.398-0.147-0.767-0.329-1.103-0.546s-0.644-0.479-0.924-0.788
			c-0.28-0.308-0.532-0.672-0.756-1.092c-0.406-0.783-0.616-1.519-0.63-2.205c-0.015-0.686,0.14-1.441,0.462-2.268
			c0.448-1.189,1.145-2.097,2.09-2.72c0.944-0.623,2.054-0.935,3.328-0.935c0.686,0,1.281,0.165,1.785,0.494s0.924,0.756,1.26,1.28
			c0.336,0.525,0.585,1.12,0.746,1.785c0.16,0.665,0.241,1.341,0.241,2.026c0,0.294-0.015,0.634-0.042,1.019
			c-0.028,0.386-0.095,0.749-0.199,1.092c-0.105,0.344-0.26,0.631-0.463,0.861c-0.203,0.231-0.479,0.347-0.829,0.347
			c-0.154,0-0.312-0.031-0.473-0.095c-0.161-0.062-0.308-0.133-0.44-0.21c-0.134-0.077-0.249-0.154-0.347-0.23
			C66.794,17.41,66.724,17.357,66.682,17.329z"/>
		<path d="M73.17,10.756c0.238,0.827,0.438,1.694,0.599,2.604s0.298,1.827,0.41,2.751c0.111,0.924,0.199,1.841,0.262,2.751
			c0.063,0.91,0.116,1.778,0.158,2.604c-0.042,0.098-0.112,0.149-0.21,0.157c-0.099,0.007-0.189,0.011-0.273,0.011
			c-0.28-0.183-0.444-0.399-0.493-0.651c-0.05-0.252-0.06-0.515-0.032-0.787c0.028-0.273,0.063-0.547,0.105-0.819
			c0.042-0.273,0.007-0.521-0.105-0.746c-0.168-0.756-0.312-1.532-0.43-2.33c-0.119-0.799-0.242-1.589-0.368-2.373
			s-0.276-1.547-0.451-2.289s-0.402-1.436-0.683-2.079c-0.126-0.056-0.188-0.133-0.188-0.231c0-0.126,0.049-0.255,0.146-0.389
			c0.098-0.133,0.147-0.262,0.147-0.388c0.308,0.014,0.528,0.102,0.661,0.262c0.133,0.161,0.234,0.357,0.305,0.588
			c0.069,0.231,0.129,0.47,0.179,0.715C72.958,10.361,73.044,10.574,73.17,10.756z"/>
		<path d="M79.47,13.003c-0.098,0.841-0.186,1.575-0.262,2.205c-0.077,0.63-0.147,1.229-0.21,1.796
			c-0.063,0.567-0.116,1.142-0.158,1.722c-0.042,0.581-0.077,1.236-0.104,1.964l-0.672,0.146c-0.099-0.798-0.183-1.48-0.252-2.047
			c-0.07-0.567-0.105-1.109-0.105-1.628c0-0.531,0.045-1.074,0.137-1.627c0.091-0.554,0.241-1.193,0.451-1.922
			c0.056-0.112,0.14-0.186,0.252-0.221c0.112-0.034,0.224-0.062,0.336-0.084c0.112-0.021,0.224-0.049,0.336-0.084
			C79.331,13.189,79.415,13.115,79.47,13.003z M80.122,9.559c0.168,0.42,0.144,0.822-0.073,1.207
			c-0.218,0.386-0.501,0.711-0.851,0.977c-0.112,0.084-0.199,0.119-0.263,0.105c-0.062-0.014-0.115-0.049-0.157-0.105
			c-0.042-0.056-0.084-0.122-0.126-0.199s-0.092-0.137-0.147-0.179c-0.196-0.392-0.186-0.756,0.031-1.092
			c0.218-0.336,0.479-0.63,0.788-0.882c0.056-0.014,0.129-0.032,0.221-0.053c0.091-0.021,0.175-0.028,0.252-0.021
			c0.076,0.008,0.146,0.028,0.21,0.063C80.069,9.416,80.108,9.475,80.122,9.559z"/>
		<path d="M84.07,15.355c0.21-0.322,0.486-0.511,0.829-0.567c0.343-0.056,0.696-0.084,1.061-0.084
			c0.21,0.042,0.434,0.084,0.672,0.126s0.462,0.105,0.672,0.189s0.402,0.199,0.578,0.347c0.175,0.146,0.312,0.346,0.409,0.598
			c0.126,0.729,0.175,1.411,0.147,2.048c-0.028,0.638-0.035,1.306-0.021,2.006c-0.182,0.196-0.294,0.44-0.336,0.734
			s-0.095,0.578-0.157,0.851c-0.063,0.273-0.176,0.497-0.336,0.672c-0.161,0.176-0.445,0.242-0.851,0.2
			c-0.099-0.504-0.07-0.994,0.084-1.471c0.153-0.476,0.321-0.955,0.504-1.438c0.182-0.482,0.318-0.979,0.409-1.49
			c0.091-0.512,0.018-1.061-0.221-1.648c-0.224-0.252-0.462-0.463-0.714-0.631s-0.532-0.272-0.84-0.314
			c-0.476,0-0.857,0.077-1.145,0.23c-0.287,0.154-0.504,0.357-0.65,0.609c-0.147,0.252-0.238,0.55-0.273,0.893
			s-0.049,0.7-0.042,1.071s0.028,0.752,0.062,1.145c0.035,0.392,0.053,0.763,0.053,1.112c0,0.448-0.07,0.833-0.21,1.155
			c-0.364-0.224-0.592-0.532-0.683-0.924s-0.133-0.812-0.126-1.26s0.024-0.893,0.053-1.334c0.028-0.44-0.021-0.822-0.146-1.145
			c0.168-0.224,0.227-0.486,0.178-0.787s-0.098-0.592-0.146-0.872c-0.05-0.279-0.053-0.535-0.011-0.767
			c0.042-0.23,0.238-0.395,0.588-0.493c0.126,0.07,0.203,0.161,0.231,0.273c0.027,0.112,0.045,0.228,0.052,0.346
			c0.007,0.119,0.028,0.235,0.063,0.347C83.842,15.194,83.929,15.285,84.07,15.355z"/>
		<path d="M96.417,16.804c0.141,0.294,0.231,0.591,0.273,0.893c0.042,0.301,0.042,0.598,0,0.892
			c-0.042,0.295-0.115,0.582-0.221,0.861c-0.104,0.28-0.228,0.546-0.367,0.798c-0.28,0.28-0.581,0.564-0.903,0.851
			c-0.322,0.287-0.661,0.518-1.019,0.693c-0.356,0.175-0.725,0.276-1.103,0.305c-0.378,0.027-0.756-0.077-1.134-0.315
			c-0.448-0.322-0.731-0.787-0.851-1.396s-0.15-1.222-0.095-1.838c-0.014-0.21,0.018-0.423,0.095-0.64s0.182-0.424,0.315-0.62
			c0.133-0.195,0.279-0.381,0.44-0.557c0.161-0.175,0.312-0.318,0.452-0.43c0.252,0.126,0.473,0.126,0.661,0
			c0.189-0.126,0.374-0.273,0.557-0.441c0.182-0.168,0.374-0.305,0.577-0.409c0.203-0.105,0.444-0.066,0.725,0.115
			c0.308,0.042,0.602,0.196,0.882,0.462S96.221,16.552,96.417,16.804z M93.981,16.867c-0.112,0.21-0.234,0.424-0.367,0.641
			c-0.134,0.217-0.207,0.431-0.221,0.641c0,0.154-0.031,0.287-0.095,0.398c-0.062,0.112-0.14,0.196-0.23,0.253
			c-0.092,0.056-0.189,0.076-0.294,0.062c-0.105-0.014-0.207-0.077-0.305-0.189c-0.028-0.182-0.066-0.385-0.116-0.608
			c-0.049-0.224-0.024-0.427,0.074-0.609l-0.273,0.042c-0.42,0.687-0.623,1.414-0.608,2.185c0.098,0.112,0.182,0.245,0.252,0.398
			c0.069,0.154,0.146,0.305,0.23,0.452c0.084,0.146,0.182,0.28,0.294,0.398c0.112,0.119,0.259,0.199,0.441,0.241
			c0.252,0.07,0.538,0.081,0.86,0.032s0.603-0.15,0.841-0.305c0.168-0.21,0.339-0.431,0.514-0.661
			c0.176-0.231,0.329-0.479,0.463-0.746c0.133-0.266,0.233-0.542,0.304-0.829s0.091-0.592,0.063-0.914
			c-0.015-0.21-0.088-0.405-0.221-0.588c-0.133-0.182-0.291-0.325-0.473-0.431c-0.182-0.104-0.374-0.153-0.577-0.146
			S94.149,16.685,93.981,16.867z"/>
		<path d="M104.586,21.256c-0.196,0.154-0.368,0.267-0.515,0.337c-0.147,0.069-0.256,0.118-0.326,0.146h-0.021h-0.042
			c-0.126-0.252-0.322-0.392-0.588-0.42c-0.267-0.028-0.557-0.021-0.872,0.021c-0.314,0.042-0.619,0.08-0.913,0.115
			c-0.294,0.034-0.532-0.011-0.714-0.137c-0.364-0.196-0.669-0.451-0.914-0.767c-0.245-0.314-0.43-0.654-0.556-1.019
			c-0.126-0.363-0.203-0.742-0.231-1.134s-0.014-0.763,0.042-1.113c0.14-0.321,0.329-0.602,0.567-0.84
			c0.237-0.238,0.553-0.42,0.944-0.546c0.603-0.056,1.089-0.003,1.46,0.157c0.371,0.161,0.738,0.41,1.103,0.746
			c0-0.154-0.011-0.357-0.031-0.609c-0.021-0.252-0.063-0.521-0.126-0.809c-0.063-0.287-0.154-0.57-0.273-0.851
			c-0.119-0.279-0.283-0.524-0.493-0.734c-0.099-0.084-0.256-0.154-0.473-0.21c-0.218-0.057-0.448-0.108-0.693-0.158
			c-0.245-0.049-0.476-0.098-0.692-0.146c-0.218-0.049-0.375-0.108-0.473-0.179c-0.112-0.098-0.151-0.203-0.116-0.315
			c0.035-0.111,0.123-0.213,0.263-0.304c0.14-0.092,0.318-0.158,0.536-0.2c0.217-0.042,0.451-0.042,0.703,0
			c0.252,0,0.5,0.039,0.745,0.116s0.479,0.188,0.704,0.336c0.224,0.146,0.423,0.332,0.599,0.556
			c0.175,0.225,0.304,0.483,0.388,0.777c-0.014,0.336,0.004,0.798,0.053,1.386s0.119,1.222,0.21,1.9
			c0.091,0.68,0.203,1.362,0.336,2.048C104.309,20.094,104.446,20.71,104.586,21.256z M99.672,18.337
			c0.084,0.225,0.188,0.48,0.314,0.767c0.126,0.287,0.284,0.55,0.473,0.788c0.189,0.238,0.413,0.427,0.672,0.566
			c0.259,0.141,0.57,0.183,0.935,0.126c0-0.056,0.084-0.094,0.252-0.115c0.168-0.021,0.28-0.045,0.336-0.073l0.252-0.504
			c0.07-0.266,0.116-0.483,0.137-0.651c0.021-0.168,0.021-0.314,0-0.44c-0.021-0.127-0.06-0.26-0.115-0.399
			c-0.057-0.14-0.126-0.322-0.21-0.546c-0.238-0.35-0.574-0.609-1.008-0.777c-0.435-0.168-0.869-0.237-1.303-0.21
			c-0.238,0.154-0.402,0.367-0.493,0.641S99.742,18.057,99.672,18.337z"/>
		<path d="M108.544,12.415c-0.035,0.141,0.023,0.245,0.178,0.315c0.435-0.168,0.893-0.294,1.376-0.378
			c0.482-0.084,0.955-0.108,1.417-0.073c0.462,0.034,0.903,0.14,1.323,0.314c0.42,0.176,0.791,0.438,1.113,0.787
			c0.069,0.085,0.087,0.158,0.053,0.221c-0.035,0.063-0.077,0.119-0.126,0.168c-0.05,0.05-0.081,0.105-0.095,0.168
			c-0.015,0.063,0.042,0.137,0.168,0.221c-0.28,0.112-0.543,0.147-0.788,0.105s-0.482-0.116-0.714-0.221
			c-0.23-0.105-0.458-0.224-0.683-0.357c-0.224-0.133-0.455-0.241-0.692-0.325c-0.238-0.084-0.486-0.122-0.746-0.115
			c-0.259,0.007-0.535,0.094-0.829,0.263c-0.351,0.069-0.623,0.188-0.819,0.356s-0.346,0.364-0.451,0.588
			c-0.105,0.225-0.175,0.473-0.21,0.746c-0.035,0.272-0.07,0.546-0.105,0.818c-0.035,0.273-0.08,0.539-0.136,0.798
			c-0.057,0.26-0.154,0.494-0.294,0.704c-0.028,0.28-0.032,0.57-0.011,0.871c0.021,0.302,0.018,0.596-0.011,0.882
			c-0.028,0.287-0.104,0.546-0.23,0.777s-0.357,0.417-0.693,0.557c-0.183-0.504-0.249-0.998-0.199-1.48
			c0.049-0.483,0.136-0.97,0.262-1.46c0.126-0.489,0.245-0.986,0.357-1.49c0.112-0.505,0.133-1.036,0.063-1.597
			c0.153-0.21,0.241-0.473,0.262-0.787c0.021-0.315,0.049-0.62,0.084-0.914s0.108-0.556,0.221-0.787s0.336-0.374,0.672-0.431
			l0.294,0.315C108.583,12.129,108.579,12.275,108.544,12.415z"/>
		<path d="M116.976,11.869c0,0.099,0.056,0.161,0.168,0.189c0,0.14-0.004,0.308-0.011,0.504c-0.008,0.196-0.011,0.398-0.011,0.608
			s0.011,0.421,0.031,0.631c0.021,0.21,0.066,0.398,0.137,0.566c0.266,0.168,0.557,0.231,0.871,0.189
			c0.315-0.042,0.62-0.091,0.914-0.147c0.294-0.056,0.57-0.06,0.829-0.011c0.259,0.05,0.466,0.249,0.62,0.599
			c-0.252,0.141-0.529,0.231-0.83,0.273s-0.605,0.084-0.913,0.126c-0.309,0.042-0.603,0.098-0.882,0.168
			c-0.28,0.07-0.532,0.21-0.756,0.42c0.042,0.448,0.076,0.899,0.104,1.354s0.091,0.896,0.189,1.323
			c0.098,0.427,0.259,0.829,0.482,1.207s0.553,0.707,0.987,0.987c0.392,0.154,0.767,0.249,1.123,0.283
			c0.357,0.035,0.714,0.031,1.071-0.011s0.714-0.104,1.071-0.188c0.356-0.084,0.731-0.168,1.123-0.252
			c0.028,0.378-0.028,0.658-0.168,0.84s-0.318,0.325-0.535,0.431c-0.218,0.104-0.452,0.199-0.704,0.283s-0.476,0.21-0.672,0.378
			c-0.588,0.112-1.176,0.074-1.764-0.115s-1.148-0.417-1.68-0.683c-0.504-0.812-0.914-1.684-1.229-2.614
			c-0.315-0.931-0.389-1.956-0.221-3.076c-0.238-0.211-0.49-0.315-0.756-0.315c-0.267,0-0.532,0.028-0.798,0.084
			c-0.267,0.056-0.532,0.084-0.799,0.084c-0.28,0-0.532-0.105-0.756-0.315c0.084-0.321,0.228-0.553,0.431-0.692
			s0.438-0.228,0.704-0.263c0.266-0.035,0.542-0.045,0.829-0.031s0.549,0.014,0.787,0c0.14-0.378,0.21-0.833,0.21-1.365
			c0-0.546-0.07-1.008-0.21-1.386c0.182-0.07,0.343-0.161,0.483-0.273c0.14-0.111,0.314-0.133,0.525-0.062V11.869z"/>
		<path d="M125.669,19.156c0.14,0.196,0.192,0.375,0.157,0.535c-0.035,0.161-0.115,0.309-0.241,0.441s-0.273,0.259-0.441,0.378
			s-0.314,0.241-0.44,0.367c-0.183,0.099-0.357,0.126-0.525,0.084s-0.329-0.118-0.483-0.23c-0.153-0.112-0.297-0.248-0.43-0.409
			c-0.134-0.161-0.256-0.312-0.368-0.452c0.028-0.126,0.06-0.259,0.095-0.398s0.084-0.267,0.147-0.378
			c0.062-0.112,0.146-0.203,0.252-0.273c0.104-0.07,0.241-0.104,0.409-0.104c0.364-0.057,0.686-0.028,0.966,0.084
			C125.046,18.911,125.347,19.03,125.669,19.156z"/>
		<path d="M129.879,12.415c-0.035,0.141,0.024,0.245,0.179,0.315c0.434-0.168,0.893-0.294,1.375-0.378
			c0.483-0.084,0.956-0.108,1.418-0.073c0.462,0.034,0.903,0.14,1.323,0.314c0.42,0.176,0.79,0.438,1.112,0.787
			c0.07,0.085,0.088,0.158,0.053,0.221c-0.035,0.063-0.077,0.119-0.126,0.168c-0.049,0.05-0.081,0.105-0.095,0.168
			c-0.014,0.063,0.042,0.137,0.168,0.221c-0.28,0.112-0.542,0.147-0.787,0.105s-0.483-0.116-0.714-0.221
			c-0.231-0.105-0.459-0.224-0.683-0.357c-0.225-0.133-0.455-0.241-0.693-0.325s-0.486-0.122-0.745-0.115
			c-0.26,0.007-0.535,0.094-0.83,0.263c-0.35,0.069-0.623,0.188-0.818,0.356c-0.196,0.168-0.347,0.364-0.451,0.588
			c-0.105,0.225-0.176,0.473-0.211,0.746c-0.034,0.272-0.069,0.546-0.104,0.818c-0.035,0.273-0.081,0.539-0.137,0.798
			c-0.056,0.26-0.154,0.494-0.294,0.704c-0.028,0.28-0.031,0.57-0.011,0.871c0.021,0.302,0.018,0.596-0.01,0.882
			c-0.028,0.287-0.105,0.546-0.231,0.777s-0.357,0.417-0.693,0.557c-0.182-0.504-0.248-0.998-0.199-1.48
			c0.049-0.483,0.137-0.97,0.263-1.46c0.126-0.489,0.245-0.986,0.357-1.49c0.111-0.505,0.133-1.036,0.062-1.597
			c0.154-0.21,0.241-0.473,0.263-0.787c0.021-0.315,0.049-0.62,0.084-0.914c0.034-0.294,0.108-0.556,0.221-0.787
			c0.111-0.231,0.336-0.374,0.672-0.431l0.294,0.315C129.918,12.129,129.915,12.275,129.879,12.415z"/>
		<path d="M144.338,14.683c-0.126,0.364-0.158,0.77-0.095,1.218c0.062,0.448,0.095,0.875,0.095,1.281
			c0,0.266-0.057,0.532-0.168,0.798c0.084,0.42,0.21,0.784,0.378,1.092c0.168,0.309,0.482,0.497,0.944,0.567
			c0.126,0.07,0.263,0.052,0.41-0.053c0.146-0.105,0.286-0.206,0.42-0.305c0.133-0.098,0.244-0.14,0.336-0.126
			c0.091,0.015,0.144,0.176,0.157,0.483l-0.188,0.188l0.188,0.168c-0.35,0.28-0.703,0.512-1.061,0.693
			c-0.356,0.182-0.78,0.23-1.271,0.146l-1.155-1.196c-0.434,0.63-0.955,1.165-1.564,1.606c-0.608,0.44-1.291,0.683-2.047,0.725
			c-0.378,0.027-0.739,0.027-1.082,0c-0.343-0.028-0.665-0.095-0.966-0.2c-0.301-0.104-0.57-0.262-0.809-0.473
			c-0.238-0.21-0.44-0.489-0.608-0.84c-0.28-0.588-0.462-1.221-0.546-1.9c-0.085-0.679-0.127-1.375-0.127-2.089
			c0-0.238,0-0.473,0-0.704c0-0.23,0.008-0.465,0.021-0.703c0.056-0.14,0.119-0.228,0.189-0.263c0.069-0.035,0.146-0.045,0.23-0.031
			s0.171,0.038,0.263,0.073c0.091,0.035,0.186,0.046,0.283,0.031c0.028,0.435,0.035,0.893,0.021,1.376
			c-0.015,0.482-0.008,0.966,0.021,1.449c0.028,0.482,0.095,0.948,0.199,1.396c0.105,0.448,0.298,0.86,0.578,1.238
			c0.294,0.322,0.595,0.522,0.903,0.599c0.308,0.077,0.619,0.092,0.934,0.042c0.315-0.049,0.638-0.133,0.967-0.252
			c0.328-0.118,0.661-0.206,0.997-0.263c0.588-0.308,1.005-0.721,1.25-1.238c0.244-0.519,0.427-1.067,0.546-1.648
			c0.118-0.581,0.224-1.166,0.314-1.754s0.27-1.113,0.536-1.575L144.338,14.683z"/>
	</g>
</g>
</svg>
