<?xml version="1.0" encoding="utf-8"?>
<!-- Generator: Adobe Illustrator 17.0.0, SVG Export Plug-In . SVG Version: 6.00 Build 0)  -->
<!DOCTYPE svg PUBLIC "-//W3C//DTD SVG 1.1//EN" "http://www.w3.org/Graphics/SVG/1.1/DTD/svg11.dtd">
<svg version="1.1" id="Слой_1" xmlns="http://www.w3.org/2000/svg" xmlns:xlink="http://www.w3.org/1999/xlink" x="0px" y="0px"
	 width="26.75px" height="27.375px" viewBox="406.945 284.515 26.75 27.375" enable-background="new 406.945 284.515 26.75 27.375"
	 xml:space="preserve">
<g>
	<path d="M432.583,287.936c-0.297-2.835-5.332-1.864-7.011-1.848c-5.111,0.047-10.482-0.58-15.552,0.116
		c-0.583,0.08-0.956,0.941-0.649,1.276c-0.076,0.064-0.146,0.144-0.204,0.243c-1.963,3.337-1.321,6.556-0.789,10.252
		c0.454,3.153-1.155,8.533,1.45,10.807c0.515,0.45,1.686,0.608,2.335,0.574c3.017-0.157,5.94-0.403,8.965-0.21
		c2.803,0.179,7.758,1.586,10.342-0.217c1.701-1.187,1.078-5.09,0.967-6.831C432.137,297.387,433.077,292.654,432.583,287.936z
		 M431.075,305.684c-0.488,3.82-5.16,2.411-7.899,2.17c-2.875-0.253-5.696-0.299-8.572-0.087c-1.984,0.146-4.491-0.093-4.58-2.483
		c-0.067-1.789-0.094-3.581-0.117-5.371c-0.051-3.949-1.781-8.028,0.385-11.711c0.162-0.276,0.154-0.493,0.067-0.651
		c5.992-0.739,12.523-0.136,18.538-0.037c3.282,0.054,2.417,7.33,2.284,9.279C430.984,299.713,431.442,302.811,431.075,305.684z"/>
	<path d="M423.257,293.285c-1.426-0.08-3.6-0.142-4.157,1.366c-0.317,0.858-0.427,1.788-0.448,2.748
		c-0.371-0.01-0.741-0.034-1.114-0.034c-0.736,0-1.435,1.42-0.526,1.42c0.558,0,1.112,0.03,1.666,0.05
		c0.111,2.01,0.435,4.081,0.165,5.906c-0.147,0.99,1.282,0.506,1.394-0.245c0.278-1.874,0.168-3.731,0.06-5.607
		c0.783,0.038,1.566,0.08,2.353,0.097c0.738,0.016,1.439-1.4,0.526-1.42c-0.981-0.022-1.956-0.073-2.932-0.12
		c-0.018-0.798-0.006-1.596,0.101-2.388c0.063-0.466,2.334-0.358,2.676-0.339c0.314,0.018,0.682-0.184,0.825-0.47
		c0.011-0.021,0.021-0.042,0.031-0.063C424.208,293.528,423.718,293.162,423.257,293.285z"/>
</g>
</svg>
