<?xml version="1.0" encoding="utf-8"?>
<!-- Generator: Adobe Illustrator 17.0.0, SVG Export Plug-In . SVG Version: 6.00 Build 0)  -->
<!DOCTYPE svg PUBLIC "-//W3C//DTD SVG 1.1//EN" "http://www.w3.org/Graphics/SVG/1.1/DTD/svg11.dtd">
<svg version="1.1" id="Слой_1" xmlns="http://www.w3.org/2000/svg" xmlns:xlink="http://www.w3.org/1999/xlink" x="0px" y="0px"
	 width="308px" height="33px" viewBox="258.445 282.14 308 33" enable-background="new 258.445 282.14 308 33" xml:space="preserve"
	>
<g>
	<path d="M291.583,289.936c-0.297-2.835-5.332-1.864-7.011-1.848c-5.111,0.047-10.482-0.58-15.552,0.116
		c-0.583,0.08-0.956,0.941-0.649,1.276c-0.076,0.064-0.146,0.144-0.204,0.243c-1.963,3.337-1.321,6.556-0.789,10.252
		c0.454,3.153-1.155,8.533,1.45,10.807c0.515,0.45,1.686,0.608,2.335,0.574c3.017-0.157,5.94-0.403,8.965-0.21
		c2.803,0.179,7.758,1.586,10.342-0.217c1.701-1.187,1.078-5.09,0.967-6.831C291.137,299.387,292.077,294.654,291.583,289.936z
		 M290.075,307.684c-0.488,3.82-5.16,2.411-7.899,2.17c-2.875-0.253-5.696-0.299-8.572-0.087c-1.984,0.146-4.491-0.093-4.58-2.483
		c-0.067-1.789-0.094-3.581-0.117-5.371c-0.051-3.949-1.781-8.028,0.385-11.711c0.162-0.276,0.154-0.493,0.067-0.651
		c5.992-0.739,12.523-0.136,18.538-0.037c3.282,0.054,2.417,7.33,2.284,9.279C289.984,301.713,290.442,304.811,290.075,307.684z"/>
	<path d="M282.257,295.285c-1.426-0.08-3.6-0.142-4.157,1.366c-0.317,0.858-0.427,1.788-0.448,2.748
		c-0.371-0.01-0.741-0.034-1.114-0.034c-0.736,0-1.435,1.42-0.526,1.42c0.558,0,1.112,0.03,1.666,0.05
		c0.111,2.01,0.435,4.081,0.165,5.906c-0.147,0.99,1.282,0.506,1.394-0.245c0.278-1.874,0.168-3.731,0.06-5.607
		c0.783,0.038,1.566,0.08,2.353,0.097c0.738,0.016,1.439-1.4,0.526-1.42c-0.981-0.022-1.956-0.073-2.932-0.12
		c-0.018-0.798-0.006-1.596,0.101-2.388c0.063-0.466,2.334-0.358,2.676-0.339c0.314,0.018,0.682-0.184,0.825-0.47
		c0.011-0.021,0.021-0.042,0.031-0.063C283.208,295.528,282.718,295.162,282.257,295.285z"/>
</g>
<g>
	<rect x="302.04" y="292.605" fill="none" width="271.723" height="14.5"/>
	<g enable-background="new    ">
		<path d="M304.038,293.172c0.12,0.636,0.18,1.332,0.18,2.088c0,0.36-0.016,0.711-0.045,1.053c-0.03,0.343-0.075,0.676-0.135,0.999
			c0.084,0.145,0.174,0.207,0.27,0.189c0.096-0.018,0.198-0.063,0.306-0.135c0.108-0.072,0.219-0.147,0.333-0.226
			c0.114-0.077,0.23-0.11,0.351-0.099c0.36,0.048,0.663,0.18,0.909,0.396c0.246,0.217,0.465,0.472,0.657,0.766
			c0.191,0.294,0.36,0.609,0.504,0.944c0.144,0.337,0.288,0.648,0.432,0.937c-0.024,0.096-0.03,0.204-0.018,0.324
			c0.012,0.12,0.021,0.233,0.027,0.342c0.006,0.108-0.012,0.204-0.054,0.288s-0.129,0.138-0.261,0.162
			c-0.084-0.336-0.18-0.685-0.288-1.044c-0.108-0.36-0.249-0.702-0.423-1.026c-0.174-0.324-0.39-0.608-0.648-0.854
			c-0.258-0.246-0.585-0.424-0.981-0.531c-0.264,0.191-0.471,0.417-0.621,0.675c-0.15,0.258-0.261,0.534-0.333,0.828
			c-0.072,0.294-0.117,0.597-0.135,0.909c-0.018,0.312-0.027,0.624-0.027,0.936c0,0.42-0.036,0.828-0.108,1.224
			c-0.204-0.012-0.331-0.068-0.378-0.171c-0.048-0.102-0.072-0.219-0.072-0.351s0.003-0.271,0.009-0.414
			c0.006-0.144-0.04-0.258-0.135-0.342c0.108-1.272,0.162-2.514,0.162-3.727c0-1.199-0.054-2.441-0.162-3.726
			c0.06-0.036,0.114-0.084,0.162-0.144c0.048-0.061,0.096-0.117,0.144-0.172c0.048-0.054,0.102-0.093,0.162-0.116
			C303.882,293.13,303.954,293.136,304.038,293.172z"/>
		<path d="M311.274,294.613c0,0.084,0.048,0.138,0.144,0.161c0,0.12-0.003,0.265-0.009,0.433c-0.006,0.168-0.009,0.342-0.009,0.521
			c0,0.181,0.009,0.36,0.027,0.54c0.018,0.181,0.057,0.343,0.117,0.486c0.228,0.144,0.477,0.198,0.747,0.162
			s0.531-0.078,0.783-0.126s0.489-0.051,0.711-0.009c0.222,0.042,0.399,0.213,0.531,0.513c-0.216,0.12-0.453,0.198-0.711,0.234
			c-0.258,0.035-0.519,0.071-0.783,0.107c-0.264,0.036-0.516,0.084-0.756,0.145c-0.24,0.06-0.456,0.18-0.648,0.359
			c0.036,0.385,0.066,0.771,0.09,1.161c0.023,0.391,0.078,0.769,0.162,1.134c0.084,0.366,0.222,0.711,0.414,1.035
			s0.474,0.606,0.846,0.846c0.336,0.133,0.657,0.214,0.963,0.243c0.306,0.03,0.612,0.027,0.918-0.009s0.612-0.09,0.918-0.162
			s0.627-0.144,0.963-0.216c0.024,0.324-0.024,0.563-0.144,0.72s-0.273,0.279-0.459,0.369s-0.387,0.171-0.603,0.243
			c-0.216,0.072-0.408,0.18-0.576,0.324c-0.504,0.096-1.008,0.062-1.512-0.1c-0.504-0.161-0.984-0.356-1.44-0.585
			c-0.432-0.695-0.783-1.442-1.053-2.24s-0.333-1.677-0.189-2.638c-0.205-0.18-0.42-0.27-0.648-0.27s-0.456,0.024-0.684,0.072
			c-0.229,0.048-0.457,0.071-0.684,0.071c-0.24,0-0.457-0.09-0.648-0.27c0.072-0.276,0.195-0.474,0.369-0.594
			s0.375-0.195,0.603-0.226c0.228-0.029,0.465-0.039,0.711-0.027c0.246,0.013,0.471,0.013,0.675,0c0.12-0.323,0.18-0.713,0.18-1.17
			c0-0.468-0.06-0.863-0.18-1.188c0.156-0.06,0.294-0.138,0.414-0.234c0.12-0.096,0.27-0.113,0.45-0.054V294.613z"/>
		<path d="M319.427,294.613c0,0.084,0.048,0.138,0.144,0.161c0,0.12-0.003,0.265-0.009,0.433c-0.006,0.168-0.009,0.342-0.009,0.521
			c0,0.181,0.009,0.36,0.027,0.54c0.018,0.181,0.057,0.343,0.117,0.486c0.228,0.144,0.477,0.198,0.747,0.162
			s0.531-0.078,0.783-0.126s0.489-0.051,0.711-0.009c0.222,0.042,0.399,0.213,0.531,0.513c-0.216,0.12-0.453,0.198-0.711,0.234
			c-0.258,0.035-0.519,0.071-0.783,0.107c-0.264,0.036-0.516,0.084-0.756,0.145c-0.24,0.06-0.456,0.18-0.648,0.359
			c0.036,0.385,0.066,0.771,0.09,1.161c0.023,0.391,0.078,0.769,0.162,1.134c0.084,0.366,0.222,0.711,0.414,1.035
			s0.474,0.606,0.846,0.846c0.336,0.133,0.657,0.214,0.963,0.243c0.306,0.03,0.612,0.027,0.918-0.009s0.612-0.09,0.918-0.162
			s0.627-0.144,0.963-0.216c0.024,0.324-0.024,0.563-0.144,0.72s-0.273,0.279-0.459,0.369s-0.387,0.171-0.603,0.243
			c-0.216,0.072-0.408,0.18-0.576,0.324c-0.504,0.096-1.008,0.062-1.512-0.1c-0.504-0.161-0.984-0.356-1.44-0.585
			c-0.432-0.695-0.783-1.442-1.053-2.24s-0.333-1.677-0.189-2.638c-0.205-0.18-0.42-0.27-0.648-0.27s-0.456,0.024-0.684,0.072
			c-0.229,0.048-0.457,0.071-0.684,0.071c-0.24,0-0.457-0.09-0.648-0.27c0.072-0.276,0.195-0.474,0.369-0.594
			s0.375-0.195,0.603-0.226c0.228-0.029,0.465-0.039,0.711-0.027c0.246,0.013,0.471,0.013,0.675,0c0.12-0.323,0.18-0.713,0.18-1.17
			c0-0.468-0.06-0.863-0.18-1.188c0.156-0.06,0.294-0.138,0.414-0.234c0.12-0.096,0.27-0.113,0.45-0.054V294.613z"/>
		<path d="M328.805,297.708c0.108,0.252,0.207,0.507,0.297,0.765c0.09,0.259,0.153,0.517,0.189,0.774
			c0.036,0.258,0.024,0.516-0.036,0.773c-0.061,0.259-0.187,0.514-0.378,0.766c-0.072,0.144-0.16,0.255-0.261,0.333
			c-0.102,0.078-0.207,0.138-0.315,0.18s-0.222,0.081-0.342,0.117s-0.234,0.09-0.342,0.162s-0.216,0.093-0.324,0.062
			c-0.108-0.029-0.207-0.06-0.297-0.09c-0.09-0.029-0.171-0.036-0.243-0.018c-0.072,0.018-0.132,0.104-0.18,0.261
			c0.132,0.54,0.255,1.059,0.369,1.557c0.114,0.498,0.213,0.996,0.297,1.494s0.147,1.005,0.189,1.521
			c0.042,0.516,0.057,1.056,0.045,1.62c-0.144,0.071-0.255,0.081-0.333,0.026c-0.078-0.054-0.138-0.135-0.18-0.243
			c-0.042-0.107-0.081-0.222-0.117-0.342s-0.078-0.216-0.126-0.288c-0.048-0.983-0.174-1.982-0.378-2.997
			c-0.204-1.014-0.378-2.03-0.522-3.051c-0.132-0.216-0.264-0.456-0.396-0.72c-0.132-0.264-0.231-0.537-0.297-0.819
			c-0.066-0.281-0.087-0.561-0.063-0.837c0.024-0.275,0.12-0.54,0.288-0.792c0.144-0.36,0.372-0.618,0.684-0.773
			c0.312-0.156,0.642-0.234,0.99-0.234c0.36,0,0.702,0.072,1.026,0.216C328.373,297.277,328.625,297.468,328.805,297.708z
			 M326.267,297.816c-0.036,0.085-0.087,0.178-0.153,0.279c-0.066,0.103-0.126,0.213-0.18,0.333c-0.054,0.12-0.09,0.243-0.108,0.369
			s0.003,0.261,0.063,0.405c0.06,0.168,0.141,0.336,0.243,0.504c0.102,0.168,0.222,0.324,0.36,0.468
			c0.138,0.145,0.294,0.258,0.468,0.342s0.363,0.12,0.567,0.108c0.18-0.012,0.327-0.06,0.441-0.145
			c0.114-0.083,0.204-0.186,0.27-0.306c0.066-0.12,0.123-0.255,0.171-0.405c0.048-0.149,0.102-0.297,0.162-0.44
			c-0.048-0.324-0.153-0.564-0.315-0.72c-0.162-0.156-0.351-0.273-0.567-0.352c-0.216-0.078-0.45-0.141-0.702-0.188
			S326.495,297.936,326.267,297.816z"/>
		<path d="M336.222,297.907c-0.012,0.071-0.015,0.152-0.009,0.242c0.006,0.091,0.009,0.175,0.009,0.253s-0.006,0.152-0.018,0.225
			c-0.012,0.072-0.048,0.132-0.108,0.18c-0.228-0.144-0.447-0.314-0.657-0.513s-0.426-0.375-0.648-0.531
			c-0.222-0.155-0.456-0.267-0.702-0.333c-0.246-0.065-0.513-0.039-0.801,0.081c-0.324,0.324-0.471,0.654-0.441,0.99
			c0.03,0.336,0.135,0.675,0.315,1.017c0.18,0.343,0.39,0.688,0.63,1.035c0.24,0.349,0.408,0.69,0.504,1.026l-0.108,1.638
			c-0.348,0.168-0.732,0.297-1.152,0.387c-0.42,0.091-0.828,0.058-1.224-0.099c-0.204-0.072-0.405-0.174-0.603-0.306
			c-0.198-0.133-0.384-0.279-0.558-0.441s-0.336-0.333-0.486-0.513c-0.15-0.181-0.279-0.348-0.387-0.504
			c0.252-0.072,0.495-0.069,0.729,0.009c0.234,0.078,0.462,0.183,0.684,0.314c0.222,0.133,0.444,0.268,0.666,0.405
			c0.222,0.139,0.453,0.237,0.693,0.297c0.204,0.072,0.369,0.048,0.495-0.071c0.126-0.12,0.261-0.246,0.405-0.379
			c0.048-0.323,0.021-0.633-0.081-0.927c-0.102-0.294-0.231-0.578-0.387-0.854s-0.318-0.546-0.486-0.811
			c-0.168-0.264-0.297-0.53-0.387-0.801c-0.09-0.27-0.12-0.549-0.09-0.837c0.03-0.288,0.165-0.588,0.405-0.9
			c0.24-0.42,0.54-0.684,0.9-0.792c0.36-0.107,0.729-0.11,1.107-0.009c0.378,0.103,0.729,0.291,1.053,0.567
			C335.808,297.229,336.053,297.546,336.222,297.907z"/>
		<path d="M342.216,299.365c-0.048,0.168-0.129,0.297-0.243,0.387c-0.114,0.09-0.24,0.15-0.378,0.18
			c-0.138,0.03-0.276,0.033-0.414,0.009c-0.138-0.023-0.249-0.071-0.333-0.144c-0.144-0.06-0.243-0.162-0.297-0.306
			c-0.054-0.145-0.078-0.3-0.072-0.469c0.006-0.167,0.03-0.335,0.072-0.504c0.042-0.168,0.087-0.306,0.135-0.414
			c0.204-0.252,0.438-0.387,0.702-0.404c0.264-0.019,0.495,0.045,0.693,0.188c0.198,0.145,0.324,0.349,0.378,0.612
			C342.512,298.764,342.431,299.052,342.216,299.365z M342.575,294.613c0.024,0.18,0.033,0.362,0.027,0.549
			c-0.006,0.186-0.036,0.354-0.09,0.504c-0.054,0.15-0.135,0.27-0.243,0.36c-0.108,0.09-0.252,0.123-0.432,0.099
			c-0.205,0-0.402-0.078-0.594-0.234c-0.192-0.155-0.324-0.342-0.396-0.558c-0.072-0.204-0.084-0.381-0.036-0.531
			c0.048-0.149,0.123-0.279,0.225-0.387c0.102-0.108,0.216-0.198,0.342-0.271c0.126-0.071,0.237-0.126,0.333-0.162
			c0.072,0.072,0.147,0.12,0.225,0.145s0.156,0.054,0.234,0.09s0.153,0.081,0.225,0.135
			C342.467,294.406,342.527,294.493,342.575,294.613z"/>
		<path d="M352.799,291.642c0.144,0.276,0.177,0.592,0.099,0.945c-0.079,0.354-0.223,0.735-0.432,1.143
			c-0.21,0.408-0.465,0.835-0.765,1.278c-0.3,0.444-0.609,0.897-0.927,1.359c-0.318,0.462-0.618,0.924-0.9,1.386
			c-0.282,0.462-0.507,0.915-0.675,1.359c-0.132,0.348-0.288,0.647-0.468,0.899c-0.18,0.252-0.373,0.498-0.576,0.738
			c-0.204,0.24-0.408,0.492-0.612,0.756s-0.396,0.576-0.576,0.937h-0.72c0.528-0.948,1.038-1.908,1.53-2.881
			c0.492-0.972,0.996-1.923,1.512-2.853s1.059-1.827,1.629-2.691C351.488,293.155,352.115,292.363,352.799,291.642z"/>
		<path d="M361.079,291.642c0.144,0.276,0.177,0.592,0.099,0.945c-0.079,0.354-0.223,0.735-0.432,1.143
			c-0.21,0.408-0.465,0.835-0.765,1.278c-0.3,0.444-0.609,0.897-0.927,1.359c-0.318,0.462-0.618,0.924-0.9,1.386
			c-0.282,0.462-0.507,0.915-0.675,1.359c-0.132,0.348-0.288,0.647-0.468,0.899c-0.18,0.252-0.373,0.498-0.576,0.738
			c-0.204,0.24-0.408,0.492-0.612,0.756s-0.396,0.576-0.576,0.937h-0.72c0.528-0.948,1.038-1.908,1.53-2.881
			c0.492-0.972,0.996-1.923,1.512-2.853s1.059-1.827,1.629-2.691C359.768,293.155,360.395,292.363,361.079,291.642z"/>
		<path d="M373.103,297.186c-0.048,0.145-0.033,0.24,0.045,0.288c0.078,0.049,0.146,0.126,0.207,0.234
			c-0.396,0.384-0.759,0.765-1.089,1.143s-0.663,0.729-0.999,1.054c-0.336,0.323-0.696,0.614-1.08,0.873
			c-0.384,0.258-0.834,0.459-1.35,0.603c-0.18-0.12-0.348-0.294-0.504-0.521c-0.156-0.229-0.321-0.433-0.495-0.612
			c-0.174-0.181-0.369-0.288-0.585-0.324c-0.216-0.036-0.474,0.078-0.774,0.342c-0.144,0.084-0.288,0.214-0.432,0.388
			s-0.294,0.33-0.45,0.468s-0.321,0.222-0.495,0.252s-0.357-0.057-0.549-0.261c-0.06-0.336-0.147-0.672-0.261-1.009
			c-0.114-0.336-0.219-0.675-0.315-1.017s-0.168-0.681-0.216-1.017s-0.042-0.672,0.018-1.009c0.336,0.049,0.585,0.171,0.747,0.369
			s0.288,0.43,0.378,0.693s0.168,0.537,0.234,0.818c0.066,0.282,0.165,0.531,0.297,0.747l1.962-1.367
			c0.348,0.191,0.668,0.423,0.963,0.692c0.294,0.271,0.567,0.579,0.819,0.927c0.624-0.539,1.254-1.04,1.89-1.503
			C371.705,297.976,372.383,297.558,373.103,297.186z"/>
		<path d="M384.514,297.186c-0.048,0.145-0.033,0.24,0.045,0.288c0.078,0.049,0.146,0.126,0.207,0.234
			c-0.396,0.384-0.759,0.765-1.089,1.143s-0.663,0.729-0.999,1.054c-0.336,0.323-0.696,0.614-1.08,0.873
			c-0.384,0.258-0.834,0.459-1.35,0.603c-0.18-0.12-0.348-0.294-0.504-0.521c-0.156-0.229-0.321-0.433-0.495-0.612
			c-0.174-0.181-0.369-0.288-0.585-0.324c-0.216-0.036-0.474,0.078-0.774,0.342c-0.144,0.084-0.288,0.214-0.432,0.388
			s-0.294,0.33-0.45,0.468s-0.321,0.222-0.495,0.252s-0.357-0.057-0.549-0.261c-0.06-0.336-0.147-0.672-0.261-1.009
			c-0.114-0.336-0.219-0.675-0.315-1.017s-0.168-0.681-0.216-1.017s-0.042-0.672,0.018-1.009c0.336,0.049,0.585,0.171,0.747,0.369
			s0.288,0.43,0.378,0.693s0.168,0.537,0.234,0.818c0.066,0.282,0.165,0.531,0.297,0.747l1.962-1.367
			c0.348,0.191,0.668,0.423,0.963,0.692c0.294,0.271,0.567,0.579,0.819,0.927c0.624-0.539,1.254-1.04,1.89-1.503
			C383.116,297.976,383.795,297.558,384.514,297.186z"/>
		<path d="M395.926,297.186c-0.048,0.145-0.033,0.24,0.045,0.288c0.078,0.049,0.146,0.126,0.207,0.234
			c-0.396,0.384-0.759,0.765-1.089,1.143s-0.663,0.729-0.999,1.054c-0.336,0.323-0.696,0.614-1.08,0.873
			c-0.384,0.258-0.834,0.459-1.35,0.603c-0.18-0.12-0.348-0.294-0.504-0.521c-0.156-0.229-0.321-0.433-0.495-0.612
			c-0.174-0.181-0.369-0.288-0.585-0.324c-0.216-0.036-0.474,0.078-0.774,0.342c-0.144,0.084-0.288,0.214-0.432,0.388
			s-0.294,0.33-0.45,0.468s-0.321,0.222-0.495,0.252s-0.357-0.057-0.549-0.261c-0.06-0.336-0.147-0.672-0.261-1.009
			c-0.114-0.336-0.219-0.675-0.315-1.017s-0.168-0.681-0.216-1.017s-0.042-0.672,0.018-1.009c0.336,0.049,0.585,0.171,0.747,0.369
			s0.288,0.43,0.378,0.693s0.168,0.537,0.234,0.818c0.066,0.282,0.165,0.531,0.297,0.747l1.962-1.367
			c0.348,0.191,0.668,0.423,0.963,0.692c0.294,0.271,0.567,0.579,0.819,0.927c0.624-0.539,1.254-1.04,1.89-1.503
			C394.529,297.976,395.207,297.558,395.926,297.186z"/>
		<path d="M399.383,300.859c0.12,0.168,0.165,0.32,0.135,0.459c-0.03,0.138-0.099,0.264-0.207,0.378s-0.234,0.222-0.378,0.323
			c-0.144,0.103-0.27,0.207-0.378,0.315c-0.156,0.084-0.306,0.108-0.45,0.072s-0.282-0.103-0.414-0.198
			c-0.132-0.096-0.255-0.213-0.369-0.352c-0.114-0.138-0.219-0.267-0.315-0.387c0.024-0.107,0.051-0.222,0.081-0.342
			s0.072-0.228,0.126-0.324c0.054-0.096,0.126-0.174,0.216-0.233c0.09-0.061,0.207-0.091,0.351-0.091
			c0.312-0.048,0.588-0.023,0.828,0.072C398.848,300.649,399.106,300.75,399.383,300.859z"/>
		<path d="M408.13,294.288c0.012,0.132,0,0.246-0.036,0.342c-0.036,0.097-0.108,0.192-0.216,0.288h-0.396
			c0.036-0.108,0.012-0.183-0.072-0.225s-0.138-0.093-0.162-0.153c-0.312-0.048-0.576-0.063-0.792-0.045
			c-0.216,0.018-0.475,0.075-0.774,0.171c-0.468,0.48-0.897,1.008-1.287,1.584c-0.39,0.576-0.711,1.188-0.963,1.836l0.252,0.252
			c0.144-0.072,0.297-0.11,0.459-0.117c0.162-0.006,0.327-0.009,0.495-0.009s0.333-0.003,0.495-0.009s0.315-0.045,0.459-0.117
			c0.072,0.24,0.066,0.417-0.018,0.531s-0.207,0.201-0.369,0.261c-0.162,0.061-0.339,0.103-0.531,0.126
			c-0.192,0.024-0.36,0.061-0.504,0.108c-0.3-0.097-0.531-0.123-0.693-0.081c-0.162,0.042-0.282,0.126-0.36,0.252
			s-0.129,0.282-0.153,0.468c-0.024,0.187-0.042,0.378-0.054,0.576c-0.012,0.198-0.033,0.39-0.063,0.576
			c-0.03,0.186-0.093,0.339-0.189,0.459c-0.108,0.456-0.153,0.933-0.135,1.431s0.015,0.999-0.009,1.503
			c-0.096,0.132-0.21,0.183-0.342,0.153c-0.132-0.03-0.264-0.033-0.396-0.01c-0.084-0.479-0.102-0.933-0.054-1.358
			s0.12-0.843,0.216-1.251c0.096-0.408,0.195-0.812,0.297-1.215c0.102-0.402,0.159-0.819,0.171-1.251
			c-0.192-0.108-0.414-0.153-0.666-0.136c-0.252,0.019-0.498,0.016-0.738-0.009v-0.396c0.18-0.036,0.315-0.087,0.405-0.153
			c0.09-0.065,0.171-0.126,0.243-0.18c0.072-0.055,0.162-0.087,0.27-0.1c0.108-0.012,0.27,0.019,0.486,0.09
			c0.288-0.42,0.537-0.882,0.747-1.386s0.444-0.986,0.702-1.449c0.258-0.461,0.567-0.873,0.927-1.232
			c0.36-0.36,0.84-0.612,1.44-0.756c0.096-0.012,0.186-0.019,0.27-0.019s0.174,0,0.27,0c0.276,0,0.54,0.042,0.792,0.126
			S407.998,294.025,408.13,294.288z"/>
		<path d="M412.81,302.659c-0.168,0.132-0.315,0.228-0.441,0.288c-0.126,0.06-0.219,0.102-0.279,0.126h-0.018h-0.036
			c-0.108-0.217-0.276-0.337-0.504-0.36s-0.477-0.018-0.747,0.018c-0.27,0.036-0.531,0.069-0.783,0.1
			c-0.252,0.029-0.457-0.009-0.612-0.117c-0.312-0.168-0.573-0.387-0.783-0.657c-0.21-0.27-0.369-0.561-0.477-0.873
			c-0.108-0.312-0.174-0.636-0.198-0.972s-0.012-0.654,0.036-0.954c0.12-0.275,0.282-0.516,0.486-0.72s0.474-0.36,0.81-0.468
			c0.516-0.048,0.933-0.003,1.251,0.135s0.633,0.351,0.945,0.639c0-0.132-0.009-0.306-0.027-0.521
			c-0.018-0.217-0.054-0.447-0.108-0.693c-0.054-0.246-0.132-0.489-0.234-0.729c-0.102-0.239-0.243-0.449-0.423-0.63
			c-0.084-0.071-0.219-0.132-0.405-0.18s-0.384-0.093-0.594-0.135c-0.21-0.042-0.408-0.084-0.594-0.126s-0.321-0.093-0.405-0.153
			c-0.096-0.084-0.129-0.174-0.099-0.27c0.03-0.097,0.105-0.184,0.225-0.262c0.12-0.077,0.272-0.135,0.459-0.171
			c0.186-0.036,0.387-0.036,0.603,0c0.216,0,0.429,0.033,0.639,0.1c0.21,0.065,0.411,0.162,0.603,0.288s0.363,0.285,0.513,0.477
			c0.15,0.192,0.261,0.414,0.333,0.666c-0.012,0.288,0.003,0.684,0.045,1.188c0.042,0.505,0.102,1.048,0.18,1.63
			c0.078,0.582,0.174,1.167,0.288,1.755C412.573,301.662,412.69,302.19,412.81,302.659z M408.598,300.157
			c0.072,0.191,0.162,0.411,0.27,0.656c0.108,0.246,0.243,0.472,0.405,0.676c0.162,0.204,0.354,0.366,0.576,0.485
			c0.222,0.12,0.489,0.156,0.801,0.108c0-0.048,0.072-0.081,0.216-0.099c0.144-0.019,0.24-0.039,0.288-0.063l0.216-0.432
			c0.06-0.229,0.099-0.414,0.117-0.559c0.018-0.144,0.018-0.27,0-0.378c-0.018-0.107-0.051-0.222-0.099-0.342
			s-0.108-0.276-0.18-0.468c-0.205-0.3-0.492-0.522-0.864-0.666c-0.372-0.145-0.744-0.204-1.116-0.181
			c-0.205,0.133-0.345,0.315-0.423,0.55C408.727,299.679,408.658,299.916,408.598,300.157z"/>
		<path d="M418.12,298.014c-0.252,0.036-0.492,0.016-0.72-0.062c-0.228-0.078-0.447-0.138-0.657-0.181
			c-0.21-0.041-0.399-0.026-0.567,0.045c-0.168,0.072-0.312,0.276-0.432,0.612c-0.144,0.204-0.237,0.414-0.279,0.63
			c-0.042,0.216-0.054,0.433-0.036,0.648s0.048,0.438,0.09,0.666s0.069,0.456,0.081,0.684c0.216,0.192,0.423,0.285,0.621,0.279
			c0.198-0.006,0.399-0.045,0.603-0.117s0.411-0.146,0.621-0.225s0.435-0.093,0.675-0.045c-0.072,0.18-0.18,0.333-0.324,0.459
			s-0.306,0.23-0.486,0.314c-0.18,0.084-0.372,0.147-0.576,0.189c-0.204,0.042-0.396,0.062-0.576,0.062
			c-0.168,0.036-0.321,0.039-0.459,0.01c-0.138-0.03-0.264-0.084-0.378-0.162c-0.114-0.078-0.213-0.174-0.297-0.288
			c-0.084-0.114-0.15-0.226-0.198-0.333c-0.216-0.721-0.225-1.425-0.027-2.115c0.198-0.69,0.549-1.263,1.053-1.719
			c0.168-0.12,0.351-0.198,0.549-0.234c0.198-0.036,0.399-0.036,0.603,0c0.204,0.036,0.402,0.099,0.594,0.189
			c0.192,0.09,0.366,0.201,0.522,0.333V298.014z"/>
		<path d="M423.933,296.485c0.108,0.155,0.159,0.303,0.153,0.44c-0.007,0.139-0.039,0.273-0.1,0.405
			c-0.06,0.132-0.129,0.264-0.207,0.396c-0.078,0.133-0.141,0.271-0.188,0.414c-0.204,0.097-0.411,0.204-0.621,0.324
			s-0.423,0.223-0.639,0.306c-0.217,0.085-0.444,0.136-0.685,0.153c-0.24,0.018-0.485-0.027-0.738-0.135
			c-0.024,0.252-0.057,0.525-0.099,0.818c-0.042,0.295-0.054,0.583-0.036,0.864c0.018,0.282,0.081,0.543,0.189,0.783
			s0.3,0.426,0.576,0.558l0.144,0.145l2.395-0.774c-0.013,0.288-0.1,0.495-0.262,0.621s-0.354,0.22-0.576,0.279
			c-0.222,0.061-0.453,0.107-0.692,0.144c-0.24,0.036-0.444,0.108-0.612,0.217c-0.3,0.107-0.552,0.135-0.756,0.08
			c-0.204-0.054-0.375-0.158-0.513-0.314c-0.138-0.156-0.246-0.339-0.324-0.549s-0.147-0.417-0.207-0.621l0.144-2.25
			c-0.108-0.048-0.177-0.108-0.207-0.18c-0.03-0.072-0.045-0.15-0.045-0.234s0.006-0.171,0.018-0.261
			c0.012-0.091,0.006-0.171-0.018-0.243c0.156-0.132,0.285-0.291,0.387-0.478c0.102-0.186,0.204-0.375,0.306-0.566
			c0.102-0.192,0.213-0.375,0.333-0.549s0.282-0.315,0.486-0.424c0.191,0.036,0.41,0.039,0.656,0.01
			c0.246-0.03,0.483-0.042,0.711-0.036c0.229,0.006,0.436,0.051,0.621,0.135C423.715,296.046,423.849,296.22,423.933,296.485z
			 M422.17,296.485c-0.156,0.048-0.276,0.12-0.36,0.216s-0.153,0.204-0.207,0.323c-0.054,0.12-0.102,0.246-0.144,0.379
			c-0.042,0.132-0.099,0.252-0.171,0.359l1.529,0.108l0.145-0.738c-0.084-0.06-0.15-0.126-0.198-0.198
			c-0.048-0.071-0.099-0.138-0.153-0.197c-0.054-0.061-0.114-0.114-0.18-0.162C422.364,296.527,422.277,296.496,422.17,296.485z"/>
		<path d="M427.515,297.529c0.084,0.048,0.126,0.132,0.126,0.252v0.306c0,0.108,0.015,0.207,0.045,0.297s0.104,0.159,0.225,0.207
			c0.217-0.144,0.469-0.252,0.757-0.324c0.288-0.071,0.581-0.107,0.882-0.107c0.312,0,0.611,0.036,0.899,0.107
			c0.288,0.072,0.54,0.181,0.757,0.324c0.132-0.12,0.252-0.162,0.359-0.126c0.108,0.036,0.207,0.105,0.297,0.207
			c0.09,0.103,0.177,0.213,0.262,0.333c0.083,0.12,0.167,0.198,0.252,0.234c0.144,0.216,0.228,0.438,0.252,0.666
			c0.023,0.228,0.018,0.459-0.019,0.692c-0.036,0.234-0.081,0.472-0.135,0.711c-0.054,0.24-0.087,0.48-0.099,0.721
			c-0.061,0.023-0.108,0.015-0.145-0.027s-0.072-0.081-0.107-0.117c-0.181,0.132-0.372,0.291-0.576,0.478
			c-0.204,0.186-0.417,0.348-0.64,0.485c-0.222,0.138-0.459,0.229-0.711,0.271s-0.521-0.016-0.81-0.171
			c-0.12,0.012-0.237-0.021-0.352-0.1c-0.113-0.078-0.222-0.144-0.323-0.198c-0.103-0.054-0.198-0.071-0.288-0.054
			c-0.09,0.019-0.178,0.135-0.261,0.352v0.216c0,0.084-0.036,0.144-0.108,0.18c-0.097-0.048-0.168-0.12-0.216-0.216
			c-0.049-0.097-0.09-0.201-0.126-0.315c-0.036-0.113-0.066-0.23-0.09-0.351c-0.024-0.12-0.061-0.228-0.108-0.324
			c-0.145-0.972-0.273-1.943-0.387-2.916c-0.114-0.972-0.291-1.926-0.531-2.861h-0.252c0.023-0.433,0.003-0.861-0.063-1.287
			c-0.065-0.426-0.149-0.853-0.252-1.278c-0.102-0.426-0.201-0.852-0.297-1.278c-0.096-0.426-0.162-0.866-0.198-1.322
			c0.061-0.061,0.136-0.105,0.226-0.136c0.09-0.029,0.171-0.045,0.243-0.045c0.083,0,0.158,0.024,0.225,0.072
			c0.065,0.048,0.104,0.132,0.117,0.252c0.191,0.48,0.333,0.979,0.423,1.494s0.165,1.041,0.225,1.575
			c0.061,0.534,0.126,1.064,0.198,1.593S427.371,297.036,427.515,297.529z M428.164,299.653c-0.024,0.479,0.08,0.927,0.314,1.341
			s0.537,0.759,0.909,1.035c0.132,0.012,0.288,0.035,0.468,0.071s0.354,0.055,0.522,0.055c0.168,0,0.326-0.039,0.477-0.117
			s0.267-0.213,0.352-0.405c0.144-0.144,0.225-0.297,0.242-0.459c0.019-0.162,0.012-0.327-0.018-0.495
			c-0.03-0.168-0.072-0.339-0.126-0.513s-0.087-0.345-0.099-0.513c-0.217-0.181-0.453-0.3-0.712-0.36
			c-0.258-0.06-0.521-0.081-0.792-0.063c-0.27,0.019-0.54,0.066-0.81,0.145S428.38,299.544,428.164,299.653z"/>
		<path d="M437.991,298.842c0.12,0.252,0.198,0.507,0.234,0.765c0.036,0.259,0.036,0.514,0,0.766s-0.1,0.498-0.189,0.738
			s-0.195,0.468-0.314,0.684c-0.24,0.24-0.498,0.483-0.774,0.729c-0.276,0.246-0.567,0.444-0.873,0.595
			c-0.306,0.149-0.621,0.236-0.945,0.261c-0.323,0.023-0.647-0.066-0.972-0.27c-0.384-0.276-0.627-0.676-0.729-1.197
			c-0.103-0.522-0.13-1.047-0.081-1.575c-0.013-0.18,0.015-0.363,0.081-0.549c0.065-0.187,0.155-0.363,0.27-0.531
			s0.24-0.327,0.378-0.477c0.138-0.15,0.267-0.273,0.387-0.369c0.217,0.107,0.405,0.107,0.567,0
			c0.162-0.108,0.321-0.234,0.477-0.378c0.156-0.145,0.321-0.262,0.495-0.352s0.381-0.057,0.621,0.1
			c0.264,0.035,0.516,0.168,0.756,0.396C437.619,298.405,437.823,298.626,437.991,298.842z M435.903,298.896
			c-0.097,0.181-0.201,0.363-0.315,0.55c-0.114,0.186-0.177,0.368-0.188,0.549c0,0.132-0.027,0.246-0.081,0.342
			s-0.12,0.168-0.198,0.216s-0.162,0.066-0.252,0.054c-0.09-0.012-0.177-0.065-0.261-0.161c-0.024-0.156-0.058-0.33-0.1-0.522
			c-0.042-0.191-0.021-0.366,0.063-0.521l-0.234,0.035c-0.359,0.589-0.534,1.213-0.521,1.872c0.084,0.097,0.155,0.21,0.216,0.343
			c0.06,0.132,0.126,0.261,0.198,0.387s0.155,0.24,0.252,0.342c0.096,0.103,0.222,0.171,0.378,0.207
			c0.216,0.061,0.462,0.069,0.738,0.027c0.275-0.042,0.516-0.129,0.72-0.262c0.144-0.18,0.291-0.368,0.44-0.566
			c0.15-0.198,0.282-0.411,0.396-0.64c0.114-0.228,0.201-0.465,0.261-0.711c0.061-0.245,0.078-0.507,0.055-0.782
			c-0.013-0.181-0.075-0.349-0.189-0.505c-0.114-0.155-0.249-0.278-0.405-0.368c-0.156-0.091-0.321-0.132-0.495-0.126
			S436.047,298.741,435.903,298.896z"/>
		<path d="M444.435,298.842c0.119,0.252,0.197,0.507,0.233,0.765c0.036,0.259,0.036,0.514,0,0.766s-0.099,0.498-0.188,0.738
			c-0.091,0.24-0.195,0.468-0.315,0.684c-0.24,0.24-0.498,0.483-0.773,0.729c-0.276,0.246-0.567,0.444-0.873,0.595
			c-0.307,0.149-0.621,0.236-0.945,0.261c-0.324,0.023-0.648-0.066-0.972-0.27c-0.385-0.276-0.628-0.676-0.729-1.197
			c-0.102-0.522-0.129-1.047-0.081-1.575c-0.012-0.18,0.015-0.363,0.081-0.549c0.065-0.187,0.156-0.363,0.271-0.531
			c0.113-0.168,0.239-0.327,0.378-0.477c0.138-0.15,0.267-0.273,0.387-0.369c0.216,0.107,0.405,0.107,0.567,0
			c0.161-0.108,0.32-0.234,0.477-0.378c0.156-0.145,0.321-0.262,0.495-0.352s0.381-0.057,0.621,0.1
			c0.264,0.035,0.516,0.168,0.756,0.396C444.063,298.405,444.266,298.626,444.435,298.842z M442.346,298.896
			c-0.096,0.181-0.2,0.363-0.314,0.55c-0.114,0.186-0.178,0.368-0.189,0.549c0,0.132-0.026,0.246-0.081,0.342
			c-0.054,0.096-0.12,0.168-0.197,0.216c-0.078,0.048-0.162,0.066-0.252,0.054c-0.091-0.012-0.178-0.065-0.262-0.161
			c-0.023-0.156-0.057-0.33-0.099-0.522c-0.042-0.191-0.021-0.366,0.062-0.521l-0.233,0.035c-0.36,0.589-0.534,1.213-0.522,1.872
			c0.084,0.097,0.156,0.21,0.217,0.343c0.06,0.132,0.126,0.261,0.197,0.387c0.072,0.126,0.156,0.24,0.252,0.342
			c0.097,0.103,0.223,0.171,0.378,0.207c0.217,0.061,0.462,0.069,0.738,0.027s0.516-0.129,0.72-0.262
			c0.145-0.18,0.291-0.368,0.441-0.566c0.149-0.198,0.282-0.411,0.396-0.64c0.114-0.228,0.201-0.465,0.262-0.711
			c0.06-0.245,0.078-0.507,0.054-0.782c-0.012-0.181-0.075-0.349-0.188-0.505c-0.114-0.155-0.25-0.278-0.405-0.368
			c-0.156-0.091-0.321-0.132-0.495-0.126S442.491,298.741,442.346,298.896z"/>
		<path d="M447.081,294.252c0.084,0.612,0.146,1.228,0.188,1.845c0.042,0.618,0.159,1.203,0.352,1.755
			c0.3-0.252,0.624-0.485,0.972-0.701c0.348-0.217,0.711-0.402,1.089-0.559c0.378-0.155,0.777-0.27,1.197-0.342
			s0.857-0.084,1.314-0.036c0.048,0.288,0.012,0.471-0.108,0.549s-0.276,0.117-0.468,0.117c-0.192,0-0.391-0.006-0.594-0.018
			c-0.205-0.012-0.366,0.035-0.486,0.144c-0.324,0.216-0.651,0.411-0.981,0.585s-0.65,0.405-0.963,0.693
			c0.576,0.228,1.089,0.485,1.539,0.773s0.855,0.721,1.215,1.296c-0.012,0.169,0.03,0.352,0.126,0.55
			c0.097,0.197,0.192,0.398,0.288,0.603s0.159,0.408,0.189,0.612c0.029,0.204-0.027,0.396-0.171,0.576v0.126
			c-0.265-0.12-0.492-0.307-0.685-0.559c-0.191-0.252-0.375-0.524-0.549-0.818s-0.345-0.588-0.513-0.883
			c-0.168-0.294-0.363-0.549-0.585-0.765c-0.223-0.216-0.48-0.372-0.774-0.468s-0.646-0.084-1.053,0.036l0.432,4.716
			c-0.084,0.096-0.156,0.204-0.216,0.324c-0.061,0.119-0.168,0.191-0.324,0.216c-0.144-0.805-0.258-1.626-0.342-2.466
			s-0.165-1.684-0.243-2.529s-0.168-1.686-0.27-2.521c-0.103-0.833-0.243-1.646-0.423-2.438h-0.108c0-0.156,0.003-0.312,0.009-0.468
			s0.093-0.282,0.262-0.378c0.083-0.024,0.155-0.021,0.216,0.009c0.06,0.03,0.11,0.069,0.152,0.117s0.087,0.102,0.136,0.162
			C446.949,294.168,447.008,294.216,447.081,294.252z"/>
		<path d="M455.739,300.859c0.119,0.168,0.164,0.32,0.135,0.459c-0.03,0.138-0.1,0.264-0.207,0.378
			c-0.108,0.114-0.234,0.222-0.378,0.323c-0.145,0.103-0.271,0.207-0.378,0.315c-0.156,0.084-0.307,0.108-0.45,0.072
			c-0.145-0.036-0.282-0.103-0.414-0.198s-0.255-0.213-0.369-0.352c-0.114-0.138-0.219-0.267-0.314-0.387
			c0.023-0.107,0.051-0.222,0.08-0.342c0.03-0.12,0.072-0.228,0.126-0.324c0.055-0.096,0.127-0.174,0.217-0.233
			c0.09-0.061,0.207-0.091,0.351-0.091c0.312-0.048,0.588-0.023,0.828,0.072C455.205,300.649,455.463,300.75,455.739,300.859z"/>
		<path d="M461.264,298.014c-0.252,0.036-0.492,0.016-0.72-0.062s-0.447-0.138-0.657-0.181c-0.21-0.041-0.398-0.026-0.566,0.045
			c-0.168,0.072-0.312,0.276-0.433,0.612c-0.144,0.204-0.236,0.414-0.278,0.63c-0.043,0.216-0.055,0.433-0.036,0.648
			c0.018,0.216,0.048,0.438,0.09,0.666s0.069,0.456,0.081,0.684c0.216,0.192,0.423,0.285,0.621,0.279s0.398-0.045,0.603-0.117
			s0.411-0.146,0.621-0.225s0.435-0.093,0.675-0.045c-0.071,0.18-0.18,0.333-0.323,0.459c-0.145,0.126-0.307,0.23-0.486,0.314
			s-0.372,0.147-0.576,0.189s-0.396,0.062-0.576,0.062c-0.168,0.036-0.321,0.039-0.459,0.01c-0.138-0.03-0.264-0.084-0.378-0.162
			s-0.213-0.174-0.297-0.288s-0.15-0.226-0.198-0.333c-0.216-0.721-0.225-1.425-0.026-2.115c0.197-0.69,0.549-1.263,1.053-1.719
			c0.168-0.12,0.351-0.198,0.549-0.234s0.399-0.036,0.604,0c0.203,0.036,0.401,0.099,0.594,0.189
			c0.191,0.09,0.366,0.201,0.521,0.333V298.014z"/>
		<path d="M467.6,298.842c0.12,0.252,0.198,0.507,0.234,0.765c0.036,0.259,0.036,0.514,0,0.766s-0.1,0.498-0.189,0.738
			s-0.195,0.468-0.314,0.684c-0.24,0.24-0.498,0.483-0.774,0.729c-0.276,0.246-0.567,0.444-0.873,0.595
			c-0.306,0.149-0.621,0.236-0.945,0.261c-0.323,0.023-0.647-0.066-0.972-0.27c-0.384-0.276-0.627-0.676-0.729-1.197
			c-0.103-0.522-0.13-1.047-0.081-1.575c-0.013-0.18,0.015-0.363,0.081-0.549c0.065-0.187,0.155-0.363,0.27-0.531
			s0.24-0.327,0.378-0.477c0.138-0.15,0.267-0.273,0.387-0.369c0.217,0.107,0.405,0.107,0.567,0
			c0.162-0.108,0.321-0.234,0.477-0.378c0.156-0.145,0.321-0.262,0.495-0.352s0.381-0.057,0.621,0.1
			c0.264,0.035,0.516,0.168,0.756,0.396C467.228,298.405,467.432,298.626,467.6,298.842z M465.512,298.896
			c-0.097,0.181-0.201,0.363-0.315,0.55c-0.114,0.186-0.177,0.368-0.188,0.549c0,0.132-0.027,0.246-0.081,0.342
			s-0.12,0.168-0.198,0.216s-0.162,0.066-0.252,0.054c-0.09-0.012-0.177-0.065-0.261-0.161c-0.024-0.156-0.058-0.33-0.1-0.522
			c-0.042-0.191-0.021-0.366,0.063-0.521l-0.234,0.035c-0.359,0.589-0.534,1.213-0.521,1.872c0.084,0.097,0.155,0.21,0.216,0.343
			c0.06,0.132,0.126,0.261,0.198,0.387s0.155,0.24,0.252,0.342c0.096,0.103,0.222,0.171,0.378,0.207
			c0.216,0.061,0.462,0.069,0.738,0.027c0.275-0.042,0.516-0.129,0.72-0.262c0.144-0.18,0.291-0.368,0.44-0.566
			c0.15-0.198,0.282-0.411,0.396-0.64c0.114-0.228,0.201-0.465,0.261-0.711c0.061-0.245,0.078-0.507,0.055-0.782
			c-0.013-0.181-0.075-0.349-0.189-0.505c-0.114-0.155-0.249-0.278-0.405-0.368c-0.156-0.091-0.321-0.132-0.495-0.126
			S465.656,298.741,465.512,298.896z"/>
		<path d="M471.425,296.718c-0.042,0.108-0.081,0.21-0.117,0.306c-0.036,0.097-0.045,0.189-0.027,0.279
			c0.019,0.09,0.105,0.178,0.262,0.261c0.312-0.144,0.645-0.254,0.999-0.333c0.354-0.077,0.734-0.099,1.143-0.062
			c0.155,0.096,0.282,0.207,0.378,0.333s0.18,0.261,0.252,0.405c0.072,0.144,0.141,0.288,0.207,0.432
			c0.065,0.144,0.146,0.282,0.243,0.414c0.372-0.576,0.866-1.008,1.484-1.296s1.27-0.348,1.953-0.18
			c0.252,0.252,0.438,0.546,0.559,0.882c0.119,0.336,0.194,0.689,0.225,1.062s0.03,0.747,0,1.125s-0.069,0.735-0.117,1.071
			c-0.18,0.216-0.309,0.489-0.387,0.819s-0.171,0.642-0.279,0.936c-0.107,0.294-0.267,0.534-0.477,0.72
			c-0.21,0.187-0.531,0.243-0.963,0.171c0.18-0.407,0.387-0.818,0.621-1.232c0.233-0.414,0.438-0.837,0.611-1.27
			c0.174-0.432,0.291-0.879,0.352-1.341c0.06-0.462,0.012-0.951-0.145-1.467c-0.071-0.06-0.129-0.138-0.171-0.234
			c-0.042-0.096-0.087-0.188-0.135-0.278c-0.048-0.091-0.108-0.165-0.18-0.226c-0.072-0.06-0.169-0.084-0.288-0.071
			c-0.408-0.024-0.738,0.057-0.99,0.242c-0.252,0.187-0.465,0.421-0.639,0.702c-0.175,0.282-0.327,0.582-0.459,0.9
			c-0.133,0.318-0.288,0.591-0.469,0.818c0.048,0.192,0.036,0.379-0.035,0.559c-0.072,0.18-0.172,0.357-0.298,0.531
			s-0.258,0.348-0.396,0.521s-0.243,0.352-0.315,0.531c-0.18,0.036-0.297,0.012-0.351-0.072s-0.081-0.186-0.081-0.306
			c0-0.132,0.021-0.268,0.063-0.405c0.041-0.138,0.068-0.236,0.08-0.297c0.564-0.792,0.786-1.716,0.666-2.772
			c-0.228-0.407-0.543-0.659-0.944-0.756c-0.402-0.096-0.789-0.065-1.161,0.09c-0.36,0.156-0.663,0.36-0.909,0.612
			s-0.456,0.531-0.63,0.837c-0.174,0.307-0.315,0.63-0.423,0.973c-0.108,0.342-0.204,0.681-0.288,1.017
			c-0.132,0.061-0.234,0.051-0.306-0.027c-0.072-0.077-0.156-0.152-0.252-0.225c0.167-0.456,0.306-0.927,0.413-1.413
			c0.108-0.486,0.229-0.966,0.36-1.44c0.132-0.474,0.291-0.936,0.478-1.386c0.186-0.45,0.435-0.86,0.746-1.232l0.145,0.414
			C471.47,296.491,471.467,296.611,471.425,296.718z"/>
		<path d="M486.716,291.642c0.144,0.276,0.177,0.592,0.099,0.945c-0.078,0.354-0.223,0.735-0.432,1.143
			c-0.21,0.408-0.466,0.835-0.766,1.278c-0.3,0.444-0.609,0.897-0.927,1.359c-0.318,0.462-0.618,0.924-0.9,1.386
			c-0.281,0.462-0.507,0.915-0.675,1.359c-0.132,0.348-0.288,0.647-0.468,0.899s-0.372,0.498-0.576,0.738s-0.408,0.492-0.612,0.756
			s-0.396,0.576-0.575,0.937h-0.721c0.528-0.948,1.038-1.908,1.53-2.881c0.492-0.972,0.996-1.923,1.512-2.853
			c0.517-0.93,1.06-1.827,1.629-2.691C485.405,293.155,486.032,292.363,486.716,291.642z"/>
		<path d="M492.71,297.708c0.108,0.252,0.207,0.507,0.297,0.765c0.091,0.259,0.153,0.517,0.189,0.774s0.023,0.516-0.036,0.773
			c-0.061,0.259-0.187,0.514-0.378,0.766c-0.072,0.144-0.159,0.255-0.261,0.333c-0.103,0.078-0.207,0.138-0.315,0.18
			c-0.107,0.042-0.222,0.081-0.342,0.117s-0.234,0.09-0.342,0.162c-0.108,0.072-0.216,0.093-0.324,0.062
			c-0.108-0.029-0.207-0.06-0.297-0.09c-0.09-0.029-0.171-0.036-0.243-0.018c-0.072,0.018-0.132,0.104-0.18,0.261
			c0.132,0.54,0.255,1.059,0.369,1.557c0.113,0.498,0.213,0.996,0.297,1.494s0.146,1.005,0.188,1.521
			c0.042,0.516,0.057,1.056,0.045,1.62c-0.144,0.071-0.255,0.081-0.333,0.026c-0.078-0.054-0.138-0.135-0.18-0.243
			c-0.042-0.107-0.081-0.222-0.117-0.342s-0.078-0.216-0.126-0.288c-0.048-0.983-0.174-1.982-0.378-2.997
			c-0.204-1.014-0.378-2.03-0.521-3.051c-0.133-0.216-0.265-0.456-0.396-0.72s-0.231-0.537-0.297-0.819
			c-0.066-0.281-0.087-0.561-0.063-0.837c0.024-0.275,0.12-0.54,0.288-0.792c0.145-0.36,0.372-0.618,0.685-0.773
			c0.312-0.156,0.642-0.234,0.99-0.234c0.359,0,0.701,0.072,1.025,0.216C492.278,297.277,492.53,297.468,492.71,297.708z
			 M490.172,297.816c-0.036,0.085-0.087,0.178-0.152,0.279c-0.066,0.103-0.126,0.213-0.181,0.333
			c-0.054,0.12-0.09,0.243-0.107,0.369c-0.019,0.126,0.003,0.261,0.062,0.405c0.061,0.168,0.142,0.336,0.243,0.504
			s0.222,0.324,0.36,0.468c0.138,0.145,0.294,0.258,0.468,0.342s0.363,0.12,0.567,0.108c0.18-0.012,0.326-0.06,0.44-0.145
			c0.114-0.083,0.204-0.186,0.271-0.306c0.065-0.12,0.123-0.255,0.171-0.405c0.048-0.149,0.102-0.297,0.162-0.44
			c-0.049-0.324-0.153-0.564-0.315-0.72c-0.162-0.156-0.351-0.273-0.567-0.352c-0.216-0.078-0.449-0.141-0.701-0.188
			S490.4,297.936,490.172,297.816z"/>
		<path d="M500.162,302.659c-0.168,0.132-0.315,0.228-0.441,0.288c-0.126,0.06-0.219,0.102-0.278,0.126h-0.019h-0.036
			c-0.107-0.217-0.275-0.337-0.504-0.36c-0.228-0.023-0.477-0.018-0.747,0.018c-0.27,0.036-0.53,0.069-0.782,0.1
			c-0.252,0.029-0.457-0.009-0.612-0.117c-0.312-0.168-0.573-0.387-0.783-0.657c-0.21-0.27-0.369-0.561-0.477-0.873
			c-0.108-0.312-0.175-0.636-0.198-0.972c-0.024-0.336-0.012-0.654,0.036-0.954c0.119-0.275,0.281-0.516,0.485-0.72
			s0.475-0.36,0.811-0.468c0.516-0.048,0.933-0.003,1.251,0.135c0.317,0.138,0.633,0.351,0.945,0.639
			c0-0.132-0.01-0.306-0.027-0.521c-0.019-0.217-0.054-0.447-0.108-0.693c-0.054-0.246-0.132-0.489-0.233-0.729
			c-0.103-0.239-0.243-0.449-0.423-0.63c-0.085-0.071-0.22-0.132-0.405-0.18c-0.187-0.048-0.385-0.093-0.594-0.135
			c-0.211-0.042-0.408-0.084-0.595-0.126c-0.186-0.042-0.321-0.093-0.404-0.153c-0.097-0.084-0.13-0.174-0.1-0.27
			c0.03-0.097,0.105-0.184,0.226-0.262c0.119-0.077,0.272-0.135,0.459-0.171c0.186-0.036,0.387-0.036,0.603,0
			c0.216,0,0.429,0.033,0.639,0.1c0.21,0.065,0.411,0.162,0.604,0.288c0.191,0.126,0.362,0.285,0.513,0.477
			c0.15,0.192,0.262,0.414,0.333,0.666c-0.012,0.288,0.003,0.684,0.045,1.188c0.042,0.505,0.103,1.048,0.181,1.63
			c0.077,0.582,0.174,1.167,0.288,1.755C499.924,301.662,500.042,302.19,500.162,302.659z M495.95,300.157
			c0.072,0.191,0.162,0.411,0.27,0.656c0.108,0.246,0.243,0.472,0.405,0.676s0.354,0.366,0.576,0.485
			c0.222,0.12,0.488,0.156,0.801,0.108c0-0.048,0.072-0.081,0.216-0.099c0.145-0.019,0.24-0.039,0.288-0.063l0.216-0.432
			c0.061-0.229,0.1-0.414,0.117-0.559c0.019-0.144,0.019-0.27,0-0.378c-0.018-0.107-0.051-0.222-0.099-0.342
			s-0.108-0.276-0.18-0.468c-0.205-0.3-0.492-0.522-0.864-0.666c-0.372-0.145-0.744-0.204-1.116-0.181
			c-0.204,0.133-0.345,0.315-0.423,0.55C496.079,299.679,496.009,299.916,495.95,300.157z"/>
		<path d="M506.858,296.538c0,0.552,0.026,1.119,0.081,1.701c0.054,0.582,0.081,1.167,0.081,1.755c0,0.576-0.055,1.14-0.162,1.691
			c-0.108,0.553-0.318,1.08-0.63,1.584c-0.372,0.408-0.783,0.699-1.233,0.873s-0.934,0.31-1.449,0.405
			c-0.408-0.108-0.801-0.288-1.179-0.54s-0.705-0.546-0.981-0.882c-0.06-0.264-0.149-0.543-0.27-0.837s-0.216-0.591-0.288-0.892
			c-0.072-0.3-0.087-0.594-0.045-0.882s0.201-0.558,0.477-0.81l0.126,0.144c-0.107,0.084-0.156,0.159-0.144,0.226
			c0.012,0.065,0.042,0.132,0.09,0.197c0.048,0.066,0.096,0.136,0.144,0.207c0.048,0.072,0.055,0.156,0.019,0.252
			c0.048,0.276,0.093,0.553,0.135,0.828c0.042,0.276,0.108,0.54,0.198,0.792s0.219,0.48,0.387,0.685s0.402,0.365,0.702,0.485
			c0.204,0.072,0.417,0.142,0.639,0.207c0.223,0.066,0.441,0.1,0.657,0.1c0.228,0,0.447-0.039,0.657-0.117s0.405-0.225,0.585-0.441
			c0.191-0.144,0.339-0.312,0.441-0.504c0.102-0.191,0.177-0.393,0.225-0.603s0.075-0.429,0.081-0.657
			c0.006-0.228,0.009-0.45,0.009-0.666c0-0.3,0.036-0.594,0.108-0.882c-0.12-0.18-0.234-0.249-0.343-0.207
			c-0.107,0.042-0.216,0.117-0.323,0.225c-0.108,0.108-0.22,0.223-0.333,0.343c-0.114,0.12-0.237,0.174-0.369,0.161
			c-0.42,0.072-0.801,0.033-1.144-0.116c-0.342-0.15-0.597-0.411-0.765-0.783c-0.024-0.24-0.072-0.465-0.144-0.675
			c-0.072-0.21-0.108-0.424-0.108-0.64c0-0.144,0.042-0.294,0.126-0.45c0.144-0.252,0.315-0.494,0.513-0.729
			c0.198-0.234,0.414-0.441,0.648-0.621s0.486-0.321,0.756-0.423c0.271-0.102,0.555-0.146,0.855-0.135
			c0.096,0.048,0.207,0.081,0.333,0.099c0.126,0.019,0.245,0.042,0.359,0.072s0.216,0.078,0.307,0.144
			C506.777,296.289,506.834,296.394,506.858,296.538z M504.427,296.934c-0.084,0.133-0.18,0.262-0.288,0.388
			c-0.107,0.126-0.207,0.252-0.297,0.378s-0.165,0.261-0.225,0.404c-0.061,0.145-0.084,0.307-0.072,0.486
			c0.036,0.097,0.063,0.189,0.081,0.279c0.019,0.09,0.039,0.177,0.063,0.261c0.023,0.084,0.06,0.165,0.107,0.243
			s0.126,0.146,0.234,0.207c0.191,0.084,0.356,0.102,0.495,0.054c0.138-0.048,0.264-0.117,0.378-0.207
			c0.113-0.09,0.23-0.177,0.351-0.261s0.264-0.114,0.433-0.09c0.491-0.492,0.701-1.08,0.63-1.765
			c-0.097-0.216-0.214-0.359-0.352-0.432s-0.291-0.108-0.459-0.108s-0.345,0.021-0.53,0.063
			C504.791,296.877,504.608,296.911,504.427,296.934z"/>
		<path d="M512.924,296.485c0.108,0.155,0.159,0.303,0.153,0.44c-0.007,0.139-0.039,0.273-0.1,0.405
			c-0.06,0.132-0.129,0.264-0.207,0.396c-0.078,0.133-0.141,0.271-0.188,0.414c-0.204,0.097-0.411,0.204-0.621,0.324
			s-0.423,0.223-0.639,0.306c-0.217,0.085-0.444,0.136-0.685,0.153s-0.485-0.027-0.738-0.135c-0.023,0.252-0.057,0.525-0.099,0.818
			c-0.042,0.295-0.054,0.583-0.036,0.864c0.019,0.282,0.081,0.543,0.189,0.783c0.107,0.24,0.3,0.426,0.576,0.558l0.144,0.145
			l2.395-0.774c-0.013,0.288-0.1,0.495-0.262,0.621s-0.354,0.22-0.576,0.279c-0.222,0.061-0.453,0.107-0.692,0.144
			c-0.24,0.036-0.444,0.108-0.612,0.217c-0.3,0.107-0.552,0.135-0.756,0.08c-0.204-0.054-0.375-0.158-0.513-0.314
			c-0.139-0.156-0.246-0.339-0.324-0.549s-0.147-0.417-0.207-0.621l0.144-2.25c-0.107-0.048-0.177-0.108-0.207-0.18
			c-0.029-0.072-0.045-0.15-0.045-0.234s0.006-0.171,0.019-0.261c0.012-0.091,0.006-0.171-0.019-0.243
			c0.156-0.132,0.285-0.291,0.388-0.478c0.102-0.186,0.203-0.375,0.306-0.566c0.102-0.192,0.213-0.375,0.333-0.549
			s0.282-0.315,0.486-0.424c0.191,0.036,0.41,0.039,0.656,0.01c0.246-0.03,0.483-0.042,0.711-0.036
			c0.229,0.006,0.436,0.051,0.621,0.135C512.705,296.046,512.84,296.22,512.924,296.485z M511.16,296.485
			c-0.156,0.048-0.276,0.12-0.36,0.216s-0.153,0.204-0.207,0.323c-0.054,0.12-0.102,0.246-0.144,0.379
			c-0.043,0.132-0.1,0.252-0.171,0.359l1.529,0.108l0.145-0.738c-0.084-0.06-0.15-0.126-0.198-0.198
			c-0.048-0.071-0.099-0.138-0.153-0.197c-0.054-0.061-0.114-0.114-0.18-0.162C511.354,296.527,511.267,296.496,511.16,296.485z"/>
		<path d="M516.937,293.659c0.204,0.708,0.375,1.452,0.514,2.231c0.138,0.78,0.255,1.566,0.351,2.358s0.171,1.578,0.225,2.357
			c0.055,0.78,0.1,1.524,0.136,2.232c-0.036,0.084-0.097,0.129-0.181,0.135s-0.162,0.009-0.233,0.009
			c-0.24-0.155-0.381-0.342-0.423-0.558c-0.043-0.216-0.052-0.44-0.027-0.675c0.023-0.234,0.054-0.468,0.09-0.702
			s0.006-0.447-0.09-0.639c-0.144-0.648-0.268-1.314-0.369-1.998c-0.102-0.685-0.207-1.362-0.314-2.034
			c-0.108-0.672-0.237-1.326-0.388-1.962s-0.345-1.23-0.585-1.782c-0.107-0.048-0.162-0.114-0.162-0.198
			c0-0.107,0.042-0.219,0.126-0.333c0.084-0.113,0.126-0.225,0.126-0.333c0.265,0.013,0.453,0.088,0.567,0.226
			s0.201,0.306,0.261,0.504c0.061,0.198,0.111,0.402,0.153,0.612S516.83,293.502,516.937,293.659z"/>
		<path d="M522.338,295.584c-0.085,0.72-0.16,1.35-0.226,1.89c-0.066,0.54-0.126,1.054-0.18,1.539
			c-0.055,0.486-0.1,0.979-0.135,1.477c-0.036,0.498-0.066,1.059-0.091,1.683l-0.575,0.126c-0.085-0.684-0.156-1.269-0.217-1.755
			c-0.06-0.486-0.09-0.951-0.09-1.396c0-0.455,0.039-0.92,0.117-1.395c0.078-0.474,0.207-1.022,0.387-1.647
			c0.048-0.096,0.12-0.158,0.216-0.188c0.097-0.03,0.192-0.054,0.288-0.072c0.097-0.018,0.192-0.042,0.288-0.072
			C522.217,295.744,522.289,295.68,522.338,295.584z M522.895,292.632c0.144,0.36,0.123,0.705-0.063,1.035
			c-0.186,0.33-0.429,0.609-0.729,0.837c-0.097,0.072-0.171,0.103-0.226,0.09c-0.054-0.012-0.099-0.042-0.135-0.09
			s-0.071-0.104-0.107-0.171c-0.036-0.065-0.078-0.117-0.126-0.153c-0.169-0.336-0.159-0.647,0.026-0.936
			c0.187-0.288,0.411-0.54,0.675-0.756c0.048-0.012,0.111-0.027,0.189-0.045c0.078-0.019,0.15-0.024,0.216-0.019
			c0.066,0.006,0.126,0.024,0.181,0.054C522.85,292.509,522.883,292.56,522.895,292.632z"/>
		<path d="M526.279,297.6c0.18-0.275,0.417-0.438,0.711-0.485s0.597-0.072,0.909-0.072c0.18,0.036,0.371,0.072,0.576,0.108
			c0.203,0.035,0.396,0.09,0.575,0.161c0.181,0.072,0.345,0.172,0.495,0.298s0.268,0.297,0.352,0.513
			c0.107,0.624,0.149,1.209,0.126,1.755c-0.024,0.546-0.03,1.119-0.019,1.719c-0.156,0.168-0.252,0.378-0.288,0.63
			s-0.081,0.495-0.135,0.729c-0.054,0.233-0.15,0.426-0.288,0.576c-0.138,0.149-0.381,0.207-0.729,0.171
			c-0.084-0.433-0.061-0.853,0.071-1.26c0.132-0.408,0.276-0.819,0.433-1.233c0.155-0.414,0.272-0.84,0.351-1.278
			c0.078-0.438,0.015-0.909-0.188-1.413c-0.192-0.216-0.396-0.396-0.612-0.54c-0.216-0.144-0.456-0.233-0.72-0.27
			c-0.408,0-0.735,0.066-0.981,0.198s-0.432,0.306-0.558,0.521s-0.204,0.472-0.234,0.766s-0.042,0.6-0.036,0.918
			c0.006,0.317,0.024,0.645,0.055,0.98c0.029,0.336,0.045,0.654,0.045,0.954c0,0.384-0.061,0.714-0.181,0.99
			c-0.312-0.192-0.507-0.456-0.585-0.792s-0.114-0.696-0.107-1.08c0.006-0.384,0.021-0.766,0.045-1.144
			c0.023-0.378-0.019-0.704-0.126-0.98c0.144-0.192,0.194-0.417,0.152-0.675s-0.084-0.507-0.126-0.747s-0.045-0.459-0.009-0.657
			s0.204-0.339,0.504-0.423c0.108,0.06,0.174,0.138,0.198,0.233c0.024,0.097,0.039,0.195,0.045,0.298
			c0.006,0.102,0.024,0.2,0.054,0.297C526.084,297.462,526.159,297.54,526.279,297.6z"/>
		<path d="M536.863,298.842c0.12,0.252,0.198,0.507,0.234,0.765c0.036,0.259,0.036,0.514,0,0.766s-0.1,0.498-0.189,0.738
			s-0.195,0.468-0.314,0.684c-0.24,0.24-0.498,0.483-0.774,0.729c-0.276,0.246-0.567,0.444-0.873,0.595
			c-0.306,0.149-0.621,0.236-0.945,0.261c-0.323,0.023-0.647-0.066-0.972-0.27c-0.384-0.276-0.627-0.676-0.729-1.197
			c-0.103-0.522-0.13-1.047-0.081-1.575c-0.013-0.18,0.015-0.363,0.081-0.549c0.065-0.187,0.155-0.363,0.27-0.531
			s0.24-0.327,0.378-0.477c0.138-0.15,0.267-0.273,0.387-0.369c0.217,0.107,0.405,0.107,0.567,0
			c0.162-0.108,0.321-0.234,0.477-0.378c0.156-0.145,0.321-0.262,0.495-0.352s0.381-0.057,0.621,0.1
			c0.264,0.035,0.516,0.168,0.756,0.396C536.491,298.405,536.695,298.626,536.863,298.842z M534.775,298.896
			c-0.097,0.181-0.201,0.363-0.315,0.55c-0.114,0.186-0.177,0.368-0.188,0.549c0,0.132-0.027,0.246-0.081,0.342
			s-0.12,0.168-0.198,0.216s-0.162,0.066-0.252,0.054c-0.09-0.012-0.177-0.065-0.261-0.161c-0.024-0.156-0.058-0.33-0.1-0.522
			c-0.042-0.191-0.021-0.366,0.063-0.521l-0.234,0.035c-0.359,0.589-0.534,1.213-0.521,1.872c0.084,0.097,0.155,0.21,0.216,0.343
			c0.06,0.132,0.126,0.261,0.198,0.387s0.155,0.24,0.252,0.342c0.096,0.103,0.222,0.171,0.378,0.207
			c0.216,0.061,0.462,0.069,0.738,0.027c0.275-0.042,0.516-0.129,0.72-0.262c0.144-0.18,0.291-0.368,0.44-0.566
			c0.15-0.198,0.282-0.411,0.396-0.64c0.114-0.228,0.201-0.465,0.261-0.711c0.061-0.245,0.078-0.507,0.055-0.782
			c-0.013-0.181-0.075-0.349-0.189-0.505c-0.114-0.155-0.249-0.278-0.405-0.368c-0.156-0.091-0.321-0.132-0.495-0.126
			S534.919,298.741,534.775,298.896z"/>
		<path d="M543.864,302.659c-0.168,0.132-0.314,0.228-0.44,0.288c-0.126,0.06-0.219,0.102-0.279,0.126h-0.018h-0.036
			c-0.108-0.217-0.276-0.337-0.504-0.36c-0.229-0.023-0.478-0.018-0.747,0.018c-0.271,0.036-0.531,0.069-0.783,0.1
			c-0.252,0.029-0.456-0.009-0.612-0.117c-0.312-0.168-0.573-0.387-0.782-0.657c-0.211-0.27-0.369-0.561-0.478-0.873
			c-0.107-0.312-0.174-0.636-0.198-0.972c-0.023-0.336-0.012-0.654,0.036-0.954c0.12-0.275,0.282-0.516,0.486-0.72
			s0.474-0.36,0.81-0.468c0.517-0.048,0.934-0.003,1.251,0.135c0.318,0.138,0.633,0.351,0.945,0.639
			c0-0.132-0.009-0.306-0.027-0.521c-0.018-0.217-0.054-0.447-0.107-0.693s-0.133-0.489-0.234-0.729
			c-0.102-0.239-0.243-0.449-0.423-0.63c-0.084-0.071-0.219-0.132-0.405-0.18c-0.186-0.048-0.384-0.093-0.594-0.135
			s-0.408-0.084-0.594-0.126c-0.187-0.042-0.321-0.093-0.405-0.153c-0.096-0.084-0.129-0.174-0.099-0.27
			c0.029-0.097,0.104-0.184,0.225-0.262c0.12-0.077,0.272-0.135,0.459-0.171s0.387-0.036,0.604,0c0.216,0,0.429,0.033,0.639,0.1
			c0.21,0.065,0.411,0.162,0.603,0.288c0.192,0.126,0.363,0.285,0.514,0.477c0.149,0.192,0.261,0.414,0.333,0.666
			c-0.013,0.288,0.003,0.684,0.045,1.188c0.042,0.505,0.102,1.048,0.18,1.63s0.174,1.167,0.288,1.755
			S543.744,302.19,543.864,302.659z M539.652,300.157c0.072,0.191,0.162,0.411,0.271,0.656c0.107,0.246,0.243,0.472,0.405,0.676
			c0.161,0.204,0.354,0.366,0.575,0.485c0.223,0.12,0.489,0.156,0.802,0.108c0-0.048,0.071-0.081,0.216-0.099
			c0.144-0.019,0.239-0.039,0.288-0.063l0.216-0.432c0.06-0.229,0.099-0.414,0.117-0.559c0.018-0.144,0.018-0.27,0-0.378
			c-0.019-0.107-0.052-0.222-0.1-0.342s-0.107-0.276-0.18-0.468c-0.204-0.3-0.492-0.522-0.864-0.666
			c-0.372-0.145-0.744-0.204-1.115-0.181c-0.205,0.133-0.346,0.315-0.424,0.55C539.781,299.679,539.713,299.916,539.652,300.157z"/>
		<path d="M547.258,295.08c-0.03,0.12,0.021,0.21,0.153,0.27c0.371-0.144,0.765-0.252,1.179-0.323
			c0.414-0.072,0.819-0.094,1.215-0.063c0.396,0.03,0.774,0.12,1.134,0.271c0.36,0.149,0.678,0.375,0.954,0.675
			c0.06,0.071,0.075,0.135,0.045,0.188c-0.03,0.055-0.065,0.103-0.107,0.145c-0.043,0.042-0.069,0.09-0.081,0.144
			c-0.013,0.054,0.036,0.117,0.144,0.189c-0.24,0.096-0.465,0.126-0.675,0.09s-0.414-0.1-0.612-0.189s-0.393-0.191-0.585-0.306
			s-0.39-0.207-0.594-0.279c-0.204-0.071-0.417-0.104-0.639-0.099c-0.223,0.006-0.459,0.081-0.711,0.225
			c-0.301,0.061-0.534,0.162-0.702,0.307c-0.169,0.144-0.297,0.312-0.388,0.504c-0.09,0.191-0.149,0.404-0.18,0.639
			s-0.061,0.468-0.09,0.702c-0.03,0.234-0.069,0.462-0.117,0.684c-0.048,0.223-0.132,0.423-0.252,0.604
			c-0.024,0.24-0.027,0.489-0.009,0.747c0.018,0.258,0.015,0.51-0.009,0.756c-0.024,0.246-0.091,0.468-0.198,0.666
			c-0.108,0.198-0.306,0.357-0.594,0.477c-0.156-0.432-0.214-0.854-0.171-1.269c0.041-0.414,0.116-0.831,0.225-1.251
			s0.21-0.846,0.306-1.278c0.096-0.432,0.114-0.888,0.055-1.368c0.132-0.18,0.207-0.404,0.225-0.675
			c0.018-0.27,0.042-0.531,0.072-0.783c0.029-0.252,0.093-0.477,0.188-0.675s0.288-0.32,0.576-0.369l0.252,0.271
			C547.291,294.834,547.287,294.96,547.258,295.08z"/>
		<path d="M554.484,294.613c0,0.084,0.048,0.138,0.144,0.161c0,0.12-0.003,0.265-0.009,0.433s-0.009,0.342-0.009,0.521
			c0,0.181,0.009,0.36,0.027,0.54c0.018,0.181,0.057,0.343,0.116,0.486c0.229,0.144,0.478,0.198,0.747,0.162
			c0.271-0.036,0.531-0.078,0.783-0.126s0.489-0.051,0.711-0.009s0.399,0.213,0.531,0.513c-0.216,0.12-0.453,0.198-0.711,0.234
			c-0.259,0.035-0.52,0.071-0.783,0.107s-0.516,0.084-0.756,0.145c-0.24,0.06-0.456,0.18-0.648,0.359
			c0.036,0.385,0.066,0.771,0.091,1.161c0.023,0.391,0.077,0.769,0.161,1.134c0.084,0.366,0.223,0.711,0.414,1.035
			c0.192,0.324,0.475,0.606,0.847,0.846c0.336,0.133,0.656,0.214,0.963,0.243c0.306,0.03,0.611,0.027,0.918-0.009
			c0.306-0.036,0.611-0.09,0.918-0.162c0.306-0.072,0.627-0.144,0.963-0.216c0.023,0.324-0.024,0.563-0.145,0.72
			s-0.272,0.279-0.459,0.369c-0.186,0.09-0.387,0.171-0.603,0.243s-0.408,0.18-0.576,0.324c-0.504,0.096-1.008,0.062-1.512-0.1
			c-0.504-0.161-0.984-0.356-1.44-0.585c-0.432-0.695-0.782-1.442-1.053-2.24c-0.27-0.798-0.333-1.677-0.188-2.638
			c-0.205-0.18-0.421-0.27-0.648-0.27c-0.229,0-0.456,0.024-0.684,0.072c-0.229,0.048-0.457,0.071-0.685,0.071
			c-0.24,0-0.456-0.09-0.647-0.27c0.071-0.276,0.194-0.474,0.368-0.594s0.375-0.195,0.604-0.226
			c0.228-0.029,0.465-0.039,0.711-0.027c0.246,0.013,0.471,0.013,0.675,0c0.12-0.323,0.18-0.713,0.18-1.17
			c0-0.468-0.06-0.863-0.18-1.188c0.156-0.06,0.294-0.138,0.414-0.234c0.12-0.096,0.271-0.113,0.45-0.054V294.613z"/>
	</g>
</g>
</svg>
