<?xml version="1.0" encoding="utf-8"?>
<!-- Generator: Adobe Illustrator 17.0.0, SVG Export Plug-In . SVG Version: 6.00 Build 0)  -->
<!DOCTYPE svg PUBLIC "-//W3C//DTD SVG 1.1//EN" "http://www.w3.org/Graphics/SVG/1.1/DTD/svg11.dtd">
<svg version="1.1" id="Слой_1" xmlns="http://www.w3.org/2000/svg" xmlns:xlink="http://www.w3.org/1999/xlink" x="0px" y="0px"
	 width="28.5px" height="27.875px" viewBox="405.695 283.765 28.5 27.875" enable-background="new 405.695 283.765 28.5 27.875"
	 xml:space="preserve">
<g>
	<path d="M423.505,295.309c-1.033-1.278-2.205-1.766-3.816-1.759c-0.19,0.001-0.376,0.098-0.534,0.239
		c-1.797,0.5-3.187,2.329-3.456,4.112c-0.366,2.421,2.013,3.973,4.096,4.272c2.5,0.358,4.009-1.249,4.552-3.52
		C424.62,297.517,424.226,296.202,423.505,295.309z M422.553,299.992c-0.499,0.976-1.723,0.833-2.613,0.706
		c-1.307-0.187-2.543-1.174-2.827-2.473c-0.331-1.514,1.193-3.081,2.626-3.163c0.053-0.003,0.1-0.026,0.149-0.042
		c1.521,0.214,2.692,1.145,3.085,2.8C423.147,298.549,422.879,299.355,422.553,299.992z"/>
	<path d="M432.325,293.157c-0.011-1.693,0.784-4.296-0.017-5.944c-1.215-2.502-7.534-1.505-9.649-1.554
		c-4.553-0.106-9.125,0.177-13.665,0.5c-0.768,0.055-1.18,1.475-0.178,1.404c6.805-0.483,13.552-0.555,20.364-0.193
		c2.027,0.108,2.046,3.713,1.763,6.558c-1.286-0.122-2.574-0.04-3.864-0.026c-0.386-1.063-1.066-1.945-2.143-2.436
		c-3.224-1.471-7.473-0.646-9.646,2.153c-0.056,0.072-0.082,0.135-0.111,0.198c-1.768-0.179-3.636-0.064-5.407-0.064
		c-0.359,0-0.705,0.338-0.865,0.684c0.017-1.995,0.098-3.988,0.241-5.784c0.08-1.002-1.333-0.519-1.394,0.245
		c-0.355,4.445-0.284,9.25,0.05,13.715c0.181,2.411-0.203,6.896,2.875,7.14c4.392,0.348,9.067,0.354,13.476,0.303
		c1.975-0.023,6.325,0.785,7.61-1.258c0.571-0.908,0.268-2.522,0.185-3.507c-0.198-2.341-0.386-4.922-0.252-7.276
		C431.794,296.381,432.336,294.813,432.325,293.157z M416.062,294.803c0.123-0.196,0.15-0.36,0.13-0.498
		c0.081-0.055,0.157-0.122,0.222-0.206c1.62-2.086,4.855-2.197,7.192-1.513c2.893,0.846,2.633,5.088,2.077,7.292
		c-0.933,3.693-5.817,4.383-8.556,2.429C414.491,300.426,414.367,297.505,416.062,294.803z M428.8,308.451
		c-1.821-0.012-3.67,0.178-5.498,0.2c-3.331,0.039-6.667-0.312-10-0.369c-1.887-0.032-3.141,0.165-3.537-2.116
		c-0.322-1.856-0.539-3.779-0.68-5.657c-0.128-1.701-0.18-3.584-0.177-5.478c0.068,0.081,0.166,0.142,0.337,0.142
		c1.705,0,3.5-0.104,5.212,0.048c-0.67,1.36-0.975,2.768-0.922,4.347c0.073,2.147,1.393,3.13,2.986,4.266
		c3.039,2.168,8.3,0.756,9.928-2.559c0.736-1.497,1.245-3.88,0.962-5.971c1.111-0.029,2.22-0.068,3.327,0.069
		c0.01,0.001,0.02-0.004,0.031-0.003c-0.107,0.771-0.214,1.395-0.265,1.718c-0.398,2.501-0.137,5.058-0.032,7.587
		C430.534,306.086,430.712,308.464,428.8,308.451z"/>
	<path d="M429.211,288.56c-0.97,0.213-1.929,0.136-2.914,0.126h-0.403c-0.736,0-1.435,1.42-0.526,1.42h0.403
		c1.098,0.011,2.179,0.095,3.261-0.142C429.771,289.802,430.186,288.346,429.211,288.56z"/>
</g>
</svg>
