<?xml version="1.0" encoding="utf-8"?>
<!-- Generator: Adobe Illustrator 17.0.0, SVG Export Plug-In . SVG Version: 6.00 Build 0)  -->
<!DOCTYPE svg PUBLIC "-//W3C//DTD SVG 1.1//EN" "http://www.w3.org/Graphics/SVG/1.1/DTD/svg11.dtd">
<svg version="1.1" id="Слой_1" xmlns="http://www.w3.org/2000/svg" xmlns:xlink="http://www.w3.org/1999/xlink" x="0px" y="0px"
	 width="240.259px" height="35px" viewBox="293.445 281.14 240.259 35" enable-background="new 293.445 281.14 240.259 35"
	 xml:space="preserve">
<g>
	<path d="M313.505,296.309c-1.033-1.278-2.205-1.766-3.816-1.759c-0.19,0.001-0.376,0.098-0.534,0.239
		c-1.797,0.5-3.187,2.329-3.456,4.112c-0.366,2.421,2.013,3.973,4.096,4.272c2.5,0.358,4.009-1.249,4.552-3.52
		C314.62,298.517,314.226,297.202,313.505,296.309z M312.553,300.992c-0.499,0.976-1.723,0.833-2.613,0.706
		c-1.307-0.187-2.543-1.174-2.827-2.473c-0.331-1.514,1.193-3.081,2.626-3.163c0.053-0.003,0.1-0.026,0.149-0.042
		c1.521,0.214,2.692,1.145,3.085,2.8C313.147,299.549,312.879,300.355,312.553,300.992z"/>
	<path d="M322.325,294.157c-0.011-1.693,0.784-4.296-0.017-5.944c-1.215-2.502-7.534-1.505-9.649-1.554
		c-4.553-0.106-9.125,0.177-13.665,0.5c-0.768,0.055-1.18,1.475-0.178,1.404c6.805-0.483,13.552-0.555,20.364-0.193
		c2.027,0.108,2.046,3.713,1.763,6.558c-1.286-0.122-2.574-0.04-3.864-0.026c-0.386-1.063-1.066-1.945-2.143-2.436
		c-3.224-1.471-7.473-0.646-9.646,2.153c-0.056,0.072-0.082,0.135-0.111,0.198c-1.768-0.179-3.636-0.064-5.407-0.064
		c-0.359,0-0.705,0.338-0.865,0.684c0.017-1.995,0.098-3.988,0.241-5.784c0.08-1.002-1.333-0.519-1.394,0.245
		c-0.355,4.445-0.284,9.25,0.05,13.715c0.181,2.411-0.203,6.896,2.875,7.14c4.392,0.348,9.067,0.354,13.476,0.303
		c1.975-0.023,6.325,0.785,7.61-1.258c0.571-0.908,0.268-2.522,0.185-3.507c-0.198-2.341-0.386-4.922-0.252-7.276
		C321.794,297.381,322.336,295.813,322.325,294.157z M306.062,295.803c0.123-0.196,0.15-0.36,0.13-0.498
		c0.081-0.055,0.157-0.122,0.222-0.206c1.62-2.086,4.855-2.197,7.192-1.513c2.893,0.846,2.633,5.088,2.077,7.292
		c-0.933,3.693-5.817,4.383-8.556,2.429C304.491,301.426,304.367,298.505,306.062,295.803z M318.8,309.451
		c-1.821-0.012-3.67,0.178-5.498,0.2c-3.331,0.039-6.667-0.312-10-0.369c-1.887-0.032-3.141,0.165-3.537-2.116
		c-0.322-1.856-0.539-3.779-0.68-5.657c-0.128-1.701-0.18-3.584-0.177-5.478c0.068,0.081,0.166,0.142,0.337,0.142
		c1.705,0,3.5-0.104,5.212,0.048c-0.67,1.36-0.975,2.768-0.922,4.347c0.073,2.147,1.393,3.13,2.986,4.266
		c3.039,2.168,8.3,0.756,9.928-2.559c0.736-1.497,1.245-3.88,0.962-5.971c1.111-0.029,2.22-0.068,3.327,0.069
		c0.01,0.001,0.02-0.004,0.031-0.003c-0.107,0.771-0.214,1.395-0.265,1.718c-0.398,2.501-0.137,5.058-0.032,7.587
		C320.534,307.086,320.712,309.464,318.8,309.451z"/>
	<path d="M319.211,289.56c-0.97,0.213-1.929,0.136-2.914,0.126h-0.403c-0.736,0-1.435,1.42-0.526,1.42h0.403
		c1.098,0.011,2.179,0.095,3.261-0.142C319.771,290.802,320.186,289.346,319.211,289.56z"/>
</g>
<g>
	<rect x="334.707" y="292.791" fill="none" width="198.997" height="14.115"/>
	<g enable-background="new    ">
		<path d="M336.705,293.358c0.12,0.636,0.18,1.332,0.18,2.088c0,0.36-0.016,0.711-0.045,1.053c-0.03,0.343-0.075,0.676-0.135,0.999
			c0.084,0.145,0.174,0.207,0.27,0.189c0.096-0.018,0.198-0.063,0.306-0.135c0.108-0.072,0.219-0.147,0.333-0.226
			c0.114-0.077,0.23-0.11,0.351-0.099c0.36,0.048,0.663,0.18,0.909,0.396c0.246,0.217,0.465,0.472,0.657,0.766
			c0.191,0.294,0.36,0.609,0.504,0.944c0.144,0.337,0.288,0.648,0.432,0.937c-0.024,0.096-0.03,0.204-0.018,0.324
			c0.012,0.12,0.021,0.233,0.027,0.342c0.006,0.108-0.012,0.204-0.054,0.288s-0.129,0.138-0.261,0.162
			c-0.084-0.336-0.18-0.685-0.288-1.044c-0.108-0.36-0.249-0.702-0.423-1.026c-0.174-0.324-0.39-0.608-0.648-0.854
			c-0.258-0.246-0.585-0.424-0.981-0.531c-0.264,0.191-0.471,0.417-0.621,0.675c-0.15,0.258-0.261,0.534-0.333,0.828
			c-0.072,0.294-0.117,0.597-0.135,0.909c-0.018,0.312-0.027,0.624-0.027,0.936c0,0.42-0.036,0.828-0.108,1.224
			c-0.204-0.012-0.331-0.068-0.378-0.171c-0.048-0.102-0.072-0.219-0.072-0.351s0.003-0.271,0.009-0.414
			c0.006-0.144-0.04-0.258-0.135-0.342c0.108-1.272,0.162-2.514,0.162-3.727c0-1.199-0.054-2.441-0.162-3.726
			c0.06-0.036,0.114-0.084,0.162-0.144c0.048-0.061,0.096-0.117,0.144-0.172c0.048-0.054,0.102-0.093,0.162-0.116
			C336.549,293.316,336.621,293.322,336.705,293.358z"/>
		<path d="M343.941,294.798c0,0.084,0.048,0.138,0.144,0.161c0,0.12-0.003,0.265-0.009,0.433c-0.006,0.168-0.009,0.342-0.009,0.521
			c0,0.181,0.009,0.36,0.027,0.54c0.018,0.181,0.057,0.343,0.117,0.486c0.228,0.144,0.477,0.198,0.747,0.162
			s0.531-0.078,0.783-0.126s0.489-0.051,0.711-0.009c0.222,0.042,0.399,0.213,0.531,0.513c-0.216,0.12-0.453,0.198-0.711,0.234
			c-0.258,0.035-0.519,0.071-0.783,0.107c-0.264,0.036-0.516,0.084-0.756,0.145c-0.24,0.06-0.456,0.18-0.648,0.359
			c0.036,0.385,0.066,0.771,0.09,1.161c0.023,0.391,0.078,0.769,0.162,1.134c0.084,0.366,0.222,0.711,0.414,1.035
			s0.474,0.606,0.846,0.846c0.336,0.133,0.657,0.214,0.963,0.243c0.306,0.03,0.612,0.027,0.918-0.009s0.612-0.09,0.918-0.162
			s0.627-0.144,0.963-0.216c0.024,0.324-0.024,0.563-0.144,0.72s-0.273,0.279-0.459,0.369s-0.387,0.171-0.603,0.243
			c-0.216,0.072-0.408,0.18-0.576,0.324c-0.504,0.096-1.008,0.062-1.512-0.1c-0.504-0.161-0.984-0.356-1.44-0.585
			c-0.432-0.695-0.783-1.442-1.053-2.24s-0.333-1.677-0.189-2.638c-0.205-0.18-0.42-0.27-0.648-0.27s-0.456,0.024-0.684,0.072
			c-0.229,0.048-0.457,0.071-0.684,0.071c-0.24,0-0.457-0.09-0.648-0.27c0.072-0.276,0.195-0.474,0.369-0.594
			s0.375-0.195,0.603-0.226c0.228-0.029,0.465-0.039,0.711-0.027c0.246,0.013,0.471,0.013,0.675,0c0.12-0.323,0.18-0.713,0.18-1.17
			c0-0.468-0.06-0.863-0.18-1.188c0.156-0.06,0.294-0.138,0.414-0.234c0.12-0.096,0.27-0.113,0.45-0.054V294.798z"/>
		<path d="M352.094,294.798c0,0.084,0.048,0.138,0.144,0.161c0,0.12-0.003,0.265-0.009,0.433c-0.006,0.168-0.009,0.342-0.009,0.521
			c0,0.181,0.009,0.36,0.027,0.54c0.018,0.181,0.057,0.343,0.117,0.486c0.228,0.144,0.477,0.198,0.747,0.162
			s0.531-0.078,0.783-0.126s0.489-0.051,0.711-0.009c0.222,0.042,0.399,0.213,0.531,0.513c-0.216,0.12-0.453,0.198-0.711,0.234
			c-0.258,0.035-0.519,0.071-0.783,0.107c-0.264,0.036-0.516,0.084-0.756,0.145c-0.24,0.06-0.456,0.18-0.648,0.359
			c0.036,0.385,0.066,0.771,0.09,1.161c0.023,0.391,0.078,0.769,0.162,1.134c0.084,0.366,0.222,0.711,0.414,1.035
			s0.474,0.606,0.846,0.846c0.336,0.133,0.657,0.214,0.963,0.243c0.306,0.03,0.612,0.027,0.918-0.009s0.612-0.09,0.918-0.162
			s0.627-0.144,0.963-0.216c0.024,0.324-0.024,0.563-0.144,0.72s-0.273,0.279-0.459,0.369s-0.387,0.171-0.603,0.243
			c-0.216,0.072-0.408,0.18-0.576,0.324c-0.504,0.096-1.008,0.062-1.512-0.1c-0.504-0.161-0.984-0.356-1.44-0.585
			c-0.432-0.695-0.783-1.442-1.053-2.24s-0.333-1.677-0.189-2.638c-0.205-0.18-0.42-0.27-0.648-0.27s-0.456,0.024-0.684,0.072
			c-0.229,0.048-0.457,0.071-0.684,0.071c-0.24,0-0.457-0.09-0.648-0.27c0.072-0.276,0.195-0.474,0.369-0.594
			s0.375-0.195,0.603-0.226c0.228-0.029,0.465-0.039,0.711-0.027c0.246,0.013,0.471,0.013,0.675,0c0.12-0.323,0.18-0.713,0.18-1.17
			c0-0.468-0.06-0.863-0.18-1.188c0.156-0.06,0.294-0.138,0.414-0.234c0.12-0.096,0.27-0.113,0.45-0.054V294.798z"/>
		<path d="M361.472,297.894c0.108,0.252,0.207,0.507,0.297,0.765c0.09,0.259,0.153,0.517,0.189,0.774
			c0.036,0.258,0.024,0.516-0.036,0.773c-0.061,0.259-0.187,0.514-0.378,0.766c-0.072,0.144-0.16,0.255-0.261,0.333
			c-0.102,0.078-0.207,0.138-0.315,0.18s-0.222,0.081-0.342,0.117s-0.234,0.09-0.342,0.162s-0.216,0.093-0.324,0.062
			c-0.108-0.029-0.207-0.06-0.297-0.09c-0.09-0.029-0.171-0.036-0.243-0.018c-0.072,0.018-0.132,0.104-0.18,0.261
			c0.132,0.54,0.255,1.059,0.369,1.557c0.114,0.498,0.213,0.996,0.297,1.494s0.147,1.005,0.189,1.521
			c0.042,0.516,0.057,1.056,0.045,1.62c-0.144,0.071-0.255,0.081-0.333,0.026c-0.078-0.054-0.138-0.135-0.18-0.243
			c-0.042-0.107-0.081-0.222-0.117-0.342s-0.078-0.216-0.126-0.288c-0.048-0.983-0.174-1.982-0.378-2.997
			c-0.204-1.014-0.378-2.03-0.522-3.051c-0.132-0.216-0.264-0.456-0.396-0.72c-0.132-0.264-0.231-0.537-0.297-0.819
			c-0.066-0.281-0.087-0.561-0.063-0.837c0.024-0.275,0.12-0.54,0.288-0.792c0.144-0.36,0.372-0.618,0.684-0.773
			c0.312-0.156,0.642-0.234,0.99-0.234c0.36,0,0.702,0.072,1.026,0.216C361.04,297.462,361.292,297.654,361.472,297.894z
			 M358.934,298.001c-0.036,0.085-0.087,0.178-0.153,0.279c-0.066,0.103-0.126,0.213-0.18,0.333c-0.054,0.12-0.09,0.243-0.108,0.369
			s0.003,0.261,0.063,0.405c0.06,0.168,0.141,0.336,0.243,0.504c0.102,0.168,0.222,0.324,0.36,0.468
			c0.138,0.145,0.294,0.258,0.468,0.342s0.363,0.12,0.567,0.108c0.18-0.012,0.327-0.06,0.441-0.145
			c0.114-0.083,0.204-0.186,0.27-0.306c0.066-0.12,0.123-0.255,0.171-0.405c0.048-0.149,0.102-0.297,0.162-0.44
			c-0.048-0.324-0.153-0.564-0.315-0.72c-0.162-0.156-0.351-0.273-0.567-0.352c-0.216-0.078-0.45-0.141-0.702-0.188
			S359.162,298.121,358.934,298.001z"/>
		<path d="M367.97,299.55c-0.048,0.168-0.129,0.297-0.243,0.387c-0.114,0.09-0.24,0.15-0.378,0.18
			c-0.138,0.03-0.276,0.033-0.414,0.009c-0.138-0.023-0.249-0.071-0.333-0.144c-0.144-0.06-0.243-0.162-0.297-0.306
			c-0.054-0.145-0.078-0.3-0.072-0.469c0.006-0.167,0.03-0.335,0.072-0.504c0.042-0.168,0.087-0.306,0.135-0.414
			c0.204-0.252,0.438-0.387,0.702-0.404c0.264-0.019,0.495,0.045,0.693,0.188c0.198,0.145,0.324,0.349,0.378,0.612
			C368.267,298.95,368.186,299.238,367.97,299.55z M368.33,294.798c0.024,0.18,0.033,0.362,0.027,0.549
			c-0.006,0.186-0.036,0.354-0.09,0.504c-0.054,0.15-0.135,0.27-0.243,0.36c-0.108,0.09-0.252,0.123-0.432,0.099
			c-0.205,0-0.402-0.078-0.594-0.234c-0.192-0.155-0.324-0.342-0.396-0.558c-0.072-0.204-0.084-0.381-0.036-0.531
			c0.048-0.149,0.123-0.279,0.225-0.387c0.102-0.108,0.216-0.198,0.342-0.271c0.126-0.071,0.237-0.126,0.333-0.162
			c0.072,0.072,0.147,0.12,0.225,0.145s0.156,0.054,0.234,0.09s0.153,0.081,0.225,0.135
			C368.222,294.591,368.282,294.678,368.33,294.798z"/>
		<path d="M378.554,291.828c0.144,0.276,0.177,0.592,0.099,0.945c-0.079,0.354-0.223,0.735-0.432,1.143
			c-0.21,0.408-0.465,0.835-0.765,1.278c-0.3,0.444-0.609,0.897-0.927,1.359c-0.318,0.462-0.618,0.924-0.9,1.386
			c-0.282,0.462-0.507,0.915-0.675,1.359c-0.132,0.348-0.288,0.647-0.468,0.899c-0.18,0.252-0.373,0.498-0.576,0.738
			c-0.204,0.24-0.408,0.492-0.612,0.756s-0.396,0.576-0.576,0.937h-0.72c0.528-0.948,1.038-1.908,1.53-2.881
			c0.492-0.972,0.996-1.923,1.512-2.853s1.059-1.827,1.629-2.691C377.242,293.34,377.87,292.548,378.554,291.828z"/>
		<path d="M386.834,291.828c0.144,0.276,0.177,0.592,0.099,0.945c-0.079,0.354-0.223,0.735-0.432,1.143
			c-0.21,0.408-0.465,0.835-0.765,1.278c-0.3,0.444-0.609,0.897-0.927,1.359c-0.318,0.462-0.618,0.924-0.9,1.386
			c-0.282,0.462-0.507,0.915-0.675,1.359c-0.132,0.348-0.288,0.647-0.468,0.899c-0.18,0.252-0.373,0.498-0.576,0.738
			c-0.204,0.24-0.408,0.492-0.612,0.756s-0.396,0.576-0.576,0.937h-0.72c0.528-0.948,1.038-1.908,1.53-2.881
			c0.492-0.972,0.996-1.923,1.512-2.853s1.059-1.827,1.629-2.691C385.522,293.34,386.15,292.548,386.834,291.828z"/>
		<path d="M391.046,295.77c-0.084,0.72-0.16,1.35-0.225,1.89c-0.066,0.54-0.126,1.054-0.18,1.539
			c-0.054,0.486-0.099,0.979-0.135,1.477c-0.036,0.498-0.066,1.059-0.09,1.683l-0.576,0.126c-0.084-0.684-0.156-1.269-0.216-1.755
			s-0.09-0.951-0.09-1.396c0-0.455,0.039-0.92,0.117-1.395c0.078-0.474,0.207-1.022,0.387-1.647c0.048-0.096,0.12-0.158,0.216-0.188
			c0.096-0.03,0.192-0.054,0.288-0.072c0.096-0.018,0.192-0.042,0.288-0.072C390.926,295.929,390.998,295.866,391.046,295.77z
			 M391.604,292.818c0.144,0.36,0.123,0.705-0.063,1.035s-0.429,0.609-0.729,0.837c-0.096,0.072-0.171,0.103-0.225,0.09
			c-0.054-0.012-0.099-0.042-0.135-0.09s-0.072-0.104-0.108-0.171c-0.036-0.065-0.078-0.117-0.126-0.153
			c-0.168-0.336-0.159-0.647,0.027-0.936s0.411-0.54,0.675-0.756c0.048-0.012,0.111-0.027,0.189-0.045
			c0.078-0.019,0.15-0.024,0.216-0.019s0.126,0.024,0.18,0.054C391.559,292.695,391.592,292.745,391.604,292.818z"/>
		<path d="M394.987,297.786c0.18-0.275,0.417-0.438,0.711-0.485s0.597-0.072,0.909-0.072c0.18,0.036,0.372,0.072,0.576,0.108
			c0.204,0.035,0.396,0.09,0.576,0.161c0.18,0.072,0.345,0.172,0.495,0.298c0.15,0.126,0.267,0.297,0.351,0.513
			c0.108,0.624,0.15,1.209,0.126,1.755c-0.024,0.546-0.03,1.119-0.018,1.719c-0.156,0.168-0.252,0.378-0.288,0.63
			s-0.081,0.495-0.135,0.729c-0.054,0.233-0.15,0.426-0.288,0.576c-0.138,0.149-0.381,0.207-0.729,0.171
			c-0.084-0.433-0.06-0.853,0.072-1.26c0.132-0.408,0.276-0.819,0.432-1.233c0.156-0.414,0.273-0.84,0.351-1.278
			c0.078-0.438,0.015-0.909-0.189-1.413c-0.192-0.216-0.396-0.396-0.612-0.54c-0.216-0.144-0.456-0.233-0.72-0.27
			c-0.408,0-0.735,0.066-0.981,0.198c-0.246,0.132-0.432,0.306-0.558,0.521s-0.204,0.472-0.234,0.766
			c-0.03,0.294-0.042,0.6-0.036,0.918c0.006,0.317,0.024,0.645,0.054,0.98c0.03,0.336,0.045,0.654,0.045,0.954
			c0,0.384-0.06,0.714-0.18,0.99c-0.312-0.192-0.507-0.456-0.585-0.792s-0.114-0.696-0.108-1.08
			c0.006-0.384,0.021-0.766,0.045-1.144s-0.018-0.704-0.126-0.98c0.144-0.192,0.195-0.417,0.153-0.675s-0.084-0.507-0.126-0.747
			s-0.045-0.459-0.009-0.657s0.204-0.339,0.504-0.423c0.108,0.06,0.174,0.138,0.198,0.233c0.024,0.097,0.039,0.195,0.045,0.298
			c0.006,0.102,0.024,0.2,0.054,0.297C394.792,297.648,394.867,297.726,394.987,297.786z"/>
		<path d="M406.093,298.092c-0.012,0.071-0.015,0.152-0.009,0.242c0.006,0.091,0.009,0.175,0.009,0.253s-0.006,0.152-0.018,0.225
			c-0.012,0.072-0.048,0.132-0.108,0.18c-0.228-0.144-0.447-0.314-0.657-0.513s-0.426-0.375-0.648-0.531
			c-0.222-0.155-0.456-0.267-0.702-0.333c-0.246-0.065-0.513-0.039-0.801,0.081c-0.324,0.324-0.471,0.654-0.441,0.99
			c0.03,0.336,0.135,0.675,0.315,1.017c0.18,0.343,0.39,0.688,0.63,1.035c0.24,0.349,0.408,0.69,0.504,1.026l-0.108,1.638
			c-0.348,0.168-0.732,0.297-1.152,0.387c-0.42,0.091-0.828,0.058-1.224-0.099c-0.204-0.072-0.405-0.174-0.603-0.306
			c-0.198-0.133-0.384-0.279-0.558-0.441s-0.336-0.333-0.486-0.513c-0.15-0.181-0.279-0.348-0.387-0.504
			c0.252-0.072,0.495-0.069,0.729,0.009c0.234,0.078,0.462,0.183,0.684,0.314c0.222,0.133,0.444,0.268,0.666,0.405
			c0.222,0.139,0.453,0.237,0.693,0.297c0.204,0.072,0.369,0.048,0.495-0.071c0.126-0.12,0.261-0.246,0.405-0.379
			c0.048-0.323,0.021-0.633-0.081-0.927c-0.102-0.294-0.231-0.578-0.387-0.854s-0.318-0.546-0.486-0.811
			c-0.168-0.264-0.297-0.53-0.387-0.801c-0.09-0.27-0.12-0.549-0.09-0.837c0.03-0.288,0.165-0.588,0.405-0.9
			c0.24-0.42,0.54-0.684,0.9-0.792c0.36-0.107,0.729-0.11,1.107-0.009c0.378,0.103,0.729,0.291,1.053,0.567
			C405.679,297.414,405.925,297.732,406.093,298.092z"/>
		<path d="M410.413,294.798c0,0.084,0.048,0.138,0.144,0.161c0,0.12-0.003,0.265-0.009,0.433c-0.006,0.168-0.009,0.342-0.009,0.521
			c0,0.181,0.009,0.36,0.027,0.54c0.018,0.181,0.057,0.343,0.117,0.486c0.228,0.144,0.477,0.198,0.747,0.162
			s0.531-0.078,0.783-0.126s0.489-0.051,0.711-0.009c0.222,0.042,0.399,0.213,0.531,0.513c-0.216,0.12-0.453,0.198-0.711,0.234
			c-0.258,0.035-0.519,0.071-0.783,0.107c-0.264,0.036-0.516,0.084-0.756,0.145c-0.24,0.06-0.456,0.18-0.648,0.359
			c0.036,0.385,0.066,0.771,0.09,1.161c0.023,0.391,0.078,0.769,0.162,1.134c0.084,0.366,0.222,0.711,0.414,1.035
			s0.474,0.606,0.846,0.846c0.336,0.133,0.657,0.214,0.963,0.243c0.306,0.03,0.612,0.027,0.918-0.009s0.612-0.09,0.918-0.162
			s0.627-0.144,0.963-0.216c0.024,0.324-0.024,0.563-0.144,0.72s-0.273,0.279-0.459,0.369s-0.387,0.171-0.603,0.243
			c-0.216,0.072-0.408,0.18-0.576,0.324c-0.504,0.096-1.008,0.062-1.512-0.1c-0.504-0.161-0.984-0.356-1.44-0.585
			c-0.432-0.695-0.783-1.442-1.053-2.24s-0.333-1.677-0.189-2.638c-0.205-0.18-0.42-0.27-0.648-0.27s-0.456,0.024-0.684,0.072
			c-0.229,0.048-0.457,0.071-0.684,0.071c-0.24,0-0.457-0.09-0.648-0.27c0.072-0.276,0.195-0.474,0.369-0.594
			s0.375-0.195,0.603-0.226c0.228-0.029,0.465-0.039,0.711-0.027c0.246,0.013,0.471,0.013,0.675,0c0.12-0.323,0.18-0.713,0.18-1.17
			c0-0.468-0.06-0.863-0.18-1.188c0.156-0.06,0.294-0.138,0.414-0.234c0.12-0.096,0.27-0.113,0.45-0.054V294.798z"/>
		<path d="M421.195,302.844c-0.168,0.132-0.315,0.228-0.441,0.288c-0.126,0.06-0.219,0.102-0.279,0.126h-0.018h-0.036
			c-0.108-0.217-0.276-0.337-0.504-0.36s-0.477-0.018-0.747,0.018c-0.27,0.036-0.531,0.069-0.783,0.1
			c-0.252,0.029-0.457-0.009-0.612-0.117c-0.312-0.168-0.573-0.387-0.783-0.657c-0.21-0.27-0.369-0.561-0.477-0.873
			c-0.108-0.312-0.174-0.636-0.198-0.972s-0.012-0.654,0.036-0.954c0.12-0.275,0.282-0.516,0.486-0.72s0.474-0.36,0.81-0.468
			c0.516-0.048,0.933-0.003,1.251,0.135s0.633,0.351,0.945,0.639c0-0.132-0.009-0.306-0.027-0.521
			c-0.018-0.217-0.054-0.447-0.108-0.693c-0.054-0.246-0.132-0.489-0.234-0.729c-0.102-0.239-0.243-0.449-0.423-0.63
			c-0.084-0.071-0.219-0.132-0.405-0.18s-0.384-0.093-0.594-0.135c-0.21-0.042-0.408-0.084-0.594-0.126s-0.321-0.093-0.405-0.153
			c-0.096-0.084-0.129-0.174-0.099-0.27c0.03-0.097,0.105-0.184,0.225-0.262c0.12-0.077,0.272-0.135,0.459-0.171
			c0.186-0.036,0.387-0.036,0.603,0c0.216,0,0.429,0.033,0.639,0.1c0.21,0.065,0.411,0.162,0.603,0.288s0.363,0.285,0.513,0.477
			c0.15,0.192,0.261,0.414,0.333,0.666c-0.012,0.288,0.003,0.684,0.045,1.188c0.042,0.505,0.102,1.048,0.18,1.63
			c0.078,0.582,0.174,1.167,0.288,1.755C420.958,301.848,421.074,302.375,421.195,302.844z M416.983,300.342
			c0.072,0.191,0.162,0.411,0.27,0.656c0.108,0.246,0.243,0.472,0.405,0.676c0.162,0.204,0.354,0.366,0.576,0.485
			c0.222,0.12,0.489,0.156,0.801,0.108c0-0.048,0.072-0.081,0.216-0.099c0.144-0.019,0.24-0.039,0.288-0.063l0.216-0.432
			c0.06-0.229,0.099-0.414,0.117-0.559c0.018-0.144,0.018-0.27,0-0.378c-0.018-0.107-0.051-0.222-0.099-0.342
			s-0.108-0.276-0.18-0.468c-0.205-0.3-0.492-0.522-0.864-0.666c-0.372-0.145-0.744-0.204-1.116-0.181
			c-0.205,0.133-0.345,0.315-0.423,0.55C417.112,299.865,417.043,300.102,416.983,300.342z"/>
		<path d="M427.891,296.724c0,0.552,0.026,1.119,0.081,1.701c0.054,0.582,0.081,1.167,0.081,1.755c0,0.576-0.055,1.14-0.162,1.691
			c-0.108,0.553-0.318,1.08-0.63,1.584c-0.372,0.408-0.783,0.699-1.233,0.873s-0.934,0.31-1.449,0.405
			c-0.408-0.108-0.801-0.288-1.179-0.54s-0.705-0.546-0.981-0.882c-0.06-0.264-0.149-0.543-0.27-0.837s-0.216-0.591-0.288-0.892
			c-0.072-0.3-0.087-0.594-0.045-0.882s0.201-0.558,0.477-0.81l0.126,0.144c-0.107,0.084-0.156,0.159-0.144,0.226
			c0.012,0.065,0.042,0.132,0.09,0.197c0.048,0.066,0.096,0.136,0.144,0.207c0.048,0.072,0.055,0.156,0.019,0.252
			c0.048,0.276,0.093,0.553,0.135,0.828c0.042,0.276,0.108,0.54,0.198,0.792s0.219,0.48,0.387,0.685s0.402,0.365,0.702,0.485
			c0.204,0.072,0.417,0.142,0.639,0.207c0.223,0.066,0.441,0.1,0.657,0.1c0.228,0,0.447-0.039,0.657-0.117s0.405-0.225,0.585-0.441
			c0.191-0.144,0.339-0.312,0.441-0.504c0.102-0.191,0.177-0.393,0.225-0.603s0.075-0.429,0.081-0.657
			c0.006-0.228,0.009-0.45,0.009-0.666c0-0.3,0.036-0.594,0.108-0.882c-0.12-0.18-0.234-0.249-0.343-0.207
			c-0.107,0.042-0.216,0.117-0.323,0.225c-0.108,0.108-0.22,0.223-0.333,0.343c-0.114,0.12-0.237,0.174-0.369,0.161
			c-0.42,0.072-0.801,0.033-1.144-0.116c-0.342-0.15-0.597-0.411-0.765-0.783c-0.024-0.24-0.072-0.465-0.144-0.675
			c-0.072-0.21-0.108-0.424-0.108-0.64c0-0.144,0.042-0.294,0.126-0.45c0.144-0.252,0.315-0.494,0.513-0.729
			c0.198-0.234,0.414-0.441,0.648-0.621s0.486-0.321,0.756-0.423c0.271-0.102,0.555-0.146,0.855-0.135
			c0.096,0.048,0.207,0.081,0.333,0.099c0.126,0.019,0.245,0.042,0.359,0.072s0.216,0.078,0.307,0.144
			C427.81,296.475,427.867,296.579,427.891,296.724z M425.461,297.12c-0.084,0.133-0.18,0.262-0.288,0.388
			c-0.107,0.126-0.207,0.252-0.297,0.378s-0.165,0.261-0.225,0.404c-0.061,0.145-0.084,0.307-0.072,0.486
			c0.036,0.097,0.063,0.189,0.081,0.279c0.019,0.09,0.039,0.177,0.063,0.261c0.023,0.084,0.06,0.165,0.107,0.243
			s0.126,0.146,0.234,0.207c0.191,0.084,0.356,0.102,0.495,0.054c0.138-0.048,0.264-0.117,0.378-0.207
			c0.113-0.09,0.23-0.177,0.351-0.261s0.264-0.114,0.433-0.09c0.491-0.492,0.701-1.08,0.63-1.765
			c-0.097-0.216-0.214-0.359-0.352-0.432s-0.291-0.108-0.459-0.108s-0.345,0.021-0.53,0.063
			C425.824,297.063,425.641,297.096,425.461,297.12z"/>
		<path d="M431.553,295.266c-0.029,0.12,0.021,0.21,0.153,0.27c0.372-0.144,0.765-0.252,1.179-0.323
			c0.414-0.072,0.819-0.094,1.216-0.063c0.396,0.03,0.773,0.12,1.134,0.271c0.359,0.149,0.678,0.375,0.954,0.675
			c0.06,0.071,0.074,0.135,0.045,0.188c-0.03,0.055-0.066,0.103-0.108,0.145s-0.069,0.09-0.081,0.144s0.036,0.117,0.145,0.189
			c-0.24,0.096-0.466,0.126-0.676,0.09s-0.414-0.1-0.611-0.189c-0.198-0.09-0.394-0.191-0.585-0.306
			c-0.192-0.114-0.391-0.207-0.595-0.279c-0.204-0.071-0.417-0.104-0.639-0.099s-0.459,0.081-0.711,0.225
			c-0.3,0.061-0.534,0.162-0.702,0.307c-0.168,0.144-0.297,0.312-0.387,0.504c-0.09,0.191-0.15,0.404-0.18,0.639
			c-0.03,0.234-0.061,0.468-0.091,0.702c-0.029,0.234-0.068,0.462-0.116,0.684c-0.049,0.223-0.133,0.423-0.252,0.604
			c-0.024,0.24-0.027,0.489-0.01,0.747c0.019,0.258,0.016,0.51-0.009,0.756s-0.09,0.468-0.198,0.666
			c-0.107,0.198-0.306,0.357-0.594,0.477c-0.156-0.432-0.213-0.854-0.171-1.269s0.117-0.831,0.225-1.251
			c0.108-0.42,0.21-0.846,0.307-1.278c0.096-0.432,0.113-0.888,0.054-1.368c0.132-0.18,0.207-0.404,0.225-0.675
			c0.019-0.27,0.042-0.531,0.072-0.783s0.093-0.477,0.189-0.675c0.096-0.198,0.288-0.32,0.576-0.369l0.252,0.271
			C431.587,295.02,431.584,295.146,431.553,295.266z"/>
		<path d="M441.408,302.844c-0.168,0.132-0.314,0.228-0.44,0.288c-0.126,0.06-0.219,0.102-0.279,0.126h-0.018h-0.036
			c-0.108-0.217-0.276-0.337-0.504-0.36c-0.229-0.023-0.478-0.018-0.747,0.018c-0.271,0.036-0.531,0.069-0.783,0.1
			c-0.252,0.029-0.456-0.009-0.612-0.117c-0.312-0.168-0.573-0.387-0.782-0.657c-0.211-0.27-0.369-0.561-0.478-0.873
			c-0.107-0.312-0.174-0.636-0.198-0.972c-0.023-0.336-0.012-0.654,0.036-0.954c0.12-0.275,0.282-0.516,0.486-0.72
			s0.474-0.36,0.81-0.468c0.517-0.048,0.934-0.003,1.251,0.135c0.318,0.138,0.633,0.351,0.945,0.639
			c0-0.132-0.009-0.306-0.027-0.521c-0.018-0.217-0.054-0.447-0.107-0.693s-0.133-0.489-0.234-0.729
			c-0.102-0.239-0.243-0.449-0.423-0.63c-0.084-0.071-0.219-0.132-0.405-0.18c-0.186-0.048-0.384-0.093-0.594-0.135
			s-0.408-0.084-0.594-0.126c-0.187-0.042-0.321-0.093-0.405-0.153c-0.096-0.084-0.129-0.174-0.099-0.27
			c0.029-0.097,0.104-0.184,0.225-0.262c0.12-0.077,0.272-0.135,0.459-0.171s0.387-0.036,0.604,0c0.216,0,0.429,0.033,0.639,0.1
			c0.21,0.065,0.411,0.162,0.603,0.288c0.192,0.126,0.363,0.285,0.514,0.477c0.149,0.192,0.261,0.414,0.333,0.666
			c-0.013,0.288,0.003,0.684,0.045,1.188c0.042,0.505,0.102,1.048,0.18,1.63s0.174,1.167,0.288,1.755
			S441.288,302.375,441.408,302.844z M437.196,300.342c0.072,0.191,0.162,0.411,0.271,0.656c0.107,0.246,0.243,0.472,0.405,0.676
			c0.161,0.204,0.354,0.366,0.575,0.485c0.223,0.12,0.489,0.156,0.802,0.108c0-0.048,0.071-0.081,0.216-0.099
			c0.144-0.019,0.239-0.039,0.288-0.063l0.216-0.432c0.06-0.229,0.099-0.414,0.117-0.559c0.018-0.144,0.018-0.27,0-0.378
			c-0.019-0.107-0.052-0.222-0.1-0.342s-0.107-0.276-0.18-0.468c-0.204-0.3-0.492-0.522-0.864-0.666
			c-0.372-0.145-0.744-0.204-1.115-0.181c-0.205,0.133-0.346,0.315-0.424,0.55C437.325,299.865,437.257,300.102,437.196,300.342z"/>
		<path d="M445.107,296.904c-0.042,0.108-0.081,0.21-0.117,0.306c-0.035,0.097-0.045,0.189-0.026,0.279
			c0.018,0.09,0.104,0.178,0.261,0.261c0.312-0.144,0.645-0.254,0.999-0.333c0.354-0.077,0.735-0.099,1.143-0.062
			c0.156,0.096,0.282,0.207,0.379,0.333c0.096,0.126,0.18,0.261,0.252,0.405c0.071,0.144,0.141,0.288,0.207,0.432
			c0.065,0.144,0.146,0.282,0.242,0.414c0.372-0.576,0.867-1.008,1.485-1.296s1.269-0.348,1.953-0.18
			c0.252,0.252,0.438,0.546,0.558,0.882s0.195,0.689,0.226,1.062c0.029,0.372,0.029,0.747,0,1.125
			c-0.03,0.378-0.069,0.735-0.117,1.071c-0.18,0.216-0.31,0.489-0.387,0.819c-0.078,0.33-0.172,0.642-0.279,0.936
			c-0.108,0.294-0.268,0.534-0.478,0.72c-0.21,0.187-0.53,0.243-0.963,0.171c0.181-0.407,0.388-0.818,0.621-1.232
			c0.234-0.414,0.438-0.837,0.612-1.27c0.174-0.432,0.291-0.879,0.351-1.341c0.061-0.462,0.012-0.951-0.144-1.467
			c-0.072-0.06-0.129-0.138-0.171-0.234c-0.042-0.096-0.088-0.188-0.135-0.278c-0.049-0.091-0.108-0.165-0.181-0.226
			c-0.072-0.06-0.168-0.084-0.288-0.071c-0.408-0.024-0.737,0.057-0.989,0.242c-0.253,0.187-0.466,0.421-0.64,0.702
			c-0.174,0.282-0.327,0.582-0.459,0.9s-0.288,0.591-0.468,0.818c0.048,0.192,0.036,0.379-0.036,0.559s-0.171,0.357-0.297,0.531
			s-0.258,0.348-0.396,0.521c-0.138,0.174-0.242,0.352-0.314,0.531c-0.18,0.036-0.297,0.012-0.352-0.072
			c-0.054-0.084-0.08-0.186-0.08-0.306c0-0.132,0.021-0.268,0.062-0.405s0.069-0.236,0.081-0.297
			c0.563-0.792,0.786-1.716,0.666-2.772c-0.229-0.407-0.543-0.659-0.945-0.756c-0.402-0.096-0.789-0.065-1.161,0.09
			c-0.359,0.156-0.663,0.36-0.908,0.612c-0.246,0.252-0.457,0.531-0.631,0.837c-0.174,0.307-0.314,0.63-0.423,0.973
			c-0.107,0.342-0.204,0.681-0.288,1.017c-0.132,0.061-0.233,0.051-0.306-0.027c-0.072-0.077-0.156-0.152-0.252-0.225
			c0.168-0.456,0.306-0.927,0.414-1.413s0.228-0.966,0.36-1.44c0.132-0.474,0.29-0.936,0.477-1.386
			c0.186-0.45,0.435-0.86,0.747-1.232l0.144,0.414C445.152,296.676,445.149,296.796,445.107,296.904z"/>
		<path d="M456.186,301.044c0.12,0.168,0.165,0.32,0.135,0.459c-0.03,0.138-0.099,0.264-0.207,0.378
			c-0.107,0.114-0.233,0.222-0.378,0.323c-0.144,0.103-0.27,0.207-0.378,0.315c-0.156,0.084-0.306,0.108-0.45,0.072
			c-0.144-0.036-0.281-0.103-0.414-0.198c-0.132-0.096-0.255-0.213-0.368-0.352c-0.114-0.138-0.22-0.267-0.315-0.387
			c0.024-0.107,0.051-0.222,0.081-0.342c0.029-0.12,0.072-0.228,0.126-0.324c0.054-0.096,0.126-0.174,0.216-0.233
			c0.09-0.061,0.207-0.091,0.352-0.091c0.312-0.048,0.588-0.023,0.827,0.072C455.652,300.834,455.91,300.936,456.186,301.044z"/>
		<path d="M461.712,298.2c-0.252,0.036-0.492,0.016-0.72-0.062s-0.447-0.138-0.657-0.181c-0.21-0.041-0.398-0.026-0.566,0.045
			c-0.168,0.072-0.312,0.276-0.433,0.612c-0.144,0.204-0.236,0.414-0.278,0.63c-0.043,0.216-0.055,0.433-0.036,0.648
			c0.018,0.216,0.048,0.438,0.09,0.666s0.069,0.456,0.081,0.684c0.216,0.192,0.423,0.285,0.621,0.279s0.398-0.045,0.603-0.117
			s0.411-0.146,0.621-0.225s0.435-0.093,0.675-0.045c-0.071,0.18-0.18,0.333-0.323,0.459c-0.145,0.126-0.307,0.23-0.486,0.314
			s-0.372,0.147-0.576,0.189s-0.396,0.062-0.576,0.062c-0.168,0.036-0.321,0.039-0.459,0.01c-0.138-0.03-0.264-0.084-0.378-0.162
			s-0.213-0.174-0.297-0.288s-0.15-0.226-0.198-0.333c-0.216-0.721-0.225-1.425-0.026-2.115c0.197-0.69,0.549-1.263,1.053-1.719
			c0.168-0.12,0.351-0.198,0.549-0.234s0.399-0.036,0.604,0c0.203,0.036,0.401,0.099,0.594,0.189
			c0.191,0.09,0.366,0.201,0.521,0.333V298.2z"/>
		<path d="M468.049,299.028c0.119,0.252,0.197,0.507,0.233,0.765c0.036,0.259,0.036,0.514,0,0.766s-0.099,0.498-0.188,0.738
			c-0.091,0.24-0.195,0.468-0.315,0.684c-0.24,0.24-0.498,0.483-0.773,0.729c-0.276,0.246-0.567,0.444-0.873,0.595
			c-0.307,0.149-0.621,0.236-0.945,0.261c-0.324,0.023-0.648-0.066-0.972-0.27c-0.385-0.276-0.628-0.676-0.729-1.197
			c-0.102-0.522-0.129-1.047-0.081-1.575c-0.012-0.18,0.015-0.363,0.081-0.549c0.065-0.187,0.156-0.363,0.271-0.531
			c0.113-0.168,0.239-0.327,0.378-0.477c0.138-0.15,0.267-0.273,0.387-0.369c0.216,0.107,0.405,0.107,0.567,0
			c0.161-0.108,0.32-0.234,0.477-0.378c0.156-0.145,0.321-0.262,0.495-0.352s0.381-0.057,0.621,0.1
			c0.264,0.035,0.516,0.168,0.756,0.396C467.676,298.59,467.88,298.812,468.049,299.028z M465.96,299.081
			c-0.096,0.181-0.2,0.363-0.314,0.55c-0.114,0.186-0.178,0.368-0.189,0.549c0,0.132-0.026,0.246-0.081,0.342
			c-0.054,0.096-0.12,0.168-0.197,0.216c-0.078,0.048-0.162,0.066-0.252,0.054c-0.091-0.012-0.178-0.065-0.262-0.161
			c-0.023-0.156-0.057-0.33-0.099-0.522c-0.042-0.191-0.021-0.366,0.062-0.521l-0.233,0.035c-0.36,0.589-0.534,1.213-0.522,1.872
			c0.084,0.097,0.156,0.21,0.217,0.343c0.06,0.132,0.126,0.261,0.197,0.387c0.072,0.126,0.156,0.24,0.252,0.342
			c0.097,0.103,0.223,0.171,0.378,0.207c0.217,0.061,0.462,0.069,0.738,0.027s0.516-0.129,0.72-0.262
			c0.145-0.18,0.291-0.368,0.441-0.566c0.149-0.198,0.282-0.411,0.396-0.64c0.114-0.228,0.201-0.465,0.262-0.711
			c0.06-0.245,0.078-0.507,0.054-0.782c-0.012-0.181-0.075-0.349-0.188-0.505c-0.114-0.155-0.25-0.278-0.405-0.368
			c-0.156-0.091-0.321-0.132-0.495-0.126S466.104,298.926,465.96,299.081z"/>
		<path d="M471.873,296.904c-0.042,0.108-0.081,0.21-0.117,0.306c-0.035,0.097-0.045,0.189-0.026,0.279
			c0.018,0.09,0.104,0.178,0.261,0.261c0.312-0.144,0.645-0.254,0.999-0.333c0.354-0.077,0.735-0.099,1.143-0.062
			c0.156,0.096,0.282,0.207,0.379,0.333c0.096,0.126,0.18,0.261,0.252,0.405c0.071,0.144,0.141,0.288,0.207,0.432
			c0.065,0.144,0.146,0.282,0.242,0.414c0.372-0.576,0.867-1.008,1.485-1.296s1.269-0.348,1.953-0.18
			c0.252,0.252,0.438,0.546,0.558,0.882s0.195,0.689,0.226,1.062c0.029,0.372,0.029,0.747,0,1.125
			c-0.03,0.378-0.069,0.735-0.117,1.071c-0.18,0.216-0.31,0.489-0.387,0.819c-0.078,0.33-0.172,0.642-0.279,0.936
			c-0.108,0.294-0.268,0.534-0.478,0.72c-0.21,0.187-0.53,0.243-0.963,0.171c0.181-0.407,0.388-0.818,0.621-1.232
			c0.234-0.414,0.438-0.837,0.612-1.27c0.174-0.432,0.291-0.879,0.351-1.341c0.061-0.462,0.012-0.951-0.144-1.467
			c-0.072-0.06-0.129-0.138-0.171-0.234c-0.042-0.096-0.088-0.188-0.135-0.278c-0.049-0.091-0.108-0.165-0.181-0.226
			c-0.072-0.06-0.168-0.084-0.288-0.071c-0.408-0.024-0.737,0.057-0.989,0.242c-0.253,0.187-0.466,0.421-0.64,0.702
			c-0.174,0.282-0.327,0.582-0.459,0.9s-0.288,0.591-0.468,0.818c0.048,0.192,0.036,0.379-0.036,0.559s-0.171,0.357-0.297,0.531
			s-0.258,0.348-0.396,0.521c-0.138,0.174-0.242,0.352-0.314,0.531c-0.18,0.036-0.297,0.012-0.352-0.072
			c-0.054-0.084-0.08-0.186-0.08-0.306c0-0.132,0.021-0.268,0.062-0.405s0.069-0.236,0.081-0.297
			c0.563-0.792,0.786-1.716,0.666-2.772c-0.229-0.407-0.543-0.659-0.945-0.756c-0.402-0.096-0.789-0.065-1.161,0.09
			c-0.359,0.156-0.663,0.36-0.908,0.612c-0.246,0.252-0.457,0.531-0.631,0.837c-0.174,0.307-0.314,0.63-0.423,0.973
			c-0.107,0.342-0.204,0.681-0.288,1.017c-0.132,0.061-0.233,0.051-0.306-0.027c-0.072-0.077-0.156-0.152-0.252-0.225
			c0.168-0.456,0.306-0.927,0.414-1.413s0.228-0.966,0.36-1.44c0.132-0.474,0.29-0.936,0.477-1.386
			c0.186-0.45,0.435-0.86,0.747-1.232l0.144,0.414C471.918,296.676,471.915,296.796,471.873,296.904z"/>
		<path d="M487.164,291.828c0.145,0.276,0.177,0.592,0.1,0.945c-0.079,0.354-0.223,0.735-0.433,1.143
			c-0.21,0.408-0.465,0.835-0.765,1.278c-0.301,0.444-0.609,0.897-0.927,1.359c-0.318,0.462-0.618,0.924-0.9,1.386
			s-0.507,0.915-0.675,1.359c-0.133,0.348-0.288,0.647-0.468,0.899c-0.181,0.252-0.373,0.498-0.576,0.738
			c-0.204,0.24-0.408,0.492-0.612,0.756s-0.396,0.576-0.576,0.937h-0.72c0.527-0.948,1.038-1.908,1.53-2.881
			c0.491-0.972,0.995-1.923,1.512-2.853c0.516-0.93,1.059-1.827,1.629-2.691C485.852,293.34,486.48,292.548,487.164,291.828z"/>
		<path d="M491.16,293.844c0.204,0.708,0.375,1.452,0.513,2.231c0.138,0.78,0.255,1.566,0.352,2.358
			c0.096,0.792,0.171,1.578,0.225,2.357c0.054,0.78,0.099,1.524,0.135,2.232c-0.036,0.084-0.096,0.129-0.18,0.135
			s-0.162,0.009-0.234,0.009c-0.24-0.155-0.381-0.342-0.423-0.558s-0.051-0.44-0.027-0.675c0.024-0.234,0.055-0.468,0.091-0.702
			c0.035-0.234,0.006-0.447-0.091-0.639c-0.144-0.648-0.267-1.314-0.368-1.998c-0.103-0.685-0.207-1.362-0.315-2.034
			s-0.237-1.326-0.387-1.962c-0.15-0.636-0.346-1.23-0.585-1.782c-0.108-0.048-0.162-0.114-0.162-0.198
			c0-0.107,0.042-0.219,0.126-0.333c0.084-0.113,0.126-0.225,0.126-0.333c0.264,0.013,0.453,0.088,0.566,0.226
			c0.114,0.138,0.201,0.306,0.262,0.504c0.06,0.198,0.11,0.402,0.152,0.612S491.051,293.688,491.16,293.844z"/>
		<path d="M496.559,295.77c-0.084,0.72-0.159,1.35-0.225,1.89c-0.066,0.54-0.126,1.054-0.181,1.539
			c-0.054,0.486-0.099,0.979-0.135,1.477s-0.066,1.059-0.09,1.683l-0.576,0.126c-0.084-0.684-0.156-1.269-0.216-1.755
			c-0.061-0.486-0.09-0.951-0.09-1.396c0-0.455,0.038-0.92,0.117-1.395c0.077-0.474,0.206-1.022,0.387-1.647
			c0.048-0.096,0.12-0.158,0.216-0.188s0.191-0.054,0.288-0.072c0.096-0.018,0.191-0.042,0.288-0.072
			C496.439,295.929,496.511,295.866,496.559,295.77z M497.117,292.818c0.145,0.36,0.123,0.705-0.062,1.035
			c-0.187,0.33-0.43,0.609-0.729,0.837c-0.096,0.072-0.171,0.103-0.225,0.09c-0.054-0.012-0.099-0.042-0.135-0.09
			s-0.072-0.104-0.108-0.171c-0.036-0.065-0.078-0.117-0.126-0.153c-0.168-0.336-0.159-0.647,0.027-0.936
			c0.186-0.288,0.411-0.54,0.675-0.756c0.048-0.012,0.11-0.027,0.189-0.045c0.077-0.019,0.149-0.024,0.216-0.019
			c0.065,0.006,0.126,0.024,0.18,0.054C497.072,292.695,497.105,292.745,497.117,292.818z"/>
		<path d="M500.502,297.786c0.18-0.275,0.417-0.438,0.711-0.485s0.597-0.072,0.909-0.072c0.18,0.036,0.371,0.072,0.576,0.108
			c0.203,0.035,0.396,0.09,0.575,0.161c0.181,0.072,0.345,0.172,0.495,0.298s0.268,0.297,0.352,0.513
			c0.107,0.624,0.149,1.209,0.126,1.755c-0.024,0.546-0.03,1.119-0.019,1.719c-0.156,0.168-0.252,0.378-0.288,0.63
			s-0.081,0.495-0.135,0.729c-0.054,0.233-0.15,0.426-0.288,0.576c-0.138,0.149-0.381,0.207-0.729,0.171
			c-0.084-0.433-0.061-0.853,0.071-1.26c0.132-0.408,0.276-0.819,0.433-1.233c0.155-0.414,0.272-0.84,0.351-1.278
			c0.078-0.438,0.015-0.909-0.188-1.413c-0.192-0.216-0.396-0.396-0.612-0.54c-0.216-0.144-0.456-0.233-0.72-0.27
			c-0.408,0-0.735,0.066-0.981,0.198s-0.432,0.306-0.558,0.521s-0.204,0.472-0.234,0.766s-0.042,0.6-0.036,0.918
			c0.006,0.317,0.024,0.645,0.055,0.98c0.029,0.336,0.045,0.654,0.045,0.954c0,0.384-0.061,0.714-0.181,0.99
			c-0.312-0.192-0.507-0.456-0.585-0.792s-0.114-0.696-0.107-1.08c0.006-0.384,0.021-0.766,0.045-1.144
			c0.023-0.378-0.019-0.704-0.126-0.98c0.144-0.192,0.194-0.417,0.152-0.675s-0.084-0.507-0.126-0.747s-0.045-0.459-0.009-0.657
			s0.204-0.339,0.504-0.423c0.108,0.06,0.174,0.138,0.198,0.233c0.024,0.097,0.039,0.195,0.045,0.298
			c0.006,0.102,0.024,0.2,0.054,0.297C500.306,297.648,500.382,297.726,500.502,297.786z"/>
		<path d="M511.086,299.028c0.119,0.252,0.197,0.507,0.233,0.765c0.036,0.259,0.036,0.514,0,0.766s-0.099,0.498-0.188,0.738
			c-0.091,0.24-0.195,0.468-0.315,0.684c-0.24,0.24-0.498,0.483-0.773,0.729c-0.276,0.246-0.567,0.444-0.873,0.595
			c-0.307,0.149-0.621,0.236-0.945,0.261c-0.324,0.023-0.648-0.066-0.972-0.27c-0.385-0.276-0.628-0.676-0.729-1.197
			c-0.102-0.522-0.129-1.047-0.081-1.575c-0.012-0.18,0.015-0.363,0.081-0.549c0.065-0.187,0.156-0.363,0.271-0.531
			c0.113-0.168,0.239-0.327,0.378-0.477c0.138-0.15,0.267-0.273,0.387-0.369c0.216,0.107,0.405,0.107,0.567,0
			c0.161-0.108,0.32-0.234,0.477-0.378c0.156-0.145,0.321-0.262,0.495-0.352s0.381-0.057,0.621,0.1
			c0.264,0.035,0.516,0.168,0.756,0.396C510.714,298.59,510.917,298.812,511.086,299.028z M508.997,299.081
			c-0.096,0.181-0.2,0.363-0.314,0.55c-0.114,0.186-0.178,0.368-0.189,0.549c0,0.132-0.026,0.246-0.081,0.342
			c-0.054,0.096-0.12,0.168-0.197,0.216c-0.078,0.048-0.162,0.066-0.252,0.054c-0.091-0.012-0.178-0.065-0.262-0.161
			c-0.023-0.156-0.057-0.33-0.099-0.522c-0.042-0.191-0.021-0.366,0.062-0.521l-0.233,0.035c-0.36,0.589-0.534,1.213-0.522,1.872
			c0.084,0.097,0.156,0.21,0.217,0.343c0.06,0.132,0.126,0.261,0.197,0.387c0.072,0.126,0.156,0.24,0.252,0.342
			c0.097,0.103,0.223,0.171,0.378,0.207c0.217,0.061,0.462,0.069,0.738,0.027s0.516-0.129,0.72-0.262
			c0.145-0.18,0.291-0.368,0.441-0.566c0.149-0.198,0.282-0.411,0.396-0.64c0.114-0.228,0.201-0.465,0.262-0.711
			c0.06-0.245,0.078-0.507,0.054-0.782c-0.012-0.181-0.075-0.349-0.188-0.505c-0.114-0.155-0.25-0.278-0.405-0.368
			c-0.156-0.091-0.321-0.132-0.495-0.126S509.141,298.926,508.997,299.081z"/>
		<path d="M514.603,295.266c-0.029,0.12,0.021,0.21,0.153,0.27c0.372-0.144,0.765-0.252,1.179-0.323
			c0.414-0.072,0.819-0.094,1.216-0.063c0.396,0.03,0.773,0.12,1.134,0.271c0.359,0.149,0.678,0.375,0.954,0.675
			c0.06,0.071,0.074,0.135,0.045,0.188c-0.03,0.055-0.066,0.103-0.108,0.145s-0.069,0.09-0.081,0.144s0.036,0.117,0.145,0.189
			c-0.24,0.096-0.466,0.126-0.676,0.09s-0.414-0.1-0.611-0.189c-0.198-0.09-0.394-0.191-0.585-0.306
			c-0.192-0.114-0.391-0.207-0.595-0.279c-0.204-0.071-0.417-0.104-0.639-0.099s-0.459,0.081-0.711,0.225
			c-0.3,0.061-0.534,0.162-0.702,0.307c-0.168,0.144-0.297,0.312-0.387,0.504c-0.09,0.191-0.15,0.404-0.18,0.639
			c-0.03,0.234-0.061,0.468-0.091,0.702c-0.029,0.234-0.068,0.462-0.116,0.684c-0.049,0.223-0.133,0.423-0.252,0.604
			c-0.024,0.24-0.027,0.489-0.01,0.747c0.019,0.258,0.016,0.51-0.009,0.756s-0.09,0.468-0.198,0.666
			c-0.107,0.198-0.306,0.357-0.594,0.477c-0.156-0.432-0.213-0.854-0.171-1.269s0.117-0.831,0.225-1.251
			c0.108-0.42,0.21-0.846,0.307-1.278c0.096-0.432,0.113-0.888,0.054-1.368c0.132-0.18,0.207-0.404,0.225-0.675
			c0.019-0.27,0.042-0.531,0.072-0.783s0.093-0.477,0.189-0.675c0.096-0.198,0.288-0.32,0.576-0.369l0.252,0.271
			C514.636,295.02,514.633,295.146,514.603,295.266z"/>
		<path d="M523.901,299.028c0.119,0.252,0.197,0.507,0.233,0.765c0.036,0.259,0.036,0.514,0,0.766s-0.099,0.498-0.188,0.738
			c-0.091,0.24-0.195,0.468-0.315,0.684c-0.24,0.24-0.498,0.483-0.773,0.729c-0.276,0.246-0.567,0.444-0.873,0.595
			c-0.307,0.149-0.621,0.236-0.945,0.261c-0.324,0.023-0.648-0.066-0.972-0.27c-0.385-0.276-0.628-0.676-0.729-1.197
			c-0.102-0.522-0.129-1.047-0.081-1.575c-0.012-0.18,0.015-0.363,0.081-0.549c0.065-0.187,0.156-0.363,0.271-0.531
			c0.113-0.168,0.239-0.327,0.378-0.477c0.138-0.15,0.267-0.273,0.387-0.369c0.216,0.107,0.405,0.107,0.567,0
			c0.161-0.108,0.32-0.234,0.477-0.378c0.156-0.145,0.321-0.262,0.495-0.352s0.381-0.057,0.621,0.1
			c0.264,0.035,0.516,0.168,0.756,0.396C523.529,298.59,523.732,298.812,523.901,299.028z M521.812,299.081
			c-0.096,0.181-0.2,0.363-0.314,0.55c-0.114,0.186-0.178,0.368-0.189,0.549c0,0.132-0.026,0.246-0.081,0.342
			c-0.054,0.096-0.12,0.168-0.197,0.216c-0.078,0.048-0.162,0.066-0.252,0.054c-0.091-0.012-0.178-0.065-0.262-0.161
			c-0.023-0.156-0.057-0.33-0.099-0.522c-0.042-0.191-0.021-0.366,0.062-0.521l-0.233,0.035c-0.36,0.589-0.534,1.213-0.522,1.872
			c0.084,0.097,0.156,0.21,0.217,0.343c0.06,0.132,0.126,0.261,0.197,0.387c0.072,0.126,0.156,0.24,0.252,0.342
			c0.097,0.103,0.223,0.171,0.378,0.207c0.217,0.061,0.462,0.069,0.738,0.027s0.516-0.129,0.72-0.262
			c0.145-0.18,0.291-0.368,0.441-0.566c0.149-0.198,0.282-0.411,0.396-0.64c0.114-0.228,0.201-0.465,0.262-0.711
			c0.06-0.245,0.078-0.507,0.054-0.782c-0.012-0.181-0.075-0.349-0.188-0.505c-0.114-0.155-0.25-0.278-0.405-0.368
			c-0.156-0.091-0.321-0.132-0.495-0.126S521.957,298.926,521.812,299.081z"/>
		<path d="M530.758,296.904c-0.696,1.92-1.578,3.741-2.646,5.463c-1.068,1.722-2.311,3.357-3.727,4.905
			c-0.155,0.144-0.327,0.228-0.513,0.252c-0.187,0.024-0.375,0.018-0.567-0.018c-0.191-0.036-0.384-0.081-0.576-0.136
			c-0.191-0.054-0.378-0.087-0.558-0.099c-0.372-0.288-0.642-0.624-0.81-1.008c-0.168-0.385-0.294-0.786-0.379-1.206l0.576-0.468
			c0.108,0.216,0.216,0.438,0.324,0.666c0.108,0.228,0.231,0.449,0.369,0.666c0.138,0.216,0.297,0.416,0.477,0.603
			c0.181,0.186,0.391,0.339,0.63,0.459c0.553-0.336,1.057-0.735,1.513-1.197s0.863-0.96,1.224-1.494
			c0.36-0.533,0.681-1.089,0.963-1.664c0.282-0.576,0.531-1.152,0.747-1.729c-0.18-0.324-0.399-0.612-0.657-0.864
			s-0.507-0.504-0.747-0.756c-0.239-0.252-0.452-0.519-0.639-0.801s-0.297-0.615-0.333-0.999c0.036-0.024,0.072-0.054,0.108-0.09
			s0.054-0.102,0.054-0.198c0.312,0.084,0.576,0.234,0.792,0.45s0.414,0.462,0.594,0.738c0.181,0.275,0.354,0.561,0.522,0.854
			s0.366,0.562,0.594,0.801c0.276-0.203,0.507-0.456,0.693-0.756c0.186-0.3,0.369-0.603,0.549-0.909
			c0.18-0.306,0.378-0.591,0.594-0.854S530.423,297.048,530.758,296.904z"/>
	</g>
</g>
</svg>
