<?xml version="1.0" encoding="utf-8"?>
<!-- Generator: Adobe Illustrator 17.0.0, SVG Export Plug-In . SVG Version: 6.00 Build 0)  -->
<!DOCTYPE svg PUBLIC "-//W3C//DTD SVG 1.1//EN" "http://www.w3.org/Graphics/SVG/1.1/DTD/svg11.dtd">
<svg version="1.1" id="Слой_1" xmlns="http://www.w3.org/2000/svg" xmlns:xlink="http://www.w3.org/1999/xlink" x="0px" y="0px"
	 width="259.183px" height="324.971px" viewBox="291.146 136.253 259.183 324.971"
	 enable-background="new 291.146 136.253 259.183 324.971" xml:space="preserve">
<g>
	<path fill="#FFFFFF" d="M427.169,193.737l-0.032-0.02c1.336,0.263,2.661,0.632,4.01,0.766c2.66,0.265,5.333,0.392,8,0.595
		c0.657,0.05,1.308,0.175,2.008,0.272c0.288-1.648,0.525-3.446,0.928-5.206c0.558-2.439,1.316-4.835,1.853-7.278
		c0.994-4.519,2.724-8.779,4.797-12.879c2.679-5.298,6.704-9.436,11.866-12.5c2.593-1.54,5.336-2.723,8.267-3.331
		c4.105-0.853,8.254-1.5,12.394-2.181c2.982-0.491,5.986-0.325,8.935,0.191c2.068,0.362,4.066,1.105,6.108,1.63
		c3.705,0.952,7.143,2.455,10.172,4.791c2.055,1.585,4.095,3.191,6.093,4.845c2.316,1.917,4.67,3.803,6.831,5.882
		c1.456,1.4,2.696,3.049,3.874,4.697c1.376,1.926,2.593,3.964,3.848,5.971c0.352,0.562-0.023,0.857-0.536,1.089
		c-0.459,0.207-0.936,0.436-1.305,0.764c-1.388,1.237-2.786,2.469-4.08,3.799c-1.033,1.061-1.921,2.261-2.79,3.3
		c10.528,2.287,20.146,6.034,28.662,12.479c-0.014-0.293-0.067-0.533-0.031-0.759c0.839-5.33,1.677-10.66,1.76-16.07
		c0.039-2.532,0.17-5.07,0.035-7.594c-0.086-1.614-0.552-3.212-0.908-4.805c-0.149-0.668-0.594-1.058-1.382-0.927
		c-3.147,0.522-6.076,1.667-8.958,2.973c-0.623,0.282-1.328,0.404-2.009,0.53c-0.122,0.022-0.376-0.273-0.455-0.467
		c-0.619-1.517-1.248-3.032-1.801-4.573c-0.849-2.362-2.084-4.535-3.175-6.782c-1.284-2.646-3.089-4.822-5.209-6.73
		c-2.562-2.306-5.3-4.429-8.045-6.525c-1.587-1.211-3.39-2.143-5.004-3.323c-4.147-3.032-8.767-5.141-13.753-6.177
		c-5.089-1.058-10.274-1.843-15.456-2.238c-5.352-0.407-10.746-0.726-16.126,0.218c-3.916,0.687-7.823,1.329-11.397,3.14
		c-1.881,0.953-3.685,2.055-5.506,3.119c-3.959,2.315-7.756,4.81-10.281,8.782c-1.384,2.178-3.09,4.185-4.243,6.471
		c-2.045,4.056-3.934,8.206-5.594,12.43c-1.301,3.309-2.391,6.739-3.138,10.207c-0.617,2.866-0.615,5.864-0.844,8.807
		c-0.075,0.96-0.012,1.93-0.012,2.937C426.247,193.918,426.708,193.828,427.169,193.737z"/>
	<g>
		<g id="FRoGIn_5_">
			<g>
				<path d="M291.146,389.469c1.768-2.505,3.336-5.115,4.398-8.002c1.027-2.792,2.108-5.564,3.136-8.355
					c0.438-1.189,0.79-2.408,1.207-3.605c0.123-0.354,0.302-0.697,0.508-1.012c0.678-1.033,1.566-1.066,2.341-0.117
					c1.222,1.496,2.479,2.965,3.663,4.49c0.527,0.679,1.06,0.783,1.801,0.423c2.266-1.103,4.701-1.953,6.768-3.342
					c1.885-1.267,3.396-3.088,5.028-4.709c0.609-0.605,1.03-1.394,1.642-1.995c2.484-2.438,3.531-5.522,4.138-8.807
					c0.286-1.545,0.467-3.11,0.753-4.655c0.59-3.187,0.143-6.248-0.829-9.32c-1.38-4.361-4.593-7.485-7.284-10.96
					c-1.831-2.365-3.866-4.576-5.693-6.944c-0.879-1.14-1.46-2.501-2.226-3.732c-1.755-2.822-3.076-5.835-4.18-8.955
					c-0.594-1.68-0.808-3.389-0.742-5.155c0.075-2.017-0.105-4.069,0.217-6.043c0.374-2.29,1.087-4.539,1.808-6.757
					c0.93-2.861,2.305-5.533,4.14-7.937c0.893-1.17,1.835-2.346,2.946-3.302c2.14-1.841,4.319-3.669,6.667-5.231
					c1.732-1.152,3.693-2.06,5.669-2.744c3.335-1.155,6.737-2.144,10.158-3.024c4.396-1.131,8.928-1.518,13.442-1.607
					c3.279-0.064,6.57,0.433,9.855,0.682c0.17,0.013,0.339,0.045,0.597,0.081c3.353-11.066,5.929-22.24,6.53-33.952
					c-2.072,0.708-3.934,1.327-5.784,1.98c-2.746,0.969-5.48,1.973-8.227,2.941c-1.609,0.567-1.793,0.362-3.233-1.061
					c-1.675-1.656-2.687-3.674-3.648-5.732c-0.74-1.585-1.396-3.218-1.954-4.874c-0.256-0.76-0.251-1.627-0.235-2.443
					c0.005-0.278,0.35-0.688,0.635-0.802c4.116-1.646,8.214-3.344,12.385-4.845c5.55-1.997,11.163-3.822,16.742-5.743
					c3.05-1.05,6.046-2.269,9.133-3.19c5.084-1.516,10.228-2.832,15.336-4.27c4.581-1.289,9.149-2.625,13.721-3.947
					c1.767-0.511,3.522-1.067,5.295-1.557c0.923-0.255,1.158-0.705,0.746-1.577c-0.407-0.863-0.755-1.758-1.058-2.663
					c-0.138-0.411-0.149-0.879-0.137-1.318c0.017-0.593,0.286-0.759,0.956-0.684c2.094,0.233,4.201,0.34,6.357,0.5
					c0-1.521-0.088-2.805,0.017-4.073c0.276-3.306,0.423-6.644,1.028-9.895c0.524-2.821,1.44-5.604,2.477-8.292
					c1.556-4.032,3.434-7.941,5.053-11.95c1.433-3.548,3.816-6.474,5.946-9.587c2.308-3.374,5.512-5.702,8.846-7.852
					c3.455-2.228,7.03-4.324,11.009-5.551c1.72-0.53,3.504-0.897,5.285-1.18c2.501-0.397,5.019-0.796,7.544-0.918
					s5.072,0.014,7.6,0.18c4.385,0.288,8.801,0.446,13.133,1.11c3.678,0.564,7.38,1.212,10.9,2.62
					c3.654,1.461,7.186,3.094,10.369,5.409c3.125,2.272,6.318,4.46,9.341,6.859c2.944,2.336,5.846,4.834,7.671,8.148
					c1.713,3.11,3.413,6.269,4.36,9.739c0.169,0.618,0.531,1.186,0.809,1.774c0.227,0.482,0.461,0.96,0.594,1.236
					c2.052-0.849,4.16-1.782,6.317-2.587c1.162-0.434,2.399-0.686,3.618-0.949c0.826-0.179,1.684-0.084,2.075,0.777
					c0.504,1.11,1.04,2.25,1.265,3.432c0.771,4.049,0.327,8.144,0.142,12.207c-0.165,3.627-0.723,7.237-1.111,10.853
					c-0.135,1.26-0.169,2.545-0.455,3.771c-0.262,1.122-0.768,2.195-1.254,3.251c-0.077,0.168-0.721,0.288-0.925,0.158
					c-1.662-1.056-3.263-2.205-4.921-3.268c-0.841-0.539-1.769-0.943-2.644-1.433c-1.542-0.863-3.082-1.73-4.606-2.623
					c-2.542-1.488-5.414-2.017-8.194-2.829c-2.456-0.717-4.896-1.501-7.309-2.35c-1.248-0.439-1.677-2.536-0.678-3.767
					c1.407-1.733,2.97-3.348,4.524-4.958c0.713-0.739,1.564-1.349,2.357-2.021c-0.615-1.324-1.17-2.614-1.805-3.864
					c-1.068-2.101-2.839-3.622-4.548-5.177c-2.19-1.994-4.392-3.979-6.649-5.899c-0.72-0.613-1.653-0.974-2.45-1.506
					c-1.143-0.763-2.214-1.639-3.385-2.355c-1.376-0.841-2.827-1.563-4.248-2.331c-0.15-0.081-0.379-0.073-0.478-0.186
					c-1.434-1.627-3.632-1.787-5.409-2.759c-1.699-0.929-3.573-1.261-5.536-1.258c-1.523,0.002-3.046-0.307-4.57-0.314
					c-1.656-0.008-3.314,0.169-4.97,0.276c-1.102,0.072-2.202,0.22-3.304,0.235c-2.111,0.028-4.111,0.423-6.054,1.278
					c-0.969,0.427-2.11,0.463-3.106,0.845c-1.573,0.604-3.054,1.453-4.64,2.016c-3.395,1.205-5.842,3.441-7.705,6.424
					c-0.928,1.487-2.069,2.851-2.92,4.376c-0.966,1.732-1.774,3.558-2.542,5.388c-0.943,2.247-1.846,4.517-2.635,6.821
					c-0.832,2.428-1.581,4.89-2.23,7.372c-0.502,1.919-0.819,3.888-1.154,5.845c-0.052,0.305,0.139,0.848,0.38,0.974
					c1.587,0.825,1.695,0.909,1.38,2.582c-0.148,0.787-0.313,1.458,0.25,2.222c0.408,0.554,0.276,1.336-0.335,1.856
					c-0.367,0.312-0.791,0.557-1.171,0.855c-0.688,0.54-1.248,1.005-1.202,2.122c0.073,1.757-0.311,3.527-0.404,5.297
					c-0.164,3.113-0.291,6.23-0.365,9.346c-0.065,2.72-0.046,5.443-0.039,8.164c0.002,0.725-0.432,0.835-1.074,0.88
					c-0.427-7.911,0.307-15.747,0.705-23.482c-0.572,0.612-1.165,1.248-1.665,1.784c0.1,0.578,0.341,1.296,0.326,2.009
					c-0.053,2.463-0.15,4.928-0.317,7.387c-0.178,2.616-0.466,5.225-0.683,7.839c-0.085,1.019-0.567,2.04,0.185,3.056
					c0.317,0.428-0.236,1.041-0.819,0.998c-1.854-0.139-3.726-0.163-5.555-0.455c-2.489-0.397-4.938-1.029-7.415-1.504
					c-1.46-0.28-2.941-0.453-4.387-0.489c-0.623,0.044-1.258,0.186-1.868,0.114c-1.891-0.224-3.776-0.513-5.658-0.807
					c-2.121-0.332-4.237-0.702-6.356-1.046c-1.431-0.233-2.869-0.429-4.298-0.678c-2.527-0.44-5.048-0.913-7.575-1.351
					c-0.219-0.038-0.476,0.05-0.697,0.13c-3.938,1.439-7.883,2.861-11.806,4.34c-3.136,1.182-6.245,2.437-9.366,3.658
					c-1.647,0.644-3.29,1.301-4.947,1.919c-0.583,0.217-0.78,0.476-0.653,1.146c0.43,2.271-0.303,4.473-0.591,6.693
					c-0.431,3.324-0.875,6.66-1.583,9.933c-1.057,4.888-2.22,9.762-3.584,14.573c-1.017,3.588-2.378,7.085-3.669,10.593
					c-0.899,2.442-1.857,4.87-2.935,7.24c-1.571,3.452-3.636,6.642-5.965,9.629c-2.319,2.973-4.866,5.771-7.299,8.657
					c-2.829,3.357-5.902,6.472-9.284,9.289c-0.074,0.061-0.109,0.168-0.282,0.444c0.952,0.178,1.806,0.416,2.674,0.486
					c2.165,0.173,4.059,1.113,5.995,1.945c2.098,0.902,4.236,1.731,6.271,2.758c3.632,1.833,7.178,3.83,10.798,5.686
					c4.763,2.442,9.13,5.495,13.62,8.367c1.473,0.942,2.856,1.894,4.085,3.129c0.406,0.408,1.232,0.385,1.841,0.623
					c1.935,0.758,3.853,1.558,5.785,2.321c3.02,1.192,6.058,2.342,9.067,3.562c1.283,0.52,2.511,1.172,3.763,1.766
					c0.094,0.044,0.243,0.093,0.258,0.163c0.289,1.304,1.535,1.188,2.418,1.606c1.689,0.801,3.354,1.657,5.075,2.385
					c4.082,1.727,8.179,3.422,12.293,5.076c4.074,1.637,8.334,2.829,12.17,5.033c0.592,0.34,1.35,0.446,1.866,0.86
					c1.056,0.848,1.834,0.527,2.796-0.195c3.402-2.554,6.965-4.907,10.277-7.569c2.953-2.374,5.724-4.984,8.446-7.62
					c2.453-2.376,4.837-4.839,7.054-7.429c1.808-2.112,3.234-4.539,4.989-6.7c2.445-3.011,4.379-6.319,6.25-9.682
					c1.086-1.951,2.377-3.794,3.408-5.771c1.075-2.064,1.976-4.219,2.902-6.356c1.074-2.48,2.191-4.949,3.108-7.487
					c1.243-3.442,2.302-6.949,3.462-10.421c1.199-3.589,2.449-7.162,3.629-10.757c0.632-1.925,1.154-3.884,1.741-5.824
					c0.547-1.805,1.096-3.61,1.679-5.404c0.965-2.97,2.022-5.912,2.925-8.901c1.644-5.441,4.583-10.214,7.695-14.905
					c0.223-0.336,0.546-0.608,0.953-1.051c-1.316-0.145-2.552-0.253-3.78-0.421c-3.68-0.504-7.393-0.857-11.025-1.597
					c-4.175-0.851-8.26-2.126-12.415-3.084c-4.428-1.021-8.891-1.888-13.34-2.819c-4.474-0.936-8.947-1.877-13.424-2.798
					c-1.699-0.35-3.411-0.638-5.111-0.987c-0.207-0.043-0.371-0.289-0.555-0.44c0.219-0.131,0.445-0.386,0.654-0.373
					c0.829,0.054,1.664,0.139,2.477,0.309c2.917,0.61,5.818,1.297,8.739,1.885c3.522,0.709,7.064,1.322,10.588,2.022
					c2.416,0.48,4.82,1.018,7.221,1.562c5.845,1.323,11.669,2.739,17.534,3.967c2.848,0.597,5.774,0.826,8.655,1.281
					c1.33,0.21,2.642,0.541,3.95,0.865c0.472,0.117,0.585,1.465,0.193,1.992c-2.496,3.357-4.577,6.973-6.329,10.739
					c-1.111,2.389-1.755,4.993-2.578,7.51c-1.034,3.166-2.033,6.344-3.054,9.515c-1.348,4.187-2.716,8.368-4.048,12.56
					c-1.113,3.501-2.059,7.06-3.311,10.511c-1.599,4.409-3.373,8.759-5.185,13.087c-1.112,2.657-2.405,5.242-3.681,7.828
					c-0.572,1.159-1.302,2.243-1.96,3.361c0.058,0.085,0.117,0.17,0.175,0.255c0.876-0.211,1.753-0.422,2.629-0.633
					c0.056,0.074,0.111,0.147,0.167,0.221c-0.3,0.245-0.565,0.566-0.908,0.715c-0.471,0.205-1.003,0.267-1.502,0.411
					c-0.835,0.239-1.658,0.503-2.023,1.642c1.423-0.193,2.772-0.376,4.121-0.56c0.059,0.098,0.119,0.195,0.178,0.293
					c-0.296,0.227-0.562,0.577-0.894,0.658c-0.966,0.233-1.954,0.405-2.943,0.514c-1.267,0.14-1.888,0.71-2.039,2.163
					c1.18-0.269,2.315-0.523,3.446-0.79c0.304-0.072,0.595-0.238,0.898-0.258c0.187-0.013,0.388,0.169,0.582,0.264
					c-0.101,0.157-0.165,0.39-0.309,0.457c-0.594,0.279-1.196,0.567-1.827,0.742c-0.828,0.229-1.684,0.356-2.529,0.523
					c-1.342,0.265-2.047,1.219-2.771,2.401c2.2-0.405,4.225-0.778,6.25-1.151c0.068,0.139,0.136,0.279,0.204,0.418
					c-0.302,0.207-0.579,0.524-0.912,0.601c-1.248,0.289-2.516,0.496-3.775,0.741c-0.34,0.066-0.672,0.176-1.014,0.23
					c-0.491,0.078-0.986,0.123-1.733,0.212c-0.268,0.392-0.703,1.029-1.198,1.752c1.292-0.336,2.481-0.715,3.699-0.942
					c1.075-0.201,2.216-0.812,3.27-0.236c0.004,0.182,0.008,0.363,0.012,0.545c-1.483,0.319-2.971,0.617-4.446,0.968
					c-0.596,0.142-1.205,0.33-1.734,0.628c-0.616,0.346-0.992,0.325-1.207-0.527c-0.554,0.769-1.036,1.439-1.68,2.333
					c2.829-0.489,5.381-0.93,7.933-1.37c0.063,0.158,0.126,0.315,0.189,0.473c-0.389,0.237-0.752,0.61-1.172,0.689
					c-2.273,0.427-4.56,0.781-6.893,1.169c-0.021-0.179-0.058-0.506-0.11-0.957c-0.97,1.277-1.865,2.456-2.932,3.86
					c3.206-1.088,6.21-1.858,9.337-1.964c0.042,0.091,0.084,0.183,0.126,0.275c-0.217,0.139-0.416,0.344-0.654,0.408
					c-2.814,0.75-5.629,1.496-8.457,2.191c-0.304,0.075-0.689-0.171-1.158-0.303c-0.683,0.751-1.427,1.568-2.181,2.396
					c3.824-0.906,7.544-1.787,11.264-2.668c0.059,0.149,0.117,0.297,0.176,0.446c-0.278,0.187-0.531,0.456-0.838,0.546
					c-1.096,0.322-2.212,0.576-3.318,0.868c-2.08,0.55-4.153,1.123-6.238,1.652c-0.578,0.147-1.191,0.158-1.783,0.26
					c-0.185,0.032-0.39,0.123-0.525,0.25c-2.432,2.3-4.85,4.614-7.284,6.911c-0.381,0.36-0.826,0.655-1.122,1.176
					c5.418-0.964,10.836-1.928,16.255-2.892c0.06,0.166,0.12,0.332,0.18,0.498c-0.469,0.212-0.918,0.528-1.41,0.619
					c-3.726,0.694-7.463,1.333-11.192,2.013c-1.299,0.237-2.593,0.799-3.874,0.759c-1.894-0.06-2.698,1.499-4.098,2.159
					c6.618-0.908,13.139-2.489,19.845-2.284c0.028,0.189,0.056,0.378,0.083,0.568c-1.053,0.167-2.104,0.458-3.16,0.48
					c-4.095,0.086-8.084,0.904-12.096,1.573c-1.579,0.263-3.165,0.78-4.734,0.732c-2.283-0.069-3.501,1.531-5.105,2.597
					c7.704-1.361,15.411-2.56,23.242-2.483c0.041,0.162,0.082,0.325,0.122,0.487c-0.387,0.137-0.767,0.365-1.163,0.398
					c-3.459,0.285-6.938,0.399-10.376,0.834c-3.745,0.473-7.451,1.246-11.179,1.861c-0.707,0.117-1.474-0.018-2.143,0.188
					c-0.733,0.226-1.396,0.693-2.064,1.095c-0.341,0.205-0.626,0.498-1.017,0.817c0.907,0,1.726,0.066,2.53-0.011
					c3.485-0.336,6.985-0.592,10.444-1.11c3.702-0.554,7.403-0.545,11.118-0.451c0.241,0.006,0.479,0.156,0.718,0.239
					c0.003,0.109,0.006,0.219,0.009,0.328c-0.609,0.111-1.22,0.326-1.827,0.315c-3.723-0.071-7.411,0.126-11.092,0.78
					c-2.486,0.441-5.033,0.55-7.555,0.789c-1.73,0.163-3.46,0.359-5.195,0.426c-3.851,0.148-7.716,0.09-11.556,0.366
					c-4.525,0.326-9.09,0.336-13.551,1.332c-0.053,0.012-0.123-0.049-0.438-0.185c0.273-0.299,0.466-0.719,0.725-0.763
					c1.978-0.334,3.962-0.668,5.958-0.861c2.663-0.257,5.338-0.422,8.011-0.561c2.941-0.152,5.887-0.228,8.83-0.341
					c0.296-0.011,0.591-0.046,0.886-0.069c0.027-0.128,0.055-0.256,0.082-0.384c-1.291-0.367-2.583-1.045-3.872-1.04
					c-3.612,0.012-7.222,0.304-10.833,0.49c-2.181,0.112-4.364,0.199-6.541,0.365c-1.169,0.09-2.323,0.377-3.492,0.462
					c-0.375,0.027-0.777-0.306-1.166-0.474c0.316-0.193,0.621-0.532,0.951-0.559c5.745-0.467,11.492-0.901,17.24-1.327
					c0.673-0.05,1.353-0.007,2.052-0.147c-1.511-0.914-2.991-1.78-4.869-1.606c-4.111,0.381-8.226,0.718-12.342,1.048
					c-2.111,0.169-4.226,0.298-6.341,0.407c-0.263,0.013-0.538-0.207-0.808-0.32c-0.005-0.102-0.011-0.204-0.016-0.306
					c0.425-0.146,0.841-0.383,1.275-0.423c3.738-0.344,7.478-0.66,11.22-0.968c1.419-0.117,2.843-0.185,4.264-0.283
					c0.226-0.016,0.449-0.069,0.687-0.209c-1.26-0.701-2.533-1.324-4.023-1.209c-4.332,0.335-8.665,0.664-12.993,1.049
					c-1.088,0.097-2.156,0.4-3.236,0.601c-0.279,0.052-0.615,0.175-0.83,0.072c-0.158-0.075-0.296-0.545-0.203-0.701
					c0.176-0.299,0.507-0.689,0.8-0.712c2.7-0.205,5.408-0.301,8.108-0.506c2.077-0.158,4.145-0.426,6.216-0.654
					c0.09-0.01,0.171-0.106,0.313-0.201c-0.765-0.613-1.518-1.116-2.542-0.975c-3.031,0.417-6.064,0.812-9.091,1.251
					c-1.681,0.244-3.349,0.574-5.029,0.822c-0.307,0.045-0.645-0.119-0.968-0.186c-0.038-0.122-0.076-0.244-0.113-0.366
					c0.437-0.226,0.854-0.585,1.315-0.655c2.784-0.424,5.579-0.77,8.367-1.168c1.223-0.174,2.437-0.409,3.846-0.649
					c-1.394-0.902-2.675-1.288-4.204-1.015c-2.873,0.513-5.767,0.915-8.652,1.362c-0.103,0.016-0.213,0.039-0.311,0.019
					c-0.418-0.086-1.122,0.301-1.138-0.488c-0.015-0.772,0.628-0.557,1.143-0.618c2.746-0.327,5.484-0.715,8.226-1.318
					c-0.403-0.254-0.807-0.508-0.977-0.615c-1.753,0.342-3.298,0.639-4.841,0.945c-0.474,0.094-0.945,0.296-1.415,0.288
					c-0.341-0.005-0.677-0.273-1.016-0.424c0.248-0.233,0.464-0.614,0.749-0.673c1.522-0.315,3.061-0.548,4.594-0.81
					c0.007-0.109,0.015-0.219,0.022-0.328c-0.377-0.037-0.761-0.138-1.129-0.096c-0.513,0.059-1.008,0.276-1.521,0.325
					c-0.308,0.03-0.635-0.132-0.954-0.207c0.228-0.236,0.447-0.482,0.69-0.701c0.087-0.078,0.232-0.093,0.535-0.205
					c-0.627-0.39-1.118-0.695-1.813-1.127c-0.993,1.711-2.045,3.383-2.956,5.127c-1.555,2.977-3.05,5.985-5.052,8.706
					c-2.115,2.874-4.28,5.712-6.377,8.599c-2.387,3.288-4.763,6.585-7.064,9.932c-1.38,2.007-2.639,4.097-3.898,6.182
					c-1.763,2.921-3.556,5.829-5.176,8.827c-0.841,1.557-1.33,3.298-1.991,4.952c-0.445,1.112-0.938,2.206-1.364,3.325
					c-1.066,2.801-1.336,5.745-1.488,8.697c-0.141,2.74-0.04,5.5-0.324,8.222c-0.18,1.725,0.557,3.029,1.353,4.314
					c2.403,3.877,6.001,6.583,9.933,8.665c3.527,1.866,7.379,3.144,11.128,4.578c1.402,0.536,2.919,0.78,4.275,1.129
					c-0.284-1.362-0.565-2.674-0.83-3.989c-0.172-0.853,0.284-1.361,1.158-1.137c2.08,0.532,4.137,1.151,6.202,1.739
					c2.199,0.626,4.395,1.26,6.595,1.882c1.102,0.311,2.194,0.684,3.317,0.889c3.894,0.711,7.798,1.366,11.701,2.029
					c0.991,0.168,1.994,0.271,2.987,0.431c1.105,0.178,1.348,0.611,1.068,1.692c-0.212,0.817-0.187,1.746-0.583,2.453
					c-0.488,0.87-1.292,1.569-1.978,2.327c-1.682,1.859-3.36,3.723-5.069,5.559c-1.011,1.086-2.092,2.108-3.115,3.182
					c-2.237,2.348-4.457,4.712-6.685,7.069c-0.284,0.301-0.562,0.608-0.857,0.898c-0.931,0.916-1.123,0.717-2.012-0.145
					c-1.146-1.111-1.37-2.751-2.637-3.776c-1.227-0.992-2.169-2.34-3.429-3.279c-1.011-0.753-2.265-1.283-3.492-1.634
					c-2.165-0.618-4.381-1.043-6.4-2.107c-1.01-0.533-2.111-0.901-3.109-1.453c-4.113-2.275-8.203-4.591-12.3-6.896
					c-0.119-0.067-0.244-0.155-0.319-0.265c-1.942-2.833-5.203-4.021-7.732-6.111c-1.623-1.341-2.853-3.135-4.401-4.578
					c-2.582-2.406-4.12-5.492-5.924-8.414c-0.395-0.639-0.946-1.187-1.316-1.837c-1.506-2.647-2.321-5.494-2.29-8.541
					c0.023-2.333-0.065-4.689,0.239-6.991c0.321-2.433,0.835-4.886,1.646-7.2c1.215-3.466,2.729-6.832,4.176-10.215
					c2.139-5.004,4.704-9.781,7.745-14.318c2.107-3.143,4.01-6.421,6.039-9.616c2.344-3.691,4.809-7.309,7.061-11.053
					c1.201-1.996,2.142-4.147,2.502-6.51c0.436-2.871,1.001-5.722,1.495-8.584c0.144-0.832,0.054-1.567-1.002-1.753
					c-0.132-0.023-0.286-0.081-0.374-0.175c-2.03-2.154-4.87-3.132-7.199-4.857c-3.957-2.929-8.276-5.29-12.633-7.569
					c-3.74-1.956-7.524-3.831-11.316-5.687c-1.672-0.819-3.365-1.646-5.134-2.21c-2.096-0.668-4.285-1.046-6.429-1.57
					c-0.558-0.136-1.097-0.347-1.994-0.636c1.819-1.777,3.503-3.293,5.034-4.947c3.041-3.286,6.005-6.641,8.986-9.981
					c1.355-1.517,2.757-3.004,3.986-4.617c1.165-1.528,2.159-3.188,3.173-4.823c0.356-0.573-0.56-1.724-1.288-1.713
					c-1.976,0.031-3.965-0.078-5.925,0.113c-4.708,0.459-9.185,1.582-13.079,4.495c-2.416,1.807-4.112,4.17-5.836,6.536
					c-0.331,0.455-0.592,1.04-0.657,1.591c-0.287,2.413-1.292,4.823-0.355,7.266c0.882,2.299,1.78,4.608,2.915,6.789
					c0.711,1.367,2.051,2.411,2.791,3.769c1.34,2.459,3.253,4.431,5.159,6.402c2.016,2.086,3.704,4.356,4.844,7.008
					c0.992,2.308,2.185,4.57,2.834,6.972c0.664,2.456,0.865,5.051,1.095,7.6c0.163,1.798,0.233,3.649-0.014,5.428
					c-0.277,1.989-0.842,3.961-1.491,5.871c-0.97,2.856-2.037,5.689-3.24,8.456c-0.494,1.136-1.399,2.117-2.207,3.095
					c-1.77,2.141-3.605,4.228-5.4,6.349c-2.127,2.513-4.964,4.162-7.625,5.996c-1.51,1.041-3.354,1.594-4.99,2.472
					c-1.383,0.742-2.696,1.615-3.999,2.491c-0.137,0.092-0.061,0.617,0.034,0.903c0.389,1.17,0.839,2.32,1.236,3.488
					c0.278,0.819-0.117,1.095-0.922,1.334c-4.059,1.205-8.281,0.745-12.409,1.248c-3.762,0.459-7.585,0.452-11.384,0.561
					c-0.644,0.018-1.301-0.413-1.951-0.637C291.146,391.261,291.146,390.365,291.146,389.469z M326.168,293.793
					c-0.406,0.616-0.811,1.233-1.077,1.637c0.295,0.686,0.505,1.177,0.738,1.719c0.254-0.376,0.496-0.735,0.738-1.094
					c-0.095-0.011-0.19-0.022-0.285-0.033c-0.043-0.748-0.085-1.497-0.119-2.237c0.962,0.02,0.77,0.814,0.89,1.628
					c0.987-1.014,0.265-1.948,0.286-2.838C326.948,292.981,326.558,293.387,326.168,293.793z M341.131,332.354l0.034,0.037
					c-1.239-3.745-3.636-6.717-6.359-9.506c-1.315-1.347-2.477-2.848-3.624-4.343c-0.751-0.98-1.343-2.079-2.019-3.116
					c-0.931-1.427-2.048-2.764-2.777-4.285c-1.45-3.028-2.385-6.187-1.577-9.623c0.287-1.221,0.352-2.492,0.52-3.754
					c-0.947-0.096-0.496-0.932-0.644-1.496c-1.279,1.281-2.303,4.842-2.278,7.122c0.03,2.778,0.982,5.324,1.79,7.911
					c0.305,0.978,0.512,2.075,1.112,2.857c1.921,2.503,4.01,4.88,6.027,7.312c2.041,2.461,4.143,4.877,6.061,7.429
					c0.515,0.685,0.877,1.207,1.796,1.09c-0.037,0.255,0.002,0.494-0.097,0.583c-0.862,0.774-0.14,1.478,0.059,2.214
					c0.232,0.855,0.495,1.604,1.655,1.471c0.244-0.028,0.6,0.218,0.771,0.439c0.174,0.225,0.185,0.574,0.267,0.869
					c-0.323-0.02-0.676,0.033-0.96-0.082c-0.28-0.113-0.49-0.396-0.731-0.604c-0.077,0.046-0.154,0.091-0.231,0.137
					c0.13,0.555,0.215,1.125,0.397,1.664c1.007,2.98,1.23,6.066,1.158,9.165c-0.022,0.97,0.018,1.627,1.033,2.037
					c0.56,0.226,1.188,0.63,0.711,1.631c-0.594-0.514-1.111-0.96-1.787-1.545c-0.095,0.962-0.171,1.721-0.252,2.538
					c1.584-0.001,2.313,0.937,2.859,2.109c-0.327-0.097-0.699-0.126-0.971-0.304c-0.645-0.423-1.242-0.917-1.994-1.486
					c-0.3,0.945-0.534,1.679-0.711,2.237c0.745,0.723,1.406,1.315,1.996,1.969c0.152,0.169,0.08,0.535,0.111,0.811
					c-0.243-0.106-0.529-0.164-0.721-0.328c-0.534-0.456-1.029-0.956-1.673-1.565c-0.282,0.749-0.491,1.302-0.694,1.841
					c1.658,0.796,2.728,2.848,2.073,3.793c-0.669-0.988-1.339-1.977-2.009-2.966c-0.104,0.044-0.209,0.087-0.313,0.131
					c-0.293,0.9-0.734,1.787-0.815,2.705c-0.039,0.443,0.64,0.922,0.921,1.425c0.216,0.386,0.318,0.834,0.471,1.254
					c-0.12,0.059-0.241,0.117-0.361,0.176c-0.478-0.587-0.956-1.174-1.435-1.76c-0.104-0.003-0.208-0.005-0.312-0.008
					c-0.051,0.683-0.299,1.428-0.102,2.032c0.242,0.743,0.877,1.356,1.293,2.054c0.12,0.201,0.07,0.5,0.099,0.754
					c-0.095,0.036-0.191,0.073-0.286,0.109c-0.554-0.78-1.108-1.561-1.703-2.399c-0.652,0.856-1.211,1.462-0.265,2.334
					c0.486,0.448,0.678,1.208,1.144,2.097c0.905-1.316,1.978-2.448,2.545-3.788c1.215-2.87,2.192-5.84,3.212-8.787
					c0.26-0.752,0.316-1.573,0.466-2.362c0.167-0.403,0.468-0.803,0.479-1.21c0.062-2.388,0.073-4.778,0.048-7.166
					c-0.002-0.231-0.341-0.485-0.564-0.684c-0.664-0.59-1.349-1.159-2.025-1.735c0.055-0.091,0.109-0.182,0.164-0.272
					c0.666,0.129,1.332,0.258,2.072,0.402c-0.024-0.367-0.027-0.6-0.059-0.83c-0.032-0.234-0.091-0.463-0.136-0.685
					c-1.05-0.048-1.743-0.671-1.714-1.558c0.518,0.147,1.026,0.291,1.649,0.469c-0.174-0.589-0.333-1.129-0.493-1.673
					c-1.391,0.456-2.19,0.018-2.225-1.26c0.6,0.182,1.157,0.351,1.911,0.58C342.573,335.245,342.193,333.665,341.131,332.354z
					 M366.933,436.589c0.015,0.131-0.012,0.289,0.053,0.389c1.573,2.423,3.414,4.529,6.18,5.744c1.594,0.7,3.066,1.673,4.581,2.544
					c0.989,0.568,1.921,1.242,2.94,1.747c1.514,0.75,3.052,1.473,4.635,2.061c2.075,0.771,4.205,1.399,6.311,2.088
					c0.039-0.116,0.079-0.233,0.118-0.349c-0.178-0.085-0.352-0.178-0.534-0.254c-3.385-1.41-6.845-2.675-9.982-4.594
					c-2.2-1.346-4.253-2.933-6.481-4.229c-2.71-1.576-5.592-2.872-7.846-5.125c-0.556-1.059-1.088-2.132-1.675-3.175
					c-0.908-1.614-2.149-3.112-2.721-4.83c-1.206-3.62-1.749-7.395-1.666-11.234c0.074-3.385,0.072-6.772,0.198-10.154
					c0.167-4.499,1.745-8.636,3.516-12.714c0.423-0.975,0.671-2.043,1.205-2.95c2.496-4.235,5.012-8.459,7.623-12.625
					c1.948-3.107,3.967-6.178,6.109-9.158c2.371-3.299,4.964-6.443,7.37-9.718c1.362-1.854,2.668-3.769,3.777-5.777
					c1.904-3.448,3.371-7.134,5.874-10.248c0.109-0.135,0.138-0.333,0.229-0.565c-0.643,0-1.181,0-1.615,0
					c-0.807,1.585-1.487,3.165-2.379,4.617c-1.433,2.332-2.942,4.624-4.54,6.848c-1.459,2.031-3.167,3.889-4.609,5.931
					c-2.422,3.43-4.745,6.928-7.061,10.429c-1.915,2.895-3.638,5.923-5.667,8.735c-2.947,4.084-5.612,8.292-7.394,13.015
					c-0.978,2.591-2.097,5.135-2.522,7.894c-0.301,1.953-0.585,3.91-0.823,5.871c-0.219,1.807-0.582,3.633-0.5,5.433
					c0.189,4.137,0.461,8.281,0.983,12.387c0.451,3.546,1.836,6.835,4.011,9.725C365.266,435.193,366.16,435.846,366.933,436.589z
					 M390.043,349.83c0.294-0.473,0.589-0.945,0.91-1.461c-3.027-0.867-5.947-1.461-8.771-2.361c0.02-0.174,0.04-0.348,0.06-0.521
					c0.389-0.036,0.8-0.169,1.165-0.091c2.429,0.521,4.845,1.102,7.273,1.624c0.415,0.089,0.871-0.009,1.308-0.02
					c0.006-0.129,0.013-0.258,0.019-0.388c-0.446-0.16-0.885-0.344-1.34-0.475c-2.229-0.643-4.472-1.238-6.685-1.93
					c-0.517-0.162-0.936-0.632-1.399-0.96c0.067-0.126,0.134-0.251,0.201-0.377c3.001,0.768,6.001,1.537,9.002,2.305
					c0.025-0.096,0.049-0.192,0.074-0.288c-2.649-0.909-5.275-1.896-7.959-2.685c-0.965-0.284-1.105-0.611-0.776-1.164
					c-0.316-0.478-0.537-0.811-0.757-1.144c0.397-0.03,0.8-0.122,1.188-0.077c0.676,0.078,1.343,0.239,2.013,0.365
					c-0.408-0.339-0.871-0.492-1.296-0.716c-1.553-0.822-3.603-0.862-4.483-2.765c-0.043-0.092-0.289-0.092-0.343-0.107
					c-0.497,2.811-0.929,5.58-1.486,8.324c-0.66,3.249-1.876,6.3-3.692,9.097c-1.122,1.727-2.332,3.4-3.427,5.143
					c-1.961,3.122-3.876,6.273-5.791,9.424c-2.731,4.493-5.65,8.89-8.102,13.528c-2.141,4.049-3.728,8.384-5.595,12.576
					c-1.507,3.384-2.624,6.873-2.996,10.561c-0.127,1.262-0.063,2.542-0.113,3.812c-0.134,3.401,0.051,6.753,1.685,9.848
					c0.473,0.895,1.124,1.696,1.666,2.558c1.024,1.628,1.949,3.323,3.062,4.888c1.094,1.538,2.39,2.933,3.56,4.419
					c1.608,2.042,3.535,3.698,6.095,5.067c-1.781-2.565-3.278-4.985-4.018-7.771c-0.404-1.522-0.944-3.026-1.168-4.575
					c-0.284-1.964-0.217-3.975-0.464-5.946c-0.557-4.445-0.127-8.852,0.423-13.249c0.571-4.566,1.849-8.971,3.835-13.124
					c1.524-3.186,3.168-6.339,5.047-9.329c2.415-3.843,5.168-7.477,7.686-11.26c3.399-5.106,6.626-10.324,10.556-15.069
					c0.89-1.074,1.565-2.322,2.485-3.709c-2.702-0.534-5.154-1.019-7.689-1.52c-0.056-0.801,0.691-0.773,1.187-0.695
					c2.016,0.314,4.033,0.654,6.017,1.12c1.328,0.312,1.304,0.414,1.866-0.916L390.043,349.83z M427.496,193.657l-0.032-0.02
					c1.336,0.263,2.661,0.632,4.01,0.766c2.66,0.265,5.333,0.392,8,0.595c0.657,0.05,1.308,0.175,2.008,0.272
					c0.288-1.648,0.525-3.445,0.928-5.206c0.558-2.439,1.316-4.835,1.853-7.278c0.994-4.519,2.724-8.779,4.797-12.879
					c2.679-5.298,6.704-9.436,11.866-12.5c2.593-1.54,5.336-2.723,8.267-3.331c4.105-0.853,8.254-1.5,12.394-2.181
					c2.982-0.491,5.986-0.325,8.935,0.191c2.068,0.362,4.066,1.105,6.108,1.63c3.705,0.952,7.143,2.455,10.172,4.791
					c2.055,1.585,4.095,3.191,6.093,4.845c2.316,1.917,4.67,3.803,6.831,5.882c1.456,1.4,2.696,3.049,3.874,4.697
					c1.376,1.926,2.593,3.964,3.848,5.971c0.352,0.562-0.023,0.857-0.536,1.089c-0.459,0.207-0.936,0.436-1.305,0.764
					c-1.388,1.237-2.786,2.469-4.08,3.799c-1.033,1.061-1.921,2.261-2.79,3.3c10.528,2.287,20.146,6.034,28.662,12.479
					c-0.014-0.293-0.067-0.533-0.031-0.759c0.839-5.33,1.677-10.66,1.76-16.07c0.039-2.532,0.17-5.07,0.035-7.594
					c-0.086-1.614-0.552-3.212-0.908-4.805c-0.149-0.668-0.594-1.058-1.382-0.927c-3.147,0.522-6.076,1.667-8.958,2.973
					c-0.623,0.282-1.328,0.404-2.009,0.53c-0.122,0.022-0.376-0.273-0.455-0.467c-0.619-1.517-1.248-3.032-1.802-4.573
					c-0.848-2.362-2.084-4.535-3.175-6.782c-1.284-2.646-3.089-4.822-5.209-6.73c-2.562-2.306-5.3-4.429-8.045-6.525
					c-1.587-1.211-3.39-2.143-5.004-3.323c-4.147-3.032-8.766-5.141-13.753-6.177c-5.089-1.058-10.274-1.843-15.456-2.238
					c-5.352-0.407-10.746-0.726-16.126,0.218c-3.916,0.687-7.823,1.329-11.397,3.14c-1.881,0.953-3.685,2.055-5.506,3.119
					c-3.959,2.315-7.756,4.81-10.281,8.782c-1.384,2.178-3.09,4.185-4.243,6.471c-2.045,4.056-3.934,8.206-5.594,12.43
					c-1.301,3.309-2.391,6.739-3.138,10.207c-0.617,2.866-0.615,5.864-0.844,8.807c-0.075,0.96-0.012,1.93-0.012,2.937
					C426.574,193.838,427.035,193.748,427.496,193.657z M359.052,269.696c-1.85-0.205-3.639-0.642-5.4-0.552
					c-4.261,0.218-8.523,0.576-12.759,1.086c-2.4,0.289-4.76,0.943-7.117,1.518c-4.277,1.042-8.369,2.549-12.073,4.964
					c-3.224,2.101-6.357,4.308-8.729,7.394c-2.491,3.24-4.087,6.923-5.281,10.772c-0.504,1.623-0.785,3.334-0.971,5.026
					c-0.167,1.526-0.131,3.083-0.062,4.621c0.064,1.434,0.063,2.932,0.495,4.276c0.741,2.307,1.679,4.572,2.752,6.751
					c1.121,2.275,2.283,4.587,3.809,6.599c3.165,4.174,6.591,8.154,9.893,12.227c2.562,3.16,3.751,6.879,4.132,10.822
					c0.289,2.991-0.239,5.961-0.871,8.904c-0.795,3.7-1.995,7.192-4.688,10.013c-0.331,0.347-0.735,0.646-0.988,1.041
					c-2.139,3.328-5.251,5.506-8.726,7.248c-1.511,0.757-3.039,1.487-4.6,2.132c-0.391,0.161-1.105,0.128-1.386-0.125
					c-1.014-0.911-1.923-1.938-2.838-2.952c-0.671-0.744-1.289-1.536-1.93-2.307c-0.141,0.005-0.282,0.011-0.423,0.016
					c-2.892,7.447-4.703,15.373-9.695,22.017c1.506,0.196,2.949,0.319,4.386,0.266c1.83-0.067,3.657-0.263,5.482-0.427
					c1.24-0.112,2.52-0.108,3.705-0.432c2.526-0.691,5.085-1.046,7.688-1.087c0.864-0.014,1.237-0.294,1.171-1.136
					c-0.027-0.343,0.059-0.739-0.086-1.021c-0.436-0.848-0.939-1.665-1.464-2.463c-0.169-0.256-0.724-0.457-0.696-0.61
					c0.078-0.422,0.274-0.943,0.603-1.171c0.427-0.296,1.037-0.322,1.553-0.505c2.923-1.037,5.571-2.612,8.096-4.346
					c1.732-1.19,3.201-2.746,4.873-4.03c4.177-3.207,6.988-7.427,9.151-12.09c0.89-1.919,1.435-3.999,2.084-6.022
					c0.964-3.004,2.158-5.966,2.126-9.19c-0.021-2.159,0.058-4.344-0.256-6.467c-0.34-2.295-0.979-4.565-1.688-6.783
					c-0.502-1.572-1.191-3.129-2.064-4.53c-0.984-1.579-2.206-3.028-3.435-4.44c-1.942-2.233-3.956-4.406-5.977-6.569
					c-1.397-1.496-2.674-3.052-3.304-5.032c-0.52-1.634-1.052-3.263-1.556-4.901c-1.021-3.318-1.134-6.6,0.228-9.888
					c1.263-3.048,3.321-5.541,5.438-8.005c1.751-2.038,4.062-3.355,6.427-4.501c2.402-1.164,5.052-1.634,7.667-2.203
					c4.359-0.948,8.654-1.147,12.961,0.204c0.258,0.081,0.797-0.155,0.945-0.399c0.368-0.603,0.608-1.287,0.858-1.954
					c0.565-1.501,1.105-3.011,1.655-4.518c-1.187,1.839-2.158,3.759-3.133,5.676c-0.469,0.923-0.69,0.941-1.356,0.232
					C355.765,278.631,357.619,274.382,359.052,269.696z M418.921,196.988c0.458,1.174,0.787,2.206,1.255,3.172
					c0.6,1.239,0.516,1.661-0.795,2.089c-1.805,0.589-3.635,1.105-5.457,1.645c-4.287,1.271-8.558,2.6-12.868,3.788
					c-3.977,1.095-8.024,1.942-11.99,3.073c-3.768,1.075-7.49,2.318-11.195,3.593c-5.013,1.724-9.995,3.539-14.983,5.332
					c-2.99,1.075-5.977,2.157-8.947,3.282c-2.364,0.896-4.667,1.96-7.066,2.745c-0.853,0.279-1.329,0.414-1.067,1.362
					c0.851,3.072,2.166,5.943,3.886,8.629c0.161,0.252,0.64,0.517,0.898,0.459c1.064-0.242,2.118-0.559,3.143-0.934
					c2.408-0.881,4.784-1.847,7.197-2.712c2.22-0.796,4.505-1.42,6.701-2.271c3.846-1.491,7.645-3.099,11.465-4.655
					c3.244-1.322,6.458-2.721,9.741-3.94c4.474-1.661,8.986-3.226,13.509-4.752c3.285-1.109,6.589-2.185,9.934-3.097
					c3.171-0.864,6.413-1.475,9.613-2.241c1.137-0.272,1.775,0.294,2.331,1.115c0.462,0.683,0.891,1.392,1.392,2.046
					c0.379,0.496,0.823,0.544,1.296,0.024c0.717-0.789,1.43-1.594,2.232-2.294c1.609-1.404,3.312-2.704,4.914-4.115
					c2.487-2.191,4.911-4.451,7.385-6.657c1.036-0.924,2.131-1.784,3.199-2.673c-0.045-0.119-0.09-0.238-0.136-0.357
					C436.168,196.678,427.667,196.887,418.921,196.988z M372.741,431.159c-0.263,2.089,1.516,3.677,1.227,5.962
					c-0.487-0.382-0.844-0.519-0.923-0.748c-0.622-1.814-1.29-3.622-1.738-5.481c-0.256-1.062-0.978-1.302-1.805-1.788
					c-0.014,0.296-0.051,0.405-0.019,0.49c0.6,1.605,1.199,3.211,1.82,4.808c0.297,0.762,1.037,1.421,0.349,2.666
					c-0.432-0.675-0.798-1.189-1.103-1.736c-1.091-1.959-2.152-3.953-2.287-6.23c-0.06-1.022-0.563-1.494-1.51-1.978
					c0.076,0.516,0.061,0.907,0.193,1.241c0.971,2.449,1.947,4.896,2.974,7.322c0.499,1.18,0.501,1.261-0.991,1.537
					c0.718,0.521,1.257,0.985,1.863,1.337c1.342,0.779,2.752,1.447,4.071,2.26c2.385,1.472,4.652,3.146,7.102,4.497
					c2.665,1.469,5.435,2.78,8.252,3.94c1.713,0.705,3.413,1.758,5.462,1.313c0.233-0.051,0.635,0.322,0.85,0.585
					c1.551,1.895,3.074,3.812,4.709,5.85c5.799-6.165,11.41-12.13,17.171-18.254c-0.661-0.165-1.022-0.273-1.39-0.345
					c-4.66-0.903-9.354-1.662-13.973-2.739c-4.499-1.049-8.921-2.42-13.377-3.653c-0.513-0.142-0.914-0.031-0.763,0.554
					c0.194,0.752,0.537,1.466,0.812,2.197c0.202,0.538,0.503,1.065,0.568,1.62c0.071,0.606-0.336,1.005-0.991,0.844
					c-1.142-0.282-2.267-0.633-3.398-0.96c-1.581-0.457-3.161-0.919-4.742-1.379c-0.048,0.081-0.097,0.163-0.145,0.244
					c0.382,0.283,0.764,0.804,1.146,0.803c1.016,0,1.472,0.564,2.008,1.461c-0.521,0.059-0.9,0.102-1.101,0.124
					c-0.292-0.405-0.492-0.684-0.65-0.903c-0.085,0.392-0.152,0.706-0.22,1.02c-0.356-0.129-0.784-0.177-1.051-0.406
					c-0.345-0.296-0.561-0.739-0.833-1.118c-0.089,0.053-0.178,0.105-0.267,0.158c0.175,0.42,0.349,0.839,0.527,1.266
					c-1.536,0.366-1.472-0.345-2.679-3.034c0.573,0.181,0.983,0.22,1.27,0.426c0.308,0.221,0.501,0.599,0.759,0.928
					c0.206-0.572,0.336-0.929,0.495-1.37c-1.071-0.437-2.195-0.896-3.319-1.355c-0.084,0.078-0.167,0.157-0.251,0.235
					c0.456,1.052,0.934,2.096,1.354,3.163c0.104,0.265,0.022,0.602,0.025,0.906c-0.301-0.084-0.754-0.075-0.874-0.268
					c-0.414-0.665-0.789-1.377-1.032-2.118c-0.218-0.667-0.242-1.395-0.352-2.096c0.103-0.041,0.205-0.082,0.308-0.124
					c-0.487-0.255-0.973-0.509-1.46-0.764c0.106,1.017,0.43,1.838,0.695,2.677c0.256,0.812,1.129,1.524,0.516,2.55
					c-1.453-1.13-2.556-4.525-1.737-5.446C373.774,431.622,373.284,431.402,372.741,431.159z M442.939,196.745
					c0.13-0.047,0.259-0.094,0.389-0.141c0.078-0.44,0.138-0.883,0.238-1.318c0.742-3.244,1.367-6.521,2.28-9.718
					c0.73-2.557,1.773-5.03,2.755-7.511c0.954-2.411,1.858-4.861,3.062-7.15c0.98-1.864,2.354-3.53,3.587-5.26
					c0.757-1.064,1.399-2.316,2.407-3.074c1.777-1.334,3.74-2.461,5.728-3.477c1.903-0.973,3.913-1.76,5.92-2.512
					c3.114-1.166,6.399-1.405,9.683-1.813c4.295-0.534,8.538-0.413,12.77,0.126c2.91,0.37,5.754,1.15,8.286,2.803
					c1.439,0.94,3.067,1.592,4.528,2.503c2.047,1.277,4.017,2.677,6.022,4.019c0.396,0.265,0.848,0.462,1.202,0.77
					c2.236,1.942,4.413,3.952,6.683,5.853c2.922,2.447,5.334,5.252,6.858,8.76c0.123,0.283,0.455,0.478,0.69,0.714
					c0.107-0.068,0.213-0.136,0.32-0.204c-0.351-0.75-0.624-1.548-1.069-2.238c-0.801-1.244-1.725-2.41-2.561-3.632
					c-1.743-2.549-3.766-4.871-6.161-6.816c-3.159-2.566-6.488-4.927-9.661-7.476c-2.487-1.998-5.235-3.43-8.252-4.456
					c-4.392-1.494-8.826-2.852-13.522-2.65c-2.83,0.122-5.644,0.628-8.464,0.968c-3.426,0.413-6.761,1.172-10.019,2.331
					c-5.199,1.85-9.491,4.977-13.079,9.041c-1.884,2.133-3.37,4.565-4.365,7.265c-0.93,2.524-2.069,4.98-2.88,7.539
					c-0.941,2.97-1.696,6.003-2.398,9.039c-0.523,2.261-0.846,4.568-1.22,6.861C442.652,196.156,442.852,196.46,442.939,196.745z
					 M420.806,215.965c-7.778,1.51-14.929,4.319-22.142,6.942c0.008,0.107,0.015,0.215,0.023,0.322
					c7.212,1.126,14.424,2.251,21.718,3.39C420.544,222.922,420.674,219.473,420.806,215.965z M546.561,203.069
					c-0.106-0.366-0.102-0.542-0.188-0.62c-1.114-1.007-2.133-2.169-3.39-2.96c-2.134-1.344-4.414-2.465-6.645-3.655
					c-0.94-0.501-1.879-1.037-2.879-1.39c-3.159-1.114-6.358-2.116-9.517-3.228c-1.543-0.543-3.067-0.912-4.713-0.446
					c1.429,0.518,2.89,0.899,4.335,1.335c2.258,0.682,4.531,1.33,6.747,2.129c1.619,0.583,3.171,1.355,4.725,2.101
					c0.775,0.372,1.49,0.869,2.227,1.316c2.27,1.377,4.53,2.77,6.811,4.13C544.804,202.218,545.586,202.569,546.561,203.069z
					 M422.57,216.625c-0.099,0.089-0.197,0.177-0.296,0.266c0.7,1.7,1.577,3.266,3.471,3.947c0.336,0.121,0.853,0.147,1.129-0.027
					c1.568-0.988,3.062-2.09,4.629-3.078c2.959-1.865,4.942-4.724,7.445-7.052c0.154-0.144,0.189-0.412,0.28-0.623
					c-0.082-0.053-0.163-0.107-0.245-0.16c-0.664,0.633-1.289,1.312-1.998,1.891c-3.15,2.576-6.334,5.111-9.484,7.687
					c-0.952,0.778-1.243,0.754-2.05-0.1C424.541,218.413,423.535,217.538,422.57,216.625z M419.591,439.664
					c-0.34,0.052-0.434,0.038-0.469,0.076c-2.275,2.492-4.521,5.01-6.823,7.477c-2.632,2.821-5.338,5.575-7.963,8.403
					c-1.072,1.156-2.019,2.426-3.004,3.659c-0.06,0.074,0.044,0.276,0.111,0.619c1.243-1.396,2.318-2.682,3.477-3.889
					c2.862-2.984,5.768-5.927,8.647-8.895c1.745-1.799,3.511-3.581,5.182-5.446C419.179,441.187,419.285,440.423,419.591,439.664z
					 M333.128,369.701c-0.148,0.028-0.296,0.057-0.444,0.085c-0.166,1.013,0.798,1.711,1.008,2.83
					c0.791-0.891,1.444-1.626,1.974-2.223c-0.438-1.075-0.812-1.993-1.234-3.028c-0.712,0.648-0.979,1.16-0.578,1.856
					c0.255,0.443,0.519,0.889,0.698,1.364c0.067,0.179-0.094,0.442-0.151,0.667c-0.225-0.084-0.548-0.105-0.655-0.266
					C333.487,370.592,333.328,370.133,333.128,369.701z M331.77,288.882c-0.138-0.11-0.276-0.22-0.413-0.33
					c-1.122,1.012-2.244,2.024-3.217,2.902c0.171,0.77,0.293,1.316,0.415,1.862c0.115,0.021,0.23,0.043,0.345,0.064
					c0.285-0.764,0.561-1.532,0.861-2.29c0.124-0.314,0.301-0.608,0.453-0.911c0.189,0.296,0.379,0.592,0.704,1.102
					C331.216,290.441,331.493,289.661,331.77,288.882z M337.332,368.175c-0.617-1.084-1.12-1.969-1.718-3.02
					c-0.403,0.693-0.626,1.076-0.828,1.423c0.507,0.952,0.99,1.858,1.541,2.891C336.778,368.888,337.11,368.46,337.332,368.175z
					 M367.139,432.651c-0.729-2.454-1.458-4.909-2.186-7.363c-0.11,0.036-0.219,0.073-0.329,0.109
					C364.665,428.078,365.983,430.364,367.139,432.651z M331.952,370.862c-0.934,0.397-1.123,0.98-0.541,1.844
					c0.269,0.399,0.43,0.868,0.637,1.299C333.22,373.204,333.218,372.089,331.952,370.862z M335.624,286.729
					c-1.574,0.184-1.711,0.367-1.552,2.014C335.114,288.511,335.776,287.976,335.624,286.729z M389.361,342.425
					c-0.036,0.101-0.072,0.203-0.107,0.304c1.343,0.427,2.686,0.854,4.028,1.28c0.042-0.141,0.083-0.282,0.125-0.423
					C392.058,343.2,390.71,342.813,389.361,342.425z M328.256,377.318c-0.381-0.699-0.679-1.246-1.001-1.838
					c-0.758,0.88,0.166,1.478,0.246,2.332C327.893,377.555,328.165,377.377,328.256,377.318z M332.465,289.865
					c1.21-0.401,0.405-1.347,0.766-2.124c-0.525,0.218-0.861,0.358-1.175,0.489C332.199,288.802,332.325,289.307,332.465,289.865z
					 M325.129,379.651c0.818-0.924,0.051-1.491-0.039-2.219C323.832,378.227,324.935,378.815,325.129,379.651z M428.016,195.352
					c-0.382-0.129-1.046-0.295-1.655-0.576c-0.639-0.295-0.616-0.343-0.792,0.576C426.489,195.352,427.396,195.352,428.016,195.352z
					 M337.746,286.132c-1.269-0.102-1.393,0.077-0.906,1.502C337.125,287.162,337.41,286.69,337.746,286.132z M339.832,286.309
					c0.176,0.074,0.351,0.147,0.527,0.221c0.189-0.321,0.378-0.642,0.567-0.964c-0.209-0.117-0.418-0.235-0.627-0.352
					C340.144,285.579,339.988,285.944,339.832,286.309z M343.651,285.567c0.096,0.056,0.192,0.113,0.288,0.169
					c0.235-0.369,0.47-0.737,0.786-1.232C343.54,284.511,343.539,284.513,343.651,285.567z"/>
				<path d="M457.538,361.146c-0.34,0.117-0.675,0.32-1.019,0.336c-1.147,0.055-2.299,0.009-3.447,0.064
					c-3.577,0.172-7.151,0.389-10.728,0.557c-5.1,0.239-10.204,0.412-15.303,0.687c-3.013,0.163-6.018,0.466-9.025,0.713
					c-0.221,0.018-0.436,0.096-0.632,0.356c0.359,0,0.718,0.001,1.077,0c2.466-0.008,4.932,0,7.398-0.03
					c2.568-0.031,5.136-0.081,7.702-0.152c5.506-0.153,11.01-0.35,16.517-0.471c1.42-0.031,2.846,0.15,4.268,0.239
					c0.136,0.009,0.297,0.025,0.397,0.102c0.2,0.154,0.365,0.352,0.544,0.532c-0.25,0.114-0.502,0.329-0.751,0.325
					c-1.596-0.025-3.193-0.165-4.787-0.143c-3.194,0.044-6.386,0.182-9.58,0.256c-3.267,0.076-6.534,0.129-9.801,0.18
					c-4.132,0.065-8.271,0.007-12.395,0.224c-2.154,0.114-4.281,0.721-6.426,1.063c-0.282,0.045-0.605-0.166-0.91-0.259
					c0.151-0.23,0.251-0.583,0.461-0.666c0.723-0.286,1.484-0.477,2.195-0.925c-0.602,0.068-1.207,0.203-1.806,0.181
					c-0.409-0.015-0.81-0.25-1.214-0.387c0.326-0.228,0.635-0.622,0.982-0.659c4.107-0.428,8.216-0.831,12.33-1.183
					c3.981-0.341,7.964-0.679,11.953-0.903c3.951-0.222,7.91-0.328,11.866-0.432c2.181-0.057,4.365,0.003,6.548-0.01
					c0.894-0.005,1.787-0.082,2.681-0.089c0.284-0.002,0.57,0.113,0.855,0.175C457.505,360.934,457.521,361.04,457.538,361.146z"/>
				<path d="M454.279,366.598c-1.037,0.062-2.074,0.126-3.111,0.185c-6.171,0.357-12.341,0.734-18.514,1.059
					c-3.19,0.168-6.389,0.185-9.578,0.376c-2.243,0.134-4.474,0.463-6.714,0.659c-0.311,0.027-0.645-0.207-0.968-0.32
					c0.248-0.223,0.479-0.617,0.746-0.643c3.074-0.295,6.152-0.561,9.233-0.777c1.801-0.126,3.61-0.12,5.413-0.221
					c5.154-0.287,10.305-0.614,15.46-0.894c2.247-0.122,4.499-0.189,6.749-0.234c0.438-0.009,0.881,0.201,1.322,0.309
					C454.304,366.266,454.291,366.432,454.279,366.598z"/>
				<path d="M452.085,369.012c-0.403,0.038-0.808,0.129-1.207,0.106c-4.007-0.234-7.977,0.127-11.949,0.608
					c-1.405,0.17-2.844,0.049-4.267,0.1c-3.116,0.113-6.236,0.169-9.343,0.406c-2.103,0.161-4.182,0.603-6.277,0.884
					c-0.297,0.04-0.622-0.117-0.934-0.183c0.226-0.197,0.423-0.508,0.682-0.572c3.211-0.791,6.47-1.185,9.785-1.237
					c2.676-0.043,5.349-0.24,8.023-0.39c4.053-0.228,8.104-0.491,12.158-0.699c0.828-0.042,1.671,0.059,2.496,0.169
					c0.322,0.043,0.615,0.295,0.921,0.451C452.144,368.774,452.115,368.893,452.085,369.012z"/>
				<path d="M420.394,373.361c-0.116-0.065-0.258-0.106-0.344-0.198c-0.22-0.234-0.415-0.49-0.619-0.737
					c0.275-0.179,0.532-0.472,0.829-0.518c1.198-0.189,2.405-0.359,3.615-0.433c4.717-0.29,9.435-0.6,14.157-0.787
					c3.916-0.155,7.838-0.149,11.757-0.21c0.743-0.012,1.486-0.002,2.228-0.002c0.019,0.168,0.039,0.336,0.058,0.504
					c-0.6,0.139-1.195,0.379-1.799,0.4c-3.845,0.137-7.693,0.191-11.537,0.342c-3.467,0.136-6.93,0.363-10.395,0.543
					c-2.012,0.105-4.027,0.163-6.036,0.314c-0.658,0.05-1.299,0.326-1.948,0.499C420.371,373.172,420.383,373.266,420.394,373.361z"
					/>
				<path d="M450.404,373.725c-1.423,0.08-2.845,0.183-4.269,0.236c-3.156,0.118-6.321,0.099-9.466,0.343
					c-3.388,0.263-6.759,0.753-10.134,1.171c-0.581,0.072-1.14,0.342-1.72,0.389c-0.302,0.025-0.628-0.236-0.943-0.368
					c0.261-0.243,0.5-0.666,0.788-0.701c4.895-0.595,9.788-1.242,14.7-1.662c2.866-0.245,5.765-0.108,8.649-0.146
					c0.451-0.006,0.904-0.068,1.35-0.031c0.363,0.03,0.716,0.17,1.073,0.261C450.423,373.387,450.414,373.556,450.404,373.725z"/>
				<path d="M426.235,377.376c1.589-0.288,3.167-0.72,4.769-0.837c5.187-0.378,10.381-0.656,15.575-0.925
					c0.555-0.029,1.126,0.256,1.69,0.395c-0.258,0.923-1.06,0.493-1.573,0.521c-4.018,0.222-8.046,0.296-12.061,0.559
					c-2.276,0.149-4.532,0.582-6.8,0.858c-0.518,0.063-1.05,0.009-1.575,0.009C426.252,377.763,426.244,377.57,426.235,377.376z"/>
				<path d="M447.619,378.095c-0.556,0.068-1.111,0.154-1.67,0.201c-3.042,0.257-6.087,0.487-9.128,0.76
					c-2.112,0.19-4.221,0.415-6.327,0.666c-0.575,0.068-1.126,0.321-1.7,0.418c-0.29,0.049-0.608-0.061-0.913-0.099
					c0.189-0.247,0.338-0.66,0.572-0.714c1.317-0.307,2.645-0.602,3.986-0.763c3.623-0.434,7.252-0.833,10.885-1.169
					c1.128-0.104,2.28,0.014,3.418,0.077c0.307,0.017,0.604,0.204,0.905,0.312C447.638,377.887,447.628,377.991,447.619,378.095z"/>
				<path d="M399.415,233.323c-4.099,4.086-8.065,8.041-12.042,11.986c-0.056,0.056-0.253-0.027-0.398-0.047
					C388.178,242.641,397.886,233.13,399.415,233.323z"/>
				<path d="M380.066,242.298c3.967-4.6,8.38-8.754,12.899-12.802c0.128,0.096,0.255,0.191,0.383,0.287
					c-0.108,0.224-0.163,0.503-0.332,0.663c-3.717,3.512-7.45,7.007-11.171,10.514c-0.536,0.505-1.028,1.055-1.541,1.585
					C380.225,242.462,380.146,242.38,380.066,242.298z"/>
				<path d="M383.488,242.929c4.288-4.083,8.575-8.165,12.863-12.248c0.047,0.014,0.095,0.028,0.142,0.042
					c-0.222,0.415-0.368,0.899-0.679,1.232c-1.905,2.036-3.776,4.111-5.8,6.027c-1.724,1.632-3.635,3.071-5.471,4.587
					c-0.271,0.223-0.583,0.397-0.876,0.594C383.607,243.085,383.547,243.007,383.488,242.929z"/>
				<path d="M380.041,238.986c2.133-2.875,4.802-5.134,7.691-7.18c1.542-1.092,2.887-2.455,4.34-3.673
					c0.192-0.161,0.498-0.189,0.751-0.279c-0.013,0.27,0.08,0.625-0.059,0.794c-0.434,0.528-0.91,1.044-1.452,1.46
					c-3.179,2.443-6.389,4.845-9.569,7.287C381.13,237.867,380.606,238.453,380.041,238.986z"/>
				<path d="M485.036,248.956c-1.855,0.639-3.692,0.524-5.509,0.392c-2.975-0.216-5.941-0.537-8.914-0.782
					c-1.161-0.096-2.331-0.098-3.495-0.161c-0.141-0.008-0.276-0.127-0.459-0.216C467.512,247.694,483.204,248.37,485.036,248.956z"
					/>
				<path d="M445.832,379.835c-0.915,0.144-1.826,0.315-2.745,0.428c-3.471,0.429-6.944,0.843-10.418,1.244
					c-0.191,0.022-0.402-0.127-0.603-0.196c0.166-0.174,0.307-0.461,0.503-0.505c1.656-0.367,3.309-0.781,4.988-1.002
					c2.167-0.285,4.355-0.425,6.537-0.58c0.571-0.04,1.155,0.097,1.733,0.153C445.828,379.53,445.83,379.682,445.832,379.835z"/>
				<path d="M441.2,386.049c0.3,0.086,0.638,0.182,0.977,0.279c0.012,0.096,0.023,0.191,0.035,0.287
					c-0.574,0.225-1.149,0.449-2.042,0.798c0.83,0.058,1.361,0.096,2.042,0.143c-1.581,1.505-2.867,1.253-3.74-0.649
					c0.529-0.212,1.054-0.423,1.578-0.634c-0.007-0.048-0.014-0.097-0.021-0.145c-0.678,0.105-1.354,0.264-2.036,0.292
					c-0.311,0.013-0.632-0.234-0.948-0.363c0.232-0.223,0.443-0.608,0.7-0.642c1.613-0.209,3.234-0.363,4.857-0.474
					c0.262-0.018,0.545,0.27,0.818,0.417c-0.244,0.124-0.475,0.29-0.734,0.362C442.189,385.859,441.675,385.946,441.2,386.049z"/>
				<path d="M452.843,346.208c1.676-1.242,11.602-3.198,13.403-2.696c-0.707,0.314-1.149,0.609-1.632,0.707
					c-1.899,0.384-3.811,0.703-5.717,1.052c-1.772,0.324-3.54,0.663-5.314,0.977C453.347,346.29,453.091,346.224,452.843,346.208z"
					/>
				<path d="M487.231,246.759c-0.518,0.132-1.037,0.384-1.554,0.378c-4.006-0.049-7.94-0.67-11.847-1.511
					c-1.554-0.335-3.133-0.558-4.69-0.931c6.001,0.629,12.003,1.258,18.004,1.887C487.173,246.641,487.202,246.7,487.231,246.759z"
					/>
				<path d="M445.302,381.716c-3.968,0.793-8.036,0.838-12.018,1.533c-0.066-0.142-0.132-0.283-0.198-0.425
					c0.228-0.21,0.437-0.578,0.686-0.606c3.441-0.388,6.886-0.738,10.333-1.07c0.384-0.037,0.785,0.092,1.178,0.143
					C445.29,381.433,445.296,381.574,445.302,381.716z"/>
				<path d="M467.471,341.014c-0.383,0.211-0.744,0.541-1.152,0.612c-1.874,0.326-3.763,0.562-5.641,0.865
					c-1.462,0.236-2.913,0.536-4.374,0.775c-0.286,0.047-0.596-0.057-0.896-0.092c0.221-0.213,0.411-0.56,0.668-0.617
					c1.855-0.414,3.716-0.811,5.589-1.131c1.866-0.319,3.748-0.543,5.624-0.809C467.349,340.749,467.41,340.882,467.471,341.014z"/>
				<path d="M401.044,236.092c-1.316,1.352-2.642,2.691-3.941,4.055c-1.425,1.498-2.816,3.027-4.245,4.522
					c-0.279,0.292-0.658,0.49-1.06,0.62C393.07,242.631,399.464,236.105,401.044,236.092z"/>
				<path d="M483.393,253.626c-4.535,0-9.07,0-13.892,0C470.892,252.627,482.291,252.612,483.393,253.626z"/>
				<path d="M435.181,384.744c0.301-1.306,1.403-0.986,2.101-1.068c2.13-0.252,4.286-0.29,6.433-0.397
					c0.152-0.008,0.309,0.097,0.782,0.256c-0.574,0.277-0.889,0.535-1.231,0.575c-1.134,0.134-2.279,0.181-3.418,0.278
					c-1.268,0.109-2.534,0.24-3.802,0.352C435.781,384.764,435.512,384.744,435.181,384.744z"/>
				<path d="M480.534,256.463c-2.824,0.334-5.646,0.68-8.472,0.986c-0.285,0.031-0.596-0.17-0.895-0.263
					c0.262-0.205,0.502-0.551,0.789-0.594c1.915-0.285,3.835-0.598,5.765-0.707c0.955-0.054,1.933,0.308,2.901,0.481
					C480.592,256.399,480.563,256.431,480.534,256.463z"/>
				<path d="M473.329,260.726c1.246-1.155,6.415-1.594,7.969-0.661c-2.656,0.322-5.287,0.642-7.918,0.961
					C473.363,260.926,473.346,260.826,473.329,260.726z"/>
				<path d="M400.644,239.646c-1.586,1.687-3.081,3.276-4.754,5.055C395.983,243.328,399.326,239.899,400.644,239.646z"/>
				<path d="M478.451,264.714c-1.734,0.133-3.468,0.267-5.202,0.4c-0.007-0.131-0.014-0.262-0.021-0.393
					C474.957,264.442,476.663,263.654,478.451,264.714z"/>
				<path d="M427.496,193.657c-0.656-0.822-0.647-0.861,0.264-1.46c-0.085-0.417-0.162-0.794-0.239-1.171
					c0.401-0.024,0.806-0.1,1.201-0.063c1.375,0.127,2.747,0.293,4.12,0.445c0.014-0.083,0.028-0.166,0.042-0.249
					c-1.408-0.239-2.816-0.478-4.224-0.717c-0.013-0.174-0.025-0.347-0.038-0.521c0.451-0.096,0.909-0.297,1.353-0.271
					c2.129,0.124,4.255,0.31,6.382,0.474c0.015-0.123,0.03-0.245,0.044-0.368c-0.497-0.074-0.992-0.163-1.49-0.218
					c-0.552-0.061-1.113-0.059-1.661-0.14c-0.924-0.137-1.85-0.285-2.756-0.507c-0.22-0.054-0.365-0.409-0.545-0.626
					c0.232-0.114,0.475-0.345,0.694-0.325c2.138,0.194,4.274,0.407,6.405,0.668c0.729,0.089,0.752,0.601,0.089,1.378
					c0.358,0.123,0.711,0.244,0.991,0.341c0.065,0.843,0.124,1.62,0.168,2.19c0.335,0.408,0.564,0.685,0.792,0.963
					c-0.35,0.167-0.703,0.482-1.051,0.478c-2.671-0.036-5.341-0.131-8.011-0.215c-0.857-0.027-1.713-0.074-2.566-0.109
					C427.464,193.638,427.496,193.657,427.496,193.657z M432.9,192.637c-0.001,0.047-0.002,0.095-0.003,0.142
					c1.491,0,2.982,0,4.473,0c0.003-0.047,0.006-0.095,0.009-0.142C435.885,192.637,434.392,192.637,432.9,192.637z"/>
				<path d="M435.875,188.048c-1.678-0.227-3.359-0.435-5.03-0.705c-0.191-0.031-0.326-0.405-0.487-0.62
					c0.273-0.164,0.56-0.489,0.817-0.466c1.687,0.145,3.373,0.333,5.047,0.585c0.399,0.06,1.058,0.404,1.07,0.644
					c0.04,0.771-0.684,0.394-1.096,0.494c-0.098,0.024-0.207,0.004-0.311,0.004C435.882,188.006,435.879,188.027,435.875,188.048z"
					/>
				<path d="M437.026,186.448c-1.723-0.283-3.449-0.552-5.166-0.872c-0.185-0.035-0.313-0.368-0.468-0.562
					c0.281-0.15,0.582-0.457,0.839-0.425c1.365,0.17,2.728,0.387,4.071,0.677c0.365,0.079,0.66,0.472,0.987,0.721
					C437.202,186.141,437.114,186.295,437.026,186.448z"/>
				<path d="M432.338,183.276c0.333-0.131,0.68-0.398,0.997-0.367c1.103,0.107,2.2,0.293,3.287,0.508
					c0.232,0.046,0.413,0.344,0.618,0.525c-0.244,0.144-0.507,0.436-0.73,0.409c-1.365-0.167-2.722-0.406-4.081-0.621
					C432.399,183.579,432.369,183.427,432.338,183.276z"/>
				<path d="M437.054,182.601c-1.08-0.129-1.885-0.141-2.632-0.353c-0.32-0.091-0.756-0.621-0.725-0.909
					c0.069-0.652,0.528-0.419,1.001-0.257c0.713,0.244,1.498,0.275,2.22,0.5c0.318,0.099,0.555,0.453,0.829,0.692
					C437.438,182.42,437.129,182.565,437.054,182.601z"/>
				<path d="M437.902,180.899c-1.342,0.543-2.903-0.03-2.937-1.332c1.069,0.345,2.054,0.663,3.039,0.981
					C437.97,180.665,437.936,180.782,437.902,180.899z"/>
				<path d="M439.1,179.595c-1.14-0.331-1.945-0.534-2.723-0.812c-0.2-0.071-0.374-0.365-0.434-0.59
					c-0.024-0.088,0.344-0.413,0.455-0.38c0.79,0.24,1.573,0.517,2.326,0.851C438.882,178.735,438.908,179.094,439.1,179.595z"/>
				<path d="M437.044,175.865c0.879,0.169,1.568,0.28,2.242,0.45c0.138,0.035,0.279,0.285,0.306,0.454
					c0.021,0.128-0.099,0.343-0.22,0.417C438.846,177.511,437.395,176.84,437.044,175.865z"/>
				<path d="M353.292,282.014c-0.361-0.307-0.611-0.519-0.861-0.731c0.103,0.014,0.206,0.029,0.308,0.043
					c0.939-2.674,1.88-5.347,2.815-8.022c0.295-0.843,0.559-1.697,0.865-2.536c0.059-0.163,0.245-0.282,0.372-0.421
					c0.152,0.162,0.409,0.309,0.434,0.488c0.061,0.433,0.127,0.919-0.01,1.316c-0.974,2.823-1.982,5.635-3.022,8.435
					C354.012,281.076,353.628,281.493,353.292,282.014z"/>
				<path d="M354.096,270.916c0.962,0.509,0.69,1.221,0.525,1.733c-0.85,2.641-1.776,5.258-2.706,7.873
					c-0.065,0.182-0.374,0.28-0.57,0.416c-0.084-0.263-0.297-0.564-0.232-0.784c0.661-2.228,1.359-4.446,2.066-6.66
					C353.447,272.659,353.766,271.84,354.096,270.916z"/>
				<path d="M352.428,272.287c-0.068,0.914,0.043,1.888-0.242,2.731c-0.601,1.78-1.385,3.502-2.158,5.219
					c-0.123,0.273-0.579,0.399-0.881,0.592c0.028-0.35-0.013-0.723,0.094-1.048c0.714-2.174,1.455-4.339,2.197-6.504
					c0.125-0.364,0.294-0.714,0.442-1.07C352.063,272.234,352.245,272.26,352.428,272.287z"/>
				<path d="M347.357,279.672c0.03-0.411-0.033-0.856,0.106-1.226c0.639-1.699,1.334-3.377,2.008-5.063
					c0.064-0.16,0.081-0.352,0.182-0.48c0.177-0.223,0.403-0.409,0.608-0.61c0.117,0.284,0.355,0.578,0.331,0.85
					c-0.169,1.958-1.043,3.684-1.938,5.392c-0.241,0.46-0.578,0.871-0.87,1.305C347.642,279.783,347.499,279.727,347.357,279.672z"
					/>
				<path d="M345.696,279.64c-0.468-0.601,1.473-6.023,2.355-6.582C348.59,274.284,347.086,278.485,345.696,279.64z"/>
				<path d="M343.76,279.411c0.74-2.179,1.4-4.12,2.123-6.248C346.751,274.914,345.53,278.714,343.76,279.411z"/>
				<path d="M344.275,274.162c-0.188,0.863-0.285,1.759-0.59,2.579c-0.282,0.756-0.764,1.445-1.213,2.129
					c-0.108,0.164-0.435,0.188-0.661,0.276c-0.063-0.214-0.239-0.474-0.171-0.633c0.574-1.349,1.183-2.684,1.808-4.011
					c0.087-0.185,0.319-0.302,0.484-0.451C344.046,274.088,344.161,274.125,344.275,274.162z"/>
				<path d="M336.844,275.853c0,0.459,0,0.919,0,1.631c0.639-0.78,1.15-1.405,1.661-2.029c0.089,0.07,0.177,0.139,0.266,0.209
					c0.005,1.082-0.717,1.819-1.442,2.517c-0.14,0.135-0.553-0.008-1.047-0.034c0.012-0.017-0.106,0.217-0.291,0.376
					c-0.103,0.088-0.353,0.116-0.468,0.052c-0.109-0.061-0.218-0.32-0.171-0.421c0.381-0.814,0.799-1.611,1.206-2.413
					C336.653,275.778,336.749,275.815,336.844,275.853z"/>
				<path d="M342.663,275.558c-0.454,1.008-0.827,1.962-1.321,2.849c-0.131,0.234-0.637,0.265-0.97,0.389
					c0.023-0.289-0.021-0.605,0.083-0.862c0.36-0.888,0.749-1.766,1.18-2.622c0.098-0.194,0.41-0.283,0.624-0.421
					C342.387,275.104,342.517,275.317,342.663,275.558z"/>
				<path d="M340.355,274.865c0.468,1.022-0.207,3.035-0.923,3.497c-0.2,0.129-0.496,0.112-0.748,0.162
					c-0.012-0.222-0.113-0.49-0.023-0.659C339.201,276.853,339.786,275.863,340.355,274.865z"/>
				<path d="M331.887,279.475c0.325-0.736,0.649-1.471,0.974-2.207c0.103,0.04,0.206,0.079,0.308,0.119
					c-0.278,0.755-0.555,1.509-0.833,2.264C332.187,279.592,332.037,279.533,331.887,279.475z"/>
				<path d="M390.073,349.796c-1.712-0.31-3.43-0.597-5.136-0.94c-0.879-0.176-1.747-0.423-2.599-0.698
					c-0.264-0.085-0.461-0.37-0.688-0.564c0.268-0.167,0.549-0.493,0.8-0.471c0.678,0.058,1.349,0.239,2.011,0.414
					c1.665,0.44,3.324,0.903,4.984,1.36c0.478,0.131,0.878,0.32,0.599,0.932C390.043,349.83,390.073,349.796,390.073,349.796z"/>
				<path d="M380.95,352.336c-0.107-0.672,0.384-1.001,0.979-0.905c1.601,0.258,3.184,0.628,4.767,0.982
					c0.15,0.034,0.252,0.271,0.377,0.414c-0.168,0.138-0.344,0.402-0.502,0.392c-0.753-0.05-1.505-0.156-2.251-0.278
					C383.239,352.764,382.162,352.555,380.95,352.336z"/>
				<path d="M382.753,356.827c-0.595,1.23-2.725,2.023-4.606,1.771C378.858,356.787,380.236,356.242,382.753,356.827z"/>
				<path d="M380.111,353.726c0.441-1.075,3.877-0.843,5.114,0.267C384.632,354.688,384.258,354.67,380.111,353.726z"/>
				<path d="M379.455,355.507c0.753-1.204,3.241-1.014,4.419,0.331C382.307,356.223,380.954,355.707,379.455,355.507z"/>
				<path d="M341.944,344.98c1.135-0.005,1.615,0.678,1.909,1.544c-0.089,0.088-0.178,0.176-0.267,0.263
					C343.039,346.185,342.491,345.582,341.944,344.98z"/>
				<path d="M341.131,332.354c-0.192,0.175-0.435,0.528-0.566,0.491c-0.377-0.106-0.708-0.369-1.166-0.633
					c0.752-0.8,1.237-0.066,1.766,0.179L341.131,332.354z"/>
			</g>
		</g>
		<g>
			<g id="BQya7J_5_">
				<g>
					<path d="M453.596,330.211c-1.992,0.706-3.737,1.308-5.468,1.943c-1.734,0.636-3.457,1.303-5.183,1.963
						c-0.273,0.104-0.525,0.281-0.804,0.353c-1.27,0.331-1.169,0.285-1.526-0.991c-0.319-1.141-0.846-2.244-1.413-3.293
						c-1.231-2.279-2.536-4.519-3.837-6.76c-0.243-0.419-0.61-0.766-0.92-1.147c-0.123,0.073-0.247,0.146-0.37,0.218
						c0.392,0.866,0.731,1.762,1.186,2.593c1.089,1.989,2.424,3.866,3.306,5.939c1.105,2.597,1.859,5.34,1.853,8.226
						c-0.005,2.636,0.057,5.273,0.038,7.909c-0.006,0.938-0.267,1.88-0.224,2.812c0.026,0.556,0.068,1.111,0.118,1.666
						c0.114-0.109,0.229-0.217,0.341-0.327c0.228-0.184,0.462-0.356,0.696-0.525c0.008-1.139,0.122-2.285,0.169-3.426
						c0.025-0.602,0.067-1.204,0.105-1.872c0.606,1.366,1.136,2.739,1.588,4.125c0.278-0.15,0.56-0.289,0.846-0.422
						c-0.387-0.814-0.501-1.81-0.822-2.937c2.004,1.139,3.41,0.999,4.843-0.311c0.502-0.459,0.901-1.044,0.476-1.706
						c-0.194-0.302-0.681-0.492-1.064-0.555c-0.131-0.022-0.352,0.496-0.596,0.862c-0.309-0.694-0.922-1.285-0.038-2.009
						c0.133-0.109,0.225-0.507,0.149-0.582c-0.152-0.15-0.429-0.187-0.662-0.236c-0.284-0.06-0.781-0.015-0.821-0.137
						c-0.096-0.287-0.058-0.685,0.075-0.969c0.301-0.642,0.308-1.203-0.303-1.618c-0.518-0.352-1.778-0.082-2.161,0.414
						c-0.488,0.63-0.488,1.267,0.076,1.84c0.334,0.34,0.733,0.615,1.025,0.856c-0.209,0.346-0.382,0.635-0.556,0.924
						c0.296,0.121,0.586,0.262,0.89,0.36c0.669,0.216,1.212,1.627,0.892,2.605c-0.341-0.43-0.584-1.027-0.939-1.104
						c-0.353-0.076-0.819,0.371-1.018,0.475c-0.541-0.564-1.145-1.159-1.701-1.796c-0.143-0.164-0.177-0.459-0.186-0.696
						c-0.048-1.291-0.059-2.583-0.111-3.873c-0.027-0.67,0.085-1.271,0.767-1.542c2.427-0.964,4.865-1.903,7.301-2.844
						c0.143-0.055,0.312-0.042,0.528-0.067c0.167,1.353,0.31,2.662,0.493,3.965c0.221,1.577,0.465,3.151,0.717,4.723
						c0.047,0.292,0.09,0.584,0.134,0.876c0.748-0.949,1.503-1.893,2.265-2.831c-0.497,0.385-1.007,0.764-1.55,1.126
						c-0.304-2.722-0.588-5.196-0.85-7.672c-0.057-0.539,0.241-0.817,0.776-0.936c0.889-0.199,1.781-0.412,2.639-0.712
						c0.302-0.105,0.764-0.557,0.716-0.723c-0.239-0.822,0.3-1.132,0.812-1.461c0.491-0.317,1.039-0.547,1.528-0.867
						c0.424-0.277,0.801-0.627,1.199-0.944c-0.095-0.141-0.191-0.282-0.286-0.422c-1.139,0.671-2.277,1.341-3.41,2.009
						c-0.794-0.765-0.764-1.38,0.135-1.95c0.798-0.506,1.641-0.94,2.439-1.445c0.353-0.223,0.646-0.54,0.967-0.814
						c-0.065-0.101-0.131-0.202-0.196-0.303c-1.478,0.75-2.956,1.5-4.49,2.279c-0.161-0.358-0.315-0.7-0.485-1.078
						c1.739-1.085,3.398-2.12,5.057-3.155c-0.054-0.095-0.107-0.19-0.161-0.285c-0.182,0.03-0.392,0.013-0.542,0.099
						c-1.265,0.727-2.512,1.488-3.784,2.204c-0.272,0.153-0.622,0.167-0.936,0.244c0.044-0.327-0.031-0.784,0.156-0.957
						c0.583-0.542,1.251-0.998,1.914-1.447c0.668-0.453,1.37-0.857,2.056-1.283c-0.05-0.08-0.101-0.161-0.151-0.241
						c-1.754,0.49-3.223,1.503-4.644,2.788c-0.248-0.549-0.441-0.976-0.667-1.476c1.935-1.346,3.799-2.642,5.663-3.938
						c-2.452,0.2-4.039,2.027-5.937,3.226c-0.814-1.05-0.881-1.328,0.013-2.031c0.959-0.755,2.068-1.322,3.125-1.948
						c0.572-0.339,1.171-0.631,1.758-0.945c-0.054-0.126-0.108-0.252-0.162-0.378c-1.033,0.393-2.131,0.671-3.079,1.212
						c-0.998,0.57-1.853,1.391-2.861,2.173c-0.234-0.42-0.463-0.829-0.609-1.091c1.468-2.453,4.22-2.838,6.169-4.407
						c-2.603,0.425-4.663,1.894-6.755,3.407c-0.144-0.16-0.31-0.313-0.438-0.492c-0.741-1.03-1.359-2.178-2.231-3.078
						c-1.782-1.839-3.683-3.564-5.572-5.295c-0.526-0.482-0.491-0.767,0.083-1.1c0.733-0.426,1.43-0.923,2.192-1.286
						c1.609-0.766,2.813-2.297,4.691-2.407c-1.554-1.317-3.12-2.571-4.597-3.922c-0.282-0.258-0.549-0.532-0.791-0.821
						c-0.146,0.026-0.291,0.053-0.437,0.079c0.189,0.375,0.373,0.738,0.594,1.175c-2.525,1.027-4.857,2.311-6.575,4.442
						c0.033,0.085,0.066,0.169,0.099,0.254c0.246-0.05,0.555-0.024,0.726-0.165c0.81-0.665,1.534-1.441,2.38-2.052
						c0.858-0.619,1.8-1.133,2.744-1.619c1.222-0.629,1.699-0.464,2.716,0.832c-2.607,1.101-5.014,2.499-7.234,4.403
						c-0.894-0.485-1.893-1.026-3.068-1.662c-0.225-0.558-0.44-0.914-0.69-1.067c-0.454,0.192-0.912,0.377-1.374,0.552
						c-0.036,0.035-0.071,0.067-0.108,0.104c-0.008-0.018-0.015-0.035-0.024-0.053c-0.273,0.103-0.549,0.201-0.825,0.298
						c0.153,0.224,0.308,0.422,0.466,0.582c-1.417,0.912-2.707,2.031-4.203,2.65c-3.758,1.556-7.655,2.096-11.586,0.547
						c-1.681-0.663-3.445-1.262-4.202-3.191c-0.085-0.216-0.512-0.498-0.686-0.444c-0.718,0.222-1.515,0.423-2.071,0.885
						c-1.615,1.344-3.034,2.936-4.701,4.205c-3.716,2.828-6.95,6.079-9.465,10.02c-0.676,1.06-1.497,2.109-1.837,3.284
						c-0.541,1.868-0.494,1.889,1.061,2.775c1.316,0.75,2.595,1.594,3.78,2.535c1.985,1.574,3.894,3.243,5.811,4.901
						c0.85,0.735,1.825,1.387,2.325,2.793c-0.513-0.247-0.835-0.33-1.062-0.524c-1.138-0.972-2.241-1.984-3.376-2.96
						c-1.406-1.21-2.81-2.425-4.254-3.589c-1.301-1.049-2.652-2.037-3.993-3.036c-0.132-0.098-0.386-0.155-0.517-0.093
						c-0.097,0.046-0.178,0.393-0.109,0.477c0.498,0.609,1.035,1.186,1.561,1.771c0.214,0.238,0.628,0.481,0.618,0.706
						c-0.085,1.842-0.296,3.678-0.377,5.519c-0.107,2.436-0.194,4.876-0.177,7.313c0,0.004,0,0.008,0,0.013
						c0.373,0.122,0.745,0.253,1.112,0.406c0.042,0.018,0.084,0.036,0.126,0.054c-0.035-2.361-0.093-4.722-0.116-7.083
						c-0.018-1.91,0.019-3.82,0.032-5.731c0.142-0.068,0.283-0.136,0.425-0.204c2.915,2.568,5.83,5.136,8.742,7.7
						c-0.874,1.71-0.866,3.613-0.915,5.485c-0.03,1.146-0.042,2.292-0.056,3.439c0.343,0.161,0.686,0.323,1.029,0.485
						c0.08-2.963,0.161-5.927,0.241-8.89c0.156-0.046,0.312-0.092,0.468-0.138c0.223,0.279,0.601,0.537,0.644,0.841
						c0.426,3.038,0.806,6.083,0.651,9.147c0.33,0.16,0.659,0.322,0.988,0.484c0.037-0.446,0.077-0.892,0.103-1.338
						c0.166-2.896-0.495-5.83-0.615-8.753c-0.11-2.68,0.402-5.286,1.318-7.834c1.106-3.076,2.546-5.972,4.198-8.78
						c0.144-0.245-0.053-0.691-0.092-1.043l-0.507-0.049c-1.213,2.22-2.58,4.372-3.596,6.678c-1.001,2.273-1.646,4.703-2.422,6.988
						c-4.433-2.424-7.373-6.943-12.233-9.224c0.702-1.277,1.358-2.512,2.052-3.725c1.365-2.384,2.995-4.548,5.118-6.334
						c2.035-1.712,4.039-3.466,5.99-5.272c0.848-0.785,1.531-1.749,2.289-2.632l0.447,0.234c0.245,0.602,0.439,1.233,0.745,1.802
						c0.722,1.341,2.034,2.066,3.328,2.604c1.778,0.739,3.648,1.418,5.541,1.684c4.016,0.564,7.787-0.427,11.284-2.467
						c0.476-0.278,0.986-0.497,1.461-0.777c1.288-0.759,2.041-1.938,2.48-3.355C444.659,312.345,449.676,320.728,453.596,330.211z
						 M453.967,331.289c0.158-0.028,0.481,0.147,0.51,0.277c0.043,0.197-0.038,0.529-0.187,0.636
						c-0.251,0.18-0.592,0.239-0.902,0.329c-2.273,0.661-4.564,1.267-6.817,1.993c-1.388,0.448-2.715,1.082-4.074,1.622
						c-0.318,0.126-0.653,0.209-0.98,0.311c-0.037-0.083-0.075-0.166-0.112-0.248c1.128-0.582,2.22-1.254,3.393-1.727
						c2.407-0.97,4.853-1.845,7.293-2.73C452.695,331.534,453.334,331.401,453.967,331.289z M439.915,307.114
						c1.637-0.974,3.293-1.925,4.991-2.788c0.888-0.451,1.491,0.247,2.041,0.753c-1.986,1.207-3.892,2.365-5.797,3.523
						c-0.028,0.017-0.051,0.046-0.081,0.054c-0.73,0.199-1.591,0.996-2.159,0.024C438.448,307.89,439.351,307.449,439.915,307.114z
						 M433.614,307.886c-0.556,0.824-1.034,1.873-1.832,2.332c-3.859,2.219-7.948,3.835-12.527,3.08
						c-1.683-0.278-3.418-0.731-4.914-1.515c-1.369-0.716-3.08-1.475-2.97-3.564c0.005-0.087,0.055-0.173,0.128-0.384
						c1.894,2.54,4.491,3.424,7.36,4.046c4.648,1.007,8.599-0.561,12.39-2.899c0.808-0.498,1.418-1.32,2.394-2.256
						C433.639,307.283,433.758,307.673,433.614,307.886z"/>
					<path d="M454.62,311.358c1.873,1.631,2.471,3.985,3.159,6.17c0.891,2.829,1.338,5.801,1.93,8.72
						c0.335,1.651,0.651,3.313,0.836,4.986c0.049,0.443,0.067,0.889,0.077,1.337c0.171-0.22,0.346-0.437,0.518-0.656
						c-0.021-0.378-0.047-0.755-0.089-1.131c-0.268-2.418-0.763-4.815-1.254-7.201c-0.373-1.813-0.768-3.639-1.379-5.38
						c-0.724-2.065-1.484-4.17-2.612-6.025c-0.938-1.542-2.389-2.788-3.693-4.084c-0.719-0.715-1.604-1.262-2.415-1.885
						c-0.012,0.023-0.024,0.045-0.037,0.068c1.659,1.699,3.319,3.397,4.978,5.096L454.62,311.358z"/>
					<path d="M453.048,339.689c1.656-1.196,3.304-2.405,4.95-3.615c0.338-0.461,0.677-0.921,1.017-1.38
						c-2.518,1.009-4.424,3.002-6.726,4.754C452.713,339.589,452.962,339.751,453.048,339.689z"/>
					<path d="M452.038,336.581c2.076-1.599,4.143-3.211,6.239-4.783c0.342-0.257,0.815-0.34,1.228-0.503
						c0.034,0.077,0.068,0.153,0.102,0.23c-1.277,0.996-2.563,1.982-3.828,2.992c-0.936,0.747-1.831,1.545-2.776,2.279
						c-0.211,0.164-0.555,0.157-0.838,0.229C452.122,336.877,452.08,336.729,452.038,336.581z"/>
					<path d="M449.11,317.2c0.124-0.504,0.101-0.976,0.29-1.088c1.445-0.854,2.922-1.657,4.414-2.428
						c0.289-0.149,0.687-0.088,1.034-0.123c0.027,0.105,0.054,0.209,0.081,0.314c-0.956,0.44-1.945,0.82-2.858,1.336
						C451.15,315.732,450.306,316.388,449.11,317.2z"/>
					<path d="M454.62,311.358c-1.768,0.952-3.541,1.894-5.299,2.866c-0.333,0.184-0.58,0.521-0.908,0.718
						c-0.253,0.152-0.571,0.194-0.86,0.286c0.116-0.266,0.159-0.66,0.361-0.779c1.478-0.86,2.965-1.714,4.501-2.465
						c0.678-0.332,1.477-0.419,2.223-0.615C454.641,311.371,454.62,311.358,454.62,311.358z"/>
					<path d="M449.863,308.592c-1.536,0.881-3.081,1.746-4.6,2.655c-0.314,0.188-0.501,0.583-0.807,0.796
						c-0.159,0.11-0.45,0.03-0.682,0.036c0.047-0.191,0.03-0.484,0.15-0.557c1.647-1.019,3.307-2.018,4.982-2.991
						c0.251-0.146,0.596-0.128,0.897-0.186C449.824,308.427,449.844,308.51,449.863,308.592z"/>
					<path d="M451.67,310.468c-1.379,0.675-2.768,1.328-4.128,2.039c-0.311,0.163-0.495,0.553-0.783,0.782
						c-0.19,0.151-0.461,0.2-0.696,0.295c-0.028-0.235-0.148-0.514-0.061-0.693c0.102-0.208,0.367-0.36,0.591-0.481
						c1.368-0.736,2.738-1.47,4.125-2.168c0.25-0.126,0.585-0.083,0.88-0.117C451.621,310.239,451.645,310.354,451.67,310.468z"/>
					<path d="M442.632,310.727c-0.264-0.294-0.424-0.471-0.58-0.645c1.92-1.423,3.895-2.574,6.263-2.932
						c-0.967,0.527-1.941,1.041-2.899,1.585C444.46,309.278,443.208,309.383,442.632,310.727z"/>
					<path d="M426.913,337.516c0.166-1.977,0.331-3.954,0.499-5.958c0.851-0.109,1.289,0.486,1.095,1.394
						c-0.273,1.281-0.364,2.6-0.546,3.9c-0.08,0.575-0.153,1.156-0.305,1.713c-0.073,0.268-0.299,0.666-0.492,0.689
						c-0.289,0.033-0.687-0.138-0.902-0.356c-0.513-0.521-0.947-1.121-1.412-1.689c-0.088,0.03-0.175,0.061-0.263,0.091
						c0.156,1.186,0.312,2.371,0.469,3.557c0.033,0.244,0.155,0.513,0.088,0.724c-0.072,0.226-0.287,0.465-0.501,0.559
						c-0.093,0.041-0.433-0.232-0.497-0.418c-0.145-0.425-0.219-0.882-0.268-1.331c-0.168-1.541-0.33-3.082-0.449-4.627
						c-0.02-0.262,0.186-0.541,0.287-0.811c0.338,0.138,0.76,0.192,0.995,0.431c0.476,0.483,0.842,1.073,1.273,1.603
						c0.173,0.213,0.399,0.382,0.601,0.571C426.695,337.544,426.804,337.53,426.913,337.516z"/>
					<path d="M415.54,331.558c-1.077,2.964-1.846,5.998-2.156,9.141c-0.08,0.813-0.023,1.441,1.075,1.533
						c0.958,0.08,1.911,0.365,2.831,0.668c0.349,0.115,0.597,0.536,0.891,0.817c-0.345,0.066-0.71,0.238-1.031,0.177
						c-1.116-0.21-2.216-0.499-3.322-0.762c-1.384-0.329-1.776-1.053-1.594-2.614c0.336-2.88,1.035-5.671,1.917-8.423
						C414.434,331.209,414.715,331.093,415.54,331.558z"/>
					<path d="M435.397,338.408c0.027,1.254-0.755,2.182-2.109,2.502c-1.223,0.289-2.487-0.256-2.923-1.356
						c-0.329-0.829-0.444-1.697-1.281-2.309c-0.558-0.407,0.374-2.057,1.29-2.368C432.835,334.043,435.34,335.805,435.397,338.408z
						 M430.723,337.065c0.225,0.762,0.369,1.56,0.694,2.276c0.426,0.937,1.248,1.057,2.081,0.472
						c0.715-0.502,1.013-1.141,0.903-2.008c-0.128-1.012-0.762-1.653-1.603-2.047C431.414,335.111,430.923,335.469,430.723,337.065z
						"/>
					<path d="M421.493,338.593c0.134,0.884,0.32,1.765,0.373,2.654c0.018,0.297-0.301,0.614-0.466,0.922
						c-0.239-0.236-0.668-0.458-0.685-0.709c-0.11-1.639-0.143-3.285-0.165-4.929c-0.002-0.184,0.225-0.371,0.346-0.556
						c0.245,0.219,0.662,0.41,0.701,0.661c0.098,0.633,0.025,1.292,0.021,1.94C421.577,338.582,421.535,338.588,421.493,338.593z"/>
					<path d="M420.494,334.123c-0.257-0.414-0.599-0.755-0.53-0.897c0.167-0.342,0.525-0.59,0.806-0.876
						c0.292,0.297,0.584,0.594,0.876,0.89C421.319,333.491,420.993,333.741,420.494,334.123z"/>
				</g>
			</g>
			<g id="_x32_FcFjG_4_">
				<g>
					<path d="M451.052,282.236c-0.078-1.279-0.204-2.551-0.317-3.827c-0.093-1.056,0.22-2.101,0.193-3.155
						c-0.056-2.192-0.752-4.8-0.066-6.976c-0.08-1.116-0.038-2.223-0.154-3.34c-0.164-1.576-0.658-2.951-1.141-4.446
						c-0.545-1.688-1.066-3.442-1.5-5.192c-0.192-0.045-0.377-0.153-0.531-0.362c-0.368-0.499-0.748-1.066-1.027-1.669
						c-0.157-0.222-0.308-0.455-0.458-0.69c-0.345,0.101-0.681,0.23-1.023,0.376c-0.003,0.003-0.005,0.006-0.008,0.009
						c-0.709,0.738-1.44,1.456-2.13,2.212c-0.273,0.3-0.456,0.681-0.659,1.082c1.093-0.968,2.185-1.936,3.26-2.888
						c0.329,0.399,0.7,0.75,0.93,1.176c0.091,0.169-0.052,0.592-0.225,0.753c-0.919,0.853-1.882,1.658-2.826,2.485
						c-0.12,0.106-0.214,0.242-0.32,0.364c0.046,0.051,0.092,0.101,0.138,0.152c1.198-0.893,2.395-1.785,3.689-2.75
						c0.242,0.552,0.472,1.046,0.675,1.55c0.28,0.696,0.263,0.691-0.334,1.177c-1.329,1.08-2.649,2.171-3.974,3.256
						c-0.221,0.181-0.311,0.371-0.031,0.653c1.609-1.091,3.227-2.188,4.956-3.361c0.205,0.834,0.354,1.558,0.566,2.263
						c0.147,0.49,0.05,0.791-0.392,1.086c-1.562,1.039-3.099,2.115-4.639,3.187c-0.371,0.258-0.718,0.552-1.21,0.933
						c-0.315-1.712-0.609-3.313-0.904-4.914c0.018-0.02,0.036-0.04,0.054-0.059c0.111,0.155,0.21,0.322,0.338,0.462
						c0.067,0.074,0.185,0.102,0.279,0.15c0.042-0.095,0.128-0.193,0.12-0.283c-0.009-0.106-0.02-0.212-0.029-0.317
						c0.052-0.063,0.087-0.145,0.076-0.257c-0.534-5.829-5.787-10.295-11.216-11.747c-2.131-0.57-9.493-0.675-10.401,2.495
						c-0.029-0.006-0.06-0.007-0.089-0.013c-0.173,0.233-0.313,0.503-0.38,0.864c-0.13,0.699-0.249,1.36-0.092,2.022
						c0.247,1.043,0.588,2.065,0.918,3.087c0.151,0.466,0.028,0.599,0.24,1.055c0.028,0.069,0.104,0.065,0.194,0.03
						c0.407,0.445,1.232,0.155,2.035-0.003c3.409-0.674,5.927,2.173,7.6,4.746c0.399,1.105,0.678,2.251,0.894,3.423
						c0.027,0.148,0.101,0.383,0.189,0.401c0.143,0.03,0.369-0.04,0.468-0.15c0.225-0.251,0.4-0.547,0.583-0.834
						c0.089-0.14,0.148-0.3,0.249-0.508c0.089,0.126,0.15,0.173,0.156,0.226c0.085,0.777,0.201,1.552,0.233,2.332
						c0.06,1.448,0.053,2.899,0.108,4.348c0.031,0.843,0.216,1.688,0.172,2.524c-0.059,1.117-0.24,2.231-0.433,3.335
						c-0.182,1.041-0.453,2.066-0.67,3.102c-0.025,0.12,0.048,0.26,0.075,0.391c0.112-0.046,0.251-0.065,0.329-0.144
						c0.218-0.219,0.423-0.453,0.609-0.7c0.209-0.278,0.391-0.577,0.585-0.866c0.053,0.017,0.106,0.034,0.159,0.051
						c-0.094,0.491-0.14,0.996-0.29,1.469c-0.429,1.357-0.821,2.736-1.376,4.042c-0.615,1.445-1.337,2.853-2.121,4.215
						c-0.71,1.234-1.588,2.369-2.349,3.575c-1.236,1.96-3.045,2.868-5.304,2.893c-0.736,0.008-1.474-0.21-2.213-0.312
						c-1.073-0.148-2.124-0.399-3.06-0.946c-1.536-0.899-2.707-2.17-3.484-3.774c-0.524-1.081-1.002-2.185-1.474-3.291
						c-0.874-2.049-1.73-4.105-2.586-6.16c-0.118-0.283-0.196-0.582-0.292-0.873c0.78,0.653,1.495,1.315,2.444,1.707
						c0.147-0.556,0.181-0.971-0.127-1.444c-0.406-0.622-0.755-1.312-0.973-2.02c-0.339-1.101-0.548-2.242-0.808-3.367
						c-0.049-0.213-0.08-0.43-0.122-0.661c0.68,0.058,0.882,0.276,0.815,0.812c-0.048,0.378,0.118,0.53,0.466,0.378
						c0.394-0.173,0.765-0.398,1.185-0.621c0.04,0.077,0.097,0.186,0.153,0.296c0.169,0.332,0.289,0.704,0.516,0.99
						c0.807,1.02,2.536,0.771,3.276-0.449c0.312-0.514,0.803-0.532,1.143-0.043c0.211,0.303,0.424,0.606,0.642,0.905
						c0.156,0.214,0.363,0.235,0.427-0.031c0.092-0.38,0.26-0.871,0.104-1.157c-0.403-0.743-0.054-1.126,0.479-1.507
						c0.053-0.038,0.13-0.067,0.153-0.119c0.073-0.161,0.125-0.33,0.185-0.497c-0.176-0.046-0.392-0.18-0.519-0.121
						c-0.348,0.161-0.683,0.375-0.974,0.624c-0.204,0.174-0.337,0.172-0.554,0.051c-0.702-0.389-0.705-0.38-0.32-1.118
						c0.044-0.085,0.11-0.189,0.094-0.269c-0.033-0.158-0.079-0.378-0.19-0.436c-0.114-0.06-0.362-0.008-0.464,0.088
						c-0.156,0.147-0.223,0.385-0.356,0.563c-0.144,0.194-0.305,0.498-0.485,0.519c-0.704,0.081-0.804-0.047-0.802-0.757
						c0-0.162-0.016-0.325-0.005-0.486c0.017-0.245-0.022-0.418-0.329-0.411c-0.286,0.006-0.475,0.075-0.461,0.415
						c0.011,0.261,0.023,0.531-0.034,0.781c-0.036,0.157-0.177,0.367-0.313,0.407c-0.287,0.083-0.619,0.139-0.898,0.068
						c-0.162-0.041-0.251-0.353-0.382-0.536c-0.085-0.119-0.166-0.28-0.285-0.327c-0.175-0.068-0.383-0.05-0.577-0.068
						c-0.012,0.201-0.079,0.42-0.023,0.6c0.079,0.256,0.249,0.484,0.369,0.705c-0.303,0.46-0.621,0.528-1.04,0.214
						c-0.204-0.152-0.456-0.286-0.702-0.325c-0.289-0.045-0.359-0.205-0.354-0.427c0.022-1.047-0.003-2.1,0.108-3.139
						c0.088-0.824,0.327-1.635,0.536-2.442c0.17-0.657,0.375-1.306,0.596-1.948c0.466-1.356,0.96-2.703,1.78-3.897
						c0.505-0.735,0.961-1.52,1.56-2.171c0.553-0.601,1.266-1.055,1.909-1.573c0.862-0.695,1.889-0.745,2.825-0.142
						c0.256,0.165,0.815,0.115,0.861-0.215c0.038-0.273,0.017-0.398-0.116-0.671c-0.193-0.055-0.509-0.144-0.528-0.159
						c-0.669-0.022-1.323-0.24-1.996-0.163c-0.349,0.04-0.677,0.124-0.998,0.23c-0.338,0.19-0.672,0.4-1.048,0.593
						c-0.029,0.015-1.339,0.899-1.908,1.619c-0.198,0.352-0.608,0.839-0.801,1.21c-0.652,1.252-1.448,2.42-1.891,3.714
						c-0.7,1.972-1.21,4.095-1.585,6.185c-0.122,0.681-0.043,1.526-0.136,2.215c-0.041,1.53,0.133,3.02,0.575,4.489
						c0.254,0.845,0.709,1.629,1.073,2.441c0.119,0.265,0.238,0.53,0.357,0.795c-0.033,0.039-0.066,0.078-0.099,0.117
						c-0.29-0.178-0.629-0.308-0.861-0.543c-0.482-0.486-1.624-1.689-2.492-2.852c0.123,0.498,0.584,2.479,0.811,2.954
						c0.272,0.568,0.452,1.182,0.66,1.78c0.101,0.29-0.001,0.416-0.329,0.41c-0.586-0.012-1.164-0.395-1.427-0.929
						c-0.337-0.685-0.806-1.319-1.048-2.033c-0.327-0.966-0.499-1.986-0.72-2.986c-0.069-0.314-0.059-0.646-0.135-0.958
						c-0.026-0.106-0.204-0.176-0.313-0.262c-0.073,0.129-0.212,0.261-0.208,0.388c0.016,0.602,0.021,1.211,0.125,1.801
						c0.159,0.903,0.278,1.841,0.628,2.674c0.48,1.142,1.161,2.199,1.751,3.295c0.112,0.209,0.277,0.426,0.288,0.646
						c0.043,0.806,0.328,1.623-0.061,2.51c-0.169-0.162-0.294-0.294-0.432-0.41c-1.203-1.013-1.98-2.363-2.89-3.611
						c-1.545-2.117-1.914-4.587-2.201-7.091c-0.046-0.398-0.065-0.793-0.067-1.187c-0.273-1.09-0.37-2.246-0.171-3.329
						c-0.007-0.41,0.028-0.813,0.126-1.199c0.309-3.585,1.57-7.419,3.356-10.483c0.036-0.019,0.07-0.046,0.1-0.084
						c0.607-0.782,1.455-1.232,2.171-1.897c1.037-0.964,2.069-1.381,3.405-1.795c0.896-0.278,1.772-0.539,2.699-0.694
						c0.764-0.128,1.546-0.008,2.306-0.158c0.1-0.02,0.167-0.078,0.209-0.149c-0.041-0.059-0.084-0.117-0.136-0.168
						c0.062,0.061-0.198-0.115-0.089-0.062c-0.256-0.124-0.535-0.209-0.777-0.359c-0.06-0.037-0.123-0.075-0.185-0.114
						c-3.53-0.064-7.083,1.594-9.481,4.172c-0.077,0.006-0.153,0.043-0.209,0.13c-0.078,0.121-0.148,0.24-0.222,0.36
						c-0.259,0.309-0.507,0.626-0.731,0.957c-1.3,1.918-2.267,4.232-2.713,6.503c-0.284,1.444-0.524,2.886-0.637,4.355
						c-0.031,0.394-0.028,0.786-0.012,1.177c-0.224,0.852-0.892,1.679-1.195,2.335c-0.071-0.02-0.134-0.672-0.205-0.692
						c-0.138-0.889-0.332-1.774-0.398-2.668c-0.069-0.939-0.041-1.888-0.006-2.83c0.017-0.447,0.119-0.897,0.233-1.332
						c0.414-1.589,0.817-3.181,1.284-4.755c0.637-2.145,2.007-4.271,3.598-5.956c0.12-0.128,0.296-0.201,0.432-0.317
						c0.419-0.358,0.824-0.735,1.25-1.084c0.25-0.204,0.521-0.387,0.802-0.546c0.249-0.14,0.45-0.272,0.288-0.657
						c-0.709,0.177-1.422,0.356-2.135,0.534c-0.022-0.037-0.044-0.073-0.066-0.109c0.106-0.1,0.202-0.215,0.321-0.296
						c0.711-0.488,1.391-1.04,2.151-1.437c1.499-0.782,3.091-1.253,4.807-1.368c1.012-0.068,1.98,0.025,2.96,0.203
						c0.698,0.127,1.908,1.083,2.329,1.547c0.221,0.17,0.515,0.142,0.691,0.06c0.221-0.103,0.152-0.399,0.179-0.562
						c-0.303-0.504-1.292-1.593-1.849-1.704c-4.26-0.852-7.14,0.263-8.358,0.663c-1.443,0.473-2.796,1.165-3.764,2.421
						c-0.177,0.23-0.438,0.395-0.608,0.629c-0.246,0.337-0.27,0.418-0.488,0.775c0.056,0.052-0.23,0.572-0.174,0.624
						c0.194-0.116,0.549-0.425,0.753-0.52c0.191-0.089,0.401-0.139,0.602-0.207c0.014,0.045,0.028,0.089,0.042,0.134
						c-0.071,0.062-0.14,0.125-0.212,0.186c-1.284,1.087-2.418,2.297-3.155,3.833c-0.362,0.756-0.739,1.506-1.075,2.273
						c-0.191,0.436-0.346,0.894-0.456,1.356c-0.208,0.871-0.324,1.767-0.565,2.628c-0.474,1.695-0.569,3.412-0.534,5.162
						c0.031,1.583,0.227,3.119,0.802,4.597c0.074,0.189,0.189,0.371,0.318,0.528c0.228,0.278,0.416,0.275,0.554-0.102
						c0.113-0.308,0.775-1.537,0.913-1.836c-0.07,1.068-0.06,1.905,0.034,2.488c0.077,0.482-0.016,1.199,0.089,1.677
						c0.142,0.649,0.191,1.335,0.436,1.941c0.528,1.303,1.139,2.574,1.747,3.842c0.744,1.553,1.794,2.866,3.182,3.9
						c0.119,0.089,0.221,0.203,0.279,0.257c-0.323,0.315-0.713,0.534-0.841,0.856c-0.185,0.467-0.286,1.021-0.235,1.518
						c0.159,1.541,1.07,2.412,2.452,2.376c1.756-0.047,2.825-1.065,2.657-2.982c-0.065-0.742-0.29-1.542-0.982-1.873
						c-0.883-0.422-1.157-1.021-1.044-1.913c0.02-0.161-0.028-0.337,0.017-0.487c0.085-0.282,0.215-0.551,0.332-0.838
						c0.62,0.316,0.639,0.814,0.773,1.255c0.263,0.867,0.441,1.777,0.828,2.586c0.656,1.371,1.413,2.698,2.194,4.005
						c0.613,1.026,1.178,2.099,2.101,2.907c0.105,0.092,0.175,0.222,0.317,0.408c-0.776,0.147-0.651,0.731-0.655,1.226
						c-0.018,2.224,0.031,4.45-0.045,6.672c-0.031,0.904-0.276,1.81-0.5,2.696c-0.125,0.494-0.41,0.947-0.619,1.42
						c-0.096,0.217-0.141,0.434-0.079,0.63c0.134,0.065,0.292,0.14,0.441,0.204c0.092,0.02,0.177,0.036,0.252,0.047
						c0.066,0.009,0.132,0.017,0.198,0.027c0.06-0.05,0.117-0.107,0.171-0.167c0.195-0.214,0.416-0.439,0.514-0.701
						c0.462-1.236,0.852-2.493,0.815-3.839c-0.031-1.108-0.052-2.216-0.081-3.324c-0.029-1.105-0.046-2.21-0.103-3.313
						c-0.025-0.491-0.134-0.979-0.214-1.533c0.166,0.099,0.293,0.164,0.407,0.245c0.969,0.692,2.032,1.165,3.206,1.373
						c0.795,0.141,1.597,0.242,2.389,0.393c0.898,0.17,1.788,0.234,2.661-0.092c0.835-0.313,1.696-0.584,2.481-0.997
						c0.576-0.303,1.089-0.764,1.557-1.228c0.698-0.692,1.319-1.462,2.002-2.17c0.206-0.213,0.527-0.311,0.766-0.499
						c0.434-0.343,0.831-0.735,1.273-1.068c0.385-0.29,0.82-0.498,1.315-0.247c0.729,0.37,1.491,0.392,2.282,0.28
						c1.06-0.151,1.876-1.112,2.018-2.044c0.125-0.822,0.44-1.493,1.25-1.89c0.859-0.42,1.68-0.918,2.515-1.385
						c1.006-0.563,2.01-1.132,3.015-1.697c1.345-0.755,2.694-1.502,4.028-2.275c0.134-0.078,0.179-0.311,0.265-0.472
						c-0.188,0-0.406-0.064-0.557,0.01c-0.814,0.399-1.617,0.823-2.414,1.256c-1.224,0.666-2.437,1.352-3.661,2.018
						c-1.293,0.704-2.594,1.393-3.889,2.093c-0.637,0.344-1.365,0.225-1.841-0.327c-0.063-0.073-0.12-0.221-0.087-0.286
						c0.035-0.068,0.181-0.086,0.281-0.114c0.137-0.037,0.297-0.029,0.412-0.099c1.868-1.132,3.753-2.239,5.589-3.421
						c1.918-1.235,3.787-2.548,5.682-3.82c0.245-0.165,0.521-0.284,0.857-0.465c0,1.081-0.007,2.036,0.004,2.991
						c0.003,0.304,0.024,0.613,0.086,0.91c0.17,0.815-0.226,1.815-0.826,2.073c-0.933,0.401-1.893,0.756-2.781,1.243
						c-1.033,0.567-2.009,1.242-2.994,1.895c-0.909,0.602-1.784,1.255-2.697,1.85c-1.347,0.877-2.712,1.725-4.075,2.578
						c-0.759,0.475-1.531,0.928-2.291,1.401c-1.21,0.753-2.427,1.496-3.615,2.283c-0.345,0.228-0.579,0.307-0.868-0.039
						c-0.108-0.13-0.282-0.205-0.455-0.324c-0.08,0.129-0.184,0.219-0.188,0.313c-0.04,1.015-0.158,2.04-0.068,3.045
						c0.099,1.102,0.356,2.196,0.614,3.277c0.342,1.43,0.794,2.822,1.566,4.083c0.248-0.213,0.513-0.407,0.795-0.577
						c-0.293-0.695-0.609-1.376-0.817-2.087c-0.41-1.4-0.77-2.818-1.069-4.246c-0.255-1.22,0.132-2.224,1.212-2.952
						c1.024-0.69,1.979-1.482,3.007-2.164c1.569-1.041,3.175-2.027,4.766-3.036c1.164-0.738,2.322-1.487,3.497-2.208
						c1.175-0.722,2.369-1.413,3.552-2.123c0.695-0.417,1.379-0.854,2.081-1.259c0.209-0.12,0.464-0.159,0.805-0.269
						c-0.089,0.278-0.117,0.437-0.188,0.573c-0.626,1.205-1.391,2.315-2.464,3.161c-1.26,0.993-2.516,2.005-3.86,2.876
						c-1.095,0.71-2.324,1.211-3.48,1.829c-1.315,0.703-2.635,1.4-3.915,2.163c-0.793,0.473-1.52,1.057-2.265,1.607
						c-0.151,0.111-0.249,0.294-0.328,0.487c3.06-1.205,5.672-3.181,8.53-4.738c0.117,0.847-0.215,1.877-1.18,2.132
						c-0.853,0.226-1.479,0.806-2.186,1.255c-1.485,0.941-2.948,1.917-4.409,2.895c-0.553,0.37-1.083,0.777-1.605,1.19
						c-0.118,0.094-0.158,0.286-0.234,0.433c0.188,0.066,0.377,0.193,0.562,0.187c0.723-0.023,1.244-0.476,1.796-0.882
						c1.268-0.93,2.561-1.826,3.843-2.737c0.583-0.414,1.16-0.836,1.746-1.246c0.444-0.311,0.898-0.61,1.416-0.961
						c0.116,0.937,0.123,1.771-0.181,2.544c-0.1,0.253-0.525,0.394-0.821,0.549c-1.263,0.663-2.546,1.291-3.798,1.972
						c-0.838,0.456-1.654,0.957-2.45,1.483c-0.518,0.343-0.992,0.756-1.461,1.165c-0.082,0.072-0.102,0.373-0.043,0.414
						c0.138,0.097,0.382,0.185,0.511,0.125c0.283-0.132,0.612-0.306,0.761-0.559c0.359-0.605,0.955-0.839,1.513-1.15
						c0.752-0.419,1.491-0.862,2.251-1.266c1.042-0.555,2.097-1.087,3.153-1.617c0.076-0.038,0.235-0.021,0.292,0.035
						c0.242,0.236,0.459,0.497,0.736,0.806c-0.527,0.336-1.005,0.655-1.498,0.951c-0.738,0.443-1.487,0.867-2.23,1.302
						c-0.406,0.238-0.789,0.523-1.215,0.714c-0.418,0.188-0.624,0.538-0.843,0.886c-0.066,0.106-0.03,0.276-0.04,0.417
						c0.146-0.001,0.329,0.056,0.432-0.011c0.545-0.355,1.056-0.761,1.604-1.11c0.887-0.567,1.791-1.105,2.69-1.652
						c0.386-0.235,0.793-0.44,1.16-0.702c0.26-0.186,0.399-0.156,0.525,0.121c0.141,0.311,0.328,0.608,0.423,0.932
						c0.019,0.065-0.02,0.17-0.078,0.263c0.321-0.13,0.642-0.259,0.964-0.389c-0.577-0.541-1.102-1.126-1.427-1.87
						c-0.285-0.651-0.451-1.397-0.475-2.107c-0.029-0.898,0.142-1.803,0.227-2.704c0.017-0.177,0.017-0.359,0.059-0.531
						c0.35-1.461,1.426-2.327,2.581-3.125c0.668-0.462,1.375-0.876,1.994-1.396c0.722-0.606,1.361-1.31,2.051-1.955
						c0.059-0.056,0.147-0.081,0.238-0.103c0.16-0.195,0.342-0.376,0.532-0.551c0.193-0.514,0.383-1.028,0.623-1.519
						c0.453-0.925,0.86-1.863,1.107-2.854C451.081,282.807,451.07,282.521,451.052,282.236z M415.404,275.727
						c0.163,0.018,0.319,0.092,0.479,0.141c-0.095,0.153-0.157,0.356-0.293,0.445c-0.128,0.083-0.38,0.117-0.496,0.044
						c-0.172-0.108-0.273-0.33-0.503-0.636C414.964,275.721,415.186,275.702,415.404,275.727z M410.654,289.97
						c-0.038,0.832-0.629,1.589-1.286,1.57c-0.766-0.023-1.528-0.776-1.525-1.506c0.005-1.25,0.314-1.574,1.485-1.561
						C410.195,288.305,410.692,289.12,410.654,289.97z M442.602,267.891c0.016-0.236,0.202-0.526,0.399-0.674
						c1.633-1.237,3.29-2.441,4.931-3.668c0.394-0.295,0.754-0.636,1.129-0.955l0.206,0.071c0.12,0.73,0.207,1.468,0.37,2.189
						c0.173,0.766,0.026,1.217-0.737,1.672c-1.731,1.03-3.351,2.246-5.028,3.367c-0.32,0.214-0.698,0.342-1.102,0.534
						c-0.065-0.191-0.152-0.336-0.157-0.484C442.59,269.259,442.555,268.572,442.602,267.891z M442.574,271.659
						c0.044-0.253,0.16-0.423,0.433-0.566c0.523-0.274,0.975-0.68,1.48-0.993c0.436-0.271,0.919-0.466,1.357-0.734
						c1.094-0.668,2.173-1.361,3.264-2.035c0.184-0.113,0.398-0.177,0.685-0.302c0.054,0.358,0.106,0.622,0.13,0.889
						c0.024,0.259-0.041,0.541,0.037,0.779c0.244,0.736-0.2,1.068-0.727,1.385c-0.835,0.502-1.665,1.013-2.493,1.527
						c-1.361,0.844-2.718,1.694-4.082,2.534c-0.115,0.071-0.263,0.088-0.395,0.13c-0.013-0.149-0.056-0.302-0.035-0.446
						C442.333,273.103,442.448,272.38,442.574,271.659z M441.685,275.713c0.231-0.334,0.504-0.677,0.838-0.892
						c0.665-0.428,1.379-0.784,2.084-1.148c1.71-0.883,3.426-1.755,5.14-2.628c0.053-0.027,0.124-0.021,0.315-0.05
						c0.011,1.071,0.028,2.107,0.022,3.143c-0.001,0.095-0.132,0.22-0.233,0.278c-1.127,0.655-2.25,1.318-3.393,1.943
						c-1.641,0.898-3.297,1.77-4.95,2.645c-0.287,0.152-0.587,0.281-0.892,0.392c-0.106,0.039-0.244-0.009-0.367-0.017
						c0.036-0.108,0.054-0.226,0.11-0.322c0.41-0.69,0.974-1.311,0.923-2.197c-0.006-0.108,0.074-0.221,0.112-0.333
						C441.488,276.253,441.527,275.942,441.685,275.713z M431.992,291.219c0.413-0.697,0.802-1.353,1.235-2.083
						C433.569,290.395,433.087,291.198,431.992,291.219z M433.951,287.777c-0.043,0.022-0.115-0.013-0.237-0.031
						c0.545-1.536,1.109-3.016,1.812-4.436c0.05,0.014,0.101,0.028,0.151,0.042c0.127,0.992,0.271,1.982,0.365,2.976
						c0.016,0.164-0.139,0.423-0.289,0.511C435.17,287.18,434.557,287.473,433.951,287.777z M437.649,288.691
						c0.239,0.638,0.116,1.258-0.396,1.623c-0.657,0.468-1.404,0.607-2.162,0.268c-0.392-0.175-0.642-0.541-0.533-0.986
						c0.262-1.071,0.668-1.584,1.741-1.505C436.836,288.095,437.405,288.04,437.649,288.691z M437.253,284.787
						c-0.075,0.185-0.172,0.36-0.332,0.518c-0.044-0.99-0.174-1.976,0.01-2.937c-0.049-0.1-0.054-0.224,0.012-0.36
						c0.676-1.407,0.908-2.937,1.321-4.407c-0.001-0.016-0.002-0.032-0.004-0.048c-0.033-0.531-0.03-1.066-0.103-1.591
						c-0.024-0.172-0.101-0.338-0.187-0.516c-0.024-0.004-0.046-0.004-0.069-0.006c-0.068,0.087-0.13,0.179-0.19,0.272
						c-0.008,0.012-0.018,0.022-0.026,0.034c0.008,0.207-0.007,0.416-0.068,0.627c-0.259,0.9-0.4,1.871-0.489,2.816
						c0.012,0.864-0.34,1.663-1.062,2.126c0.034-0.474,0.06-0.88,0.094-1.286c0.007-0.083,0.014-0.166,0.02-0.25
						c-0.026-0.064-0.042-0.136-0.035-0.22c0.024-0.312,0.06-0.624,0.1-0.935c-0.034-0.108-0.092-0.206-0.196-0.286
						c-0.046,0.064-0.117,0.115-0.219,0.132c-0.184,0.031-0.356,0.065-0.526,0.144c-0.267,0.124-0.613-0.165-0.474-0.451
						c0.025-0.052,0.049-0.105,0.073-0.158c0.001-0.021,0.002-0.041,0.007-0.063c0.014-0.133,0.026-0.267,0.033-0.401
						c0.012-0.244,0.006-0.489,0.009-0.734c0.029-2.122,0.164-4.25,0.058-6.365c-0.1-1.992-0.454-3.971-0.698-5.955
						c-0.031-0.254-0.063-0.508-0.1-0.761c-0.012-1.032-0.074-2.06-0.283-3.066c0.008-0.035,0.01-0.073,0.002-0.117
						c-0.261-1.428-0.739-2.732-1.662-3.866c-0.456-0.56-0.86-1.149-1.381-1.652c-0.403-0.389-1.028-0.499-1.541-0.66
						c-0.032-0.01-0.06-0.009-0.089-0.009c-0.256-0.068-0.539,0.23-0.308,0.449c1.551,1.469,2.993,2.413,3.909,4.43
						c0.569,1.254,0.72,2.608,0.753,3.971c-0.036,0.055-0.063,0.11-0.062,0.164c0.01,0.857-0.303,1.637-0.506,2.443
						c-0.014,0.058-0.059,0.108-0.162,0.29c-0.12-0.303-0.257-0.505-0.276-0.718c-0.041-0.471-0.119-0.923-0.228-1.36
						c-0.328-0.373-0.538-0.83-0.778-1.263c-0.161-0.289-0.319-0.58-0.477-0.872c-0.039-0.046-0.081-0.09-0.114-0.141
						c-0.006-0.009-0.01-0.019-0.016-0.028c-0.138-0.121-0.27-0.244-0.327-0.297c-0.501-0.471-0.853-0.996-1.375-1.445
						c0.03,0.041,0.062,0.08,0.091,0.121c-0.431-0.383-0.9-0.739-1.419-1.068c-0.099-0.061-0.199-0.121-0.3-0.179
						c-0.09-0.052-0.181-0.101-0.272-0.147c-0.087-0.046-0.174-0.091-0.263-0.134c-0.64-0.295-1.304-0.481-2.022-0.584
						c-0.151-0.022-1.373,0.173-2.202,0.198c0.066-0.033,0.132-0.065,0.198-0.098c-0.405,0.013-0.781-0.083-1.222-0.514
						c-0.29-0.283-0.329-0.72-0.267-1.159c-0.032-0.096-0.066-0.194-0.097-0.29c-0.02-0.06-0.007-0.131-0.022-0.194
						c-0.018-0.081-0.033-0.156-0.046-0.228c-0.486-0.824-0.453-2.108-0.055-2.992c0.06-0.056,0.099-0.136,0.113-0.234
						c0.003-0.006,0.008-0.011,0.011-0.017c0.026-0.108,0.056-0.215,0.095-0.317c0.063-0.166,0.156-0.354,0.28-0.504
						c0.019-0.045,0.04-0.085,0.056-0.133c0.771-0.785,2.387-1.136,3.24-1.35c2.339-0.584,4.737-0.432,7.015,0.316
						c4.311,1.416,8.513,5.296,9.297,9.871c-0.149-0.122-0.29-0.255-0.414-0.402l-0.038,0.029c-0.508-0.634-1.015-1.268-1.585-1.979
						c-0.077,0.221-0.146,0.314-0.13,0.39c0.12,0.584,0.751,1.767,0.904,2.343c0.38,1.43,0.481,2.048,0.869,3.476
						c0.488,1.797,0.308,3.853,0.325,5.692c0.009,0.973-0.173,1.947-0.252,2.921c-0.052,0.632,0.016,1.288-0.131,1.894
						c-0.237,0.974-0.572,1.929-0.928,2.869c-0.622,1.643-1.292,3.267-1.942,4.9C437.871,283.247,437.565,284.018,437.253,284.787z
						 M449.328,278.483c-1.255,0.789-2.485,1.622-3.768,2.364c-1.887,1.092-3.812,2.118-5.717,3.178
						c-0.667,0.372-1.324,0.762-1.985,1.145c-0.042-0.034-0.084-0.067-0.125-0.101c0.148-0.322,0.282-0.652,0.445-0.966
						c0.538-1.034,1.072-2.07,1.643-3.086c0.126-0.224,0.371-0.414,0.604-0.541c1.718-0.937,3.454-1.841,5.17-2.782
						c1.396-0.766,2.772-1.57,4.159-2.353c0.081-0.046,0.179-0.06,0.383-0.125c0,0.651-0.1,1.239,0.023,1.777
						C450.347,277.805,449.877,278.138,449.328,278.483z"/>
					<path d="M432.346,277.074c-0.375-0.216-0.716-0.368-1.006-0.589c-0.451-0.344-0.6-0.315-0.78,0.235
						c-0.348,1.065-0.941,1.497-1.976,1.423c-0.606-0.044-1.063-0.361-1.436-0.821c-0.123-0.151-0.235-0.315-0.378-0.445
						c-0.269-0.244-0.552-0.343-0.844-0.014c-0.355,0.399-0.719,0.789-1.079,1.183c-0.369-0.249-0.507-0.936-0.295-1.481
						c0.289-0.743,0.222-0.939-0.492-1.345c-0.248-0.141-0.466-0.295-0.308-0.606c0.163-0.321,0.44-0.227,0.675-0.091
						c0.207,0.119,0.401,0.269,0.581,0.429c0.492,0.437,1.054,0.402,1.343-0.163c0.083-0.163-0.069-0.484-0.178-0.7
						c-0.254-0.501-0.265-0.513,0.339-0.924c0.286,0.436,0.57,0.87,0.908,1.387c-0.082-0.033-0.052-0.01-0.025-0.011
						c0.997-0.07,1.001-0.07,1.022-1.101c0.006-0.273-0.005-0.561,0.357-0.58c0.361-0.018,0.396,0.266,0.414,0.539
						c0.003,0.049,0.008,0.098,0.011,0.146c0.059,0.973,0.102,1.03,1.058,1.03c0.137,0,0.29-0.203,0.408-0.336
						c0.16-0.179,0.258-0.444,0.45-0.554c0.156-0.089,0.411-0.003,0.623,0.005c-0.02,0.191-0.009,0.393-0.07,0.571
						c-0.05,0.146-0.236,0.251-0.271,0.396c-0.039,0.163-0.038,0.442,0.057,0.507c0.168,0.115,0.438,0.177,0.634,0.131
						c0.26-0.061,0.478-0.287,0.737-0.362c0.144-0.042,0.334,0.077,0.504,0.124c-0.046,0.165-0.07,0.342-0.146,0.492
						c-0.047,0.091-0.168,0.155-0.268,0.205c-0.359,0.179-0.553,0.432-0.468,0.858C432.466,276.709,432.403,276.825,432.346,277.074
						z M428.245,275.858c-0.031,0.071-0.061,0.142-0.092,0.213c0.239,0.152,0.493,0.441,0.713,0.418
						c0.226-0.024,0.419-0.354,0.712-0.631C429.028,275.858,428.637,275.858,428.245,275.858z"/>
					<path d="M419.329,270.729c-0.741,0.138-1.357,0.263-1.977,0.367c-1.632,0.275-3.264,0.549-4.899,0.801
						c-0.215,0.033-0.45-0.062-0.712-0.103C412.328,270.541,417.687,269.768,419.329,270.729z"/>
					<path d="M425.016,270.789c0.81-0.971,5.915-0.331,7.535,1.012c-0.309,0.081-0.542,0.214-0.755,0.187
						c-0.846-0.106-1.687-0.258-2.529-0.4c-1.365-0.23-2.73-0.466-4.094-0.703C425.119,270.876,425.071,270.823,425.016,270.789z"/>
					<path d="M423.294,285.566c0.173,0.027,0.495,0.055,0.805,0.131c0.264,0.065,0.538,0.229,0.422,0.537
						c-0.082,0.218-0.305,0.463-0.518,0.534c-0.313,0.104-0.685,0.128-1.013,0.073c-0.926-0.155-1.933,0.063-2.758-0.566
						c-0.091-0.069-0.148-0.182-0.221-0.274c0.108-0.074,0.212-0.202,0.326-0.212C421.27,285.705,422.205,285.645,423.294,285.566z"
						/>
					<path d="M424.649,291.7c-1.588,0.113-3.064-0.1-4.527-0.435c-0.014-0.057-0.028-0.114-0.042-0.17
						c0.485-0.169,0.964-0.456,1.456-0.478c0.735-0.033,1.489,0.067,2.214,0.214C424.131,290.909,424.528,291.146,424.649,291.7z"/>
				</g>
			</g>
		</g>
	</g>
</g>
</svg>
