<?xml version="1.0" encoding="utf-8"?>
<!-- Generator: Adobe Illustrator 17.0.0, SVG Export Plug-In . SVG Version: 6.00 Build 0)  -->
<!DOCTYPE svg PUBLIC "-//W3C//DTD SVG 1.1//EN" "http://www.w3.org/Graphics/SVG/1.1/DTD/svg11.dtd">
<svg version="1.1" id="Слой_1" xmlns="http://www.w3.org/2000/svg" xmlns:xlink="http://www.w3.org/1999/xlink" x="0px" y="0px"
	 width="107px" height="99px" viewBox="365.445 248.14 107 99" enable-background="new 365.445 248.14 107 99" xml:space="preserve"
	>
<path fill="#8EA031" d="M465.601,279.152c-0.175-3.563-0.083-11.112-4.079-13.046c-6.113-2.958-13.559-1.722-20.102-1.374
	c-0.742,0.039-1.482,0.065-2.222,0.098c-0.046-0.741-0.192-1.491-0.354-2.14c-0.172-0.687-0.503-1.427-1.048-1.899
	c-1.08-0.935-2.597-0.441-3.627,0.317c-1.042,0.767-2.084,1.901-2.459,3.173c-0.077,0.262-0.126,0.538-0.141,0.815
	c-10.158,0.239-20.265,0.133-30.37,0.438c-0.365-0.999-0.814-1.975-1.327-2.903c6.759-0.075,13.503-0.837,20.281-0.726
	c4.916,0.081,9.724,0.086,14.384-1.617c0.741-0.271,1.536-1.225,1.318-2.051c-1.17-4.454-15.278-2.545-18.221-2.392
	c-6.229,0.323-16.028,0.002-21.217,4.063c-0.158,0.124-0.255,0.279-0.302,0.423c-1.236,0.514-2.286,1.922-2.549,3.091
	c-0.189,0.841,0.049,1.655,0.453,2.408c-6.908,0.372-13.821,1.02-20.755,2.195c-0.805,0.136-1.51,0.93-1.612,1.719
	c-1.317,10.186,0.854,21.214,2.368,31.296c1.037,6.905,6.057,8.652,12.358,7.994c0.176-0.018,0.792-0.533,0.414-0.571
	c-10.571-1.04-10.392-7.99-11.33-16.826c-0.461-4.346-1.155-8.66-1.559-13.013c-0.236-2.543-0.179-5.06-0.047-7.604
	c0.093-1.776,6.611-1.821,7.597-1.949c4.71-0.613,9.419-0.975,14.128-1.194c0.043,0.005,0.082,0.009,0.131-0.006
	c1.044-0.048,2.088-0.09,3.132-0.124c0.066,0.111,0.126,0.226,0.201,0.333c0.403,0.575,1.189,0.204,1.761-0.393
	c4.156-0.104,8.312-0.118,12.469-0.097c-2.198,8.276,1.589,18.667,2.358,27.05c0.363,3.95,0.626,7.847,0.703,11.773
	c-8.236-0.011-16.467-0.203-24.712-0.241c-1.688-0.008-3.639,3.509-1.429,3.521c8.726,0.046,17.44,0.105,26.149,0.076
	c-0.005,0.453,0.005,0.904-0.005,1.359c-0.066,2.843,0.169,5.606,2.004,7.904c7.068,8.849,10.656-2.067,10.808-9.391
	c10.05-0.162,20.1-0.496,30.161-1.183c0.368-0.025,0.715-0.07,1.053-0.125c0.684,9.383,9.997,27.843-6.581,27.436
	c-12.472-0.306-24.834-1.045-37.349-0.286c-8.196,0.497-16.139,2.4-24.415,1.919c-14.291-0.831-11.66-16.97-9.993-27.42
	c0.067-0.42-0.713,0.02-0.78,0.267c-2.213,8.185-5.612,24.659,4.829,28.33c10.781,3.791,24.843-0.792,35.952-0.975
	c8.636-0.143,17.413-0.48,26.012,0.413c4.42,0.459,11.096,1.627,14.782-1.823c8.097-7.578,1.016-19.488,0.509-28.897
	C470.922,302.755,465.957,286.414,465.601,279.152z M431.666,258.658c-4.578,0.845-9.469,0.361-14.058,0.337
	c-6.309-0.033-12.639,0.587-18.932,0.964c-0.243,0.015-0.523,0.158-0.797,0.353c-0.1-0.047-0.201-0.094-0.309-0.124
	c5.206-2.55,13.5-2.073,18.842-2.24C418.303,257.889,427.836,257.197,431.666,258.658z M396.092,265.728
	c-0.144-0.862-0.357-1.711-0.397-2.597c-0.011-0.249,0.076-0.324,0.273-0.639c0.004-0.006,0.009-0.012,0.014-0.018
	c0.021,0.006,0.037,0.008,0.061,0.019c0.153,0.07,0.266,0.209,0.381,0.327c0.76,0.789,1.137,1.805,1.505,2.826
	C397.317,265.671,396.704,265.7,396.092,265.728z M433.484,264.065c0.249-0.447,0.313-0.552,0.618-0.892
	c0.014-0.015,0.011-0.012,0.022-0.023c0.081-0.077,0.165-0.15,0.251-0.222c0.027-0.023,0.02-0.018,0.034-0.031
	c0.016-0.01,0.011-0.005,0.047-0.03c0.092-0.063,0.188-0.118,0.284-0.173c-0.353,0.202,0.434-0.117,0.066-0.017
	c0.258-0.07,0.029-0.046,0.367-0.03c0.165,0.008,0.396,0.146,0.625,0.429c0.441,0.543,0.553,1.2,0.581,1.88
	c-1.038,0.037-2.074,0.062-3.11,0.091C433.283,264.707,433.311,264.375,433.484,264.065z M422.109,317.906
	c-2.186-1.744-2.953-4.841-3.23-8.157c2.339-0.013,4.679-0.031,7.018-0.06c0.055,0.297,0.103,0.593,0.16,0.89
	C426.091,314.517,425.65,320.731,422.109,317.906z M461.977,304.794c-4.602,1.349-10.75,0.596-15.534,0.801
	c-5.843,0.251-11.687,0.461-17.532,0.644c-0.008-0.04-0.014-0.085-0.022-0.124c-0.101-0.475-0.416-0.607-0.805-0.531
	c-1.325-6.961-1.316-13.922-2.114-20.981c-0.636-5.629-1.596-11.159-1.942-16.82c-0.006-0.1-0.214,0.045-0.232,0.091
	c-2.446,6.217-0.068,13.326,0.11,19.779c0.174,6.311,0.517,12.477,1.432,18.662c-2.203,0.051-4.405,0.097-6.606,0.105
	c-0.036-2.384,0.023-4.691-0.154-6.506c-0.583-5.96-1.185-11.928-2.13-17.843c-0.789-4.938-2.817-9.396-2.156-14.477
	c7.434,0.046,14.871,0.169,22.311,0.035c0.272,0.66,0.944,0.423,1.525-0.032c2.348-0.054,4.695-0.128,7.044-0.251
	c3.34-0.174,6.643-0.146,9.967,0.222c6.46,0.715,6.738,5.861,7.124,11.107C462.552,282.603,465.777,303.68,461.977,304.794z"/>
</svg>
