<?xml version="1.0" encoding="utf-8"?>
<!-- Generator: Adobe Illustrator 17.0.0, SVG Export Plug-In . SVG Version: 6.00 Build 0)  -->
<!DOCTYPE svg PUBLIC "-//W3C//DTD SVG 1.1//EN" "http://www.w3.org/Graphics/SVG/1.1/DTD/svg11.dtd">
<svg version="1.1" id="Слой_1" xmlns="http://www.w3.org/2000/svg" xmlns:xlink="http://www.w3.org/1999/xlink" x="0px" y="0px"
	 width="110px" height="114px" viewBox="364.445 239.14 110 114" enable-background="new 364.445 239.14 110 114"
	 xml:space="preserve">
<path fill="#8EA031" d="M468.145,329.03c-2.765-7.677-6.329-14.139-8.399-21.86c2.301-0.891,4.302-2.333,5.775-4.625
	c4.59-7.137-0.338-23.191-1.903-30.76c-2.338-11.31-6.297-12.119-17.745-10.328c-3.078,0.481-6.168,0.856-9.262,1.172
	c0.49-1.526-0.102-3.409-0.28-4.966c-0.16-1.396-0.108-3.003-0.227-4.522c2.477-0.769,3.885-1.919,3.518-3.593
	c-0.814-3.707-17.237-2.882-19.688-2.956c-8.217-0.248-18.415-1.141-26.4,1.392c-0.399,0.127-1.309,0.789-0.99,1.31
	c1.188,1.936,2.795,2.559,4.588,2.631c-0.016,0.168,0.053,0.311,0.296,0.384c0.044,0.013,0.114,0.028,0.165,0.042
	c-0.369,0.416-0.635,0.874-0.651,1.277c-0.088,2.097,0.227,4.236,0.684,6.28c0.2,0.893,0.347,2.212,0.748,3.291
	c-0.983-0.055-1.966-0.099-2.948-0.162c-7.376-0.471-16.972-4.904-23.44,0.368c-1.251,1.02-0.994,2.105-0.149,2.334
	c-0.613,2.036-0.342,4.624-0.353,6.577c-0.041,7.063-0.2,14.119-0.275,21.183c-0.079,7.475,1.548,13.07,8.966,13.201
	c-0.065,0.105-0.107,0.208-0.089,0.295c1.928,9.476,0.843,18.667-1.087,28.029c-0.568,2.753-1.989,8.218,1.236,10.169
	c6.588,3.985,15.145,3.307,22.54,3.015c9.871-0.389,19.736-0.989,29.612-1.359c8.616-0.323,17.323-0.51,25.918-1.148
	c3.057-0.227,6.789-1.326,8.769-3.864C470.346,337.642,469.893,333.882,468.145,329.03z M462.221,292.745
	c0.637,5.199-1.038,8.049-3.867,9.574c-0.557-0.234-1.53,0.224-2.242,0.891c-2.337,0.647-5.123,0.736-7.979,0.614
	c0.004-0.045,0.008-0.102,0.013-0.146c1.226-12.564,1.705-26.156-0.007-38.8C462.451,263.082,461.006,282.825,462.221,292.745z
	 M439.386,307.086c1.598,0.224,3.275,0.474,4.979,0.698c-0.527,5.007-1.515,9.913-3.494,14.266
	c-1.129,2.483-2.303-5.255-2.299-5.864C438.595,313.15,439.019,310.097,439.386,307.086z M439.896,303.15
	c0.292-2.225,0.539-4.448,0.469-6.709c-0.13-4.204-0.673-8.422-1.06-12.609c-0.332-3.594-3.027-13.89-1.265-17.574
	c2.032-0.25,4.079-0.531,6.142-0.831c1.297,8.453,1.001,17.335,0.865,25.846c-0.063,3.924-0.086,8.118-0.336,12.323
	C443.05,303.454,441.431,303.293,439.896,303.15z M436.54,266.438c-1.575,2.603-0.957,6.747-0.874,9.477
	c0.237,7.742,1.322,15.438,1.487,23.178c0.016,0.773-0.169,2.129-0.44,3.826c-0.148-0.007-0.314-0.022-0.458-0.027
	c-9.483-0.302-18.915-0.837-28.381-0.853c-0.539-11.577-1.151-23.152-1.268-34.758c6.54,0.17,13.119-0.018,19.572-0.12
	C429.744,267.105,433.15,266.824,436.54,266.438z M398.334,310.874c-0.071-1.733-0.158-3.462-0.262-5.188
	c2.024-0.057,4.047-0.095,6.068-0.108c0.362,6.137,1.355,12.344,0.101,18.422c-4.611,0.324-6.449-1.232-5.512-4.669
	C398.565,316.513,398.434,313.694,398.334,310.874z M401.039,263.346c0.241-1.17,0.009-2.305-0.124-3.661
	c-0.222-2.261-0.248-4.53-0.377-6.794c6.967,1.02,22.758,2.358,32.013,1.014c0.032,1.34,0.341,2.698,0.686,3.973
	c0.308,1.138,0.765,3.709,1.714,4.93C423.698,263.853,412.358,263.888,401.039,263.346z M396.097,248.922
	c3.799-0.435,7.679-0.405,11.498-0.425c7.966-0.042,16.011,0.185,23.926,1.129c2.185,0.261,6.234,0.789,4.248,1.514
	c-0.033-0.117-0.042-0.25-0.081-0.363c-0.448-1.296-2.287,0.03-2.826,0.925c-4.083,0.553-8.365,0.327-12.448,0.183
	c-7.099-0.25-14.298-1.628-21.379-1.571c-0.085,0.001-0.205,0.04-0.337,0.098C395.073,250.033,391.698,249.427,396.097,248.922z
	 M393.628,266.325c3.131,0.421,6.3,0.668,9.483,0.822c-0.011,0.064-0.048,0.131-0.048,0.193c0.05,11.594,0.521,23.172,0.925,34.758
	c-1.473,0.023-2.943,0.011-4.419,0.067c-0.537,0.021-1.124,0.074-1.732,0.141c-0.285-3.876-0.654-7.743-1.152-11.615
	c-1.072-8.337-0.884-17.046-4.807-24.674C392.517,266.147,393.111,266.256,393.628,266.325z M374.707,298.793
	c-3.469-9.738,3.768-24.404-2.007-33.088c0.381,0.573,1.713-0.362,1.748-1.056c3.862-1.982,11.425,0.077,16.493,1.173
	c-0.33,0.208-0.615,0.529-0.538,0.748c3.742,10.697,4.42,24.013,4.768,36.101C387.577,303.847,377.312,306.107,374.707,298.793z
	 M445.962,342.975c-7.807,0.577-15.633,0.914-23.453,1.264c-7.566,0.338-41.011,6.341-41.362-5.601
	c-0.333-11.363,4.805-20.708,0.516-31.982c0.157-0.011,0.3-0.009,0.462-0.024c4.404-0.419,8.776-0.7,13.133-0.87
	c0.057,2.152,0.112,4.265,0.178,6.289c0.183,5.579-2.736,21.327,7.837,17.134c5.748-2.28,5.223-12.003,5.05-16.69
	c-0.085-2.311-0.195-4.621-0.297-6.932c8.742,0.048,17.485,0.442,26.359,0.971c0.544,0.032,1.128,0.094,1.709,0.154
	c-1.401,8.576-3.011,20.6,3.312,19.78c6.245-0.809,7.752-11.338,8.367-18.296c2.767,0.254,5.528,0.332,8.087-0.022
	c1.87,9.372,6.506,17.047,9.811,26.1C469.119,343.686,449.868,342.686,445.962,342.975z"/>
</svg>
