<?xml version="1.0" encoding="utf-8"?>
<!-- Generator: Adobe Illustrator 17.0.0, SVG Export Plug-In . SVG Version: 6.00 Build 0)  -->
<!DOCTYPE svg PUBLIC "-//W3C//DTD SVG 1.1//EN" "http://www.w3.org/Graphics/SVG/1.1/DTD/svg11.dtd">
<svg version="1.1" id="Слой_1" xmlns="http://www.w3.org/2000/svg" xmlns:xlink="http://www.w3.org/1999/xlink" x="0px" y="0px"
	 width="118px" height="100px" viewBox="372.445 225.14 118 100" enable-background="new 372.445 225.14 118 100"
	 xml:space="preserve">
<path fill="#8EA031" d="M483.803,268.26c0.528-6.587,2.789-15.558-2.031-20.763c-2.459-2.655-6.98-2.779-10.836-2.615
	c-0.08-0.443-0.194-0.881-0.387-1.3c-1.165-2.527-4.057-2.442-6.474-1.67c-9.514-10.186-23.733-11.014-36.739-10.5
	c-8.883,0.352-18.897,1.772-23.034,10.332c-0.291,0.034-0.575,0.081-0.835,0.153c-0.212,0.059-0.681,0.436-1.024,0.863
	c-1.614,0.072-3.164,0.553-4.338,1.576c-6.447-0.299-13.194,0.413-16.939,5.451c-0.907,1.22-0.365,1.894,0.448,1.872
	c-2.712,15.569-2.026,31.134-2.123,46.924c-0.095,15.473,10.517,18.847,23.113,19.923c9.075,0.775,18.276,0.187,27.378,0.677
	c9.819,0.529,19.725,1.323,29.564,0.947c10.099-0.385,20.112,1.394,23.841-10.911C487.234,296.525,482.75,281.395,483.803,268.26z
	 M467.412,249.569c-0.278,0.199-0.486,0.287-0.922,0.363c-1.1,0.191-2.221-0.301-3.172-0.835c-0.252-0.141-0.521-0.333-0.784-0.546
	c1.828-0.009,3.656,0.009,5.483,0.003c-0.096,0.27-0.212,0.524-0.347,0.736C467.694,249.25,467.261,249.677,467.412,249.569z
	 M438.088,234.217c8.707,0.574,16.591,3.45,22.672,9.794c-0.03,0.062-0.065,0.123-0.089,0.185c-0.403,0.328-0.763,0.707-1.068,1.119
	c-16.443,0.556-33.402,1.154-49.655,0.015c0.203-2.029-1.593-3.176-3.563-3.522C413.002,231.961,428.425,233.581,438.088,234.217z
	 M405.728,248.445c-0.854,0.622-1.877,1.061-2.642,1.274c-1.988,0.553-3.642-0.186-4.189-2.184
	C401.322,247.797,403.674,248.159,405.728,248.445z M396.369,247.309c-0.24,1.419,0.103,2.962,1.04,3.991
	c1.042,1.144,2.612,1.275,4.008,1.105c2.306-0.28,4.974-1.679,6.748-3.66c0.264,0.027,0.536,0.057,0.78,0.076
	c16.128,1.226,32.546-0.575,48.719-0.276c0.382,0.007,0.762-0.003,1.144,0.001c0.07,0.305,0.176,0.613,0.339,0.923
	c0.917,1.749,3.274,2.822,5.04,3.063c1.58,0.216,3.116-0.404,4.377-1.42c0.819-0.66,1.476-1.558,1.91-2.559
	c0.51,0.004,1.02-0.008,1.53,0c2.398,0.04,4.175,0.578,5.504,1.474c-0.733,0.426-1.41,1.101-1.611,1.816
	c-3.922,14-9.931,23.569-23.232,27.735c-2.321,0.727-4.667,1.222-7.023,1.549c-0.068-2.537-0.699-4.836-2.908-6.228
	c-3.745-2.361-10.752-0.717-14.643,0.484c-0.155,0.048-0.622,0.43-0.791,0.74c-0.905,0.325-1.978,1.304-2.04,2.195
	c-0.032,0.469-0.074,0.937-0.118,1.404c-16.736-4.3-30.605-15.279-41.2-29.774C386.722,247.351,391.506,246.984,396.369,247.309z
	 M428.489,276.598c3.866,0.225,7.743-1.102,11.578,0.388c1.835,0.713,2.517,2.416,2.68,4.455c-4.861,0.362-9.751-0.027-14.571-1.012
	c0.139-1.165,0.284-2.329,0.364-3.493C428.55,276.79,428.509,276.707,428.489,276.598z M435.242,285.533
	c2.355,0.168,4.839,0.122,7.357-0.107c-0.139,1.213-0.318,2.403-0.445,3.476c-3.705,0.246-7.403,0.047-11.11-0.176
	c-3.051-0.184-3.306-0.618-3.224-4.13c0.001-0.03,0.004-0.059,0.005-0.089C430.401,285.021,432.894,285.365,435.242,285.533z
	 M473.444,316.43c-6.625,1.592-14.909,0.534-21.676,0.375c-13.783-0.323-27.503-1.029-41.294-0.959
	c-12.861,0.065-28.136-1.027-28.408-18.269c-0.243-15.429-1.101-31.025,0.685-46.391c0.133-0.11,0.266-0.225,0.381-0.376
	c0.025-0.032,0.058-0.056,0.083-0.088c4.915,17.511,24.44,28.88,41.528,33.092c-0.216,2.478-0.29,4.945,0.26,7.433
	c0.078,0.355,0.411,0.589,0.732,0.606c5.789,0.306,11.553,0.786,17.338,0.016c0.852-0.113,2.072-1.176,2.052-2.202
	c-0.027-1.382,0.155-2.958,0.314-4.57c5.947-0.882,11.917-2.845,16.763-5.882c9.55-5.986,14.01-16.135,17.213-27.247
	c2.16,3.341,1.788,8.679,1.374,13.939c-0.888,11.272,0.149,21.824,0.392,33.06C481.332,305.911,481.311,314.54,473.444,316.43z"/>
</svg>
