<?xml version="1.0" encoding="utf-8"?>
<!-- Generator: Adobe Illustrator 17.0.0, SVG Export Plug-In . SVG Version: 6.00 Build 0)  -->
<!DOCTYPE svg PUBLIC "-//W3C//DTD SVG 1.1//EN" "http://www.w3.org/Graphics/SVG/1.1/DTD/svg11.dtd">
<svg version="1.1" id="Слой_1" xmlns="http://www.w3.org/2000/svg" xmlns:xlink="http://www.w3.org/1999/xlink" x="0px" y="0px"
	 width="86.353px" height="67px" viewBox="328.445 247.14 86.353 67" enable-background="new 328.445 247.14 86.353 67"
	 xml:space="preserve">
<g>
	<g>
		<path fill="#241200" d="M357.442,271.103h1.379v1.422h-1.379V271.103z"/>
		<path fill="#241200" d="M360.449,271.103h1.379v1.422h-1.379V271.103z"/>
		<path fill="#241200" d="M363.455,271.103h1.379v1.422h-1.379V271.103z"/>
		<path fill="#241200" d="M366.447,265.429h3.404c0.651,0,1.171,0.172,1.559,0.516c0.388,0.345,0.581,0.806,0.581,1.385
			c0,0.711-0.33,1.219-0.991,1.524c0.355,0.159,0.629,0.375,0.82,0.646s0.287,0.612,0.287,1.022c0,0.615-0.189,1.103-0.567,1.463
			c-0.378,0.359-0.904,0.54-1.579,0.54h-3.514L366.447,265.429L366.447,265.429z M369.585,268.341c0.67,0,1.005-0.294,1.005-0.882
			c0-0.273-0.085-0.482-0.257-0.626c-0.17-0.144-0.42-0.215-0.748-0.215h-1.709v1.723H369.585z M369.681,271.335
			c0.319,0,0.569-0.087,0.752-0.26c0.183-0.174,0.273-0.403,0.273-0.69c0-0.301-0.091-0.533-0.273-0.697s-0.433-0.246-0.752-0.246
			h-1.805v1.894h1.805V271.335z"/>
		<path fill="#241200" d="M373.254,265.429h1.429v4.812l3.083-4.812h1.429v7.096h-1.429v-4.888l-3.083,4.888h-1.429V265.429z"/>
		<path fill="#241200" d="M379.85,271.178h0.813c0.123-0.306,0.233-0.625,0.331-0.957c0.099-0.333,0.177-0.718,0.236-1.155
			s0.105-0.95,0.141-1.538c0.033-0.588,0.051-1.288,0.051-2.099h4.785v5.749h0.978v3.165h-1.34v-1.818h-4.648v1.818h-1.347
			L379.85,271.178L379.85,271.178z M384.778,271.178v-4.409h-2.003c0,0.578-0.016,1.088-0.048,1.527
			c-0.032,0.44-0.076,0.834-0.134,1.183c-0.057,0.349-0.124,0.661-0.201,0.937s-0.159,0.53-0.246,0.763h2.632V271.178z"/>
		<path fill="#241200" d="M390.663,272.606c-0.383,0-0.747-0.055-1.094-0.164c-0.159-0.051-0.333-0.13-0.52-0.239
			c-0.169-0.073-0.335-0.181-0.499-0.321c-0.31-0.283-0.554-0.652-0.731-1.107c-0.205-0.447-0.308-1.039-0.308-1.777
			c0-0.721,0.089-1.304,0.267-1.75c0.187-0.497,0.415-0.871,0.684-1.121c0.273-0.27,0.59-0.47,0.95-0.602
			c0.337-0.123,0.679-0.185,1.025-0.185c0.812,0.018,1.497,0.284,2.058,0.8c0.561,0.523,0.85,1.258,0.868,2.201v1.176h-4.423
			c0,0.569,0.164,1.002,0.492,1.299c0.314,0.301,0.716,0.451,1.203,0.451c0.579,0,1.096-0.23,1.552-0.69l1.039,0.882
			C392.488,272.232,391.634,272.615,390.663,272.606z M391.935,268.341c-0.019-0.543-0.166-0.96-0.444-1.251
			c-0.273-0.27-0.624-0.403-1.053-0.403s-0.779,0.134-1.053,0.403c-0.269,0.291-0.417,0.708-0.444,1.251H391.935z"/>
		<path fill="#241200" d="M397.087,272.606c-0.524,0-0.969-0.103-1.333-0.308c-0.36-0.188-0.634-0.388-0.82-0.602
			c-0.273-0.297-0.47-0.636-0.588-1.019c-0.123-0.374-0.185-0.943-0.185-1.709c0-0.757,0.062-1.331,0.185-1.723
			c0.128-0.401,0.323-0.734,0.588-0.998c0.196-0.232,0.47-0.442,0.82-0.629c0.355-0.188,0.8-0.28,1.333-0.28
			c0.552,0,1.005,0.093,1.36,0.28c0.342,0.187,0.606,0.396,0.793,0.629c0.273,0.264,0.474,0.597,0.602,0.998
			c0.114,0.41,0.171,0.984,0.171,1.723c0,0.747-0.057,1.316-0.171,1.709c-0.128,0.392-0.328,0.731-0.602,1.019
			c-0.046,0.045-0.096,0.097-0.15,0.153c-0.055,0.058-0.116,0.108-0.185,0.154c-0.128,0.113-0.28,0.212-0.458,0.294
			C398.083,272.504,397.629,272.606,397.087,272.606z M397.087,271.178c0.251,0,0.479-0.051,0.684-0.15
			c0.205-0.096,0.36-0.217,0.465-0.362c0.15-0.196,0.244-0.401,0.28-0.615c0.019-0.114,0.034-0.26,0.048-0.438
			s0.021-0.388,0.021-0.629c0-0.251-0.007-0.468-0.021-0.649c-0.014-0.183-0.029-0.335-0.048-0.458
			c-0.036-0.215-0.13-0.41-0.28-0.588c-0.104-0.15-0.26-0.276-0.465-0.376c-0.187-0.096-0.415-0.144-0.684-0.144
			c-0.251,0-0.474,0.048-0.67,0.144c-0.187,0.091-0.347,0.216-0.479,0.376c-0.123,0.159-0.212,0.355-0.267,0.588
			c-0.055,0.241-0.082,0.605-0.082,1.094c0,0.492,0.027,0.852,0.082,1.08c0.055,0.232,0.144,0.438,0.267,0.615
			c0.142,0.146,0.301,0.267,0.479,0.362C396.641,271.127,396.863,271.178,397.087,271.178z"/>
		<path fill="#241200" d="M363.107,289.406c-0.848,0-1.584-0.284-2.208-0.854c-0.665-0.569-1.003-1.492-1.012-2.769
			c0.019-1.299,0.355-2.232,1.012-2.803c0.634-0.578,1.369-0.858,2.208-0.841c0.552,0.019,1.037,0.133,1.456,0.342
			c0.433,0.224,0.798,0.522,1.094,0.896l-1.053,0.937c-0.36-0.487-0.839-0.735-1.436-0.745c-1.226-0.018-1.844,0.721-1.853,2.215
			c0.009,1.481,0.627,2.213,1.853,2.194c0.606-0.018,1.085-0.264,1.436-0.738l1.053,0.937c-0.319,0.355-0.684,0.646-1.094,0.868
			C364.135,289.286,363.649,289.406,363.107,289.406z"/>
		<path fill="#241200" d="M368.875,289.406c-0.524,0-0.969-0.103-1.333-0.308c-0.36-0.187-0.634-0.387-0.82-0.602
			c-0.273-0.296-0.47-0.636-0.588-1.019c-0.123-0.373-0.185-0.943-0.185-1.709c0-0.756,0.062-1.33,0.185-1.723
			c0.128-0.4,0.323-0.733,0.588-0.998c0.196-0.232,0.47-0.441,0.82-0.629c0.355-0.187,0.8-0.28,1.333-0.28
			c0.552,0,1.005,0.094,1.36,0.28c0.342,0.188,0.606,0.396,0.793,0.629c0.273,0.265,0.474,0.598,0.602,0.998
			c0.114,0.41,0.171,0.984,0.171,1.723c0,0.748-0.057,1.317-0.171,1.709c-0.128,0.393-0.328,0.731-0.602,1.019
			c-0.046,0.046-0.096,0.097-0.15,0.154c-0.055,0.057-0.116,0.108-0.185,0.153c-0.128,0.114-0.28,0.212-0.458,0.294
			C369.871,289.304,369.417,289.406,368.875,289.406z M368.875,287.978c0.251,0,0.479-0.05,0.684-0.15
			c0.205-0.096,0.36-0.216,0.465-0.362c0.15-0.195,0.244-0.4,0.28-0.615c0.019-0.113,0.034-0.26,0.048-0.438
			s0.021-0.387,0.021-0.629c0-0.25-0.007-0.467-0.021-0.649c-0.014-0.182-0.029-0.335-0.048-0.458
			c-0.036-0.214-0.13-0.41-0.28-0.588c-0.104-0.15-0.26-0.275-0.465-0.376c-0.187-0.096-0.415-0.144-0.684-0.144
			c-0.251,0-0.474,0.048-0.67,0.144c-0.187,0.092-0.347,0.217-0.479,0.376c-0.123,0.16-0.212,0.355-0.267,0.588
			c-0.055,0.242-0.082,0.606-0.082,1.094c0,0.492,0.027,0.853,0.082,1.08c0.055,0.232,0.144,0.438,0.267,0.615
			c0.142,0.146,0.301,0.267,0.479,0.362C368.429,287.928,368.651,287.978,368.875,287.978z"/>
		<path fill="#241200" d="M375.954,282.229h1.415l2.126,4.225l2.119-4.225h1.395v7.096h-1.429v-4.553l-1.634,3.254h-0.896
			l-1.668-3.254v4.553h-1.429L375.954,282.229L375.954,282.229z"/>
		<path fill="#241200" d="M384.505,282.229h1.429v2.769h2.816v-2.769h1.429v7.096h-1.429v-2.98h-2.816v2.98h-1.429V282.229z"/>
		<path fill="#241200" d="M394.252,289.406c-0.524,0-0.969-0.103-1.333-0.308c-0.36-0.187-0.634-0.387-0.82-0.602
			c-0.273-0.296-0.47-0.636-0.588-1.019c-0.123-0.373-0.185-0.943-0.185-1.709c0-0.756,0.062-1.33,0.185-1.723
			c0.128-0.4,0.323-0.733,0.588-0.998c0.196-0.232,0.47-0.441,0.82-0.629c0.355-0.187,0.8-0.28,1.333-0.28
			c0.552,0,1.005,0.094,1.36,0.28c0.342,0.188,0.606,0.396,0.793,0.629c0.273,0.265,0.474,0.598,0.602,0.998
			c0.114,0.41,0.171,0.984,0.171,1.723c0,0.748-0.057,1.317-0.171,1.709c-0.128,0.393-0.328,0.731-0.602,1.019
			c-0.046,0.046-0.096,0.097-0.15,0.154c-0.055,0.057-0.116,0.108-0.185,0.153c-0.128,0.114-0.28,0.212-0.458,0.294
			C395.248,289.304,394.794,289.406,394.252,289.406z M394.252,287.978c0.251,0,0.479-0.05,0.684-0.15
			c0.205-0.096,0.36-0.216,0.465-0.362c0.15-0.195,0.244-0.4,0.28-0.615c0.019-0.113,0.034-0.26,0.048-0.438
			s0.021-0.387,0.021-0.629c0-0.25-0.007-0.467-0.021-0.649c-0.014-0.182-0.029-0.335-0.048-0.458
			c-0.036-0.214-0.13-0.41-0.28-0.588c-0.104-0.15-0.26-0.275-0.465-0.376c-0.187-0.096-0.415-0.144-0.684-0.144
			c-0.251,0-0.474,0.048-0.67,0.144c-0.187,0.092-0.347,0.217-0.479,0.376c-0.123,0.16-0.212,0.355-0.267,0.588
			c-0.055,0.242-0.082,0.606-0.082,1.094c0,0.492,0.027,0.853,0.082,1.08c0.055,0.232,0.144,0.438,0.267,0.615
			c0.142,0.146,0.301,0.267,0.479,0.362C393.806,287.928,394.028,287.978,394.252,287.978z"/>
		<path fill="#241200" d="M398.324,282.229h1.429v4.812l3.083-4.812h1.429v7.096h-1.429v-4.888l-3.083,4.888h-1.429V282.229z
			 M399.883,279.275c0.096,0.374,0.26,0.639,0.492,0.793c0.241,0.16,0.549,0.239,0.923,0.239c0.347,0.01,0.645-0.065,0.896-0.226
			c0.26-0.146,0.433-0.414,0.52-0.807h0.841c-0.05,0.588-0.267,1.053-0.649,1.395c-0.383,0.374-0.918,0.561-1.606,0.561
			c-0.675,0-1.201-0.187-1.579-0.561c-0.392-0.342-0.617-0.807-0.677-1.395h0.839V279.275z"/>
	</g>
</g>
<path d="M412.124,270.218c-9.144-17.184-28.704-17.29-45.474-13.293c-7.73,1.842-18.275,4.195-23.847,10.264
	c-3.129,3.408-7.06,13.321-0.828,15.912c0.242,0.101,0.023-0.85-0.224-0.979c-3.386-1.771-1.595-6.545-0.589-9.232
	c1.221-3.262,4.639-5.566,7.524-7.209c5.131-2.921,11.243-4.515,16.914-6.024c12.158-3.236,27.025-5.129,38.045,2.364
	c11.914,8.101,12.176,24.428-0.404,31.559c-6.486,3.677-15.246,4.307-22.546,4.313c-4.193,0.003-8.351-0.525-12.25-2.105
	c-3.343-1.355-6.401-3.364-9.702-4.823c-0.245-0.108-0.381-0.054-0.526,0.144c-4.259,5.83-9.298,10.385-15.517,12.79
	c1.329-1.78,2.286-3.871,2.781-5.986c1.328-5.681-1.919-9.863-4.772-14.384c-1.058-1.677-2.123-0.954-1.09,0.716
	c2.722,4.399,4.943,7.811,3.137,13.177c-1.406,4.179-5.27,7.994-9.755,8.355c-1,0.081,0.616,2.992,1.575,2.973
	c9.681-0.186,17.28-4.636,23.415-11.966c2.035-2.431,2.473-2.782,5.545-1.203c2.4,1.233,4.73,2.529,7.235,3.542
	c5.335,2.159,11.767,1.896,17.383,1.467c8.744-0.669,18.398-2.78,23.757-10.302C416.082,284.431,415.359,276.298,412.124,270.218z"
	/>
</svg>
