<?xml version="1.0" encoding="utf-8"?>
<!-- Generator: Adobe Illustrator 17.0.0, SVG Export Plug-In . SVG Version: 6.00 Build 0)  -->
<!DOCTYPE svg PUBLIC "-//W3C//DTD SVG 1.1//EN" "http://www.w3.org/Graphics/SVG/1.1/DTD/svg11.dtd">
<svg version="1.1" id="Слой_1" xmlns="http://www.w3.org/2000/svg" xmlns:xlink="http://www.w3.org/1999/xlink" x="0px" y="0px"
	 width="28px" height="27.25px" viewBox="405.82 282.89 28 27.25" enable-background="new 405.82 282.89 28 27.25"
	 xml:space="preserve">
<g>
	<path d="M432.583,287.243c-0.297-2.835-5.332-1.864-7.011-1.848c-5.111,0.047-10.482-0.58-15.552,0.116
		c-0.583,0.08-0.956,0.941-0.649,1.276c-0.076,0.064-0.146,0.144-0.204,0.243c-1.963,3.337-1.321,6.556-0.789,10.252
		c0.454,3.153-1.155,8.533,1.45,10.807c0.515,0.45,1.686,0.608,2.335,0.574c3.017-0.157,5.94-0.403,8.965-0.21
		c2.803,0.179,7.758,1.586,10.342-0.217c1.701-1.187,1.078-5.09,0.967-6.831C432.137,296.695,433.077,291.961,432.583,287.243z
		 M431.075,304.992c-0.488,3.82-5.16,2.411-7.899,2.17c-2.875-0.253-5.696-0.299-8.572-0.087c-1.984,0.146-4.491-0.093-4.58-2.483
		c-0.067-1.789-0.094-3.581-0.117-5.371c-0.051-3.949-1.781-8.028,0.385-11.711c0.162-0.276,0.154-0.493,0.067-0.651
		c5.992-0.739,12.523-0.136,18.538-0.037c3.282,0.054,2.417,7.33,2.284,9.279C430.984,299.02,431.442,302.118,431.075,304.992z"/>
	<path stroke="#000000" stroke-miterlimit="10" d="M423.431,296.477c0.153-0.009,0.307-0.019,0.46-0.027
		c1.905-0.102,3.384-0.445,3.756-2.461c0.357-1.934-1.542-3.485-3.261-3.754c-1.487-0.233-2.995-0.042-4.484,0.097
		c-1.52,0.142-3.104-0.105-4.571,0.346c-0.135-0.358-0.848,0.065-0.836,0.481c0.125,4.421-0.374,8.829-0.333,13.25
		c0.005,0.559,0.869,0.085,0.865-0.368c-0.022-2.382,0.112-4.76,0.221-7.138c2.11-0.047,4.229-0.186,6.341-0.317
		c0.024,0.019,0.043,0.042,0.077,0.055c2.825,1.099,5.112,4.943,5.496,7.851c0.075,0.568,0.926,0.09,0.865-0.368
		C427.675,301.471,425.844,298.118,423.431,296.477z M415.367,291.507c1.486-0.472,3.678-0.233,5.222-0.377
		c2.287-0.213,5.591-0.402,6.191,2.516c0.515,2.505-4.045,1.922-5.218,1.946c-2.095,0.043-4.176,0.39-6.277,0.437
		C415.349,294.522,415.388,293.015,415.367,291.507z"/>
</g>
</svg>
