<?xml version="1.0" encoding="utf-8"?>
<!-- Generator: Adobe Illustrator 17.0.0, SVG Export Plug-In . SVG Version: 6.00 Build 0)  -->
<!DOCTYPE svg PUBLIC "-//W3C//DTD SVG 1.1//EN" "http://www.w3.org/Graphics/SVG/1.1/DTD/svg11.dtd">
<svg version="1.1" id="Слой_1" xmlns="http://www.w3.org/2000/svg" xmlns:xlink="http://www.w3.org/1999/xlink" x="0px" y="0px"
	 width="247.933px" height="34px" viewBox="293.445 282.14 247.933 34" enable-background="new 293.445 282.14 247.933 34"
	 xml:space="preserve">
<g>
	<rect x="335.707" y="292.913" fill="none" width="205.671" height="14.5"/>
	<g enable-background="new    ">
		<path d="M337.705,293.48c0.12,0.636,0.18,1.332,0.18,2.088c0,0.36-0.016,0.711-0.045,1.053c-0.03,0.343-0.075,0.676-0.135,0.999
			c0.084,0.145,0.174,0.207,0.27,0.189c0.096-0.018,0.198-0.063,0.306-0.135c0.108-0.072,0.219-0.147,0.333-0.226
			c0.114-0.077,0.23-0.11,0.351-0.099c0.36,0.048,0.663,0.18,0.909,0.396c0.246,0.217,0.465,0.472,0.657,0.766
			c0.191,0.294,0.36,0.609,0.504,0.944c0.144,0.337,0.288,0.648,0.432,0.937c-0.024,0.096-0.03,0.204-0.018,0.324
			c0.012,0.12,0.021,0.233,0.027,0.342c0.006,0.108-0.012,0.204-0.054,0.288s-0.129,0.138-0.261,0.162
			c-0.084-0.336-0.18-0.685-0.288-1.044c-0.108-0.36-0.249-0.702-0.423-1.026c-0.174-0.324-0.39-0.608-0.648-0.854
			c-0.258-0.246-0.585-0.424-0.981-0.531c-0.264,0.191-0.471,0.417-0.621,0.675c-0.15,0.258-0.261,0.534-0.333,0.828
			c-0.072,0.294-0.117,0.597-0.135,0.909c-0.018,0.312-0.027,0.624-0.027,0.936c0,0.42-0.036,0.828-0.108,1.224
			c-0.204-0.012-0.331-0.068-0.378-0.171c-0.048-0.102-0.072-0.219-0.072-0.351s0.003-0.271,0.009-0.414
			c0.006-0.144-0.04-0.258-0.135-0.342c0.108-1.272,0.162-2.514,0.162-3.727c0-1.199-0.054-2.441-0.162-3.726
			c0.06-0.036,0.114-0.084,0.162-0.144c0.048-0.061,0.096-0.117,0.144-0.172c0.048-0.054,0.102-0.093,0.162-0.116
			C337.549,293.438,337.621,293.444,337.705,293.48z"/>
		<path d="M344.941,294.92c0,0.084,0.048,0.138,0.144,0.161c0,0.12-0.003,0.265-0.009,0.433c-0.006,0.168-0.009,0.342-0.009,0.521
			c0,0.181,0.009,0.36,0.027,0.54c0.018,0.181,0.057,0.343,0.117,0.486c0.228,0.144,0.477,0.198,0.747,0.162
			s0.531-0.078,0.783-0.126s0.489-0.051,0.711-0.009c0.222,0.042,0.399,0.213,0.531,0.513c-0.216,0.12-0.453,0.198-0.711,0.234
			c-0.258,0.035-0.519,0.071-0.783,0.107c-0.264,0.036-0.516,0.084-0.756,0.145c-0.24,0.06-0.456,0.18-0.648,0.359
			c0.036,0.385,0.066,0.771,0.09,1.161c0.023,0.391,0.078,0.769,0.162,1.134c0.084,0.366,0.222,0.711,0.414,1.035
			s0.474,0.606,0.846,0.846c0.336,0.133,0.657,0.214,0.963,0.243c0.306,0.03,0.612,0.027,0.918-0.009s0.612-0.09,0.918-0.162
			s0.627-0.144,0.963-0.216c0.024,0.324-0.024,0.563-0.144,0.72s-0.273,0.279-0.459,0.369s-0.387,0.171-0.603,0.243
			c-0.216,0.072-0.408,0.18-0.576,0.324c-0.504,0.096-1.008,0.062-1.512-0.1c-0.504-0.161-0.984-0.356-1.44-0.585
			c-0.432-0.695-0.783-1.442-1.053-2.24s-0.333-1.677-0.189-2.638c-0.205-0.18-0.42-0.27-0.648-0.27s-0.456,0.024-0.684,0.072
			c-0.229,0.048-0.457,0.071-0.684,0.071c-0.24,0-0.457-0.09-0.648-0.27c0.072-0.276,0.195-0.474,0.369-0.594
			s0.375-0.195,0.603-0.226c0.228-0.029,0.465-0.039,0.711-0.027c0.246,0.013,0.471,0.013,0.675,0c0.12-0.323,0.18-0.713,0.18-1.17
			c0-0.468-0.06-0.863-0.18-1.188c0.156-0.06,0.294-0.138,0.414-0.234c0.12-0.096,0.27-0.113,0.45-0.054V294.92z"/>
		<path d="M353.094,294.92c0,0.084,0.048,0.138,0.144,0.161c0,0.12-0.003,0.265-0.009,0.433c-0.006,0.168-0.009,0.342-0.009,0.521
			c0,0.181,0.009,0.36,0.027,0.54c0.018,0.181,0.057,0.343,0.117,0.486c0.228,0.144,0.477,0.198,0.747,0.162
			s0.531-0.078,0.783-0.126s0.489-0.051,0.711-0.009c0.222,0.042,0.399,0.213,0.531,0.513c-0.216,0.12-0.453,0.198-0.711,0.234
			c-0.258,0.035-0.519,0.071-0.783,0.107c-0.264,0.036-0.516,0.084-0.756,0.145c-0.24,0.06-0.456,0.18-0.648,0.359
			c0.036,0.385,0.066,0.771,0.09,1.161c0.023,0.391,0.078,0.769,0.162,1.134c0.084,0.366,0.222,0.711,0.414,1.035
			s0.474,0.606,0.846,0.846c0.336,0.133,0.657,0.214,0.963,0.243c0.306,0.03,0.612,0.027,0.918-0.009s0.612-0.09,0.918-0.162
			s0.627-0.144,0.963-0.216c0.024,0.324-0.024,0.563-0.144,0.72s-0.273,0.279-0.459,0.369s-0.387,0.171-0.603,0.243
			c-0.216,0.072-0.408,0.18-0.576,0.324c-0.504,0.096-1.008,0.062-1.512-0.1c-0.504-0.161-0.984-0.356-1.44-0.585
			c-0.432-0.695-0.783-1.442-1.053-2.24s-0.333-1.677-0.189-2.638c-0.205-0.18-0.42-0.27-0.648-0.27s-0.456,0.024-0.684,0.072
			c-0.229,0.048-0.457,0.071-0.684,0.071c-0.24,0-0.457-0.09-0.648-0.27c0.072-0.276,0.195-0.474,0.369-0.594
			s0.375-0.195,0.603-0.226c0.228-0.029,0.465-0.039,0.711-0.027c0.246,0.013,0.471,0.013,0.675,0c0.12-0.323,0.18-0.713,0.18-1.17
			c0-0.468-0.06-0.863-0.18-1.188c0.156-0.06,0.294-0.138,0.414-0.234c0.12-0.096,0.27-0.113,0.45-0.054V294.92z"/>
		<path d="M362.472,298.016c0.108,0.252,0.207,0.507,0.297,0.765c0.09,0.259,0.153,0.517,0.189,0.774
			c0.036,0.258,0.024,0.516-0.036,0.773c-0.061,0.259-0.187,0.514-0.378,0.766c-0.072,0.144-0.16,0.255-0.261,0.333
			c-0.102,0.078-0.207,0.138-0.315,0.18s-0.222,0.081-0.342,0.117s-0.234,0.09-0.342,0.162s-0.216,0.093-0.324,0.062
			c-0.108-0.029-0.207-0.06-0.297-0.09c-0.09-0.029-0.171-0.036-0.243-0.018c-0.072,0.018-0.132,0.104-0.18,0.261
			c0.132,0.54,0.255,1.059,0.369,1.557c0.114,0.498,0.213,0.996,0.297,1.494s0.147,1.005,0.189,1.521
			c0.042,0.516,0.057,1.056,0.045,1.62c-0.144,0.071-0.255,0.081-0.333,0.026c-0.078-0.054-0.138-0.135-0.18-0.243
			c-0.042-0.107-0.081-0.222-0.117-0.342s-0.078-0.216-0.126-0.288c-0.048-0.983-0.174-1.982-0.378-2.997
			c-0.204-1.014-0.378-2.03-0.522-3.051c-0.132-0.216-0.264-0.456-0.396-0.72c-0.132-0.264-0.231-0.537-0.297-0.819
			c-0.066-0.281-0.087-0.561-0.063-0.837c0.024-0.275,0.12-0.54,0.288-0.792c0.144-0.36,0.372-0.618,0.684-0.773
			c0.312-0.156,0.642-0.234,0.99-0.234c0.36,0,0.702,0.072,1.026,0.216C362.04,297.584,362.292,297.776,362.472,298.016z
			 M359.934,298.123c-0.036,0.085-0.087,0.178-0.153,0.279c-0.066,0.103-0.126,0.213-0.18,0.333c-0.054,0.12-0.09,0.243-0.108,0.369
			s0.003,0.261,0.063,0.405c0.06,0.168,0.141,0.336,0.243,0.504c0.102,0.168,0.222,0.324,0.36,0.468
			c0.138,0.145,0.294,0.258,0.468,0.342s0.363,0.12,0.567,0.108c0.18-0.012,0.327-0.06,0.441-0.145
			c0.114-0.083,0.204-0.186,0.27-0.306c0.066-0.12,0.123-0.255,0.171-0.405c0.048-0.149,0.102-0.297,0.162-0.44
			c-0.048-0.324-0.153-0.564-0.315-0.72c-0.162-0.156-0.351-0.273-0.567-0.352c-0.216-0.078-0.45-0.141-0.702-0.188
			S360.162,298.244,359.934,298.123z"/>
		<path d="M368.97,299.672c-0.048,0.168-0.129,0.297-0.243,0.387c-0.114,0.09-0.24,0.15-0.378,0.18
			c-0.138,0.03-0.276,0.033-0.414,0.009c-0.138-0.023-0.249-0.071-0.333-0.144c-0.144-0.06-0.243-0.162-0.297-0.306
			c-0.054-0.145-0.078-0.3-0.072-0.469c0.006-0.167,0.03-0.335,0.072-0.504c0.042-0.168,0.087-0.306,0.135-0.414
			c0.204-0.252,0.438-0.387,0.702-0.404c0.264-0.019,0.495,0.045,0.693,0.188c0.198,0.145,0.324,0.349,0.378,0.612
			C369.267,299.072,369.186,299.36,368.97,299.672z M369.33,294.92c0.024,0.18,0.033,0.362,0.027,0.549
			c-0.006,0.186-0.036,0.354-0.09,0.504c-0.054,0.15-0.135,0.27-0.243,0.36c-0.108,0.09-0.252,0.123-0.432,0.099
			c-0.205,0-0.402-0.078-0.594-0.234c-0.192-0.155-0.324-0.342-0.396-0.558c-0.072-0.204-0.084-0.381-0.036-0.531
			c0.048-0.149,0.123-0.279,0.225-0.387c0.102-0.108,0.216-0.198,0.342-0.271c0.126-0.071,0.237-0.126,0.333-0.162
			c0.072,0.072,0.147,0.12,0.225,0.145s0.156,0.054,0.234,0.09s0.153,0.081,0.225,0.135
			C369.222,294.713,369.282,294.8,369.33,294.92z"/>
		<path d="M379.554,291.95c0.144,0.276,0.177,0.592,0.099,0.945c-0.079,0.354-0.223,0.735-0.432,1.143
			c-0.21,0.408-0.465,0.835-0.765,1.278c-0.3,0.444-0.609,0.897-0.927,1.359c-0.318,0.462-0.618,0.924-0.9,1.386
			c-0.282,0.462-0.507,0.915-0.675,1.359c-0.132,0.348-0.288,0.647-0.468,0.899c-0.18,0.252-0.373,0.498-0.576,0.738
			c-0.204,0.24-0.408,0.492-0.612,0.756s-0.396,0.576-0.576,0.937h-0.72c0.528-0.948,1.038-1.908,1.53-2.881
			c0.492-0.972,0.996-1.923,1.512-2.853s1.059-1.827,1.629-2.691C378.242,293.462,378.87,292.67,379.554,291.95z"/>
		<path d="M387.834,291.95c0.144,0.276,0.177,0.592,0.099,0.945c-0.079,0.354-0.223,0.735-0.432,1.143
			c-0.21,0.408-0.465,0.835-0.765,1.278c-0.3,0.444-0.609,0.897-0.927,1.359c-0.318,0.462-0.618,0.924-0.9,1.386
			c-0.282,0.462-0.507,0.915-0.675,1.359c-0.132,0.348-0.288,0.647-0.468,0.899c-0.18,0.252-0.373,0.498-0.576,0.738
			c-0.204,0.24-0.408,0.492-0.612,0.756s-0.396,0.576-0.576,0.937h-0.72c0.528-0.948,1.038-1.908,1.53-2.881
			c0.492-0.972,0.996-1.923,1.512-2.853s1.059-1.827,1.629-2.691C386.522,293.462,387.15,292.67,387.834,291.95z"/>
		<path d="M391.749,295.388c-0.03,0.12,0.021,0.21,0.153,0.27c0.372-0.144,0.765-0.252,1.179-0.323
			c0.414-0.072,0.819-0.094,1.215-0.063s0.774,0.12,1.134,0.271c0.36,0.149,0.678,0.375,0.954,0.675
			c0.06,0.071,0.075,0.135,0.045,0.188c-0.03,0.055-0.066,0.103-0.108,0.145c-0.042,0.042-0.069,0.09-0.081,0.144
			c-0.012,0.054,0.036,0.117,0.144,0.189c-0.24,0.096-0.465,0.126-0.675,0.09s-0.414-0.1-0.612-0.189
			c-0.198-0.09-0.393-0.191-0.585-0.306c-0.192-0.114-0.39-0.207-0.594-0.279c-0.204-0.071-0.417-0.104-0.639-0.099
			c-0.222,0.006-0.459,0.081-0.711,0.225c-0.3,0.061-0.534,0.162-0.702,0.307c-0.168,0.144-0.297,0.312-0.387,0.504
			c-0.09,0.191-0.15,0.404-0.18,0.639c-0.03,0.234-0.061,0.468-0.09,0.702s-0.069,0.462-0.117,0.684
			c-0.048,0.223-0.132,0.423-0.252,0.604c-0.024,0.24-0.027,0.489-0.009,0.747s0.015,0.51-0.009,0.756
			c-0.024,0.246-0.09,0.468-0.198,0.666s-0.306,0.357-0.594,0.477c-0.156-0.432-0.213-0.854-0.171-1.269
			c0.042-0.414,0.117-0.831,0.225-1.251c0.108-0.42,0.21-0.846,0.306-1.278c0.096-0.432,0.114-0.888,0.054-1.368
			c0.132-0.18,0.207-0.404,0.225-0.675c0.018-0.27,0.042-0.531,0.072-0.783c0.03-0.252,0.093-0.477,0.189-0.675
			c0.096-0.198,0.288-0.32,0.576-0.369l0.252,0.271C391.782,295.142,391.779,295.268,391.749,295.388z"/>
		<path d="M400.524,296.792c0.108,0.155,0.159,0.303,0.153,0.44c-0.006,0.139-0.039,0.273-0.099,0.405s-0.129,0.264-0.207,0.396
			c-0.078,0.133-0.141,0.271-0.189,0.414c-0.204,0.097-0.411,0.204-0.621,0.324s-0.423,0.223-0.639,0.306
			c-0.216,0.085-0.444,0.136-0.684,0.153c-0.24,0.018-0.486-0.027-0.738-0.135c-0.024,0.252-0.057,0.525-0.099,0.818
			c-0.042,0.295-0.054,0.583-0.036,0.864c0.018,0.282,0.081,0.543,0.189,0.783s0.3,0.426,0.576,0.558l0.144,0.145l2.394-0.774
			c-0.012,0.288-0.099,0.495-0.261,0.621s-0.354,0.22-0.576,0.279c-0.222,0.061-0.453,0.107-0.693,0.144
			c-0.24,0.036-0.444,0.108-0.612,0.217c-0.3,0.107-0.552,0.135-0.756,0.08c-0.204-0.054-0.375-0.158-0.513-0.314
			c-0.138-0.156-0.246-0.339-0.324-0.549s-0.147-0.417-0.207-0.621l0.144-2.25c-0.108-0.048-0.177-0.108-0.207-0.18
			c-0.03-0.072-0.045-0.15-0.045-0.234s0.006-0.171,0.018-0.261c0.012-0.091,0.006-0.171-0.018-0.243
			c0.156-0.132,0.285-0.291,0.387-0.478c0.102-0.186,0.204-0.375,0.306-0.566c0.102-0.192,0.213-0.375,0.333-0.549
			s0.282-0.315,0.486-0.424c0.192,0.036,0.411,0.039,0.657,0.01c0.246-0.03,0.483-0.042,0.711-0.036s0.435,0.051,0.621,0.135
			S400.439,296.528,400.524,296.792z M398.759,296.792c-0.156,0.048-0.276,0.12-0.36,0.216c-0.084,0.096-0.153,0.204-0.207,0.323
			c-0.054,0.12-0.102,0.246-0.144,0.379c-0.042,0.132-0.099,0.252-0.171,0.359l1.53,0.108l0.144-0.738
			c-0.084-0.06-0.15-0.126-0.198-0.198c-0.048-0.071-0.099-0.138-0.153-0.197c-0.054-0.061-0.114-0.114-0.18-0.162
			S398.867,296.804,398.759,296.792z"/>
		<path d="M410.964,297.188c-0.252,0.636-0.552,1.263-0.9,1.881s-0.729,1.228-1.143,1.827c-0.414,0.601-0.849,1.186-1.305,1.755
			c-0.456,0.57-0.918,1.125-1.386,1.665c-0.456-0.264-0.807-0.585-1.053-0.963c-0.246-0.378-0.468-0.771-0.666-1.179
			c-0.198-0.408-0.42-0.802-0.666-1.18c-0.246-0.378-0.597-0.698-1.053-0.963l-0.054-0.504c0.096,0.036,0.183,0.003,0.261-0.099
			s0.087-0.189,0.027-0.261l-0.054-0.486c0.396,0.216,0.723,0.492,0.981,0.828c0.258,0.336,0.495,0.69,0.711,1.062
			c0.216,0.372,0.438,0.741,0.666,1.107s0.516,0.692,0.864,0.98c0.432-0.288,0.804-0.621,1.116-0.999s0.597-0.773,0.855-1.188
			c0.258-0.414,0.507-0.837,0.747-1.27c0.24-0.432,0.504-0.846,0.792-1.241c0.216-0.108,0.417-0.249,0.603-0.424
			C410.492,297.365,410.711,297.248,410.964,297.188z"/>
		<path d="M414.689,295.892c-0.084,0.72-0.16,1.35-0.225,1.89c-0.066,0.54-0.126,1.054-0.18,1.539
			c-0.054,0.486-0.099,0.979-0.135,1.477c-0.036,0.498-0.066,1.059-0.09,1.683l-0.576,0.126c-0.084-0.684-0.156-1.269-0.216-1.755
			s-0.09-0.951-0.09-1.396c0-0.455,0.039-0.92,0.117-1.395c0.078-0.474,0.207-1.022,0.387-1.647c0.048-0.096,0.12-0.158,0.216-0.188
			c0.096-0.03,0.192-0.054,0.288-0.072c0.096-0.018,0.192-0.042,0.288-0.072C414.569,296.051,414.641,295.988,414.689,295.892z
			 M415.247,292.94c0.144,0.36,0.123,0.705-0.063,1.035s-0.429,0.609-0.729,0.837c-0.096,0.072-0.171,0.103-0.225,0.09
			c-0.054-0.012-0.099-0.042-0.135-0.09s-0.072-0.104-0.108-0.171c-0.036-0.065-0.078-0.117-0.126-0.153
			c-0.168-0.336-0.159-0.647,0.027-0.936s0.411-0.54,0.675-0.756c0.048-0.012,0.111-0.027,0.189-0.045
			c0.078-0.019,0.15-0.024,0.216-0.019s0.126,0.024,0.18,0.054C415.202,292.817,415.235,292.868,415.247,292.94z"/>
		<path d="M422.393,298.214c-0.013,0.071-0.016,0.152-0.01,0.242c0.006,0.091,0.01,0.175,0.01,0.253s-0.007,0.152-0.019,0.225
			s-0.048,0.132-0.107,0.18c-0.229-0.144-0.447-0.314-0.657-0.513c-0.21-0.198-0.427-0.375-0.648-0.531
			c-0.222-0.155-0.456-0.267-0.702-0.333c-0.246-0.065-0.513-0.039-0.801,0.081c-0.324,0.324-0.471,0.654-0.441,0.99
			c0.03,0.336,0.135,0.675,0.315,1.017c0.18,0.343,0.39,0.688,0.63,1.035c0.24,0.349,0.408,0.69,0.504,1.026l-0.108,1.638
			c-0.348,0.168-0.732,0.297-1.152,0.387c-0.42,0.091-0.828,0.058-1.224-0.099c-0.204-0.072-0.405-0.174-0.603-0.306
			c-0.198-0.133-0.384-0.279-0.558-0.441s-0.336-0.333-0.486-0.513c-0.15-0.181-0.279-0.348-0.387-0.504
			c0.252-0.072,0.495-0.069,0.729,0.009c0.234,0.078,0.462,0.183,0.684,0.314c0.222,0.133,0.444,0.268,0.666,0.405
			c0.222,0.139,0.453,0.237,0.693,0.297c0.204,0.072,0.369,0.048,0.495-0.071c0.126-0.12,0.261-0.246,0.405-0.379
			c0.048-0.323,0.021-0.633-0.081-0.927c-0.102-0.294-0.231-0.578-0.387-0.854s-0.318-0.546-0.486-0.811
			c-0.168-0.264-0.297-0.53-0.387-0.801c-0.09-0.27-0.12-0.549-0.09-0.837c0.03-0.288,0.165-0.588,0.405-0.9
			c0.24-0.42,0.54-0.684,0.9-0.792c0.36-0.107,0.729-0.11,1.107-0.009c0.378,0.103,0.729,0.291,1.053,0.567
			S422.224,297.854,422.393,298.214z"/>
		<path d="M426.155,295.892c-0.084,0.72-0.159,1.35-0.225,1.89c-0.066,0.54-0.126,1.054-0.181,1.539
			c-0.054,0.486-0.099,0.979-0.135,1.477s-0.066,1.059-0.09,1.683l-0.576,0.126c-0.084-0.684-0.156-1.269-0.216-1.755
			c-0.061-0.486-0.09-0.951-0.09-1.396c0-0.455,0.038-0.92,0.117-1.395c0.077-0.474,0.206-1.022,0.387-1.647
			c0.048-0.096,0.12-0.158,0.216-0.188s0.191-0.054,0.288-0.072c0.096-0.018,0.191-0.042,0.288-0.072
			C426.035,296.051,426.107,295.988,426.155,295.892z M426.713,292.94c0.145,0.36,0.123,0.705-0.062,1.035
			c-0.187,0.33-0.43,0.609-0.729,0.837c-0.096,0.072-0.171,0.103-0.225,0.09c-0.054-0.012-0.099-0.042-0.135-0.09
			s-0.072-0.104-0.108-0.171c-0.036-0.065-0.078-0.117-0.126-0.153c-0.168-0.336-0.159-0.647,0.027-0.936
			c0.186-0.288,0.411-0.54,0.675-0.756c0.048-0.012,0.11-0.027,0.189-0.045c0.077-0.019,0.149-0.024,0.216-0.019
			c0.065,0.006,0.126,0.024,0.18,0.054C426.668,292.817,426.701,292.868,426.713,292.94z"/>
		<path d="M433.337,299.15c0.12,0.252,0.198,0.507,0.234,0.765c0.036,0.259,0.036,0.514,0,0.766s-0.1,0.498-0.189,0.738
			s-0.195,0.468-0.314,0.684c-0.24,0.24-0.498,0.483-0.774,0.729c-0.276,0.246-0.567,0.444-0.873,0.595
			c-0.306,0.149-0.621,0.236-0.945,0.261c-0.323,0.023-0.647-0.066-0.972-0.27c-0.384-0.276-0.627-0.676-0.729-1.197
			c-0.103-0.522-0.13-1.047-0.081-1.575c-0.013-0.18,0.015-0.363,0.081-0.549c0.065-0.187,0.155-0.363,0.27-0.531
			s0.24-0.327,0.378-0.477c0.138-0.15,0.267-0.273,0.387-0.369c0.217,0.107,0.405,0.107,0.567,0
			c0.162-0.108,0.321-0.234,0.477-0.378c0.156-0.145,0.321-0.262,0.495-0.352s0.381-0.057,0.621,0.1
			c0.264,0.035,0.516,0.168,0.756,0.396C432.965,298.712,433.169,298.934,433.337,299.15z M431.249,299.203
			c-0.097,0.181-0.201,0.363-0.315,0.55c-0.114,0.186-0.177,0.368-0.188,0.549c0,0.132-0.027,0.246-0.081,0.342
			s-0.12,0.168-0.198,0.216s-0.162,0.066-0.252,0.054c-0.09-0.012-0.177-0.065-0.261-0.161c-0.024-0.156-0.058-0.33-0.1-0.522
			c-0.042-0.191-0.021-0.366,0.063-0.521l-0.234,0.035c-0.359,0.589-0.534,1.213-0.521,1.872c0.084,0.097,0.155,0.21,0.216,0.343
			c0.06,0.132,0.126,0.261,0.198,0.387s0.155,0.24,0.252,0.342c0.096,0.103,0.222,0.171,0.378,0.207
			c0.216,0.061,0.462,0.069,0.738,0.027c0.275-0.042,0.516-0.129,0.72-0.262c0.144-0.18,0.291-0.368,0.44-0.566
			c0.15-0.198,0.282-0.411,0.396-0.64c0.114-0.228,0.201-0.465,0.261-0.711c0.061-0.245,0.078-0.507,0.055-0.782
			c-0.013-0.181-0.075-0.349-0.189-0.505c-0.114-0.155-0.249-0.278-0.405-0.368c-0.156-0.091-0.321-0.132-0.495-0.126
			S431.392,299.048,431.249,299.203z"/>
		<path d="M436.541,297.908c0.18-0.275,0.417-0.438,0.711-0.485s0.597-0.072,0.909-0.072c0.18,0.036,0.371,0.072,0.576,0.108
			c0.203,0.035,0.396,0.09,0.575,0.161c0.181,0.072,0.345,0.172,0.495,0.298s0.268,0.297,0.352,0.513
			c0.107,0.624,0.149,1.209,0.126,1.755c-0.024,0.546-0.03,1.119-0.019,1.719c-0.156,0.168-0.252,0.378-0.288,0.63
			s-0.081,0.495-0.135,0.729c-0.054,0.233-0.15,0.426-0.288,0.576c-0.138,0.149-0.381,0.207-0.729,0.171
			c-0.084-0.433-0.061-0.853,0.071-1.26c0.132-0.408,0.276-0.819,0.433-1.233c0.155-0.414,0.272-0.84,0.351-1.278
			c0.078-0.438,0.015-0.909-0.188-1.413c-0.192-0.216-0.396-0.396-0.612-0.54c-0.216-0.144-0.456-0.233-0.72-0.27
			c-0.408,0-0.735,0.066-0.981,0.198s-0.432,0.306-0.558,0.521s-0.204,0.472-0.234,0.766s-0.042,0.6-0.036,0.918
			c0.006,0.317,0.024,0.645,0.055,0.98c0.029,0.336,0.045,0.654,0.045,0.954c0,0.384-0.061,0.714-0.181,0.99
			c-0.312-0.192-0.507-0.456-0.585-0.792s-0.114-0.696-0.107-1.08c0.006-0.384,0.021-0.766,0.045-1.144
			c0.023-0.378-0.019-0.704-0.126-0.98c0.144-0.192,0.194-0.417,0.152-0.675s-0.084-0.507-0.126-0.747s-0.045-0.459-0.009-0.657
			s0.204-0.339,0.504-0.423c0.108,0.06,0.174,0.138,0.198,0.233c0.024,0.097,0.039,0.195,0.045,0.298
			c0.006,0.102,0.024,0.2,0.054,0.297C436.345,297.77,436.421,297.848,436.541,297.908z"/>
		<path d="M444.352,301.166c0.12,0.168,0.165,0.32,0.135,0.459c-0.03,0.138-0.099,0.264-0.207,0.378
			c-0.107,0.114-0.233,0.222-0.378,0.323c-0.144,0.103-0.27,0.207-0.378,0.315c-0.156,0.084-0.306,0.108-0.45,0.072
			c-0.144-0.036-0.281-0.103-0.414-0.198c-0.132-0.096-0.255-0.213-0.368-0.352c-0.114-0.138-0.22-0.267-0.315-0.387
			c0.024-0.107,0.051-0.222,0.081-0.342c0.029-0.12,0.072-0.228,0.126-0.324c0.054-0.096,0.126-0.174,0.216-0.233
			c0.09-0.061,0.207-0.091,0.352-0.091c0.312-0.048,0.588-0.023,0.827,0.072C443.818,300.956,444.076,301.058,444.352,301.166z"/>
		<path d="M447.961,295.388c-0.029,0.12,0.021,0.21,0.153,0.27c0.372-0.144,0.765-0.252,1.179-0.323
			c0.414-0.072,0.819-0.094,1.216-0.063c0.396,0.03,0.773,0.12,1.134,0.271c0.359,0.149,0.678,0.375,0.954,0.675
			c0.06,0.071,0.074,0.135,0.045,0.188c-0.03,0.055-0.066,0.103-0.108,0.145s-0.069,0.09-0.081,0.144s0.036,0.117,0.145,0.189
			c-0.24,0.096-0.466,0.126-0.676,0.09s-0.414-0.1-0.611-0.189c-0.198-0.09-0.394-0.191-0.585-0.306
			c-0.192-0.114-0.391-0.207-0.595-0.279c-0.204-0.071-0.417-0.104-0.639-0.099s-0.459,0.081-0.711,0.225
			c-0.3,0.061-0.534,0.162-0.702,0.307c-0.168,0.144-0.297,0.312-0.387,0.504c-0.09,0.191-0.15,0.404-0.18,0.639
			c-0.03,0.234-0.061,0.468-0.091,0.702c-0.029,0.234-0.068,0.462-0.116,0.684c-0.049,0.223-0.133,0.423-0.252,0.604
			c-0.024,0.24-0.027,0.489-0.01,0.747c0.019,0.258,0.016,0.51-0.009,0.756s-0.09,0.468-0.198,0.666
			c-0.107,0.198-0.306,0.357-0.594,0.477c-0.156-0.432-0.213-0.854-0.171-1.269s0.117-0.831,0.225-1.251
			c0.108-0.42,0.21-0.846,0.307-1.278c0.096-0.432,0.113-0.888,0.054-1.368c0.132-0.18,0.207-0.404,0.225-0.675
			c0.019-0.27,0.042-0.531,0.072-0.783s0.093-0.477,0.189-0.675c0.096-0.198,0.288-0.32,0.576-0.369l0.252,0.271
			C447.994,295.142,447.991,295.268,447.961,295.388z"/>
		<path d="M460.354,297.331c-0.108,0.312-0.135,0.66-0.081,1.045c0.054,0.384,0.081,0.75,0.081,1.098
			c0,0.228-0.048,0.456-0.145,0.684c0.072,0.36,0.181,0.673,0.324,0.937c0.145,0.264,0.414,0.426,0.811,0.485
			c0.107,0.061,0.225,0.046,0.351-0.045c0.126-0.09,0.246-0.177,0.36-0.261c0.113-0.084,0.21-0.12,0.288-0.107
			c0.077,0.012,0.122,0.149,0.135,0.413l-0.162,0.162l0.162,0.145c-0.3,0.24-0.604,0.438-0.909,0.594s-0.669,0.198-1.089,0.126
			l-0.99-1.026c-0.372,0.54-0.819,0.999-1.341,1.377c-0.522,0.379-1.107,0.586-1.755,0.621c-0.324,0.024-0.633,0.024-0.927,0
			c-0.295-0.023-0.57-0.081-0.828-0.171c-0.259-0.09-0.489-0.225-0.693-0.404c-0.204-0.181-0.378-0.42-0.521-0.721
			c-0.24-0.504-0.396-1.047-0.469-1.629c-0.071-0.582-0.107-1.179-0.107-1.791c0-0.204,0-0.405,0-0.603
			c0-0.198,0.006-0.399,0.018-0.604c0.048-0.119,0.102-0.194,0.162-0.225c0.06-0.03,0.126-0.039,0.198-0.027
			c0.072,0.013,0.146,0.033,0.225,0.063s0.159,0.039,0.243,0.026c0.024,0.372,0.03,0.766,0.018,1.18
			c-0.012,0.414-0.006,0.828,0.019,1.241c0.023,0.414,0.081,0.813,0.171,1.197c0.09,0.385,0.255,0.738,0.495,1.062
			c0.252,0.276,0.51,0.447,0.773,0.513c0.265,0.066,0.531,0.078,0.802,0.036c0.27-0.042,0.546-0.114,0.828-0.216
			c0.281-0.103,0.566-0.177,0.854-0.226c0.504-0.264,0.861-0.617,1.071-1.062s0.365-0.915,0.468-1.413
			c0.102-0.498,0.191-0.999,0.27-1.503s0.231-0.954,0.46-1.351L460.354,297.331z"/>
		<path d="M469.93,291.95c0.144,0.276,0.177,0.592,0.099,0.945c-0.078,0.354-0.223,0.735-0.432,1.143
			c-0.21,0.408-0.466,0.835-0.766,1.278c-0.3,0.444-0.609,0.897-0.927,1.359c-0.318,0.462-0.618,0.924-0.9,1.386
			c-0.281,0.462-0.507,0.915-0.675,1.359c-0.132,0.348-0.288,0.647-0.468,0.899s-0.372,0.498-0.576,0.738s-0.408,0.492-0.612,0.756
			s-0.396,0.576-0.575,0.937h-0.721c0.528-0.948,1.038-1.908,1.53-2.881c0.492-0.972,0.996-1.923,1.512-2.853
			c0.517-0.93,1.06-1.827,1.629-2.691C468.619,293.462,469.246,292.67,469.93,291.95z"/>
		<path d="M477.328,302.966c-0.168,0.132-0.315,0.228-0.441,0.288c-0.126,0.06-0.219,0.102-0.278,0.126h-0.019h-0.036
			c-0.107-0.217-0.275-0.337-0.504-0.36c-0.228-0.023-0.477-0.018-0.747,0.018c-0.27,0.036-0.53,0.069-0.782,0.1
			c-0.252,0.029-0.457-0.009-0.612-0.117c-0.312-0.168-0.573-0.387-0.783-0.657c-0.21-0.27-0.369-0.561-0.477-0.873
			c-0.108-0.312-0.175-0.636-0.198-0.972c-0.024-0.336-0.012-0.654,0.036-0.954c0.119-0.275,0.281-0.516,0.485-0.72
			s0.475-0.36,0.811-0.468c0.516-0.048,0.933-0.003,1.251,0.135c0.317,0.138,0.633,0.351,0.945,0.639
			c0-0.132-0.01-0.306-0.027-0.521c-0.019-0.217-0.054-0.447-0.108-0.693c-0.054-0.246-0.132-0.489-0.233-0.729
			c-0.103-0.239-0.243-0.449-0.423-0.63c-0.085-0.071-0.22-0.132-0.405-0.18c-0.187-0.048-0.385-0.093-0.594-0.135
			c-0.211-0.042-0.408-0.084-0.595-0.126c-0.186-0.042-0.321-0.093-0.404-0.153c-0.097-0.084-0.13-0.174-0.1-0.27
			c0.03-0.097,0.105-0.184,0.226-0.262c0.119-0.077,0.272-0.135,0.459-0.171c0.186-0.036,0.387-0.036,0.603,0
			c0.216,0,0.429,0.033,0.639,0.1c0.21,0.065,0.411,0.162,0.604,0.288c0.191,0.126,0.362,0.285,0.513,0.477
			c0.15,0.192,0.262,0.414,0.333,0.666c-0.012,0.288,0.003,0.684,0.045,1.188c0.042,0.505,0.103,1.048,0.181,1.63
			c0.077,0.582,0.174,1.167,0.288,1.755C477.091,301.97,477.208,302.497,477.328,302.966z M473.116,300.464
			c0.072,0.191,0.162,0.411,0.27,0.656c0.108,0.246,0.243,0.472,0.405,0.676s0.354,0.366,0.576,0.485
			c0.222,0.12,0.488,0.156,0.801,0.108c0-0.048,0.072-0.081,0.216-0.099c0.145-0.019,0.24-0.039,0.288-0.063l0.216-0.432
			c0.061-0.229,0.1-0.414,0.117-0.559c0.019-0.144,0.019-0.27,0-0.378c-0.018-0.107-0.051-0.222-0.099-0.342
			s-0.108-0.276-0.18-0.468c-0.205-0.3-0.492-0.522-0.864-0.666c-0.372-0.145-0.744-0.204-1.116-0.181
			c-0.204,0.133-0.345,0.315-0.423,0.55C473.245,299.987,473.175,300.224,473.116,300.464z"/>
		<path d="M485.086,291.95c0.145,0.276,0.177,0.592,0.1,0.945c-0.079,0.354-0.223,0.735-0.433,1.143
			c-0.21,0.408-0.465,0.835-0.765,1.278c-0.301,0.444-0.609,0.897-0.927,1.359c-0.318,0.462-0.618,0.924-0.9,1.386
			s-0.507,0.915-0.675,1.359c-0.133,0.348-0.288,0.647-0.468,0.899c-0.181,0.252-0.373,0.498-0.576,0.738
			c-0.204,0.24-0.408,0.492-0.612,0.756s-0.396,0.576-0.576,0.937h-0.72c0.527-0.948,1.038-1.908,1.53-2.881
			c0.491-0.972,0.995-1.923,1.512-2.853c0.516-0.93,1.059-1.827,1.629-2.691C483.774,293.462,484.402,292.67,485.086,291.95z"/>
		<path d="M492.628,301.526c-0.349,0.061-0.682,0.105-0.999,0.135c-0.318,0.03-0.627,0.061-0.927,0.091
			c-0.301,0.029-0.601,0.068-0.9,0.116c-0.3,0.049-0.612,0.12-0.936,0.217c-0.084-0.013-0.165,0.012-0.243,0.071
			c-0.078,0.061-0.156,0.117-0.234,0.171c-0.078,0.055-0.159,0.078-0.243,0.072s-0.18-0.087-0.288-0.243
			c0.097-1.02,0.168-2.021,0.217-3.006c0.048-0.983,0.065-2.004,0.054-3.06c0-0.349,0.006-0.615,0.018-0.802
			c0.012-0.186,0.019-0.351,0.019-0.494c0-0.156-0.007-0.327-0.019-0.514c-0.012-0.186-0.036-0.459-0.071-0.818l-0.217,0.107
			c0.024-0.191,0.046-0.372,0.063-0.54s0.048-0.312,0.09-0.432s0.114-0.216,0.216-0.288c0.103-0.072,0.243-0.108,0.423-0.108
			c0.108,0.757,0.184,1.407,0.226,1.953c0.042,0.547,0.068,1.068,0.081,1.566c0.012,0.498,0.012,1.005,0,1.521
			c-0.013,0.517-0.019,1.122-0.019,1.818c-0.071,0.696-0.126,1.422-0.162,2.178c0.324-0.071,0.631-0.126,0.919-0.162
			c0.287-0.036,0.581-0.071,0.882-0.107c0.3-0.036,0.603-0.072,0.908-0.108c0.307-0.036,0.64-0.09,0.999-0.162
			c0.097,0.133,0.181,0.271,0.253,0.414C492.807,301.256,492.771,301.394,492.628,301.526z"/>
		<path d="M495.939,295.892c-0.084,0.72-0.159,1.35-0.225,1.89c-0.066,0.54-0.126,1.054-0.181,1.539
			c-0.054,0.486-0.099,0.979-0.135,1.477s-0.066,1.059-0.09,1.683l-0.576,0.126c-0.084-0.684-0.156-1.269-0.216-1.755
			c-0.061-0.486-0.09-0.951-0.09-1.396c0-0.455,0.038-0.92,0.117-1.395c0.077-0.474,0.206-1.022,0.387-1.647
			c0.048-0.096,0.12-0.158,0.216-0.188s0.191-0.054,0.288-0.072c0.096-0.018,0.191-0.042,0.288-0.072
			C495.819,296.051,495.891,295.988,495.939,295.892z M496.497,292.94c0.145,0.36,0.123,0.705-0.062,1.035
			c-0.187,0.33-0.43,0.609-0.729,0.837c-0.096,0.072-0.171,0.103-0.225,0.09c-0.054-0.012-0.099-0.042-0.135-0.09
			s-0.072-0.104-0.108-0.171c-0.036-0.065-0.078-0.117-0.126-0.153c-0.168-0.336-0.159-0.647,0.027-0.936
			c0.186-0.288,0.411-0.54,0.675-0.756c0.048-0.012,0.11-0.027,0.189-0.045c0.077-0.019,0.149-0.024,0.216-0.019
			c0.065,0.006,0.126,0.024,0.18,0.054C496.452,292.817,496.485,292.868,496.497,292.94z"/>
		<path d="M499.881,297.908c0.181-0.275,0.417-0.438,0.711-0.485s0.598-0.072,0.909-0.072c0.181,0.036,0.372,0.072,0.576,0.108
			c0.204,0.035,0.396,0.09,0.576,0.161c0.18,0.072,0.345,0.172,0.495,0.298c0.149,0.126,0.267,0.297,0.351,0.513
			c0.108,0.624,0.15,1.209,0.126,1.755s-0.03,1.119-0.018,1.719c-0.156,0.168-0.252,0.378-0.288,0.63s-0.081,0.495-0.135,0.729
			c-0.055,0.233-0.15,0.426-0.288,0.576c-0.139,0.149-0.382,0.207-0.729,0.171c-0.084-0.433-0.06-0.853,0.072-1.26
			c0.132-0.408,0.275-0.819,0.432-1.233s0.273-0.84,0.352-1.278c0.077-0.438,0.015-0.909-0.189-1.413
			c-0.192-0.216-0.396-0.396-0.612-0.54c-0.216-0.144-0.456-0.233-0.72-0.27c-0.408,0-0.735,0.066-0.98,0.198
			c-0.246,0.132-0.433,0.306-0.559,0.521s-0.204,0.472-0.233,0.766c-0.03,0.294-0.043,0.6-0.036,0.918
			c0.006,0.317,0.023,0.645,0.054,0.98s0.045,0.654,0.045,0.954c0,0.384-0.06,0.714-0.18,0.99c-0.312-0.192-0.507-0.456-0.585-0.792
			s-0.114-0.696-0.108-1.08s0.021-0.766,0.045-1.144c0.024-0.378-0.018-0.704-0.126-0.98c0.145-0.192,0.195-0.417,0.153-0.675
			s-0.084-0.507-0.126-0.747s-0.045-0.459-0.009-0.657s0.203-0.339,0.504-0.423c0.107,0.06,0.174,0.138,0.198,0.233
			c0.023,0.097,0.038,0.195,0.045,0.298c0.006,0.102,0.023,0.2,0.054,0.297C499.685,297.77,499.76,297.848,499.881,297.908z"/>
		<path d="M510.465,299.15c0.12,0.252,0.198,0.507,0.234,0.765c0.036,0.259,0.036,0.514,0,0.766s-0.1,0.498-0.189,0.738
			s-0.195,0.468-0.314,0.684c-0.24,0.24-0.498,0.483-0.774,0.729c-0.276,0.246-0.567,0.444-0.873,0.595
			c-0.306,0.149-0.621,0.236-0.945,0.261c-0.323,0.023-0.647-0.066-0.972-0.27c-0.384-0.276-0.627-0.676-0.729-1.197
			c-0.103-0.522-0.13-1.047-0.081-1.575c-0.013-0.18,0.015-0.363,0.081-0.549c0.065-0.187,0.155-0.363,0.27-0.531
			s0.24-0.327,0.378-0.477c0.138-0.15,0.267-0.273,0.387-0.369c0.217,0.107,0.405,0.107,0.567,0
			c0.162-0.108,0.321-0.234,0.477-0.378c0.156-0.145,0.321-0.262,0.495-0.352s0.381-0.057,0.621,0.1
			c0.264,0.035,0.516,0.168,0.756,0.396C510.092,298.712,510.297,298.934,510.465,299.15z M508.377,299.203
			c-0.097,0.181-0.201,0.363-0.315,0.55c-0.114,0.186-0.177,0.368-0.188,0.549c0,0.132-0.027,0.246-0.081,0.342
			s-0.12,0.168-0.198,0.216s-0.162,0.066-0.252,0.054c-0.09-0.012-0.177-0.065-0.261-0.161c-0.024-0.156-0.058-0.33-0.1-0.522
			c-0.042-0.191-0.021-0.366,0.063-0.521l-0.234,0.035c-0.359,0.589-0.534,1.213-0.521,1.872c0.084,0.097,0.155,0.21,0.216,0.343
			c0.06,0.132,0.126,0.261,0.198,0.387s0.155,0.24,0.252,0.342c0.096,0.103,0.222,0.171,0.378,0.207
			c0.216,0.061,0.462,0.069,0.738,0.027c0.275-0.042,0.516-0.129,0.72-0.262c0.144-0.18,0.291-0.368,0.44-0.566
			c0.15-0.198,0.282-0.411,0.396-0.64c0.114-0.228,0.201-0.465,0.261-0.711c0.061-0.245,0.078-0.507,0.055-0.782
			c-0.013-0.181-0.075-0.349-0.189-0.505c-0.114-0.155-0.249-0.278-0.405-0.368c-0.156-0.091-0.321-0.132-0.495-0.126
			S508.52,299.048,508.377,299.203z"/>
		<path d="M513.983,295.388c-0.029,0.12,0.021,0.21,0.153,0.27c0.372-0.144,0.765-0.252,1.179-0.323
			c0.414-0.072,0.819-0.094,1.216-0.063c0.396,0.03,0.773,0.12,1.134,0.271c0.359,0.149,0.678,0.375,0.954,0.675
			c0.06,0.071,0.074,0.135,0.045,0.188c-0.03,0.055-0.066,0.103-0.108,0.145s-0.069,0.09-0.081,0.144s0.036,0.117,0.145,0.189
			c-0.24,0.096-0.466,0.126-0.676,0.09s-0.414-0.1-0.611-0.189c-0.198-0.09-0.394-0.191-0.585-0.306
			c-0.192-0.114-0.391-0.207-0.595-0.279c-0.204-0.071-0.417-0.104-0.639-0.099s-0.459,0.081-0.711,0.225
			c-0.3,0.061-0.534,0.162-0.702,0.307c-0.168,0.144-0.297,0.312-0.387,0.504c-0.09,0.191-0.15,0.404-0.18,0.639
			c-0.03,0.234-0.061,0.468-0.091,0.702c-0.029,0.234-0.068,0.462-0.116,0.684c-0.049,0.223-0.133,0.423-0.252,0.604
			c-0.024,0.24-0.027,0.489-0.01,0.747c0.019,0.258,0.016,0.51-0.009,0.756s-0.09,0.468-0.198,0.666
			c-0.107,0.198-0.306,0.357-0.594,0.477c-0.156-0.432-0.213-0.854-0.171-1.269s0.117-0.831,0.225-1.251
			c0.108-0.42,0.21-0.846,0.307-1.278c0.096-0.432,0.113-0.888,0.054-1.368c0.132-0.18,0.207-0.404,0.225-0.675
			c0.019-0.27,0.042-0.531,0.072-0.783s0.093-0.477,0.189-0.675c0.096-0.198,0.288-0.32,0.576-0.369l0.252,0.271
			C514.016,295.142,514.013,295.268,513.983,295.388z"/>
		<path d="M523.281,299.15c0.119,0.252,0.197,0.507,0.233,0.765c0.036,0.259,0.036,0.514,0,0.766s-0.099,0.498-0.188,0.738
			c-0.091,0.24-0.195,0.468-0.315,0.684c-0.24,0.24-0.498,0.483-0.773,0.729c-0.276,0.246-0.567,0.444-0.873,0.595
			c-0.307,0.149-0.621,0.236-0.945,0.261c-0.324,0.023-0.648-0.066-0.972-0.27c-0.385-0.276-0.628-0.676-0.729-1.197
			c-0.102-0.522-0.129-1.047-0.081-1.575c-0.012-0.18,0.015-0.363,0.081-0.549c0.065-0.187,0.156-0.363,0.271-0.531
			c0.113-0.168,0.239-0.327,0.378-0.477c0.138-0.15,0.267-0.273,0.387-0.369c0.216,0.107,0.405,0.107,0.567,0
			c0.161-0.108,0.32-0.234,0.477-0.378c0.156-0.145,0.321-0.262,0.495-0.352s0.381-0.057,0.621,0.1
			c0.264,0.035,0.516,0.168,0.756,0.396C522.909,298.712,523.112,298.934,523.281,299.15z M521.192,299.203
			c-0.096,0.181-0.2,0.363-0.314,0.55c-0.114,0.186-0.178,0.368-0.189,0.549c0,0.132-0.026,0.246-0.081,0.342
			c-0.054,0.096-0.12,0.168-0.197,0.216c-0.078,0.048-0.162,0.066-0.252,0.054c-0.091-0.012-0.178-0.065-0.262-0.161
			c-0.023-0.156-0.057-0.33-0.099-0.522c-0.042-0.191-0.021-0.366,0.062-0.521l-0.233,0.035c-0.36,0.589-0.534,1.213-0.522,1.872
			c0.084,0.097,0.156,0.21,0.217,0.343c0.06,0.132,0.126,0.261,0.197,0.387c0.072,0.126,0.156,0.24,0.252,0.342
			c0.097,0.103,0.223,0.171,0.378,0.207c0.217,0.061,0.462,0.069,0.738,0.027s0.516-0.129,0.72-0.262
			c0.145-0.18,0.291-0.368,0.441-0.566c0.149-0.198,0.282-0.411,0.396-0.64c0.114-0.228,0.201-0.465,0.262-0.711
			c0.06-0.245,0.078-0.507,0.054-0.782c-0.012-0.181-0.075-0.349-0.188-0.505c-0.114-0.155-0.25-0.278-0.405-0.368
			c-0.156-0.091-0.321-0.132-0.495-0.126S521.337,299.048,521.192,299.203z"/>
		<path d="M530.138,297.026c-0.696,1.92-1.578,3.741-2.646,5.463s-2.311,3.357-3.726,4.905c-0.156,0.144-0.327,0.228-0.514,0.252
			c-0.186,0.024-0.375,0.018-0.566-0.018c-0.192-0.036-0.384-0.081-0.576-0.136c-0.192-0.054-0.378-0.087-0.559-0.099
			c-0.371-0.288-0.642-0.624-0.81-1.008c-0.168-0.385-0.294-0.786-0.378-1.206l0.576-0.468c0.107,0.216,0.216,0.438,0.324,0.666
			c0.107,0.228,0.23,0.449,0.368,0.666c0.139,0.216,0.298,0.416,0.478,0.603c0.18,0.186,0.39,0.339,0.63,0.459
			c0.552-0.336,1.056-0.735,1.512-1.197s0.864-0.96,1.225-1.494c0.359-0.533,0.681-1.089,0.963-1.664
			c0.281-0.576,0.53-1.152,0.747-1.729c-0.181-0.324-0.399-0.612-0.657-0.864s-0.507-0.504-0.747-0.756s-0.453-0.519-0.639-0.801
			c-0.187-0.282-0.297-0.615-0.333-0.999c0.036-0.024,0.071-0.054,0.107-0.09s0.055-0.102,0.055-0.198
			c0.312,0.084,0.575,0.234,0.792,0.45c0.216,0.216,0.413,0.462,0.594,0.738c0.18,0.275,0.354,0.561,0.521,0.854
			s0.366,0.562,0.595,0.801c0.275-0.203,0.507-0.456,0.692-0.756c0.187-0.3,0.369-0.603,0.549-0.909
			c0.181-0.306,0.378-0.591,0.595-0.854C529.526,297.374,529.801,297.17,530.138,297.026z"/>
	</g>
</g>
<g>
	<path d="M322.583,289.243c-0.297-2.835-5.332-1.864-7.011-1.848c-5.111,0.047-10.482-0.58-15.552,0.116
		c-0.583,0.08-0.956,0.941-0.649,1.276c-0.076,0.064-0.146,0.144-0.204,0.243c-1.963,3.337-1.321,6.556-0.789,10.252
		c0.454,3.153-1.155,8.533,1.45,10.807c0.515,0.45,1.686,0.608,2.335,0.574c3.017-0.157,5.94-0.403,8.965-0.21
		c2.803,0.179,7.758,1.586,10.342-0.217c1.701-1.187,1.078-5.09,0.967-6.831C322.137,298.695,323.077,293.961,322.583,289.243z
		 M321.075,306.992c-0.488,3.82-5.16,2.411-7.899,2.17c-2.875-0.253-5.696-0.299-8.572-0.087c-1.984,0.146-4.491-0.093-4.58-2.483
		c-0.067-1.789-0.094-3.581-0.117-5.371c-0.051-3.949-1.781-8.028,0.385-11.711c0.162-0.276,0.154-0.493,0.067-0.651
		c5.992-0.739,12.523-0.136,18.538-0.037c3.282,0.054,2.417,7.33,2.284,9.279C320.984,301.02,321.442,304.118,321.075,306.992z"/>
	<path stroke="#000000" stroke-miterlimit="10" d="M313.431,298.477c0.153-0.009,0.307-0.019,0.46-0.027
		c1.905-0.102,3.384-0.445,3.756-2.461c0.357-1.934-1.542-3.485-3.261-3.754c-1.487-0.233-2.995-0.042-4.484,0.097
		c-1.52,0.142-3.104-0.105-4.571,0.346c-0.135-0.358-0.848,0.065-0.836,0.481c0.125,4.421-0.374,8.829-0.333,13.25
		c0.005,0.559,0.869,0.085,0.865-0.368c-0.022-2.382,0.112-4.76,0.221-7.138c2.11-0.047,4.229-0.186,6.341-0.317
		c0.024,0.019,0.043,0.042,0.077,0.055c2.825,1.099,5.112,4.943,5.496,7.851c0.075,0.568,0.926,0.09,0.865-0.368
		C317.675,303.471,315.844,300.118,313.431,298.477z M305.367,293.507c1.486-0.472,3.678-0.233,5.222-0.377
		c2.287-0.213,5.591-0.402,6.191,2.516c0.515,2.505-4.045,1.922-5.218,1.946c-2.095,0.043-4.176,0.39-6.277,0.437
		C305.349,296.522,305.388,295.015,305.367,293.507z"/>
</g>
</svg>
