<?xml version="1.0" encoding="utf-8"?>
<!-- Generator: Adobe Illustrator 17.0.0, SVG Export Plug-In . SVG Version: 6.00 Build 0)  -->
<!DOCTYPE svg PUBLIC "-//W3C//DTD SVG 1.1//EN" "http://www.w3.org/Graphics/SVG/1.1/DTD/svg11.dtd">
<svg version="1.1" id="Слой_1" xmlns="http://www.w3.org/2000/svg" xmlns:xlink="http://www.w3.org/1999/xlink" x="0px" y="0px"
	 width="28.75px" height="25.375px" viewBox="406.945 285.765 28.75 25.375" enable-background="new 406.945 285.765 28.75 25.375"
	 xml:space="preserve">
<g>
	<path d="M422.565,297.541c-0.893-0.116-1.771-0.213-2.643-0.447c-1.571-0.422-2.432-2.155-0.444-2.956
		c1.511-0.609,4.538-0.726,5.224,1.064c0.299,0.781,1.572-0.199,1.3-0.906c-1.343-3.502-8.453-2.212-9.152,1.236
		c-0.514,2.536,2.769,3.094,4.495,3.352c1.222,0.182,2.421,0.187,3.419,1.046c1.39,1.196-0.119,3.143-1.419,3.409
		c-0.995,0.203-2.317,0.023-3.337-0.006c0.209,0.006-4.105-0.673-2.696-1.792c0.702-0.557,0.299-1.76-0.533-1.1
		c-2.306,1.83-0.55,3.93,1.96,4.225c2.535,0.298,6.314,0.676,7.506-2.249C427.46,299.434,425.348,297.902,422.565,297.541z"/>
	<path d="M433.993,292.037c-0.354-1.434-1.585-2.272-2.806-2.908c-1.435-0.747-3.741,0.343-4.845-0.399
		c-6.806-4.574-15.42-0.181-15.909,7.828c-0.019,0.307,0.107,0.462,0.282,0.525c-0.095,0.048-0.19,0.115-0.283,0.218
		c-1.919,2.13-3.302,5.095-2.125,7.848c0.666,1.558,2.563,2.178,4.036,2.534c0.501,0.121,1.128,0.043,1.629-0.129
		c0.996-0.342,1.831,0.825,2.592,1.307c2.609,1.652,7.658,1.349,10.173-0.332c1.809-1.209,3.128-2.681,4.15-4.604
		c0.595-1.119-0.014-3.807,1.064-4.399C434.858,297.928,434.707,294.929,433.993,292.037z M430.367,299.149
		c-1.141,1.511-0.121,3.386-1.132,5.288c-2.148,4.04-7.062,4.529-10.973,3.409c-0.983-0.282-2.236-2.251-3.219-1.977
		c-5.774,1.609-6.692-4.486-3.754-7.748c0.406-0.45,0.247-0.927-0.089-1.068c0.311-0.122,0.604-0.398,0.625-0.74
		c0.31-5.07,3.654-7.806,8.638-7.96c2.188-0.068,3.572,1.187,5.412,1.974c1.862,0.797,3.958-0.464,5.89,1.053
		C434.684,293.673,431.762,297.303,430.367,299.149z"/>
</g>
</svg>
