<?xml version="1.0" encoding="utf-8"?>
<!-- Generator: Adobe Illustrator 17.0.0, SVG Export Plug-In . SVG Version: 6.00 Build 0)  -->
<!DOCTYPE svg PUBLIC "-//W3C//DTD SVG 1.1//EN" "http://www.w3.org/Graphics/SVG/1.1/DTD/svg11.dtd">
<svg version="1.1" id="Слой_1" xmlns="http://www.w3.org/2000/svg" xmlns:xlink="http://www.w3.org/1999/xlink" x="0px" y="0px"
	 width="97.207px" height="34px" viewBox="366.445 282.14 97.207 34" enable-background="new 366.445 282.14 97.207 34"
	 xml:space="preserve">
<g>
	<path d="M388.565,298.541c-0.893-0.116-1.771-0.213-2.643-0.447c-1.571-0.422-2.432-2.155-0.444-2.956
		c1.511-0.609,4.538-0.726,5.224,1.064c0.299,0.781,1.572-0.199,1.3-0.906c-1.343-3.502-8.453-2.212-9.152,1.236
		c-0.514,2.536,2.769,3.094,4.495,3.352c1.222,0.182,2.421,0.187,3.419,1.046c1.39,1.196-0.119,3.143-1.419,3.409
		c-0.995,0.203-2.317,0.023-3.337-0.006c0.209,0.006-4.105-0.673-2.696-1.792c0.702-0.557,0.299-1.76-0.533-1.1
		c-2.306,1.83-0.55,3.93,1.96,4.225c2.535,0.298,6.314,0.676,7.506-2.249C393.46,300.434,391.348,298.902,388.565,298.541z"/>
	<path d="M399.993,293.037c-0.354-1.434-1.585-2.272-2.806-2.908c-1.435-0.747-3.741,0.343-4.845-0.399
		c-6.806-4.574-15.42-0.181-15.909,7.828c-0.019,0.307,0.107,0.462,0.282,0.525c-0.095,0.048-0.19,0.115-0.283,0.218
		c-1.919,2.13-3.302,5.095-2.125,7.848c0.666,1.558,2.563,2.178,4.036,2.534c0.501,0.121,1.128,0.043,1.629-0.129
		c0.996-0.342,1.831,0.825,2.592,1.307c2.609,1.652,7.658,1.349,10.173-0.332c1.809-1.209,3.128-2.681,4.15-4.604
		c0.595-1.119-0.014-3.807,1.064-4.399C400.858,298.928,400.707,295.929,399.993,293.037z M396.367,300.149
		c-1.141,1.511-0.121,3.386-1.132,5.288c-2.148,4.04-7.062,4.529-10.973,3.409c-0.983-0.282-2.236-2.251-3.219-1.977
		c-5.774,1.609-6.692-4.486-3.754-7.748c0.406-0.45,0.247-0.927-0.089-1.068c0.311-0.122,0.604-0.398,0.625-0.74
		c0.31-5.07,3.654-7.806,8.638-7.96c2.188-0.068,3.572,1.187,5.412,1.974c1.862,0.797,3.958-0.464,5.89,1.053
		C400.684,294.673,397.762,298.303,396.367,300.149z"/>
</g>
<g>
	<rect x="406.335" y="291.57" fill="none" width="57.317" height="15.947"/>
	<g enable-background="new    ">
		<path d="M409.401,292.798c0.238,0.827,0.438,1.694,0.599,2.604c0.161,0.91,0.297,1.827,0.41,2.751
			c0.112,0.924,0.199,1.841,0.262,2.751s0.116,1.778,0.158,2.604c-0.042,0.098-0.112,0.149-0.21,0.157
			c-0.098,0.007-0.189,0.011-0.273,0.011c-0.28-0.183-0.445-0.399-0.494-0.651c-0.049-0.252-0.06-0.515-0.032-0.787
			c0.028-0.273,0.063-0.547,0.105-0.819c0.042-0.273,0.007-0.521-0.105-0.746c-0.168-0.756-0.312-1.532-0.43-2.33
			c-0.119-0.799-0.242-1.589-0.368-2.374s-0.276-1.547-0.452-2.289c-0.175-0.742-0.402-1.436-0.682-2.079
			c-0.126-0.056-0.189-0.133-0.189-0.231c0-0.126,0.049-0.255,0.147-0.389c0.098-0.133,0.147-0.262,0.147-0.388
			c0.308,0.014,0.528,0.102,0.661,0.262c0.133,0.161,0.234,0.357,0.305,0.588c0.07,0.231,0.129,0.47,0.179,0.715
			C409.188,292.403,409.275,292.616,409.401,292.798z"/>
		<path d="M415.701,295.045c-0.098,0.841-0.186,1.575-0.262,2.205c-0.077,0.63-0.147,1.229-0.21,1.796s-0.116,1.142-0.158,1.722
			c-0.042,0.581-0.077,1.236-0.105,1.964l-0.672,0.146c-0.098-0.798-0.182-1.48-0.252-2.047c-0.07-0.567-0.105-1.109-0.105-1.628
			c0-0.531,0.045-1.075,0.136-1.627c0.091-0.554,0.242-1.193,0.452-1.922c0.056-0.112,0.14-0.186,0.252-0.221
			c0.112-0.034,0.224-0.062,0.336-0.084c0.112-0.021,0.224-0.049,0.336-0.084C415.561,295.231,415.645,295.157,415.701,295.045z
			 M416.352,291.601c0.168,0.42,0.143,0.822-0.074,1.207c-0.217,0.386-0.5,0.711-0.851,0.977c-0.112,0.084-0.199,0.119-0.262,0.105
			s-0.116-0.049-0.158-0.105c-0.042-0.056-0.084-0.122-0.126-0.199s-0.091-0.137-0.147-0.179c-0.196-0.392-0.186-0.756,0.031-1.092
			c0.217-0.336,0.479-0.63,0.788-0.882c0.056-0.014,0.129-0.032,0.221-0.053c0.091-0.021,0.175-0.028,0.252-0.021
			c0.077,0.008,0.147,0.028,0.21,0.063S416.338,291.517,416.352,291.601z"/>
		<path d="M420.3,297.397c0.21-0.322,0.486-0.511,0.83-0.567c0.343-0.056,0.696-0.084,1.061-0.084
			c0.21,0.042,0.434,0.084,0.672,0.126c0.237,0.042,0.462,0.105,0.672,0.189s0.402,0.199,0.577,0.347
			c0.175,0.146,0.312,0.346,0.41,0.598c0.126,0.729,0.175,1.412,0.146,2.048c-0.028,0.638-0.035,1.306-0.021,2.006
			c-0.183,0.196-0.294,0.44-0.336,0.734s-0.095,0.578-0.158,0.851c-0.062,0.273-0.175,0.497-0.336,0.672
			c-0.161,0.176-0.444,0.242-0.851,0.2c-0.098-0.504-0.07-0.994,0.084-1.471c0.154-0.476,0.322-0.955,0.504-1.438
			c0.183-0.482,0.318-0.979,0.41-1.49c0.091-0.512,0.018-1.061-0.221-1.648c-0.225-0.252-0.462-0.463-0.714-0.631
			s-0.532-0.272-0.84-0.314c-0.477,0-0.858,0.077-1.145,0.23c-0.287,0.154-0.504,0.357-0.651,0.61
			c-0.147,0.252-0.238,0.55-0.273,0.893c-0.035,0.343-0.049,0.7-0.042,1.071c0.007,0.371,0.028,0.752,0.063,1.145
			c0.035,0.392,0.053,0.763,0.053,1.112c0,0.448-0.07,0.833-0.21,1.155c-0.364-0.224-0.592-0.532-0.683-0.924
			c-0.091-0.392-0.133-0.812-0.126-1.26c0.007-0.448,0.024-0.893,0.053-1.334c0.028-0.44-0.021-0.822-0.147-1.145
			c0.168-0.224,0.227-0.486,0.178-0.787c-0.049-0.301-0.098-0.592-0.147-0.873c-0.049-0.279-0.052-0.535-0.01-0.767
			c0.042-0.23,0.238-0.395,0.588-0.493c0.126,0.07,0.203,0.161,0.231,0.273c0.028,0.112,0.045,0.228,0.052,0.346
			c0.007,0.119,0.028,0.235,0.063,0.347C420.072,297.236,420.16,297.327,420.3,297.397z"/>
		<path d="M432.647,298.847c0.141,0.294,0.231,0.591,0.273,0.893c0.042,0.301,0.042,0.598,0,0.892
			c-0.042,0.295-0.115,0.582-0.221,0.861c-0.104,0.28-0.228,0.546-0.367,0.798c-0.28,0.28-0.581,0.564-0.903,0.851
			c-0.322,0.287-0.661,0.518-1.019,0.693c-0.356,0.175-0.725,0.276-1.103,0.305c-0.378,0.027-0.756-0.077-1.134-0.315
			c-0.448-0.322-0.731-0.787-0.851-1.396s-0.15-1.222-0.095-1.838c-0.014-0.21,0.018-0.423,0.095-0.64s0.182-0.424,0.315-0.62
			c0.133-0.195,0.279-0.381,0.44-0.557c0.161-0.175,0.312-0.318,0.452-0.43c0.252,0.126,0.473,0.126,0.661,0
			c0.189-0.126,0.374-0.274,0.557-0.442c0.182-0.168,0.374-0.305,0.577-0.409c0.203-0.105,0.444-0.066,0.725,0.115
			c0.308,0.042,0.602,0.196,0.882,0.462C432.214,298.335,432.452,298.595,432.647,298.847z M430.212,298.91
			c-0.112,0.21-0.234,0.424-0.367,0.641c-0.134,0.217-0.207,0.431-0.221,0.641c0,0.154-0.031,0.287-0.095,0.398
			c-0.062,0.112-0.14,0.196-0.23,0.253c-0.092,0.056-0.189,0.076-0.294,0.062c-0.105-0.014-0.207-0.077-0.305-0.189
			c-0.028-0.182-0.066-0.385-0.116-0.608c-0.049-0.224-0.024-0.427,0.074-0.609l-0.273,0.042c-0.42,0.687-0.623,1.414-0.608,2.185
			c0.098,0.112,0.182,0.245,0.252,0.398c0.069,0.154,0.146,0.305,0.23,0.452c0.084,0.146,0.182,0.28,0.294,0.398
			c0.112,0.119,0.259,0.199,0.441,0.241c0.252,0.07,0.538,0.081,0.86,0.032s0.603-0.15,0.841-0.305
			c0.168-0.21,0.339-0.431,0.514-0.661c0.176-0.231,0.329-0.479,0.463-0.746c0.133-0.266,0.233-0.542,0.304-0.829
			s0.091-0.592,0.063-0.914c-0.015-0.21-0.088-0.405-0.221-0.588c-0.133-0.182-0.291-0.325-0.473-0.431
			c-0.182-0.104-0.374-0.153-0.577-0.146S430.38,298.728,430.212,298.91z"/>
		<path d="M436.753,294.457c-0.035,0.141,0.024,0.245,0.179,0.315c0.434-0.168,0.893-0.294,1.375-0.378
			c0.483-0.084,0.956-0.108,1.418-0.073c0.462,0.034,0.903,0.14,1.323,0.314c0.42,0.176,0.79,0.438,1.112,0.787
			c0.07,0.085,0.088,0.158,0.053,0.221c-0.035,0.063-0.077,0.119-0.126,0.168c-0.049,0.05-0.081,0.105-0.095,0.168
			c-0.014,0.063,0.042,0.137,0.168,0.221c-0.28,0.112-0.542,0.147-0.787,0.105s-0.483-0.116-0.714-0.221
			c-0.231-0.105-0.459-0.224-0.683-0.357c-0.225-0.133-0.455-0.241-0.693-0.325s-0.486-0.122-0.745-0.115
			c-0.26,0.007-0.535,0.094-0.83,0.263c-0.35,0.069-0.623,0.188-0.818,0.356c-0.196,0.168-0.347,0.364-0.451,0.588
			c-0.105,0.225-0.176,0.473-0.211,0.746c-0.034,0.272-0.069,0.546-0.104,0.818c-0.035,0.274-0.081,0.54-0.137,0.798
			c-0.056,0.26-0.154,0.494-0.294,0.704c-0.028,0.28-0.031,0.57-0.011,0.871c0.021,0.302,0.018,0.596-0.01,0.882
			c-0.028,0.287-0.105,0.546-0.231,0.777s-0.357,0.417-0.693,0.557c-0.182-0.504-0.248-0.998-0.199-1.48
			c0.049-0.483,0.137-0.97,0.263-1.46c0.126-0.489,0.245-0.986,0.357-1.49c0.111-0.505,0.133-1.037,0.062-1.597
			c0.154-0.21,0.241-0.473,0.263-0.787c0.021-0.315,0.049-0.62,0.084-0.914c0.034-0.294,0.108-0.556,0.221-0.787
			c0.111-0.231,0.336-0.374,0.672-0.431l0.294,0.315C436.791,294.171,436.788,294.317,436.753,294.457z"/>
		<path d="M447.598,298.847c0.141,0.294,0.231,0.591,0.273,0.893c0.042,0.301,0.042,0.598,0,0.892
			c-0.042,0.295-0.115,0.582-0.221,0.861c-0.104,0.28-0.228,0.546-0.367,0.798c-0.28,0.28-0.581,0.564-0.903,0.851
			c-0.322,0.287-0.661,0.518-1.019,0.693c-0.356,0.175-0.725,0.276-1.103,0.305c-0.378,0.027-0.756-0.077-1.134-0.315
			c-0.448-0.322-0.731-0.787-0.851-1.396s-0.15-1.222-0.095-1.838c-0.014-0.21,0.018-0.423,0.095-0.64s0.182-0.424,0.315-0.62
			c0.133-0.195,0.279-0.381,0.44-0.557c0.161-0.175,0.312-0.318,0.452-0.43c0.252,0.126,0.473,0.126,0.661,0
			c0.189-0.126,0.374-0.274,0.557-0.442c0.182-0.168,0.374-0.305,0.577-0.409c0.203-0.105,0.444-0.066,0.725,0.115
			c0.308,0.042,0.602,0.196,0.882,0.462C447.165,298.335,447.403,298.595,447.598,298.847z M445.163,298.91
			c-0.112,0.21-0.234,0.424-0.367,0.641c-0.134,0.217-0.207,0.431-0.221,0.641c0,0.154-0.031,0.287-0.095,0.398
			c-0.062,0.112-0.14,0.196-0.23,0.253c-0.092,0.056-0.189,0.076-0.294,0.062c-0.105-0.014-0.207-0.077-0.305-0.189
			c-0.028-0.182-0.066-0.385-0.116-0.608c-0.049-0.224-0.024-0.427,0.074-0.609l-0.273,0.042c-0.42,0.687-0.623,1.414-0.608,2.185
			c0.098,0.112,0.182,0.245,0.252,0.398c0.069,0.154,0.146,0.305,0.23,0.452c0.084,0.146,0.182,0.28,0.294,0.398
			c0.112,0.119,0.259,0.199,0.441,0.241c0.252,0.07,0.538,0.081,0.86,0.032s0.603-0.15,0.841-0.305
			c0.168-0.21,0.339-0.431,0.514-0.661c0.176-0.231,0.329-0.479,0.463-0.746c0.133-0.266,0.233-0.542,0.304-0.829
			s0.091-0.592,0.063-0.914c-0.015-0.21-0.088-0.405-0.221-0.588c-0.133-0.182-0.291-0.325-0.473-0.431
			c-0.182-0.104-0.374-0.153-0.577-0.146S445.331,298.728,445.163,298.91z"/>
		<path d="M455.599,296.368c-0.812,2.241-1.841,4.366-3.087,6.375s-2.695,3.916-4.347,5.722c-0.183,0.169-0.382,0.267-0.599,0.295
			c-0.217,0.027-0.438,0.021-0.662-0.021c-0.224-0.042-0.447-0.095-0.672-0.157c-0.224-0.063-0.44-0.102-0.65-0.116
			c-0.435-0.336-0.749-0.728-0.945-1.176s-0.343-0.917-0.441-1.407l0.673-0.546c0.126,0.252,0.252,0.512,0.378,0.777
			s0.27,0.525,0.43,0.777c0.161,0.252,0.347,0.486,0.557,0.703s0.455,0.396,0.735,0.535c0.644-0.392,1.232-0.857,1.764-1.396
			c0.532-0.539,1.008-1.12,1.429-1.742c0.42-0.624,0.794-1.271,1.123-1.943c0.329-0.672,0.619-1.344,0.871-2.016
			c-0.21-0.378-0.465-0.714-0.766-1.008c-0.302-0.294-0.592-0.588-0.872-0.882s-0.528-0.605-0.745-0.935
			c-0.218-0.33-0.347-0.718-0.389-1.167c0.042-0.027,0.084-0.062,0.126-0.104s0.062-0.119,0.062-0.231
			c0.364,0.099,0.673,0.273,0.925,0.525s0.482,0.539,0.692,0.86c0.21,0.323,0.413,0.656,0.609,0.999
			c0.195,0.343,0.427,0.654,0.692,0.935c0.322-0.238,0.592-0.532,0.809-0.882s0.431-0.704,0.641-1.061
			c0.21-0.357,0.441-0.689,0.693-0.998C454.885,296.774,455.208,296.536,455.599,296.368z"/>
	</g>
</g>
</svg>
