<?xml version="1.0" encoding="utf-8"?>
<!-- Generator: Adobe Illustrator 17.0.0, SVG Export Plug-In . SVG Version: 6.00 Build 0)  -->
<!DOCTYPE svg PUBLIC "-//W3C//DTD SVG 1.1//EN" "http://www.w3.org/Graphics/SVG/1.1/DTD/svg11.dtd">
<svg version="1.1" id="Слой_1" xmlns="http://www.w3.org/2000/svg" xmlns:xlink="http://www.w3.org/1999/xlink" x="0px" y="0px"
	 width="220.225px" height="58.069px" viewBox="308.445 268.473 220.225 58.069"
	 enable-background="new 308.445 268.473 220.225 58.069" xml:space="preserve">
<g>
	<path d="M527.021,287.793c-1.617-11.013-14.418-14.95-23.619-16.314c-12.884-1.91-26.563-0.936-39.519-0.601
		c-15.75,0.408-31.354,2.29-47.07,3.124c-17.011,0.902-34.078,1.365-51.104,1.897c-13.461,0.42-26.348-1.573-39.338,3.038
		c-7.478,2.655-17.702,8.679-16,17.98c0.63,3.445,3.047,6.071,6.516,5.813c2.135,2.114,5.002,2.912,7.971,2.952
		c0.265,0.003,0.521-0.143,0.735-0.348c30.441,7.451,62.452,4.895,93.409,2.821c9.397-0.629,18.783-0.753,28.191-0.316
		c7.026,0.327,15.291-1.205,21.899,1.618c6.245,2.668,9.767,9.331,15.555,12.71c6.634,3.872,14.659,5.052,22.192,4.024
		c0.732-0.1,1.492-1.309,0.657-1.779c-4.959-2.789-10.779-6.553-12.231-12.473c-1.152-4.695,3.853-3.212,6.628-3.133
		c2.982,0.086,5.937-0.104,8.881-0.581C520.419,306.663,528.502,297.875,527.021,287.793z"/>
	<path fill="#FFFFFF" d="M525.382,292.788c-0.573,7.422-7.877,12.221-14.38,13.619c-5.075,1.091-10.499,0.512-15.632,0.217
		c-0.522-0.03-0.997,0.367-1.177,0.843c-2.897,7.668,3.592,13.392,9.698,17.196c-7.705,0.372-15.482-1.723-21.466-6.769
		c-4.778-4.028-8.468-9.171-14.673-11.056c-6.167-1.874-13.507-0.488-19.881-0.839c-8.424-0.463-16.867-0.324-25.287,0.115
		c-33.345,1.738-67.433,5.457-100.124-3.612c-0.44-0.122-0.925,0.196-1.217,0.593c-1.212-0.464-2.324-1.17-3.275-2.217
		c-0.29-0.32-0.712-0.222-1.054,0.042c-3.344,0.077-4.484-3.341-4.967-5.983c-0.721-3.942,2.471-7.005,5.214-9.211
		c3.581-2.881,7.891-4.533,12.147-6.081c11.191-4.071,24.101-1.759,35.728-1.905c24.341-0.305,48.832-1.465,73.07-3.644
		c12.254-1.102,24.568-1.457,36.866-1.589c9.238-0.098,18.572-0.353,27.757,0.813C513.138,274.64,526.369,279.989,525.382,292.788z"
		/>
	<g>
		<rect x="318.359" y="284.828" fill="none" width="210.311" height="27.461"/>
		<g enable-background="new    ">
			<path fill="#241200" d="M319.296,293.375h1.38v1.421h-1.38V293.375z"/>
			<path fill="#241200" d="M322.653,293.375h1.38v1.421h-1.38V293.375z"/>
			<path fill="#241200" d="M326.009,293.375h1.38v1.421h-1.38V293.375z"/>
			<path fill="#241200" d="M329.351,287.7h1.415l2.126,4.225l2.119-4.225h1.395v7.096h-1.429v-4.553l-1.634,3.254h-0.896
				l-1.668-3.254v4.553h-1.429V287.7z"/>
			<path fill="#241200" d="M340.829,294.878c-0.524,0-0.968-0.103-1.333-0.308c-0.36-0.187-0.633-0.388-0.82-0.602
				c-0.273-0.296-0.469-0.636-0.588-1.019c-0.123-0.374-0.185-0.943-0.185-1.709c0-0.757,0.062-1.331,0.185-1.723
				c0.127-0.401,0.324-0.733,0.588-0.998c0.196-0.232,0.469-0.442,0.82-0.629c0.355-0.187,0.8-0.28,1.333-0.28
				c0.551,0,1.005,0.094,1.36,0.28c0.342,0.187,0.606,0.396,0.793,0.629c0.273,0.265,0.474,0.597,0.602,0.998
				c0.114,0.41,0.171,0.984,0.171,1.723c0,0.747-0.057,1.317-0.171,1.709c-0.127,0.392-0.328,0.731-0.602,1.019
				c-0.045,0.046-0.096,0.097-0.15,0.153c-0.055,0.058-0.116,0.108-0.185,0.154c-0.127,0.114-0.28,0.212-0.458,0.294
				C341.824,294.775,341.371,294.878,340.829,294.878z M340.829,293.449c0.25,0,0.479-0.05,0.684-0.15
				c0.205-0.096,0.36-0.217,0.465-0.362c0.15-0.196,0.244-0.401,0.28-0.615c0.018-0.114,0.034-0.26,0.048-0.438
				s0.021-0.388,0.021-0.629c0-0.251-0.007-0.467-0.021-0.649s-0.03-0.335-0.048-0.458c-0.037-0.214-0.13-0.41-0.28-0.588
				c-0.105-0.15-0.26-0.275-0.465-0.376c-0.187-0.096-0.415-0.144-0.684-0.144c-0.25,0-0.474,0.048-0.67,0.144
				c-0.187,0.091-0.346,0.217-0.479,0.376c-0.123,0.159-0.212,0.355-0.267,0.588c-0.055,0.241-0.082,0.606-0.082,1.094
				c0,0.492,0.027,0.853,0.082,1.08c0.055,0.232,0.144,0.438,0.267,0.615c0.141,0.146,0.301,0.267,0.479,0.362
				C340.382,293.399,340.606,293.449,340.829,293.449z"/>
			<path fill="#241200" d="M344.541,293.476h0.308c0.127,0,0.233-0.009,0.318-0.027s0.155-0.048,0.212-0.089s0.106-0.1,0.147-0.174
				c0.041-0.076,0.086-0.175,0.137-0.298l0.321-0.868c0.1-0.26,0.226-0.466,0.376-0.619c0.15-0.152,0.346-0.268,0.588-0.345
				c-0.16-0.055-0.307-0.143-0.441-0.263c-0.134-0.121-0.24-0.289-0.318-0.503l-0.232-0.704c-0.05-0.132-0.096-0.237-0.137-0.314
				s-0.092-0.138-0.154-0.182c-0.062-0.043-0.137-0.071-0.226-0.085s-0.202-0.021-0.338-0.021h-0.226V287.7h0.492
				c0.456,0,0.814,0.094,1.077,0.28s0.471,0.494,0.625,0.923l0.342,0.95c0.073,0.196,0.196,0.354,0.369,0.476
				c0.173,0.12,0.38,0.181,0.622,0.181h0.39v-2.81h1.429v2.81h0.383c0.25,0,0.462-0.061,0.636-0.181
				c0.173-0.121,0.296-0.279,0.369-0.476l0.335-0.95c0.16-0.429,0.368-0.736,0.625-0.923s0.619-0.28,1.083-0.28h0.479v1.285h-0.212
				c-0.141,0-0.259,0.007-0.352,0.021s-0.167,0.042-0.222,0.085c-0.055,0.044-0.104,0.104-0.147,0.182s-0.088,0.183-0.133,0.314
				l-0.253,0.704c-0.073,0.214-0.178,0.382-0.314,0.503c-0.137,0.12-0.285,0.208-0.444,0.263c0.246,0.077,0.443,0.192,0.591,0.345
				c0.148,0.153,0.274,0.359,0.379,0.619l0.335,0.868c0.045,0.123,0.09,0.222,0.133,0.298c0.043,0.074,0.092,0.133,0.147,0.174
				s0.122,0.07,0.202,0.089s0.186,0.027,0.318,0.027h0.321v1.319h-0.52c-0.25,0-0.472-0.022-0.663-0.068s-0.358-0.117-0.499-0.215
				c-0.141-0.099-0.266-0.229-0.373-0.394s-0.206-0.362-0.297-0.595l-0.396-1.012c-0.064-0.169-0.143-0.297-0.236-0.387
				c-0.093-0.088-0.194-0.155-0.301-0.201s-0.216-0.073-0.328-0.082s-0.225-0.014-0.338-0.014h-0.308v2.967h-1.429v-2.967h-0.308
				c-0.109,0-0.223,0.005-0.342,0.014s-0.231,0.036-0.338,0.082s-0.208,0.113-0.301,0.201c-0.093,0.09-0.172,0.218-0.236,0.387
				l-0.376,1.012c-0.096,0.232-0.197,0.431-0.304,0.595s-0.232,0.295-0.376,0.394c-0.144,0.098-0.309,0.169-0.496,0.215
				s-0.408,0.068-0.663,0.068h-0.513V293.476z"/>
			<path fill="#241200" d="M358.418,294.878c-0.383,0-0.748-0.055-1.094-0.164c-0.16-0.05-0.333-0.13-0.52-0.239
				c-0.168-0.073-0.335-0.18-0.499-0.321c-0.31-0.282-0.554-0.651-0.731-1.107c-0.205-0.446-0.308-1.039-0.308-1.777
				c0-0.72,0.089-1.304,0.267-1.75c0.187-0.497,0.415-0.87,0.684-1.121c0.273-0.269,0.59-0.47,0.95-0.602
				c0.337-0.123,0.679-0.185,1.025-0.185c0.811,0.019,1.497,0.285,2.058,0.8c0.561,0.524,0.85,1.258,0.868,2.201v1.176h-4.423
				c0,0.569,0.164,1.003,0.492,1.299c0.314,0.301,0.715,0.451,1.203,0.451c0.579,0,1.096-0.23,1.552-0.69l1.039,0.882
				C360.243,294.504,359.388,294.887,358.418,294.878z M359.689,290.612c-0.018-0.542-0.167-0.959-0.444-1.251
				c-0.273-0.269-0.625-0.403-1.053-0.403s-0.779,0.135-1.053,0.403c-0.269,0.292-0.417,0.709-0.444,1.251H359.689z"/>
			<path fill="#241200" d="M364.03,289.04h-2.181v-1.34h5.708v1.34h-2.099v5.756h-1.429V289.04z"/>
			<path fill="#241200" d="M371.44,294.878c-0.383,0-0.748-0.055-1.094-0.164c-0.16-0.05-0.333-0.13-0.52-0.239
				c-0.168-0.073-0.335-0.18-0.499-0.321c-0.31-0.282-0.554-0.651-0.731-1.107c-0.205-0.446-0.308-1.039-0.308-1.777
				c0-0.72,0.089-1.304,0.267-1.75c0.187-0.497,0.415-0.87,0.684-1.121c0.273-0.269,0.59-0.47,0.95-0.602
				c0.337-0.123,0.679-0.185,1.025-0.185c0.811,0.019,1.497,0.285,2.058,0.8c0.561,0.524,0.85,1.258,0.868,2.201v1.176h-4.423
				c0,0.569,0.164,1.003,0.492,1.299c0.314,0.301,0.715,0.451,1.203,0.451c0.579,0,1.096-0.23,1.552-0.69l1.039,0.882
				C373.265,294.504,372.411,294.887,371.44,294.878z M372.712,290.612c-0.018-0.542-0.167-0.959-0.444-1.251
				c-0.273-0.269-0.625-0.403-1.053-0.403s-0.779,0.135-1.053,0.403c-0.269,0.292-0.417,0.709-0.444,1.251H372.712z"/>
			<path fill="#241200" d="M378.994,287.7h5.674v7.096h-1.429v-5.756h-2.816v5.756h-1.429V287.7z"/>
			<path fill="#241200" d="M389.091,294.878c-0.524,0-0.968-0.103-1.333-0.308c-0.36-0.187-0.633-0.388-0.82-0.602
				c-0.273-0.296-0.469-0.636-0.588-1.019c-0.123-0.374-0.185-0.943-0.185-1.709c0-0.757,0.062-1.331,0.185-1.723
				c0.127-0.401,0.324-0.733,0.588-0.998c0.196-0.232,0.469-0.442,0.82-0.629c0.355-0.187,0.8-0.28,1.333-0.28
				c0.551,0,1.005,0.094,1.36,0.28c0.342,0.187,0.606,0.396,0.793,0.629c0.273,0.265,0.474,0.597,0.602,0.998
				c0.114,0.41,0.171,0.984,0.171,1.723c0,0.747-0.057,1.317-0.171,1.709c-0.127,0.392-0.328,0.731-0.602,1.019
				c-0.045,0.046-0.096,0.097-0.15,0.153c-0.055,0.058-0.116,0.108-0.185,0.154c-0.127,0.114-0.28,0.212-0.458,0.294
				C390.086,294.775,389.633,294.878,389.091,294.878z M389.091,293.449c0.25,0,0.479-0.05,0.684-0.15
				c0.205-0.096,0.36-0.217,0.465-0.362c0.15-0.196,0.244-0.401,0.28-0.615c0.018-0.114,0.034-0.26,0.048-0.438
				s0.021-0.388,0.021-0.629c0-0.251-0.007-0.467-0.021-0.649s-0.03-0.335-0.048-0.458c-0.037-0.214-0.13-0.41-0.28-0.588
				c-0.105-0.15-0.26-0.275-0.465-0.376c-0.187-0.096-0.415-0.144-0.684-0.144c-0.25,0-0.474,0.048-0.67,0.144
				c-0.187,0.091-0.346,0.217-0.479,0.376c-0.123,0.159-0.212,0.355-0.267,0.588c-0.055,0.241-0.082,0.606-0.082,1.094
				c0,0.492,0.027,0.853,0.082,1.08c0.055,0.232,0.144,0.438,0.267,0.615c0.141,0.146,0.301,0.267,0.479,0.362
				C388.644,293.399,388.867,293.449,389.091,293.449z"/>
			<path fill="#241200" d="M396.186,294.878c-0.848,0-1.583-0.285-2.208-0.854c-0.666-0.569-1.002-1.492-1.012-2.769
				c0.018-1.299,0.355-2.233,1.012-2.803c0.633-0.579,1.37-0.859,2.208-0.841c0.551,0.019,1.037,0.132,1.456,0.342
				c0.433,0.224,0.797,0.521,1.094,0.896l-1.053,0.937c-0.36-0.487-0.838-0.736-1.436-0.745c-1.226-0.019-1.843,0.72-1.853,2.215
				c0.009,1.481,0.626,2.213,1.853,2.194c0.606-0.019,1.084-0.265,1.436-0.738l1.053,0.937c-0.319,0.355-0.684,0.645-1.094,0.868
				C397.214,294.757,396.729,294.878,396.186,294.878z"/>
			<path fill="#241200" d="M399.727,287.7h1.415l2.126,4.225l2.119-4.225h1.395v7.096h-1.429v-4.553l-1.634,3.254h-0.896
				l-1.668-3.254v4.553h-1.429V287.7z"/>
			<path fill="#241200" d="M411.205,294.878c-0.524,0-0.968-0.103-1.333-0.308c-0.36-0.187-0.633-0.388-0.82-0.602
				c-0.273-0.296-0.469-0.636-0.588-1.019c-0.123-0.374-0.185-0.943-0.185-1.709c0-0.757,0.062-1.331,0.185-1.723
				c0.127-0.401,0.324-0.733,0.588-0.998c0.196-0.232,0.469-0.442,0.82-0.629c0.355-0.187,0.8-0.28,1.333-0.28
				c0.551,0,1.005,0.094,1.36,0.28c0.342,0.187,0.606,0.396,0.793,0.629c0.273,0.265,0.474,0.597,0.602,0.998
				c0.114,0.41,0.171,0.984,0.171,1.723c0,0.747-0.057,1.317-0.171,1.709c-0.127,0.392-0.328,0.731-0.602,1.019
				c-0.045,0.046-0.096,0.097-0.15,0.153c-0.055,0.058-0.116,0.108-0.185,0.154c-0.127,0.114-0.28,0.212-0.458,0.294
				C412.2,294.775,411.747,294.878,411.205,294.878z M411.205,293.449c0.25,0,0.479-0.05,0.684-0.15
				c0.205-0.096,0.36-0.217,0.465-0.362c0.15-0.196,0.244-0.401,0.28-0.615c0.018-0.114,0.034-0.26,0.048-0.438
				s0.021-0.388,0.021-0.629c0-0.251-0.007-0.467-0.021-0.649s-0.03-0.335-0.048-0.458c-0.037-0.214-0.13-0.41-0.28-0.588
				c-0.105-0.15-0.26-0.275-0.465-0.376c-0.187-0.096-0.415-0.144-0.684-0.144c-0.25,0-0.474,0.048-0.67,0.144
				c-0.187,0.091-0.346,0.217-0.479,0.376c-0.123,0.159-0.212,0.355-0.267,0.588c-0.055,0.241-0.082,0.606-0.082,1.094
				c0,0.492,0.027,0.853,0.082,1.08c0.055,0.232,0.144,0.438,0.267,0.615c0.141,0.146,0.301,0.267,0.479,0.362
				C410.758,293.399,410.982,293.449,411.205,293.449z"/>
			<path fill="#241200" d="M417.043,289.04h-2.181v-1.34h5.708v1.34h-2.099v5.756h-1.429V289.04z"/>
			<path fill="#241200" d="M421.65,287.7h1.429v0.738c0.479-0.533,1.089-0.809,1.832-0.827c0.861,0.009,1.497,0.319,1.907,0.93
				c0.205,0.232,0.339,0.526,0.403,0.882c0.036,0.187,0.062,0.432,0.078,0.734c0.017,0.304,0.024,0.669,0.024,1.098
				c0,0.419-0.008,0.778-0.024,1.076c-0.016,0.299-0.042,0.542-0.078,0.729c-0.064,0.355-0.198,0.654-0.403,0.896
				c-0.205,0.282-0.463,0.501-0.772,0.656c-0.306,0.159-0.684,0.248-1.135,0.267c-0.352,0-0.677-0.08-0.978-0.239
				c-0.311-0.155-0.595-0.355-0.854-0.602v3.63h-1.429V287.7z M424.48,293.449c0.328,0,0.595-0.063,0.8-0.191
				c0.195-0.123,0.335-0.292,0.417-0.506c0.096-0.196,0.157-0.433,0.185-0.711c0.009-0.132,0.014-0.263,0.014-0.394
				c0-0.129,0-0.261,0-0.393c0-0.142,0-0.281,0-0.42c0-0.14-0.005-0.275-0.014-0.407c-0.027-0.278-0.089-0.515-0.185-0.711
				c-0.082-0.205-0.222-0.374-0.417-0.506c-0.196-0.114-0.463-0.171-0.8-0.171c-0.319,0-0.572,0.066-0.759,0.198
				c-0.188,0.123-0.331,0.296-0.431,0.52c-0.087,0.205-0.144,0.438-0.171,0.697c-0.027,0.273-0.041,0.54-0.041,0.8
				c0,0.251,0.014,0.501,0.041,0.752c0.027,0.273,0.084,0.513,0.171,0.718c0.1,0.224,0.243,0.396,0.431,0.52
				C423.899,293.381,424.152,293.449,424.48,293.449z"/>
			<path fill="#241200" d="M431.719,294.878c-0.383,0-0.748-0.055-1.094-0.164c-0.16-0.05-0.333-0.13-0.52-0.239
				c-0.169-0.073-0.335-0.18-0.499-0.321c-0.311-0.282-0.554-0.651-0.731-1.107c-0.205-0.446-0.308-1.039-0.308-1.777
				c0-0.72,0.089-1.304,0.267-1.75c0.187-0.497,0.414-0.87,0.684-1.121c0.273-0.269,0.59-0.47,0.95-0.602
				c0.337-0.123,0.679-0.185,1.025-0.185c0.811,0.019,1.497,0.285,2.058,0.8c0.561,0.524,0.85,1.258,0.868,2.201v1.176h-4.423
				c0,0.569,0.164,1.003,0.492,1.299c0.314,0.301,0.715,0.451,1.203,0.451c0.578,0,1.096-0.23,1.552-0.69l1.039,0.882
				C433.545,294.504,432.69,294.887,431.719,294.878z M432.991,290.612c-0.019-0.542-0.167-0.959-0.444-1.251
				c-0.273-0.269-0.625-0.403-1.053-0.403c-0.429,0-0.779,0.135-1.053,0.403c-0.27,0.292-0.417,0.709-0.444,1.251H432.991z"/>
			<path fill="#241200" d="M437.332,289.04h-2.181v-1.34h5.708v1.34h-2.099v5.756h-1.429V289.04z"/>
			<path fill="#241200" d="M441.939,287.7h1.429v2.673h1.873c0.692,0,1.248,0.203,1.668,0.608c0.419,0.405,0.629,0.938,0.629,1.6
				c0,0.665-0.21,1.201-0.629,1.606c-0.42,0.405-0.976,0.608-1.668,0.608h-3.302V287.7z M445.091,293.538
				c0.328,0,0.583-0.087,0.766-0.26c0.182-0.173,0.273-0.415,0.273-0.725c0-0.296-0.092-0.531-0.273-0.704
				c-0.183-0.173-0.438-0.26-0.766-0.26h-1.723v1.948H445.091z"/>
			<path fill="#241200" d="M452.186,287.7h1.415l2.126,4.225l2.119-4.225h1.395v7.096h-1.429v-4.553l-1.634,3.254h-0.896
				l-1.668-3.254v4.553h-1.429V287.7z"/>
			<path fill="#241200" d="M463.664,294.878c-0.524,0-0.969-0.103-1.333-0.308c-0.36-0.187-0.634-0.388-0.82-0.602
				c-0.273-0.296-0.47-0.636-0.588-1.019c-0.123-0.374-0.185-0.943-0.185-1.709c0-0.757,0.062-1.331,0.185-1.723
				c0.127-0.401,0.323-0.733,0.588-0.998c0.195-0.232,0.469-0.442,0.82-0.629c0.355-0.187,0.8-0.28,1.333-0.28
				c0.551,0,1.005,0.094,1.36,0.28c0.342,0.187,0.605,0.396,0.793,0.629c0.273,0.265,0.474,0.597,0.602,0.998
				c0.113,0.41,0.171,0.984,0.171,1.723c0,0.747-0.058,1.317-0.171,1.709c-0.128,0.392-0.328,0.731-0.602,1.019
				c-0.046,0.046-0.096,0.097-0.15,0.153c-0.055,0.058-0.116,0.108-0.185,0.154c-0.128,0.114-0.28,0.212-0.458,0.294
				C464.659,294.775,464.206,294.878,463.664,294.878z M463.664,293.449c0.25,0,0.479-0.05,0.684-0.15
				c0.205-0.096,0.359-0.217,0.465-0.362c0.15-0.196,0.243-0.401,0.28-0.615c0.018-0.114,0.034-0.26,0.048-0.438
				s0.021-0.388,0.021-0.629c0-0.251-0.007-0.467-0.021-0.649s-0.03-0.335-0.048-0.458c-0.037-0.214-0.13-0.41-0.28-0.588
				c-0.105-0.15-0.26-0.275-0.465-0.376c-0.188-0.096-0.415-0.144-0.684-0.144c-0.251,0-0.475,0.048-0.67,0.144
				c-0.188,0.091-0.347,0.217-0.479,0.376c-0.123,0.159-0.212,0.355-0.267,0.588c-0.055,0.241-0.082,0.606-0.082,1.094
				c0,0.492,0.027,0.853,0.082,1.08c0.055,0.232,0.144,0.438,0.267,0.615c0.141,0.146,0.301,0.267,0.479,0.362
				C463.216,293.399,463.44,293.449,463.664,293.449z"/>
			<path fill="#241200" d="M468.087,287.7h1.429v4.812l3.083-4.812h1.429v7.096h-1.429v-4.888l-3.083,4.888h-1.429V287.7z"/>
			<path fill="#241200" d="M479.229,287.7h1.429v0.738c0.479-0.533,1.089-0.809,1.832-0.827c0.861,0.009,1.497,0.319,1.907,0.93
				c0.205,0.232,0.339,0.526,0.403,0.882c0.036,0.187,0.062,0.432,0.078,0.734c0.017,0.304,0.024,0.669,0.024,1.098
				c0,0.419-0.008,0.778-0.024,1.076c-0.016,0.299-0.042,0.542-0.078,0.729c-0.064,0.355-0.198,0.654-0.403,0.896
				c-0.205,0.282-0.463,0.501-0.772,0.656c-0.306,0.159-0.684,0.248-1.135,0.267c-0.352,0-0.677-0.08-0.978-0.239
				c-0.311-0.155-0.595-0.355-0.854-0.602v3.63h-1.429V287.7z M482.059,293.449c0.328,0,0.595-0.063,0.8-0.191
				c0.195-0.123,0.335-0.292,0.417-0.506c0.096-0.196,0.157-0.433,0.185-0.711c0.009-0.132,0.014-0.263,0.014-0.394
				c0-0.129,0-0.261,0-0.393c0-0.142,0-0.281,0-0.42c0-0.14-0.005-0.275-0.014-0.407c-0.027-0.278-0.089-0.515-0.185-0.711
				c-0.082-0.205-0.222-0.374-0.417-0.506c-0.196-0.114-0.463-0.171-0.8-0.171c-0.319,0-0.572,0.066-0.759,0.198
				c-0.188,0.123-0.331,0.296-0.431,0.52c-0.087,0.205-0.144,0.438-0.171,0.697c-0.027,0.273-0.041,0.54-0.041,0.8
				c0,0.251,0.014,0.501,0.041,0.752c0.027,0.273,0.084,0.513,0.171,0.718c0.1,0.224,0.243,0.396,0.431,0.52
				C481.478,293.381,481.731,293.449,482.059,293.449z"/>
			<path fill="#241200" d="M488.444,294.878c-0.784-0.009-1.395-0.219-1.832-0.629c-0.451-0.401-0.677-0.914-0.677-1.538
				c0-0.597,0.195-1.092,0.588-1.483c0.383-0.392,0.957-0.597,1.723-0.615h1.976v-0.745c0.009-0.624-0.477-0.928-1.456-0.909
				c-0.338,0-0.618,0.036-0.841,0.109c-0.215,0.087-0.383,0.232-0.506,0.438l-1.121-0.854c0.542-0.711,1.342-1.058,2.399-1.039
				c0.893-0.009,1.606,0.159,2.14,0.506c0.523,0.347,0.795,0.957,0.813,1.832v4.847h-1.429v-0.629h-0.027
				c-0.133,0.241-0.338,0.419-0.615,0.533C489.323,294.818,488.945,294.878,488.444,294.878z M488.622,293.538
				c0.602,0.019,1.022-0.053,1.265-0.212c0.223-0.15,0.335-0.492,0.335-1.025v-0.513h-1.709c-0.839,0.019-1.249,0.303-1.23,0.854
				c0,0.241,0.106,0.446,0.321,0.615C487.817,293.444,488.157,293.538,488.622,293.538z"/>
			<path fill="#241200" d="M496.326,294.878c-0.721,0-1.306-0.168-1.757-0.502c-0.451-0.336-0.771-0.783-0.957-1.344
				c-0.06-0.159-0.103-0.342-0.13-0.547s-0.051-0.419-0.068-0.643c-0.019-0.224-0.03-0.447-0.034-0.674
				c-0.005-0.225-0.007-0.436-0.007-0.632v-0.54c0-0.383,0.007-0.754,0.021-1.114s0.056-0.703,0.126-1.028
				c0.071-0.326,0.176-0.629,0.314-0.91c0.14-0.279,0.329-0.534,0.571-0.762c0.195-0.173,0.404-0.314,0.625-0.424
				c0.222-0.109,0.45-0.193,0.688-0.253c0.236-0.06,0.476-0.104,0.718-0.137c0.241-0.032,0.48-0.063,0.718-0.096
				c0.146-0.019,0.266-0.062,0.358-0.13c0.094-0.068,0.151-0.173,0.175-0.314h1.456c-0.078,1.034-0.559,1.622-1.442,1.764
				c-0.229,0.036-0.454,0.066-0.677,0.089c-0.224,0.022-0.444,0.056-0.663,0.099c-0.219,0.044-0.427,0.105-0.622,0.186
				c-0.196,0.079-0.379,0.192-0.547,0.338c-0.215,0.196-0.37,0.43-0.469,0.701c-0.098,0.271-0.151,0.522-0.16,0.755h0.041
				c0.159-0.278,0.418-0.515,0.775-0.711c0.358-0.196,0.776-0.294,1.255-0.294c0.934,0,1.608,0.306,2.023,0.916
				c0.414,0.61,0.622,1.481,0.622,2.611c0,0.615-0.056,1.141-0.168,1.576c-0.111,0.435-0.3,0.81-0.563,1.124
				c-0.242,0.292-0.55,0.514-0.923,0.667C497.251,294.802,496.818,294.878,496.326,294.878z M496.312,293.463
				c0.241,0,0.46-0.043,0.656-0.13c0.195-0.087,0.359-0.21,0.492-0.369c0.159-0.187,0.264-0.414,0.314-0.68
				c0.05-0.268,0.075-0.592,0.075-0.975c0-0.392-0.025-0.729-0.075-1.008c-0.051-0.281-0.155-0.515-0.314-0.701
				c-0.133-0.15-0.297-0.267-0.492-0.349c-0.196-0.082-0.415-0.123-0.656-0.123c-0.242,0-0.461,0.043-0.656,0.13
				c-0.196,0.087-0.355,0.21-0.479,0.369c-0.16,0.187-0.263,0.42-0.308,0.701c-0.046,0.279-0.068,0.616-0.068,1.008
				c0,0.446,0.036,0.801,0.109,1.062c0.072,0.263,0.188,0.478,0.349,0.646c0.132,0.132,0.289,0.234,0.472,0.308
				C495.913,293.427,496.107,293.463,496.312,293.463z"/>
			<path fill="#241200" d="M503.353,294.878c-0.524,0-0.969-0.103-1.333-0.308c-0.36-0.187-0.634-0.388-0.82-0.602
				c-0.273-0.296-0.47-0.636-0.588-1.019c-0.123-0.374-0.185-0.943-0.185-1.709c0-0.757,0.062-1.331,0.185-1.723
				c0.127-0.401,0.323-0.733,0.588-0.998c0.195-0.232,0.469-0.442,0.82-0.629c0.355-0.187,0.8-0.28,1.333-0.28
				c0.551,0,1.005,0.094,1.36,0.28c0.342,0.187,0.605,0.396,0.793,0.629c0.273,0.265,0.474,0.597,0.602,0.998
				c0.113,0.41,0.171,0.984,0.171,1.723c0,0.747-0.058,1.317-0.171,1.709c-0.128,0.392-0.328,0.731-0.602,1.019
				c-0.046,0.046-0.096,0.097-0.15,0.153c-0.055,0.058-0.116,0.108-0.185,0.154c-0.128,0.114-0.28,0.212-0.458,0.294
				C504.348,294.775,503.895,294.878,503.353,294.878z M503.353,293.449c0.25,0,0.479-0.05,0.684-0.15
				c0.205-0.096,0.359-0.217,0.465-0.362c0.15-0.196,0.243-0.401,0.28-0.615c0.018-0.114,0.034-0.26,0.048-0.438
				s0.021-0.388,0.021-0.629c0-0.251-0.007-0.467-0.021-0.649s-0.03-0.335-0.048-0.458c-0.037-0.214-0.13-0.41-0.28-0.588
				c-0.105-0.15-0.26-0.275-0.465-0.376c-0.188-0.096-0.415-0.144-0.684-0.144c-0.251,0-0.475,0.048-0.67,0.144
				c-0.188,0.091-0.347,0.217-0.479,0.376c-0.123,0.159-0.212,0.355-0.267,0.588c-0.055,0.241-0.082,0.606-0.082,1.094
				c0,0.492,0.027,0.853,0.082,1.08c0.055,0.232,0.144,0.438,0.267,0.615c0.141,0.146,0.301,0.267,0.479,0.362
				C502.906,293.399,503.13,293.449,503.353,293.449z"/>
			<path fill="#241200" d="M509.191,289.04h-2.181v-1.34h5.708v1.34h-2.099v5.756h-1.429V289.04z"/>
			<path fill="#241200" d="M513.799,287.7h1.429v2.673h1.873c0.692,0,1.248,0.203,1.668,0.608c0.419,0.405,0.629,0.938,0.629,1.6
				c0,0.665-0.21,1.201-0.629,1.606c-0.42,0.405-0.976,0.608-1.668,0.608h-3.302V287.7z M516.95,293.538
				c0.328,0,0.583-0.087,0.766-0.26c0.182-0.173,0.273-0.415,0.273-0.725c0-0.296-0.092-0.531-0.273-0.704
				c-0.183-0.173-0.438-0.26-0.766-0.26h-1.723v1.948H516.95z M520.382,287.7h1.429v7.096h-1.429V287.7z"/>
		</g>
	</g>
</g>
</svg>
