<?xml version="1.0" encoding="utf-8"?>
<!-- Generator: Adobe Illustrator 17.0.0, SVG Export Plug-In . SVG Version: 6.00 Build 0)  -->
<!DOCTYPE svg PUBLIC "-//W3C//DTD SVG 1.1//EN" "http://www.w3.org/Graphics/SVG/1.1/DTD/svg11.dtd">
<svg version="1.1" id="Слой_1" xmlns="http://www.w3.org/2000/svg" xmlns:xlink="http://www.w3.org/1999/xlink" x="0px" y="0px"
	 width="162px" height="47.25px" viewBox="340.445 176.14 162 47.25" enable-background="new 340.445 176.14 162 47.25"
	 xml:space="preserve">
<rect x="352.182" y="187.98" fill="none" width="141.118" height="27.461"/>
<g enable-background="new    ">
	<path d="M349.234,187.98h3.862c0.998,0.019,1.734,0.265,2.208,0.738c0.497,0.497,0.745,1.142,0.745,1.935
		c0.009,0.41-0.089,0.802-0.294,1.176c-0.096,0.178-0.246,0.347-0.451,0.506c-0.205,0.178-0.447,0.33-0.725,0.458v0.027
		c0.542,0.142,0.953,0.426,1.23,0.854c0.264,0.433,0.396,0.914,0.396,1.442c-0.023,0.861-0.294,1.543-0.813,2.044
		c-0.524,0.524-1.178,0.786-1.962,0.786h-4.197V187.98z M352.926,192.178c0.551,0,0.957-0.144,1.217-0.431
		c0.264-0.265,0.396-0.597,0.396-0.998c0-0.41-0.132-0.75-0.396-1.019c-0.25-0.251-0.656-0.388-1.217-0.41h-2.181v2.857H352.926z
		 M353.069,196.518c0.551-0.009,0.961-0.162,1.23-0.458c0.26-0.292,0.39-0.638,0.39-1.039c0-0.41-0.13-0.761-0.39-1.053
		c-0.26-0.278-0.67-0.426-1.23-0.444h-2.324v2.994H353.069z"/>
	<path d="M357.642,190.851h1.429v2.673h1.873c0.693,0,1.249,0.203,1.668,0.608s0.629,0.938,0.629,1.6
		c0,0.665-0.209,1.201-0.629,1.606s-0.975,0.608-1.668,0.608h-3.302V190.851z M360.794,196.689c0.328,0,0.583-0.087,0.766-0.26
		s0.273-0.415,0.273-0.725c0-0.296-0.091-0.531-0.273-0.704s-0.438-0.26-0.766-0.26h-1.723v1.948H360.794z M364.225,190.851h1.429
		v7.096h-1.429V190.851z"/>
	<path d="M370.856,190.851h1.415l2.126,4.225l2.119-4.225h1.395v7.096h-1.429v-4.553l-1.634,3.254h-0.896l-1.668-3.254v4.553h-1.429
		V190.851z"/>
	<path d="M382.334,198.029c-0.524,0-0.968-0.103-1.333-0.308c-0.36-0.187-0.633-0.388-0.82-0.602
		c-0.273-0.296-0.469-0.636-0.588-1.019c-0.123-0.374-0.185-0.943-0.185-1.709c0-0.757,0.062-1.331,0.185-1.723
		c0.127-0.401,0.324-0.733,0.588-0.998c0.196-0.232,0.469-0.442,0.82-0.629c0.355-0.187,0.8-0.28,1.333-0.28
		c0.551,0,1.005,0.094,1.36,0.28c0.342,0.187,0.606,0.396,0.793,0.629c0.273,0.265,0.474,0.597,0.602,0.998
		c0.114,0.41,0.171,0.984,0.171,1.723c0,0.747-0.057,1.317-0.171,1.709c-0.127,0.392-0.328,0.731-0.602,1.019
		c-0.045,0.046-0.096,0.097-0.15,0.153c-0.055,0.058-0.116,0.108-0.185,0.154c-0.127,0.114-0.28,0.212-0.458,0.294
		C383.329,197.927,382.876,198.029,382.334,198.029z M382.334,196.6c0.25,0,0.479-0.05,0.684-0.15
		c0.205-0.096,0.36-0.217,0.465-0.362c0.15-0.196,0.244-0.401,0.28-0.615c0.018-0.114,0.034-0.26,0.048-0.438
		s0.021-0.388,0.021-0.629c0-0.251-0.007-0.467-0.021-0.649s-0.03-0.335-0.048-0.458c-0.037-0.214-0.13-0.41-0.28-0.588
		c-0.105-0.15-0.26-0.275-0.465-0.376c-0.187-0.096-0.415-0.144-0.684-0.144c-0.25,0-0.474,0.048-0.67,0.144
		c-0.187,0.091-0.346,0.217-0.479,0.376c-0.123,0.159-0.212,0.355-0.267,0.588c-0.055,0.241-0.082,0.606-0.082,1.094
		c0,0.492,0.027,0.853,0.082,1.08c0.055,0.232,0.144,0.438,0.267,0.615c0.141,0.146,0.301,0.267,0.479,0.362
		C381.887,196.551,382.111,196.6,382.334,196.6z"/>
	<path d="M386.046,196.628h0.308c0.127,0,0.233-0.009,0.318-0.027s0.155-0.048,0.212-0.089s0.106-0.1,0.147-0.174
		c0.041-0.076,0.086-0.175,0.137-0.298l0.321-0.868c0.1-0.26,0.226-0.466,0.376-0.619c0.15-0.152,0.346-0.268,0.588-0.345
		c-0.16-0.055-0.307-0.143-0.441-0.263c-0.134-0.121-0.24-0.289-0.318-0.503l-0.232-0.704c-0.05-0.132-0.096-0.237-0.137-0.314
		s-0.092-0.138-0.154-0.182c-0.062-0.043-0.137-0.071-0.226-0.085s-0.202-0.021-0.338-0.021h-0.226v-1.285h0.492
		c0.456,0,0.814,0.094,1.077,0.28s0.471,0.494,0.625,0.923l0.342,0.95c0.073,0.196,0.196,0.354,0.369,0.476
		c0.173,0.12,0.38,0.181,0.622,0.181h0.39v-2.81h1.429v2.81h0.383c0.25,0,0.462-0.061,0.636-0.181
		c0.173-0.121,0.296-0.279,0.369-0.476l0.335-0.95c0.16-0.429,0.368-0.736,0.625-0.923s0.619-0.28,1.083-0.28h0.479v1.285h-0.212
		c-0.141,0-0.259,0.007-0.352,0.021s-0.167,0.042-0.222,0.085c-0.055,0.044-0.104,0.104-0.147,0.182s-0.088,0.183-0.133,0.314
		l-0.253,0.704c-0.073,0.214-0.178,0.382-0.314,0.503c-0.137,0.12-0.285,0.208-0.444,0.263c0.246,0.077,0.443,0.192,0.591,0.345
		c0.148,0.153,0.274,0.359,0.379,0.619l0.335,0.868c0.045,0.123,0.09,0.222,0.133,0.298c0.043,0.074,0.092,0.133,0.147,0.174
		s0.122,0.07,0.202,0.089s0.186,0.027,0.318,0.027h0.321v1.319h-0.52c-0.25,0-0.472-0.022-0.663-0.068s-0.358-0.117-0.499-0.215
		c-0.141-0.099-0.266-0.229-0.373-0.394s-0.206-0.362-0.297-0.595l-0.396-1.012c-0.064-0.169-0.143-0.297-0.236-0.387
		c-0.093-0.088-0.194-0.155-0.301-0.201s-0.216-0.073-0.328-0.082s-0.225-0.014-0.338-0.014h-0.308v2.967h-1.429v-2.967h-0.308
		c-0.109,0-0.223,0.005-0.342,0.014s-0.231,0.036-0.338,0.082s-0.208,0.113-0.301,0.201c-0.093,0.09-0.172,0.218-0.236,0.387
		l-0.376,1.012c-0.096,0.232-0.197,0.431-0.304,0.595s-0.232,0.295-0.376,0.394c-0.144,0.098-0.309,0.169-0.496,0.215
		s-0.408,0.068-0.663,0.068h-0.513V196.628z"/>
	<path d="M399.923,198.029c-0.383,0-0.748-0.055-1.094-0.164c-0.16-0.05-0.333-0.13-0.52-0.239c-0.168-0.073-0.335-0.18-0.499-0.321
		c-0.31-0.282-0.554-0.651-0.731-1.107c-0.205-0.446-0.308-1.039-0.308-1.777c0-0.72,0.089-1.304,0.267-1.75
		c0.187-0.497,0.415-0.87,0.684-1.121c0.273-0.269,0.59-0.47,0.95-0.602c0.337-0.123,0.679-0.185,1.025-0.185
		c0.811,0.019,1.497,0.285,2.058,0.8c0.561,0.524,0.85,1.258,0.868,2.201v1.176H398.2c0,0.569,0.164,1.003,0.492,1.299
		c0.314,0.301,0.715,0.451,1.203,0.451c0.579,0,1.096-0.23,1.552-0.69l1.039,0.882C401.748,197.655,400.893,198.038,399.923,198.029
		z M401.194,193.764c-0.018-0.542-0.167-0.959-0.444-1.251c-0.273-0.269-0.625-0.403-1.053-0.403s-0.779,0.135-1.053,0.403
		c-0.269,0.292-0.417,0.709-0.444,1.251H401.194z"/>
	<path d="M405.535,192.191h-2.181v-1.34h5.708v1.34h-2.099v5.756h-1.429V192.191z"/>
	<path d="M412.945,198.029c-0.383,0-0.748-0.055-1.094-0.164c-0.16-0.05-0.333-0.13-0.52-0.239c-0.168-0.073-0.335-0.18-0.499-0.321
		c-0.31-0.282-0.554-0.651-0.731-1.107c-0.205-0.446-0.308-1.039-0.308-1.777c0-0.72,0.089-1.304,0.267-1.75
		c0.187-0.497,0.415-0.87,0.684-1.121c0.273-0.269,0.59-0.47,0.95-0.602c0.337-0.123,0.679-0.185,1.025-0.185
		c0.811,0.019,1.497,0.285,2.058,0.8c0.561,0.524,0.85,1.258,0.868,2.201v1.176h-4.423c0,0.569,0.164,1.003,0.492,1.299
		c0.314,0.301,0.715,0.451,1.203,0.451c0.579,0,1.096-0.23,1.552-0.69l1.039,0.882C414.77,197.655,413.916,198.038,412.945,198.029z
		 M414.217,193.764c-0.018-0.542-0.167-0.959-0.444-1.251c-0.273-0.269-0.625-0.403-1.053-0.403s-0.779,0.135-1.053,0.403
		c-0.269,0.292-0.417,0.709-0.444,1.251H414.217z"/>
	<path d="M423.172,198.029c-0.848,0-1.584-0.285-2.208-0.854c-0.666-0.569-1.003-1.492-1.012-2.769
		c0.018-1.299,0.355-2.233,1.012-2.803c0.633-0.579,1.369-0.859,2.208-0.841c0.551,0.019,1.036,0.132,1.456,0.342
		c0.433,0.224,0.797,0.521,1.094,0.896l-1.053,0.937c-0.36-0.487-0.839-0.736-1.436-0.745c-1.227-0.019-1.844,0.72-1.853,2.215
		c0.009,1.481,0.626,2.213,1.853,2.194c0.605-0.019,1.084-0.265,1.436-0.738l1.053,0.937c-0.319,0.355-0.684,0.645-1.094,0.868
		C424.199,197.908,423.714,198.029,423.172,198.029z"/>
	<path d="M426.713,190.851h1.429v2.782h0.67c0.255,0,0.468-0.056,0.639-0.167c0.171-0.112,0.295-0.266,0.373-0.462l0.335-0.95
		c0.15-0.429,0.355-0.736,0.615-0.923s0.624-0.28,1.094-0.28h0.472v1.285h-0.205c-0.142,0-0.259,0.007-0.353,0.021
		c-0.093,0.014-0.171,0.042-0.232,0.085c-0.062,0.044-0.112,0.104-0.153,0.182s-0.085,0.183-0.13,0.314l-0.239,0.704
		c-0.073,0.214-0.178,0.382-0.314,0.503c-0.137,0.12-0.285,0.208-0.444,0.263c0.246,0.077,0.443,0.192,0.591,0.345
		c0.148,0.153,0.274,0.359,0.38,0.619l0.335,0.868c0.045,0.123,0.089,0.222,0.13,0.298c0.041,0.074,0.09,0.133,0.146,0.174
		c0.058,0.041,0.126,0.07,0.205,0.089c0.08,0.019,0.186,0.027,0.318,0.027h0.321v1.319h-0.52c-0.516,0-0.908-0.096-1.18-0.287
		c-0.271-0.191-0.493-0.52-0.666-0.984l-0.396-1.012c-0.064-0.169-0.143-0.297-0.236-0.387c-0.093-0.088-0.193-0.155-0.301-0.201
		c-0.106-0.046-0.216-0.073-0.328-0.082c-0.111-0.009-0.225-0.014-0.338-0.014h-0.588v2.967h-1.429V190.851z"/>
	<path d="M435.771,198.029c-0.784-0.009-1.395-0.219-1.832-0.629c-0.451-0.401-0.677-0.914-0.677-1.538
		c0-0.597,0.195-1.092,0.588-1.483c0.383-0.392,0.957-0.597,1.723-0.615h1.976v-0.745c0.009-0.624-0.477-0.928-1.456-0.909
		c-0.338,0-0.618,0.036-0.841,0.109c-0.215,0.087-0.383,0.232-0.506,0.438l-1.121-0.854c0.542-0.711,1.342-1.058,2.399-1.039
		c0.893-0.009,1.606,0.159,2.14,0.506c0.523,0.347,0.795,0.957,0.813,1.832v4.847h-1.429v-0.629h-0.027
		c-0.133,0.241-0.338,0.419-0.615,0.533C436.65,197.97,436.272,198.029,435.771,198.029z M435.949,196.689
		c0.602,0.019,1.022-0.053,1.265-0.212c0.223-0.15,0.335-0.492,0.335-1.025v-0.513h-1.709c-0.839,0.019-1.249,0.303-1.23,0.854
		c0,0.241,0.106,0.446,0.321,0.615C435.144,196.596,435.484,196.689,435.949,196.689z"/>
	<path d="M444.644,195.356c-0.242,0.046-0.536,0.095-0.882,0.147c-0.347,0.052-0.729,0.078-1.148,0.078
		c-0.588,0-1.071-0.171-1.449-0.513c-0.379-0.342-0.567-0.875-0.567-1.6v-2.618h1.429v2.338c0,0.383,0.091,0.652,0.273,0.811
		c0.182,0.156,0.438,0.235,0.766,0.235c0.296,0,0.584-0.019,0.864-0.055s0.519-0.073,0.715-0.109v-3.22h1.429v7.096h-1.429V195.356z
		"/>
	<path d="M449.866,198.029c-0.784-0.009-1.395-0.219-1.832-0.629c-0.451-0.401-0.677-0.914-0.677-1.538
		c0-0.597,0.195-1.092,0.588-1.483c0.383-0.392,0.957-0.597,1.723-0.615h1.976v-0.745c0.009-0.624-0.477-0.928-1.456-0.909
		c-0.338,0-0.618,0.036-0.841,0.109c-0.215,0.087-0.383,0.232-0.506,0.438l-1.121-0.854c0.542-0.711,1.342-1.058,2.399-1.039
		c0.893-0.009,1.606,0.159,2.14,0.506c0.523,0.347,0.795,0.957,0.813,1.832v4.847h-1.429v-0.629h-0.027
		c-0.133,0.241-0.338,0.419-0.615,0.533C450.745,197.97,450.367,198.029,449.866,198.029z M450.044,196.689
		c0.602,0.019,1.022-0.053,1.265-0.212c0.223-0.15,0.335-0.492,0.335-1.025v-0.513h-1.709c-0.839,0.019-1.249,0.303-1.23,0.854
		c0,0.241,0.106,0.446,0.321,0.615C449.24,196.596,449.579,196.689,450.044,196.689z"/>
	<path d="M456.333,192.191h-2.181v-1.34h5.708v1.34h-2.099v5.756h-1.429V192.191z"/>
	<path d="M460.941,190.851h1.429v2.673h1.873c0.692,0,1.248,0.203,1.668,0.608c0.419,0.405,0.629,0.938,0.629,1.6
		c0,0.665-0.21,1.201-0.629,1.606c-0.42,0.405-0.976,0.608-1.668,0.608h-3.302V190.851z M464.092,196.689
		c0.328,0,0.583-0.087,0.766-0.26c0.182-0.173,0.273-0.415,0.273-0.725c0-0.296-0.092-0.531-0.273-0.704
		c-0.183-0.173-0.438-0.26-0.766-0.26h-1.723v1.948H464.092z"/>
	<path d="M473.991,198.029c-0.383,0-0.748-0.055-1.094-0.164c-0.16-0.05-0.333-0.13-0.52-0.239c-0.169-0.073-0.335-0.18-0.499-0.321
		c-0.311-0.282-0.554-0.651-0.731-1.107c-0.205-0.446-0.308-1.039-0.308-1.777c0-0.72,0.089-1.304,0.267-1.75
		c0.187-0.497,0.414-0.87,0.684-1.121c0.273-0.269,0.59-0.47,0.95-0.602c0.337-0.123,0.679-0.185,1.025-0.185
		c0.811,0.019,1.497,0.285,2.058,0.8c0.561,0.524,0.85,1.258,0.868,2.201v1.176h-4.423c0,0.569,0.164,1.003,0.492,1.299
		c0.314,0.301,0.715,0.451,1.203,0.451c0.578,0,1.096-0.23,1.552-0.69l1.039,0.882C475.816,197.655,474.961,198.038,473.991,198.029
		z M475.262,193.764c-0.019-0.542-0.167-0.959-0.444-1.251c-0.273-0.269-0.625-0.403-1.053-0.403c-0.429,0-0.779,0.135-1.053,0.403
		c-0.27,0.292-0.417,0.709-0.444,1.251H475.262z"/>
	<path d="M478.188,190.851h4.607v1.34h-3.179v5.756h-1.429V190.851z"/>
	<path d="M486.446,198.029c-0.524,0-0.969-0.103-1.333-0.308c-0.36-0.187-0.634-0.388-0.82-0.602
		c-0.273-0.296-0.47-0.636-0.588-1.019c-0.123-0.374-0.185-0.943-0.185-1.709c0-0.757,0.062-1.331,0.185-1.723
		c0.127-0.401,0.323-0.733,0.588-0.998c0.195-0.232,0.469-0.442,0.82-0.629c0.355-0.187,0.8-0.28,1.333-0.28
		c0.551,0,1.005,0.094,1.36,0.28c0.342,0.187,0.605,0.396,0.793,0.629c0.273,0.265,0.474,0.597,0.602,0.998
		c0.113,0.41,0.171,0.984,0.171,1.723c0,0.747-0.058,1.317-0.171,1.709c-0.128,0.392-0.328,0.731-0.602,1.019
		c-0.046,0.046-0.096,0.097-0.15,0.153c-0.055,0.058-0.116,0.108-0.185,0.154c-0.128,0.114-0.28,0.212-0.458,0.294
		C487.441,197.927,486.988,198.029,486.446,198.029z M486.446,196.6c0.25,0,0.479-0.05,0.684-0.15
		c0.205-0.096,0.359-0.217,0.465-0.362c0.15-0.196,0.243-0.401,0.28-0.615c0.018-0.114,0.034-0.26,0.048-0.438
		s0.021-0.388,0.021-0.629c0-0.251-0.007-0.467-0.021-0.649s-0.03-0.335-0.048-0.458c-0.037-0.214-0.13-0.41-0.28-0.588
		c-0.105-0.15-0.26-0.275-0.465-0.376c-0.188-0.096-0.415-0.144-0.684-0.144c-0.251,0-0.475,0.048-0.67,0.144
		c-0.188,0.091-0.347,0.217-0.479,0.376c-0.123,0.159-0.212,0.355-0.267,0.588c-0.055,0.241-0.082,0.606-0.082,1.094
		c0,0.492,0.027,0.853,0.082,1.08c0.055,0.232,0.144,0.438,0.267,0.615c0.141,0.146,0.301,0.267,0.479,0.362
		C485.998,196.551,486.222,196.6,486.446,196.6z"/>
</g>
<path d="M492.329,188.785c-0.284-10.236-12.185-8.156-19.318-8.261c-16.212-0.239-32.426-0.2-48.635-0.645
	c-17.63-0.484-35.333-2.76-52.982-1.591c-9.058,0.6-29.191,2.893-25.758,16.581c0.097,0.385,0.36,0.513,0.652,0.494
	c0.939,6.472,5.636,10.95,10.613,15.019c6.118,5.002,11.669,12.07,20.273,12c0.634-0.005,1.72-0.986,1.016-1.605
	c-2.022-1.78-3.993-3.587-5.362-5.938c-2.613-4.488,6.33-5.098,8.797-5.396c7.989-0.965,16.136-0.645,24.164-0.576
	c15.81,0.138,31.577,1.448,47.384,1.515c9.325,0.039,19.569,1.31,28.576-1.752C490.366,205.701,492.565,197.308,492.329,188.785z
	 M485.329,205.38c-5.103,3.416-12.998,3.323-18.857,3.417c-27.632,0.447-55.351-3.488-82.96-1.264
	c-3.293,0.265-10.939,0.343-12.557,4.351c-1.266,3.137,1.222,6.111,3.664,8.392c-6.193-1.357-10.414-6.592-15.34-10.539
	c-5.45-4.367-11.024-9.125-11.413-16.605c-0.026-0.503-0.384-0.58-0.767-0.443c-1.67-14.199,28.59-13.071,37.067-12.952
	c6.656,0.093,13.287,0.624,19.927,1.045c16.262,1.031,32.569,1.179,48.858,1.314c7.762,0.065,15.523,0.124,23.284,0.251
	c4.928,0.08,12.4-1.186,14.066,4.896C491.733,192.47,490.013,202.246,485.329,205.38z"/>
</svg>
