<?xml version="1.0" encoding="utf-8"?>
<!-- Generator: Adobe Illustrator 17.0.0, SVG Export Plug-In . SVG Version: 6.00 Build 0)  -->
<!DOCTYPE svg PUBLIC "-//W3C//DTD SVG 1.1//EN" "http://www.w3.org/Graphics/SVG/1.1/DTD/svg11.dtd">
<svg version="1.1" id="Слой_1" xmlns="http://www.w3.org/2000/svg" xmlns:xlink="http://www.w3.org/1999/xlink" x="0px" y="0px"
	 width="176.898px" height="72.919px" viewBox="332.533 260.983 176.898 72.919"
	 enable-background="new 332.533 260.983 176.898 72.919" xml:space="preserve">
<g>
	<rect x="343.031" y="274.416" fill="none" width="166.4" height="27.461"/>
	<g enable-background="new    ">
		<path fill="#241200" d="M343.968,282.963h1.38v1.421h-1.38V282.963z"/>
		<path fill="#241200" d="M347.324,282.963h1.38v1.421h-1.38V282.963z"/>
		<path fill="#241200" d="M350.681,282.963h1.38v1.421h-1.38V282.963z"/>
		<path fill="#241200" d="M354.023,277.288h1.415l2.126,4.225l2.119-4.225h1.395v7.096h-1.429v-4.553l-1.634,3.254h-0.896
			l-1.668-3.254v4.553h-1.429V277.288z"/>
		<path fill="#241200" d="M365.501,284.466c-0.524,0-0.968-0.103-1.333-0.308c-0.36-0.187-0.633-0.388-0.82-0.602
			c-0.273-0.296-0.469-0.636-0.588-1.019c-0.123-0.374-0.185-0.943-0.185-1.709c0-0.757,0.062-1.331,0.185-1.723
			c0.127-0.401,0.324-0.733,0.588-0.998c0.196-0.232,0.469-0.442,0.82-0.629c0.355-0.187,0.8-0.28,1.333-0.28
			c0.551,0,1.005,0.094,1.36,0.28c0.342,0.187,0.606,0.396,0.793,0.629c0.273,0.265,0.474,0.597,0.602,0.998
			c0.114,0.41,0.171,0.984,0.171,1.723c0,0.747-0.057,1.317-0.171,1.709c-0.127,0.392-0.328,0.731-0.602,1.019
			c-0.045,0.046-0.096,0.097-0.15,0.153c-0.055,0.058-0.116,0.108-0.185,0.154c-0.127,0.114-0.28,0.212-0.458,0.294
			C366.496,284.363,366.043,284.466,365.501,284.466z M365.501,283.037c0.25,0,0.479-0.05,0.684-0.15
			c0.205-0.096,0.36-0.217,0.465-0.362c0.15-0.196,0.244-0.401,0.28-0.615c0.018-0.114,0.034-0.26,0.048-0.438
			s0.021-0.388,0.021-0.629c0-0.251-0.007-0.467-0.021-0.649s-0.03-0.335-0.048-0.458c-0.037-0.214-0.13-0.41-0.28-0.588
			c-0.105-0.15-0.26-0.275-0.465-0.376c-0.187-0.096-0.415-0.144-0.684-0.144c-0.25,0-0.474,0.048-0.67,0.144
			c-0.187,0.091-0.346,0.217-0.479,0.376c-0.123,0.159-0.212,0.355-0.267,0.588c-0.055,0.241-0.082,0.606-0.082,1.094
			c0,0.492,0.027,0.853,0.082,1.08c0.055,0.232,0.144,0.438,0.267,0.615c0.141,0.146,0.301,0.267,0.479,0.362
			C365.054,282.987,365.278,283.037,365.501,283.037z"/>
		<path fill="#241200" d="M369.213,283.064h0.308c0.127,0,0.233-0.009,0.318-0.027s0.155-0.048,0.212-0.089s0.106-0.1,0.147-0.174
			c0.041-0.076,0.086-0.175,0.137-0.298l0.321-0.868c0.1-0.26,0.226-0.466,0.376-0.619c0.15-0.152,0.346-0.268,0.588-0.345
			c-0.16-0.055-0.307-0.143-0.441-0.263c-0.134-0.121-0.24-0.289-0.318-0.503l-0.232-0.704c-0.05-0.132-0.096-0.237-0.137-0.314
			s-0.092-0.138-0.154-0.182c-0.062-0.043-0.137-0.071-0.226-0.085s-0.202-0.021-0.338-0.021h-0.226v-1.285h0.492
			c0.456,0,0.814,0.094,1.077,0.28s0.471,0.494,0.625,0.923l0.342,0.95c0.073,0.196,0.196,0.354,0.369,0.476
			c0.173,0.12,0.38,0.181,0.622,0.181h0.39v-2.81h1.429v2.81h0.383c0.25,0,0.462-0.061,0.636-0.181
			c0.173-0.121,0.296-0.279,0.369-0.476l0.335-0.95c0.16-0.429,0.368-0.736,0.625-0.923s0.619-0.28,1.083-0.28h0.479v1.285h-0.212
			c-0.141,0-0.259,0.007-0.352,0.021s-0.167,0.042-0.222,0.085c-0.055,0.044-0.104,0.104-0.147,0.182s-0.088,0.183-0.133,0.314
			l-0.253,0.704c-0.073,0.214-0.178,0.382-0.314,0.503c-0.137,0.12-0.285,0.208-0.444,0.263c0.246,0.077,0.443,0.192,0.591,0.345
			c0.148,0.153,0.274,0.359,0.379,0.619l0.335,0.868c0.045,0.123,0.09,0.222,0.133,0.298c0.043,0.074,0.092,0.133,0.147,0.174
			s0.122,0.07,0.202,0.089s0.186,0.027,0.318,0.027h0.321v1.319h-0.52c-0.25,0-0.472-0.022-0.663-0.068s-0.358-0.117-0.499-0.215
			c-0.141-0.099-0.266-0.229-0.373-0.394s-0.206-0.362-0.297-0.595l-0.396-1.012c-0.064-0.169-0.143-0.297-0.236-0.387
			c-0.093-0.088-0.194-0.155-0.301-0.201s-0.216-0.073-0.328-0.082s-0.225-0.014-0.338-0.014h-0.308v2.967h-1.429v-2.967h-0.308
			c-0.109,0-0.223,0.005-0.342,0.014s-0.231,0.036-0.338,0.082s-0.208,0.113-0.301,0.201c-0.093,0.09-0.172,0.218-0.236,0.387
			l-0.376,1.012c-0.096,0.232-0.197,0.431-0.304,0.595s-0.232,0.295-0.376,0.394c-0.144,0.098-0.309,0.169-0.496,0.215
			s-0.408,0.068-0.663,0.068h-0.513V283.064z"/>
		<path fill="#241200" d="M383.09,284.466c-0.383,0-0.748-0.055-1.094-0.164c-0.16-0.05-0.333-0.13-0.52-0.239
			c-0.168-0.073-0.335-0.18-0.499-0.321c-0.31-0.282-0.554-0.651-0.731-1.107c-0.205-0.446-0.308-1.039-0.308-1.777
			c0-0.72,0.089-1.304,0.267-1.75c0.187-0.497,0.415-0.87,0.684-1.121c0.273-0.269,0.59-0.47,0.95-0.602
			c0.337-0.123,0.679-0.185,1.025-0.185c0.811,0.019,1.497,0.285,2.058,0.8c0.561,0.524,0.85,1.258,0.868,2.201v1.176h-4.423
			c0,0.569,0.164,1.003,0.492,1.299c0.314,0.301,0.715,0.451,1.203,0.451c0.579,0,1.096-0.23,1.552-0.69l1.039,0.882
			C384.915,284.092,384.06,284.474,383.09,284.466z M384.361,280.2c-0.018-0.542-0.167-0.959-0.444-1.251
			c-0.273-0.269-0.625-0.403-1.053-0.403s-0.779,0.135-1.053,0.403c-0.269,0.292-0.417,0.709-0.444,1.251H384.361z"/>
		<path fill="#241200" d="M388.702,278.628h-2.181v-1.34h5.708v1.34h-2.099v5.756h-1.429V278.628z"/>
		<path fill="#241200" d="M396.112,284.466c-0.383,0-0.748-0.055-1.094-0.164c-0.16-0.05-0.333-0.13-0.52-0.239
			c-0.168-0.073-0.335-0.18-0.499-0.321c-0.31-0.282-0.554-0.651-0.731-1.107c-0.205-0.446-0.308-1.039-0.308-1.777
			c0-0.72,0.089-1.304,0.267-1.75c0.187-0.497,0.415-0.87,0.684-1.121c0.273-0.269,0.59-0.47,0.95-0.602
			c0.337-0.123,0.679-0.185,1.025-0.185c0.811,0.019,1.497,0.285,2.058,0.8c0.561,0.524,0.85,1.258,0.868,2.201v1.176h-4.423
			c0,0.569,0.164,1.003,0.492,1.299c0.314,0.301,0.715,0.451,1.203,0.451c0.579,0,1.096-0.23,1.552-0.69l1.039,0.882
			C397.937,284.092,397.083,284.474,396.112,284.466z M397.383,280.2c-0.018-0.542-0.167-0.959-0.444-1.251
			c-0.273-0.269-0.625-0.403-1.053-0.403s-0.779,0.135-1.053,0.403c-0.269,0.292-0.417,0.709-0.444,1.251H397.383z"/>
		<path fill="#241200" d="M403.666,277.288h1.429v2.769h2.816v-2.769h1.429v7.096h-1.429v-2.98h-2.816v2.98h-1.429V277.288z"/>
		<path fill="#241200" d="M413.133,284.466c-0.784-0.009-1.395-0.219-1.832-0.629c-0.451-0.401-0.677-0.914-0.677-1.538
			c0-0.597,0.196-1.092,0.588-1.483c0.383-0.392,0.957-0.597,1.723-0.615h1.976v-0.745c0.009-0.624-0.476-0.928-1.456-0.909
			c-0.337,0-0.618,0.036-0.841,0.109c-0.214,0.087-0.383,0.232-0.506,0.438l-1.121-0.854c0.542-0.711,1.342-1.058,2.399-1.039
			c0.893-0.009,1.606,0.159,2.14,0.506c0.524,0.347,0.795,0.957,0.813,1.832v4.847h-1.429v-0.629h-0.027
			c-0.132,0.241-0.337,0.419-0.615,0.533C414.013,284.406,413.635,284.466,413.133,284.466z M413.311,283.126
			c0.602,0.019,1.023-0.053,1.265-0.212c0.223-0.15,0.335-0.492,0.335-1.025v-0.513h-1.709c-0.838,0.019-1.249,0.303-1.23,0.854
			c0,0.241,0.107,0.446,0.321,0.615C412.507,283.032,412.846,283.126,413.311,283.126z"/>
		<path fill="#241200" d="M418.185,277.288h5.674v7.096h-1.429v-5.756h-2.816v5.756h-1.429V277.288z"/>
		<path fill="#241200" d="M425.705,277.288h1.429v4.812l3.083-4.812h1.429v7.096h-1.429v-4.888l-3.083,4.888h-1.429V277.288z"/>
		<path fill="#241200" d="M436.164,284.466c-0.848,0-1.584-0.285-2.208-0.854c-0.666-0.569-1.003-1.492-1.012-2.769
			c0.018-1.299,0.355-2.233,1.012-2.803c0.633-0.579,1.369-0.859,2.208-0.841c0.551,0.019,1.036,0.132,1.456,0.342
			c0.433,0.224,0.797,0.521,1.094,0.896l-1.053,0.937c-0.36-0.487-0.839-0.736-1.436-0.745c-1.227-0.019-1.844,0.72-1.853,2.215
			c0.009,1.481,0.626,2.213,1.853,2.194c0.605-0.019,1.084-0.265,1.436-0.738l1.053,0.937c-0.319,0.355-0.684,0.645-1.094,0.868
			C437.191,284.345,436.706,284.466,436.164,284.466z"/>
		<path fill="#241200" d="M441.653,284.466c-0.784-0.009-1.395-0.219-1.832-0.629c-0.451-0.401-0.677-0.914-0.677-1.538
			c0-0.597,0.195-1.092,0.588-1.483c0.383-0.392,0.957-0.597,1.723-0.615h1.976v-0.745c0.009-0.624-0.477-0.928-1.456-0.909
			c-0.338,0-0.618,0.036-0.841,0.109c-0.215,0.087-0.383,0.232-0.506,0.438l-1.121-0.854c0.542-0.711,1.342-1.058,2.399-1.039
			c0.893-0.009,1.606,0.159,2.14,0.506c0.523,0.347,0.795,0.957,0.813,1.832v4.847h-1.429v-0.629h-0.027
			c-0.133,0.241-0.338,0.419-0.615,0.533C442.532,284.406,442.154,284.466,441.653,284.466z M441.831,283.126
			c0.602,0.019,1.022-0.053,1.265-0.212c0.223-0.15,0.335-0.492,0.335-1.025v-0.513h-1.709c-0.839,0.019-1.249,0.303-1.23,0.854
			c0,0.241,0.106,0.446,0.321,0.615C441.026,283.032,441.366,283.126,441.831,283.126z"/>
		<path fill="#241200" d="M448.12,278.628h-2.181v-1.34h5.708v1.34h-2.099v5.756h-1.429V278.628z"/>
		<path fill="#241200" d="M452.727,277.288h1.429v2.673h1.873c0.692,0,1.248,0.203,1.668,0.608c0.419,0.405,0.629,0.938,0.629,1.6
			c0,0.665-0.21,1.201-0.629,1.606c-0.42,0.405-0.976,0.608-1.668,0.608h-3.302V277.288z M455.879,283.126
			c0.328,0,0.583-0.087,0.766-0.26c0.182-0.173,0.273-0.415,0.273-0.725c0-0.296-0.092-0.531-0.273-0.704
			c-0.183-0.173-0.438-0.26-0.766-0.26h-1.723v1.948H455.879z"/>
		<path fill="#241200" d="M462.974,277.288h1.415l2.126,4.225l2.119-4.225h1.395v7.096H468.6v-4.553l-1.634,3.254h-0.896
			l-1.668-3.254v4.553h-1.429V277.288z"/>
		<path fill="#241200" d="M471.875,277.288h1.429v2.769h2.816v-2.769h1.429v7.096h-1.429v-2.98h-2.816v2.98h-1.429V277.288z"/>
		<path fill="#241200" d="M482.197,284.466c-0.383,0-0.748-0.055-1.094-0.164c-0.16-0.05-0.333-0.13-0.52-0.239
			c-0.169-0.073-0.335-0.18-0.499-0.321c-0.311-0.282-0.554-0.651-0.731-1.107c-0.205-0.446-0.308-1.039-0.308-1.777
			c0-0.72,0.089-1.304,0.267-1.75c0.187-0.497,0.414-0.87,0.684-1.121c0.273-0.269,0.59-0.47,0.95-0.602
			c0.337-0.123,0.679-0.185,1.025-0.185c0.811,0.019,1.497,0.285,2.058,0.8c0.561,0.524,0.85,1.258,0.868,2.201v1.176h-4.423
			c0,0.569,0.164,1.003,0.492,1.299c0.314,0.301,0.715,0.451,1.203,0.451c0.578,0,1.096-0.23,1.552-0.69l1.039,0.882
			C484.022,284.092,483.168,284.474,482.197,284.466z M483.468,280.2c-0.019-0.542-0.167-0.959-0.444-1.251
			c-0.273-0.269-0.625-0.403-1.053-0.403c-0.429,0-0.779,0.135-1.053,0.403c-0.27,0.292-0.417,0.709-0.444,1.251H483.468z"/>
	</g>
</g>
<path d="M491.761,268.57c-5.238-1.531-10.814-1.907-16.224-2.354c-6.592-0.545-13.127-1.498-19.732-1.893
	c-7.543-0.451-15.111-0.426-22.661-0.704c-8.205-0.302-16.33-1.43-24.513-2.021c-14.18-1.023-28.372-0.609-42.554,0.081
	c-8.851,0.43-18.089,1.312-25.744,6.161c-5.848,3.705-10.232,11.74-6.296,18.251c3.818,6.315,13.825,7.308,20.353,6.781
	c0.953-0.077,1.465-1.843,0.221-1.743c-6.682,0.54-15.643-0.676-19.432-6.945c-2.629-4.349,0.22-9.757,3.303-12.962
	c3.422-3.557,8.622-5.163,13.286-6.22c8.515-1.93,17.69-1.836,26.354-2.115c11.823-0.38,23.657-0.107,35.442,0.92
	c11.389,0.992,22.638,1.682,34.071,1.982c10.595,0.279,21.094,1.588,31.637,2.576c7.79,0.73,22.095,2.224,23.971,11.899
	c1.541,7.946-12.095,14.012-17.856,15.933c-0.532,0.177-1.058,1.053-0.578,1.528c2.983,2.946,6.127,5.722,8.985,8.793
	c1.235,1.327,2.369,2.75,3.182,4.376c1.942,3.885-6.402,2.873-8.15,2.726c-0.657-0.055-1.468,0.782-1.134,1.444
	c2.852,5.647,7.869,10.023,9.51,16.144c-6.86-3.914-12.031-10.626-17.434-16.313c1.489-0.531,2.752-1.34,4.344-2.09
	c0.466-0.219,1.123-1.045,0.578-1.528c-6.328-5.606-13.224-12.08-21.446-14.71c-3.895-1.246-8.275-1.004-12.299-0.843
	c-5.484,0.219-10.933,0.395-16.423,0.404c-24.122,0.038-48.412,0.027-72.196-4.508c-0.911-0.174-1.789,1.547-0.653,1.763
	c21.965,4.188,44.373,4.507,66.663,4.514c9.829,0.003,19.958-1.022,29.746-0.359c9.459,0.641,17.518,8.296,24.351,14.405
	c-1.349,0.725-2.65,1.441-4.323,1.687c-0.623,0.092-1.351,1.036-0.801,1.595c6.39,6.496,12.245,14.617,20.667,18.609
	c0.679,0.322,1.466-0.562,1.389-1.201c-0.832-6.865-5.843-11.433-9.182-17.109c3.92,0.195,9.979-0.098,8.687-4.997
	c-1.371-5.2-7.594-9.585-11.657-13.287c6.367-2.343,14.069-6.512,16.825-12.76C507.784,275.984,498.795,270.625,491.761,268.57z"/>
</svg>
