<?xml version="1.0" encoding="utf-8"?>
<!-- Generator: Adobe Illustrator 17.0.0, SVG Export Plug-In . SVG Version: 6.00 Build 0)  -->
<!DOCTYPE svg PUBLIC "-//W3C//DTD SVG 1.1//EN" "http://www.w3.org/Graphics/SVG/1.1/DTD/svg11.dtd">
<svg version="1.1" id="Слой_1" xmlns="http://www.w3.org/2000/svg" xmlns:xlink="http://www.w3.org/1999/xlink" x="0px" y="0px"
	 width="204px" height="37px" viewBox="307.445 279.14 204 37" enable-background="new 307.445 279.14 204 37" xml:space="preserve"
	>
<g>
	<path d="M323.276,285.722c-6.418,2.722-10.872,10.844-7.045,17.19c0.233,0.386,0.632,0.479,0.915,0.369
		c1.209,5.834,7.907,9.796,13.798,8.628c7.557-1.499,11.58-12.519,10.686-19.272C340.613,284.953,328.969,283.307,323.276,285.722z
		 M340.368,294.547c0.005,4.779-2.595,10.56-6.01,13.81c-6.006,5.715-17.331,0.336-15.86-8.067c0.129-0.736-1.26-1.443-1.42-0.526
		c-0.113,0.647-0.136,1.276-0.119,1.895c-2.503-5.178,1.258-10.729,5.558-13.711C328.313,283.928,340.359,286.151,340.368,294.547z"
		/>
	<path d="M330.878,297.793c0.047-0.034,0.097-0.056,0.144-0.092c1.428-1.108,2.187-3.625,0.356-4.671
		c-1.201-0.686-3.285-0.462-4.603-0.448c-0.547,0.006-1.373-0.026-2.049,0.158c-0.347-0.044-0.838,0.162-1.014,0.566
		c-0.392,0.898-0.222,2.063-0.142,3.011c0.058,0.683,0.099,1.368,0.145,2.052c-0.028,0.133-0.014,0.252,0.025,0.354
		c0.093,1.414,0.187,2.827,0.313,4.236c-0.496,0.381-0.759,1.227-0.054,1.234c2.351,0.023,8.583,0.767,9.065-2.917
		C333.311,299.39,332.309,298.319,330.878,297.793z M324.848,294.098c0.156-0.023,0.313-0.044,0.469-0.058
		c0.507-0.046,1.02-0.041,1.528-0.041c0.768-0.001,1.538,0.021,2.304,0.07c0.714,0.046,1.724,0.159,1.921,1.031
		c0.246,1.088-0.929,1.862-1.787,2.078c-1.331,0.335-2.732,0.169-4.098,0.29C325.049,296.497,324.71,295.163,324.848,294.098z
		 M325.434,302.804c0.02-0.073,0.037-0.147,0.03-0.222c-0.106-1.141-0.1-2.284-0.147-3.425c1.054-0.339,2.411-0.311,3.504-0.34
		c1.269-0.034,2.249,0.737,2.783,1.831C332.702,302.895,327.639,302.875,325.434,302.804z"/>
</g>
<rect x="353.707" y="291.592" fill="none" width="161.661" height="13.62"/>
<g enable-background="new    ">
	<path d="M355.705,292.16c0.12,0.636,0.18,1.332,0.18,2.088c0,0.36-0.016,0.711-0.045,1.053c-0.03,0.343-0.075,0.676-0.135,0.999
		c0.084,0.145,0.174,0.207,0.27,0.189c0.096-0.018,0.198-0.063,0.306-0.135c0.108-0.072,0.219-0.147,0.333-0.226
		c0.114-0.077,0.23-0.11,0.351-0.099c0.36,0.048,0.663,0.18,0.909,0.396c0.246,0.217,0.465,0.472,0.657,0.766
		c0.191,0.294,0.36,0.609,0.504,0.944c0.144,0.337,0.288,0.648,0.432,0.937c-0.024,0.096-0.03,0.204-0.018,0.324
		c0.012,0.12,0.021,0.233,0.027,0.342c0.006,0.108-0.012,0.204-0.054,0.288s-0.129,0.138-0.261,0.162
		c-0.084-0.336-0.18-0.685-0.288-1.044c-0.108-0.36-0.249-0.702-0.423-1.026c-0.174-0.324-0.39-0.608-0.648-0.854
		c-0.258-0.246-0.585-0.424-0.981-0.531c-0.264,0.191-0.471,0.417-0.621,0.675c-0.15,0.258-0.261,0.534-0.333,0.828
		c-0.072,0.294-0.117,0.597-0.135,0.909c-0.018,0.312-0.027,0.624-0.027,0.936c0,0.42-0.036,0.828-0.108,1.224
		c-0.204-0.012-0.331-0.068-0.378-0.171c-0.048-0.102-0.072-0.219-0.072-0.351s0.003-0.271,0.009-0.414
		c0.006-0.144-0.04-0.258-0.135-0.342c0.108-1.272,0.162-2.514,0.162-3.727c0-1.199-0.054-2.441-0.162-3.726
		c0.06-0.036,0.114-0.084,0.162-0.144c0.048-0.061,0.096-0.117,0.144-0.172c0.048-0.054,0.102-0.093,0.162-0.116
		C355.549,292.118,355.621,292.123,355.705,292.16z"/>
	<path d="M362.941,293.6c0,0.084,0.048,0.138,0.144,0.161c0,0.12-0.003,0.265-0.009,0.433c-0.006,0.168-0.009,0.342-0.009,0.521
		c0,0.181,0.009,0.36,0.027,0.54c0.018,0.181,0.057,0.343,0.117,0.486c0.228,0.144,0.477,0.198,0.747,0.162s0.531-0.078,0.783-0.126
		s0.489-0.051,0.711-0.009c0.222,0.042,0.399,0.213,0.531,0.513c-0.216,0.12-0.453,0.198-0.711,0.234
		c-0.258,0.035-0.519,0.071-0.783,0.107c-0.264,0.036-0.516,0.084-0.756,0.145c-0.24,0.06-0.456,0.18-0.648,0.359
		c0.036,0.385,0.066,0.771,0.09,1.161c0.023,0.391,0.078,0.769,0.162,1.134c0.084,0.366,0.222,0.711,0.414,1.035
		s0.474,0.606,0.846,0.846c0.336,0.133,0.657,0.214,0.963,0.243c0.306,0.03,0.612,0.027,0.918-0.009s0.612-0.09,0.918-0.162
		s0.627-0.144,0.963-0.216c0.024,0.324-0.024,0.563-0.144,0.72s-0.273,0.279-0.459,0.369s-0.387,0.171-0.603,0.243
		c-0.216,0.072-0.408,0.18-0.576,0.324c-0.504,0.096-1.008,0.062-1.512-0.1c-0.504-0.161-0.984-0.356-1.44-0.585
		c-0.432-0.695-0.783-1.442-1.053-2.24s-0.333-1.677-0.189-2.638c-0.205-0.18-0.42-0.27-0.648-0.27s-0.456,0.024-0.684,0.072
		c-0.229,0.048-0.457,0.071-0.684,0.071c-0.24,0-0.457-0.09-0.648-0.27c0.072-0.276,0.195-0.474,0.369-0.594
		s0.375-0.195,0.603-0.226c0.228-0.029,0.465-0.039,0.711-0.027c0.246,0.013,0.471,0.013,0.675,0c0.12-0.323,0.18-0.713,0.18-1.17
		c0-0.468-0.06-0.863-0.18-1.188c0.156-0.06,0.294-0.138,0.414-0.234c0.12-0.096,0.27-0.113,0.45-0.054V293.6z"/>
	<path d="M371.094,293.6c0,0.084,0.048,0.138,0.144,0.161c0,0.12-0.003,0.265-0.009,0.433c-0.006,0.168-0.009,0.342-0.009,0.521
		c0,0.181,0.009,0.36,0.027,0.54c0.018,0.181,0.057,0.343,0.117,0.486c0.228,0.144,0.477,0.198,0.747,0.162s0.531-0.078,0.783-0.126
		s0.489-0.051,0.711-0.009c0.222,0.042,0.399,0.213,0.531,0.513c-0.216,0.12-0.453,0.198-0.711,0.234
		c-0.258,0.035-0.519,0.071-0.783,0.107c-0.264,0.036-0.516,0.084-0.756,0.145c-0.24,0.06-0.456,0.18-0.648,0.359
		c0.036,0.385,0.066,0.771,0.09,1.161c0.023,0.391,0.078,0.769,0.162,1.134c0.084,0.366,0.222,0.711,0.414,1.035
		s0.474,0.606,0.846,0.846c0.336,0.133,0.657,0.214,0.963,0.243c0.306,0.03,0.612,0.027,0.918-0.009s0.612-0.09,0.918-0.162
		s0.627-0.144,0.963-0.216c0.024,0.324-0.024,0.563-0.144,0.72s-0.273,0.279-0.459,0.369s-0.387,0.171-0.603,0.243
		c-0.216,0.072-0.408,0.18-0.576,0.324c-0.504,0.096-1.008,0.062-1.512-0.1c-0.504-0.161-0.984-0.356-1.44-0.585
		c-0.432-0.695-0.783-1.442-1.053-2.24s-0.333-1.677-0.189-2.638c-0.205-0.18-0.42-0.27-0.648-0.27s-0.456,0.024-0.684,0.072
		c-0.229,0.048-0.457,0.071-0.684,0.071c-0.24,0-0.457-0.09-0.648-0.27c0.072-0.276,0.195-0.474,0.369-0.594
		s0.375-0.195,0.603-0.226c0.228-0.029,0.465-0.039,0.711-0.027c0.246,0.013,0.471,0.013,0.675,0c0.12-0.323,0.18-0.713,0.18-1.17
		c0-0.468-0.06-0.863-0.18-1.188c0.156-0.06,0.294-0.138,0.414-0.234c0.12-0.096,0.27-0.113,0.45-0.054V293.6z"/>
	<path d="M380.472,296.696c0.108,0.252,0.207,0.507,0.297,0.765c0.09,0.259,0.153,0.517,0.189,0.774
		c0.036,0.258,0.024,0.516-0.036,0.773c-0.061,0.259-0.187,0.514-0.378,0.766c-0.072,0.144-0.16,0.255-0.261,0.333
		c-0.102,0.078-0.207,0.138-0.315,0.18s-0.222,0.081-0.342,0.117s-0.234,0.09-0.342,0.162s-0.216,0.093-0.324,0.062
		c-0.108-0.029-0.207-0.06-0.297-0.09c-0.09-0.029-0.171-0.036-0.243-0.018c-0.072,0.018-0.132,0.104-0.18,0.261
		c0.132,0.54,0.255,1.059,0.369,1.557c0.114,0.498,0.213,0.996,0.297,1.494s0.147,1.005,0.189,1.521
		c0.042,0.516,0.057,1.056,0.045,1.62c-0.144,0.071-0.255,0.081-0.333,0.026c-0.078-0.054-0.138-0.135-0.18-0.243
		c-0.042-0.107-0.081-0.222-0.117-0.342s-0.078-0.216-0.126-0.288c-0.048-0.983-0.174-1.982-0.378-2.997
		c-0.204-1.014-0.378-2.03-0.522-3.051c-0.132-0.216-0.264-0.456-0.396-0.72c-0.132-0.264-0.231-0.537-0.297-0.819
		c-0.066-0.281-0.087-0.561-0.063-0.837c0.024-0.275,0.12-0.54,0.288-0.792c0.144-0.36,0.372-0.618,0.684-0.773
		c0.312-0.156,0.642-0.234,0.99-0.234c0.36,0,0.702,0.072,1.026,0.216C380.04,296.264,380.292,296.455,380.472,296.696z
		 M377.934,296.803c-0.036,0.085-0.087,0.178-0.153,0.279c-0.066,0.103-0.126,0.213-0.18,0.333c-0.054,0.12-0.09,0.243-0.108,0.369
		s0.003,0.261,0.063,0.405c0.06,0.168,0.141,0.336,0.243,0.504c0.102,0.168,0.222,0.324,0.36,0.468
		c0.138,0.145,0.294,0.258,0.468,0.342s0.363,0.12,0.567,0.108c0.18-0.012,0.327-0.06,0.441-0.145
		c0.114-0.083,0.204-0.186,0.27-0.306c0.066-0.12,0.123-0.255,0.171-0.405c0.048-0.149,0.102-0.297,0.162-0.44
		c-0.048-0.324-0.153-0.564-0.315-0.72c-0.162-0.156-0.351-0.273-0.567-0.352c-0.216-0.078-0.45-0.141-0.702-0.188
		S378.162,296.923,377.934,296.803z"/>
	<path d="M386.97,298.352c-0.048,0.168-0.129,0.297-0.243,0.387c-0.114,0.09-0.24,0.15-0.378,0.18
		c-0.138,0.03-0.276,0.033-0.414,0.009c-0.138-0.023-0.249-0.071-0.333-0.144c-0.144-0.06-0.243-0.162-0.297-0.306
		c-0.054-0.145-0.078-0.3-0.072-0.469c0.006-0.167,0.03-0.335,0.072-0.504c0.042-0.168,0.087-0.306,0.135-0.414
		c0.204-0.252,0.438-0.387,0.702-0.404c0.264-0.019,0.495,0.045,0.693,0.188c0.198,0.145,0.324,0.349,0.378,0.612
		C387.267,297.751,387.186,298.039,386.97,298.352z M387.33,293.6c0.024,0.18,0.033,0.362,0.027,0.549
		c-0.006,0.186-0.036,0.354-0.09,0.504c-0.054,0.15-0.135,0.27-0.243,0.36c-0.108,0.09-0.252,0.123-0.432,0.099
		c-0.205,0-0.402-0.078-0.594-0.234c-0.192-0.155-0.324-0.342-0.396-0.558c-0.072-0.204-0.084-0.381-0.036-0.531
		c0.048-0.149,0.123-0.279,0.225-0.387c0.102-0.108,0.216-0.198,0.342-0.271c0.126-0.071,0.237-0.126,0.333-0.162
		c0.072,0.072,0.147,0.12,0.225,0.145s0.156,0.054,0.234,0.09s0.153,0.081,0.225,0.135C387.222,293.393,387.282,293.48,387.33,293.6
		z"/>
	<path d="M397.554,290.629c0.144,0.276,0.177,0.592,0.099,0.945c-0.079,0.354-0.223,0.735-0.432,1.143
		c-0.21,0.408-0.465,0.835-0.765,1.278c-0.3,0.444-0.609,0.897-0.927,1.359c-0.318,0.462-0.618,0.924-0.9,1.386
		c-0.282,0.462-0.507,0.915-0.675,1.359c-0.132,0.348-0.288,0.647-0.468,0.899c-0.18,0.252-0.373,0.498-0.576,0.738
		c-0.204,0.24-0.408,0.492-0.612,0.756s-0.396,0.576-0.576,0.937h-0.72c0.528-0.948,1.038-1.908,1.53-2.881
		c0.492-0.972,0.996-1.923,1.512-2.853s1.059-1.827,1.629-2.691C396.242,292.142,396.87,291.35,397.554,290.629z"/>
	<path d="M405.834,290.629c0.144,0.276,0.177,0.592,0.099,0.945c-0.079,0.354-0.223,0.735-0.432,1.143
		c-0.21,0.408-0.465,0.835-0.765,1.278c-0.3,0.444-0.609,0.897-0.927,1.359c-0.318,0.462-0.618,0.924-0.9,1.386
		c-0.282,0.462-0.507,0.915-0.675,1.359c-0.132,0.348-0.288,0.647-0.468,0.899c-0.18,0.252-0.373,0.498-0.576,0.738
		c-0.204,0.24-0.408,0.492-0.612,0.756s-0.396,0.576-0.576,0.937h-0.72c0.528-0.948,1.038-1.908,1.53-2.881
		c0.492-0.972,0.996-1.923,1.512-2.853s1.059-1.827,1.629-2.691C404.522,292.142,405.15,291.35,405.834,290.629z"/>
	<path d="M416.256,295.868c-0.252,0.636-0.552,1.263-0.9,1.881s-0.729,1.228-1.143,1.827c-0.414,0.601-0.849,1.186-1.305,1.755
		c-0.456,0.57-0.918,1.125-1.386,1.665c-0.456-0.264-0.807-0.585-1.053-0.963c-0.246-0.378-0.468-0.771-0.666-1.179
		c-0.198-0.408-0.42-0.802-0.666-1.18c-0.246-0.378-0.597-0.698-1.053-0.963l-0.054-0.504c0.096,0.036,0.183,0.003,0.261-0.099
		s0.087-0.189,0.027-0.261l-0.054-0.486c0.396,0.216,0.723,0.492,0.981,0.828c0.258,0.336,0.495,0.69,0.711,1.062
		c0.216,0.372,0.438,0.741,0.666,1.107s0.516,0.692,0.864,0.98c0.432-0.288,0.804-0.621,1.116-0.999s0.597-0.773,0.855-1.188
		c0.258-0.414,0.507-0.837,0.747-1.27c0.24-0.432,0.504-0.846,0.792-1.241c0.216-0.108,0.417-0.249,0.603-0.424
		C415.785,296.044,416.004,295.928,416.256,295.868z"/>
	<path d="M418.811,293.24c0.084,0.612,0.147,1.228,0.189,1.845c0.042,0.618,0.159,1.203,0.351,1.755
		c0.3-0.252,0.624-0.485,0.972-0.701c0.348-0.217,0.711-0.402,1.089-0.559c0.378-0.155,0.777-0.27,1.198-0.342
		c0.42-0.072,0.857-0.084,1.313-0.036c0.048,0.288,0.012,0.471-0.107,0.549c-0.12,0.078-0.276,0.117-0.469,0.117
		c-0.191,0-0.39-0.006-0.594-0.018s-0.366,0.035-0.486,0.144c-0.323,0.216-0.65,0.411-0.981,0.585
		c-0.33,0.174-0.651,0.405-0.963,0.693c0.576,0.228,1.089,0.485,1.54,0.773c0.449,0.288,0.854,0.721,1.215,1.296
		c-0.013,0.169,0.029,0.352,0.126,0.55c0.096,0.197,0.191,0.398,0.288,0.603c0.096,0.204,0.158,0.408,0.188,0.612
		s-0.026,0.396-0.171,0.576v0.126c-0.264-0.12-0.492-0.307-0.684-0.559c-0.192-0.252-0.375-0.524-0.549-0.818
		c-0.175-0.294-0.346-0.588-0.514-0.883c-0.168-0.294-0.363-0.549-0.585-0.765c-0.222-0.216-0.48-0.372-0.774-0.468
		c-0.294-0.096-0.646-0.084-1.053,0.036l0.432,4.716c-0.084,0.096-0.156,0.204-0.216,0.324c-0.061,0.119-0.168,0.191-0.324,0.216
		c-0.144-0.805-0.258-1.626-0.342-2.466c-0.084-0.84-0.165-1.684-0.243-2.529s-0.168-1.686-0.27-2.521
		c-0.102-0.833-0.243-1.646-0.423-2.438h-0.108c0-0.156,0.002-0.312,0.009-0.468c0.006-0.156,0.093-0.282,0.261-0.378
		c0.083-0.024,0.156-0.021,0.216,0.009s0.111,0.069,0.153,0.117s0.087,0.102,0.135,0.162
		C418.679,293.156,418.739,293.203,418.811,293.24z"/>
	<path d="M427.469,299.846c0.12,0.168,0.165,0.32,0.135,0.459c-0.03,0.138-0.099,0.264-0.207,0.378
		c-0.107,0.114-0.233,0.222-0.378,0.323c-0.144,0.103-0.27,0.207-0.378,0.315c-0.156,0.084-0.306,0.108-0.45,0.072
		c-0.144-0.036-0.281-0.103-0.414-0.198c-0.132-0.096-0.255-0.213-0.368-0.352c-0.114-0.138-0.22-0.267-0.315-0.387
		c0.024-0.107,0.051-0.222,0.081-0.342c0.029-0.12,0.072-0.228,0.126-0.324c0.054-0.096,0.126-0.174,0.216-0.233
		c0.09-0.061,0.207-0.091,0.352-0.091c0.312-0.048,0.588-0.023,0.827,0.072C426.935,299.636,427.193,299.738,427.469,299.846z"/>
	<path d="M432.996,297.001c-0.252,0.036-0.492,0.016-0.72-0.062c-0.229-0.078-0.447-0.138-0.657-0.181
		c-0.21-0.041-0.399-0.026-0.567,0.045c-0.168,0.072-0.312,0.276-0.432,0.612c-0.145,0.204-0.237,0.414-0.279,0.63
		s-0.054,0.433-0.036,0.648c0.019,0.216,0.048,0.438,0.09,0.666s0.069,0.456,0.081,0.684c0.217,0.192,0.424,0.285,0.621,0.279
		c0.198-0.006,0.399-0.045,0.604-0.117s0.411-0.146,0.621-0.225s0.435-0.093,0.675-0.045c-0.072,0.18-0.18,0.333-0.324,0.459
		c-0.144,0.126-0.306,0.23-0.486,0.314c-0.18,0.084-0.372,0.147-0.575,0.189c-0.204,0.042-0.396,0.062-0.576,0.062
		c-0.168,0.036-0.321,0.039-0.459,0.01c-0.139-0.03-0.265-0.084-0.378-0.162c-0.114-0.078-0.214-0.174-0.297-0.288
		c-0.085-0.114-0.15-0.226-0.198-0.333c-0.216-0.721-0.226-1.425-0.027-2.115s0.549-1.263,1.053-1.719
		c0.168-0.12,0.352-0.198,0.55-0.234c0.197-0.036,0.398-0.036,0.603,0s0.402,0.099,0.594,0.189c0.192,0.09,0.366,0.201,0.522,0.333
		V297.001z"/>
	<path d="M439.332,297.829c0.119,0.252,0.197,0.507,0.233,0.765c0.036,0.259,0.036,0.514,0,0.766s-0.099,0.498-0.188,0.738
		c-0.091,0.24-0.195,0.468-0.315,0.684c-0.24,0.24-0.498,0.483-0.773,0.729c-0.276,0.246-0.567,0.444-0.873,0.595
		c-0.307,0.149-0.621,0.236-0.945,0.261c-0.324,0.023-0.648-0.066-0.972-0.27c-0.385-0.276-0.628-0.676-0.729-1.197
		c-0.102-0.522-0.129-1.047-0.081-1.575c-0.012-0.18,0.015-0.363,0.081-0.549c0.065-0.187,0.156-0.363,0.271-0.531
		c0.113-0.168,0.239-0.327,0.378-0.477c0.138-0.15,0.267-0.273,0.387-0.369c0.216,0.107,0.405,0.107,0.567,0
		c0.161-0.108,0.32-0.234,0.477-0.378c0.156-0.145,0.321-0.262,0.495-0.352s0.381-0.057,0.621,0.1
		c0.264,0.035,0.516,0.168,0.756,0.396C438.96,297.392,439.163,297.614,439.332,297.829z M437.243,297.883
		c-0.096,0.181-0.2,0.363-0.314,0.55c-0.114,0.186-0.178,0.368-0.189,0.549c0,0.132-0.026,0.246-0.081,0.342
		c-0.054,0.096-0.12,0.168-0.197,0.216c-0.078,0.048-0.162,0.066-0.252,0.054c-0.091-0.012-0.178-0.065-0.262-0.161
		c-0.023-0.156-0.057-0.33-0.099-0.522c-0.042-0.191-0.021-0.366,0.062-0.521l-0.233,0.035c-0.36,0.589-0.534,1.213-0.522,1.872
		c0.084,0.097,0.156,0.21,0.217,0.343c0.06,0.132,0.126,0.261,0.197,0.387c0.072,0.126,0.156,0.24,0.252,0.342
		c0.097,0.103,0.223,0.171,0.378,0.207c0.217,0.061,0.462,0.069,0.738,0.027s0.516-0.129,0.72-0.262
		c0.145-0.18,0.291-0.368,0.441-0.566c0.149-0.198,0.282-0.411,0.396-0.64c0.114-0.228,0.201-0.465,0.262-0.711
		c0.06-0.245,0.078-0.507,0.054-0.782c-0.012-0.181-0.075-0.349-0.188-0.505c-0.114-0.155-0.25-0.278-0.405-0.368
		c-0.156-0.091-0.321-0.132-0.495-0.126S437.387,297.728,437.243,297.883z"/>
	<path d="M443.156,295.705c-0.042,0.108-0.081,0.21-0.117,0.306c-0.035,0.097-0.045,0.189-0.026,0.279
		c0.018,0.09,0.104,0.178,0.261,0.261c0.312-0.144,0.645-0.254,0.999-0.333c0.354-0.077,0.735-0.099,1.143-0.062
		c0.156,0.096,0.282,0.207,0.379,0.333c0.096,0.126,0.18,0.261,0.252,0.405c0.071,0.144,0.141,0.288,0.207,0.432
		c0.065,0.144,0.146,0.282,0.242,0.414c0.372-0.576,0.867-1.008,1.485-1.296s1.269-0.348,1.953-0.18
		c0.252,0.252,0.438,0.546,0.558,0.882s0.195,0.689,0.226,1.062c0.029,0.372,0.029,0.747,0,1.125
		c-0.03,0.378-0.069,0.735-0.117,1.071c-0.18,0.216-0.31,0.489-0.387,0.819c-0.078,0.33-0.172,0.642-0.279,0.936
		c-0.108,0.294-0.268,0.534-0.478,0.72c-0.21,0.187-0.53,0.243-0.963,0.171c0.181-0.407,0.388-0.818,0.621-1.232
		c0.234-0.414,0.438-0.837,0.612-1.27c0.174-0.432,0.291-0.879,0.351-1.341c0.061-0.462,0.012-0.951-0.144-1.467
		c-0.072-0.06-0.129-0.138-0.171-0.234c-0.042-0.096-0.088-0.188-0.135-0.278c-0.049-0.091-0.108-0.165-0.181-0.226
		c-0.072-0.06-0.168-0.084-0.288-0.071c-0.408-0.024-0.737,0.057-0.989,0.242c-0.253,0.187-0.466,0.421-0.64,0.702
		c-0.174,0.282-0.327,0.582-0.459,0.9s-0.288,0.591-0.468,0.818c0.048,0.192,0.036,0.379-0.036,0.559s-0.171,0.357-0.297,0.531
		s-0.258,0.348-0.396,0.521c-0.138,0.174-0.242,0.352-0.314,0.531c-0.18,0.036-0.297,0.012-0.352-0.072
		c-0.054-0.084-0.08-0.186-0.08-0.306c0-0.132,0.021-0.268,0.062-0.405s0.069-0.236,0.081-0.297
		c0.563-0.792,0.786-1.716,0.666-2.772c-0.229-0.407-0.543-0.659-0.945-0.756c-0.402-0.096-0.789-0.065-1.161,0.09
		c-0.359,0.156-0.663,0.36-0.908,0.612c-0.246,0.252-0.457,0.531-0.631,0.837c-0.174,0.307-0.314,0.63-0.423,0.973
		c-0.107,0.342-0.204,0.681-0.288,1.017c-0.132,0.061-0.233,0.051-0.306-0.027c-0.072-0.077-0.156-0.152-0.252-0.225
		c0.168-0.456,0.306-0.927,0.414-1.413s0.228-0.966,0.36-1.44c0.132-0.474,0.29-0.936,0.477-1.386
		c0.186-0.45,0.435-0.86,0.747-1.232l0.144,0.414C443.201,295.478,443.198,295.598,443.156,295.705z"/>
	<path d="M458.447,290.629c0.145,0.276,0.177,0.592,0.1,0.945c-0.079,0.354-0.223,0.735-0.433,1.143
		c-0.21,0.408-0.465,0.835-0.765,1.278c-0.301,0.444-0.609,0.897-0.927,1.359c-0.318,0.462-0.618,0.924-0.9,1.386
		s-0.507,0.915-0.675,1.359c-0.133,0.348-0.288,0.647-0.468,0.899c-0.181,0.252-0.373,0.498-0.576,0.738
		c-0.204,0.24-0.408,0.492-0.612,0.756s-0.396,0.576-0.576,0.937h-0.72c0.527-0.948,1.038-1.908,1.53-2.881
		c0.491-0.972,0.995-1.923,1.512-2.853c0.516-0.93,1.059-1.827,1.629-2.691C457.135,292.142,457.763,291.35,458.447,290.629z"/>
	<path d="M462.443,292.646c0.204,0.708,0.375,1.452,0.513,2.231c0.138,0.78,0.255,1.566,0.352,2.358
		c0.096,0.792,0.171,1.578,0.225,2.357c0.054,0.78,0.099,1.524,0.135,2.232c-0.036,0.084-0.096,0.129-0.18,0.135
		s-0.162,0.009-0.234,0.009c-0.24-0.155-0.381-0.342-0.423-0.558s-0.051-0.44-0.027-0.675c0.024-0.234,0.055-0.468,0.091-0.702
		c0.035-0.234,0.006-0.447-0.091-0.639c-0.144-0.648-0.267-1.314-0.368-1.998c-0.103-0.685-0.207-1.362-0.315-2.034
		s-0.237-1.326-0.387-1.962c-0.15-0.636-0.346-1.23-0.585-1.782c-0.108-0.048-0.162-0.114-0.162-0.198
		c0-0.107,0.042-0.219,0.126-0.333c0.084-0.113,0.126-0.225,0.126-0.333c0.264,0.013,0.453,0.088,0.566,0.226
		c0.114,0.138,0.201,0.306,0.262,0.504c0.06,0.198,0.11,0.402,0.152,0.612S462.335,292.49,462.443,292.646z"/>
	<path d="M467.843,294.572c-0.085,0.72-0.16,1.35-0.226,1.89c-0.066,0.54-0.126,1.054-0.18,1.539
		c-0.055,0.486-0.1,0.979-0.135,1.477c-0.036,0.498-0.066,1.059-0.091,1.683l-0.575,0.126c-0.085-0.684-0.156-1.269-0.217-1.755
		c-0.06-0.486-0.09-0.951-0.09-1.396c0-0.455,0.039-0.92,0.117-1.395c0.078-0.474,0.207-1.022,0.387-1.647
		c0.048-0.096,0.12-0.158,0.216-0.188c0.097-0.03,0.192-0.054,0.288-0.072c0.097-0.018,0.192-0.042,0.288-0.072
		C467.723,294.731,467.795,294.667,467.843,294.572z M468.401,291.62c0.144,0.36,0.123,0.705-0.063,1.035
		c-0.186,0.33-0.429,0.609-0.729,0.837c-0.097,0.072-0.171,0.103-0.226,0.09c-0.054-0.012-0.099-0.042-0.135-0.09
		s-0.071-0.104-0.107-0.171c-0.036-0.065-0.078-0.117-0.126-0.153c-0.169-0.336-0.159-0.647,0.026-0.936
		c0.187-0.288,0.411-0.54,0.675-0.756c0.048-0.012,0.111-0.027,0.189-0.045c0.078-0.019,0.15-0.024,0.216-0.019
		c0.066,0.006,0.126,0.024,0.181,0.054C468.356,291.496,468.389,291.547,468.401,291.62z"/>
	<path d="M471.785,296.587c0.18-0.275,0.417-0.438,0.711-0.485s0.597-0.072,0.909-0.072c0.18,0.036,0.371,0.072,0.576,0.108
		c0.203,0.035,0.396,0.09,0.575,0.161c0.181,0.072,0.345,0.172,0.495,0.298s0.268,0.297,0.352,0.513
		c0.107,0.624,0.149,1.209,0.126,1.755c-0.024,0.546-0.03,1.119-0.019,1.719c-0.156,0.168-0.252,0.378-0.288,0.63
		s-0.081,0.495-0.135,0.729c-0.054,0.233-0.15,0.426-0.288,0.576c-0.138,0.149-0.381,0.207-0.729,0.171
		c-0.084-0.433-0.061-0.853,0.071-1.26c0.132-0.408,0.276-0.819,0.433-1.233c0.155-0.414,0.272-0.84,0.351-1.278
		c0.078-0.438,0.015-0.909-0.188-1.413c-0.192-0.216-0.396-0.396-0.612-0.54c-0.216-0.144-0.456-0.233-0.72-0.27
		c-0.408,0-0.735,0.066-0.981,0.198s-0.432,0.306-0.558,0.521s-0.204,0.472-0.234,0.766s-0.042,0.6-0.036,0.918
		c0.006,0.317,0.024,0.645,0.055,0.98c0.029,0.336,0.045,0.654,0.045,0.954c0,0.384-0.061,0.714-0.181,0.99
		c-0.312-0.192-0.507-0.456-0.585-0.792s-0.114-0.696-0.107-1.08c0.006-0.384,0.021-0.766,0.045-1.144
		c0.023-0.378-0.019-0.704-0.126-0.98c0.144-0.192,0.194-0.417,0.152-0.675s-0.084-0.507-0.126-0.747s-0.045-0.459-0.009-0.657
		s0.204-0.339,0.504-0.423c0.108,0.06,0.174,0.138,0.198,0.233c0.024,0.097,0.039,0.195,0.045,0.298
		c0.006,0.102,0.024,0.2,0.054,0.297C471.59,296.45,471.665,296.528,471.785,296.587z"/>
	<path d="M482.369,297.829c0.119,0.252,0.197,0.507,0.233,0.765c0.036,0.259,0.036,0.514,0,0.766s-0.099,0.498-0.188,0.738
		c-0.091,0.24-0.195,0.468-0.315,0.684c-0.24,0.24-0.498,0.483-0.773,0.729c-0.276,0.246-0.567,0.444-0.873,0.595
		c-0.307,0.149-0.621,0.236-0.945,0.261c-0.324,0.023-0.648-0.066-0.972-0.27c-0.385-0.276-0.628-0.676-0.729-1.197
		c-0.102-0.522-0.129-1.047-0.081-1.575c-0.012-0.18,0.015-0.363,0.081-0.549c0.065-0.187,0.156-0.363,0.271-0.531
		c0.113-0.168,0.239-0.327,0.378-0.477c0.138-0.15,0.267-0.273,0.387-0.369c0.216,0.107,0.405,0.107,0.567,0
		c0.161-0.108,0.32-0.234,0.477-0.378c0.156-0.145,0.321-0.262,0.495-0.352s0.381-0.057,0.621,0.1
		c0.264,0.035,0.516,0.168,0.756,0.396C481.997,297.392,482.2,297.614,482.369,297.829z M480.28,297.883
		c-0.096,0.181-0.2,0.363-0.314,0.55c-0.114,0.186-0.178,0.368-0.189,0.549c0,0.132-0.026,0.246-0.081,0.342
		c-0.054,0.096-0.12,0.168-0.197,0.216c-0.078,0.048-0.162,0.066-0.252,0.054c-0.091-0.012-0.178-0.065-0.262-0.161
		c-0.023-0.156-0.057-0.33-0.099-0.522c-0.042-0.191-0.021-0.366,0.062-0.521l-0.233,0.035c-0.36,0.589-0.534,1.213-0.522,1.872
		c0.084,0.097,0.156,0.21,0.217,0.343c0.06,0.132,0.126,0.261,0.197,0.387c0.072,0.126,0.156,0.24,0.252,0.342
		c0.097,0.103,0.223,0.171,0.378,0.207c0.217,0.061,0.462,0.069,0.738,0.027s0.516-0.129,0.72-0.262
		c0.145-0.18,0.291-0.368,0.441-0.566c0.149-0.198,0.282-0.411,0.396-0.64c0.114-0.228,0.201-0.465,0.262-0.711
		c0.06-0.245,0.078-0.507,0.054-0.782c-0.012-0.181-0.075-0.349-0.188-0.505c-0.114-0.155-0.25-0.278-0.405-0.368
		c-0.156-0.091-0.321-0.132-0.495-0.126S480.424,297.728,480.28,297.883z"/>
	<path d="M489.37,301.646c-0.168,0.132-0.314,0.228-0.44,0.288c-0.126,0.06-0.219,0.102-0.279,0.126h-0.018h-0.036
		c-0.108-0.217-0.276-0.337-0.504-0.36c-0.229-0.023-0.478-0.018-0.747,0.018c-0.271,0.036-0.531,0.069-0.783,0.1
		c-0.252,0.029-0.456-0.009-0.612-0.117c-0.312-0.168-0.573-0.387-0.782-0.657c-0.211-0.27-0.369-0.561-0.478-0.873
		c-0.107-0.312-0.174-0.636-0.198-0.972c-0.023-0.336-0.012-0.654,0.036-0.954c0.12-0.275,0.282-0.516,0.486-0.72
		s0.474-0.36,0.81-0.468c0.517-0.048,0.934-0.003,1.251,0.135c0.318,0.138,0.633,0.351,0.945,0.639c0-0.132-0.009-0.306-0.027-0.521
		c-0.018-0.217-0.054-0.447-0.107-0.693s-0.133-0.489-0.234-0.729c-0.102-0.239-0.243-0.449-0.423-0.63
		c-0.084-0.071-0.219-0.132-0.405-0.18c-0.186-0.048-0.384-0.093-0.594-0.135s-0.408-0.084-0.594-0.126
		c-0.187-0.042-0.321-0.093-0.405-0.153c-0.096-0.084-0.129-0.174-0.099-0.27c0.029-0.097,0.104-0.184,0.225-0.262
		c0.12-0.077,0.272-0.135,0.459-0.171s0.387-0.036,0.604,0c0.216,0,0.429,0.033,0.639,0.1c0.21,0.065,0.411,0.162,0.603,0.288
		c0.192,0.126,0.363,0.285,0.514,0.477c0.149,0.192,0.261,0.414,0.333,0.666c-0.013,0.288,0.003,0.684,0.045,1.188
		c0.042,0.505,0.102,1.048,0.18,1.63s0.174,1.167,0.288,1.755S489.25,301.177,489.37,301.646z M485.158,299.144
		c0.072,0.191,0.162,0.411,0.271,0.656c0.107,0.246,0.243,0.472,0.405,0.676c0.161,0.204,0.354,0.366,0.575,0.485
		c0.223,0.12,0.489,0.156,0.802,0.108c0-0.048,0.071-0.081,0.216-0.099c0.144-0.019,0.239-0.039,0.288-0.063l0.216-0.432
		c0.06-0.229,0.099-0.414,0.117-0.559c0.018-0.144,0.018-0.27,0-0.378c-0.019-0.107-0.052-0.222-0.1-0.342s-0.107-0.276-0.18-0.468
		c-0.204-0.3-0.492-0.522-0.864-0.666c-0.372-0.145-0.744-0.204-1.115-0.181c-0.205,0.133-0.346,0.315-0.424,0.55
		C485.287,298.666,485.218,298.904,485.158,299.144z"/>
	<path d="M492.762,294.068c-0.029,0.12,0.021,0.21,0.153,0.27c0.372-0.144,0.765-0.252,1.179-0.323
		c0.414-0.072,0.819-0.094,1.216-0.063c0.396,0.03,0.773,0.12,1.134,0.271c0.359,0.149,0.678,0.375,0.954,0.675
		c0.06,0.071,0.074,0.135,0.045,0.188c-0.03,0.055-0.066,0.103-0.108,0.145s-0.069,0.09-0.081,0.144s0.036,0.117,0.145,0.189
		c-0.24,0.096-0.466,0.126-0.676,0.09s-0.414-0.1-0.611-0.189c-0.198-0.09-0.394-0.191-0.585-0.306
		c-0.192-0.114-0.391-0.207-0.595-0.279c-0.204-0.071-0.417-0.104-0.639-0.099s-0.459,0.081-0.711,0.225
		c-0.3,0.061-0.534,0.162-0.702,0.307c-0.168,0.144-0.297,0.312-0.387,0.504c-0.09,0.191-0.15,0.404-0.18,0.639
		c-0.03,0.234-0.061,0.468-0.091,0.702c-0.029,0.234-0.068,0.462-0.116,0.684c-0.049,0.223-0.133,0.423-0.252,0.604
		c-0.024,0.24-0.027,0.489-0.01,0.747c0.019,0.258,0.016,0.51-0.009,0.756s-0.09,0.468-0.198,0.666
		c-0.107,0.198-0.306,0.357-0.594,0.477c-0.156-0.432-0.213-0.854-0.171-1.269s0.117-0.831,0.225-1.251
		c0.108-0.42,0.21-0.846,0.307-1.278c0.096-0.432,0.113-0.888,0.054-1.368c0.132-0.18,0.207-0.404,0.225-0.675
		c0.019-0.27,0.042-0.531,0.072-0.783s0.093-0.477,0.189-0.675c0.096-0.198,0.288-0.32,0.576-0.369l0.252,0.271
		C492.796,293.822,492.793,293.948,492.762,294.068z"/>
	<path d="M499.99,293.6c0,0.084,0.048,0.138,0.144,0.161c0,0.12-0.003,0.265-0.009,0.433s-0.009,0.342-0.009,0.521
		c0,0.181,0.009,0.36,0.027,0.54c0.018,0.181,0.057,0.343,0.116,0.486c0.229,0.144,0.478,0.198,0.747,0.162
		c0.271-0.036,0.531-0.078,0.783-0.126s0.489-0.051,0.711-0.009s0.399,0.213,0.531,0.513c-0.216,0.12-0.453,0.198-0.711,0.234
		c-0.259,0.035-0.52,0.071-0.783,0.107s-0.516,0.084-0.756,0.145c-0.24,0.06-0.456,0.18-0.648,0.359
		c0.036,0.385,0.066,0.771,0.091,1.161c0.023,0.391,0.077,0.769,0.161,1.134c0.084,0.366,0.223,0.711,0.414,1.035
		c0.192,0.324,0.475,0.606,0.847,0.846c0.336,0.133,0.656,0.214,0.963,0.243c0.306,0.03,0.611,0.027,0.918-0.009
		c0.306-0.036,0.611-0.09,0.918-0.162c0.306-0.072,0.627-0.144,0.963-0.216c0.023,0.324-0.024,0.563-0.145,0.72
		s-0.272,0.279-0.459,0.369c-0.186,0.09-0.387,0.171-0.603,0.243s-0.408,0.18-0.576,0.324c-0.504,0.096-1.008,0.062-1.512-0.1
		c-0.504-0.161-0.984-0.356-1.44-0.585c-0.432-0.695-0.782-1.442-1.053-2.24c-0.27-0.798-0.333-1.677-0.188-2.638
		c-0.205-0.18-0.421-0.27-0.648-0.27c-0.229,0-0.456,0.024-0.684,0.072c-0.229,0.048-0.457,0.071-0.685,0.071
		c-0.24,0-0.456-0.09-0.647-0.27c0.071-0.276,0.194-0.474,0.368-0.594s0.375-0.195,0.604-0.226c0.228-0.029,0.465-0.039,0.711-0.027
		c0.246,0.013,0.471,0.013,0.675,0c0.12-0.323,0.18-0.713,0.18-1.17c0-0.468-0.06-0.863-0.18-1.188
		c0.156-0.06,0.294-0.138,0.414-0.234c0.12-0.096,0.271-0.113,0.45-0.054V293.6z"/>
</g>
</svg>
