<?xml version="1.0" encoding="utf-8"?>
<!-- Generator: Adobe Illustrator 17.0.0, SVG Export Plug-In . SVG Version: 6.00 Build 0)  -->
<!DOCTYPE svg PUBLIC "-//W3C//DTD SVG 1.1//EN" "http://www.w3.org/Graphics/SVG/1.1/DTD/svg11.dtd">
<svg version="1.1" id="Слой_1" xmlns="http://www.w3.org/2000/svg" xmlns:xlink="http://www.w3.org/1999/xlink" x="0px" y="0px"
	 width="115px" height="37px" viewBox="361.445 279.14 115 37" enable-background="new 361.445 279.14 115 37" xml:space="preserve"
	>
<path d="M395.262,307.207c-0.2-2.159-0.101-4.296-0.172-6.461c-0.077-2.347,0.287-4.589-0.104-6.915
	c-0.245-1.457-0.45-2.917-0.148-4.382c0.108-0.525,0.345-1.326,0.227-1.868c-0.645-2.953-4.779-2.153-7.045-2.144
	c-5.301,0.022-10.608,0.121-15.907,0.138c-0.736,0.002-1.435,1.423-0.526,1.42c6.65-0.022,13.229-0.317,19.893-0.121
	c3.058,0.09,1.83,3.276,1.78,4.78c-0.044,1.331,0.326,2.734,0.545,4.039c0.48,2.857-0.373,6.421-0.201,9.313
	c0.076,1.282,0.658,3.242-1.305,3.171c-1.89-0.068-3.772-0.062-5.663-0.031c-3.696,0.059-7.475,0.043-11.15-0.371
	c-4.3-0.485-2.964-5.005-2.819-8.09c0.169-3.602-0.896-7.31-0.17-10.905c0.197-0.975-1.245-0.491-1.394,0.245
	c-0.928,4.598,0.484,9.478-0.201,14.145c-0.213,1.45-0.231,5.27,1.701,5.727c4.257,1.007,9.158,0.73,13.507,0.669
	c2.46-0.035,7.006,1.157,8.873-0.974C395.322,308.204,395.308,307.708,395.262,307.207z"/>
<path d="M389.62,295.981c-0.324-0.486-1-0.768-1.497-1.041c-1.4-0.769-2.624-1.793-3.988-2.623c-1.287-0.784-5.135-2.658-6.378-1.12
	c-0.297,0.367-0.226,0.722-0.009,0.907c-0.437,2.758-0.099,5.349,0.036,8.138c0.072,1.494-0.411,4.323,1.265,5.084
	c1.008,0.458,3.58-1.169,4.31-1.687c2.15-1.527,3.667-3.71,5.714-5.37C389.861,297.628,390.205,296.858,389.62,295.981z
	 M388.101,297.707c-0.393,0.332-0.814,0.623-1.201,0.964c-1.25,1.1-2.11,2.546-3.393,3.638c-1.771,1.507-4.398,2.59-4.573-0.681
	c-0.169-3.158-0.469-6.31-0.552-9.474c0.102-0.051,0.203-0.121,0.296-0.236c0.266-0.327,4.489,1.625,5.173,2.035
	c1.085,0.651,2.059,1.465,3.184,2.051C387.51,296.252,389.229,296.756,388.101,297.707z"/>
<g>
	<g>
		<path d="M409.35,300.594c-0.403,0.069-0.787,0.122-1.155,0.156c-0.367,0.036-0.725,0.069-1.072,0.105
			c-0.347,0.034-0.694,0.08-1.04,0.135c-0.347,0.054-0.708,0.139-1.082,0.249c-0.098-0.014-0.191,0.014-0.281,0.083
			c-0.091,0.069-0.181,0.135-0.271,0.198s-0.185,0.09-0.281,0.083s-0.208-0.1-0.334-0.281c0.112-1.179,0.195-2.337,0.251-3.475
			s0.076-2.316,0.063-3.537c0-0.401,0.007-0.711,0.02-0.926s0.02-0.405,0.02-0.572c0-0.179-0.007-0.378-0.02-0.593
			s-0.042-0.53-0.083-0.947l-0.251,0.125c0.029-0.222,0.052-0.43,0.073-0.625c0.022-0.193,0.056-0.361,0.105-0.5
			s0.132-0.249,0.249-0.332c0.119-0.085,0.281-0.125,0.489-0.125c0.125,0.874,0.212,1.626,0.261,2.257
			c0.047,0.632,0.08,1.234,0.093,1.81s0.014,1.162,0,1.759c-0.014,0.596-0.02,1.297-0.02,2.101
			c-0.083,0.804-0.146,1.643-0.188,2.516c0.374-0.083,0.728-0.146,1.062-0.186c0.332-0.042,0.672-0.083,1.019-0.125
			c0.347-0.041,0.698-0.083,1.05-0.125c0.354-0.041,0.74-0.103,1.155-0.186c0.112,0.152,0.208,0.312,0.293,0.478
			C409.559,300.282,409.516,300.442,409.35,300.594z"/>
		<path d="M415.612,301.927c-0.056-0.112-0.186-0.161-0.395-0.146c-0.208,0.014-0.434,0.047-0.677,0.103
			c-0.242,0.056-0.471,0.119-0.686,0.188s-0.364,0.103-0.447,0.103c-0.056-0.014-0.139-0.02-0.251-0.02
			c-0.11,0-0.195-0.007-0.249-0.022c-0.042-0.014-0.108-0.003-0.198,0.032c-0.09,0.034-0.188,0.069-0.291,0.103
			c-0.103,0.036-0.198,0.059-0.281,0.073s-0.139,0-0.166-0.041c-0.208-0.152-0.34-0.284-0.396-0.396
			c-0.056-0.11-0.117-0.284-0.186-0.52c0.054,0,0.139-0.014,0.249-0.042c0.112-0.027,0.222-0.054,0.334-0.083
			c0.11-0.027,0.218-0.047,0.322-0.063c0.105-0.014,0.185-0.007,0.24,0.022c0.152,0.069,0.305,0.063,0.457-0.022
			c0.152-0.083,0.347-0.193,0.583-0.332c-0.029-0.625-0.063-1.201-0.103-1.727c-0.042-0.527-0.088-1.03-0.135-1.509
			c-0.049-0.479-0.108-0.947-0.178-1.404c-0.069-0.459-0.146-0.923-0.229-1.395v-3.266c-0.042-0.097-0.122-0.149-0.239-0.156
			c-0.119-0.007-0.251,0.003-0.396,0.03c-0.146,0.029-0.291,0.066-0.437,0.115s-0.268,0.086-0.364,0.115l-0.271,0.061
			c-0.152,0.042-0.301,0.066-0.447,0.073c-0.146,0.008-0.268-0.086-0.364-0.279c-0.027-0.042-0.024-0.069,0.01-0.085
			c0.036-0.014,0.073-0.024,0.115-0.03c0.042-0.007,0.08-0.02,0.115-0.042c0.034-0.02,0.037-0.051,0.01-0.093
			c-0.098-0.11-0.146-0.222-0.146-0.334c0.345-0.083,0.693-0.169,1.04-0.259s0.735-0.163,1.165-0.218l0.083-0.457
			c0.042,0.014,0.112,0.02,0.208,0.02c0.112,0,0.188,0.007,0.229,0.02c0.085,0.014,0.157,0.036,0.218,0.063
			c0.063,0.027,0.122,0.09,0.178,0.188c0.235,0.096,0.464,0.127,0.686,0.093c0.222-0.036,0.45-0.066,0.688-0.093
			c0.193-0.029,0.364-0.025,0.51,0.01c0.146,0.034,0.268,0.135,0.364,0.301c0.014,0.097,0.03,0.169,0.052,0.218
			c0.02,0.049,0.044,0.093,0.073,0.135c0.027,0.041,0.051,0.086,0.073,0.135c0.02,0.047,0.037,0.113,0.051,0.196
			c-0.139,0.112-0.339,0.168-0.603,0.168c-0.152-0.014-0.308-0.036-0.467-0.063c-0.161-0.029-0.317-0.049-0.469-0.063
			c-0.347-0.042-0.621,0.093-0.821,0.406c-0.202,0.312-0.234,0.779-0.095,1.404l0.085,1.124c-0.029,0.222-0.052,0.388-0.073,0.498
			c-0.022,0.112-0.032,0.208-0.032,0.291c0,0.085,0.01,0.171,0.032,0.261c0.02,0.09,0.051,0.232,0.093,0.427l0.249,1.124
			c0.029,0.193,0.049,0.388,0.063,0.582c0.014,0.193,0.036,0.388,0.063,0.583c0.056,0.457,0.097,0.914,0.125,1.373
			c0.014,0.235,0.034,0.471,0.063,0.706c0.027,0.237,0.083,0.479,0.166,0.73c0.208,0.069,0.395,0.103,0.562,0.103h0.415
			c0.069,0,0.171,0,0.303,0c0.13,0,0.269,0,0.415,0s0.278,0.01,0.396,0.03c0.117,0.022,0.198,0.052,0.239,0.095
			c-0.027,0.097-0.069,0.195-0.125,0.291c-0.054,0.097-0.061,0.18-0.02,0.249c0,0.014-0.024,0.029-0.073,0.042
			s-0.103,0.027-0.166,0.041c-0.063,0.015-0.119,0.029-0.166,0.042c-0.049,0.014-0.073,0.027-0.073,0.042
			c0.014,0.027-0.005,0.037-0.052,0.03c-0.049-0.007-0.105-0.017-0.166-0.03c-0.063-0.015-0.125-0.029-0.188-0.042
			s-0.102-0.014-0.115,0L415.612,301.927z"/>
		<path d="M426.807,293.27c-0.056,0.305-0.097,0.627-0.125,0.967c-0.027,0.34-0.076,0.781-0.146,1.321
			c-0.124,1.082-0.242,2.157-0.352,3.226c-0.112,1.069-0.284,2.144-0.522,3.226c-0.139,0.069-0.256,0.173-0.354,0.312l-0.103,0.083
			c-0.042,0.042-0.093,0.066-0.156,0.073s-0.164-0.024-0.301-0.093c-0.112-0.764-0.281-1.502-0.51-2.217
			c-0.23-0.715-0.489-1.426-0.781-2.132c-0.291-0.708-0.598-1.426-0.916-2.154s-0.659-1.551-1.019-2.466
			c-0.139,1.165-0.334,2.22-0.582,3.163c-0.251,0.943-0.506,1.871-0.77,2.787c-0.262,0.916-0.51,1.839-0.738,2.767
			c-0.229,0.93-0.378,1.88-0.447,2.852l-0.291,0.208c-0.056,0.027-0.112,0.058-0.166,0.093c-0.056,0.034-0.119,0.086-0.188,0.156
			c-0.195-0.152-0.337-0.301-0.427-0.447s-0.1-0.288-0.03-0.427c0.361-1.207,0.665-2.42,0.914-3.641
			c0.251-1.221,0.489-2.445,0.718-3.673c0.229-1.228,0.461-2.455,0.698-3.683c0.235-1.228,0.52-2.459,0.853-3.693
			c0.152-0.097,0.291-0.135,0.415-0.115c0.125,0.02,0.208,0.08,0.251,0.178c0.152,0.235,0.229,0.457,0.229,0.665
			c0,0.112,0,0.225,0,0.344c0,0.117,0.007,0.232,0.02,0.342c0,0.181,0.022,0.354,0.063,0.522c0.152,0.665,0.347,1.301,0.583,1.903
			c0.235,0.603,0.486,1.218,0.75,1.841c0.262,0.625,0.533,1.253,0.811,1.883c0.278,0.632,0.554,1.363,0.831,2.196
			c0.208-1.082,0.367-2.074,0.479-2.975c0.11-0.903,0.222-1.797,0.334-2.684c0.069-0.445,0.11-0.787,0.124-1.031
			c0.014-0.242,0.036-0.467,0.063-0.676c0.029-0.195,0.08-0.41,0.156-0.645s0.191-0.576,0.344-1.019c0.18-0.083,0.364-0.083,0.552,0
			c0.186,0.083,0.351,0.208,0.489,0.374c-0.237,0.527-0.406,0.965-0.511,1.311C426.943,292.639,426.863,292.965,426.807,293.27z"/>
		<path d="M436.922,295.329c-0.195,0.555-0.435,1.085-0.718,1.592c-0.284,0.506-0.559,1.023-0.823,1.551
			c-0.264,0.374-0.616,0.738-1.06,1.092c-0.445,0.354-0.916,0.652-1.416,0.894c-0.5,0.244-1.006,0.406-1.519,0.489
			s-0.965,0.049-1.353-0.103c-0.152-0.098-0.308-0.218-0.467-0.364c-0.161-0.147-0.301-0.317-0.427-0.511
			c-0.112-0.068-0.181-0.186-0.208-0.352c-0.029-0.168-0.063-0.306-0.105-0.417c0-0.388,0-0.742,0-1.062
			c0-0.318,0.012-0.635,0.032-0.947c0.02-0.312,0.056-0.632,0.103-0.957c0.049-0.327,0.129-0.691,0.24-1.092
			c0.124-0.43,0.291-0.874,0.5-1.333c0.207-0.457,0.447-0.901,0.718-1.331c0.269-0.43,0.564-0.826,0.884-1.187
			c0.318-0.361,0.652-0.652,0.999-0.874c0.179-0.083,0.371-0.163,0.572-0.239c0.2-0.076,0.405-0.132,0.613-0.166
			c0.208-0.036,0.413-0.036,0.613,0c0.202,0.034,0.393,0.12,0.572,0.259c0.222-0.083,0.452-0.117,0.688-0.103
			c0.235,0.014,0.461,0.073,0.676,0.176c0.215,0.105,0.406,0.257,0.572,0.459c0.168,0.2,0.291,0.447,0.374,0.738
			c0.208,0.791,0.298,1.487,0.271,2.091C437.226,294.237,437.115,294.803,436.922,295.329z M433.113,291.169
			c-0.152,0.041-0.291,0.097-0.417,0.166c-0.278,0.152-0.552,0.423-0.821,0.811c-0.271,0.389-0.522,0.798-0.75,1.228
			s-0.43,0.83-0.603,1.197c-0.174,0.367-0.295,0.613-0.364,0.738c-0.042,0.417-0.093,0.808-0.156,1.175
			c-0.063,0.367-0.115,0.732-0.156,1.092c-0.042,0.347-0.059,0.688-0.052,1.019c0.007,0.334,0.066,0.681,0.176,1.041
			c0.222,0.152,0.476,0.268,0.76,0.344s0.566,0.086,0.843,0.03c0.54-0.278,1.016-0.54,1.424-0.791
			c0.41-0.249,0.777-0.53,1.102-0.843c0.327-0.312,0.618-0.676,0.875-1.092c0.256-0.415,0.494-0.921,0.718-1.519
			c0-0.208,0.051-0.506,0.156-0.894c0.103-0.388,0.196-0.798,0.281-1.228c0.083-0.444,0.127-0.847,0.134-1.207
			s-0.066-0.616-0.218-0.769c-0.097-0.098-0.2-0.202-0.312-0.313c-0.112-0.11-0.242-0.173-0.395-0.186
			c-0.015,0.11-0.076,0.149-0.188,0.113c-0.112-0.034-0.202-0.037-0.271-0.01c-0.11,0.029-0.225,0.066-0.342,0.115
			c-0.119,0.047-0.234,0.1-0.344,0.156l-0.146,0.063c-0.472,0.235-0.823,0.384-1.052,0.447s-0.384,0.073-0.467,0.03
			c-0.069-0.054-0.091-0.135-0.063-0.239c0.027-0.103,0.056-0.169,0.083-0.198c0.027-0.027,0.093-0.076,0.198-0.146
			c0.103-0.069,0.212-0.146,0.322-0.229l0.208-0.125L433.113,291.169z"/>
		<path d="M449.551,296.745c-0.029-0.014,0.02,0.122,0.146,0.405c0.125,0.284,0.284,0.642,0.478,1.072
			c0.195,0.43,0.406,0.896,0.635,1.395c0.229,0.498,0.44,0.964,0.635,1.394s0.354,0.791,0.479,1.082
			c0.124,0.291,0.18,0.437,0.166,0.437c-0.042,0.014-0.083,0.069-0.125,0.166c-0.041,0.097-0.093,0.188-0.156,0.271
			s-0.139,0.139-0.229,0.166c-0.09,0.029-0.198-0.02-0.323-0.146c-0.014,0-0.069-0.11-0.166-0.332
			c-0.097-0.224-0.208-0.472-0.332-0.75c-0.071-0.166-0.161-0.361-0.271-0.583c-0.112-0.222-0.225-0.45-0.344-0.686
			c-0.119-0.237-0.235-0.469-0.354-0.698c-0.119-0.229-0.218-0.434-0.301-0.613c-0.181-0.376-0.347-0.767-0.5-1.177
			c-0.152-0.408-0.347-0.835-0.583-1.278c-0.305,0.069-0.545,0.117-0.718,0.146c-0.173,0.027-0.384,0.11-0.635,0.249
			c-0.152,0.444-0.281,0.877-0.384,1.301s-0.191,0.85-0.261,1.28c-0.069,0.374-0.132,0.748-0.186,1.123
			c-0.056,0.374-0.119,0.75-0.188,1.124c-0.11-0.027-0.208-0.032-0.291-0.01c-0.083,0.02-0.159,0.044-0.229,0.073
			c-0.097,0.056-0.181,0.083-0.249,0.083c-0.071,0-0.125-0.02-0.168-0.063c-0.11-0.139-0.169-0.295-0.176-0.467
			c-0.007-0.174,0.007-0.357,0.041-0.552c0.036-0.195,0.086-0.4,0.157-0.615c0.068-0.215,0.13-0.427,0.186-0.633
			c0.222-0.804,0.423-1.627,0.603-2.467c0.181-0.838,0.357-1.681,0.532-2.528c0.173-0.845,0.361-1.688,0.562-2.528
			c0.2-0.838,0.434-1.666,0.696-2.486c0.056-0.056,0.139-0.042,0.251,0.042c0.069,0.041,0.13,0.083,0.186,0.124
			c0.056,0.042,0.119,0.076,0.188,0.105l-0.02,0.748c0.415-0.152,0.848-0.278,1.301-0.374c0.45-0.097,0.874-0.125,1.268-0.083
			c0.396,0.041,0.745,0.163,1.052,0.364c0.305,0.202,0.527,0.523,0.665,0.967c0.083,0.278,0.139,0.576,0.166,0.896
			c0.029,0.318,0.017,0.633-0.03,0.947c-0.049,0.312-0.135,0.606-0.261,0.884c-0.125,0.278-0.298,0.513-0.52,0.708
			c-0.334,0.291-0.691,0.549-1.072,0.769c-0.381,0.224-0.808,0.41-1.28,0.562L449.551,296.745z M447.178,296.079
			c0.083,0,0.229-0.014,0.437-0.042c0.208-0.027,0.42-0.063,0.635-0.103c0.215-0.042,0.411-0.08,0.593-0.115
			c0.179-0.034,0.291-0.059,0.334-0.073c0.471-0.083,0.933-0.249,1.383-0.5c0.45-0.249,0.794-0.576,1.03-0.977
			c0.112-0.291,0.208-0.625,0.291-0.999c0.083-0.374,0.027-0.735-0.166-1.082c-0.042-0.195-0.129-0.364-0.261-0.51
			s-0.337-0.244-0.613-0.291c-0.278-0.049-0.638-0.042-1.082,0.02c-0.445,0.063-0.999,0.205-1.665,0.427
			c-0.195,0.721-0.386,1.419-0.572,2.091C447.334,294.598,447.221,295.316,447.178,296.079z"/>
		<path d="M462.181,295.329c-0.195,0.555-0.435,1.085-0.718,1.592c-0.284,0.506-0.559,1.023-0.823,1.551
			c-0.264,0.374-0.616,0.738-1.06,1.092c-0.445,0.354-0.916,0.652-1.416,0.894c-0.5,0.244-1.006,0.406-1.519,0.489
			s-0.965,0.049-1.353-0.103c-0.152-0.098-0.308-0.218-0.467-0.364c-0.161-0.147-0.301-0.317-0.427-0.511
			c-0.112-0.068-0.181-0.186-0.208-0.352c-0.029-0.168-0.063-0.306-0.105-0.417c0-0.388,0-0.742,0-1.062
			c0-0.318,0.012-0.635,0.032-0.947c0.02-0.312,0.056-0.632,0.103-0.957c0.049-0.327,0.129-0.691,0.24-1.092
			c0.124-0.43,0.291-0.874,0.5-1.333c0.207-0.457,0.447-0.901,0.718-1.331c0.269-0.43,0.564-0.826,0.884-1.187
			c0.318-0.361,0.652-0.652,0.999-0.874c0.18-0.083,0.371-0.163,0.572-0.239c0.2-0.076,0.405-0.132,0.613-0.166
			c0.208-0.036,0.413-0.036,0.613,0c0.202,0.034,0.393,0.12,0.572,0.259c0.222-0.083,0.452-0.117,0.688-0.103
			c0.235,0.014,0.461,0.073,0.676,0.176c0.215,0.105,0.406,0.257,0.572,0.459c0.168,0.2,0.291,0.447,0.374,0.738
			c0.208,0.791,0.298,1.487,0.271,2.091C462.486,294.237,462.374,294.803,462.181,295.329z M458.373,291.169
			c-0.152,0.041-0.291,0.097-0.417,0.166c-0.278,0.152-0.552,0.423-0.821,0.811c-0.271,0.389-0.522,0.798-0.75,1.228
			s-0.43,0.83-0.603,1.197c-0.174,0.367-0.295,0.613-0.364,0.738c-0.042,0.417-0.093,0.808-0.156,1.175
			c-0.063,0.367-0.115,0.732-0.156,1.092c-0.042,0.347-0.059,0.688-0.052,1.019c0.007,0.334,0.066,0.681,0.176,1.041
			c0.222,0.152,0.476,0.268,0.76,0.344s0.566,0.086,0.843,0.03c0.54-0.278,1.016-0.54,1.424-0.791
			c0.41-0.249,0.777-0.53,1.102-0.843c0.327-0.312,0.618-0.676,0.875-1.092c0.256-0.415,0.494-0.921,0.718-1.519
			c0-0.208,0.051-0.506,0.156-0.894c0.103-0.388,0.196-0.798,0.281-1.228c0.083-0.444,0.127-0.847,0.134-1.207
			s-0.066-0.616-0.218-0.769c-0.097-0.098-0.2-0.202-0.312-0.313c-0.112-0.11-0.242-0.173-0.395-0.186
			c-0.015,0.11-0.076,0.149-0.188,0.113c-0.112-0.034-0.202-0.037-0.271-0.01c-0.11,0.029-0.225,0.066-0.342,0.115
			c-0.119,0.047-0.234,0.1-0.344,0.156l-0.146,0.063c-0.472,0.235-0.823,0.384-1.052,0.447s-0.384,0.073-0.467,0.03
			c-0.069-0.054-0.091-0.135-0.063-0.239c0.027-0.103,0.056-0.169,0.083-0.198c0.027-0.027,0.093-0.076,0.198-0.146
			c0.103-0.069,0.212-0.146,0.322-0.229l0.208-0.125L458.373,291.169z"/>
		<path d="M468.755,301.927c-0.056-0.112-0.186-0.161-0.395-0.146c-0.208,0.014-0.434,0.047-0.677,0.103
			c-0.242,0.056-0.471,0.119-0.686,0.188s-0.364,0.103-0.447,0.103c-0.056-0.014-0.139-0.02-0.251-0.02
			c-0.11,0-0.195-0.007-0.249-0.022c-0.042-0.014-0.108-0.003-0.198,0.032c-0.09,0.034-0.188,0.069-0.291,0.103
			c-0.103,0.036-0.198,0.059-0.281,0.073s-0.139,0-0.166-0.041c-0.208-0.152-0.34-0.284-0.396-0.396
			c-0.056-0.11-0.117-0.284-0.186-0.52c0.054,0,0.139-0.014,0.249-0.042c0.112-0.027,0.222-0.054,0.334-0.083
			c0.11-0.027,0.218-0.047,0.322-0.063c0.105-0.014,0.185-0.007,0.24,0.022c0.152,0.069,0.305,0.063,0.457-0.022
			c0.152-0.083,0.347-0.193,0.583-0.332c-0.029-0.625-0.063-1.201-0.103-1.727c-0.042-0.527-0.088-1.03-0.135-1.509
			c-0.049-0.479-0.108-0.947-0.178-1.404c-0.069-0.459-0.146-0.923-0.229-1.395v-3.266c-0.042-0.097-0.122-0.149-0.239-0.156
			c-0.119-0.007-0.251,0.003-0.396,0.03c-0.146,0.029-0.291,0.066-0.437,0.115s-0.268,0.086-0.364,0.115l-0.271,0.061
			c-0.152,0.042-0.301,0.066-0.447,0.073c-0.146,0.008-0.268-0.086-0.364-0.279c-0.027-0.042-0.024-0.069,0.01-0.085
			c0.036-0.014,0.073-0.024,0.115-0.03s0.08-0.02,0.115-0.042c0.034-0.02,0.037-0.051,0.01-0.093
			c-0.098-0.11-0.146-0.222-0.146-0.334c0.345-0.083,0.693-0.169,1.04-0.259s0.735-0.163,1.165-0.218l0.083-0.457
			c0.042,0.014,0.112,0.02,0.208,0.02c0.112,0,0.188,0.007,0.229,0.02c0.085,0.014,0.158,0.036,0.218,0.063
			c0.063,0.027,0.122,0.09,0.178,0.188c0.235,0.096,0.464,0.127,0.686,0.093c0.222-0.036,0.45-0.066,0.688-0.093
			c0.193-0.029,0.364-0.025,0.51,0.01c0.146,0.034,0.268,0.135,0.364,0.301c0.014,0.097,0.03,0.169,0.052,0.218
			c0.02,0.049,0.044,0.093,0.073,0.135c0.027,0.041,0.051,0.086,0.073,0.135c0.02,0.047,0.037,0.113,0.051,0.196
			c-0.139,0.112-0.339,0.168-0.603,0.168c-0.152-0.014-0.308-0.036-0.467-0.063c-0.161-0.029-0.317-0.049-0.469-0.063
			c-0.347-0.042-0.621,0.093-0.821,0.406c-0.202,0.312-0.234,0.779-0.095,1.404l0.085,1.124c-0.029,0.222-0.052,0.388-0.073,0.498
			c-0.022,0.112-0.032,0.208-0.032,0.291c0,0.085,0.01,0.171,0.032,0.261c0.02,0.09,0.051,0.232,0.093,0.427l0.249,1.124
			c0.029,0.193,0.049,0.388,0.063,0.582c0.014,0.193,0.036,0.388,0.063,0.583c0.056,0.457,0.097,0.914,0.125,1.373
			c0.014,0.235,0.034,0.471,0.063,0.706c0.027,0.237,0.083,0.479,0.166,0.73c0.208,0.069,0.395,0.103,0.562,0.103h0.415
			c0.069,0,0.171,0,0.303,0c0.13,0,0.269,0,0.415,0s0.278,0.01,0.396,0.03c0.117,0.022,0.198,0.052,0.239,0.095
			c-0.027,0.097-0.069,0.195-0.125,0.291c-0.054,0.097-0.061,0.18-0.02,0.249c0,0.014-0.024,0.029-0.073,0.042
			s-0.103,0.027-0.166,0.041c-0.063,0.015-0.119,0.029-0.166,0.042c-0.049,0.014-0.073,0.027-0.073,0.042
			c0.014,0.027-0.005,0.037-0.052,0.03c-0.049-0.007-0.105-0.017-0.166-0.03c-0.063-0.015-0.125-0.029-0.188-0.042
			s-0.102-0.014-0.115,0L468.755,301.927z"/>
	</g>
</g>
</svg>
