<?xml version="1.0" encoding="utf-8"?>
<!-- Generator: Adobe Illustrator 17.0.0, SVG Export Plug-In . SVG Version: 6.00 Build 0)  -->
<!DOCTYPE svg PUBLIC "-//W3C//DTD SVG 1.1//EN" "http://www.w3.org/Graphics/SVG/1.1/DTD/svg11.dtd">
<svg version="1.1" id="Слой_1" xmlns="http://www.w3.org/2000/svg" xmlns:xlink="http://www.w3.org/1999/xlink" x="0px" y="0px"
	 width="29.841px" height="27.635px" viewBox="403.445 280.14 29.841 27.635" enable-background="new 403.445 280.14 29.841 27.635"
	 xml:space="preserve">
<path d="M430.262,303.115c-0.2-2.159-0.101-4.296-0.172-6.461c-0.077-2.347,0.287-4.589-0.104-6.915
	c-0.245-1.457-0.45-2.917-0.148-4.382c0.108-0.525,0.345-1.326,0.227-1.868c-0.645-2.953-4.779-2.153-7.045-2.144
	c-5.301,0.022-10.608,0.121-15.907,0.138c-0.736,0.002-1.435,1.423-0.526,1.42c6.65-0.022,13.229-0.317,19.893-0.121
	c3.058,0.09,1.83,3.276,1.78,4.78c-0.044,1.331,0.326,2.734,0.545,4.039c0.48,2.857-0.373,6.421-0.201,9.313
	c0.076,1.282,0.658,3.242-1.305,3.171c-1.89-0.068-3.772-0.062-5.663-0.031c-3.696,0.059-7.475,0.043-11.15-0.371
	c-4.3-0.485-2.964-5.005-2.819-8.09c0.169-3.602-0.896-7.31-0.17-10.905c0.197-0.975-1.245-0.491-1.394,0.245
	c-0.928,4.598,0.484,9.478-0.201,14.145c-0.213,1.45-0.231,5.27,1.701,5.727c4.257,1.007,9.158,0.73,13.507,0.669
	c2.46-0.035,7.006,1.157,8.873-0.974C430.322,304.112,430.308,303.616,430.262,303.115z"/>
<path d="M424.62,291.889c-0.324-0.486-1-0.768-1.497-1.041c-1.4-0.769-2.624-1.793-3.988-2.623c-1.287-0.784-5.135-2.658-6.378-1.12
	c-0.297,0.367-0.226,0.722-0.009,0.907c-0.437,2.758-0.099,5.349,0.036,8.138c0.072,1.494-0.411,4.323,1.265,5.084
	c1.008,0.458,3.58-1.169,4.31-1.687c2.15-1.527,3.667-3.71,5.714-5.37C424.861,293.536,425.205,292.766,424.62,291.889z
	 M423.101,293.615c-0.393,0.332-0.814,0.623-1.201,0.964c-1.25,1.1-2.11,2.546-3.393,3.638c-1.771,1.507-4.398,2.59-4.573-0.681
	c-0.169-3.158-0.469-6.31-0.552-9.474c0.102-0.051,0.203-0.121,0.296-0.236c0.266-0.327,4.489,1.625,5.173,2.035
	c1.085,0.651,2.059,1.465,3.184,2.051C422.51,292.16,424.229,292.664,423.101,293.615z"/>
</svg>
