<?xml version="1.0" encoding="utf-8"?>
<!-- Generator: Adobe Illustrator 17.0.0, SVG Export Plug-In . SVG Version: 6.00 Build 0)  -->
<!DOCTYPE svg PUBLIC "-//W3C//DTD SVG 1.1//EN" "http://www.w3.org/Graphics/SVG/1.1/DTD/svg11.dtd">
<svg version="1.1" id="Слой_1" xmlns="http://www.w3.org/2000/svg" xmlns:xlink="http://www.w3.org/1999/xlink" x="0px" y="0px"
	 width="41px" height="37.803px" viewBox="4.625 0 41 37.803" enable-background="new 4.625 0 41 37.803" xml:space="preserve">
<path fill="#8EA031" d="M38.627,29.911c-0.2-2.159-0.101-4.296-0.172-6.461c-0.077-2.347,0.287-4.589-0.104-6.915
	c-0.245-1.457-0.45-2.917-0.148-4.382c0.108-0.525,0.345-1.326,0.227-1.868c-0.645-2.953-4.779-2.153-7.045-2.144
	c-5.301,0.022-10.608,0.121-15.907,0.138c-0.736,0.002-1.435,1.423-0.526,1.42c6.65-0.022,13.229-0.317,19.893-0.121
	c3.058,0.09,1.83,3.276,1.78,4.78c-0.044,1.331,0.326,2.734,0.545,4.039c0.48,2.857-0.373,6.421-0.201,9.313
	c0.076,1.282,0.658,3.242-1.305,3.171c-1.89-0.068-3.772-0.062-5.663-0.031c-3.696,0.059-7.475,0.043-11.15-0.371
	c-4.3-0.485-2.964-5.005-2.819-8.089c0.169-3.602-0.896-7.31-0.17-10.905c0.197-0.975-1.245-0.491-1.394,0.245
	c-0.928,4.598,0.484,9.478-0.201,14.145c-0.213,1.45-0.231,5.27,1.701,5.727c4.257,1.007,9.158,0.73,13.507,0.669
	c2.46-0.035,7.006,1.157,8.873-0.974C38.688,30.908,38.673,30.412,38.627,29.911z"/>
</svg>
