<?xml version="1.0" encoding="utf-8"?>
<!-- Generator: Adobe Illustrator 17.0.0, SVG Export Plug-In . SVG Version: 6.00 Build 0)  -->
<!DOCTYPE svg PUBLIC "-//W3C//DTD SVG 1.1//EN" "http://www.w3.org/Graphics/SVG/1.1/DTD/svg11.dtd">
<svg version="1.1" id="Слой_1" xmlns="http://www.w3.org/2000/svg" xmlns:xlink="http://www.w3.org/1999/xlink" x="0px" y="0px"
	 width="165px" height="90.432px" viewBox="337.445 252.292 165 90.432" enable-background="new 337.445 252.292 165 90.432"
	 xml:space="preserve">
<g>
	<path fill="#8EA031" d="M351.148,258.487c4.123-1.266,7.978-2.653,12.293-3.244c4.82-0.66,9.747-0.562,14.577-0.084
		c9.46,0.937,19.121,3.863,26.718,9.714c0.573,0.441,0.645,0.081,0.512-0.455c4.47,0.377,8.663-1.542,12.694-3.351
		c5.948-2.67,11.552-5.097,18.108-5.724c10.881-1.04,22.441-0.519,32.358,4.39c-2.121,0.36-0.77,5.282-0.55,7.033
		c1.034,8.231,1.121,16.726,0.926,25.02c0.086-0.111,0.172-0.224,0.259-0.334c0.504-0.638,1.036-1.31,1.607-1.955
		c-0.087-4.87-0.41-9.736-0.846-14.586c-0.235-2.615-0.474-5.253-0.912-7.842c-0.039-0.231-0.172-0.826-0.312-1.574
		c1.116,1.278,2.923,2.135,4.586,2.738c-0.312,6.397-0.34,12.803-0.29,19.212c0.426-0.3,0.87-0.567,1.344-0.772
		c0.147-0.063,0.292-0.115,0.435-0.159c-0.12-6.06-0.195-12.114-0.078-18.152c0.012-0.632-0.461-1.582-1.107-1.767
		c-1.841-0.528-4.072-1.114-5.163-2.816c-0.212-1.678-0.234-3.429,0.55-3.831c0.028,0.014,0.057,0.027,0.085,0.041
		c0.223,0.115,0.317,0.043,0.331-0.125c0.091,0.004,0.186,0.015,0.291,0.044c0.006,0.002,0.003-0.02-0.003-0.022
		c-0.1-0.035-0.195-0.062-0.287-0.086c-0.013-0.502-0.56-1.618-0.834-1.806c-8.709-5.981-21.529-5.817-31.605-5.118
		c-11.555,0.801-21.122,7.07-31.756,11.023c-0.181-0.457-0.434-0.909-0.622-1.063c-7.221-5.91-16.597-8.699-25.715-9.902
		c-8.484-1.119-21.08-1.408-28.031,4.555C350.511,257.661,350.865,258.574,351.148,258.487z"/>
	<path fill="#8EA031" d="M474.335,296.451c-0.461,0.626-0.906,1.263-1.334,1.912c0.169,13.659,0.198,27.306-1.837,40.869
		c-0.243-0.293-0.504-0.49-0.703-0.445c-11.958,2.668-23.65,0.298-35.65-0.897c-10.357-1.031-22.528-1.456-30.126-9.49
		c8.796,2.997,17.955,4.723,27.169,5.827c8.805,1.055,18.323,1.772,27.134,0.249c2.864,0.085,5.546,0.294,8.308,1.529
		c0.168,0.075,0.467,0.058,0.511-0.174c2.104-11.054,2.395-22.549,2.662-33.859c-0.646,0.404-1.393,0.564-2.131,0.52
		c-0.283,5.108-0.634,10.218-0.956,15.303c-0.304,4.809-0.772,9.594-1.601,14.342c-0.235,1.345-3.472-0.167-4.268-0.276
		c-1.96-0.267-3.853-0.442-5.769,0.118c-0.106,0.031-0.155,0.115-0.169,0.228c-8.323,0.606-16.478,0.585-24.846-0.306
		c-8.708-0.928-17.288-2.697-25.911-4.178c0.015-0.189-0.036-0.427-0.141-0.68c0.805-20.463,4.07-41.435,1.319-61.814
		c-0.014-0.101-0.157-0.32-0.161-0.101c-0.173,10.3-0.235,20.569-0.806,30.86c-0.551,9.917-1.373,19.827-1.625,29.759
		c-16.839,3.866-33.198,9.555-50.605,6.832c0.559-2.945,0.33-6.118,0.486-9.101c0.214-4.089,0.522-8.173,0.77-12.259
		c0.422-6.969,0.247-13.867,0.217-20.836c-0.039-8.999,0.691-18.875-2.376-27.542c0.066-0.052,0.132-0.104,0.197-0.155
		c0.159-0.124-0.112-0.873-0.315-0.784c-0.066,0.029-0.133,0.058-0.2,0.087c-0.425-1.098-0.903-2.178-1.467-3.229
		c-0.301-0.562-0.408-0.005-0.247,0.348c0.463,1.011,0.839,2.056,1.168,3.119c-2.454,1.072-4.926,2.117-7.509,2.831
		c-0.167,0.046-0.131,0.413-0.107,0.512c2.917,11.563,4.203,23.599,3.569,35.513c-0.684,12.851-5.259,25.477-3.799,38.417
		c0.079,0.703,0.854,2.273,1.739,2.229c18.942-0.929,44.292,1.735,58.899-13.125c0.07-0.072,0.108-0.168,0.122-0.277
		c0.198,0.251,0.401,0.442,0.53,0.46c6.929,8.994,18.986,10.251,29.555,11.269c6.357,0.612,12.671,1.589,19.03,2.18
		c5.883,0.547,12.797,1.094,18.435-1.111c0.509,0.73,1.282,1.354,1.394,0.653c2.428-15.215,2.288-30.606,1.962-45.996
		C474.68,296.004,474.502,296.224,474.335,296.451z M345.027,339.038c-0.824-13.269,3.761-26.492,4.074-39.779
		c0.161-6.833-0.462-13.676-1.477-20.427c-0.494-3.284-1.214-6.53-2.016-9.751c-0.44-1.765-0.256-1.999,1.49-2.888
		c1.532-0.781,2.896-1.852,4.245-2.917c2.399,8.899,0.833,19.248,0.957,28.151c0.09,6.455-0.021,12.832-0.452,19.277
		c-0.452,6.75-1.8,14.217-0.707,20.922c0.017,0.104,0.187,0.414,0.407,0.743c-0.064-0.011-0.127-0.02-0.19-0.032
		c-0.228-0.042-0.037,0.667,0.156,0.729c0.307,0.099,0.614,0.185,0.921,0.276c0.024,0.01,0.047,0.017,0.068,0.021
		c14.926,4.416,30.111,0.142,44.858-3.548C382.134,339.542,362.701,338.319,345.027,339.038z"/>
	<path fill="#8EA031" d="M396.439,270.447c-3.764-1.57-10.725,2.338-13.426-0.99c-0.1-0.123-0.703-0.837-0.943-0.565
		c-3.783,4.284-13.363,0.881-16.716-2.479c-0.189-0.189-0.391-0.201-0.468,0.066c-0.657,2.289-0.629,4.179-0.035,6.461
		c0.05,0.192,0.215,0.265,0.183,0.01c0.2,1.58-0.579-5.968,0.897-4.621c0.555,0.506,1.124,0.952,1.739,1.38
		c1.706,1.187,3.7,1.946,5.68,2.528c2.992,0.879,7.44,1.542,9.913-0.873c3.751,3.427,9.268,0.243,13.972,1.176
		C397.882,272.669,396.896,270.638,396.439,270.447z"/>
	<path fill="#8EA031" d="M393.677,280.976c-6.461,3.925-24.892-8.536-27.971,0.785c-0.053,0.16,0.246,0.883,0.364,0.684
		c2.589-4.409,11.052-1.217,14.772-0.254c3.639,0.942,10.772,3.848,14.174,0.987C395.581,282.703,394.286,280.607,393.677,280.976z"
		/>
	<path fill="#8EA031" d="M394.098,290.142c-2.419-1.354-4.718-1.475-7.421-0.771c-3.688,0.961-6.147,1.293-9.844,0.462
		c-1.456-0.328-2.878-0.548-4.373-0.502c-0.715,0.022-2.541,1.333-2.99,0.821c-1.269-1.446-2.315-1.082-3.625-0.021
		c-0.061,0.049,0.01,0.305,0.096,0.296c2.064-0.213,2.619-0.451,4.083,1.711c0.096,0.141,0.442,0.641,0.685,0.488
		c3.627-2.273,7.391,0.044,11.228,0.303c4.549,0.306,8.409-2.908,12.885-0.469C395.697,292.935,394.68,290.468,394.098,290.142z"/>
	<path fill="#8EA031" d="M393.167,300.321c-5.307-3.665-11.545-1.622-17.489-1.65c-3.659-0.017-10.022-0.684-10.522,4.324
		c-0.018,0.182,0.374,1.079,0.512,0.682c1.425-4.097,8.635-2.582,11.965-2.52c5.657,0.106,10.876-1.52,16.176,1.37
		C394.702,303.015,393.607,300.625,393.167,300.321z"/>
	<path fill="#8EA031" d="M391.271,311.466c-4.73-3.047-9.689-0.38-14.543,0.98c-4.37,1.224-9.716-0.728-12.428,4.006
		c-0.09,0.158,0.131,0.858,0.307,0.679c3.241-3.3,8.243-1.67,12.394-2.228c5.116-0.688,9.74-4.111,14.834-1.343
		C392.667,314.012,391.724,311.758,391.271,311.466z"/>
	<path fill="#8EA031" d="M448.54,266.911c-2.553,0.943-5.619-0.576-7.968,0.62c-1.51,0.769-3.246,4.24-4.78,1.708
		c-0.133-0.219-0.859-1.2-1.236-0.883c-3.319,2.791-8.677,4.421-12.696,5.898c-4.617,1.697-4.86-6.149-9.89-1.896
		c-0.249,0.211,0.113,1.25,0.435,1.116c1.52-0.63,3.245-1.595,4.626-0.11c0.697,0.75,1.161,1.682,1.883,2.424
		c1.11,1.141,2.396,1.259,3.827,0.824c2.624-0.798,5.166-1.957,7.675-3.051c1.675-0.73,3.682-1.416,5.225-2.495
		c0.922,1.333,2.187,2.564,3.692,1.371c1.696-1.344,2.183-2.49,4.609-2.694c2.262-0.19,4.022,0.702,6.143-0.467
		C450.749,268.911,449.307,266.628,448.54,266.911z"/>
	<path fill="#8EA031" d="M456.665,284.852c-2.032-0.738-3.457-0.346-5.475,0.223c-2.007,0.566-2.907-2.4-4.372-3.229
		c-3.561-2.016-5.852,3.056-9.466,2.695c-4.576-0.457-8.68,1.522-13.134,2.587c-2.147,0.513-2.902-0.55-4.569-1.467
		c-1.432-0.787-2.989,0.167-4.185,0.924c-0.161,0.102,0.037,0.695,0.196,0.626c4.172-1.838,4.921,1.562,8.515,2.131
		c4.559,0.722,9.055-3.168,13.692-2.386c1.856,0.313,3.041,0.361,4.605-0.761c0.847-0.608,1.553-1.289,2.468-1.814
		c1.999-1.147,2.778,0.14,3.902,1.5c2.556,3.094,5.31,1.037,8.717,1.183C458.351,287.099,457.124,285.019,456.665,284.852z"/>
	<path fill="#8EA031" d="M455.892,300.4c-1.926-1.56-3.925-1.571-6.185-0.671c-2.793,1.112-6.791,5.151-8.277,0.525
		c-0.098-0.304-1.061-1.983-1.58-1.53c-2.19,1.909-4.656,1.61-7.396,1.406c-1.407-0.105-3.956-1.185-4.946,0.244
		c-0.631,0.91-1.142,1.892-2.01,2.602c-1.083,0.887-4.184-1.681-4.777-2.073c-2.089-1.378-4.263-0.575-6.205,0.671
		c-0.136,0.087,0.022,0.599,0.162,0.541c3.794-1.566,5.521,0,8.54,2.08c1.593,1.097,3.269,1.77,4.638,0.136
		c0.691-0.825,1.039-2.303,2.315-2.232c1.167,0.065,2.335,0.297,3.494,0.443c2.575,0.325,4.902,0.504,6.997-0.867
		c0.943,1.939,2.426,3.655,4.763,3.247c3.719-0.648,6.844-5.143,10.807-2.597C457.414,303.085,456.331,300.756,455.892,300.4z"/>
	<path fill="#8EA031" d="M452.342,313.827c-1.87,3.024-2.727,1.321-5.114,1.301c-1.661-1.014-4.7-0.655-6.266-0.933
		c-0.15,0.008-0.229,0.085-0.258,0.203c-0.898,0.178-3.395,0.065-4.216-0.129c-0.25-0.273-0.524-0.482-0.73-0.539
		c-1.023-0.284-3.82-1.503-4.807-0.922c-1.564,0.92-3.471,4.823-5.028,2.247c-0.78-1.291-2.017-1.234-3.244-2.039
		c-1.748-1.147-3.197,0.253-4.362,1.538c-0.114,0.126,0.115,0.738,0.244,0.645c2.454-1.785,3.489-1.257,5.763,0.198
		c1.152,0.737,1.46,1.752,2.498,2.589c1.444,1.165,3.111-0.873,3.997-1.805c1.628-1.712,3.44-0.956,5.469-0.341
		c1.082,0.941,5.081,1.446,6.095,0.709c0.001-0.001,0.001-0.002,0.002-0.002c1.494,0.198,3.366-0.014,4.831,0.436
		c0.261,0.301,0.539,0.513,0.739,0.5c3.201-0.22,3.805,1.98,6.042-1.581C454.401,315.256,452.768,313.138,452.342,313.827z"/>
	<path fill="#8EA031" d="M498.343,268.741c-1.19-3.851-6.489-2.509-8.723-0.59c-1.593,1.369-0.11,3.404,1.512,2.01
		c1.461-1.256,4.304-1.604,4.324,0.958c0.012,1.458-0.871,2.936-1.717,4.166c-1.583-1.224-3.628-2.348-4.323-4.09
		c-0.458-1.151-1.969-0.719-2.608,0.026c-0.734,0.855-1.841,1.251-2.827,1.748c-0.738,0.373-1.054,1.068-1.039,1.665
		c-0.401,0.052-0.812,0.222-1.134,0.659c-3.54,4.786-8.02,8.855-11.706,13.568c-4.18,5.345-8.771,10.257-13.004,15.486
		c-0.283,0.35-0.382,0.665-0.399,0.952c-0.478,0.225-0.906,0.568-1.083,1.023c-1.097,2.82-1.34,6.521-3.738,8.615
		c-0.153,0.134-0.258,0.274-0.354,0.414c0.042,0.027,0.085,0.053,0.128,0.078c-0.031,0.089-0.089,0.166-0.104,0.261l-0.021,0.127
		c-0.388,2.341,2.715,1.979,3.463,0.384c0.132-0.052,0.257-0.122,0.391-0.168c1.261-1.353,3.181-2.458,4.836-2.92
		c0.79-0.221,1.32-0.995,1.438-1.682c0.675,0.238,1.54-0.152,2.059-0.726c0.192-0.136,0.366-0.296,0.496-0.499
		c1.322-2.07,3.591-3.602,5.31-5.362c2.357-2.414,4.202-5.365,6.493-7.86c4.332-4.72,8.498-8.955,12.426-14.083
		c0.107-0.14,0.154-0.267,0.217-0.398c0.038-0.032,0.08-0.051,0.117-0.087c0.886-0.178,1.644-1.135,1.707-1.898
		c0.128-0.093,0.237-0.209,0.346-0.323c0.417,0.192,0.983,0.158,1.578-0.309c0.768-0.603,1.462-1.27,2.064-2.04
		c0.055-0.07,0.11-0.162,0.165-0.25c0.566-0.138,1.057-0.56,1.393-1.032C497.554,274.415,499.18,271.449,498.343,268.741z
		 M460.289,310.342c-1.228,0.343-2.438,0.917-3.595,1.594c0.473-1.229,0.871-2.519,1.297-3.82c0.911,0.437,1.797,1.369,2.506,2.204
		C460.423,310.333,460.371,310.319,460.289,310.342z M486.63,280.993c-0.164,0.169-0.26,0.329-0.343,0.486
		c-0.009,0.012-0.022,0.016-0.031,0.029c-4.318,5.638-9.047,10.402-13.827,15.61c-2.461,2.681-4.282,5.792-7.069,8.182
		c-0.964,0.826-1.784,1.663-2.551,2.562c-0.937-1.001-1.979-1.981-3.198-2.506c3.696-4.523,7.722-8.767,11.359-13.418
		c3.978-5.087,8.712-9.601,12.593-14.716c1.564,0.726,3.336,1.492,4.453,2.753C487.513,280.219,487.053,280.555,486.63,280.993z"/>
</g>
</svg>
