<?xml version="1.0" encoding="utf-8"?>
<!-- Generator: Adobe Illustrator 17.0.0, SVG Export Plug-In . SVG Version: 6.00 Build 0)  -->
<!DOCTYPE svg PUBLIC "-//W3C//DTD SVG 1.1//EN" "http://www.w3.org/Graphics/SVG/1.1/DTD/svg11.dtd">
<svg version="1.1" id="Слой_1" xmlns="http://www.w3.org/2000/svg" xmlns:xlink="http://www.w3.org/1999/xlink" x="0px" y="0px"
	 width="263.864px" height="197.803px" viewBox="284.445 197.803 263.864 197.803"
	 enable-background="new 284.445 197.803 263.864 197.803" xml:space="preserve">
<g>
	<path fill="#8EA031" d="M506.555,345.016c0.989-6.847,1.218-13.25,3.499-19.908c2.392-6.983,5.18-13.645,7.024-20.819
		c1.165-4.532,2.456-8.936,3.903-13.3c0.009,0.099,0.023,0.198,0.032,0.297c0.012-0.07,0.021-0.141,0.034-0.211
		c0.348-2,0.837-4.077,1.945-5.766c0.538-1.454,1.068-2.908,1.658-4.363c1.16-2.862,2.262-5.753,3.336-8.648
		c1.089-2.932,2.882-5.926,3.451-8.994c0.063-0.342-0.019-0.559-0.167-0.688c-0.028-0.142-0.085-0.275-0.22-0.374
		c-1.129-0.83-2.268-1.217-3.634-1.548c-1.832-0.444-3.355-1.368-5.027-2.218c-0.418-0.212-0.843-0.399-1.27-0.58
		c-0.391-0.016-0.78-0.087-1.151-0.237c-0.667-0.27-1.271-0.569-1.895-0.915c-0.068-0.038-0.421-0.092-0.525-0.138
		c-0.02-0.006-0.24,0.011-0.241,0.003l0.004,0.036c-0.056-0.547-2.659-0.629-3.758-1.452c0.434-1.331,0.717-2.649,0.154-3.647
		c-1.556-2.755-4.904-3.797-7.816-4.988c4.098-2.777,3.562-7.839-0.824-11.453c-2.275-1.875-5.641-1.042-8,0.133
		c-2.908,1.449-2.005,3.873-2.169,6.301c-2.6-1.344-6.266-3.33-8.928-2.075c-1.247,0.588-2.189,1.482-2.958,2.536
		c-3.39,0.25-7.25-3.031-10.705-3.564c-4.52-0.697-8.1-2.294-12.377-3.605c-0.35-0.107-0.706,0.102-0.951,0.405
		c0,0.001-0.001,0.001-0.001,0.001c-1.13,0.89-1.594,2.24-2.025,3.565c-0.557,1.712-1.084,3.429-1.596,5.153
		c-1.16-1.946-2.313-3.895-3.419-5.861c-1.994-3.542-4.318-6.858-6.653-10.168c0.312-0.034,0.667,0.351,0.978,0.316
		c-0.386-0.503-0.743-1.189-0.98-1.165l-0.128,0.013c-0.255,0.026-0.529-0.222-0.71,0.003c-1.469-2.086-2.951-4.392-4.315-6.554
		c-2.037-3.228-3.986-6.568-6.189-9.697c-1.216-1.728-5.482-5.097-5.578-7.123c-0.031-0.658-0.528-0.752-0.966-0.536
		c-0.029-0.014-0.044-0.05-0.076-0.061c-13.835-4.487-28.746,0.426-41.562,5.888c-6.881,2.933-13.09,6.826-18.455,12.061
		c-3.253,3.174-7.964,7.36-7.702,12.308c0.001,0.017,0.009,0.024,0.01,0.041c-7.874-1.467-14.938-2.218-23.081-1.735
		c-8.559,0.507-16.58,2.995-24.499,6.167c-5.302,2.124-10.554,4.819-15.519,7.659c-2.815,1.61-6.287,3.813-6.654,7.322
		c-0.059,0.566,0.29,0.683,0.68,0.562c-0.146,0.331-0.194,0.712,0.121,0.897c2.428,1.423,4.713,3.005,6.912,4.686
		c-2.267,1.433-4.419,3.083-6.068,5.215c-0.425,0.55-0.224,1.061,0.159,1.224c-0.014,0.159,0,0.314,0.07,0.445
		c0.85,1.6,2.462,2.353,3.982,3.239c-1.345,0.657-2.654,1.573-3.416,2.843c-0.118,0.197-0.141,0.465-0.07,0.691
		c-0.23,0.488-0.182,1.053,0.449,1.069c1.179,0.028,2.661,1.572,3.607,2.237c2.1,1.475,4.096,3.098,6.18,4.597
		c4.602,3.309,8.372,6.303,11.887,10.715c-0.044,0.048-0.068,0.107-0.106,0.159c0.514,0.605,1.009,1.232,1.468,1.899
		c-0.001-0.08,0.003-0.16,0.001-0.24c6.415,8.832,10.597,19.372,14.74,29.369c0.124,0.3,0.363,0.343,0.612,0.256
		c0.001,0.811,1.21,0.569,1.544-0.186c0.136-0.09,0.288-0.161,0.439-0.22c0.405-0.157,0.835-0.251,1.259-0.341
		c0.676-0.144,1.365-0.219,2.051-0.289c0.196-0.02,0.378-0.132,0.535-0.281c0.409,0.549,0.832,1.09,1.283,1.618
		c-0.487,0.663-0.271,1.831,0.659,1.256c9.936-6.15,20.758-11.947,31.617-16.274c5.566-2.218,11.377-3.691,17.174-5.157
		c4.721-1.194,9.944-2.11,14.094-4.789c0.204-0.132,0.328-0.341,0.412-0.561c0.141,0.413,0.549,0.629,1.055,0.13
		c3.05-3.004,8.255-5.274,12.117-7.052c4.866-2.241,9.76-4.38,14.854-6.054c4.585-1.507,9.406-2.361,14.281-2.762
		c-1.281,1.579-1.931,3.483-2.577,5.466c-1.656,5.092-4.534,9.965-6.595,14.934c-1.87,4.508-3.734,9.009-5.416,13.592
		c-1.722,4.691-5.03,9.433-5.791,14.385c-0.06,0.392,0.067,0.619,0.261,0.735c-0.146,0.634,0.402,1.257,1.154,0.668
		c0.93-0.728,6.215,1.054,7.512,1.35c4.677,1.069,9.124,3.131,13.723,4.517c6.871,2.071,13.401,4.801,19.929,7.591
		c0.141,0.214,0.282,0.394,0.355,0.44c3.04,1.94,6.334,3.008,9.717,3.758c0.097,0.072,0.211,0.157,0.35,0.261
		c0.007-0.06,0.02-0.119,0.028-0.179c6.09,1.305,12.446,1.656,18.173,4.096c0.481,0.031,0.959,0.1,1.42,0.243
		c0.142,0.044,0.251,0.125,0.38,0.184c-0.026-0.085-0.069-0.185-0.125-0.29c2.794,1.108,5.563,2.085,8.682,2.355
		c0.129,0.011,0.383-0.002,0.371-0.205c-0.166-2.985,0.277-5.92,0.482-8.866c0.057-0.007,0.114-0.013,0.171-0.019
		c-0.043-0.589-0.033-1.174,0.054-1.736c-0.047,0.005-0.095,0.011-0.142,0.016C506.555,345.027,506.555,345.022,506.555,345.016z
		 M487.047,240.946c2.562-0.374,5.779,1.725,7.988,2.796c0.526,0.255,1.083-0.451,1.209-0.863c0.928-3.03,0.567-6.847,5.031-7.093
		c5.217-0.287,8.066,8.047,2.708,10.089c-0.638,0.243-1.285,1.289-0.443,1.705c2.459,1.214,5.052,2.055,7.386,3.525
		c2.661,1.676,0.249,6.072-0.587,8.465c-0.625-0.166-1.257-0.31-1.876-0.495c0.137-0.798,0.262-1.597,0.388-2.39
		c0.198-1.249-1.417-0.97-1.574,0.017c-0.099,0.626-0.193,1.261-0.294,1.896c-3.366-1.08-6.673-2.353-10.017-3.543
		c-3.885-1.382-7.663-3.024-11.478-4.572c0.605-0.972,1.216-1.939,1.884-2.866c0.701-0.973-0.42-1.858-1.128-0.875
		c-0.743,1.031-1.419,2.114-2.092,3.198c-1.022-0.406-2.055-0.786-3.089-1.165c0.148-0.101,0.285-0.235,0.376-0.433
		C482.558,245.915,483.872,241.41,487.047,240.946z M506.63,260.541c-0.238,1.153-0.579,2.273-1.043,3.346
		c-4.045-1.061-7.346-2.925-11.095-4.761c-3.726-1.826-8.312-2.091-11.86-4.319c0.631-0.852,1.223-1.733,1.79-2.633
		c2.787,1.156,5.559,2.346,8.38,3.426C497.366,257.347,502.009,258.936,506.63,260.541z M456.554,245.147
		c0.47-1.641,0.858-3.364,1.496-4.95c0.453-1.126,0.63-2.608,1.518-3.497c3.57,1.156,6.673,2.804,10.489,3.288
		c3.352,0.424,6.046,1.312,9.015,2.929c1.026,0.559,1.843,0.831,2.868,0.85c-0.709,1.347-1.286,2.794-1.905,4.137
		c-0.078,0.169-0.103,0.313-0.104,0.443c-4.437-1.568-9.277-4.236-14.057-4.272c-0.204-0.002-0.392,0.096-0.554,0.235
		c-0.084-0.004-0.169-0.008-0.279,0.022c-1.516,0.418-2.211,2.78-2.676,4.051c-0.563,1.537-1.325,3.423-1.351,5.161
		c-1.525-2.684-3.119-5.337-4.706-7.99C456.416,245.438,456.509,245.306,456.554,245.147z M331.118,321.29l-0.001-0.015
		c-3.129-11.571-9.199-23.12-16.96-32.857c-3.461-4.342-7.506-7.093-11.943-10.283c-2.09-1.503-5.444-5.323-8.363-6.034
		c0.689-0.831,1.987-1.426,2.909-1.812c0.139-0.058,0.27-0.152,0.362-0.255c2.02,1.378,3.911,3.012,5.851,4.468
		c6.146,4.609,11.429,9.227,15.775,15.664c3.804,5.636,6.924,11.837,10.343,17.711c2.361,4.056,3.846,8.311,6.433,12.149
		C334.173,320.161,332.971,320.359,331.118,321.29z M385.901,301.567c-5.782,1.462-11.45,3.133-16.994,5.342
		c-9.978,3.976-19.956,9.397-29.156,15.028c-4.355-4.882-6.706-10.999-9.962-16.592c-3.178-5.46-6.112-11.141-9.591-16.423
		c-3.333-5.061-7.37-9.328-12.096-13.11c-2.533-2.027-5.246-3.829-7.805-5.827c-1.839-1.436-5.178-2.783-6.702-4.759
		c0.043-0.302-0.05-0.586-0.384-0.712c-0.022-0.008-0.045-0.017-0.068-0.025c1.558-1.803,3.507-3.226,5.539-4.456
		c0.045-0.027,0.076-0.069,0.115-0.102c6.976,5.561,12.958,12.253,18.821,19.141c9.1,10.691,15.527,22.451,22.323,34.609
		c0.336,0.601,1.076,0.177,1.384-0.405c0.191,0.277,0.548,0.365,0.977-0.044c2.705-2.584,7.286-3.029,10.707-4.317
		c5.127-1.931,10.243-3.881,15.435-5.633c10.104-3.41,21.224-5.001,31.804-6.151C395.943,299.509,390.578,300.384,385.901,301.567z
		 M401.231,295.308c-11.553,1.244-23.409,3.121-34.44,6.844c-5.528,1.866-10.893,4.221-16.436,6.03
		c-3.082,1.006-6.399,1.481-8.826,3.799c-0.097,0.092-0.171,0.195-0.226,0.301c-3.167-5.686-5.825-11.63-9.463-17.046
		c-4.033-6.003-8.147-11.843-12.777-17.409c-7.792-9.365-16.163-18.399-26.603-24.676c0.111-0.59-0.342-1.126-0.984-0.728
		c0.003-0.019,0.015-0.036,0.017-0.054c0.421-4.02,7.711-6.642,10.797-8.177c5.38-2.677,10.716-5.169,16.41-7.142
		c6.857-2.375,13.709-3.472,20.952-3.786c7.007-0.304,13.314,0.738,20.153,2.054c0.102,0.02,0.205,0.015,0.304-0.009
		c2.49,3.6,6.345,6.401,9.424,9.457c4.745,4.712,8.822,10.033,12.762,15.419c7.631,10.433,14.108,22.199,17.502,34.698
		c0.292,1.076,1.83-0.014,1.595-0.88c-3.167-11.662-8.901-22.384-15.692-32.342c-3.467-5.084-7.306-9.969-11.365-14.591
		c-4.031-4.589-9.751-8.296-13.079-13.423c-0.06-0.092-0.133-0.148-0.209-0.194c0.115-0.163,0.201-0.341,0.19-0.541
		c-0.276-5.217,6.644-10.63,10.268-13.727c5.411-4.623,11.821-7.574,18.36-10.202c11.389-4.576,24.548-8.08,36.607-4.169
		c0.112,0.037,0.226,0.038,0.336,0.016c0.172,1.002,0.599,1.629,1.426,2.537c2.573,2.828,4.895,5.475,7.059,8.691
		c4.241,6.302,8.439,12.664,12.651,18.996c3.987,5.994,7.415,12.501,11.058,18.716c4.163,7.102,7.763,14.48,9.494,22.574
		c0.231,1.082,1.781-0.007,1.595-0.88c-1.584-7.411-4.743-14.149-8.378-20.673c0.476-0.156,1.02-0.757,0.943-1.287
		c-0.168-1.161,0.461-2.648,0.799-3.733c0.261-0.839,0.572-1.66,0.925-2.465c0.121-0.276,0.258-0.545,0.398-0.812
		c0.127-0.244,0.517-0.542,0.223-0.461c0.134-0.037,0.249-0.116,0.353-0.21c0.025,0.002,0.038,0.015,0.066,0.015
		c4.569,0.034,9.492,2.678,13.71,4.233c1.33,0.491,2.647,1.014,3.958,1.549c-0.646,1.015-1.306,2.017-2.048,2.954
		c-0.233,0.294-0.27,0.574-0.208,0.801c-0.075,0.276-0.039,0.551,0.212,0.723c2.815,1.933,6.696,2.839,9.944,3.817
		c2.882,0.868,5.404,2.341,7.999,3.834c1.991,1.146,4.032,1.46,6.248,1.994c0.179,0.043,0.357-0.005,0.524-0.089
		c0.332,0.002,0.712-0.174,0.922-0.58c0.66-1.276,1.084-2.638,1.401-4.031c0.14,0.049,0.281,0.098,0.421,0.147
		c1.959,0.685,7.136,0.489,7.743,3.101c-0.024,0.161-0.022,0.321,0.053,0.464c1.294,2.473-0.394,8.362-0.883,11.116
		c-0.241,1.356-0.568,2.68-0.939,3.988c0.018,0.011,0.03,0.026,0.047,0.037c-0.288,0.381-0.388,0.898-0.013,1.184
		c-0.253-0.193-3.95,7.97-4.253,8.485c-1.228,2.085-2.349,4.327-3.113,6.642c-0.053-0.009-0.114-0.005-0.167-0.015
		c-0.667,1.991-1.294,3.998-1.949,5.995c-2.988,9.119-6.79,18.632-8.3,28.176c-1.199-1.142-3.371-2.516-4.323-1.577
		c-0.701,0.692-1.241,1.569-1.88,2.325c-0.426,0.503-0.865,0.995-1.325,1.467c-0.16,0.161-0.324,0.317-0.493,0.468
		c-0.307,0.283-0.505,0.187-0.217,0.294c-0.648-0.241-1.35,0.659-1.232,1.265c-2.071-0.413-4.876-2.107-6.193-2.594
		c-2.504-0.925-5.255-1.482-8.028-2.024c-4.468-2.355-9.653-3.835-14.508-5.106c-4.87-1.275-9.336-4.132-14.221-5.386
		c0.012-0.021,0.02-0.044,0.032-0.065c-0.937-0.303-1.844-0.541-2.685-1.092c3.374-4.912,5.354-10.397,7.175-16.034
		c1.237-3.828,2.586-7.614,3.821-11.442c0.716-2.221,1.33-7.343,2.987-9.172c0.047-0.052,0.066-0.101,0.1-0.152
		c1.706,0.071,3.406,0.167,5.083,0.311c0.264,0.022,0.502-0.122,0.687-0.327c0.668-0.408,1.011-1.667,0.073-1.63
		c-1.211,0.048-2.121-1.313-2.755-2.171c-0.376-0.509-0.728-1.035-1.092-1.551c3.649,0.926,7.372,0.983,10.46,3.475
		c0.743,0.6,1.933-0.929,1.188-1.531c-2.954-2.384-6.577-2.808-10.204-3.52c-4.448-0.874-8.552-2.048-13.114-2.319
		c-4.746-0.282-9.632,0.586-14.292,1.414c-5.238,0.931-9.705,3.375-14.724,4.861c0.001-0.061-0.011-0.121-0.009-0.182
		c-0.176,0.127-0.341,0.272-0.516,0.402c-0.029,0.021-0.057,0.041-0.084,0.065c-1.845,1.375-3.62,2.866-5.339,4.44
		C407.793,286.302,402.477,290.716,401.231,295.308z M495.465,331.803c-1.934,0.814-3.866,1.634-5.803,2.439
		c0.732-0.675,1.387-1.557,1.76-1.984c0.289-0.331,1.499-1.966,1.654-1.908C493.765,330.608,494.782,331.174,495.465,331.803z
		 M428.487,283.357c-4.648,1.527-9.121,3.628-13.56,5.665c-4.064,1.864-9.306,4.17-12.514,7.33
		c-0.108,0.107-0.182,0.227-0.238,0.351c-0.028-0.081-0.05-0.167-0.102-0.223c0.27-0.138,0.51-0.382,0.579-0.715
		c0.969-4.676,7.087-9.287,10.397-12.319c1.263-1.157,2.553-2.206,3.874-3.173c3.84-1.133,7.39-2.993,11.256-4.085
		c5.046-1.426,10.491-2.036,15.723-2.179c3.881-0.107,7.753,0.585,11.506,1.561c-0.092,0.292-0.088,0.598,0.119,0.824
		c0.814,0.891,1.563,2.326,2.489,3.477C448.056,279.329,437.996,280.232,428.487,283.357z M505.427,341.537
		c-0.203-0.116-0.371-0.138-0.415,0.057c-0.803,3.49-1.134,7.136-1.213,10.714c-0.077,3.513-9.427-1.224-11.148-1.923
		c-2.544-1.032-5.071-1.651-7.801-1.951c-2.565-0.282-5.223-1.386-7.743-0.852c-0.051-0.161-0.15-0.304-0.348-0.385
		c-5.479-2.257-10.604-5.151-16.229-7.035c-5.859-1.964-11.678-4.058-17.589-5.84c-4.276-1.289-8.203-3.024-12.605-3.922
		c-1.22-0.249-3.192-0.869-4.65-0.554c0.718-4.14,3.462-8.34,5.056-12.226c1.819-4.435,3.378-8.976,5.231-13.403
		c1.746-4.171,3.442-8.356,5.463-12.403c1.476-2.956,2.192-7.609,4.626-9.788c0.14-0.125,0.223-0.271,0.283-0.421
		c2.567-0.149,5.143-0.192,7.702-0.126c-0.466,0.821-0.67,1.793-0.905,2.7c-0.895,3.451-2.095,6.837-3.215,10.223
		c-2.606,7.876-4.724,16.347-9.509,23.23c-0.197,0.283-0.233,0.551-0.184,0.775c-0.335,0.385-0.483,0.953-0.085,1.264
		c0.987,0.771,2.187,1.228,3.412,1.637c0.006-0.022,0.015-0.041,0.021-0.062c4.344,1.13,8.477,3.312,12.647,4.923
		c5.061,1.955,10.578,2.789,15.448,5.253c-0.03,0.082-0.052,0.167-0.084,0.249c0.365,0.076,0.728,0.151,1.093,0.226
		c0.073,0.023,0.146,0.048,0.221,0.046c2.526,0.521,5.019,1.047,7.314,1.781c2.316,0.74,5.058,2.752,7.536,2.723
		c3.177-0.037,6.916-2.643,9.779-3.828c0.593-0.246,0.913-1.244,0.642-1.621c1.107-7.949,4.165-16.195,6.654-23.799
		c1-3.055,2.05-6.098,3.079-9.146c0.186-0.142,0.338-0.34,0.401-0.579c0.852-3.24,2.859-6.173,4.313-9.148
		c0.761-1.557,1.364-3.297,2.013-4.912c0.464-1.153,1.289-1.944,1.46-3.194c0.007-0.051-0.015-0.105-0.025-0.159
		c0.567-1.825,0.999-3.687,1.147-5.544c0.244-3.058,1.965-7.595,0.65-10.659c0.016-0.084,0.032-0.168,0.022-0.249
		c-0.341-2.533-3.58-3.072-5.634-3.532c-0.159-0.036-0.313-0.087-0.472-0.124c0.225-0.764,0.739-1.797,1.231-2.912
		c1.908,1.187,4.74,1.561,6.767,2.322c1.664,0.625,3.189,1.612,4.776,2.41c1.734,0.872,3.556,0.789,5.196,1.934
		c-0.529,2.295-1.954,4.765-2.732,6.965c-1.572,4.446-3.365,8.823-5.136,13.192c-2.708,6.68-4.625,13.46-6.381,20.444
		c-1.799,7.155-4.517,13.901-7.024,20.82C506.487,330.629,506.069,335.981,505.427,341.537z"/>
	<path fill="#8EA031" d="M542.05,333.821c-2.175-2.137,2.637-6.925,2.34-9.751c-0.141-1.334-3.069-1.722-0.853-2.717
		c0.97-0.436,1.425-1.395,1.675-2.366c0.479-1.859-2.266-7.519-3.716-8.478c-2.629-1.737-5.702,2.531-7.187,1.156
		c0.868-1.749,1.976-3.421-0.184-4.83c-1.555-1.014-3.784-1.805-5.177-0.317c-1.294,1.383-2.981,1.571-4.469,2.21
		c-0.041-0.108-0.067-0.225-0.103-0.336c-0.268,0.171-0.506,0.337-0.607,0.479c-0.245,0.344-0.531,0.602-0.834,0.807
		c0.003,0.009,0.004,0.018,0.008,0.027c-0.233,0.223-0.454,0.477-0.654,0.784c-0.681,1.046-1.15,2.598-1.193,3.833
		c-0.03,0.844-0.059,1.651,0.056,2.493c0.285,2.083-1.972,3.075-3.487,3.961c-0.035,0.021-0.059,0.054-0.091,0.078
		c-0.037,0.024-0.07,0.031-0.108,0.061c-1.718,1.351-3.317,2.045-4.187,4.21c-0.345,0.857-0.135,1.79,0.027,2.657
		c0.285,1.527-1.558,2.89-2.35,3.972c-2.085,2.848,0.981,6.776,3.93,7.454c0.309,0.071,0.62-0.093,0.859-0.339
		c2.121,0.141,3.379,2.291,4.525,4.641c-0.098,0.011-0.197,0.022-0.295,0.033c0.02,0.028,0.083,0.439,0.104,0.467
		c0.341,0.465,0.533,0.011,0.941,1.916l0.113-0.012c0.952,1.85,1.942,3.395,3.479,3.895c1.151,0.375,1.718,0.344,2.695,0.301
		c-0.023,0.093-0.447,0.03-0.438,0.121l0.01,0.101c-0.001-0.005,0.169-0.028,0.189-0.035c0.535-0.198,1.714-0.403,1.71-0.441
		l-0.014-0.134c1.922-0.249,1.316-0.272,1.907-0.439c3.825-1.084,7.584-1.422,11.542-1.741c2.18-0.176,5.293-1.725,5.904-4.074
		C549.286,338.964,544.862,336.585,542.05,333.821z M543.869,345.537c-2.296,0.941-5.605,0.377-8.06,0.746
		c-2.23,0.336-4.228,1.095-6.387,1.707c-4.812,1.364-6.494-3.741-8.392-6.542c-1.403-2.069-2.687-4.725-5.532-4.339
		c-0.125,0.017-0.243,0.075-0.355,0.15c-1.063-0.481-1.95-1.468-2.68-2.303c-1.773-2.027,1.255-4.013,2.336-5.388
		c0.334-0.426,0.375-1.157,0.285-1.654c-0.59-3.239,1.032-4.104,3.022-5.649c1.657-0.961,3.797-1.908,4.694-3.689
		c1.152-2.289-2.104-7.227,2.007-8.38c1.963-0.55,3.289-0.537,4.774-2.091c0.679-0.711,1.158-0.587,2.07-0.187
		c1.802,0.791,1.482,2.823,0.882,4.343c-0.154,0.39-0.149,1.343,0.492,1.278l0.043-0.004c0.459-0.047,1.171,1.277,2.105,0.763
		c1.314-0.724,3.896-3.901,5.691-1.353c1.069,1.517,4.089,6.121,1.409,7.325c-0.794,0.357-2.076,1.255-1.612,2.31
		c0.91,2.07,4.034,2.575,0.299,6.189c-0.622,0.602-1.708,1.266-1.928,2.177c-0.474,1.965,0.467,3.04,1.831,4.409
		C542.404,336.901,550.351,342.879,543.869,345.537z"/>
	<path fill="#8EA031" d="M503.939,238.733c0.075-0.389-0.054-0.748-0.551-0.76c-1.907-0.047-3.995,0.911-4.881,2.658
		c-0.852,1.68,0.419,4.112,2.332,4.261C503.547,245.102,506.593,240.323,503.939,238.733z M501.44,243.14
		c-0.949,0.005-1.868-1.404-1.447-2.234c0.357-0.704,1.389-1.026,2.252-1.127c0.041,0.186,0.154,0.345,0.381,0.43
		C504.229,240.804,502.681,243.134,501.44,243.14z"/>
	<path fill="#8EA031" d="M536.289,334.688c-0.716-0.949-1.609-0.842-2.703-1.265c-1.123-0.434-2.385-1.198-3.143-2.166
		c-0.742-0.948,1.069-2.562,1.62-3.15c1.365-1.456,2.735-3.815,2.247-5.924c-0.604-2.608-3.056-1.511-4.943-0.964
		c-3.911,1.135-5.283,2.98-7.802,6.018c-0.773,0.932,0.363,1.799,1.128,0.875c1.201-1.449,2.043-3.082,3.685-4.127
		c1.21-0.77,2.782-0.99,4.131-1.434c2.829-0.932,2.176,2.474,1.226,3.772c-0.596,0.814-1.377,1.504-2.028,2.275
		c-0.731,0.866-1.437,2.274-0.929,3.411c0.45,1.006,1.156,1.535,2.071,2.129c1.013,0.657,3.353,0.943,3.994,1.794
		C535.466,336.756,536.835,335.413,536.289,334.688z"/>
	<path fill="#8EA031" d="M539.382,339.207c-0.013-0.209-2.929,0.198-3.398,0.324c-1.408,0.378-2.569,1.736-3.538,2.726
		c-0.984,1.006-3.062,3.011-4.661,1.058c-0.521-0.636-0.479-1.736-0.878-2.455c-1.128-2.033-3.702-2.55-3.204-5.483
		c0.212-1.248-1.406-0.967-1.574,0.017c-0.427,2.511,0.627,4.346,2.649,5.74c2.072,1.428,0.912,5.532,4.807,4.59
		c3.307-0.799,4.588-4.376,8.085-4.72c1.376-0.135,3.457-0.465,3.348-2.26C540.946,337.536,539.326,338.283,539.382,339.207z"/>
	<path fill="#8EA031" d="M456.477,367.523c-2.939,0.811-4.671-5.753-7.266-6.911c-1.225-0.547-3.028,1.793-2.779-0.624
		c0.109-1.058-0.493-1.932-1.208-2.635c-1.369-1.346-7.642-1.807-9.199-1.033c-2.821,1.404-0.667,6.203-2.602,6.799
		c-1.079-1.628-1.971-3.425-4.272-2.261c-1.656,0.837-3.459,2.37-2.868,4.321c0.548,1.812-0.134,3.367-0.327,4.975
		c-0.114-0.018-0.228-0.055-0.342-0.08c0.014,0.318,0.038,0.607,0.11,0.765c0.175,0.385,0.255,0.761,0.28,1.126
		c0.009,0.002,0.018,0.005,0.027,0.007c0.076,0.314,0.185,0.632,0.351,0.959c0.564,1.114,1.672,2.297,2.719,2.953
		c0.715,0.449,1.399,0.879,2.185,1.201c1.945,0.797,1.673,3.248,1.68,5.003c0,0.041,0.017,0.078,0.022,0.118
		c0.002,0.044-0.008,0.076-0.002,0.124c0.308,2.163,0.107,3.895,1.545,5.733c0.569,0.728,1.482,1.014,2.313,1.308
		c1.464,0.519,1.72,2.797,2.259,4.024c1.42,3.231,6.355,2.547,8.42,0.334c0.216-0.232,0.23-0.583,0.137-0.913
		c1.185-1.765,3.675-1.776,6.283-1.59c-0.04,0.091-0.08,0.181-0.12,0.272c0.034-0.004,0.421,0.148,0.456,0.144
		c0.574-0.062,0.276-0.456,2.13,0.146l0.047-0.103c2.078,0.103,3.911,0.021,5.114-1.059c0.901-0.808,1.159-1.314,1.611-2.181
		c0.069,0.067-0.198,0.402-0.115,0.439l0.092,0.042c-0.005-0.002,0.061-0.16,0.064-0.181c0.097-0.562,0.51-1.685,0.475-1.701
		l-0.122-0.055c0.747-1.788,0.424-1.275,0.575-1.87c0.979-3.853,2.57-7.275,4.278-10.861c0.94-1.975,1.16-5.445-0.566-7.151
		C464.553,363.839,460.278,366.474,456.477,367.523z M467.527,371.82c-0.336,2.458-2.483,5.04-3.393,7.349
		c-0.827,2.099-1.171,4.208-1.724,6.382c-1.232,4.848-6.492,3.745-9.867,3.984c-2.494,0.177-5.435-0.043-6.527,2.612
		c-0.048,0.117-0.057,0.248-0.048,0.383c-0.949,0.679-2.247,0.951-3.336,1.165c-2.642,0.518-2.844-3.097-3.492-4.722
		c-0.201-0.503-0.814-0.904-1.288-1.075c-3.099-1.112-3.034-2.95-3.374-5.446c-0.001-1.916,0.252-4.242-0.84-5.911
		c-1.404-2.144-7.308-1.801-6.246-5.936c0.507-1.974,1.183-3.116,0.583-5.179c-0.275-0.944,0.072-1.296,0.876-1.885
		c1.587-1.163,3.185,0.132,4.201,1.413c0.26,0.328,1.088,0.802,1.352,0.215l0.018-0.04c0.189-0.42,1.692-0.373,1.715-1.439
		c0.032-1.5-1.424-5.326,1.681-5.603c1.848-0.165,7.346-0.471,7.045,2.451c-0.089,0.866,0.045,2.426,1.192,2.553
		c2.247,0.25,4.25-2.201,5.505,2.843c0.209,0.84,0.239,2.112,0.917,2.759c1.463,1.395,2.865,1.12,4.733,0.625
		C459.319,368.76,468.475,364.879,467.527,371.82z"/>
	<path fill="#8EA031" d="M454.34,372.943c-1.18,0.144-1.535,0.97-2.449,1.705c-0.939,0.754-2.232,1.464-3.45,1.635
		c-1.192,0.167-1.681-2.209-1.913-2.981c-0.576-1.911-1.931-4.279-4.001-4.913c-2.559-0.784-2.839,1.887-3.311,3.795
		c-0.978,3.953-0.069,6.066,1.298,9.768c0.419,1.136,1.738,0.588,1.323-0.538c-0.652-1.765-1.644-3.313-1.725-5.258
		c-0.06-1.433,0.538-2.904,0.829-4.293c0.611-2.915,3.231-0.643,3.878,0.829c0.406,0.924,0.611,1.945,0.953,2.895
		c0.383,1.067,1.248,2.383,2.487,2.513c1.096,0.115,1.908-0.231,2.88-0.726c1.076-0.547,2.496-2.429,3.554-2.558
		C455.717,374.692,455.241,372.833,454.34,372.943z"/>
	<path fill="#8EA031" d="M459.8,372.531c-0.188-0.094-1.297,2.633-1.423,3.103c-0.378,1.408,0.215,3.093,0.586,4.428
		c0.377,1.355,1.071,4.159-1.42,4.563c-0.811,0.132-1.742-0.456-2.565-0.471c-2.325-0.043-4.062,1.926-6.35,0.025
		c-0.974-0.809-1.541,0.733-0.774,1.37c1.959,1.628,4.075,1.636,6.295,0.584c2.274-1.078,5.244,1.983,6.381-1.86
		c0.965-3.262-1.487-6.163-0.032-9.362c0.573-1.259,1.33-3.225-0.278-4.03C459.139,370.34,458.973,372.116,459.8,372.531z"/>
	<path fill="#8EA031" d="M412.014,332.771c-0.278-1.251-0.626-2.622-1.149-3.795c-0.635-1.423-1.785-2.61-2.341-4.056
		c-0.146-0.38-0.44-0.473-0.739-0.404c-1.544-2.106,0.944-3.114,1.379-4.803c0.465-1.807-0.147-3.843-0.243-5.65
		c-0.143-2.695-1.181-6.462-4.69-5.871c-2.041,0.344-3.519,1.085-5.162,2.296c-0.573,0.422-1.426,1.513-1.877,2.048
		c-3.51,4.159-5.304,1.706-7.759-0.716c-2.13-2.102-5.742-3.343-8.362-1.326c-0.039-0.049-0.069-0.103-0.13-0.141
		c-2.244-1.401-6.016-0.489-7.5,1.843c-2.146,3.371-6.805,1.086-9.893,3.492c-2.117,1.649-3.972,4.091-2.082,6.613
		c2.115,2.824,0.01,4.784-0.058,7.589c-0.049,1.992,1.481,3.373,2.475,4.939c-0.254,0.318-0.384,0.734-0.172,1.054
		c0.251,0.365,0.477,0.745,0.711,1.121c-1.65,1.195-4.096,3.338-2.353,4.947c1.917,1.769,4.181,2.987,6.241,4.566
		c1.751,1.342,0.822,4.045,2.482,5.332c2.95,2.288,8.623-5.408,10.841-0.141c1.681,3.992,5.204,2.296,8.421,0.951
		c0.342-0.143,0.538-0.457,0.591-0.771c0.152,0.095,0.368,0.096,0.661-0.087c2.195-1.369,3.645-2.395,6.393-2.171
		c1.146,0.094,2.568-0.207,3.508-0.891c2.586-1.88,0.947-5.71,2.87-7.676c3.072,0.502,6.26,0.916,7.862-2.317
		C412.838,336.925,412.431,334.647,412.014,332.771z M408.382,339.692c-1.179,0.126-2.435-0.17-3.588-0.359
		c-0.098-0.016-0.196-0.002-0.292,0.022c-0.215-0.141-0.527-0.147-0.89,0.124c-1.97,1.465-2.005,3.937-2.227,6.188
		c-0.316,3.187-3.824,1.736-5.774,2.117c-1.812,0.354-3.145,1.53-4.68,2.487c-0.308,0.192-0.483,0.546-0.526,0.881
		c-0.164-0.121-0.4-0.159-0.725-0.023c-2.164,0.905-5.296,2.3-6.601-0.666c-0.54-1.227-0.848-1.743-1.891-2.536
		c-1.198-0.911-5.047,1.055-6.208,1.352c-1.358,0.348-3.194,1.413-3.719-0.671c-0.232-0.919-0.413-1.723-0.804-2.583
		c-1.311-2.887-10.251-4.461-4.676-8.172c0.417-0.277,0.847-0.874,0.535-1.386c-0.288-0.495-0.603-0.973-0.92-1.449
		c0.234-0.314,0.355-0.712,0.18-1.031c-1.009-1.827-2.766-2.999-2.4-5.416c0.238-1.569,1.058-2.926,1.216-4.544
		c0.113-1.161-0.795-2.185-1.481-2.97c1.155-3.467,3.171-5.173,6.047-5.118c1.299-0.116,2.433-0.33,3.746-0.261
		c0.511,0.027,0.861-0.477,1.015-0.89c1.352-2.908,3.363-3.876,6.033-2.904c0.33,0.206,0.713,0.07,1.005-0.191
		c0.184,0.308,0.583,0.439,1.071,0.061c5.434-4.212,9.555,9.768,15.673,2.614c1.683-1.968,7.542-8.175,9.505-1.755
		c0.511,1.671,0.582,4.539,0.673,6.252c0.017,0.326-2.065,3.271-2.313,4.231c-0.33,1.283,0.404,2.072,1.153,2.936
		c0.181,0.208,0.409,0.259,0.636,0.217c0.411,0.883,0.942,1.677,1.513,2.488c0.98,1.39,1.317,3.295,1.748,4.914
		C410.977,335.745,411.406,339.369,408.382,339.692z"/>
	<path fill="#8EA031" d="M397.715,330.324c0.524-1.157-0.95-1.438-1.404-0.437c-1.012,2.236-0.644,3.37,0.565,5.471
		c2.293,3.986-2.273,6.353-5.433,6.8c-3.171,0.449-5.123-0.715-7.247-2.853c-1.758-1.769-3.828-3.665-6.493-2.847
		c-1.327,0.408-2.766,1.188-2.634,2.73c0.103,1.204,1.716,0.46,1.638-0.464c-0.197-2.312,5.408,1.25,6.302,2.111
		c1.285,1.238,2.291,2.217,3.938,2.899c2.152,0.89,5.594,0.233,7.677-0.642c2.062-0.866,3.256-1.965,3.965-4.07
		c0.346-1.027,0.368-2.365,0.314-3.417C398.794,333.47,396.482,333.047,397.715,330.324z"/>
	<path fill="#8EA031" d="M394.138,323.974c-1.691-1.124-2.9-2.44-4.864-3.139c-1.159-0.413-3.486,0.708-4.402,0.087
		c-1.632-1.105-2.536-2.4-4.549-2.824c-1.642-0.346-3.437,0.697-4.862,1.361c-3.462,1.613-3.461,3.176-2.084,6.184
		c0.415,0.905,1.823-0.418,1.445-1.243c-0.751-1.64-1.717-1.911,1.014-3.413c1.977-1.087,4.281-1.457,6.217,0.021
		c1.042,0.796,2.12,2.369,3.609,2.352c2.43-0.029,1.077-1.945,4.618,0.008c2.229,1.229,5.184,3.652,3.375,6.342
		c-0.665,0.989,0.451,1.883,1.128,0.875C396.7,327.733,397.284,326.066,394.138,323.974z"/>
	<path fill="#8EA031" d="M383.352,330.277c-1.618-0.005-3.174-1.317-3.308-2.968c-0.098-1.204-1.713-0.46-1.638,0.464
		c0.192,2.358,2.079,4.261,4.49,4.268C383.792,332.043,384.465,330.28,383.352,330.277z"/>
	<path fill="#8EA031" d="M404.378,329.477c-1.962-3.848-1.942-8.172-6.901-9.358c-0.887-0.212-1.827,1.474-0.845,1.709
		c3.048,0.729,4.181,2.865,5.123,5.638c0.39,1.148,3.186,6.678,2.145,7.053c-0.85,0.306-1.168,2.106-0.042,1.701
		C407.604,334.872,405.738,332.144,404.378,329.477z"/>
	<path fill="#8EA031" d="M370.645,332.824c-0.044,0.495-0.021,0.964,0.027,1.458c0.116,1.202,1.727,0.459,1.638-0.464
		c-0.048-0.493-0.071-0.963-0.027-1.458C372.389,331.168,370.725,331.923,370.645,332.824z"/>
	<path fill="#8EA031" d="M512.829,267.608c-1.373-0.181-2.826,0.864-4.058,1.309c-0.3,0.108-0.528,0.405-0.655,0.723
		c-0.027,0.006-0.057-0.009-0.082,0.001c-1.203,0.482-2.375,0.981-3.45,1.716c-0.18,0.123-0.348,0.288-0.467,0.477
		c-0.396-0.034-0.783,0.288-0.968,0.685c-13.597,8.261-26.43,17.702-39.535,26.715c-0.136,0.094-0.24,0.223-0.322,0.366
		c-0.389,0.168-0.761,0.561-0.759,1c0.007,1.305-1.021,2.418-1.699,3.456c-0.822,1.257-1.575,2.55-2.431,3.788
		c-0.181,0.262-0.258,0.703-0.153,1.007c-0.154-0.066-0.359-0.058-0.624,0.082c-7.862,4.166,7.188,10.379,12.256,6.729
		c0.533-0.384,1.42-1.543,1.822-2.03c3.632-4.402,8.22-3.58,11.391,0.036c2.598,2.963-3.424,4.29-4.269,5.826
		c-2.046,3.722,4.83,4.761,7.094,4.744c0.896-0.007,1.568-1.772,0.456-1.764c-2.033,0.015-8.506-1.327-3.982-3.583
		c1.348-0.673,1.916-1.37,2.691-2.626c1.522-2.466-1.556-5.095-3.285-6.228c-2.542-1.665-6.682-1.812-9.01,0.387
		c-2.101,1.984-3.394,4.66-6.605,5.025c-1.382,0.157-11.779-3.082-8.183-4.988c0.504-0.267,0.664-0.924,0.503-1.325
		c0.113,0.046,0.253,0.057,0.442-0.005c2.478-0.811,4.639-2.617,7.289-2.844c0.316-0.027,0.601-0.275,0.79-0.575
		c0.14,0.038,0.311,0.024,0.54-0.123c6.889-4.409,13.182-9.81,20.13-14.228c6.665-4.238,13.08-9.081,19.283-13.92
		c0.216,0.158,0.542,0.17,0.921-0.107c0.63-0.462,1.296-0.864,1.978-1.244c0.151,0.09,0.357,0.036,0.566-0.066
		c0.208,0.104,0.469,0.108,0.676-0.037c2.042-1.422,5.046-2.649,4.319-5.691C515.115,268.949,514.236,267.794,512.829,267.608z
		 M460.866,306.664c0.509-0.812,1.017-1.625,1.554-2.419c0.406-0.6,0.824-1.214,1.153-1.861c0.375,0.908,1.012,1.656,1.759,2.388
		C463.753,305.178,462.34,305.971,460.866,306.664z M487.32,289.834c-3.298,2.263-6.696,4.377-9.981,6.664
		c-3.451,2.402-6.621,5.306-10.149,7.564c-0.016,0.01-0.026,0.027-0.042,0.039c-0.017-0.156-0.065-0.305-0.19-0.423
		c-0.979-0.925-2.038-1.844-2.112-3.285c-0.004-0.079-0.031-0.128-0.047-0.191c12.936-8.922,25.645-18.242,39.09-26.381
		c0.858,0.538,1.788,1.634,2.085,2.432c0.012,0.031,0.033,0.044,0.046,0.071C499.969,281.025,493.652,285.489,487.32,289.834z
		 M507.582,275.77c0.028-0.133,0.035-0.268-0.014-0.398c-0.348-0.937-1.158-2.042-2.08-2.794c0.663-0.401,1.353-0.744,2.069-1.044
		c0.655,1.047,1.402,1.963,1.816,3.094C508.758,274.98,508.162,275.362,507.582,275.77z M513.178,272.883
		c-0.642,0.521-1.388,0.915-2.089,1.362c-0.359-1.436-1.197-2.547-1.982-3.783c0.701-0.281,1.383-0.607,2.09-0.872
		c1.102-0.414,1.806-0.171,2.356,0.884C514.076,271.473,514.045,272.179,513.178,272.883z"/>
	<path fill="#8EA031" d="M344.826,241.516c-0.824,0.254-1.569,0.585-2.301,1.044c-0.9,0.564-1.252,0.489-2.127-0.135
		c-1.144-0.817-2.888,0.765-3.718,1.405c-0.873,0.672-0.231,2.024,0.772,1.251c0.577-0.444,1.418-1.327,2.151-0.864
		c0.399,0.252,0.983,0.558,1.458,0.624c1.2,0.166,2.616-1.282,3.723-1.623C345.657,242.949,345.976,241.162,344.826,241.516z"/>
	<path fill="#8EA031" d="M356.403,238.874c-1.68,0.683-3.497-0.281-5.148,0.567c-0.981,0.503-1.696,0.802-2.787,0.72
		c-0.734-0.055-1.604,0.795-2.138,1.223c-0.858,0.687-0.218,2.045,0.772,1.251c1.059-0.849,2.751-0.718,4.025-1.408
		c1.647-0.892,3.493,0.056,5.234-0.652C357.19,240.238,357.504,238.426,356.403,238.874z"/>
	<path fill="#8EA031" d="M339.307,252.628c-1.846,0.397-3.191,1.758-5.122,1.811c-1.271,0.035-2.396,0.771-3.404,1.457
		c-1.44,0.98-3.012,0.417-4.509,0.984c-1.082,0.41-1.476,1.659-2.298,2.366c-0.828,0.712-0.193,2.081,0.772,1.251
		c0.962-0.827,1.513-2.138,3.117-1.944c1.03,0.125,1.696-0.166,2.592-0.664c1.575-0.875,2.474-1.377,4.3-1.741
		c1.65-0.329,2.865-1.466,4.51-1.82C340.169,254.136,340.489,252.374,339.307,252.628z"/>
	<path fill="#8EA031" d="M346.754,249.271c-1.689,0.418-4.128,0.936-4.659,2.875c-0.336,1.225,1.314,0.93,1.574-0.017
		c0.078-0.284,0.94-0.544,1.224-0.646c0.593-0.213,1.209-0.36,1.82-0.511C347.606,250.752,347.927,248.981,346.754,249.271z"/>
	<path fill="#8EA031" d="M360.598,247.408c-1.289-0.611-2.086-1.414-3.571-1.305c-1.631,0.12-2.564,0.928-4.296,0.492
		c-1.885-0.474-3.892,1.865-4.756,3.273c-0.668,1.089,0.844,1.349,1.404,0.437c0.283-0.461,1.792-2.103,2.507-2.001
		c0.861,0.123,1.545,0.36,2.435,0.249c0.617-0.077,1.215-0.393,1.8-0.593c1.416-0.484,2.462,0.603,3.632,1.157
		C360.568,249.503,361.532,247.851,360.598,247.408z"/>
	<path fill="#8EA031" d="M327.497,266.233c-0.957,0.56-2.047,0.632-3.071,1.011c-1.076,0.399-1.791,1.186-2.37,2.147
		c-0.208,0.346-0.16,0.936,0.279,1.073c0.485,0.151,0.9-0.264,1.124-0.636c0.864-1.435,3.055-1.273,4.412-2.067
		C328.717,267.267,328.593,265.591,327.497,266.233z"/>
	<path fill="#8EA031" d="M340.03,260.247c-0.757,0.353-1.397,0.811-2.059,1.318c-1.142,0.874-2.111,0.982-3.52,0.977
		c-1.768-0.006-3.103,0.843-4.426,1.928c-0.848,0.696-0.21,2.057,0.772,1.251c0.83-0.681,1.595-1.249,2.686-1.39
		c0.82-0.106,1.688,0.135,2.496-0.053c1.737-0.406,2.852-1.767,4.427-2.502C341.308,261.354,341.179,259.711,340.03,260.247z"/>
	<path fill="#8EA031" d="M366.038,253.297c-3.609-0.505-6.933-0.335-10.351,1.152c-2.352,1.024-5.088,2.376-7.604,2.773
		c-1.432,0.226-2.034,0.695-2.907,1.814c-0.742,0.951,0.387,1.826,1.128,0.875c0.829-1.063,2.91-0.909,4.07-1.446
		c1.546-0.716,3.115-1.368,4.675-2.047c3.456-1.504,6.835-1.876,10.533-1.358C366.47,255.185,367.148,253.452,366.038,253.297z"/>
	<path fill="#8EA031" d="M335.652,271.702c-2.339-0.436-7.642,0.436-7.303,3.701c0.111,1.075,1.685-0.008,1.595-0.88
		c-0.042-0.406,1.788-0.827,2.055-0.893c0.869-0.217,1.915-0.385,2.809-0.219C335.701,273.577,336.633,271.884,335.652,271.702z"/>
	<path fill="#8EA031" d="M361.836,263.473c-1.577,0.25-4.443,0.267-5.818,1.265c-1.135,0.823-2.28,1.823-3.679,1.122
		c-0.309-0.155-0.952-0.204-1.291-0.023c-2.534,1.359-4.602,1.846-7.351,2.307c-1.74,0.292-3.155,1.103-4.328,2.358
		c-0.83,0.889,0.319,1.741,1.128,0.875c1.833-1.961,4.473-1.533,6.79-1.811c1.454-0.174,2.811-2.23,4.206-1.998
		c1.752,0.291,1.681,0.79,3.299,0.017c1.398-0.668,1.068-1.216,2.914-1.765c0.543-0.162,3.168-0.5,4.088-0.646
		C362.71,265.029,363.029,263.284,361.836,263.473z"/>
	<path fill="#8EA031" d="M373.282,260.671c-2.491,0.087-4.798,0.3-7.112,1.288c-0.919,0.392-0.788,2.025,0.375,1.528
		c2.019-0.862,4.117-0.977,6.281-1.053C373.719,262.404,374.389,260.633,373.282,260.671z"/>
	<path fill="#8EA031" d="M336.908,280.527c-1.864,0.937-3.67,3.54-3.561,5.677c0.061,1.207,1.684,0.46,1.638-0.464
		c-0.069-1.369,1.099-3.082,2.299-3.685C338.169,281.61,338.042,279.957,336.908,280.527z"/>
	<path fill="#8EA031" d="M351.756,274.954c-1.074,0.451-2.228,0.534-3.307,0.987c-1.104,0.463-1.869,1.327-3.089,1.625
		c-1.878,0.459-3.342,0.322-4.574,2.042c-0.698,0.974,0.423,1.86,1.128,0.875c1.093-1.527,3.307-0.813,4.773-1.664
		c0.732-0.425,1.397-0.939,2.137-1.35c0.966-0.537,2.268-0.55,3.307-0.987C353.053,276.095,352.921,274.464,351.756,274.954z"/>
	<path fill="#8EA031" d="M368.159,268.183c-2.257,0.708-4.643,2.593-6.968,2.811c-0.755,0.071-1.307-0.536-2.071-0.2
		c-1.008,0.443-1.746,1.049-2.494,1.841c-0.835,0.884,0.316,1.736,1.128,0.875c1.169-1.238,1.216-0.837,2.473-0.777
		c0.866,0.041,1.53-0.109,2.337-0.426c1.893-0.744,3.59-1.808,5.552-2.423C368.987,269.611,369.307,267.823,368.159,268.183z"/>
	<path fill="#8EA031" d="M379.605,265.381c-1.146,0.141-2.197,0.441-3.257,0.895c-0.919,0.393-0.787,2.026,0.375,1.528
		c0.779-0.333,1.586-0.556,2.426-0.659C380.025,267.037,380.686,265.248,379.605,265.381z"/>
	<path fill="#8EA031" d="M344.138,288.811c-1.798,0.421-4.043,1.419-3.496,3.674c0.262,1.08,1.806-0.01,1.595-0.88
		c-0.194-0.8,1.277-0.956,1.859-1.092C344.994,290.302,345.315,288.536,344.138,288.811z"/>
	<path fill="#8EA031" d="M359.864,283.611c-2.355-2.754-8.363,1.558-9.674,3.842c-0.636,1.108,0.867,1.372,1.404,0.437
		c0.725-1.262,5.515-4.569,6.826-3.036C359.092,285.641,360.449,284.295,359.864,283.611z"/>
	<path fill="#8EA031" d="M377.397,277.129c-1.204,0.161-3.771,1.975-4.724,1.123c-0.292-0.261-0.726-0.054-0.98,0.14
		c-0.884,0.676-1.737,1.102-2.866,1.043c-0.242-0.013-0.879,0.078-1.174,0.225c-0.437,0.218-2.633,2.402-2.99,1.677
		c-0.177-0.359-0.627-0.264-0.91-0.143c-0.34,0.146-0.524,0.284-0.808,0.526c-0.782,0.664-0.267,1.884,0.601,1.356
		c0.787,0.883,1.914,0.248,2.853-0.515c1.293-1.05,1.738-1.323,3.48-1.324c0.701,0,1.46-0.639,2.072-1.164
		c1.58,0.803,3.41-0.969,4.991-1.18C377.813,278.776,378.473,276.985,377.397,277.129z"/>
	<path fill="#8EA031" d="M385.876,275.938c-1.395,0.129-2.797,0.136-4.192,0.266c-0.883,0.082-1.547,1.865-0.456,1.764
		c1.395-0.13,2.797-0.137,4.192-0.266C386.304,277.62,386.968,275.838,385.876,275.938z"/>
	<path fill="#8EA031" d="M346.807,297.464c-1.665,0.606-3.445,1.371-4.203,3.097c-0.51,1.161,0.961,1.445,1.404,0.437
		c0.464-1.057,1.75-1.466,2.758-1.833c0.454-0.165,0.827-0.579,0.84-1.082C347.615,297.657,347.238,297.307,346.807,297.464z"/>
	<path fill="#8EA031" d="M355.044,295.487c-1.387,0.499-2.686,1.499-4.159,1.713c-0.489,0.071-0.888,0.398-1.015,0.89
		c-0.092,0.358,0.076,0.943,0.559,0.873c1.675-0.243,3.01-1.213,4.573-1.775c0.454-0.163,0.827-0.581,0.84-1.082
		C355.852,295.679,355.475,295.332,355.044,295.487z"/>
	<path fill="#8EA031" d="M366.135,291.271c-3.068,0.697-6.285,1.289-8.867,3.199c-0.888,0.657-0.243,2.002,0.772,1.251
		c2.28-1.687,5.35-2.134,8.053-2.748C366.993,292.768,367.314,291.004,366.135,291.271z"/>
	<path fill="#8EA031" d="M381.802,285.777c-4.337,0.83-8.93,1.712-12.462,4.54c-0.858,0.687-0.219,2.045,0.772,1.251
		c3.248-2.601,7.666-3.327,11.648-4.089C382.67,287.304,382.99,285.549,381.802,285.777z"/>
	<path fill="#8EA031" d="M391.947,282.946c-2.324,0.239-4.646,0.51-6.758,1.577c-0.885,0.447-0.758,2.101,0.375,1.528
		c1.839-0.929,3.906-1.134,5.927-1.341C392.372,284.619,393.035,282.834,391.947,282.946z"/>
	<path fill="#8EA031" d="M450.544,251.47c-0.618-0.933-1.37-1.786-2.054-2.67c-0.426-0.551-0.842-1.109-1.239-1.682
		c-0.16-0.232-0.31-0.47-0.454-0.712c-0.126-0.212-0.144-0.321-0.151-0.354c-0.001-0.036-0.014-0.07-0.02-0.105
		c0.005-0.215-0.079-0.374-0.22-0.472c-3.789-5.991-6.023-12.686-10.036-18.597c-1.803-2.656-3.746-5.156-6.014-7.429
		c-1.452-1.456-3.119-2.735-4.62-4.147c-0.905-0.851-2.733-1.861-3.379-3.038c0.08-0.391-0.043-0.732-0.535-0.689
		c-16.868,1.484-36.776,6.6-47.561,20.799c-0.236,0.311-0.265,0.607-0.187,0.841c-0.069,0.264-0.036,0.541,0.176,0.775
		c5.266,5.831,12.232,10.01,17.322,15.968c2.464,2.884,4.715,6.129,6.906,9.224c1.679,2.371,2.859,5.398,4.931,7.443
		c0.008,0.008,0.018,0.007,0.027,0.015c0.023,0.356,0.241,0.635,0.756,0.536c7.269-1.403,14.365-4.799,21.327-7.281
		c7.589-2.705,15.289-5.391,23.321-6.356c0.299-0.036,0.566-0.272,0.754-0.557C450.208,252.969,450.931,252.054,450.544,251.47z
		 M437.178,254.395c-1.006-1.652-2.275-3.225-3.347-4.855c-1.137-1.731-2.027-3.549-3.43-5.095c-0.621-0.685-1.832,0.82-1.187,1.531
		c1.438,1.585,2.346,3.551,3.513,5.327c0.81,1.233,1.729,2.43,2.547,3.661c-2.672,0.823-5.327,1.723-7.989,2.627
		c-7.415,2.52-14.841,6.181-22.53,7.764c-0.033-0.094-0.08-0.185-0.158-0.262c-2.327-2.296-3.812-5.938-5.702-8.607
		c-2.102-2.969-4.364-6.478-6.964-9.036c-5.144-5.062-11.111-9.208-16.028-14.502c0.021-0.112,0.023-0.222,0.008-0.325
		c10.378-13.025,29.128-17.78,44.964-19.235c0.822,1.457,2.442,2.306,3.673,3.445c3.438,3.183,6.737,6.183,9.491,10.011
		c4.517,6.279,6.855,13.471,10.953,19.927c0.126,0.884,0.942,1.788,1.398,2.409c0.674,0.918,1.409,1.798,2.094,2.711
		C444.628,252.411,440.882,253.314,437.178,254.395z"/>
	<path fill="#8EA031" d="M412.514,269.81c-3.12,0.33-6.842,0.917-8.554,3.876c-0.639,1.106,0.864,1.37,1.404,0.437
		c1.182-2.044,4.599-2.328,6.694-2.549C412.938,271.481,413.601,269.695,412.514,269.81z"/>
	<path fill="#8EA031" d="M453.41,260.279c-3.006-0.069-5.83-1.278-8.87-1.042c-0.396,0.031-0.737,0.404-0.908,0.799
		c-0.061-0.4-0.374-0.67-0.937-0.373c-1.632,0.86-3.377,0.659-4.897,1.311c-2.363,1.015-4.621,1.7-7.144,2.333
		c-2.559,0.642-4.335,2.636-7.193,2.464c-2.149-0.13-4.336,1.275-6.356,1.795c-0.89,0.229-1.211,2.002-0.042,1.701
		c2.456-0.632,4.587-1.815,7.2-1.657c2.066,0.125,4.567-1.94,6.35-2.602c2.581-0.959,4.028-0.392,6.403-2.009
		c0.923-0.628,2.347-0.205,3.375-0.496c0.885-0.251,1.878-0.89,2.68-1.313c0.226-0.119,0.382-0.318,0.474-0.537
		c0.051,0.218,0.207,0.372,0.539,0.346c3.032-0.235,5.865,0.973,8.87,1.042C453.852,262.063,454.526,260.305,453.41,260.279z"/>
	<path fill="#8EA031" d="M425.721,269.835c-2.207,1.219-5.175,1.833-7.598,2.531c-2.593,0.748-5.059,1.878-7.395,3.219
		c-0.851,0.489-0.727,2.161,0.375,1.528c2.553-1.465,5.216-2.538,8.042-3.352c2.261-0.652,4.888-1.258,6.95-2.398
		C426.958,270.887,426.833,269.22,425.721,269.835z"/>
	<path fill="#8EA031" d="M454.656,264.533c-8.477-0.918-16.515,0.916-24.505,3.648c-0.858,0.293-1.177,2.089-0.042,1.701
		c7.844-2.682,15.761-4.488,24.091-3.586C455.093,266.394,455.77,264.654,454.656,264.533z"/>
	<path fill="#8EA031" d="M439.282,239.128c-1.735-4.53-6.936-8.223-11.834-7.743c-0.332-3.006-1.059-6.316-4.637-6.567
		c-1.516-0.106-3.389,0.266-4.539,1.291c-1.392,1.242-0.987,2.882-0.498,4.407c-3.864,1.051-7.315,3.448-6.596,7.884
		c0.73,4.499,4.412,6.417,8.373,6.523c-1.139,1.434-1.855,2.704-0.962,4.589c0.882,1.861,3.351,3.491,5.392,3.637
		c1.456,0.104,8.377-0.197,7.325-3.097c-0.383-1.053-1.901,0.036-1.595,0.88c-0.166-0.456-0.182-0.217-0.73-0.054
		c-0.392,0.116-0.798,0.186-1.2,0.261c-0.995,0.186-2.024,0.251-3.035,0.255c-1.222,0.005-2.292-0.737-3.257-1.42
		c-0.628-0.445-1.046-1.069-1.456-1.705c-0.791-1.228,0.38-2.159,1.051-2.973c0.127-0.154,0.187-0.302,0.22-0.444
		c0.348-0.036,0.695-0.081,1.04-0.143c0.912-0.162,1.232-1.913,0.042-1.701c-3.306,0.589-6.744-0.017-8.62-2.986
		c-2.598-4.111,0.088-6.778,4.054-7.833c0.334-0.089,0.588-0.397,0.712-0.729c0.543-0.04,1.195-0.718,1.004-1.303
		c-0.416-1.276-1.185-2.881,0.678-3.358c1.099-0.282,2.532-0.398,3.558,0.145c1.594,0.844,1.873,3.172,2.045,4.914
		c-0.52,0.55-0.559,1.656,0.391,1.422c3.934-0.969,7.564,1.507,10.017,4.372c1.797,2.099,4.769,9.502,0.518,10.868
		c-0.867,0.278-1.186,2.069-0.042,1.701C441.447,248.698,440.664,242.735,439.282,239.128z"/>
	<path fill="#8EA031" d="M399.148,228.639c-2.208-1.958-6.086-1.991-8.065,0.125c-0.116-0.304-0.409-0.483-0.902-0.252
		c-2.898,1.358-2.981,5.314-1.795,7.861c1.707,3.667,6.083,2.111,8.61,0.423C399.599,235.057,402.074,231.233,399.148,228.639z
		 M395.483,235.975c-1.883,1.086-4.117,1.452-5.487-0.555c-0.928-1.359-1.184-4.322,0.409-5.271
		c0.208,0.451,1.113,0.415,1.517-0.254c1.146-1.898,4.625-0.678,6.038,0.275C400.696,232.017,397.117,235.032,395.483,235.975z"/>
	<path fill="#8EA031" d="M394.821,240.796c0.497-1.165-0.971-1.451-1.404-0.437c-0.37,0.867-0.22,2.048-0.236,2.964
		c-0.02,1.167,0.015,2.347-0.078,3.511c-0.095,1.196,1.566,0.44,1.638-0.463c0.079-0.993,0.055-1.999,0.07-2.993
		c0.008-0.574,0.018-1.147,0.033-1.72c0.007-0.253,0.016-0.506,0.029-0.759C394.884,240.666,395.036,240.293,394.821,240.796z"/>
	<path fill="#8EA031" d="M400.092,238.933c-0.482-0.89-1.879,0.441-1.445,1.243c1.088,2.009,2.501,4.115,3.184,6.301
		c0.333,1.068,1.862-0.022,1.595-0.88C402.702,243.277,401.245,241.062,400.092,238.933z"/>
	<path fill="#8EA031" d="M407.637,236.058c-1.271-0.871-3.712-3.228-5.38-2.126c-0.388,0.256-0.731,0.709-0.61,1.204
		c0.107,0.438,0.63,0.559,0.985,0.324c0.383-0.253,1.444,0.509,1.765,0.707c0.709,0.437,1.366,0.95,2.052,1.421
		C407.242,238.132,408.419,236.594,407.637,236.058z"/>
	<path fill="#8EA031" d="M410.223,225.589c-2.809,0.632-5.627,1.136-8.252,2.368c-0.901,0.423-0.773,2.067,0.375,1.528
		c2.476-1.162,5.187-1.6,7.835-2.195C411.081,227.088,411.402,225.324,410.223,225.589z"/>
	<path fill="#8EA031" d="M402.082,220.325c-0.793,1.903-2.649,3.183-3.143,5.245c-0.296,1.235,1.344,0.944,1.574-0.017
		c0.435-1.815,2.255-3.07,2.973-4.791C403.973,219.594,402.507,219.306,402.082,220.325z"/>
	<path fill="#8EA031" d="M395.573,221.208c-0.29,0.956-0.621,1.861-0.573,2.875c0.058,1.208,1.682,0.46,1.637-0.464
		c-0.041-0.861,0.263-1.617,0.509-2.428C397.515,219.976,395.856,220.274,395.573,221.208z"/>
</g>
</svg>
