<?xml version="1.0" encoding="utf-8"?>
<!-- Generator: Adobe Illustrator 17.0.0, SVG Export Plug-In . SVG Version: 6.00 Build 0)  -->
<!DOCTYPE svg PUBLIC "-//W3C//DTD SVG 1.1//EN" "http://www.w3.org/Graphics/SVG/1.1/DTD/svg11.dtd">
<svg version="1.1" id="Слой_1" xmlns="http://www.w3.org/2000/svg" xmlns:xlink="http://www.w3.org/1999/xlink" x="0px" y="0px"
	 width="131.15px" height="148.527px" viewBox="0 0 131.15 148.527" enable-background="new 0 0 131.15 148.527"
	 xml:space="preserve">
<g>
	<g>
		<path fill="#FFFFFF" d="M67.284,129.738c-0.557,0.181,0.903,1.692,1.511,1.495C69.352,131.052,67.892,129.541,67.284,129.738z"/>
		<path fill="#8EA031" d="M129.187,108.575c-0.041-0.054-0.109-0.116-0.191-0.181c-7.967-18.248-13.597-37.398-20.109-56.189
			c-5.666-16.351-9.228-33.588-18.586-48.396c-0.427-0.676-1.632-1.596-2.496-1.289c-3.238,1.151-6.461,2.333-9.681,3.52
			c-1.791-2.135-4.127-3.884-6.805-4.997c-3.482-1.448-7.527-1.439-10.862,0.361c-1.654,0.893-2.824,2.148-3.639,3.604
			c-3.901-1.711-8.605-1.901-12.31,0.353c-1.637,0.996-2.776,2.362-3.556,3.925c-0.252-0.138-0.503-0.284-0.758-0.406
			c-7.937-3.826-15.606-0.153-18.646,6.255c-8.908-4.267-22.93,6.928-16.048,15.896c-1.494,0.389-2.988,0.775-4.491,1.141
			c-0.336,0.082,0.346,0.979,0.663,0.925c1.026-0.173,2.048-0.363,3.068-0.558c-0.496,7.336,3.131,14.328,5.947,20.89
			c4.014,9.353,7.24,19.132,10.533,28.758c3.67,10.731,7.431,21.406,11.628,31.945c3.772,9.471,8.257,18.655,11.488,28.327
			c-0.694,0.159-1.387,0.325-2.086,0.468c-2.53-7.509-6.513-14.45-9.171-21.929c-3.513-9.888-6.845-19.839-10.449-29.695
			c-7.1-19.413-13.327-39.166-21.416-58.202c-0.128-0.302-1.381-1.162-1.197-0.612c6.27,18.725,12.724,37.404,19.324,56.016
			c3.277,9.242,6.439,18.52,9.624,27.794c3.196,9.303,8.247,17.948,11.041,27.348c0.242,0.814,1.646,1.705,2.5,1.548
			c14.961-2.747,28.842-9.014,42.82-14.779c14.921-6.154,31.293-8.838,45.659-16.247c0.121-0.061,0.174-0.158,0.161-0.293
			C130.912,111.774,130.455,110.255,129.187,108.575z M68.651,1.722c3.39,0.248,6.297,2.11,8.23,4.768
			C72.797,8,68.721,9.527,64.65,11.058c-1.524-1.928-3.442-3.604-5.588-4.889C61.12,3.259,64.197,1.396,68.651,1.722z M58.508,7.018
			c1.966,1.075,3.64,2.639,4.896,4.508c-2.477,0.932-4.956,1.85-7.433,2.777C56.426,11.668,57.238,9.127,58.508,7.018z
			 M55.345,5.792c0.325,0.076,0.64,0.175,0.955,0.275c-1.084,2.582-1.225,5.633-0.924,8.458c-2.181,0.815-4.36,1.64-6.544,2.445
			c-1.462-2.421-3.448-4.588-5.641-6.235C45.472,6.761,49.393,4.407,55.345,5.792z M42.832,11.402
			c2.15,1.559,3.722,3.685,4.656,6.063c-2.252,0.827-4.51,1.638-6.768,2.447C40.911,16.841,41.587,13.857,42.832,11.402z
			 M37.947,9.182c0.944,0.221,1.811,0.547,2.634,0.924c-1.193,2.957-1.242,6.481-0.853,9.584c0.013,0.107,0.16,0.292,0.334,0.461
			c-3.312,1.183-6.631,2.348-9.965,3.47c-1.846-2.978-4.266-5.598-6.596-7.29C25.957,11.075,30.949,7.546,37.947,9.182z
			 M23.161,17.104c2.406,1.459,4.443,4,5.752,6.917c-2.34,0.781-4.69,1.536-7.045,2.277C21.562,23.13,22.017,19.909,23.161,17.104z
			 M21.111,16.158c-1.174,3.083-1.312,6.693,0.017,10.37c-4.975,1.555-9.983,3.024-15.043,4.354
			C2.205,22.837,13.376,13.781,21.111,16.158z M45.748,142.133c-2.969-8.574-6.872-16.778-10.299-25.18
			c-4.293-10.525-8.204-21.203-11.659-32.032c-2.98-9.339-6.31-18.593-9.892-27.719c-3.19-8.128-8.166-15.81-8.732-24.708
			l-0.003-0.01c1.091-0.216,2.228-0.455,3.29-0.678c0.086,8.382,5.166,17.114,7.874,24.8c3.644,10.34,6.447,20.961,10.233,31.25
			c3.555,9.661,7.994,18.967,11.526,28.642c3.01,8.246,5.622,17.548,10.654,24.861C47.746,141.632,46.752,141.887,45.748,142.133z
			 M50.22,140.95c-4.562-7.029-7.043-15.84-9.855-23.604c-3.51-9.691-7.854-19.032-11.562-28.643
			c-3.701-9.597-6.379-19.597-9.748-29.315c-3.237-9.336-7.21-18.224-9.777-27.77c1.025-0.219,2.052-0.429,3.072-0.663
			c4.451,22.45,13.956,43.834,22.335,65.017c3.935,9.948,7.764,19.939,11.685,29.891c1.86,4.72,2.779,10.768,6.78,14.21
			C52.178,140.377,51.2,140.668,50.22,140.95z M88.463,126.34c-11.318,4.372-22.358,9.545-33.876,13.28
			c-2.069-1.973-3.011-5.564-3.916-8.101c-1.383-3.879-2.875-7.663-4.432-11.478c-3.944-9.667-7.512-19.485-11.395-29.178
			c-7.943-19.826-15.459-39.665-21.822-60.058c5.63-1.311,11.195-2.867,16.719-4.575c1.449,4.742,0.945,9.91-2.832,12.723
			c-0.738,0.55,1.642,2.2,2.308,1.749c5.221-3.538,4.742-9.555,2.066-14.949c5.685-1.791,11.321-3.755,16.935-5.795
			c0.82,4.14-0.115,8.644-3.065,12.044c-0.466,0.537,1.657,2.011,2.255,1.501c4.604-3.921,4.75-9.341,2.63-14.211
			c4.891-1.794,9.762-3.647,14.63-5.503c2.034,4.655,0.382,9.018-1.364,13.458c-0.29,0.737,1.889,2.163,2.349,1.515
			c3.67-5.16,3.209-10.852,0.482-15.532c4.014-1.531,8.026-3.059,12.041-4.562c1.819,3.992,0.711,7.929-0.384,11.94
			c-0.207,0.757,1.989,2.197,2.349,1.515c2.542-4.813,1.963-9.888-0.514-13.994c3.044-1.133,6.091-2.252,9.144-3.336
			c9.002,15.384,12.612,33.268,18.29,50.014c3.702,10.916,7.139,21.916,10.968,32.775c-3.201,1.005-5.751,2.904-8.558,4.767
			c-4.102,2.722-8.886,3.717-13.532,5.145c-0.198,0.061-0.165,0.285-0.109,0.428c2.839,7.233,6.446,14.205,9.7,21.259
			c0.149,0.324,1.03,0.93,1.624,1.136C100.877,122.188,94.592,123.972,88.463,126.34z M102.971,109.402
			c-1.579-3.218-6.647-9.732-1.417-11.265c2.828-0.829,6.047-1.51,8.453-3.304c2.622-1.956,4.96-4.156,7.706-5.898
			c-1.632,5.792-3.36,11.429-5.689,17.02c-1.818,4.364-4.47,7.906-4.9,12.597C105.951,115.414,104.447,112.41,102.971,109.402z
			 M123.089,114.918c-3.7,1.625-7.584,2.841-11.437,4.039c-1.095,0.341-2.192,0.673-3.289,1.002
			c0.77-5.066,4.173-9.255,6.224-13.887c2.018-4.558,3.722-9.262,5.033-14.074c2.161,5.915,4.453,11.783,7.019,17.554
			c0.138,0.311,0.66,0.647,1.243,0.893C128.042,112.666,125.686,113.776,123.089,114.918z"/>
		<path fill="#8EA031" d="M94.68,66.615c-2.799,4.038-5.54,6.713-11.039,2.706c-0.297-0.217-1.569-1.048-1.91-0.493
			c-1.03,1.678-2.003,3.394-3.118,5.017c-1.468,2.136-4.937,0.251-6.838-0.367c-0.171-0.056-0.763-0.241-0.877,0.041
			c-0.765,1.892-1.501,3.671-2.748,5.296c-1.861,2.426-7.309-1.784-8.733-2.579c-0.206-0.115-0.926-0.452-1.117-0.125
			c-1.92,3.272-2.982,7.95-8.148,3.797c-0.106-0.085-0.632-0.433-0.688-0.113c-0.137,0.758-0.264,1.517-0.379,2.278
			c-0.006,0.04,0.088,0.198,0.128,0.143c1.344-1.85,4.341,1.581,6.483,1.423c1.636-0.121,2.691-2.402,3.395-3.567
			c1.792-2.963,4.557,0.199,6.865,0.946c5.564,1.799,5.597-6.225,9.754-4.893c4.836,1.549,5.983-1.424,8.248-5.207
			c4.786,2.893,9.975,3.238,13.032-2.793C97.347,67.424,95.118,65.984,94.68,66.615z"/>
		<path fill="#8EA031" d="M85.208,48.399c-2.799,4.038-5.54,6.713-11.039,2.706c-0.297-0.217-1.569-1.048-1.91-0.493
			c-1.03,1.678-2.003,3.394-3.118,5.017c-1.468,2.136-4.937,0.251-6.838-0.367c-0.171-0.056-0.763-0.241-0.877,0.041
			c-0.765,1.892-1.501,3.671-2.748,5.296c-1.861,2.426-7.309-1.784-8.733-2.579c-0.206-0.115-0.926-0.452-1.117-0.125
			c-1.92,3.272-2.982,7.95-8.148,3.797c-0.106-0.085-0.632-0.433-0.688-0.113c-0.137,0.758-0.264,1.517-0.379,2.278
			c-0.006,0.04,0.088,0.198,0.128,0.143c1.345-1.85,4.341,1.581,6.483,1.423c1.636-0.121,2.691-2.402,3.395-3.567
			c1.792-2.963,4.557,0.199,6.865,0.946c5.564,1.799,5.597-6.225,9.754-4.893c4.836,1.549,5.983-1.424,8.248-5.207
			c4.786,2.893,9.975,3.238,13.032-2.793C87.875,49.208,85.645,47.768,85.208,48.399z"/>
		<path fill="#8EA031" d="M97.018,79.344c-2.968,0.631-3.271,2.958-5.501,4.823c-1.825,1.527-4.208,0.217-6.283,0.884
			c-2.204,0.708-2.793,6.902-5.791,5.444c-1.438-0.699-3.365,0.142-4.427-0.331c-0.808-0.36-1.109-0.284-1.806,0.265
			c-2.539,2-3.725,5.641-7.175,5.706c-5.167,0.097-7.98-4.129-9.167,3.232c-0.033,0.208,0.495,0.844,0.591,0.592
			c1.33-3.473,2.744-4.466,6.466-3c2.038,0.803,4.173,1.045,6.308,0.541c1.383-0.326,2.288-2.801,3.097-3.758
			c2.044-2.417,2.255-1.667,5.061-2.102c1.203-0.186,2.377,0.948,3.663,0.9c2.232-0.084,3.231-2.626,3.999-4.245
			c1.185-2.501,4.345-1.139,6.529-1.697c3.081-0.788,3.545-4.666,6.528-5.554C99.788,80.842,97.76,79.186,97.018,79.344z"/>
	</g>
	<g>
		<path fill="#8EA031" d="M130.275,136.027c-1.628-2.178-3.501-3.969-5.757-5.488c-2.221-1.495-4.584-3.533-7.061-4.585
			c-0.292-0.124-0.617,0.035-0.848,0.282c-0.314,0.035-0.658,0.243-0.77,0.603c-0.364,1.169-0.087,2.319,0.034,3.492
			c-1.839-0.115-3.61-0.053-5.469-0.126c-1.848-0.072-3.565-0.538-5.381-0.191c-0.263-0.278-0.836-0.238-1.101,0.286
			c-0.062,0.122-0.089,0.249-0.139,0.372c-0.064,0.006-0.121,0.003-0.196,0.027c-0.691,0.218-1.173,0.958-1.563,1.52
			c-0.443,0.638-0.81,1.325-1.205,1.993c-0.066,0.111-0.104,0.213-0.122,0.307c-0.14,0.13-0.249,0.288-0.283,0.463
			c-0.268,1.379,0.079,2.731,0.307,4.094c0.324,1.934,0.098,4.065,0.098,6.025c0,0.386,0.206,0.551,0.459,0.568
			c-0.016,0.297,0.133,0.523,0.557,0.419c2.081-0.512,4.157-0.768,6.301-0.801c1.57-0.024,3.159-0.362,4.698,0.096
			c0.178,0.053,0.368,0.012,0.541-0.082c0.012,0.045,0.013,0.091,0.038,0.133c0.425,0.709,0.839,1.422,1.214,2.159
			c0.09,0.176,0.229,0.251,0.381,0.265c-0.034,0.134-0.043,0.272,0.024,0.409c0.169,0.347,0.66,0.31,0.921,0.097
			c0.375-0.306,1.031-0.322,1.467-0.148c0.3,0.12,0.633-0.052,0.865-0.309c0.131-0.034,0.264-0.094,0.396-0.224
			c0.873-0.862,2.03-1.349,2.948-2.169c0.955-0.855,1.818-1.799,2.735-2.693c1.731-1.69,3.608-3.222,4.705-5.427
			c0.04-0.08,0.052-0.15,0.07-0.221c0.007,0.009,0.014,0.017,0.021,0.026C129.621,137.819,130.755,136.67,130.275,136.027z
			 M101.805,134.866c0.05-0.052,0.102-0.101,0.143-0.17c0.297-0.503,0.582-1.012,0.889-1.509c0.128-0.207,0.319-0.574,0.539-0.851
			c-0.06,0.703-0.025,1.423,0.017,2.154c0.126,2.24,0.309,4.507,0.268,6.756c-0.57,0.352-1.06,1.052-1.416,1.655
			c0.018-1.118,0.032-2.238-0.026-3.347C102.136,137.994,101.55,136.425,101.805,134.866z M113.795,144.103
			c-0.037-0.024-0.064-0.053-0.116-0.069c-1.666-0.495-3.309-0.226-5.017-0.174c-2.19,0.066-4.308,0.269-6.442,0.774
			c0-0.065,0.002-0.131,0.003-0.195c0.277,0.049,0.613-0.07,0.803-0.433c0.163-0.311,0.355-0.605,0.554-0.894
			c0.097-0.141,0.2-0.276,0.308-0.408c0.048-0.059,0.093-0.1,0.131-0.132c0.066,0.085,0.164,0.15,0.337,0.153
			c3.444,0.057,6.94-0.719,10.346-0.072C114.302,143.155,113.971,143.714,113.795,144.103z M115.992,146.948
			c0.002-0.091-0.016-0.181-0.059-0.266c-0.334-0.657-0.706-1.291-1.082-1.923c0.06-0.076,0.108-0.162,0.139-0.26
			c0.089-0.281,0.266-0.525,0.429-0.767c0.118-0.176,0.248-0.339,0.386-0.499c0.04-0.046,0.067-0.074,0.093-0.102
			c0.184-0.003,0.37-0.087,0.53-0.224c0.036,0.471,0.108,0.943,0.159,1.332c0.108,0.824,0.253,1.644,0.395,2.465
			C116.635,146.727,116.303,146.819,115.992,146.948z M127.937,136.912c-1.113,2.237-3.104,3.783-4.859,5.496
			c-0.888,0.867-1.696,1.778-2.669,2.557c-0.645,0.516-1.348,0.894-1.992,1.382c-0.1-0.578-0.202-1.156-0.29-1.736
			c-0.084-0.551-0.159-1.104-0.224-1.657c-0.031-0.261-0.054-0.522-0.074-0.784c-0.014-0.196,0.09-0.505-0.095-0.188
			c0.534-0.917-0.668-1.276-1.13-0.483c-0.015,0.025-0.014,0.058-0.027,0.084c-0.049-0.048-0.11-0.089-0.199-0.113
			c-3.755-0.992-7.512-0.14-11.321-0.176c0.039-1.753-0.107-3.496-0.141-5.249c-0.027-1.392-0.466-3.166-0.106-4.592
			c1.686-0.329,3.364,0.018,5.065,0.181c2.019,0.193,4.052-0.015,6.085,0.162c0.309,0.027,0.604-0.203,0.787-0.484
			c0.367-0.17,0.594-0.532,0.583-0.933c-0.025-0.904-0.333-1.903-0.263-2.83c2.031,1.002,3.762,2.697,5.75,3.803
			c2.259,1.256,4.141,3.097,5.745,5.109C128.328,136.48,128.084,136.617,127.937,136.912z"/>
	</g>
</g>
</svg>
