<?xml version="1.0" encoding="utf-8"?>
<!-- Generator: Adobe Illustrator 17.0.0, SVG Export Plug-In . SVG Version: 6.00 Build 0)  -->
<!DOCTYPE svg PUBLIC "-//W3C//DTD SVG 1.1//EN" "http://www.w3.org/Graphics/SVG/1.1/DTD/svg11.dtd">
<svg version="1.1" id="Слой_1" xmlns="http://www.w3.org/2000/svg" xmlns:xlink="http://www.w3.org/1999/xlink" x="0px" y="0px"
	 width="153.866px" height="55.441px" viewBox="344.781 268.14 153.866 55.441"
	 enable-background="new 344.781 268.14 153.866 55.441" xml:space="preserve">
<g>
	<rect x="348.247" y="279.979" fill="none" width="141.118" height="27.461"/>
	<g enable-background="new    ">
		<path d="M361.784,277.743h1.422l2.857,6.494l2.803-6.494h1.429v9.967h-1.511v-6.214h-0.027l-2.092,4.785h-1.258l-2.085-4.785
			h-0.027v6.214h-1.511V277.743z"/>
		<path d="M374.848,287.791c-0.524,0-0.968-0.103-1.333-0.308c-0.36-0.187-0.633-0.388-0.82-0.602
			c-0.273-0.296-0.469-0.636-0.588-1.019c-0.123-0.374-0.185-0.943-0.185-1.709c0-0.757,0.062-1.331,0.185-1.723
			c0.127-0.401,0.324-0.733,0.588-0.998c0.196-0.232,0.469-0.442,0.82-0.629c0.355-0.187,0.8-0.28,1.333-0.28
			c0.551,0,1.005,0.094,1.36,0.28c0.342,0.187,0.606,0.396,0.793,0.629c0.273,0.265,0.474,0.597,0.602,0.998
			c0.114,0.41,0.171,0.984,0.171,1.723c0,0.747-0.057,1.317-0.171,1.709c-0.127,0.392-0.328,0.731-0.602,1.019
			c-0.045,0.046-0.096,0.097-0.15,0.153c-0.055,0.058-0.116,0.108-0.185,0.154c-0.127,0.114-0.28,0.212-0.458,0.294
			C375.843,287.689,375.39,287.791,374.848,287.791z M374.848,286.363c0.25,0,0.479-0.05,0.684-0.15
			c0.205-0.096,0.36-0.217,0.465-0.362c0.15-0.196,0.244-0.401,0.28-0.615c0.018-0.114,0.034-0.26,0.048-0.438
			s0.021-0.388,0.021-0.629c0-0.251-0.007-0.467-0.021-0.649s-0.03-0.335-0.048-0.458c-0.037-0.214-0.13-0.41-0.28-0.588
			c-0.105-0.15-0.26-0.275-0.465-0.376c-0.187-0.096-0.415-0.144-0.684-0.144c-0.25,0-0.474,0.048-0.67,0.144
			c-0.187,0.091-0.346,0.217-0.479,0.376c-0.123,0.159-0.212,0.355-0.267,0.588c-0.055,0.241-0.082,0.606-0.082,1.094
			c0,0.492,0.027,0.853,0.082,1.08c0.055,0.232,0.144,0.438,0.267,0.615c0.141,0.146,0.301,0.267,0.479,0.362
			C374.401,286.313,374.625,286.363,374.848,286.363z"/>
		<path d="M378.56,286.39h0.308c0.127,0,0.233-0.009,0.318-0.027s0.155-0.048,0.212-0.089s0.106-0.1,0.147-0.174
			c0.041-0.076,0.086-0.175,0.137-0.298l0.321-0.868c0.1-0.26,0.226-0.466,0.376-0.619c0.15-0.152,0.346-0.268,0.588-0.345
			c-0.16-0.055-0.307-0.143-0.441-0.263c-0.134-0.121-0.24-0.289-0.318-0.503l-0.232-0.704c-0.05-0.132-0.096-0.237-0.137-0.314
			s-0.092-0.138-0.154-0.182c-0.062-0.043-0.137-0.071-0.226-0.085s-0.202-0.021-0.338-0.021h-0.226v-1.285h0.492
			c0.456,0,0.814,0.094,1.077,0.28s0.471,0.494,0.625,0.923l0.342,0.95c0.073,0.196,0.196,0.354,0.369,0.476
			c0.173,0.12,0.38,0.181,0.622,0.181h0.39v-2.81h1.429v2.81h0.383c0.25,0,0.462-0.061,0.636-0.181
			c0.173-0.121,0.296-0.279,0.369-0.476l0.335-0.95c0.16-0.429,0.368-0.736,0.625-0.923s0.619-0.28,1.083-0.28h0.479v1.285h-0.212
			c-0.141,0-0.259,0.007-0.352,0.021s-0.167,0.042-0.222,0.085c-0.055,0.044-0.104,0.104-0.147,0.182s-0.088,0.183-0.133,0.314
			l-0.253,0.704c-0.073,0.214-0.178,0.382-0.314,0.503c-0.137,0.12-0.285,0.208-0.444,0.263c0.246,0.077,0.443,0.192,0.591,0.345
			c0.148,0.153,0.274,0.359,0.379,0.619l0.335,0.868c0.045,0.123,0.09,0.222,0.133,0.298c0.043,0.074,0.092,0.133,0.147,0.174
			s0.122,0.07,0.202,0.089s0.186,0.027,0.318,0.027h0.321v1.319h-0.52c-0.25,0-0.472-0.022-0.663-0.068s-0.358-0.117-0.499-0.215
			c-0.141-0.099-0.266-0.229-0.373-0.394s-0.206-0.362-0.297-0.595l-0.396-1.012c-0.064-0.169-0.143-0.297-0.236-0.387
			c-0.093-0.088-0.194-0.155-0.301-0.201s-0.216-0.073-0.328-0.082s-0.225-0.014-0.338-0.014h-0.308v2.967h-1.429v-2.967h-0.308
			c-0.109,0-0.223,0.005-0.342,0.014s-0.231,0.036-0.338,0.082s-0.208,0.113-0.301,0.201c-0.093,0.09-0.172,0.218-0.236,0.387
			l-0.376,1.012c-0.096,0.232-0.197,0.431-0.304,0.595s-0.232,0.295-0.376,0.394c-0.144,0.098-0.309,0.169-0.496,0.215
			s-0.408,0.068-0.663,0.068h-0.513V286.39z"/>
		<path d="M392.437,287.791c-0.383,0-0.748-0.055-1.094-0.164c-0.16-0.05-0.333-0.13-0.52-0.239
			c-0.168-0.073-0.335-0.18-0.499-0.321c-0.31-0.282-0.554-0.651-0.731-1.107c-0.205-0.446-0.308-1.039-0.308-1.777
			c0-0.72,0.089-1.304,0.267-1.75c0.187-0.497,0.415-0.87,0.684-1.121c0.273-0.269,0.59-0.47,0.95-0.602
			c0.337-0.123,0.679-0.185,1.025-0.185c0.811,0.019,1.497,0.285,2.058,0.8c0.561,0.524,0.85,1.258,0.868,2.201v1.176h-4.423
			c0,0.569,0.164,1.003,0.492,1.299c0.314,0.301,0.715,0.451,1.203,0.451c0.579,0,1.096-0.23,1.552-0.69l1.039,0.882
			C394.262,287.417,393.407,287.8,392.437,287.791z M393.708,283.526c-0.018-0.542-0.167-0.959-0.444-1.251
			c-0.273-0.269-0.625-0.403-1.053-0.403s-0.779,0.135-1.053,0.403c-0.269,0.292-0.417,0.709-0.444,1.251H393.708z"/>
		<path d="M398.049,281.953h-2.181v-1.34h5.708v1.34h-2.099v5.756h-1.429V281.953z"/>
		<path d="M405.459,287.791c-0.383,0-0.748-0.055-1.094-0.164c-0.16-0.05-0.333-0.13-0.52-0.239
			c-0.168-0.073-0.335-0.18-0.499-0.321c-0.31-0.282-0.554-0.651-0.731-1.107c-0.205-0.446-0.308-1.039-0.308-1.777
			c0-0.72,0.089-1.304,0.267-1.75c0.187-0.497,0.415-0.87,0.684-1.121c0.273-0.269,0.59-0.47,0.95-0.602
			c0.337-0.123,0.679-0.185,1.025-0.185c0.811,0.019,1.497,0.285,2.058,0.8c0.561,0.524,0.85,1.258,0.868,2.201v1.176h-4.423
			c0,0.569,0.164,1.003,0.492,1.299c0.314,0.301,0.715,0.451,1.203,0.451c0.579,0,1.096-0.23,1.552-0.69l1.039,0.882
			C407.284,287.417,406.43,287.8,405.459,287.791z M406.731,283.526c-0.018-0.542-0.167-0.959-0.444-1.251
			c-0.273-0.269-0.625-0.403-1.053-0.403s-0.779,0.135-1.053,0.403c-0.269,0.292-0.417,0.709-0.444,1.251H406.731z"/>
		<path d="M414.92,287.791c-0.588,0-1.093-0.094-1.514-0.28s-0.814-0.477-1.179-0.868l1.039-0.882
			c0.232,0.237,0.468,0.411,0.708,0.522c0.239,0.112,0.555,0.168,0.947,0.168c0.438,0,0.79-0.08,1.056-0.239s0.4-0.395,0.4-0.704
			c0-0.306-0.1-0.521-0.301-0.646c-0.201-0.125-0.513-0.188-0.937-0.188h-1.032v-1.176h1.053c0.342,0,0.615-0.075,0.82-0.226
			s0.308-0.36,0.308-0.629c0-0.273-0.119-0.473-0.355-0.599c-0.237-0.125-0.574-0.188-1.012-0.188c-0.292,0-0.578,0.049-0.858,0.146
			c-0.28,0.099-0.532,0.255-0.755,0.469l-1.019-0.882c0.168-0.169,0.341-0.317,0.516-0.448c0.175-0.129,0.372-0.241,0.588-0.334
			c0.216-0.094,0.459-0.164,0.728-0.213c0.269-0.047,0.581-0.071,0.937-0.071c0.383,0,0.743,0.03,1.08,0.093
			c0.337,0.061,0.626,0.181,0.868,0.358c0.223,0.159,0.393,0.369,0.509,0.629s0.174,0.54,0.174,0.841
			c0,0.347-0.091,0.66-0.273,0.939c-0.182,0.281-0.435,0.484-0.759,0.612c0.342,0.132,0.619,0.343,0.831,0.632
			c0.212,0.29,0.318,0.631,0.318,1.022c0,0.364-0.086,0.703-0.26,1.015c-0.173,0.312-0.419,0.562-0.738,0.749
			c-0.242,0.15-0.525,0.251-0.851,0.301S415.285,287.791,414.92,287.791z"/>
		<path d="M421.25,287.791c-0.784-0.009-1.395-0.219-1.832-0.629c-0.451-0.401-0.677-0.914-0.677-1.538
			c0-0.597,0.196-1.092,0.588-1.483c0.383-0.392,0.957-0.597,1.723-0.615h1.976v-0.745c0.009-0.624-0.477-0.928-1.456-0.909
			c-0.338,0-0.618,0.036-0.841,0.109c-0.214,0.087-0.383,0.232-0.506,0.438l-1.121-0.854c0.542-0.711,1.342-1.058,2.4-1.039
			c0.893-0.009,1.606,0.159,2.14,0.506c0.523,0.347,0.795,0.957,0.813,1.832v4.847h-1.429v-0.629h-0.027
			c-0.133,0.241-0.338,0.419-0.615,0.533C422.13,287.732,421.752,287.791,421.25,287.791z M421.428,286.452
			c0.602,0.019,1.023-0.053,1.265-0.212c0.223-0.15,0.335-0.492,0.335-1.025v-0.513h-1.709c-0.838,0.019-1.249,0.303-1.23,0.854
			c0,0.241,0.107,0.446,0.321,0.615C420.624,286.358,420.963,286.452,421.428,286.452z"/>
		<path d="M426.302,280.614h4.607v1.34h-3.179v5.756h-1.429V280.614z"/>
		<path d="M431.142,286.363h0.226c0.15,0,0.29-0.012,0.42-0.034s0.249-0.092,0.355-0.209c0.107-0.115,0.201-0.292,0.28-0.529
			c0.08-0.237,0.148-0.568,0.205-0.994c0.058-0.427,0.1-0.965,0.127-1.613c0.027-0.65,0.041-1.439,0.041-2.369h4.806v7.096h-1.429
			v-5.756h-2.017c0,0.861-0.024,1.602-0.072,2.222s-0.116,1.142-0.205,1.565s-0.202,0.767-0.342,1.029
			c-0.139,0.262-0.3,0.461-0.481,0.598c-0.183,0.137-0.388,0.228-0.615,0.273c-0.229,0.046-0.479,0.068-0.752,0.068h-0.547V286.363z
			"/>
		<path d="M438.853,286.363h0.321c0.195,0,0.352-0.025,0.468-0.075s0.209-0.15,0.277-0.301l0.267-0.615
			c0.045-0.132,0.102-0.247,0.167-0.346c0.066-0.098,0.163-0.188,0.291-0.27c-0.447-0.077-0.801-0.297-1.063-0.66
			c-0.262-0.361-0.393-0.81-0.393-1.343c0-0.67,0.208-1.194,0.625-1.572s0.979-0.567,1.686-0.567h3.247v7.096h-1.429v-2.728h-0.574
			c-0.342,0-0.595,0.052-0.759,0.153c-0.164,0.104-0.312,0.312-0.444,0.626l-0.321,0.786c-0.082,0.214-0.175,0.395-0.277,0.54
			s-0.22,0.266-0.352,0.358c-0.133,0.094-0.288,0.161-0.469,0.202c-0.18,0.041-0.393,0.062-0.639,0.062h-0.629V286.363z
			 M443.317,283.806v-1.907h-1.661c-0.355,0-0.622,0.087-0.8,0.26s-0.267,0.408-0.267,0.704c0,0.629,0.355,0.943,1.066,0.943
			H443.317z"/>
		<path d="M446.591,280.614h1.429v2.769h2.816v-2.769h1.429v7.096h-1.429v-2.98h-2.816v2.98h-1.429V280.614z"/>
		<path d="M453.974,289.234h0.417c0.187,0,0.359-0.05,0.52-0.15c0.15-0.096,0.262-0.251,0.335-0.465l0.39-1.189l-2.543-6.815h1.511
			l1.682,4.97h0.027l1.675-4.97h1.518l-3.056,8.565c-0.196,0.533-0.468,0.902-0.813,1.107c-0.352,0.196-0.748,0.294-1.189,0.294
			h-0.472V289.234z"/>
		<path d="M461.74,281.953h-2.181v-1.34h5.708v1.34h-2.099v5.756h-1.429V281.953z"/>
		<path d="M466.347,280.614h1.429v2.673h1.873c0.692,0,1.248,0.203,1.668,0.608c0.419,0.405,0.629,0.938,0.629,1.6
			c0,0.665-0.21,1.201-0.629,1.606c-0.42,0.405-0.976,0.608-1.668,0.608h-3.302V280.614z M469.499,286.452
			c0.328,0,0.583-0.087,0.766-0.26c0.182-0.173,0.273-0.415,0.273-0.725c0-0.296-0.092-0.531-0.273-0.704
			c-0.183-0.173-0.438-0.26-0.766-0.26h-1.723v1.948H469.499z"/>
		<path d="M476.594,280.614h3.404c0.651,0,1.171,0.172,1.559,0.516c0.387,0.345,0.581,0.806,0.581,1.385
			c0,0.711-0.331,1.219-0.991,1.524c0.355,0.159,0.629,0.375,0.82,0.646c0.191,0.271,0.287,0.612,0.287,1.022
			c0,0.615-0.189,1.103-0.567,1.463c-0.379,0.36-0.905,0.54-1.579,0.54h-3.514V280.614z M479.732,283.526
			c0.67,0,1.005-0.294,1.005-0.882c0-0.273-0.086-0.481-0.257-0.626c-0.171-0.143-0.42-0.215-0.748-0.215h-1.709v1.723H479.732z
			 M479.828,286.52c0.318,0,0.569-0.087,0.752-0.26c0.182-0.173,0.273-0.403,0.273-0.69c0-0.301-0.092-0.533-0.273-0.697
			c-0.183-0.164-0.434-0.246-0.752-0.246h-1.805v1.894H479.828z"/>
	</g>
	<g enable-background="new    ">
		<path d="M378.31,292.614h1.415l2.126,4.225l2.119-4.225h1.395v7.096h-1.429v-4.553l-1.634,3.254h-0.896l-1.668-3.254v4.553h-1.429
			V292.614z"/>
		<path d="M389.787,299.791c-0.524,0-0.968-0.103-1.333-0.308c-0.36-0.187-0.633-0.388-0.82-0.602
			c-0.273-0.296-0.469-0.636-0.588-1.019c-0.123-0.374-0.185-0.943-0.185-1.709c0-0.757,0.062-1.331,0.185-1.723
			c0.127-0.401,0.324-0.733,0.588-0.998c0.196-0.232,0.469-0.442,0.82-0.629c0.355-0.187,0.8-0.28,1.333-0.28
			c0.551,0,1.005,0.094,1.36,0.28c0.342,0.187,0.606,0.396,0.793,0.629c0.273,0.265,0.474,0.597,0.602,0.998
			c0.114,0.41,0.171,0.984,0.171,1.723c0,0.747-0.057,1.317-0.171,1.709c-0.127,0.392-0.328,0.731-0.602,1.019
			c-0.045,0.046-0.096,0.097-0.15,0.153c-0.055,0.058-0.116,0.108-0.185,0.154c-0.127,0.114-0.28,0.212-0.458,0.294
			C390.783,299.689,390.33,299.791,389.787,299.791z M389.787,298.363c0.25,0,0.479-0.05,0.684-0.15
			c0.205-0.096,0.36-0.217,0.465-0.362c0.15-0.196,0.244-0.401,0.28-0.615c0.018-0.114,0.034-0.26,0.048-0.438
			s0.021-0.388,0.021-0.629c0-0.251-0.007-0.467-0.021-0.649s-0.03-0.335-0.048-0.458c-0.037-0.214-0.13-0.41-0.28-0.588
			c-0.105-0.15-0.26-0.275-0.465-0.376c-0.187-0.096-0.415-0.144-0.684-0.144c-0.25,0-0.474,0.048-0.67,0.144
			c-0.187,0.091-0.346,0.217-0.479,0.376c-0.123,0.159-0.212,0.355-0.267,0.588c-0.055,0.241-0.082,0.606-0.082,1.094
			c0,0.492,0.027,0.853,0.082,1.08c0.055,0.232,0.144,0.438,0.267,0.615c0.141,0.146,0.301,0.267,0.479,0.362
			C389.341,298.313,389.564,298.363,389.787,298.363z"/>
		<path d="M394.21,292.614h1.429v4.812l3.083-4.812h1.429v7.096h-1.429v-4.888l-3.083,4.888h-1.429V292.614z M395.769,289.661
			c0.096,0.374,0.26,0.638,0.492,0.793c0.242,0.159,0.549,0.239,0.923,0.239c0.346,0.009,0.645-0.066,0.896-0.226
			c0.26-0.146,0.433-0.415,0.52-0.807h0.841c-0.05,0.588-0.267,1.053-0.649,1.395c-0.383,0.374-0.918,0.561-1.606,0.561
			c-0.674,0-1.201-0.187-1.579-0.561c-0.392-0.342-0.618-0.807-0.677-1.395H395.769z"/>
		<path d="M405.353,292.614h5.674v7.096h-1.429v-5.756h-2.816v5.756h-1.429V292.614z"/>
		<path d="M415.449,299.791c-0.524,0-0.968-0.103-1.333-0.308c-0.36-0.187-0.633-0.388-0.82-0.602
			c-0.273-0.296-0.469-0.636-0.588-1.019c-0.123-0.374-0.185-0.943-0.185-1.709c0-0.757,0.062-1.331,0.185-1.723
			c0.127-0.401,0.324-0.733,0.588-0.998c0.196-0.232,0.469-0.442,0.82-0.629c0.355-0.187,0.8-0.28,1.333-0.28
			c0.551,0,1.005,0.094,1.36,0.28c0.342,0.187,0.606,0.396,0.793,0.629c0.273,0.265,0.474,0.597,0.602,0.998
			c0.114,0.41,0.171,0.984,0.171,1.723c0,0.747-0.057,1.317-0.171,1.709c-0.127,0.392-0.328,0.731-0.602,1.019
			c-0.045,0.046-0.096,0.097-0.15,0.153c-0.055,0.058-0.116,0.108-0.185,0.154c-0.127,0.114-0.28,0.212-0.458,0.294
			C416.445,299.689,415.992,299.791,415.449,299.791z M415.449,298.363c0.25,0,0.479-0.05,0.684-0.15
			c0.205-0.096,0.36-0.217,0.465-0.362c0.15-0.196,0.244-0.401,0.28-0.615c0.018-0.114,0.034-0.26,0.048-0.438
			s0.021-0.388,0.021-0.629c0-0.251-0.007-0.467-0.021-0.649s-0.03-0.335-0.048-0.458c-0.037-0.214-0.13-0.41-0.28-0.588
			c-0.105-0.15-0.26-0.275-0.465-0.376c-0.187-0.096-0.415-0.144-0.684-0.144c-0.25,0-0.474,0.048-0.67,0.144
			c-0.187,0.091-0.346,0.217-0.479,0.376c-0.123,0.159-0.212,0.355-0.267,0.588c-0.055,0.241-0.082,0.606-0.082,1.094
			c0,0.492,0.027,0.853,0.082,1.08c0.055,0.232,0.144,0.438,0.267,0.615c0.141,0.146,0.301,0.267,0.479,0.362
			C415.003,298.313,415.226,298.363,415.449,298.363z"/>
		<path d="M419.872,292.614h1.429v0.738c0.478-0.533,1.089-0.809,1.832-0.827c0.861,0.009,1.497,0.319,1.907,0.93
			c0.205,0.232,0.34,0.526,0.403,0.882c0.037,0.187,0.062,0.432,0.079,0.734c0.016,0.304,0.023,0.669,0.023,1.098
			c0,0.419-0.008,0.778-0.023,1.076c-0.017,0.299-0.042,0.542-0.079,0.729c-0.063,0.355-0.198,0.654-0.403,0.896
			c-0.205,0.282-0.462,0.501-0.772,0.656c-0.305,0.159-0.684,0.248-1.135,0.267c-0.351,0-0.677-0.08-0.978-0.239
			c-0.31-0.155-0.595-0.355-0.854-0.602v3.63h-1.429V292.614z M422.702,298.363c0.328,0,0.595-0.063,0.8-0.191
			c0.196-0.123,0.335-0.292,0.417-0.506c0.096-0.196,0.157-0.433,0.185-0.711c0.01-0.132,0.014-0.263,0.014-0.394
			c0-0.129,0-0.261,0-0.393c0-0.142,0-0.281,0-0.42c0-0.14-0.004-0.275-0.014-0.407c-0.027-0.278-0.089-0.515-0.185-0.711
			c-0.082-0.205-0.221-0.374-0.417-0.506c-0.195-0.114-0.462-0.171-0.8-0.171c-0.318,0-0.571,0.066-0.759,0.198
			c-0.187,0.123-0.33,0.296-0.431,0.52c-0.086,0.205-0.143,0.438-0.17,0.697c-0.027,0.273-0.041,0.54-0.041,0.8
			c0,0.251,0.014,0.501,0.041,0.752c0.027,0.273,0.084,0.513,0.17,0.718c0.101,0.224,0.244,0.396,0.431,0.52
			C422.121,298.294,422.374,298.363,422.702,298.363z"/>
		<path d="M428.553,293.953h-2.181v-1.34h5.708v1.34h-2.099v5.756h-1.429V293.953z"/>
		<path d="M436.777,299.374c-0.209,0.15-0.424,0.258-0.643,0.321s-0.494,0.096-0.827,0.096c-0.46,0-0.847-0.091-1.158-0.273
			c-0.312-0.183-0.575-0.426-0.79-0.731c-0.096-0.142-0.173-0.288-0.232-0.44c-0.059-0.153-0.105-0.333-0.14-0.541
			c-0.034-0.207-0.056-0.445-0.065-0.714c-0.009-0.269-0.014-0.586-0.014-0.95c0-0.569,0.021-1.07,0.065-1.5
			c0.043-0.432,0.172-0.817,0.386-1.159c0.215-0.337,0.493-0.581,0.838-0.731c0.344-0.15,0.732-0.226,1.165-0.226
			c0.333,0,0.605,0.042,0.817,0.126c0.212,0.085,0.411,0.193,0.598,0.325v-3.233h1.408v3.233c0.188-0.132,0.387-0.24,0.599-0.325
			c0.212-0.084,0.484-0.126,0.816-0.126c0.429,0,0.816,0.075,1.162,0.226c0.347,0.15,0.627,0.395,0.841,0.731
			c0.215,0.342,0.343,0.728,0.387,1.159c0.043,0.43,0.064,0.931,0.064,1.5c0,0.364-0.004,0.682-0.014,0.95
			c-0.009,0.269-0.03,0.507-0.064,0.714c-0.034,0.208-0.081,0.388-0.141,0.541c-0.059,0.152-0.137,0.299-0.232,0.44
			c-0.214,0.306-0.478,0.549-0.789,0.731c-0.312,0.183-0.698,0.273-1.159,0.273c-0.332,0-0.609-0.032-0.83-0.096
			c-0.222-0.063-0.435-0.171-0.64-0.321v3.206h-1.408V299.374z M435.697,298.363c0.224,0,0.427-0.044,0.608-0.134
			c0.183-0.088,0.34-0.206,0.472-0.352v-3.432c-0.132-0.15-0.287-0.27-0.465-0.359c-0.178-0.088-0.378-0.133-0.602-0.133
			c-0.479,0-0.829,0.164-1.053,0.492c-0.223,0.328-0.335,0.902-0.335,1.723c0,0.802,0.112,1.368,0.335,1.699
			C434.882,298.198,435.228,298.363,435.697,298.363z M439.265,298.363c0.465,0,0.811-0.165,1.036-0.495
			c0.226-0.331,0.338-0.897,0.338-1.699c0-0.82-0.112-1.395-0.338-1.723s-0.575-0.492-1.05-0.492c-0.223,0-0.424,0.045-0.602,0.133
			c-0.178,0.09-0.332,0.209-0.465,0.359v3.432c0.133,0.146,0.29,0.264,0.472,0.352C438.84,298.319,439.043,298.363,439.265,298.363z
			"/>
		<path d="M446.45,299.791c-0.383,0-0.747-0.055-1.094-0.164c-0.159-0.05-0.332-0.13-0.52-0.239
			c-0.168-0.073-0.335-0.18-0.499-0.321c-0.31-0.282-0.554-0.651-0.731-1.107c-0.205-0.446-0.308-1.039-0.308-1.777
			c0-0.72,0.089-1.304,0.267-1.75c0.188-0.497,0.415-0.87,0.684-1.121c0.273-0.269,0.591-0.47,0.95-0.602
			c0.338-0.123,0.68-0.185,1.025-0.185c0.812,0.019,1.497,0.285,2.058,0.8c0.561,0.524,0.851,1.258,0.868,2.201v1.176h-4.423
			c0,0.569,0.164,1.003,0.492,1.299c0.314,0.301,0.716,0.451,1.203,0.451c0.579,0,1.097-0.23,1.552-0.69l1.039,0.882
			C448.275,299.417,447.421,299.8,446.45,299.791z M447.721,295.526c-0.018-0.542-0.166-0.959-0.444-1.251
			c-0.273-0.269-0.624-0.403-1.053-0.403c-0.428,0-0.779,0.135-1.053,0.403c-0.269,0.292-0.417,0.709-0.444,1.251H447.721z"/>
		<path d="M449.806,298.363h0.226c0.15,0,0.291-0.012,0.421-0.034s0.248-0.092,0.355-0.209c0.106-0.115,0.2-0.292,0.28-0.529
			c0.079-0.237,0.147-0.568,0.205-0.994c0.057-0.427,0.099-0.965,0.126-1.613c0.027-0.65,0.041-1.439,0.041-2.369h4.806v7.096
			h-1.429v-5.756h-2.017c0,0.861-0.023,1.602-0.071,2.222s-0.116,1.142-0.205,1.565s-0.203,0.767-0.342,1.029
			c-0.14,0.262-0.3,0.461-0.482,0.598c-0.182,0.137-0.387,0.228-0.615,0.273c-0.228,0.046-0.479,0.068-0.752,0.068h-0.547V298.363z"
			/>
		<path d="M458.105,292.614h1.429v2.673h1.873c0.693,0,1.249,0.203,1.668,0.608c0.42,0.405,0.629,0.938,0.629,1.6
			c0,0.665-0.209,1.201-0.629,1.606c-0.419,0.405-0.975,0.608-1.668,0.608h-3.302V292.614z M461.257,298.452
			c0.328,0,0.584-0.087,0.766-0.26c0.183-0.173,0.273-0.415,0.273-0.725c0-0.296-0.091-0.531-0.273-0.704
			c-0.182-0.173-0.438-0.26-0.766-0.26h-1.723v1.948H461.257z"/>
	</g>
	<path d="M498.63,286.202c-0.297-11.388-12.746-9.073-20.207-9.191c-16.958-0.266-33.917-0.223-50.872-0.718
		c-18.441-0.538-36.958-3.07-55.419-1.77c-9.475,0.667-30.534,3.218-26.943,18.447c0.101,0.429,0.377,0.571,0.682,0.55
		c0.983,7.201,5.896,12.182,11.101,16.709c6.399,5.565,12.206,13.429,21.206,13.351c0.663-0.006,1.799-1.097,1.063-1.786
		c-2.115-1.98-4.177-3.991-5.609-6.607c-2.733-4.993,6.621-5.672,9.202-6.003c8.356-1.074,16.878-0.718,25.276-0.64
		c16.537,0.153,33.029,1.611,49.564,1.686c9.754,0.044,20.469,1.457,29.89-1.949C496.576,305.023,498.876,295.685,498.63,286.202z
		 M491.308,304.666c-5.338,3.8-13.596,3.697-19.724,3.802c-28.902,0.498-57.897-3.881-86.776-1.406
		c-3.445,0.295-11.442,0.382-13.134,4.84c-1.324,3.49,1.279,6.799,3.833,9.336c-6.478-1.51-10.893-7.334-16.045-11.726
		c-5.7-4.859-11.531-10.152-11.938-18.474c-0.027-0.56-0.402-0.645-0.802-0.493c-1.747-15.797,29.905-14.542,38.772-14.41
		c6.963,0.104,13.898,0.694,20.844,1.163c17.01,1.147,34.067,1.311,51.105,1.462c8.119,0.072,16.237,0.138,24.355,0.279
		c5.154,0.089,12.971-1.319,14.713,5.447C498.006,290.302,496.207,301.178,491.308,304.666z"/>
</g>
</svg>
